<svg id="Elinqilotontli_1" data-name="Elinqilotontli 1" xmlns="http://www.w3.org/2000/svg" viewBox="0 0 200 200"><title>00035-_e1</title><path d="M116.4043,92.07764a45.53517,45.53517,0,0,1-16.46485-9.2793,44.25592,44.25592,0,0,1-10.72461-14.186l2.707-1.29394a41.26331,41.26331,0,0,0,10.00195,13.23,42.55034,42.55034,0,0,0,15.38672,8.66992Z"/><path d="M96.90186,103.419a45.52892,45.52892,0,0,1-16.46436-9.2793,44.25592,44.25592,0,0,1-10.72461-14.186l2.707-1.29394a41.26906,41.26906,0,0,0,10.00147,13.23,42.554,42.554,0,0,0,15.38672,8.66992Z"/></svg>