<svg id="Elinqilotontli_3" data-name="Elinqilotontli 3" xmlns="http://www.w3.org/2000/svg" viewBox="0 0 200 200"><title>00037-_e3</title><path d="M91.40332,102.07813a45.53944,45.53944,0,0,1-16.46387-9.27979,44.25592,44.25592,0,0,1-10.72461-14.186l2.707-1.29394a41.26889,41.26889,0,0,0,10.00146,13.23,42.5635,42.5635,0,0,0,15.38721,8.66992Z"/><path d="M71.90186,113.419a45.52892,45.52892,0,0,1-16.46436-9.2793,44.25592,44.25592,0,0,1-10.72461-14.186l2.707-1.29394a41.26906,41.26906,0,0,0,10.00147,13.23,42.54685,42.54685,0,0,0,15.38672,8.66992Z"/></svg>