<svg id="Elinqilotontli_4" data-name="Elinqilotontli 4" xmlns="http://www.w3.org/2000/svg" viewBox="0 0 200 200"><title>00038-_e4</title><path d="M61.40332,92.07764A45.54132,45.54132,0,0,1,44.939,82.79834a44.25446,44.25446,0,0,1-10.72412-14.186l2.707-1.29394a41.26889,41.26889,0,0,0,10.00146,13.23,42.5635,42.5635,0,0,0,15.38721,8.66992Z"/><path d="M41.90186,103.419a45.52892,45.52892,0,0,1-16.46436-9.2793,44.25592,44.25592,0,0,1-10.72461-14.186l2.707-1.29394a41.26906,41.26906,0,0,0,10.00147,13.23,42.554,42.554,0,0,0,15.38672,8.66992Z"/></svg>