<svg id="Elinqilotontli_5" data-name="Elinqilotontli 5" xmlns="http://www.w3.org/2000/svg" viewBox="0 0 200 200"><title>00039-_e5</title><path d="M98.40332,137.07813a45.54368,45.54368,0,0,1-16.46387-9.28028,44.24046,44.24046,0,0,1-10.72461-14.18652l2.707-1.293a41.25481,41.25481,0,0,0,10.00146,13.22949,42.576,42.576,0,0,0,15.38721,8.6709Z"/><path d="M78.90186,148.419a45.52892,45.52892,0,0,1-16.46436-9.2793,44.24367,44.24367,0,0,1-10.72461-14.18652l2.707-1.293a41.25819,41.25819,0,0,0,10.00147,13.22949,42.54685,42.54685,0,0,0,15.38672,8.66992Z"/></svg>