<svg id="Elinqilotontli_akopa_5" data-name="Elinqilotontli akopa 5" xmlns="http://www.w3.org/2000/svg" viewBox="0 0 200 200"><title>00044-_e_5</title><path d="M75.61328,54.78271a34.21964,34.21964,0,0,1-11.63623-5.5205,27.58394,27.58394,0,0,1-7.65283-8.521l2.6084-1.48242a24.60272,24.60272,0,0,0,6.83154,7.59375,31.231,31.231,0,0,0,10.62256,5.03174Z"/><path d="M61.98486,61.44922a34.21434,34.21434,0,0,1-11.63672-5.51953,27.58451,27.58451,0,0,1-7.65234-8.52246l2.6084-1.48145a24.5989,24.5989,0,0,0,6.831,7.59375,31.21763,31.21763,0,0,0,10.623,5.03125Z"/></svg>