<svg id="Ufalqilotontli_1" data-name="Ufalqilotontli 1" xmlns="http://www.w3.org/2000/svg" viewBox="0 0 200 200"><title>00145-_u1</title><path d="M78.458,99.5q-.37208,0-.74512-.0083l.06641-2.999a27.1606,27.1606,0,0,0,11.86181-2.3335A30.301,30.301,0,0,0,99.019,87.38379a14.31762,14.31762,0,0,1-3.77148-2.50733c-1.292-1.208-4.3169-4.03662-4.22949-8.42236a10.54668,10.54668,0,0,1,7.65039-9.60644c3.40478-.91455,8.10107-.0708,9.74267,2.89209,1.11621,2.0122,1.11524,4.85595-.00195,8.22412a29.4979,29.4979,0,0,1-4.22852,7.88183c.47168.0791.94825.13477,1.42579.16651l-.19922,2.99316a17.41477,17.41477,0,0,1-2.9961-.46338c-.09472-.02344-.207-.05078-.335-.08349a33.662,33.662,0,0,1-11.20068,8.43505A29.95044,29.95044,0,0,1,78.458,99.5Zm22.93652-29.999a7.31062,7.31062,0,0,0-7.37744,7.01269c-.06055,3.04834,2.19531,5.15772,3.2793,6.17139a11.65277,11.65277,0,0,0,3.78174,2.31836,27.37536,27.37536,0,0,0,4.48339-7.98389c.82227-2.47851.9043-4.60156.22657-5.82519C105.21582,70.1626,103.32617,69.501,101.39453,69.501Z"/></svg>