<svg id="Ufalqilotontli_4" data-name="Ufalqilotontli 4" xmlns="http://www.w3.org/2000/svg" viewBox="0 0 200 200"><title>00148-_u4</title><path d="M25.458,99.5q-.37208,0-.74512-.0083l.06641-2.999a27.15221,27.15221,0,0,0,11.86181-2.3335,30.29884,30.29884,0,0,0,9.37744-6.77539,14.31583,14.31583,0,0,1-3.771-2.50733c-1.292-1.208-4.3169-4.03662-4.22949-8.42236a10.54668,10.54668,0,0,1,7.65039-9.60644c3.40576-.916,8.10058-.06983,9.74365,2.8916,1.11523,2.01269,1.11475,4.85644-.00293,8.22461a29.5119,29.5119,0,0,1-4.22852,7.88183c.47168.0791.94825.13477,1.42481.16651l-.19824,2.99316a17.40184,17.40184,0,0,1-2.99561-.46338c-.09521-.02344-.208-.05078-.33594-.08349a33.655,33.655,0,0,1-11.20019,8.43505A29.95044,29.95044,0,0,1,25.458,99.5ZM48.39453,69.501a7.31062,7.31062,0,0,0-7.37744,7.01269c-.06055,3.04834,2.19531,5.15772,3.2793,6.17139a11.64771,11.64771,0,0,0,3.78174,2.31836A27.40257,27.40257,0,0,0,52.562,77.019c.82227-2.478.90479-4.60107.22608-5.82519C52.21631,70.1626,50.32666,69.501,48.39453,69.501Z"/></svg>