<svg id="Ufalqilotontli_akopa_7" data-name="Ufalqilotontli akopa 7" xmlns="http://www.w3.org/2000/svg" viewBox="0 0 200 200"><title>00156-_u_7</title><path d="M60.5249,85.5q-.27831,0-.55859-.00635l.06738-2.999a19.54829,19.54829,0,0,0,8.5249-1.67578,21.64729,21.64729,0,0,0,6.37305-4.48731,10.70049,10.70049,0,0,1-2.37012-1.66308c-.90136-.84278-3.29638-3.082-3.22851-6.47657a8.14751,8.14751,0,0,1,5.90625-7.42334c2.644-.708,6.30176-.02734,7.59912,2.313.87353,1.57666.8833,3.773.02734,6.35157a21.49515,21.49515,0,0,1-2.772,5.3457q.18164.019.36475.03125l-.20215,2.99316a13.288,13.288,0,0,1-2.2627-.35009l-.01709-.0044A25.0031,25.0031,0,0,1,69.793,83.55322,22.36265,22.36265,0,0,1,60.5249,85.5ZM77.36572,63.49463a5.2193,5.2193,0,0,0-1.34814.17139A5.12282,5.12282,0,0,0,72.332,68.25146c-.041,2.05713,1.52539,3.522,2.27832,4.22559a8.0296,8.0296,0,0,0,2.37207,1.50879,19.46658,19.46658,0,0,0,3.03613-5.49756c.56788-1.71142.63916-3.15185.19581-3.95215A3.51336,3.51336,0,0,0,77.36572,63.49463Z"/></svg>