<svg data-name="Tlachalqiloli itik" xmlns="http://www.w3.org/2000/svg" viewBox="0 0 200 200"><title>a</title><path d="M92.958,172.44922c-5.73633.001-11.27051-1.72949-14.105-6.55859-3.07373-5.24415-2.67188-14.02735.895-19.58106a15.74466,15.74466,0,0,1,8.68408-6.43945l.18945-.06543c7.04834-2.39942,18.36475-2.03906,35.39893,9.06543A79.44287,79.44287,0,0,0,140.22852,112.5H75v-5h70.44629V110c0,4.57129-3.44727,24.59863-17.25,41.72949A170.24583,170.24583,0,0,1,145.4834,166.1377c.54785.51562.93652.88281,1.14844,1.06445l-3.26368,3.78906c-.24023-.208-.68554-.624-1.30957-1.21094a163.82881,163.82881,0,0,0-17.14746-14.251,67.22585,67.22585,0,0,1-16.97265,13.28027A33.26877,33.26877,0,0,1,92.958,172.44922Zm3.21533-28.8252a18.30577,18.30577,0,0,0-5.92725.90918l-.1958.06739a10.95842,10.95842,0,0,0-6.09472,4.41015c-2.563,3.99024-2.93164,10.69531-.78955,14.34961,3.561,6.07031,15.81982,4.66211,22.36523,1.06641a61.7204,61.7204,0,0,0,15.15625-11.75391C109.67871,145.61523,101.68652,143.624,96.17334,143.624Z"/><path d="M80.59326,92.42871l-1.18652-4.85742a79.77786,79.77786,0,0,0,38.36377-21.86768A77.05453,77.05453,0,0,0,137.56445,29.437l4.8711,1.126a82.04422,82.04422,0,0,1-21.07617,38.62207A84.774,84.774,0,0,1,80.59326,92.42871Z"/><path d="M131.40625,81.34082a36.63518,36.63518,0,0,1-21.58008-10.37061C104.544,65.61572,98.68066,51.11328,97.82275,48.40869l4.76612-1.51172c.88965,2.80518,6.52246,16.22949,10.7959,20.561A31.60385,31.60385,0,0,0,132,76.376Z"/><rect x="82" y="15.5" width="60" height="3"/></svg>