<svg xmlns="http://www.w3.org/2000/svg" viewBox="0 0 200 200" id="a!z" data-name="a!z"><title>a!z</title><path d="M143.27832,171.8125c-3.79-3.60059-19.54394-13.46875-41.49707-11.67773-14.05713,1.15234-22.82617,7.64941-25.1792,9.61328l-3.38379-3.67285.86719-.83985C108.75,139.30957,123.20508,121.30078,125.669,112.5H75v-5h56.05859V110c0,9.92676-13.48339,26.43359-37.58691,46.37695a55.16344,55.16344,0,0,1,7.90137-1.22461c23.76465-1.95117,41.13769,9.03418,45.34863,13.03516Z"/><path d="M80.59326,92.42871l-1.18652-4.85742a79.77786,79.77786,0,0,0,38.36377-21.86768A77.05453,77.05453,0,0,0,137.56445,29.437l4.8711,1.126a82.04422,82.04422,0,0,1-21.07617,38.62207A84.774,84.774,0,0,1,80.59326,92.42871Z"/><path d="M131.40625,81.34082a36.63518,36.63518,0,0,1-21.58008-10.37061C104.544,65.61572,98.68066,51.11328,97.82275,48.40869l4.76612-1.51172c.88965,2.80518,6.52246,16.22949,10.7959,20.561A31.60385,31.60385,0,0,0,132,76.376Z"/><rect x="82" y="15.5" width="60" height="3"/></svg>