<svg xmlns="http://www.w3.org/2000/svg" viewBox="0 0 200 200" id="a&apos;" data-name="a&apos;"><title>a'</title><path d="M65.59326,147.42871l-1.18652-4.85742a120.91277,120.91277,0,0,0,58.147-33.14453,116.8517,116.8517,0,0,0,30.01074-54.99024l4.8711,1.127a121.85545,121.85545,0,0,1-31.292,57.34375A125.90433,125.90433,0,0,1,65.59326,147.42871Z"/><path d="M142.25781,130.76953a53.68159,53.68159,0,0,1-31.6289-15.1914c-7.64551-7.752-16.48243-29.49415-17.70313-33.34327l4.76563-1.51172c1.35254,4.26368,9.9414,24.69678,16.49707,31.34229a48.6524,48.6524,0,0,0,28.66308,13.73926Z"/><polygon points="61.923 85 58.923 85 58.923 53.5 90.423 53.5 90.423 56.5 61.923 56.5 61.923 85"/></svg>