<svg data-name="Akaqiloli akopa" xmlns="http://www.w3.org/2000/svg" viewBox="0 0 200 200"><title>a</title><path d="M80.59326,92.42871l-1.18652-4.85742a79.77786,79.77786,0,0,0,38.36377-21.86768A77.05453,77.05453,0,0,0,137.56445,29.437l4.8711,1.126a82.04422,82.04422,0,0,1-21.07617,38.62207A84.774,84.774,0,0,1,80.59326,92.42871Z"/><path d="M131.40625,81.34082a36.63518,36.63518,0,0,1-21.58008-10.37061C104.544,65.61572,98.68066,51.11328,97.82275,48.40869l4.76612-1.51172c.88965,2.80518,6.52246,16.22949,10.7959,20.561A31.60385,31.60385,0,0,0,132,76.376Z"/><path d="M143.28027,171.63086c-3.78808-3.58887-19.53711-13.44141-41.5-11.64063-14.05713,1.14747-22.82763,7.626-25.18115,9.584l-3.37793-3.67871.86719-.83692C108.73926,139.22266,123.19531,121.27441,125.667,112.5H75v-5h56.05859V110c0,9.89648-13.47265,26.3457-37.56445,46.22266a55.33606,55.33606,0,0,1,7.87988-1.2168c23.751-1.93359,41.13477,9.00684,45.34571,12.99609Z"/><path d="M127.7373,170.13379l-4.99218-.26758a40.67518,40.67518,0,0,1,3.59375-14.6416,45.82179,45.82179,0,0,1,11.334-15.25586l3.33594,3.72461a40.84039,40.84039,0,0,0-10.11328,13.5918A35.69859,35.69859,0,0,0,127.7373,170.13379Z"/></svg>