<svg data-name="Akaqiloli akopa" xmlns="http://www.w3.org/2000/svg" viewBox="0 0 200 200"><title>a</title><path d="M80.59326,92.42871l-1.18652-4.85742a79.77786,79.77786,0,0,0,38.36377-21.86768A77.05453,77.05453,0,0,0,137.56445,29.437l4.8711,1.126a82.04422,82.04422,0,0,1-21.07617,38.62207A84.774,84.774,0,0,1,80.59326,92.42871Z"/><path d="M131.40625,81.34082a36.63518,36.63518,0,0,1-21.58008-10.37061C104.544,65.61572,98.68066,51.11328,97.82275,48.40869l4.76612-1.51172c.88965,2.80518,6.52246,16.22949,10.7959,20.561A31.60385,31.60385,0,0,0,132,76.376Z"/><path d="M143.27832,171.8125c-3.79-3.60059-19.54394-13.46875-41.49707-11.67773-14.05713,1.15234-22.82617,7.64941-25.1792,9.61328l-3.38379-3.67285.58252-.5918,52.92285-57.18164,3.66992,3.39648L87.3833,158.168a54.31184,54.31184,0,0,1,13.98975-3.01563c23.76465-1.95117,41.13769,9.03418,45.34863,13.03516Z"/></svg>