<svg data-name="Hekalqilotontli 5" xmlns="http://www.w3.org/2000/svg" viewBox="0 0 200 200"><title>b</title><polygon points="27.923 85 24.923 85 24.923 53.5 56.423 53.5 56.423 56.5 27.923 56.5 27.923 85"/><rect x="58.34277" y="38.5" width="80" height="3"/><path d="M90.54443,142.16211c-.98584-2.22266-1.94287-4.49219-2.84423-6.74707a209.35982,209.35982,0,0,1-10.854-36.77783l4.90332-.97657a204.38131,204.38131,0,0,0,10.59326,35.898c.87842,2.19727,1.811,4.40918,2.772,6.57618Z"/><path d="M143.27539,147.5c-6.55176,0-10.63769-5.59473-12.6084-8.293-4.50976-6.15723-5.99414-17.53906-6.05566-18.02051q-.0542-.561-.10645-1.11425c-3.59765-.21094-7.2959-.417-10.90722-.42579-5.14258.001-10.249.19043-15.18164.60352-3.32911.27832-6.7002.47168-10.26954.6748-2.41845.13868-4.8706.27833-7.33886.44922l-2.62012.17871c-4.292.291-8.72949.5918-12.94629,1l-.48242-4.97656c4.28906-.415,8.76318-.71875,13.09033-1.01172l2.61426-.17871c2.48828-.17187,4.96-.31347,7.39795-.45215,3.53515-.20214,6.87451-.39257,10.13769-.666,5.07422-.42481,10.332-.61621,15.61036-.6211,3.50488.00879,7.03417.19239,10.47558.39356-.499-6.88867-.63965-13.32813-.48535-21.00293.29394-14.71533,3.833-38.40723,3.9834-39.40869l4.94531.74316c-.03711.24219-3.6416,24.37549-3.93066,38.76563-.1543,7.76416-.00293,14.23486.52148,21.19287.28418.01562.56934.03027.85352.04492a77.69465,77.69465,0,0,1,15.61621,2.21094c2.23437.57617,8.18457,2.1084,10.7539,7.74023,2.88575,6.32715-.44726,13.22461-.83691,13.99024-2.50977,4.92285-7.25977,8.13379-12.10352,8.18261C143.36035,147.499,143.31738,147.5,143.27539,147.5Zm-13.72168-27.13965.02637.26856c.00488.0332,1.37793,10.51367,5.12207,15.626,1.71,2.34082,4.56152,6.24414,8.5791,6.24512.02246,0,.04492-.001.06836-.001,3.00586-.03027,6.02734-2.16992,7.70019-5.45214.02637-.05079,2.6875-5.38282.74415-9.64551-1.39161-3.04981-4.55079-4.22559-7.457-4.97461a72.68808,72.68808,0,0,0-14.62011-2.05762Z"/><path d="M86.40332,92.07764a45.53114,45.53114,0,0,1-16.46387-9.2793,44.25592,44.25592,0,0,1-10.72461-14.186l2.707-1.29394a41.26889,41.26889,0,0,0,10.00146,13.23,42.5635,42.5635,0,0,0,15.38721,8.66992Z"/><path d="M66.90186,103.419a45.52892,45.52892,0,0,1-16.46436-9.2793,44.25592,44.25592,0,0,1-10.72461-14.186l2.707-1.29394a41.26906,41.26906,0,0,0,10.00147,13.23,42.554,42.554,0,0,0,15.38672,8.66992Z"/></svg>