<svg data-name="Hekalqiloli itik" xmlns="http://www.w3.org/2000/svg" viewBox="0 0 200 200"><title>b</title><path d="M124.94434,171.02441l-4.56055-2.04882c11.31641-25.20508,16.00976-40.377,8.41406-48.3584-4.37109-4.59082-13.41992-5.49512-24.21-2.417-9.92578,2.83105-14.08643,11.10058-15.83008,17.54785-.65576,4.05078-1.272,8.61523-1.28027,8.67675L82.5,144.08105a40.62313,40.62313,0,0,1,1.19824-8.36328c.27344-1.72265.562-3.42285.82715-4.75879,1.40967-7.09375,2.52734-14.24023,3.32227-21.24121l4.96777.56446c-.38477,3.39257-.84424,6.81836-1.375,10.25586a25.28158,25.28158,0,0,1,11.77637-7.14649c12.7998-3.65137,23.44433-2.27344,29.20215,3.77832C141.96094,127.19531,137.15332,143.832,124.94434,171.02441Z"/><path d="M94.42529,88.58154c-.77343-1.49463-1.52392-3.01953-2.23-4.5332A125.976,125.976,0,0,1,83.68555,59.332l4.87011-1.13183a120.9818,120.9818,0,0,0,8.1709,23.73388c.67725,1.45215,1.397,2.91553,2.13916,4.34961Z"/><path d="M135.87988,92.5c-5.26172,0-8.55175-3.86182-10.13867-5.72363-3.67578-4.30078-4.87109-12.16358-4.9209-12.4961-.00293-.02929-.00586-.05908-.00976-.08838-2.65039-.13281-5.36328-.25537-8.0127-.26074-3.99316-.01416-7.96191.127-11.791.40186-2.58741.18554-5.20655.314-7.979.44922-1.88476.09228-3.79541.186-5.71924.2998l-2.03466.11914c-3.33741.19385-6.78907.394-10.0669.66651L74.793,70.88525c3.33984-.27783,6.82275-.48,10.19092-.67578l2.02929-.11865c1.94043-.11523,3.86866-.20947,5.77-.30225,2.74366-.13427,5.335-.26123,7.86621-.44287,3.9502-.28369,8.0293-.42187,12.15821-.41455,2.51562.00537,5.04492.10987,7.52246.23047a129.099,129.099,0,0,1-.30762-13.16211c.22949-9.88965,2.99609-25.76074,3.11328-26.43115l4.92578.86328c-.02832.16065-2.81933,16.17285-3.041,25.68408a122.16646,122.16646,0,0,0,.34082,13.293c.06152.00293.12207.00537.18359.0083a70.15344,70.15344,0,0,1,12.18946,1.47949c1.80078.398,6.59375,1.457,8.748,5.50489,2.51758,4.73388-.34179,9.77636-.67676,10.33593a11.83679,11.83679,0,0,1-9.82421,5.76221ZM125.919,74.43994c.44335,2.272,1.63085,6.75635,3.626,9.09033,1.34961,1.58448,3.38281,3.96924,6.33985,3.96973l.05175-.00049a6.7456,6.7456,0,0,0,5.5752-3.32275c.01758-.03076,1.77051-3.14405.55664-5.42676-.94922-1.78271-3.39356-2.5249-5.416-2.97217A64.10728,64.10728,0,0,0,125.919,74.43994Z"/><path d="M54.5249,63.5q-.27831,0-.55859-.00635l.06738-2.999a19.53846,19.53846,0,0,0,8.5249-1.67578,21.64729,21.64729,0,0,0,6.373-4.48731,10.70049,10.70049,0,0,1-2.37012-1.66308c-.90136-.84278-3.29638-3.082-3.22851-6.47657a8.14751,8.14751,0,0,1,5.90625-7.42334c2.64355-.708,6.30176-.02783,7.59912,2.313.87353,1.57666.8833,3.773.02734,6.35157a21.49515,21.49515,0,0,1-2.772,5.3457q.18164.019.36475.03125l-.20215,2.99316a13.288,13.288,0,0,1-2.2627-.35009l-.01709-.0044A25.0031,25.0031,0,0,1,63.793,61.55322,22.36265,22.36265,0,0,1,54.5249,63.5ZM71.36572,41.49463a5.2193,5.2193,0,0,0-1.34814.17139A5.12282,5.12282,0,0,0,66.332,46.25146c-.041,2.05713,1.52539,3.522,2.27832,4.22559a8.0296,8.0296,0,0,0,2.37207,1.50879,19.46658,19.46658,0,0,0,3.03613-5.49756c.56788-1.71142.63916-3.15185.19581-3.95215A3.51336,3.51336,0,0,0,71.36572,41.49463Z"/></svg>