<svg xmlns="http://www.w3.org/2000/svg" viewBox="0 0 200 200" id="ca!z" data-name="ca!z"><title>ca!z</title><path d="M143.27832,171.8125c-3.79-3.60059-19.54394-13.46875-41.49707-11.67773-14.05713,1.15234-22.82617,7.64941-25.1792,9.61328l-3.38379-3.67285.86719-.83985C108.75,139.30957,123.20508,121.30078,125.669,112.5H75v-5h56.05859V110c0,9.92676-13.48339,26.43359-37.58691,46.37695a55.16344,55.16344,0,0,1,7.90137-1.22461c23.76465-1.95117,41.13769,9.03418,45.34863,13.03516Z"/><rect x="100.5" y="15.5" width="35" height="3"/><path d="M84.501,92.44922l-1.002-4.89844a44.73009,44.73009,0,0,0,11.82032-4.10156,14.50094,14.50094,0,0,1-4.97022-5.59815l-.06592-.11914c-.96386-1.72265-2.07617-4.59521-.61425-9.63379a10.74415,10.74415,0,0,1,9.3457-7.75537c6.58789-.501,11.68945,2.91846,12.40625,8.312.57422,4.32812-1.32227,8.74414-4.99317,12.63183a43.98128,43.98128,0,0,0,6.4375-.54443c6.14258-.91651,12.1875-5.09082,16.17188-11.165,4.06152-6.1919,5.43945-13.29932,3.7793-19.49951-1.95508-7.30274-8.75782-15.84424-19.07422-17.3418-8.126-1.18018-14.84033,2.4248-17.34717,4.02979l-2.69629-4.21c2.97852-1.9082,10.96143-6.19238,20.76221-4.76806,12.624,1.83252,20.74121,11.86621,23.18554,20.99707,2.02735,7.57519.41407,16.15332-4.42773,23.53467-4.8252,7.355-11.97363,12.22754-19.61426,13.36816a36.15385,36.15385,0,0,1-12.53515.06982A46.875,46.875,0,0,1,84.501,92.44922Zm15.68408-27.15039c-.2666,0-.53223.01025-.79492.02978-3.76319.28174-4.87061,3.99366-4.916,4.15186-1.05127,3.62305-.19385,5.15527.17236,5.80957.05713.102.106.19043.145.26611a9.56272,9.56272,0,0,0,5.376,4.78321c4.51221-3.54688,6.74658-7.63526,6.29639-11.02686C106.08984,66.49707,103.085,65.29883,100.18506,65.29883Z"/></svg>