<svg data-name="Galilqiloli itik" xmlns="http://www.w3.org/2000/svg" viewBox="0 0 200 200"><title>c</title><path d="M102.00195,172.5c-10.71631,0-20.4414-2.79395-23.87695-6.91211l3.83984-3.20312c1.86231,2.23339,9.6128,5.31347,20.96387,5.10742,15.06641-.24707,31.67188-8.416,34.25586-23.55274a28.579,28.579,0,0,0-10.36914-26.49609c-6.75488-5.32227-16.72949-5.40039-23.89844-4.53613-5.65039.68261-14.69824,5.54785-14.78906,5.59765l-2.37939-4.39746c.4038-.21875,9.97216-5.36621,16.56787-6.16406,8.11621-.97852,19.49121-.81055,27.59277,5.57227a33.70834,33.70834,0,0,1,12.2041,31.26562c-3.043,17.82129-21.97461,27.42969-39.10254,27.71094C102.6748,172.49707,102.33691,172.5,102.00195,172.5Z"/><path d="M139.8457,169.4248a42.78148,42.78148,0,0,1-14.05859-6.31347,32.46477,32.46477,0,0,1-9.31445-9.8252l4.28711-2.57226a27.51555,27.51555,0,0,0,7.90234,8.30664,37.7354,37.7354,0,0,0,12.40234,5.55469Z"/><rect x="100.5" y="15.5" width="35" height="3"/><path d="M84.501,92.44922l-1.002-4.89844a44.73009,44.73009,0,0,0,11.82032-4.10156,14.50094,14.50094,0,0,1-4.97022-5.59815l-.06592-.11914c-.96386-1.72265-2.07617-4.59521-.61425-9.63379a10.74415,10.74415,0,0,1,9.3457-7.75537c6.58789-.501,11.68945,2.91846,12.40625,8.312.57422,4.32812-1.32227,8.74414-4.99317,12.63183a43.98128,43.98128,0,0,0,6.4375-.54443c6.14258-.91651,12.1875-5.09082,16.17188-11.165,4.06152-6.1919,5.43945-13.29932,3.7793-19.49951-1.95508-7.30274-8.75782-15.84424-19.07422-17.3418-8.126-1.18018-14.84033,2.4248-17.34717,4.02979l-2.69629-4.21c2.97852-1.9082,10.96143-6.19238,20.76221-4.76806,12.624,1.83252,20.74121,11.86621,23.18554,20.99707,2.02735,7.57519.41407,16.15332-4.42773,23.53467-4.8252,7.355-11.97363,12.22754-19.61426,13.36816a36.15385,36.15385,0,0,1-12.53515.06982A46.875,46.875,0,0,1,84.501,92.44922Zm15.68408-27.15039c-.2666,0-.53223.01025-.79492.02978-3.76319.28174-4.87061,3.99366-4.916,4.15186-1.05127,3.62305-.19385,5.15527.17236,5.80957.05713.102.106.19043.145.26611a9.56272,9.56272,0,0,0,5.376,4.78321c4.51221-3.54688,6.74658-7.63526,6.29639-11.02686C106.08984,66.49707,103.085,65.29883,100.18506,65.29883Z"/><path d="M95.61328,54.78271a34.21964,34.21964,0,0,1-11.63623-5.5205,27.58394,27.58394,0,0,1-7.65283-8.521l2.6084-1.48242a24.60272,24.60272,0,0,0,6.83154,7.59375,31.231,31.231,0,0,0,10.62256,5.03174Z"/><path d="M81.98486,61.44922a34.21434,34.21434,0,0,1-11.63672-5.51953,27.58451,27.58451,0,0,1-7.65234-8.52246l2.6084-1.48145a24.5989,24.5989,0,0,0,6.83105,7.59375A31.21763,31.21763,0,0,0,82.7583,58.55078Z"/></svg>