<svg xmlns="http://www.w3.org/2000/svg" viewBox="0 0 200 200" id="cih" data-name="cih"><title>cih</title><path d="M124.94434,171.02441l-4.56055-2.04882c11.31641-25.20508,16.00976-40.377,8.41406-48.3584-4.37109-4.59082-13.41992-5.49512-24.21-2.417-9.92578,2.83105-14.08643,11.10058-15.83008,17.54785-.65576,4.05078-1.272,8.61523-1.28027,8.67675L82.5,144.08105a40.62313,40.62313,0,0,1,1.19824-8.36328c.27344-1.72265.562-3.42285.82715-4.75879,1.40967-7.09375,2.52734-14.24023,3.32227-21.24121l4.96777.56446c-.38477,3.39257-.84424,6.81836-1.375,10.25586a25.28158,25.28158,0,0,1,11.77637-7.14649c12.7998-3.65137,23.44433-2.27344,29.20215,3.77832C141.96094,127.19531,137.15332,143.832,124.94434,171.02441Z"/><path d="M84.501,92.44922l-1.002-4.89844a44.73009,44.73009,0,0,0,11.82032-4.10156,14.50094,14.50094,0,0,1-4.97022-5.59815l-.06592-.11914c-.96386-1.72265-2.07617-4.59521-.61425-9.63379a10.74415,10.74415,0,0,1,9.3457-7.75537c6.58789-.501,11.68945,2.91846,12.40625,8.312.57422,4.32812-1.32227,8.74414-4.99317,12.63183a43.98128,43.98128,0,0,0,6.4375-.54443c6.14258-.91651,12.1875-5.09082,16.17188-11.165,4.06152-6.1919,5.43945-13.29932,3.7793-19.49951-1.95508-7.30274-8.75782-15.84424-19.07422-17.3418-8.126-1.18018-14.84033,2.4248-17.34717,4.02979l-2.69629-4.21c2.97852-1.9082,10.96143-6.19238,20.76221-4.76806,12.624,1.83252,20.74121,11.86621,23.18554,20.99707,2.02735,7.57519.41407,16.15332-4.42773,23.53467-4.8252,7.355-11.97363,12.22754-19.61426,13.36816a36.15385,36.15385,0,0,1-12.53515.06982A46.875,46.875,0,0,1,84.501,92.44922Zm15.68408-27.15039c-.2666,0-.53223.01025-.79492.02978-3.76319.28174-4.87061,3.99366-4.916,4.15186-1.05127,3.62305-.19385,5.15527.17236,5.80957.05713.102.106.19043.145.26611a9.56272,9.56272,0,0,0,5.376,4.78321c4.51221-3.54688,6.74658-7.63526,6.29639-11.02686C106.08984,66.49707,103.085,65.29883,100.18506,65.29883Z"/><path d="M88.61816,59.45068A46.59033,46.59033,0,0,1,72.96533,52.0874,36.86349,36.86349,0,0,1,62.69824,40.74512l2.60352-1.49024a33.88737,33.88737,0,0,0,9.44287,10.41748,43.56666,43.56666,0,0,0,14.63721,6.877Z"/></svg>