<svg xmlns="http://www.w3.org/2000/svg" viewBox="0 0 200 200" id="cu!&apos;" data-name="cu!&apos;"><title>cu!'</title><polygon points="47.923 85 44.923 85 44.923 53.5 76.423 53.5 76.423 56.5 47.923 56.5 47.923 85"/><rect x="89.34277" y="38.5" width="60" height="3"/><path d="M71.501,147.44922l-1.002-4.89844a67.1194,67.1194,0,0,0,19.95362-7.40039,20.34172,20.34172,0,0,1-8.81934-8.94824l-.11865-.21582c-.85059-1.52149-3.11133-5.5625-.811-13.49024,1.05567-3.70019,4.9668-10.14062,12.91162-10.73535,9.19043-.6914,16.293,3.98535,17.27735,11.38574.91015,6.86329-2.585,13.89551-9.10938,19.9004a57.79551,57.79551,0,0,0,12.69922-.69727c9.56055-1.42676,18.9502-7.89356,25.11914-17.29883,6.28711-9.585,8.41211-20.61328,5.83008-30.25732C142.2959,73.07715,131.915,60.207,115.793,57.8667c-12.6084-1.83057-22.99658,3.74658-26.875,6.22949l-2.69629-4.21094c4.34912-2.78564,16.00879-9.03906,30.29-6.96679,18.374,2.66748,30.19043,17.28174,33.75,30.582,2.94922,11.019.58789,23.51806-6.47949,34.29248-7.041,10.73535-17.45118,17.84375-28.56055,19.50195-5.6875.85156-12.54688,1.43848-18.81787.002A69.03653,69.03653,0,0,1,71.501,147.44922Zm23.87109-40.75586q-.67822,0-1.38135.05371c-6.51367.48731-8.40478,6.86035-8.48193,7.13086-1.7207,5.93066-.25586,8.5498.36963,9.668.07812.13867.14453.25976.19775.3623a15.606,15.606,0,0,0,9.38135,7.94727c7.187-5.40527,11.2915-11.91895,10.478-18.04981C105.36328,109.50293,101.10059,106.69336,95.37207,106.69336Z"/><path d="M48.458,99.5q-.37207,0-.74512-.0083l.06641-2.999a27.16618,27.16618,0,0,0,11.86181-2.3335,30.29884,30.29884,0,0,0,9.37744-6.77539,14.31583,14.31583,0,0,1-3.771-2.50733c-1.292-1.208-4.3169-4.03662-4.22949-8.42236a10.54668,10.54668,0,0,1,7.65039-9.60644c3.40478-.915,8.10107-.06983,9.74365,2.89209,1.11523,2.0122,1.11475,4.85595-.00293,8.22412a29.5119,29.5119,0,0,1-4.22852,7.88183c.47168.0791.94825.13477,1.42481.16651l-.19824,2.99316a17.40184,17.40184,0,0,1-2.99561-.46338c-.09521-.02344-.208-.05078-.33594-.08349a33.655,33.655,0,0,1-11.20019,8.43505A29.95044,29.95044,0,0,1,48.458,99.5ZM71.395,69.501a7.31065,7.31065,0,0,0-7.37793,7.01269c-.06055,3.04834,2.19531,5.15772,3.2793,6.17139a11.64771,11.64771,0,0,0,3.78174,2.31836A27.40257,27.40257,0,0,0,75.562,77.019c.82227-2.478.90479-4.60107.22608-5.82519C75.21631,70.16211,73.32715,69.501,71.395,69.501Z"/></svg>