<svg data-name="Chakalqiloli itik" xmlns="http://www.w3.org/2000/svg" viewBox="0 0 200 200"><title>c</title><path d="M84.501,172.44922l-1.002-4.89844a44.73009,44.73009,0,0,0,11.82032-4.10156,14.48846,14.48846,0,0,1-4.97022-5.59766l-.06543-.11914c-.96435-1.72265-2.07666-4.5957-.61474-9.63379a10.74517,10.74517,0,0,1,9.3457-7.75586c6.5918-.49609,11.68945,2.918,12.40625,8.3125.57422,4.32813-1.32227,8.74414-4.99317,12.63184a44.11274,44.11274,0,0,0,6.4375-.54492c6.14258-.917,12.1875-5.09082,16.17286-11.165,4.06054-6.19238,5.43847-13.29883,3.77832-19.499-1.95411-7.30274-8.75684-15.84375-19.07422-17.34278-8.13281-1.17773-14.84033,2.42578-17.34717,4.03028l-2.69629-4.21094c2.97754-1.90723,10.96143-6.19239,20.76221-4.7666,12.624,1.833,20.74121,11.86621,23.18554,20.99707,2.02735,7.57519.41407,16.15234-4.42773,23.53418-4.82422,7.35546-11.97363,12.22754-19.61426,13.36816a36.25654,36.25654,0,0,1-12.53418.07031A46.88367,46.88367,0,0,1,84.501,172.44922ZM100.186,145.29883q-.40064,0-.7959.03027c-3.76319.28125-4.87061,3.99317-4.916,4.15137-1.05127,3.62305-.19385,5.15527.17236,5.81055.05713.10156.106.19043.145.26562a9.56288,9.56288,0,0,0,5.376,4.7832c4.51221-3.54687,6.74658-7.63476,6.29639-11.02636C106.08984,146.49707,103.08594,145.29883,100.186,145.29883Z"/><rect x="100.5" y="15.5" width="35" height="3"/><path d="M84.501,92.44922l-1.002-4.89844a44.73009,44.73009,0,0,0,11.82032-4.10156,14.50094,14.50094,0,0,1-4.97022-5.59815l-.06592-.11914c-.96386-1.72265-2.07617-4.59521-.61425-9.63379a10.74415,10.74415,0,0,1,9.3457-7.75537c6.58789-.501,11.68945,2.91846,12.40625,8.312.57422,4.32812-1.32227,8.74414-4.99317,12.63183a43.98128,43.98128,0,0,0,6.4375-.54443c6.14258-.91651,12.1875-5.09082,16.17188-11.165,4.06152-6.1919,5.43945-13.29932,3.7793-19.49951-1.95508-7.30274-8.75782-15.84424-19.07422-17.3418-8.126-1.18018-14.84033,2.4248-17.34717,4.02979l-2.69629-4.21c2.97852-1.9082,10.96143-6.19238,20.76221-4.76806,12.624,1.83252,20.74121,11.86621,23.18554,20.99707,2.02735,7.57519.41407,16.15332-4.42773,23.53467-4.8252,7.355-11.97363,12.22754-19.61426,13.36816a36.15385,36.15385,0,0,1-12.53515.06982A46.875,46.875,0,0,1,84.501,92.44922Zm15.68408-27.15039c-.2666,0-.53223.01025-.79492.02978-3.76319.28174-4.87061,3.99366-4.916,4.15186-1.05127,3.62305-.19385,5.15527.17236,5.80957.05713.102.106.19043.145.26611a9.56272,9.56272,0,0,0,5.376,4.78321c4.51221-3.54688,6.74658-7.63526,6.29639-11.02686C106.08984,66.49707,103.085,65.29883,100.18506,65.29883Z"/><path d="M64.5249,63.5q-.27831,0-.55859-.00635l.06738-2.999a19.52307,19.52307,0,0,0,8.5249-1.67578,21.64729,21.64729,0,0,0,6.37305-4.48731,10.70049,10.70049,0,0,1-2.37012-1.66308c-.90136-.84278-3.29638-3.082-3.22851-6.47657a8.14751,8.14751,0,0,1,5.90625-7.42334c2.64453-.708,6.30127-.02783,7.59912,2.313.87353,1.57666.8833,3.773.02734,6.35157a21.49515,21.49515,0,0,1-2.772,5.3457q.18164.019.36475.03125l-.20215,2.99316a13.288,13.288,0,0,1-2.2627-.35009l-.01709-.0044A25.0031,25.0031,0,0,1,73.793,61.55322,22.36265,22.36265,0,0,1,64.5249,63.5ZM81.36572,41.49463a5.2193,5.2193,0,0,0-1.34814.17139A5.12282,5.12282,0,0,0,76.332,46.25146c-.041,2.05713,1.52539,3.522,2.27832,4.22559a8.0296,8.0296,0,0,0,2.37207,1.50879,19.46658,19.46658,0,0,0,3.03613-5.49756c.56788-1.71142.63916-3.15185.19581-3.95215A3.51336,3.51336,0,0,0,81.36572,41.49463Z"/></svg>