<svg xmlns="http://www.w3.org/2000/svg" viewBox="0 0 200 200" id="cul" data-name="cul"><title>cul</title><path d="M104.13867,172.36426l-1.625-4.72852c17.90528-6.15039,26.23828-13.28808,28.06738-17.917a4.44522,4.44522,0,0,0-.0625-3.90039c-1.49316-2.81738-6.19433-4.97656-8.47167-5.72461-9.18946-3.02246-22.11084-1.07129-29.29346,2.56055-3.13623,1.584-3.937,3.27343-3.94483,3.29l-4.7373-1.55079c.08057-.33007,2.18164-8.40722,20.166-35.7666l4.17774,2.7461c-8.0127,12.19043-12.78467,20.43066-15.59912,25.7666,8.228-3.36133,20.96045-5.02832,30.7915-1.7959,1.41895.46582,8.63379,3.04883,11.3291,8.13281a9.41069,9.41069,0,0,1,.29493,8.08008C132.28906,159.00293,120.95605,166.58789,104.13867,172.36426Z"/><path d="M84.501,92.44922l-1.002-4.89844a44.73009,44.73009,0,0,0,11.82032-4.10156,14.50094,14.50094,0,0,1-4.97022-5.59815l-.06592-.11914c-.96386-1.72265-2.07617-4.59521-.61425-9.63379a10.74415,10.74415,0,0,1,9.3457-7.75537c6.58789-.501,11.68945,2.91846,12.40625,8.312.57422,4.32812-1.32227,8.74414-4.99317,12.63183a43.98128,43.98128,0,0,0,6.4375-.54443c6.14258-.91651,12.1875-5.09082,16.17188-11.165,4.06152-6.1919,5.43945-13.29932,3.7793-19.49951-1.95508-7.30274-8.75782-15.84424-19.07422-17.3418-8.126-1.18018-14.84033,2.4248-17.34717,4.02979l-2.69629-4.21c2.97852-1.9082,10.96143-6.19238,20.76221-4.76806,12.624,1.83252,20.74121,11.86621,23.18554,20.99707,2.02735,7.57519.41407,16.15332-4.42773,23.53467-4.8252,7.355-11.97363,12.22754-19.61426,13.36816a36.15385,36.15385,0,0,1-12.53515.06982A46.875,46.875,0,0,1,84.501,92.44922Zm15.68408-27.15039c-.2666,0-.53223.01025-.79492.02978-3.76319.28174-4.87061,3.99366-4.916,4.15186-1.05127,3.62305-.19385,5.15527.17236,5.80957.05713.102.106.19043.145.26611a9.56272,9.56272,0,0,0,5.376,4.78321c4.51221-3.54688,6.74658-7.63526,6.29639-11.02686C106.08984,66.49707,103.085,65.29883,100.18506,65.29883Z"/><path d="M64.5249,63.5q-.27831,0-.55859-.00635l.06738-2.999a19.52307,19.52307,0,0,0,8.5249-1.67578,21.64729,21.64729,0,0,0,6.37305-4.48731,10.70049,10.70049,0,0,1-2.37012-1.66308c-.90136-.84278-3.29638-3.082-3.22851-6.47657a8.14751,8.14751,0,0,1,5.90625-7.42334c2.64453-.708,6.30127-.02783,7.59912,2.313.87353,1.57666.8833,3.773.02734,6.35157a21.49515,21.49515,0,0,1-2.772,5.3457q.18164.019.36475.03125l-.20215,2.99316a13.288,13.288,0,0,1-2.2627-.35009l-.01709-.0044A25.0031,25.0031,0,0,1,73.793,61.55322,22.36265,22.36265,0,0,1,64.5249,63.5ZM81.36572,41.49463a5.2193,5.2193,0,0,0-1.34814.17139A5.12282,5.12282,0,0,0,76.332,46.25146c-.041,2.05713,1.52539,3.522,2.27832,4.22559a8.0296,8.0296,0,0,0,2.37207,1.50879,19.46658,19.46658,0,0,0,3.03613-5.49756c.56788-1.71142.63916-3.15185.19581-3.95215A3.51336,3.51336,0,0,0,81.36572,41.49463Z"/></svg>