<svg data-name="Hekalqilotontli 6a" xmlns="http://www.w3.org/2000/svg" viewBox="0 0 200 200"><title>d</title><polygon points="38.173 84.25 35.173 84.25 35.173 52.75 66.673 52.75 66.673 55.75 38.173 55.75 38.173 84.25"/><rect x="83.34277" y="38.5" width="60" height="3"/><path d="M120.38574,146.61133a59.37394,59.37394,0,0,1-13.47363-34.05371c-1.09375-15.56446,3.79492-31.46,13.07715-42.51953a48.19865,48.19865,0,0,1,13.26562-11.00733c-13.999,1.208-35.73144,3.35449-67.96191,7.15625L64.707,61.22119c68.79688-8.11474,89.3877-8.69971,90.23145-8.72021l.124,4.998h0l-.00195.00049c-.29492.00928-18.65137.75244-31.24121,15.75342-8.46875,10.08984-12.92481,24.65234-11.91895,38.95508A55.12493,55.12493,0,0,0,124.208,143.38867Z"/><path d="M129.33984,103.75391a284.76482,284.76482,0,0,1-30.4375-1.62989c-6.09521-.65722-12.249-1.52343-18.28906-2.57617l.8584-4.92578c5.93359,1.03418,11.97852,1.88525,17.96631,2.53027a279.57507,279.57507,0,0,0,36.69189,1.51856l.123,4.998Q132.80176,103.75391,129.33984,103.75391Z"/><path d="M25.458,99.5q-.37208,0-.74512-.0083l.06641-2.999a27.15221,27.15221,0,0,0,11.86181-2.3335,30.29884,30.29884,0,0,0,9.37744-6.77539,14.31583,14.31583,0,0,1-3.771-2.50733c-1.292-1.208-4.3169-4.03662-4.22949-8.42236a10.54668,10.54668,0,0,1,7.65039-9.60644c3.40576-.916,8.10058-.06983,9.74365,2.8916,1.11523,2.01269,1.11475,4.85644-.00293,8.22461a29.5119,29.5119,0,0,1-4.22852,7.88183c.47168.0791.94825.13477,1.42481.16651l-.19824,2.99316a17.40184,17.40184,0,0,1-2.99561-.46338c-.09521-.02344-.208-.05078-.33594-.08349a33.655,33.655,0,0,1-11.20019,8.43505A29.95044,29.95044,0,0,1,25.458,99.5ZM48.39453,69.501a7.31062,7.31062,0,0,0-7.37744,7.01269c-.06055,3.04834,2.19531,5.15772,3.2793,6.17139a11.64771,11.64771,0,0,0,3.78174,2.31836A27.40257,27.40257,0,0,0,52.562,77.019c.82227-2.478.90479-4.60107.22608-5.82519C52.21631,70.1626,50.32666,69.501,48.39453,69.501Z"/></svg>