<svg data-name="Khamalqiloli itik" xmlns="http://www.w3.org/2000/svg" viewBox="0 0 200 200"><title>d</title><path d="M122.55273,171.02441l-4.56054-2.04882c11.32617-25.20508,16.02246-40.377,8.4209-48.35743-4.373-4.59179-13.4336-5.49609-24.23438-2.418-9.93555,2.83105-14.1001,11.10156-15.84521,17.5498-.65625,4.0498-1.27295,8.61328-1.28125,8.6748l-4.97754-.34375a40.58848,40.58848,0,0,1,1.19922-8.36328c.27343-1.72265.562-3.42382.82763-4.75879,1.4126-7.10351,2.53125-14.25,3.3252-21.24121l4.96777.56446c-.38476,3.3916-.84521,6.82031-1.37646,10.26074a25.30168,25.30168,0,0,1,11.79-7.15137c12.8081-3.65039,23.4624-2.27246,29.22509,3.77735C139.584,127.19531,134.77246,143.832,122.55273,171.02441Z"/><path d="M142.26953,156.36816a87.16265,87.16265,0,0,1-20.31738-4.91113,70.62041,70.62041,0,0,1-8.18555-3.70605l2.35742-4.41016a65.51473,65.51473,0,0,0,7.60352,3.44238,82.17546,82.17546,0,0,0,19.15137,4.62207Z"/><rect x="90.5" y="15.5" width="43" height="3"/><path d="M117.78223,91.75293a37.41879,37.41879,0,0,1-.30957-52.40479,36.34316,36.34316,0,0,1,6.99707-5.55273C113.5752,34.63818,97.68311,36.022,75.25146,38.29l-.50292-4.97461c53.51806-5.41064,69.54248-5.80078,70.19873-5.81494l.10644,4.999c-.13769.00342-14.33691.46875-24.00879,10.34668a32.6429,32.6429,0,0,0-9.01562,25.2041,33.343,33.343,0,0,0,9.31738,20.19678Z"/><path d="M125.0498,63.33594c-7.91894,0-15.86816-.36426-23.70214-1.08789-4.73731-.437-9.52832-1.01514-14.23926-1.71875l.73828-4.94532c4.61865.69,9.31592,1.25684,13.96,1.68555a253.68074,253.68074,0,0,0,28.51172,1.01123l.10547,4.999Q127.74024,63.33618,125.0498,63.33594Z"/><path d="M91.61328,76.78271a34.21964,34.21964,0,0,1-11.63623-5.5205,27.58394,27.58394,0,0,1-7.65283-8.521l2.6084-1.48242a24.60272,24.60272,0,0,0,6.83154,7.59375,31.231,31.231,0,0,0,10.62256,5.03174Z"/><path d="M77.98486,83.44922a34.21434,34.21434,0,0,1-11.63672-5.51953,27.58451,27.58451,0,0,1-7.65234-8.52246l2.6084-1.48145a24.5989,24.5989,0,0,0,6.831,7.59375A31.21763,31.21763,0,0,0,78.7583,80.55078Z"/></svg>