<svg data-name="Neliwqiloli itik" xmlns="http://www.w3.org/2000/svg" viewBox="0 0 200 200"><title>d</title><path d="M80.2207,172.49023l-.4414-4.98046c26.05273-2.3086,38.457-1.99512,48.03711-1.51954l7.57031.376c-.0957-4.834-.23731-15.5459.0625-27.18652.1582-6.15235.78808-13.83789,1.585-23.56836l.47363-5.8125,4.98438.40234-.47461,5.81738c-.791,9.65333-1.415,17.27833-1.57031,23.29-.40137,15.57813-.00391,29.47559,0,29.61426l.0791,2.7041-12.958-.64257C118.1543,170.51563,105.95605,170.21,80.2207,172.49023Z"/><rect x="90.5" y="15.5" width="43" height="3"/><path d="M117.78223,91.75293a37.41879,37.41879,0,0,1-.30957-52.40479,36.34316,36.34316,0,0,1,6.99707-5.55273C113.5752,34.63818,97.68311,36.022,75.25146,38.29l-.50292-4.97461c53.51806-5.41064,69.54248-5.80078,70.19873-5.81494l.10644,4.999c-.13769.00342-14.33691.46875-24.00879,10.34668a32.6429,32.6429,0,0,0-9.01562,25.2041,33.343,33.343,0,0,0,9.31738,20.19678Z"/><path d="M125.0498,63.33594c-7.91894,0-15.86816-.36426-23.70214-1.08789-4.73731-.437-9.52832-1.01514-14.23926-1.71875l.73828-4.94532c4.61865.69,9.31592,1.25684,13.96,1.68555a253.68074,253.68074,0,0,0,28.51172,1.01123l.10547,4.999Q127.74024,63.33618,125.0498,63.33594Z"/><path d="M84.61816,81.45068A46.59033,46.59033,0,0,1,68.96533,74.0874,36.86349,36.86349,0,0,1,58.69824,62.74512l2.60352-1.49024a33.88737,33.88737,0,0,0,9.44287,10.41748,43.56666,43.56666,0,0,0,14.63721,6.877Z"/></svg>