<svg xmlns="http://www.w3.org/2000/svg" viewBox="0 0 200 200" id="do!t" data-name="do!t"><title>do!t</title><path d="M117.78223,171.75293a37.41933,37.41933,0,0,1-.30957-52.40527,36.38069,36.38069,0,0,1,6.99707-5.55274c-10.89453.84278-26.78662,2.22754-49.21827,4.49512l-.50292-4.97461c53.4331-5.40234,69.49169-5.7998,70.19482-5.81445h.00391l.10644,4.998c-.13769.00391-14.33691.46973-24.00879,10.34668a32.64506,32.64506,0,0,0-9.01562,25.20508,33.34127,33.34127,0,0,0,9.31738,20.19629Z"/><rect x="90.5" y="15.5" width="43" height="3"/><path d="M117.78223,91.75293a37.41879,37.41879,0,0,1-.30957-52.40479,36.34316,36.34316,0,0,1,6.99707-5.55273C113.5752,34.63818,97.68311,36.022,75.25146,38.29l-.50292-4.97461c53.51806-5.41064,69.54248-5.80078,70.19873-5.81494l.10644,4.999c-.13769.00342-14.33691.46875-24.00879,10.34668a32.6429,32.6429,0,0,0-9.01562,25.2041,33.343,33.343,0,0,0,9.31738,20.19678Z"/><path d="M125.0498,63.33594c-7.91894,0-15.86816-.36426-23.70214-1.08789-4.73731-.437-9.52832-1.01514-14.23926-1.71875l.73828-4.94532c4.61865.69,9.31592,1.25684,13.96,1.68555a253.68074,253.68074,0,0,0,28.51172,1.01123l.10547,4.999Q127.74024,63.33618,125.0498,63.33594Z"/><path d="M71,85.5A12.5,12.5,0,1,1,83.5,73,12.51408,12.51408,0,0,1,71,85.5Zm0-22A9.5,9.5,0,1,0,80.5,73,9.51081,9.51081,0,0,0,71,63.5Z"/></svg>