<svg data-name="Pokalqiloli itik" xmlns="http://www.w3.org/2000/svg" viewBox="0 0 200 200"><title>d</title><path d="M99.06543,172.50586a125.03756,125.03756,0,0,1-14.353-.85449l.5752-4.9668c24.78662,2.86914,43.00928-2.30664,46.3042-8.9707.37695-.75977,2.11523-4.71875-.55274-8.19532-4.5039-5.86914-10.05566-11.35546-20.08593-11.76953-.57618.00782-5.249.08985-6.1709.10645l-.60157.08691-.71484-4.94922.40234-.05761,5.00684-2.28614c16.2373-8.97753,18.63477-13.709,18.35645-14.40039-.01172-.02734-1.4502-2.85644-18.31348-3.585-9.61426-.417-19.03613.08106-20.03858.167l-.4248-4.98242c1.10449-.09375,10.72949-.61816,20.78369-.17578,17.9834.78906,21.541,4,22.63184,6.709,1.23633,3.07226.67383,8.30273-17.18067,18.71679,10.03809,1.57715,16.08887,7.86719,20.31641,13.375a12.75036,12.75036,0,0,1,1.06738,13.458C132.16211,167.83984,117.74707,172.50586,99.06543,172.50586Z"/><rect x="90.5" y="15.5" width="43" height="3"/><path d="M117.78223,91.75293a37.41879,37.41879,0,0,1-.30957-52.40479,36.34316,36.34316,0,0,1,6.99707-5.55273C113.5752,34.63818,97.68311,36.022,75.25146,38.29l-.50292-4.97461c53.51806-5.41064,69.54248-5.80078,70.19873-5.81494l.10644,4.999c-.13769.00342-14.33691.46875-24.00879,10.34668a32.6429,32.6429,0,0,0-9.01562,25.2041,33.343,33.343,0,0,0,9.31738,20.19678Z"/><path d="M125.0498,63.33594c-7.91894,0-15.86816-.36426-23.70214-1.08789-4.73731-.437-9.52832-1.01514-14.23926-1.71875l.73828-4.94532c4.61865.69,9.31592,1.25684,13.96,1.68555a253.68074,253.68074,0,0,0,28.51172,1.01123l.10547,4.999Q127.74024,63.33618,125.0498,63.33594Z"/><path d="M60.5249,85.5q-.27831,0-.55859-.00635l.06738-2.999a19.54829,19.54829,0,0,0,8.5249-1.67578,21.64729,21.64729,0,0,0,6.37305-4.48731,10.70049,10.70049,0,0,1-2.37012-1.66308c-.90136-.84278-3.29638-3.082-3.22851-6.47657a8.14751,8.14751,0,0,1,5.90625-7.42334c2.644-.708,6.30176-.02734,7.59912,2.313.87353,1.57666.8833,3.773.02734,6.35157a21.49515,21.49515,0,0,1-2.772,5.3457q.18164.019.36475.03125l-.20215,2.99316a13.288,13.288,0,0,1-2.2627-.35009l-.01709-.0044A25.0031,25.0031,0,0,1,69.793,83.55322,22.36265,22.36265,0,0,1,60.5249,85.5ZM77.36572,63.49463a5.2193,5.2193,0,0,0-1.34814.17139A5.12282,5.12282,0,0,0,72.332,68.25146c-.041,2.05713,1.52539,3.522,2.27832,4.22559a8.0296,8.0296,0,0,0,2.37207,1.50879,19.46658,19.46658,0,0,0,3.03613-5.49756c.56788-1.71142.63916-3.15185.19581-3.95215A3.51336,3.51336,0,0,0,77.36572,63.49463Z"/></svg>