<svg data-name="Yololqiloli itik" xmlns="http://www.w3.org/2000/svg" viewBox="0 0 200 200"><title>d</title><path d="M110.09277,172.5h-.17968c-9.14893-.043-16.55079-3.36914-20.85694-9.376-5.50244-7.67871-7.54638-18.44238-6.07519-31.99316a59.15966,59.15966,0,0,1,6.71435-22.35352l4.36133,2.44532a54.74458,54.74458,0,0,0-6.105,20.44824c-1.33447,12.29.40479,21.89258,5.16846,28.54,3.356,4.68164,9.34961,7.26855,16.88281,7.28906,7.53613-.02051,13.53027-2.60742,16.88281-7.28906,4.76367-6.65137,6.50293-16.25391,5.168-28.54a54.82926,54.82926,0,0,0-6.10547-20.44922l4.36328-2.44336a59.27629,59.27629,0,0,1,6.71289,22.35156c1.47168,13.54688-.57128,24.31055-6.07421,31.99317-4.30274,6.00781-11.70411,9.334-20.85743,9.37695Z"/><path d="M117.78223,91.75293a37.41879,37.41879,0,0,1-.30957-52.40479,36.34316,36.34316,0,0,1,6.99707-5.55273C113.5752,34.63818,97.68311,36.022,75.25146,38.29l-.50292-4.97461c53.51806-5.41064,69.54248-5.80078,70.19873-5.81494l.10644,4.999c-.13769.00342-14.33691.46875-24.00879,10.34668a32.6429,32.6429,0,0,0-9.01562,25.2041,33.343,33.343,0,0,0,9.31738,20.19678Z"/><path d="M125.0498,63.33594c-7.91894,0-15.86816-.36426-23.70214-1.08789-4.73731-.437-9.52832-1.01514-14.23926-1.71875l.73828-4.94532c4.61865.69,9.31592,1.25684,13.96,1.68555a253.68074,253.68074,0,0,0,28.51172,1.01123l.10547,4.999Q127.74024,63.33618,125.0498,63.33594Z"/><path d="M60.5249,85.5q-.27831,0-.55859-.00635l.06738-2.999a19.54829,19.54829,0,0,0,8.5249-1.67578,21.64729,21.64729,0,0,0,6.37305-4.48731,10.70049,10.70049,0,0,1-2.37012-1.66308c-.90136-.84278-3.29638-3.082-3.22851-6.47657a8.14751,8.14751,0,0,1,5.90625-7.42334c2.644-.708,6.30176-.02734,7.59912,2.313.87353,1.57666.8833,3.773.02734,6.35157a21.49515,21.49515,0,0,1-2.772,5.3457q.18164.019.36475.03125l-.20215,2.99316a13.288,13.288,0,0,1-2.2627-.35009l-.01709-.0044A25.0031,25.0031,0,0,1,69.793,83.55322,22.36265,22.36265,0,0,1,60.5249,85.5ZM77.36572,63.49463a5.2193,5.2193,0,0,0-1.34814.17139A5.12282,5.12282,0,0,0,72.332,68.25146c-.041,2.05713,1.52539,3.522,2.27832,4.22559a8.0296,8.0296,0,0,0,2.37207,1.50879,19.46658,19.46658,0,0,0,3.03613-5.49756c.56788-1.71142.63916-3.15185.19581-3.95215A3.51336,3.51336,0,0,0,77.36572,63.49463Z"/></svg>