<svg xmlns="http://www.w3.org/2000/svg" viewBox="0 0 200 200" id="e!h" data-name="e!h"><title>e!h</title><path d="M124.94434,171.02441l-4.56055-2.04882c11.31641-25.20508,16.00976-40.377,8.41406-48.3584-4.37109-4.59082-13.41992-5.49512-24.21-2.417-9.92578,2.83105-14.08643,11.10058-15.83008,17.54785-.65576,4.05078-1.272,8.61523-1.28027,8.67675L82.5,144.08105a40.62313,40.62313,0,0,1,1.19824-8.36328c.27344-1.72265.562-3.42285.82715-4.75879,1.40967-7.09375,2.52734-14.24023,3.32227-21.24121l4.96777.56446c-.38477,3.39257-.84424,6.81836-1.375,10.25586a25.28158,25.28158,0,0,1,11.77637-7.14649c12.7998-3.65137,23.44433-2.27344,29.20215,3.77832C141.96094,127.19531,137.15332,143.832,124.94434,171.02441Z"/><path d="M129.70605,91.0166l-4.56835-2.0332c.14257-.3208.55175-1.251,1.02441-2.44385,2.62793-6.6582,4.50879-18.562,5.59082-35.377a19.10973,19.10973,0,0,0,.00684-3.40821A19.4267,19.4267,0,0,0,125.5293,35.669c-5.65039-4.96534-14.23926-3.17774-26.12451-.70313a89.14519,89.14519,0,0,0-12.8667,3.70654l-1.74317-4.68652a94.24753,94.24753,0,0,1,13.59033-3.915c12.8042-2.666,22.91944-4.771,30.44385,1.8418A24.45526,24.45526,0,0,1,136.73633,47.269a23.82846,23.82846,0,0,1,.00683,4.21436c-1.11621,17.33545-3.11132,29.74853-5.93164,36.895C130.30078,89.668,129.86035,90.67041,129.70605,91.0166Z"/><path d="M95.15088,91.0166l-4.56836-2.0332c.14307-.3208.55176-1.25049,1.02393-2.44287,2.62744-6.65918,4.50927-18.563,5.59179-35.37793a19.2467,19.2467,0,0,0,.00635-3.40821l4.97607-.48437a23.80572,23.80572,0,0,1,.00684,4.2124c-1.11523,17.33643-3.11133,29.74951-5.93115,36.896C95.74561,89.66748,95.30469,90.67041,95.15088,91.0166Z"/><rect x="90.5" y="15.5" width="43" height="3"/></svg>