<svg xmlns="http://www.w3.org/2000/svg" viewBox="0 0 200 200" id="e!kh" data-name="e!kh"><title>e!kh</title><path d="M122.55273,171.02441l-4.56054-2.04882c11.32617-25.20508,16.02246-40.377,8.4209-48.35743-4.373-4.59179-13.4336-5.49609-24.23438-2.418-9.93555,2.83105-14.1001,11.10156-15.84521,17.5498-.65625,4.0498-1.27295,8.61328-1.28125,8.6748l-4.97754-.34375a40.58848,40.58848,0,0,1,1.19922-8.36328c.27343-1.72265.562-3.42382.82763-4.75879,1.4126-7.10351,2.53125-14.25,3.3252-21.24121l4.96777.56446c-.38476,3.3916-.84521,6.82031-1.37646,10.26074a25.30168,25.30168,0,0,1,11.79-7.15137c12.8081-3.65039,23.4624-2.27246,29.22509,3.77735C139.584,127.19531,134.77246,143.832,122.55273,171.02441Z"/><path d="M142.26953,156.36816a87.16265,87.16265,0,0,1-20.31738-4.91113,70.62041,70.62041,0,0,1-8.18555-3.70605l2.35742-4.41016a65.51473,65.51473,0,0,0,7.60352,3.44238,82.17546,82.17546,0,0,0,19.15137,4.62207Z"/><path d="M129.70605,91.0166l-4.56835-2.0332c.14257-.3208.55175-1.251,1.02441-2.44385,2.62793-6.6582,4.50879-18.562,5.59082-35.377a19.10973,19.10973,0,0,0,.00684-3.40821A19.4267,19.4267,0,0,0,125.5293,35.669c-5.65039-4.96534-14.23926-3.17774-26.12451-.70313a89.14519,89.14519,0,0,0-12.8667,3.70654l-1.74317-4.68652a94.24753,94.24753,0,0,1,13.59033-3.915c12.8042-2.666,22.91944-4.771,30.44385,1.8418A24.45526,24.45526,0,0,1,136.73633,47.269a23.82846,23.82846,0,0,1,.00683,4.21436c-1.11621,17.33545-3.11132,29.74853-5.93164,36.895C130.30078,89.668,129.86035,90.67041,129.70605,91.0166Z"/><path d="M95.15088,91.0166l-4.56836-2.0332c.14307-.3208.55176-1.25049,1.02393-2.44287,2.62744-6.65918,4.50927-18.563,5.59179-35.37793a19.2467,19.2467,0,0,0,.00635-3.40821l4.97607-.48437a23.80572,23.80572,0,0,1,.00684,4.2124c-1.11523,17.33643-3.11133,29.74951-5.93115,36.896C95.74561,89.66748,95.30469,90.67041,95.15088,91.0166Z"/><rect x="90.5" y="15.5" width="43" height="3"/></svg>