<svg id="Elinqiloli" xmlns="http://www.w3.org/2000/svg" viewBox="0 0 200 200"><title>00033-e</title><path d="M138.417,146.0166l-4.56836-2.0332c.2334-.52246.85059-1.93067,1.55664-3.71289,3.98926-10.11524,6.84082-28.09863,8.47266-53.44629a30.37925,30.37925,0,0,0,.00684-5.31445A30.18627,30.18627,0,0,0,134.11816,62.564c-8.94531-7.86132-22.083-5.12548-40.26611-1.33935a134.97762,134.97762,0,0,0-19.48047,5.6123l-1.74316-4.68652A140.024,140.024,0,0,1,92.833,56.32959c18.86328-3.92773,33.76367-7.03125,44.585,2.478a35.39511,35.39511,0,0,1,11.44336,22.21777,34.97472,34.97472,0,0,1,.00683,6.11768c-1.666,25.86963-4.63086,44.36181-8.81347,54.96533C139.3125,143.98242,138.66211,145.46582,138.417,146.0166Z"/><path d="M86.5835,146.0166l-4.56739-2.0332c.23145-.51953.84571-1.92188,1.55567-3.71289,3.98974-10.11328,6.84082-28.09571,8.47314-53.44629a30.32552,30.32552,0,0,0,.00635-5.314l4.97656-.48339a34.86907,34.86907,0,0,1,.00684,6.11669c-1.66553,25.87208-4.63086,44.36426-8.813,54.96583C87.47559,143.99121,86.82764,145.46875,86.5835,146.0166Z"/></svg>