<svg data-name="Yololqiloli itik" xmlns="http://www.w3.org/2000/svg" viewBox="0 0 200 200"><title>e</title><path d="M110.09277,172.5h-.17968c-9.14893-.043-16.55079-3.36914-20.85694-9.376-5.50244-7.67871-7.54638-18.44238-6.07519-31.99316a59.15966,59.15966,0,0,1,6.71435-22.35352l4.36133,2.44532a54.74458,54.74458,0,0,0-6.105,20.44824c-1.33447,12.29.40479,21.89258,5.16846,28.54,3.356,4.68164,9.34961,7.26855,16.88281,7.28906,7.53613-.02051,13.53027-2.60742,16.88281-7.28906,4.76367-6.65137,6.50293-16.25391,5.168-28.54a54.82926,54.82926,0,0,0-6.10547-20.44922l4.36328-2.44336a59.27629,59.27629,0,0,1,6.71289,22.35156c1.47168,13.54688-.57128,24.31055-6.07421,31.99317-4.30274,6.00781-11.70411,9.334-20.85743,9.37695Z"/><path d="M129.70605,91.0166l-4.56835-2.0332c.14257-.3208.55175-1.251,1.02441-2.44385,2.62793-6.6582,4.50879-18.562,5.59082-35.377a19.10973,19.10973,0,0,0,.00684-3.40821A19.4267,19.4267,0,0,0,125.5293,35.669c-5.65039-4.96534-14.23926-3.17774-26.12451-.70313a89.14519,89.14519,0,0,0-12.8667,3.70654l-1.74317-4.68652a94.24753,94.24753,0,0,1,13.59033-3.915c12.8042-2.666,22.91944-4.771,30.44385,1.8418A24.45526,24.45526,0,0,1,136.73633,47.269a23.82846,23.82846,0,0,1,.00683,4.21436c-1.11621,17.33545-3.11132,29.74853-5.93164,36.895C130.30078,89.668,129.86035,90.67041,129.70605,91.0166Z"/><path d="M95.15088,91.0166l-4.56836-2.0332c.14307-.3208.55176-1.25049,1.02393-2.44287,2.62744-6.65918,4.50927-18.563,5.59179-35.37793a19.2467,19.2467,0,0,0,.00635-3.40821l4.97607-.48437a23.80572,23.80572,0,0,1,.00684,4.2124c-1.11523,17.33643-3.11133,29.74951-5.93115,36.896C95.74561,89.66748,95.30469,90.67041,95.15088,91.0166Z"/><rect x="90.5" y="15.5" width="43" height="3"/></svg>