<svg data-name="Elinqiloli akopa" xmlns="http://www.w3.org/2000/svg" viewBox="0 0 200 200"><title>e</title><path d="M129.70605,91.0166l-4.56835-2.0332c.14257-.3208.55175-1.251,1.02441-2.44385,2.62793-6.6582,4.50879-18.562,5.59082-35.377a19.10973,19.10973,0,0,0,.00684-3.40821A19.4267,19.4267,0,0,0,125.5293,35.669c-5.65039-4.96534-14.23926-3.17774-26.12451-.70313a89.14519,89.14519,0,0,0-12.8667,3.70654l-1.74317-4.68652a94.24753,94.24753,0,0,1,13.59033-3.915c12.8042-2.666,22.91944-4.771,30.44385,1.8418A24.45526,24.45526,0,0,1,136.73633,47.269a23.82846,23.82846,0,0,1,.00683,4.21436c-1.11621,17.33545-3.11132,29.74853-5.93164,36.895C130.30078,89.668,129.86035,90.67041,129.70605,91.0166Z"/><path d="M95.15088,91.0166l-4.56836-2.0332c.14307-.3208.55176-1.25049,1.02393-2.44287,2.62744-6.65918,4.50927-18.563,5.59179-35.37793a19.2467,19.2467,0,0,0,.00635-3.40821l4.97607-.48437a23.80572,23.80572,0,0,1,.00684,4.2124c-1.11523,17.33643-3.11133,29.74951-5.93115,36.896C95.74561,89.66748,95.30469,90.67041,95.15088,91.0166Z"/><path d="M102.00195,172.5c-10.71631,0-20.4414-2.79395-23.87695-6.91211l3.83984-3.20312c1.86231,2.23339,9.6128,5.31347,20.96387,5.10742,15.06641-.24707,31.67188-8.416,34.25586-23.55274a28.579,28.579,0,0,0-10.36914-26.49609c-6.75488-5.32227-16.72949-5.40039-23.89844-4.53613-5.65039.68261-14.69824,5.54785-14.78906,5.59765l-2.37939-4.39746c.4038-.21875,9.97216-5.36621,16.56787-6.16406,8.11621-.97852,19.49121-.81055,27.59277,5.57227a33.70834,33.70834,0,0,1,12.2041,31.26562c-3.043,17.82129-21.97461,27.42969-39.10254,27.71094C102.6748,172.49707,102.33691,172.5,102.00195,172.5Z"/><path d="M139.8457,169.4248a42.78148,42.78148,0,0,1-14.05859-6.31347,32.46477,32.46477,0,0,1-9.31445-9.8252l4.28711-2.57226a27.51555,27.51555,0,0,0,7.90234,8.30664,37.7354,37.7354,0,0,0,12.40234,5.55469Z"/></svg>