<svg xmlns="http://www.w3.org/2000/svg" viewBox="0 0 200 200" id="ek" data-name="ek"><title>ek</title><path d="M129.70605,91.0166l-4.56835-2.0332c.14257-.3208.55175-1.251,1.02441-2.44385,2.62793-6.6582,4.50879-18.562,5.59082-35.377a19.10973,19.10973,0,0,0,.00684-3.40821A19.4267,19.4267,0,0,0,125.5293,35.669c-5.65039-4.96534-14.23926-3.17774-26.12451-.70313a89.14519,89.14519,0,0,0-12.8667,3.70654l-1.74317-4.68652a94.24753,94.24753,0,0,1,13.59033-3.915c12.8042-2.666,22.91944-4.771,30.44385,1.8418A24.45526,24.45526,0,0,1,136.73633,47.269a23.82846,23.82846,0,0,1,.00683,4.21436c-1.11621,17.33545-3.11132,29.74853-5.93164,36.895C130.30078,89.668,129.86035,90.67041,129.70605,91.0166Z"/><path d="M95.15088,91.0166l-4.56836-2.0332c.14307-.3208.55176-1.25049,1.02393-2.44287,2.62744-6.65918,4.50927-18.563,5.59179-35.37793a19.2467,19.2467,0,0,0,.00635-3.40821l4.97607-.48437a23.80572,23.80572,0,0,1,.00684,4.2124c-1.11523,17.33643-3.11133,29.74951-5.93115,36.896C95.74561,89.66748,95.30469,90.67041,95.15088,91.0166Z"/><path d="M101.957,172.5c-10.71631,0-20.4414-2.79395-23.877-6.91211l3.83984-3.20312c1.86279,2.23339,9.624,5.31347,20.96387,5.10742,15.06738-.24707,31.67285-8.416,34.25684-23.55274a28.579,28.579,0,0,0-10.36915-26.49609c-6.75488-5.32227-16.7246-5.40137-23.89843-4.53613-4.69971.56836-12.26905,4.23242-14.78955,5.59668l-2.37989-4.39649c.40381-.21875,9.97266-5.36621,16.56885-6.16406,8.11328-.97852,19.48926-.81152,27.59277,5.57227a33.70837,33.70837,0,0,1,12.20411,31.26562c-3.043,17.82129-21.97461,27.42969-39.10352,27.71094C102.62988,172.49707,102.292,172.5,101.957,172.5Z"/></svg>