<svg data-name="Jokilqiloli itik" xmlns="http://www.w3.org/2000/svg" viewBox="0 0 200 200"><title>f</title><path d="M108.6416,172.5h-.17969c-9.14013-.04395-16.53711-3.37012-20.83935-9.37695-5.49658-7.67774-7.53809-18.44141-6.06885-31.99219a59.19658,59.19658,0,0,1,6.70752-22.35254l4.36231,2.44336a54.79329,54.79329,0,0,0-6.09913,20.44922c-1.33252,12.291.4043,21.89355,5.16309,28.541,3.35254,4.68067,9.33984,7.26758,16.86426,7.28809,7.52832-.02051,13.51562-2.60645,16.86426-7.28809,4.75976-6.65136,6.49609-16.2539,5.16308-28.542a54.87349,54.87349,0,0,0-6.09961-20.44922l4.36328-2.4414a59.28734,59.28734,0,0,1,6.707,22.35058c1.46973,13.54688-.57128,24.31055-6.06738,31.99219-4.29883,6.00781-11.69531,9.335-20.84082,9.37793Z"/><path d="M144.24414,156.36426a74.757,74.757,0,0,1-18.71-4.93457,62.361,62.361,0,0,1-7.53613-3.72461l2.51953-4.31836a57.44786,57.44786,0,0,0,6.93066,3.42383,69.77893,69.77893,0,0,0,17.46,4.59863Z"/><path d="M137.834,89.40967A37.54976,37.54976,0,0,1,124.957,83.044a31.50033,31.50033,0,0,1-8.48144-9.84815l4.39062-2.3916a26.55344,26.55344,0,0,0,7.15137,8.28613,32.50185,32.50185,0,0,0,11.14844,5.5Z"/><path d="M99.06348,92.50635a125.11538,125.11538,0,0,1-14.35108-.85449l.5752-4.9668c24.7876,2.87012,43.00928-2.30664,46.3042-8.97119.376-.75928,2.11425-4.72022-.55274-8.1958-4.5039-5.86963-10.05566-11.356-20.08691-11.76856-.57324.00635-5.24317.08887-6.169.105l-.59961.0874-.7207-4.94726.40332-.05908,5.00879-2.28614c16.23828-8.97753,18.63477-13.70947,18.35645-14.40039-.01172-.02783-1.4502-2.85644-18.31446-3.58545-9.60693-.41406-19.03467.08155-20.03808.167l-.42383-4.98243c1.10644-.09277,10.73877-.61474,20.7832-.17529,17.9834.78955,21.541,4,22.63184,6.709,1.23633,3.07177.67383,8.30273-17.18067,18.71679,10.03809,1.57764,16.08887,7.8667,20.31641,13.37549a12.75055,12.75055,0,0,1,1.06738,13.457C132.16211,87.84033,117.74805,92.50586,99.06348,92.50635Z"/></svg>