<svg data-name="Mailqiloli itik" xmlns="http://www.w3.org/2000/svg" viewBox="0 0 200 200"><title>f</title><path d="M135.88281,172.5c-5.26367.001-8.55468-3.8623-10.1416-5.72461-3.67578-4.2998-4.87109-12.16211-4.9209-12.49512-.00293-.02929-.00586-.05957-.00976-.08886-2.65039-.13282-5.36231-.25489-8.0127-.25977-3.9834-.00293-7.95508.126-11.791.40137-2.59473.18652-5.22071.31445-8.00147.45019-1.87744.0918-3.78125.18555-5.69726.29883l-2.11817.124c-3.31006.19239-6.73242.39161-9.9834.66114l-.41308-4.98242c3.312-.27442,6.76562-.47559,10.106-.6709l2.1128-.124c1.93457-.11328,3.855-.208,5.749-.2998,2.75147-.13477,5.3501-.26172,7.88818-.44336,3.957-.28516,8.02149-.4043,12.15918-.415,2.51465.00488,5.044.10938,7.52149.23047a129.11846,129.11846,0,0,1-.30762-13.16309c.22949-9.88867,2.99609-25.75976,3.11328-26.43066l4.92578.86328c-.02832.16113-2.81933,16.17383-3.041,25.68457a122.16646,122.16646,0,0,0,.34082,13.293c.06152.00293.12207.00586.18359.00781a70.08261,70.08261,0,0,1,12.18946,1.47949c1.80078.39844,6.59375,1.457,8.748,5.50489,2.51465,4.72754-.34082,9.77441-.6748,10.334a11.84147,11.84147,0,0,1-9.8252,5.76465Zm-9.96289-18.05957c.44238,2.27246,1.62988,6.75586,3.625,9.08984,1.35059,1.584,3.38281,3.96973,6.3418,3.96973h.0498a6.74837,6.74837,0,0,0,5.5752-3.32324c.0166-.0293,1.77051-3.14453.55664-5.42676-.94922-1.7832-3.39356-2.52441-5.416-2.97168A64.0455,64.0455,0,0,0,125.91992,154.44043Z"/><rect x="90.5" y="15.5" width="43" height="3"/><path d="M137.834,89.40967A37.54976,37.54976,0,0,1,124.957,83.044a31.50033,31.50033,0,0,1-8.48144-9.84815l4.39062-2.3916a26.55344,26.55344,0,0,0,7.15137,8.28613,32.50185,32.50185,0,0,0,11.14844,5.5Z"/><path d="M99.06348,92.50635a125.11538,125.11538,0,0,1-14.35108-.85449l.5752-4.9668c24.7876,2.87012,43.00928-2.30664,46.3042-8.97119.376-.75928,2.11425-4.72022-.55274-8.1958-4.5039-5.86963-10.05566-11.356-20.08691-11.76856-.57324.00635-5.24317.08887-6.169.105l-.59961.0874-.7207-4.94726.40332-.05908,5.00879-2.28614c16.23828-8.97753,18.63477-13.70947,18.35645-14.40039-.01172-.02783-1.4502-2.85644-18.31446-3.58545-9.60693-.41406-19.03467.08155-20.03808.167l-.42383-4.98243c1.10644-.09277,10.73877-.61474,20.7832-.17529,17.9834.78955,21.541,4,22.63184,6.709,1.23633,3.07177.67383,8.30273-17.18067,18.71679,10.03809,1.57764,16.08887,7.8667,20.31641,13.37549a12.75055,12.75055,0,0,1,1.06738,13.457C132.16211,87.84033,117.74805,92.50586,99.06348,92.50635Z"/><path d="M75,63.5A12.5,12.5,0,1,1,87.5,51,12.51408,12.51408,0,0,1,75,63.5Zm0-22A9.5,9.5,0,1,0,84.5,51,9.51081,9.51081,0,0,0,75,41.5Z"/></svg>