<svg data-name="Weyakqiloli 3" xmlns="http://www.w3.org/2000/svg" viewBox="0 0 200 200"><title>f</title><rect x="83.34277" y="38.5" width="60" height="3"/><path d="M96.56543,147.47754a118.52584,118.52584,0,0,1-16.92334-1.25l.71582-4.94922c27.17236,3.93457,51.21143-2.07129,55.91748-13.96484.51074-1.29395,2.87793-8.05469-.7793-14.01172-5.22754-8.51563-12.209-17.3003-24.35546-17.92774-.7002.01075-6.26758.1333-7.39161.15821l-.71386.12939-.89453-4.91894.48828-.08887L108.668,87.208c18.09375-12.50391,23.38379-20.45508,22.41308-23.46778-.26074-.81054-2.56054-4.90722-22.26367-5.98828a201.27355,201.27355,0,0,0-24.15185.24317l-.5293-4.97168c.47266-.0503,47.47315-3.95655,51.70459,9.18408,2.10254,6.52686-5.67383,16.03369-23.11621,28.26855,13.626,1.26514,21.30664,10.88331,27.0332,20.21045,4.90137,7.9834,1.832,16.78321,1.167,18.46582C136.39746,140.59375,118.82617,147.47754,96.56543,147.47754Z"/><path d="M146.26074,142.8877a47.66106,47.66106,0,0,1-16.99414-9.39844,45.03151,45.03151,0,0,1-11.08594-14.39551l4.4961-2.1875A40.06234,40.06234,0,0,0,132.54,129.71a42.6504,42.6504,0,0,0,15.19922,8.40234Z"/><path d="M48.458,99.5q-.37207,0-.74512-.0083l.06641-2.999a27.16618,27.16618,0,0,0,11.86181-2.3335,30.29884,30.29884,0,0,0,9.37744-6.77539,14.31583,14.31583,0,0,1-3.771-2.50733c-1.292-1.208-4.3169-4.03662-4.22949-8.42236a10.54668,10.54668,0,0,1,7.65039-9.60644c3.40478-.915,8.10107-.06983,9.74365,2.89209,1.11523,2.0122,1.11475,4.85595-.00293,8.22412a29.5119,29.5119,0,0,1-4.22852,7.88183c.47168.0791.94825.13477,1.42481.16651l-.19824,2.99316a17.40184,17.40184,0,0,1-2.99561-.46338c-.09521-.02344-.208-.05078-.33594-.08349a33.655,33.655,0,0,1-11.20019,8.43505A29.95044,29.95044,0,0,1,48.458,99.5ZM71.395,69.501a7.31065,7.31065,0,0,0-7.37793,7.01269c-.06055,3.04834,2.19531,5.15772,3.2793,6.17139a11.64771,11.64771,0,0,0,3.78174,2.31836A27.40257,27.40257,0,0,0,75.562,77.019c.82227-2.478.90479-4.60107.22608-5.82519C75.21631,70.16211,73.32715,69.501,71.395,69.501Z"/></svg>