<svg data-name="Galilqiloli itik" xmlns="http://www.w3.org/2000/svg" viewBox="0 0 200 200"><title>f</title><path d="M102.00195,172.5c-10.71631,0-20.4414-2.79395-23.87695-6.91211l3.83984-3.20312c1.86231,2.23339,9.6128,5.31347,20.96387,5.10742,15.06641-.24707,31.67188-8.416,34.25586-23.55274a28.579,28.579,0,0,0-10.36914-26.49609c-6.75488-5.32227-16.72949-5.40039-23.89844-4.53613-5.65039.68261-14.69824,5.54785-14.78906,5.59765l-2.37939-4.39746c.4038-.21875,9.97216-5.36621,16.56787-6.16406,8.11621-.97852,19.49121-.81055,27.59277,5.57227a33.70834,33.70834,0,0,1,12.2041,31.26562c-3.043,17.82129-21.97461,27.42969-39.10254,27.71094C102.6748,172.49707,102.33691,172.5,102.00195,172.5Z"/><path d="M139.8457,169.4248a42.78148,42.78148,0,0,1-14.05859-6.31347,32.46477,32.46477,0,0,1-9.31445-9.8252l4.28711-2.57226a27.51555,27.51555,0,0,0,7.90234,8.30664,37.7354,37.7354,0,0,0,12.40234,5.55469Z"/><path d="M137.834,89.40967A37.54976,37.54976,0,0,1,124.957,83.044a31.50033,31.50033,0,0,1-8.48144-9.84815l4.39062-2.3916a26.55344,26.55344,0,0,0,7.15137,8.28613,32.50185,32.50185,0,0,0,11.14844,5.5Z"/><path d="M99.06348,92.50635a125.11538,125.11538,0,0,1-14.35108-.85449l.5752-4.9668c24.7876,2.87012,43.00928-2.30664,46.3042-8.97119.376-.75928,2.11425-4.72022-.55274-8.1958-4.5039-5.86963-10.05566-11.356-20.08691-11.76856-.57324.00635-5.24317.08887-6.169.105l-.59961.0874-.7207-4.94726.40332-.05908,5.00879-2.28614c16.23828-8.97753,18.63477-13.70947,18.35645-14.40039-.01172-.02783-1.4502-2.85644-18.31446-3.58545-9.60693-.41406-19.03467.08155-20.03808.167l-.42383-4.98243c1.10644-.09277,10.73877-.61474,20.7832-.17529,17.9834.78955,21.541,4,22.63184,6.709,1.23633,3.07177.67383,8.30273-17.18067,18.71679,10.03809,1.57764,16.08887,7.8667,20.31641,13.37549a12.75055,12.75055,0,0,1,1.06738,13.457C132.16211,87.84033,117.74805,92.50586,99.06348,92.50635Z"/><path d="M75,63.5A12.5,12.5,0,1,1,87.5,51,12.51408,12.51408,0,0,1,75,63.5Zm0-22A9.5,9.5,0,1,0,84.5,51,9.51081,9.51081,0,0,0,75,41.5Z"/></svg>