<svg xmlns="http://www.w3.org/2000/svg" viewBox="0 0 200 200" id="foq" data-name="foq"><title>foq</title><path d="M84.5752,171.93945l-2.58008-4.2832c.34521-.208.8374-.47754,1.44677-.80957,5.30176-2.88867,19.38526-10.56152,19.47608-25.13281.084-13.63672-16.12451-25.73242-23.98731-29.4541l2.05713-4.55664c2.063.88769,42.21826,18.36914,56.51221,39.46191V110h5v60h-5v-8.67285c.00195-13.25684-19.37793-27.84277-36.9375-38.04883,4.334,5.44043,7.39648,11.77832,7.35547,18.4668-.10938,17.51953-16.64893,26.53125-22.084,29.49218C85.3042,171.52637,84.87549,171.75879,84.5752,171.93945Z"/><path d="M137.834,89.40967A37.54976,37.54976,0,0,1,124.957,83.044a31.50033,31.50033,0,0,1-8.48144-9.84815l4.39062-2.3916a26.55344,26.55344,0,0,0,7.15137,8.28613,32.50185,32.50185,0,0,0,11.14844,5.5Z"/><path d="M99.06348,92.50635a125.11538,125.11538,0,0,1-14.35108-.85449l.5752-4.9668c24.7876,2.87012,43.00928-2.30664,46.3042-8.97119.376-.75928,2.11425-4.72022-.55274-8.1958-4.5039-5.86963-10.05566-11.356-20.08691-11.76856-.57324.00635-5.24317.08887-6.169.105l-.59961.0874-.7207-4.94726.40332-.05908,5.00879-2.28614c16.23828-8.97753,18.63477-13.70947,18.35645-14.40039-.01172-.02783-1.4502-2.85644-18.31446-3.58545-9.60693-.41406-19.03467.08155-20.03808.167l-.42383-4.98243c1.10644-.09277,10.73877-.61474,20.7832-.17529,17.9834.78955,21.541,4,22.63184,6.709,1.23633,3.07177.67383,8.30273-17.18067,18.71679,10.03809,1.57764,16.08887,7.8667,20.31641,13.37549a12.75055,12.75055,0,0,1,1.06738,13.457C132.16211,87.84033,117.74805,92.50586,99.06348,92.50635Z"/><path d="M75,63.5A12.5,12.5,0,1,1,87.5,51,12.51408,12.51408,0,0,1,75,63.5Zm0-22A9.5,9.5,0,1,0,84.5,51,9.51081,9.51081,0,0,0,75,41.5Z"/></svg>