<svg data-name="Ksimalqiloli itik" xmlns="http://www.w3.org/2000/svg" viewBox="0 0 200 200"><title>g</title><path d="M143.28027,171.63086c-3.78808-3.58887-19.53711-13.44141-41.5-11.64063-14.05713,1.14747-22.82763,7.626-25.18115,9.584l-3.37793-3.67871.86719-.83692C108.73926,139.22266,123.19531,121.27441,125.667,112.5H75v-5h56.05859V110c0,9.89648-13.47265,26.3457-37.56445,46.22266a55.33606,55.33606,0,0,1,7.87988-1.2168c23.751-1.93359,41.13477,9.00684,45.34571,12.99609Z"/><path d="M127.7373,170.13379l-4.99218-.26758a40.67518,40.67518,0,0,1,3.59375-14.6416,45.82179,45.82179,0,0,1,11.334-15.25586l3.33594,3.72461a40.84039,40.84039,0,0,0-10.11328,13.5918A35.69859,35.69859,0,0,0,127.7373,170.13379Z"/><rect x="90.5" y="15.5" width="43" height="3"/><path d="M102,92.49951c-10.71533,0-20.43994-2.79394-23.875-6.91162l3.83984-3.20312c1.86231,2.23291,9.60987,5.2788,20.96387,5.10742,15.06641-.24707,31.67188-8.41651,34.25586-23.55274a28.579,28.579,0,0,0-10.36914-26.49609c-6.75293-5.3208-16.72363-5.4043-23.89941-4.53613-5.64942.68359-14.69727,5.54834-14.78809,5.59716l-2.37939-4.39746c.4038-.21875,9.97216-5.36572,16.56787-6.16357,8.1123-.98145,19.49121-.81055,27.59277,5.57227a33.70657,33.70657,0,0,1,12.2041,31.26513c-3.043,17.82129-21.97461,27.42969-39.10254,27.71045Q102.50391,92.5,102,92.49951Z"/><path d="M139.8457,89.4248a42.77587,42.77587,0,0,1-14.05859-6.3125,32.46772,32.46772,0,0,1-9.31445-9.82666l4.28711-2.57128a27.53375,27.53375,0,0,0,7.90234,8.30712,37.72,37.72,0,0,0,12.40234,5.55372Z"/></svg>