<svg xmlns="http://www.w3.org/2000/svg" viewBox="0 0 200 200" id="gad" data-name="gad"><title>gad</title><path d="M117.78223,171.75293a37.41933,37.41933,0,0,1-.30957-52.40527,36.38069,36.38069,0,0,1,6.99707-5.55274c-10.89453.84278-26.78662,2.22754-49.21827,4.49512l-.50292-4.97461c53.4331-5.40234,69.49169-5.7998,70.19482-5.81445h.00391l.10644,4.998c-.13769.00391-14.33691.46973-24.00879,10.34668a32.64506,32.64506,0,0,0-9.01562,25.20508,33.34127,33.34127,0,0,0,9.31738,20.19629Z"/><path d="M125.0498,143.33594c-7.91894,0-15.86816-.36426-23.70214-1.08789-4.74659-.4375-9.5376-1.0166-14.23975-1.71875l.73926-4.94532c4.60986.68946,9.30664,1.25586,13.95947,1.68555a254.37569,254.37569,0,0,0,28.51172,1.01172l.10547,4.99805Q127.74024,143.33642,125.0498,143.33594Z"/><path d="M102,92.49951c-10.71533,0-20.43994-2.79394-23.875-6.91162l3.83984-3.20312c1.86231,2.23291,9.60987,5.2788,20.96387,5.10742,15.06641-.24707,31.67188-8.41651,34.25586-23.55274a28.579,28.579,0,0,0-10.36914-26.49609c-6.75293-5.3208-16.72363-5.4043-23.89941-4.53613-5.64942.68359-14.69727,5.54834-14.78809,5.59716l-2.37939-4.39746c.4038-.21875,9.97216-5.36572,16.56787-6.16357,8.1123-.98145,19.49121-.81055,27.59277,5.57227a33.70657,33.70657,0,0,1,12.2041,31.26513c-3.043,17.82129-21.97461,27.42969-39.10254,27.71045Q102.50391,92.5,102,92.49951Z"/><path d="M139.8457,89.4248a42.77587,42.77587,0,0,1-14.05859-6.3125,32.46772,32.46772,0,0,1-9.31445-9.82666l4.28711-2.57128a27.53375,27.53375,0,0,0,7.90234,8.30712,37.72,37.72,0,0,0,12.40234,5.55372Z"/></svg>