<svg xmlns="http://www.w3.org/2000/svg" viewBox="0 0 200 200" id="ge!w" data-name="ge!w"><title>ge!w</title><path d="M75.53418,172.44238l-1.06836-4.88476c12.08691-2.64258,29.73828-8.78614,45.19043-23.04492,12.21387-11.26856,19.62012-23.60352,22.16211-32.0127H75v-5h72.99219l-.53223,2.94531c-1.52344,8.42578-8.83105,23.36524-24.41308,37.74219C106.77148,163.20605,88.22559,169.667,75.53418,172.44238Z"/><rect x="90.5" y="15.5" width="43" height="3"/><path d="M102,92.49951c-10.71533,0-20.43994-2.79394-23.875-6.91162l3.83984-3.20312c1.86231,2.23291,9.60987,5.2788,20.96387,5.10742,15.06641-.24707,31.67188-8.41651,34.25586-23.55274a28.579,28.579,0,0,0-10.36914-26.49609c-6.75293-5.3208-16.72363-5.4043-23.89941-4.53613-5.64942.68359-14.69727,5.54834-14.78809,5.59716l-2.37939-4.39746c.4038-.21875,9.97216-5.36572,16.56787-6.16357,8.1123-.98145,19.49121-.81055,27.59277,5.57227a33.70657,33.70657,0,0,1,12.2041,31.26513c-3.043,17.82129-21.97461,27.42969-39.10254,27.71045Q102.50391,92.5,102,92.49951Z"/><path d="M139.8457,89.4248a42.77587,42.77587,0,0,1-14.05859-6.3125,32.46772,32.46772,0,0,1-9.31445-9.82666l4.28711-2.57128a27.53375,27.53375,0,0,0,7.90234,8.30712,37.72,37.72,0,0,0,12.40234,5.55372Z"/><path d="M95.61328,54.78271a34.21964,34.21964,0,0,1-11.63623-5.5205,27.58394,27.58394,0,0,1-7.65283-8.521l2.6084-1.48242a24.60272,24.60272,0,0,0,6.83154,7.59375,31.231,31.231,0,0,0,10.62256,5.03174Z"/><path d="M81.98486,61.44922a34.21434,34.21434,0,0,1-11.63672-5.51953,27.58451,27.58451,0,0,1-7.65234-8.52246l2.6084-1.48145a24.5989,24.5989,0,0,0,6.83105,7.59375A31.21763,31.21763,0,0,0,82.7583,58.55078Z"/></svg>