<svg data-name="Hekalqilotontli 2b" xmlns="http://www.w3.org/2000/svg" viewBox="0 0 200 200"><title>g</title><polygon points="31.173 84.25 28.173 84.25 28.173 52.75 59.673 52.75 59.673 55.75 31.173 55.75 31.173 84.25"/><path d="M100.19287,147.499c-12.96924.001-24.68359-4.08886-28.76367-10.11816l4.1416-2.80273c2.728,4.03222,12.67969,8.166,25.77,7.91015,18.52637-.374,38.9707-12.96,42.20117-36.291,2.085-15.05762-3.13769-31.6084-12.99707-41.18457-8.30469-8.06592-20.46679-8.20508-29.21387-6.90186-6.89648,1.02832-17.9458,8.35352-18.05664,8.42725l-2.7749-4.15918c.48975-.32666,12.09033-8.02,20.09424-9.21338,9.86035-1.47071,23.665-1.231,33.43555,8.26025,10.94531,10.63184,16.75879,28.89942,14.46582,45.457-3.61524,26.10645-26.40723,40.1875-47.05274,40.60352Q100.81543,147.49951,100.19287,147.499Z"/><path d="M146.26074,142.8877a47.66106,47.66106,0,0,1-16.99414-9.39844,45.03151,45.03151,0,0,1-11.08594-14.39551l4.4961-2.1875A40.06234,40.06234,0,0,0,132.54,129.71a42.6504,42.6504,0,0,0,15.19922,8.40234Z"/><path d="M86.40332,92.07764a45.53114,45.53114,0,0,1-16.46387-9.2793,44.25592,44.25592,0,0,1-10.72461-14.186l2.707-1.29394a41.26889,41.26889,0,0,0,10.00146,13.23,42.5635,42.5635,0,0,0,15.38721,8.66992Z"/><path d="M66.90186,103.419a45.52892,45.52892,0,0,1-16.46436-9.2793,44.25592,44.25592,0,0,1-10.72461-14.186l2.707-1.29394a41.26906,41.26906,0,0,0,10.00147,13.23,42.554,42.554,0,0,0,15.38672,8.66992Z"/></svg>