<svg xmlns="http://www.w3.org/2000/svg" viewBox="0 0 200 200" id="gih" data-name="gih"><title>gih</title><path d="M124.94434,171.02441l-4.56055-2.04882c11.31641-25.20508,16.00976-40.377,8.41406-48.3584-4.37109-4.59082-13.41992-5.49512-24.21-2.417-9.92578,2.83105-14.08643,11.10058-15.83008,17.54785-.65576,4.05078-1.272,8.61523-1.28027,8.67675L82.5,144.08105a40.62313,40.62313,0,0,1,1.19824-8.36328c.27344-1.72265.562-3.42285.82715-4.75879,1.40967-7.09375,2.52734-14.24023,3.32227-21.24121l4.96777.56446c-.38477,3.39257-.84424,6.81836-1.375,10.25586a25.28158,25.28158,0,0,1,11.77637-7.14649c12.7998-3.65137,23.44433-2.27344,29.20215,3.77832C141.96094,127.19531,137.15332,143.832,124.94434,171.02441Z"/><path d="M102,92.49951c-10.71533,0-20.43994-2.79394-23.875-6.91162l3.83984-3.20312c1.86231,2.23291,9.60987,5.2788,20.96387,5.10742,15.06641-.24707,31.67188-8.41651,34.25586-23.55274a28.579,28.579,0,0,0-10.36914-26.49609c-6.75293-5.3208-16.72363-5.4043-23.89941-4.53613-5.64942.68359-14.69727,5.54834-14.78809,5.59716l-2.37939-4.39746c.4038-.21875,9.97216-5.36572,16.56787-6.16357,8.1123-.98145,19.49121-.81055,27.59277,5.57227a33.70657,33.70657,0,0,1,12.2041,31.26513c-3.043,17.82129-21.97461,27.42969-39.10254,27.71045Q102.50391,92.5,102,92.49951Z"/><path d="M139.8457,89.4248a42.77587,42.77587,0,0,1-14.05859-6.3125,32.46772,32.46772,0,0,1-9.31445-9.82666l4.28711-2.57128a27.53375,27.53375,0,0,0,7.90234,8.30712,37.72,37.72,0,0,0,12.40234,5.55372Z"/><path d="M88.61816,59.45068A46.59033,46.59033,0,0,1,72.96533,52.0874,36.86349,36.86349,0,0,1,62.69824,40.74512l2.60352-1.49024a33.88737,33.88737,0,0,0,9.44287,10.41748,43.56666,43.56666,0,0,0,14.63721,6.877Z"/></svg>