<svg xmlns="http://www.w3.org/2000/svg" viewBox="0 0 200 200" id="gu!&apos;" data-name="gu!&apos;"><title>gu!'</title><polygon points="47.923 85 44.923 85 44.923 53.5 76.423 53.5 76.423 56.5 47.923 56.5 47.923 85"/><rect x="83.34277" y="38.5" width="60" height="3"/><path d="M100.19287,147.499c-12.96924.001-24.68359-4.08886-28.76367-10.11816l4.1416-2.80273c2.728,4.03222,12.67969,8.166,25.77,7.91015,18.52637-.374,38.9707-12.96,42.20117-36.291,2.085-15.05762-3.13769-31.6084-12.99707-41.18457-8.30469-8.06592-20.46679-8.20508-29.21387-6.90186-6.89648,1.02832-17.9458,8.35352-18.05664,8.42725l-2.7749-4.15918c.48975-.32666,12.09033-8.02,20.09424-9.21338,9.86035-1.47071,23.665-1.231,33.43555,8.26025,10.94531,10.63184,16.75879,28.89942,14.46582,45.457-3.61524,26.10645-26.40723,40.1875-47.05274,40.60352Q100.81543,147.49951,100.19287,147.499Z"/><path d="M146.26074,142.8877a47.66106,47.66106,0,0,1-16.99414-9.39844,45.03151,45.03151,0,0,1-11.08594-14.39551l4.4961-2.1875A40.06234,40.06234,0,0,0,132.54,129.71a42.6504,42.6504,0,0,0,15.19922,8.40234Z"/><path d="M48.458,99.5q-.37207,0-.74512-.0083l.06641-2.999a27.16618,27.16618,0,0,0,11.86181-2.3335,30.29884,30.29884,0,0,0,9.37744-6.77539,14.31583,14.31583,0,0,1-3.771-2.50733c-1.292-1.208-4.3169-4.03662-4.22949-8.42236a10.54668,10.54668,0,0,1,7.65039-9.60644c3.40478-.915,8.10107-.06983,9.74365,2.89209,1.11523,2.0122,1.11475,4.85595-.00293,8.22412a29.5119,29.5119,0,0,1-4.22852,7.88183c.47168.0791.94825.13477,1.42481.16651l-.19824,2.99316a17.40184,17.40184,0,0,1-2.99561-.46338c-.09521-.02344-.208-.05078-.33594-.08349a33.655,33.655,0,0,1-11.20019,8.43505A29.95044,29.95044,0,0,1,48.458,99.5ZM71.395,69.501a7.31065,7.31065,0,0,0-7.37793,7.01269c-.06055,3.04834,2.19531,5.15772,3.2793,6.17139a11.64771,11.64771,0,0,0,3.78174,2.31836A27.40257,27.40257,0,0,0,75.562,77.019c.82227-2.478.90479-4.60107.22608-5.82519C75.21631,70.16211,73.32715,69.501,71.395,69.501Z"/></svg>