<svg data-name="Jokilqiloli itik" xmlns="http://www.w3.org/2000/svg" viewBox="0 0 200 200"><title>h</title><path d="M108.6416,172.5h-.17969c-9.14013-.04395-16.53711-3.37012-20.83935-9.37695-5.49658-7.67774-7.53809-18.44141-6.06885-31.99219a59.19658,59.19658,0,0,1,6.70752-22.35254l4.36231,2.44336a54.79329,54.79329,0,0,0-6.09913,20.44922c-1.33252,12.291.4043,21.89355,5.16309,28.541,3.35254,4.68067,9.33984,7.26758,16.86426,7.28809,7.52832-.02051,13.51562-2.60645,16.86426-7.28809,4.75976-6.65136,6.49609-16.2539,5.16308-28.542a54.87349,54.87349,0,0,0-6.09961-20.44922l4.36328-2.4414a59.28734,59.28734,0,0,1,6.707,22.35058c1.46973,13.54688-.57128,24.31055-6.06738,31.99219-4.29883,6.00781-11.69531,9.335-20.84082,9.37793Z"/><path d="M144.24414,156.36426a74.757,74.757,0,0,1-18.71-4.93457,62.361,62.361,0,0,1-7.53613-3.72461l2.51953-4.31836a57.44786,57.44786,0,0,0,6.93066,3.42383,69.77893,69.77893,0,0,0,17.46,4.59863Z"/><path d="M124.94434,91.02393l-4.56055-2.04786C131.7002,63.77,136.39355,48.59814,128.79785,40.61768c-4.37109-4.59229-13.41992-5.49463-24.21-2.418-9.92578,2.831-14.08643,11.10009-15.83008,17.54834-.65576,4.05078-1.272,8.61474-1.28027,8.67627L82.5,64.08154a40.59841,40.59841,0,0,1,1.19873-8.36425c.273-1.72217.56152-3.42286.82666-4.75831,1.40967-7.09179,2.52734-14.23828,3.32227-21.24121l4.96777.56446c-.38525,3.39306-.84473,6.81884-1.375,10.25586a25.27825,25.27825,0,0,1,11.77637-7.147c12.79687-3.64941,23.44238-2.27343,29.20215,3.7793C141.96094,47.19531,137.15332,63.83154,124.94434,91.02393Z"/><path d="M95.61328,87.78271a34.21964,34.21964,0,0,1-11.63623-5.5205,27.58394,27.58394,0,0,1-7.65283-8.521l2.6084-1.48242a24.60272,24.60272,0,0,0,6.83154,7.59375,31.231,31.231,0,0,0,10.62256,5.03174Z"/><path d="M81.98486,94.44922a34.21434,34.21434,0,0,1-11.63672-5.51953,27.58451,27.58451,0,0,1-7.65234-8.52246l2.6084-1.48145a24.5989,24.5989,0,0,0,6.83105,7.59375A31.21763,31.21763,0,0,0,82.7583,91.55078Z"/></svg>