<svg xmlns="http://www.w3.org/2000/svg" viewBox="0 0 200 200" id="he!ks" data-name="he!ks"><title>he!ks</title><path d="M143.28027,171.63086c-3.78808-3.58887-19.53711-13.44141-41.5-11.64063-14.05713,1.14747-22.82763,7.626-25.18115,9.584l-3.37793-3.67871.86719-.83692C108.73926,139.22266,123.19531,121.27441,125.667,112.5H75v-5h56.05859V110c0,9.89648-13.47265,26.3457-37.56445,46.22266a55.33606,55.33606,0,0,1,7.87988-1.2168c23.751-1.93359,41.13477,9.00684,45.34571,12.99609Z"/><path d="M127.7373,170.13379l-4.99218-.26758a40.67518,40.67518,0,0,1,3.59375-14.6416,45.82179,45.82179,0,0,1,11.334-15.25586l3.33594,3.72461a40.84039,40.84039,0,0,0-10.11328,13.5918A35.69859,35.69859,0,0,0,127.7373,170.13379Z"/><rect x="90.5" y="15.5" width="43" height="3"/><path d="M124.94434,91.02393l-4.56055-2.04786C131.7002,63.77,136.39355,48.59814,128.79785,40.61768c-4.37109-4.59229-13.41992-5.49463-24.21-2.418-9.92578,2.831-14.08643,11.10009-15.83008,17.54834-.65576,4.05078-1.272,8.61474-1.28027,8.67627L82.5,64.08154a40.59841,40.59841,0,0,1,1.19873-8.36425c.273-1.72217.56152-3.42286.82666-4.75831,1.40967-7.09179,2.52734-14.23828,3.32227-21.24121l4.96777.56446c-.38525,3.39306-.84473,6.81884-1.375,10.25586a25.27825,25.27825,0,0,1,11.77637-7.147c12.79687-3.64941,23.44238-2.27343,29.20215,3.7793C141.96094,47.19531,137.15332,63.83154,124.94434,91.02393Z"/><path d="M95.61328,87.78271a34.21964,34.21964,0,0,1-11.63623-5.5205,27.58394,27.58394,0,0,1-7.65283-8.521l2.6084-1.48242a24.60272,24.60272,0,0,0,6.83154,7.59375,31.231,31.231,0,0,0,10.62256,5.03174Z"/><path d="M81.98486,94.44922a34.21434,34.21434,0,0,1-11.63672-5.51953,27.58451,27.58451,0,0,1-7.65234-8.52246l2.6084-1.48145a24.5989,24.5989,0,0,0,6.83105,7.59375A31.21763,31.21763,0,0,0,82.7583,91.55078Z"/></svg>