<svg data-name="Neliwqiloli itik" xmlns="http://www.w3.org/2000/svg" viewBox="0 0 200 200"><title>h</title><path d="M80.2207,172.49023l-.4414-4.98046c26.05273-2.3086,38.457-1.99512,48.03711-1.51954l7.57031.376c-.0957-4.834-.23731-15.5459.0625-27.18652.1582-6.15235.78808-13.83789,1.585-23.56836l.47363-5.8125,4.98438.40234-.47461,5.81738c-.791,9.65333-1.415,17.27833-1.57031,23.29-.40137,15.57813-.00391,29.47559,0,29.61426l.0791,2.7041-12.958-.64257C118.1543,170.51563,105.95605,170.21,80.2207,172.49023Z"/><path d="M124.94434,91.02393l-4.56055-2.04786C131.7002,63.77,136.39355,48.59814,128.79785,40.61768c-4.37109-4.59229-13.41992-5.49463-24.21-2.418-9.92578,2.831-14.08643,11.10009-15.83008,17.54834-.65576,4.05078-1.272,8.61474-1.28027,8.67627L82.5,64.08154a40.59841,40.59841,0,0,1,1.19873-8.36425c.273-1.72217.56152-3.42286.82666-4.75831,1.40967-7.09179,2.52734-14.23828,3.32227-21.24121l4.96777.56446c-.38525,3.39306-.84473,6.81884-1.375,10.25586a25.27825,25.27825,0,0,1,11.77637-7.147c12.79687-3.64941,23.44238-2.27343,29.20215,3.7793C141.96094,47.19531,137.15332,63.83154,124.94434,91.02393Z"/><path d="M95.61328,87.78271a34.21964,34.21964,0,0,1-11.63623-5.5205,27.58394,27.58394,0,0,1-7.65283-8.521l2.6084-1.48242a24.60272,24.60272,0,0,0,6.83154,7.59375,31.231,31.231,0,0,0,10.62256,5.03174Z"/><path d="M81.98486,94.44922a34.21434,34.21434,0,0,1-11.63672-5.51953,27.58451,27.58451,0,0,1-7.65234-8.52246l2.6084-1.48145a24.5989,24.5989,0,0,0,6.83105,7.59375A31.21763,31.21763,0,0,0,82.7583,91.55078Z"/></svg>