<svg xmlns="http://www.w3.org/2000/svg" viewBox="0 0 200 200"><title>h</title><path d="M126.05664,145.76855l-4.75781-1.5371c12.458-38.541,17.5664-61.8252,8.89648-74.47754-6.80078-9.92432-20.34961-5.919-25.85937-3.73633C93.24121,70.41211,88.68018,83.80811,86.80566,93.92334c-.68505,5.94922-1.30859,12.36475-1.31738,12.45459L80.5,106.12988a79.73949,79.73949,0,0,1,1.41162-13.41455c.251-2.15137.50928-4.22119.74951-5.8999,1.53028-10.69727,2.74317-21.46973,3.605-32.019l4.9834.40722c-.46142,5.65088-1.02295,11.36475-1.6792,17.09717a27.80394,27.80394,0,0,1,12.92383-10.93164c14.00391-5.54639,25.60352-3.52148,31.82617,5.55859C144.21191,81.36377,139.29785,104.80469,126.05664,145.76855Z"/><path d="M74.74561,144.5a16.5,16.5,0,1,1,16.5-16.5A16.519,16.519,0,0,1,74.74561,144.5Zm0-30a13.5,13.5,0,1,0,13.5,13.5A13.51507,13.51507,0,0,0,74.74561,114.5Z"/></svg>