<svg xmlns="http://www.w3.org/2000/svg" viewBox="0 0 200 200" id="hu!" data-name="hu!"><title>hu!</title><rect x="83.34277" y="38.5" width="60" height="3"/><path d="M126.05664,145.76855l-4.75781-1.5371c12.458-38.541,17.5664-61.8252,8.89648-74.47754-6.80078-9.92432-20.34961-5.919-25.85937-3.73633C93.24121,70.41211,88.68018,83.80811,86.80566,93.92334c-.68505,5.94922-1.30859,12.36475-1.31738,12.45459L80.5,106.12988a79.73949,79.73949,0,0,1,1.41162-13.41455c.251-2.15137.50928-4.22119.74951-5.8999,1.53028-10.69727,2.74317-21.46973,3.605-32.019l4.9834.40722c-.46142,5.65088-1.02295,11.36475-1.6792,17.09717a27.80394,27.80394,0,0,1,12.92383-10.93164c14.00391-5.54639,25.60352-3.52148,31.82617,5.55859C144.21191,81.36377,139.29785,104.80469,126.05664,145.76855Z"/><path d="M60.4585,144.5c-.248,0-.4961-.00293-.74561-.00781l.06641-3a26.84018,26.84018,0,0,0,11.86181-2.333,30.29884,30.29884,0,0,0,9.37744-6.77539,14.30163,14.30163,0,0,1-3.771-2.50684c-1.292-1.208-4.3169-4.03711-4.22949-8.42285a10.54464,10.54464,0,0,1,7.65039-9.60547c3.40771-.916,8.10107-.07129,9.74365,2.89063,1.11523,2.01269,1.11475,4.85644-.00293,8.22461a29.5119,29.5119,0,0,1-4.22852,7.88183,14.3377,14.3377,0,0,0,1.42481.166l-.19824,2.99414a17.55421,17.55421,0,0,1-2.99414-.46289c-.0962-.02344-.20948-.05176-.33789-.084a33.66331,33.66331,0,0,1-11.19971,8.43457A29.951,29.951,0,0,1,60.4585,144.5ZM83.396,114.501a7.31064,7.31064,0,0,0-7.37891,7.01367c-.06055,3.04785,2.19531,5.15723,3.2793,6.1709a11.62817,11.62817,0,0,0,3.78174,2.31738,27.39872,27.39872,0,0,0,4.48388-7.9834c.82227-2.47851.9043-4.60156.22608-5.82519C87.21631,115.16211,85.32764,114.501,83.396,114.501Z"/></svg>