<svg data-name="Galilqiloli itik" xmlns="http://www.w3.org/2000/svg" viewBox="0 0 200 200"><title>h</title><path d="M102.00195,172.5c-10.71631,0-20.4414-2.79395-23.87695-6.91211l3.83984-3.20312c1.86231,2.23339,9.6128,5.31347,20.96387,5.10742,15.06641-.24707,31.67188-8.416,34.25586-23.55274a28.579,28.579,0,0,0-10.36914-26.49609c-6.75488-5.32227-16.72949-5.40039-23.89844-4.53613-5.65039.68261-14.69824,5.54785-14.78906,5.59765l-2.37939-4.39746c.4038-.21875,9.97216-5.36621,16.56787-6.16406,8.11621-.97852,19.49121-.81055,27.59277,5.57227a33.70834,33.70834,0,0,1,12.2041,31.26562c-3.043,17.82129-21.97461,27.42969-39.10254,27.71094C102.6748,172.49707,102.33691,172.5,102.00195,172.5Z"/><path d="M139.8457,169.4248a42.78148,42.78148,0,0,1-14.05859-6.31347,32.46477,32.46477,0,0,1-9.31445-9.8252l4.28711-2.57226a27.51555,27.51555,0,0,0,7.90234,8.30664,37.7354,37.7354,0,0,0,12.40234,5.55469Z"/><rect x="90.5" y="15.5" width="43" height="3"/><path d="M124.94434,91.02393l-4.56055-2.04786C131.7002,63.77,136.39355,48.59814,128.79785,40.61768c-4.37109-4.59229-13.41992-5.49463-24.21-2.418-9.92578,2.831-14.08643,11.10009-15.83008,17.54834-.65576,4.05078-1.272,8.61474-1.28027,8.67627L82.5,64.08154a40.59841,40.59841,0,0,1,1.19873-8.36425c.273-1.72217.56152-3.42286.82666-4.75831,1.40967-7.09179,2.52734-14.23828,3.32227-21.24121l4.96777.56446c-.38525,3.39306-.84473,6.81884-1.375,10.25586a25.27825,25.27825,0,0,1,11.77637-7.147c12.79687-3.64941,23.44238-2.27343,29.20215,3.7793C141.96094,47.19531,137.15332,63.83154,124.94434,91.02393Z"/><path d="M64.5249,96.5q-.27831,0-.55859-.00635l.06738-2.999a19.60727,19.60727,0,0,0,8.5249-1.67578,21.64729,21.64729,0,0,0,6.37305-4.48731,10.70049,10.70049,0,0,1-2.37012-1.66308c-.90136-.84278-3.29638-3.082-3.22851-6.47657a8.14751,8.14751,0,0,1,5.90625-7.42334c2.64453-.709,6.30127-.02734,7.59912,2.313.87353,1.57666.8833,3.77295.02734,6.35157a21.4842,21.4842,0,0,1-2.77246,5.34619c.1211.0122.24268.02246.36377.03076l-.19922,2.99316a13.22315,13.22315,0,0,1-2.26416-.35009l-.01709-.0044A25.0031,25.0031,0,0,1,73.793,94.55322,22.36265,22.36265,0,0,1,64.5249,96.5ZM81.36572,74.49463a5.2193,5.2193,0,0,0-1.34814.17139A5.12282,5.12282,0,0,0,76.332,79.25146c-.041,2.05713,1.52539,3.522,2.27832,4.22559a8.0296,8.0296,0,0,0,2.37207,1.50879,19.46658,19.46658,0,0,0,3.03613-5.49756c.56788-1.71142.63916-3.15185.19581-3.95215A3.51336,3.51336,0,0,0,81.36572,74.49463Z"/></svg>