<svg xmlns="http://www.w3.org/2000/svg" viewBox="0 0 200 200" id="huy" data-name="huy"><title>huy</title><path d="M110.09277,172.5h-.17968c-9.14893-.043-16.55079-3.36914-20.85694-9.376-5.50244-7.67871-7.54638-18.44238-6.07519-31.99316a59.15966,59.15966,0,0,1,6.71435-22.35352l4.36133,2.44532a54.74458,54.74458,0,0,0-6.105,20.44824c-1.33447,12.29.40479,21.89258,5.16846,28.54,3.356,4.68164,9.34961,7.26855,16.88281,7.28906,7.53613-.02051,13.53027-2.60742,16.88281-7.28906,4.76367-6.65137,6.50293-16.25391,5.168-28.54a54.82926,54.82926,0,0,0-6.10547-20.44922l4.36328-2.44336a59.27629,59.27629,0,0,1,6.71289,22.35156c1.47168,13.54688-.57128,24.31055-6.07421,31.99317-4.30274,6.00781-11.70411,9.334-20.85743,9.37695Z"/><path d="M124.94434,91.02393l-4.56055-2.04786C131.7002,63.77,136.39355,48.59814,128.79785,40.61768c-4.37109-4.59229-13.41992-5.49463-24.21-2.418-9.92578,2.831-14.08643,11.10009-15.83008,17.54834-.65576,4.05078-1.272,8.61474-1.28027,8.67627L82.5,64.08154a40.59841,40.59841,0,0,1,1.19873-8.36425c.273-1.72217.56152-3.42286.82666-4.75831,1.40967-7.09179,2.52734-14.23828,3.32227-21.24121l4.96777.56446c-.38525,3.39306-.84473,6.81884-1.375,10.25586a25.27825,25.27825,0,0,1,11.77637-7.147c12.79687-3.64941,23.44238-2.27343,29.20215,3.7793C141.96094,47.19531,137.15332,63.83154,124.94434,91.02393Z"/><path d="M64.5249,96.5q-.27831,0-.55859-.00635l.06738-2.999a19.60727,19.60727,0,0,0,8.5249-1.67578,21.64729,21.64729,0,0,0,6.37305-4.48731,10.70049,10.70049,0,0,1-2.37012-1.66308c-.90136-.84278-3.29638-3.082-3.22851-6.47657a8.14751,8.14751,0,0,1,5.90625-7.42334c2.64453-.709,6.30127-.02734,7.59912,2.313.87353,1.57666.8833,3.77295.02734,6.35157a21.4842,21.4842,0,0,1-2.77246,5.34619c.1211.0122.24268.02246.36377.03076l-.19922,2.99316a13.22315,13.22315,0,0,1-2.26416-.35009l-.01709-.0044A25.0031,25.0031,0,0,1,73.793,94.55322,22.36265,22.36265,0,0,1,64.5249,96.5ZM81.36572,74.49463a5.2193,5.2193,0,0,0-1.34814.17139A5.12282,5.12282,0,0,0,76.332,79.25146c-.041,2.05713,1.52539,3.522,2.27832,4.22559a8.0296,8.0296,0,0,0,2.37207,1.50879,19.46658,19.46658,0,0,0,3.03613-5.49756c.56788-1.71142.63916-3.15185.19581-3.95215A3.51336,3.51336,0,0,0,81.36572,74.49463Z"/></svg>