<svg xmlns="http://www.w3.org/2000/svg" viewBox="0 0 200 200" id="i!s" data-name="i!s"><title>i!s</title><path d="M143.27832,171.8125c-3.79-3.60059-19.54394-13.46875-41.49707-11.67773-14.05713,1.15234-22.82617,7.64941-25.1792,9.61328l-3.38379-3.67285.58252-.5918,52.92285-57.18164,3.66992,3.39648L87.3833,158.168a54.31184,54.31184,0,0,1,13.98975-3.01563c23.76465-1.95117,41.13769,9.03418,45.34863,13.03516Z"/><path d="M120.96875,91.97607c-10.22168-7.92089-17.55273-16.61035-21.79-25.82666a43.59155,43.59155,0,0,1-.00488-37.18261l4.55273,2.0664a38.22975,38.22975,0,0,0-.0039,33.02881c3.89648,8.47656,10.72949,16.53906,20.30859,23.96192Z"/><rect x="85.5" y="15.5" width="47" height="3"/></svg>