<svg xmlns="http://www.w3.org/2000/svg" viewBox="0 0 200 200" id="itl" data-name="itl"><title>itl</title><path d="M120.96875,91.97607c-10.22168-7.92089-17.55273-16.61035-21.79-25.82666a43.59155,43.59155,0,0,1-.00488-37.18261l4.55273,2.0664a38.22975,38.22975,0,0,0-.0039,33.02881c3.89648,8.47656,10.72949,16.53906,20.30859,23.96192Z"/><path d="M92.958,172.44922c-5.73633.001-11.27051-1.72949-14.105-6.55859-3.07373-5.24415-2.67188-14.02735.895-19.58106a15.74466,15.74466,0,0,1,8.68408-6.43945l.18945-.06543c7.04834-2.39942,18.36475-2.03906,35.39893,9.06543A79.44287,79.44287,0,0,0,140.22852,112.5H75v-5h70.44629V110c0,4.57129-3.44727,24.59863-17.25,41.72949A170.24583,170.24583,0,0,1,145.4834,166.1377c.54785.51562.93652.88281,1.14844,1.06445l-3.26368,3.78906c-.24023-.208-.68554-.624-1.30957-1.21094a163.82881,163.82881,0,0,0-17.14746-14.251,67.22585,67.22585,0,0,1-16.97265,13.28027A33.26877,33.26877,0,0,1,92.958,172.44922Zm3.21533-28.8252a18.30577,18.30577,0,0,0-5.92725.90918l-.1958.06739a10.95842,10.95842,0,0,0-6.09472,4.41015c-2.563,3.99024-2.93164,10.69531-.78955,14.34961,3.561,6.07031,15.81982,4.66211,22.36523,1.06641a61.7204,61.7204,0,0,0,15.15625-11.75391C109.67871,145.61523,101.68652,143.624,96.17334,143.624Z"/></svg>