<svg data-name="Galilqiloli itik" xmlns="http://www.w3.org/2000/svg" viewBox="0 0 200 200"><title>j</title><path d="M102.00195,172.5c-10.71631,0-20.4414-2.79395-23.87695-6.91211l3.83984-3.20312c1.86231,2.23339,9.6128,5.31347,20.96387,5.10742,15.06641-.24707,31.67188-8.416,34.25586-23.55274a28.579,28.579,0,0,0-10.36914-26.49609c-6.75488-5.32227-16.72949-5.40039-23.89844-4.53613-5.65039.68261-14.69824,5.54785-14.78906,5.59765l-2.37939-4.39746c.4038-.21875,9.97216-5.36621,16.56787-6.16406,8.11621-.97852,19.49121-.81055,27.59277,5.57227a33.70834,33.70834,0,0,1,12.2041,31.26562c-3.043,17.82129-21.97461,27.42969-39.10254,27.71094C102.6748,172.49707,102.33691,172.5,102.00195,172.5Z"/><path d="M139.8457,169.4248a42.78148,42.78148,0,0,1-14.05859-6.31347,32.46477,32.46477,0,0,1-9.31445-9.8252l4.28711-2.57226a27.51555,27.51555,0,0,0,7.90234,8.30664,37.7354,37.7354,0,0,0,12.40234,5.55469Z"/><path d="M108.6416,92.5l-.17969-.00049c-9.14062-.043-16.53711-3.36963-20.83984-9.37744-5.49609-7.67676-7.5376-18.44043-6.06836-31.9917a59.19978,59.19978,0,0,1,6.70752-22.35254l4.36231,2.44434a54.7859,54.7859,0,0,0-6.09913,20.44775c-1.33252,12.29151.4043,21.89453,5.16309,28.54151,3.353,4.68115,9.33984,7.26806,16.86426,7.28857,7.52832-.02051,13.51562-2.60693,16.86426-7.28809,4.75878-6.65136,6.49609-16.25439,5.16308-28.54248a54.87,54.87,0,0,0-6.09961-20.44873l4.36328-2.4414a59.284,59.284,0,0,1,6.707,22.35009c1.46973,13.54786-.57128,24.311-6.06738,31.9917-4.29883,6.00879-11.69531,9.33545-20.84082,9.37842Z"/><path d="M144.24414,76.36475a74.84041,74.84041,0,0,1-18.71-4.93457,62.70621,62.70621,0,0,1-7.53516-3.72461l2.51758-4.31934a57.60735,57.60735,0,0,0,6.93164,3.42481,69.79779,69.79779,0,0,0,17.46,4.59765Z"/></svg>