<svg data-name="Khamalqiloli itik" xmlns="http://www.w3.org/2000/svg" viewBox="0 0 200 200"><title>j</title><path d="M122.55273,171.02441l-4.56054-2.04882c11.32617-25.20508,16.02246-40.377,8.4209-48.35743-4.373-4.59179-13.4336-5.49609-24.23438-2.418-9.93555,2.83105-14.1001,11.10156-15.84521,17.5498-.65625,4.0498-1.27295,8.61328-1.28125,8.6748l-4.97754-.34375a40.58848,40.58848,0,0,1,1.19922-8.36328c.27343-1.72265.562-3.42382.82763-4.75879,1.4126-7.10351,2.53125-14.25,3.3252-21.24121l4.96777.56446c-.38476,3.3916-.84521,6.82031-1.37646,10.26074a25.30168,25.30168,0,0,1,11.79-7.15137c12.8081-3.65039,23.4624-2.27246,29.22509,3.77735C139.584,127.19531,134.77246,143.832,122.55273,171.02441Z"/><path d="M142.26953,156.36816a87.16265,87.16265,0,0,1-20.31738-4.91113,70.62041,70.62041,0,0,1-8.18555-3.70605l2.35742-4.41016a65.51473,65.51473,0,0,0,7.60352,3.44238,82.17546,82.17546,0,0,0,19.15137,4.62207Z"/><rect x="85.5" y="15.5" width="47" height="3"/><path d="M108.6416,92.5l-.17969-.00049c-9.14062-.043-16.53711-3.36963-20.83984-9.37744-5.49609-7.67676-7.5376-18.44043-6.06836-31.9917a59.19978,59.19978,0,0,1,6.70752-22.35254l4.36231,2.44434a54.7859,54.7859,0,0,0-6.09913,20.44775c-1.33252,12.29151.4043,21.89453,5.16309,28.54151,3.353,4.68115,9.33984,7.26806,16.86426,7.28857,7.52832-.02051,13.51562-2.60693,16.86426-7.28809,4.75878-6.65136,6.49609-16.25439,5.16308-28.54248a54.87,54.87,0,0,0-6.09961-20.44873l4.36328-2.4414a59.284,59.284,0,0,1,6.707,22.35009c1.46973,13.54786-.57128,24.311-6.06738,31.9917-4.29883,6.00879-11.69531,9.33545-20.84082,9.37842Z"/><path d="M144.24414,76.36475a74.84041,74.84041,0,0,1-18.71-4.93457,62.70621,62.70621,0,0,1-7.53516-3.72461l2.51758-4.31934a57.60735,57.60735,0,0,0,6.93164,3.42481,69.79779,69.79779,0,0,0,17.46,4.59765Z"/><path d="M75.61328,54.78271a34.21964,34.21964,0,0,1-11.63623-5.5205,27.58394,27.58394,0,0,1-7.65283-8.521l2.6084-1.48242a24.60272,24.60272,0,0,0,6.83154,7.59375,31.231,31.231,0,0,0,10.62256,5.03174Z"/><path d="M61.98486,61.44922a34.21434,34.21434,0,0,1-11.63672-5.51953,27.58451,27.58451,0,0,1-7.65234-8.52246l2.6084-1.48145a24.5989,24.5989,0,0,0,6.831,7.59375,31.21763,31.21763,0,0,0,10.623,5.03125Z"/></svg>