<svg data-name="Nyonilqiloli itik" xmlns="http://www.w3.org/2000/svg" viewBox="0 0 200 200"><title>j</title><path d="M80.84033,172.49121l-.42578-4.98242c27.01025-2.30762,39.86572-1.99219,49.79053-1.51856l7.9541.37989c-.09961-4.833-.24707-15.54785.06445-27.19239.165-6.16015.81836-13.85742,1.64551-23.60156l.48926-5.78515,4.98242.418-.48926,5.79c-.82031,9.66407-1.46875,17.29688-1.62988,23.31153-.417,15.584-.00488,29.4707,0,29.60937l.082,2.70215-13.33691-.63769C120.19922,170.5166,107.542,170.21,80.84033,172.49121Z"/><path d="M154.72949,159.03516a93.70135,93.70135,0,0,1-21.12011-4.89942,75.16806,75.16806,0,0,1-8.50684-3.69824l2.28125-4.44922a70.21874,70.21874,0,0,0,7.93848,3.4502,88.78544,88.78544,0,0,0,19.99121,4.63183Z"/><rect x="85.5" y="15.5" width="47" height="3"/><path d="M108.6416,92.5l-.17969-.00049c-9.14062-.043-16.53711-3.36963-20.83984-9.37744-5.49609-7.67676-7.5376-18.44043-6.06836-31.9917a59.19978,59.19978,0,0,1,6.70752-22.35254l4.36231,2.44434a54.7859,54.7859,0,0,0-6.09913,20.44775c-1.33252,12.29151.4043,21.89453,5.16309,28.54151,3.353,4.68115,9.33984,7.26806,16.86426,7.28857,7.52832-.02051,13.51562-2.60693,16.86426-7.28809,4.75878-6.65136,6.49609-16.25439,5.16308-28.54248a54.87,54.87,0,0,0-6.09961-20.44873l4.36328-2.4414a59.284,59.284,0,0,1,6.707,22.35009c1.46973,13.54786-.57128,24.311-6.06738,31.9917-4.29883,6.00879-11.69531,9.33545-20.84082,9.37842Z"/><path d="M144.24414,76.36475a74.84041,74.84041,0,0,1-18.71-4.93457,62.70621,62.70621,0,0,1-7.53516-3.72461l2.51758-4.31934a57.60735,57.60735,0,0,0,6.93164,3.42481,69.79779,69.79779,0,0,0,17.46,4.59765Z"/><path d="M44.5249,63.5q-.27831,0-.55859-.00635l.06738-2.999a19.52726,19.52726,0,0,0,8.5249-1.67578,21.64729,21.64729,0,0,0,6.373-4.48731,10.70049,10.70049,0,0,1-2.37012-1.66308c-.90136-.84278-3.29638-3.082-3.22851-6.47657a8.14751,8.14751,0,0,1,5.90625-7.42334c2.645-.708,6.30224-.02783,7.59912,2.313.87353,1.57666.8833,3.773.02734,6.35157a21.49515,21.49515,0,0,1-2.772,5.3457q.18164.019.36475.03125l-.20215,2.99316a13.288,13.288,0,0,1-2.2627-.35009l-.01709-.0044A25.0031,25.0031,0,0,1,53.793,61.55322,22.36265,22.36265,0,0,1,44.5249,63.5ZM61.36572,41.49463a5.2193,5.2193,0,0,0-1.34814.17139A5.12282,5.12282,0,0,0,56.332,46.25146c-.041,2.05713,1.52539,3.522,2.27832,4.22559a8.0296,8.0296,0,0,0,2.37207,1.50879,19.46658,19.46658,0,0,0,3.03613-5.49756c.56788-1.71142.63916-3.15185.19581-3.95215A3.51336,3.51336,0,0,0,61.36572,41.49463Z"/></svg>