<svg xmlns="http://www.w3.org/2000/svg" viewBox="0 0 200 200" id="jo!y" data-name="jo!y"><title>jo!y</title><path d="M110.09277,172.5h-.17968c-9.14893-.043-16.55079-3.36914-20.85694-9.376-5.50244-7.67871-7.54638-18.44238-6.07519-31.99316a59.15966,59.15966,0,0,1,6.71435-22.35352l4.36133,2.44532a54.74458,54.74458,0,0,0-6.105,20.44824c-1.33447,12.29.40479,21.89258,5.16846,28.54,3.356,4.68164,9.34961,7.26855,16.88281,7.28906,7.53613-.02051,13.53027-2.60742,16.88281-7.28906,4.76367-6.65137,6.50293-16.25391,5.168-28.54a54.82926,54.82926,0,0,0-6.10547-20.44922l4.36328-2.44336a59.27629,59.27629,0,0,1,6.71289,22.35156c1.47168,13.54688-.57128,24.31055-6.07421,31.99317-4.30274,6.00781-11.70411,9.334-20.85743,9.37695Z"/><rect x="85.5" y="15.5" width="47" height="3"/><path d="M108.6416,92.5l-.17969-.00049c-9.14062-.043-16.53711-3.36963-20.83984-9.37744-5.49609-7.67676-7.5376-18.44043-6.06836-31.9917a59.19978,59.19978,0,0,1,6.70752-22.35254l4.36231,2.44434a54.7859,54.7859,0,0,0-6.09913,20.44775c-1.33252,12.29151.4043,21.89453,5.16309,28.54151,3.353,4.68115,9.33984,7.26806,16.86426,7.28857,7.52832-.02051,13.51562-2.60693,16.86426-7.28809,4.75878-6.65136,6.49609-16.25439,5.16308-28.54248a54.87,54.87,0,0,0-6.09961-20.44873l4.36328-2.4414a59.284,59.284,0,0,1,6.707,22.35009c1.46973,13.54786-.57128,24.311-6.06738,31.9917-4.29883,6.00879-11.69531,9.33545-20.84082,9.37842Z"/><path d="M144.24414,76.36475a74.84041,74.84041,0,0,1-18.71-4.93457,62.70621,62.70621,0,0,1-7.53516-3.72461l2.51758-4.31934a57.60735,57.60735,0,0,0,6.93164,3.42481,69.79779,69.79779,0,0,0,17.46,4.59765Z"/><path d="M55,63.5A12.5,12.5,0,1,1,67.5,51,12.51408,12.51408,0,0,1,55,63.5Zm0-22A9.5,9.5,0,1,0,64.5,51,9.51081,9.51081,0,0,0,55,41.5Z"/></svg>