<svg xmlns="http://www.w3.org/2000/svg" viewBox="0 0 200 200" id="jo!z&apos;" data-name="jo!z&apos;"><title>jo!z'</title><path d="M143.28027,171.63086c-3.78808-3.58887-19.53711-13.44141-41.5-11.64063-14.05713,1.14747-22.82763,7.626-25.18115,9.584l-3.37793-3.67871.58252-.58985,52.92285-57.00683,3.66407,3.40234L87.40088,158.00684a54.48543,54.48543,0,0,1,13.97314-3.001c23.751-1.93359,41.13477,9.00684,45.34571,12.99609Z"/><path d="M119.959,170.13379l-4.99218-.26758a40.71655,40.71655,0,0,1,3.59375-14.6416,45.84182,45.84182,0,0,1,11.334-15.25586l3.33594,3.72461a40.86708,40.86708,0,0,0-10.11426,13.5918A35.74865,35.74865,0,0,0,119.959,170.13379Z"/><rect x="85.5" y="15.5" width="47" height="3"/><path d="M108.6416,92.5l-.17969-.00049c-9.14062-.043-16.53711-3.36963-20.83984-9.37744-5.49609-7.67676-7.5376-18.44043-6.06836-31.9917a59.19978,59.19978,0,0,1,6.70752-22.35254l4.36231,2.44434a54.7859,54.7859,0,0,0-6.09913,20.44775c-1.33252,12.29151.4043,21.89453,5.16309,28.54151,3.353,4.68115,9.33984,7.26806,16.86426,7.28857,7.52832-.02051,13.51562-2.60693,16.86426-7.28809,4.75878-6.65136,6.49609-16.25439,5.16308-28.54248a54.87,54.87,0,0,0-6.09961-20.44873l4.36328-2.4414a59.284,59.284,0,0,1,6.707,22.35009c1.46973,13.54786-.57128,24.311-6.06738,31.9917-4.29883,6.00879-11.69531,9.33545-20.84082,9.37842Z"/><path d="M144.24414,76.36475a74.84041,74.84041,0,0,1-18.71-4.93457,62.70621,62.70621,0,0,1-7.53516-3.72461l2.51758-4.31934a57.60735,57.60735,0,0,0,6.93164,3.42481,69.79779,69.79779,0,0,0,17.46,4.59765Z"/><path d="M55,63.5A12.5,12.5,0,1,1,67.5,51,12.51408,12.51408,0,0,1,55,63.5Zm0-22A9.5,9.5,0,1,0,64.5,51,9.51081,9.51081,0,0,0,55,41.5Z"/></svg>