<svg xmlns="http://www.w3.org/2000/svg" viewBox="0 0 200 200" id="j~" data-name="j~"><title>j~</title><path d="M110.13379,147.5l-.26172-.001c-12.98877-.06347-23.4707-4.876-29.53564-13.56836-7.84766-11.251-10.75586-27.0957-8.64356-47.09326,1.75586-16.5791,6.79981-27.814,9.65039-33.03515l4.38867,2.3955c-2.15088,3.94043-7.34033,14.86475-9.0664,31.16553-1.98242,18.76563.63232,33.47168,7.77148,43.70606,5.123,7.34277,14.19971,11.39941,25.56592,11.43066,11.37109-.03125,20.44727-4.08789,25.56543-11.42969,7.13965-10.24218,9.75488-24.94726,7.77148-43.70752-1.72461-16.28222-6.915-27.21924-9.06738-31.166l4.39063-2.39356c2.85058,5.229,7.89453,16.47412,9.64941,33.03369,2.11328,19.99122-.79492,35.835-8.64258,47.09278-6.05859,8.69238-16.541,13.50586-29.53613,13.56933Z"/><path d="M162.30957,123.30664a105.95361,105.95361,0,0,1-27.06738-7.32519,89.48742,89.48742,0,0,1-10.876-5.51661l2.56641-4.291a84.38335,84.38335,0,0,0,10.2666,5.20605,100.97912,100.97912,0,0,0,25.79,6.97364Z"/><polygon points="55.937 98.5 24.437 98.5 24.437 67 27.437 67 27.437 95.5 55.937 95.5 55.937 98.5"/></svg>