<svg data-name="Yololqiloli itik" xmlns="http://www.w3.org/2000/svg" viewBox="0 0 200 200"><title>k</title><path d="M110.09277,172.5h-.17968c-9.14893-.043-16.55079-3.36914-20.85694-9.376-5.50244-7.67871-7.54638-18.44238-6.07519-31.99316a59.15966,59.15966,0,0,1,6.71435-22.35352l4.36133,2.44532a54.74458,54.74458,0,0,0-6.105,20.44824c-1.33447,12.29.40479,21.89258,5.16846,28.54,3.356,4.68164,9.34961,7.26855,16.88281,7.28906,7.53613-.02051,13.53027-2.60742,16.88281-7.28906,4.76367-6.65137,6.50293-16.25391,5.168-28.54a54.82926,54.82926,0,0,0-6.10547-20.44922l4.36328-2.44336a59.27629,59.27629,0,0,1,6.71289,22.35156c1.47168,13.54688-.57128,24.31055-6.07421,31.99317-4.30274,6.00781-11.70411,9.334-20.85743,9.37695Z"/><path d="M101.95508,92.49951c-10.71533,0-20.43994-2.79394-23.875-6.91162l3.83984-3.20312c1.86279,2.23291,9.605,5.2788,20.96387,5.10742,15.06738-.24707,31.67285-8.41651,34.25684-23.55274a28.579,28.579,0,0,0-10.36915-26.49609c-6.75488-5.32178-16.72656-5.40381-23.89941-4.53613-4.69824.56836-12.26807,4.23291-14.78857,5.59716l-2.37989-4.39746c.4043-.21875,9.97266-5.36572,16.56885-6.16357,8.11328-.9834,19.49024-.81055,27.59277,5.57227a33.70658,33.70658,0,0,1,12.20411,31.26513c-3.043,17.82129-21.97461,27.42969-39.10352,27.71045Q102.459,92.5,101.95508,92.49951Z"/><path d="M75,63.5A12.5,12.5,0,1,1,87.5,51,12.51408,12.51408,0,0,1,75,63.5Zm0-22A9.5,9.5,0,1,0,84.5,51,9.51081,9.51081,0,0,0,75,41.5Z"/></svg>