<svg id="Kaxtli_3vb" data-name="Kaxtli 3vb" xmlns="http://www.w3.org/2000/svg" viewBox="0 0 200 200"><title>00184-kaxtli3vb</title><path d="M102.53124,117.5H97.38769l.10547-2.61914c.01367-.29785.01269-.63672.01172-1.00586,0-.38379-.001-.80273.01074-1.24805a7.30258,7.30258,0,0,0-1.23047-4.24316c-4.50879-6.05957-20.58008-4.27637-33.49512-2.84082-13.14258,1.459-22.63574,2.51172-25.01806-2.85352a4.852,4.852,0,0,1-.25489-2.46142c.01026-.47949.02491-1.14551.04053-2.08008.07422-4.44287.07422-8.852,0-13.10449l4.999-.08692c.0752,4.30909.0752,8.77539,0,13.27491-.01562.9458-.03027,1.61962-.041,2.105-.00391.19287-.00781.35107-.01074.48193.38525.28711,1.60986.86328,5.24609.89746a134.7644,134.7644,0,0,0,14.4873-1.14258C76.92968,98.94043,93.55077,97.09375,100,105.01855c6.44922-7.92285,23.07129-6.07714,37.76172-4.44531a135.23288,135.23288,0,0,0,14.48731,1.14258c3.63672-.03418,4.86133-.61035,5.24609-.89648-.00293-.12842-.00586-.28272-.01074-.47022-.00977-.48633-.02442-1.16357-.041-2.11767-.07519-4.50831-.07519-8.9751,0-13.2754l5,.0879c-.07519,4.24316-.07519,8.65234,0,13.104.01563.94287.03028,1.6123.04,2.09277a4.81829,4.81829,0,0,1-.25586,2.45069c-2.38281,5.36425-11.876,4.31054-25.01758,2.85156-12.91308-1.43457-28.98535-3.21973-33.49511,2.84082a7.39633,7.39633,0,0,0-1.19727,4.27539c.01367.55957.00586,1.07324-.001,1.52344-.00489.2832-.00879.5498-.00684.7959Z"/></svg>