<svg id="Kaxtli_3va" data-name="Kaxtli 3va" xmlns="http://www.w3.org/2000/svg" viewBox="0 0 200 200"><title>00183-kaxtli3va</title><path d="M157.44335,115.044c-.07519-4.30079-.07519-8.76661,0-13.2754.0166-.95361.03125-1.63134.041-2.11718.00488-.18848.00781-.34326.01074-.47168-.38379-.28516-1.6084-.86084-5.24512-.896a134.2141,134.2141,0,0,0-14.4873,1.14307c-14.69043,1.62988-31.3125,3.47851-37.7627-4.44531-6.44922,7.92382-23.07129,6.07714-37.76318,4.44531a136.83315,136.83315,0,0,0-14.48633-1.14307c-3.63672.03467-4.86084.61084-5.2456.897.00293.13086.00683.28955.01074.48291.01074.48536.02539,1.15918.041,2.105.0752,4.499.0752,8.96583,0,13.2754l-4.999-.0879c.07422-4.252.07422-8.66113,0-13.10351-.01562-.93457-.03027-1.60108-.04053-2.08057a4.85593,4.85593,0,0,1,.2544-2.45947c2.3833-5.36963,11.87793-4.31543,25.01758-2.85547,12.91406,1.43457,28.9873,3.21973,33.49609-2.84131a7.30358,7.30358,0,0,0,1.23047-4.24316c-.01172-.44483-.01074-.86328-.01074-1.24756.001-.36963.00195-.7085-.01172-1.00635L97.36816,82.5h5.14355l-.00195,2.522c-.00195.24561.00195.51221.00684.7959.00683.44971.01464.96338.001,1.52295a7.39278,7.39278,0,0,0,1.19727,4.2749c4.50879,6.06006,20.58105,4.27539,33.49609,2.84131,13.1377-1.459,22.63281-2.51416,25.01758,2.853a4.83039,4.83039,0,0,1,.25488,2.44922c-.00976.48047-.02441,1.1499-.04,2.09326-.07519,4.45117-.07519,8.86035,0,13.10351Z"/></svg>