<svg id="Kaxtli_3ha" data-name="Kaxtli 3ha" xmlns="http://www.w3.org/2000/svg" viewBox="0 0 200 200"><title>00181-kaxtli3ha</title><path d="M101.17089,162.49805c-.25195,0-.55371-.00586-.92969-.01465-.48144-.00977-1.15039-.02442-2.09375-.04-4.45019-.0752-8.85888-.0752-13.10351,0l-.08789-5c4.29931-.07422,8.76562-.07422,13.27539,0,.9541.0166,1.63086.03125,2.11719.041.1875.00488.34179.00781.46972.01074.28711-.38574.86328-1.61035.89746-5.2461a135.48139,135.48139,0,0,0-1.14257-14.4873C98.9414,123.07031,97.0957,106.44824,105.01855,100c-7.92285-6.44873-6.07715-23.07031-4.44531-37.76172a135.4812,135.4812,0,0,0,1.14257-14.4873c-.03418-3.63721-.61035-4.86182-.89648-5.2461-.13086.00293-.29.00684-.4834.01075-.48535.01074-1.15918.02539-2.10449.041-4.5.0752-8.96729.07422-13.2749,0l.08691-4.999c4.25293.07422,8.66162.07422,13.104,0,.93457-.01563,1.60059-.03028,2.08106-.04053a4.8657,4.8657,0,0,1,2.46289.25586c5.36621,2.38184,4.31152,11.87646,2.85156,25.01709-1.43457,12.91406-3.21972,28.98535,2.84082,33.49463a7.308,7.308,0,0,0,4.252,1.23047c.44043-.01123.85644-.01172,1.2373-.00977.36523,0,.708.00147,1.00781-.01221L117.5,97.36768v5.145l-2.52246-.00293c-.249-.00586-.51367.00195-.79785.00683-.44629.00684-.957.01465-1.51269.001a7.39668,7.39668,0,0,0-4.28321,1.19726c-6.06054,4.50977-4.27539,20.58106-2.84082,33.49512,1.46,13.14063,2.51465,22.63477-2.85351,25.01856A3.15614,3.15614,0,0,1,101.17089,162.49805Z"/></svg>