<svg id="Kaxtli_3hb" data-name="Kaxtli 3hb" xmlns="http://www.w3.org/2000/svg" viewBox="0 0 200 200"><title>00182-kaxtli3hb</title><path d="M98.83007,162.49805a3.15859,3.15859,0,0,1-1.52148-.27051C91.94335,159.84473,92.998,150.35059,94.457,137.21c1.43458-12.91406,3.21973-28.98535-2.84082-33.49512a7.39763,7.39763,0,0,0-4.2832-1.19726c-.55762.01269-1.0664.00586-1.51269-.001-.28418-.00488-.54932-.01172-.79786-.00683L82.5,102.53223v-5.145l2.61963.106c.29785.01465.6377.01075,1.00733.01221.38379,0,.79687-.001,1.23779.00977a7.30748,7.30748,0,0,0,4.25146-1.23047c6.06055-4.50928,4.2754-20.58106,2.84082-33.49512C92.998,49.64941,91.94335,40.15479,97.31054,37.772a4.827,4.827,0,0,1,2.46094-.25488c.48047.01025,1.14648.0249,2.08105.04053,4.44336.0747,8.85157.0747,13.10352,0l.08789,4.999c-4.31055.0752-8.77539.0752-13.27539,0-.94531-.01562-1.61914-.03027-2.10449-.041-.19336-.00391-.35157-.00782-.48243-.01075-.28711.38526-.8623,1.61035-.89746,5.2461a135.483,135.483,0,0,0,1.14258,14.48681C101.05859,76.9292,102.90429,93.55127,94.98144,100c7.92285,6.44922,6.07715,23.07031,4.44531,37.76172a135.50054,135.50054,0,0,0-1.14258,14.4873c.03516,3.63672.61035,4.86133.89649,5.2461.12793-.00293.2832-.00586.4707-.01074.48633-.00977,1.16309-.02442,2.11719-.041,4.50976-.07422,8.97656-.07422,13.27539,0l-.08789,5c-4.24219-.07617-8.65235-.07617-13.10352,0-.94336.01562-1.6123.03027-2.09375.04C99.38378,162.49219,99.082,162.49805,98.83007,162.49805Z"/></svg>