<svg data-name="Pokalqiloli itik" xmlns="http://www.w3.org/2000/svg" viewBox="0 0 200 200"><title>kh</title><path d="M99.06543,172.50586a125.03756,125.03756,0,0,1-14.353-.85449l.5752-4.9668c24.78662,2.86914,43.00928-2.30664,46.3042-8.9707.37695-.75977,2.11523-4.71875-.55274-8.19532-4.5039-5.86914-10.05566-11.35546-20.08593-11.76953-.57618.00782-5.249.08985-6.1709.10645l-.60157.08691-.71484-4.94922.40234-.05761,5.00684-2.28614c16.2373-8.97753,18.63477-13.709,18.35645-14.40039-.01172-.02734-1.4502-2.85644-18.31348-3.585-9.61426-.417-19.03613.08106-20.03858.167l-.4248-4.98242c1.10449-.09375,10.72949-.61816,20.78369-.17578,17.9834.78906,21.541,4,22.63184,6.709,1.23633,3.07226.67383,8.30273-17.18067,18.71679,10.03809,1.57715,16.08887,7.86719,20.31641,13.375a12.75036,12.75036,0,0,1,1.06738,13.458C132.16211,167.83984,117.74707,172.50586,99.06543,172.50586Z"/><path d="M122.55273,91.0249l-4.56054-2.0498c11.32617-25.20508,16.02246-40.37647,8.4209-48.35694-4.376-4.59228-13.43555-5.49609-24.23438-2.41845C92.084,41.07617,87.9458,49.74365,86.25049,56.26611c-.62451,3.91211-1.19043,8.09961-1.19824,8.15869l-4.97754-.34326a40.56416,40.56416,0,0,1,1.1997-8.36425c.27295-1.72266.56153-3.42286.82715-4.75879,1.4126-7.10108,2.53125-14.24707,3.3252-21.24073l4.96777.56446c-.38476,3.39209-.84521,6.81982-1.37646,10.26074a25.29835,25.29835,0,0,1,11.79-7.15186c12.8081-3.65136,23.45947-2.27343,29.22607,3.77881C139.584,47.19531,134.77246,63.83154,122.55273,91.0249Z"/><path d="M142.26953,76.36816a87.21214,87.21214,0,0,1-20.31738-4.91064,70.7358,70.7358,0,0,1-8.18457-3.70654l2.35547-4.41016a65.73184,65.73184,0,0,0,7.60449,3.44287,82.22505,82.22505,0,0,0,19.15137,4.62158Z"/><path d="M64.5249,96.5q-.27831,0-.55859-.00635l.06738-2.999a19.60727,19.60727,0,0,0,8.5249-1.67578,21.64729,21.64729,0,0,0,6.37305-4.48731,10.70049,10.70049,0,0,1-2.37012-1.66308c-.90136-.84278-3.29638-3.082-3.22851-6.47657a8.14751,8.14751,0,0,1,5.90625-7.42334c2.64453-.709,6.30127-.02734,7.59912,2.313.87353,1.57666.8833,3.77295.02734,6.35157a21.4842,21.4842,0,0,1-2.77246,5.34619c.1211.0122.24268.02246.36377.03076l-.19922,2.99316a13.22315,13.22315,0,0,1-2.26416-.35009l-.01709-.0044A25.0031,25.0031,0,0,1,73.793,94.55322,22.36265,22.36265,0,0,1,64.5249,96.5ZM81.36572,74.49463a5.2193,5.2193,0,0,0-1.34814.17139A5.12282,5.12282,0,0,0,76.332,79.25146c-.041,2.05713,1.52539,3.522,2.27832,4.22559a8.0296,8.0296,0,0,0,2.37207,1.50879,19.46658,19.46658,0,0,0,3.03613-5.49756c.56788-1.71142.63916-3.15185.19581-3.95215A3.51336,3.51336,0,0,0,81.36572,74.49463Z"/></svg>