<svg data-name="Weyakqiloli 3" xmlns="http://www.w3.org/2000/svg" viewBox="0 0 200 200"><title>kh</title><rect x="83.34277" y="38.5" width="60" height="3"/><path d="M123.30957,145.77344l-4.75391-1.54688c12.53516-38.53711,17.67481-61.81787,8.95215-74.46631-6.85058-9.937-20.499-5.92578-26.0498-3.74072-11.19873,4.40869-15.78418,17.9126-17.66065,28.04639-.68261,5.9082-1.30029,12.2251-1.30908,12.314l-4.98828-.25A79.27786,79.27786,0,0,1,78.9209,92.708c.25244-2.14893.51221-4.21729.75342-5.89453,1.54-10.69727,2.76074-21.46973,3.62793-32.01856l4.98339.41016c-.46582,5.6665-1.03271,11.397-1.69531,17.14551a27.95358,27.95358,0,0,1,13.03662-10.9834c14.0791-5.54346,25.74121-3.51856,31.99805,5.55469C141.58105,81.36084,136.63672,104.80469,123.30957,145.77344Z"/><path d="M144.73145,123.29492a74.30506,74.30506,0,0,1-22.17188-7.40039,69.02494,69.02494,0,0,1-8.89453-5.56348l2.96875-4.02343a64.0939,64.0939,0,0,0,8.248,5.15918,69.338,69.338,0,0,0,20.68554,6.89843Z"/><path d="M60.4585,144.5c-.248,0-.4961-.00293-.74561-.00781l.06641-3a26.84018,26.84018,0,0,0,11.86181-2.333,30.29884,30.29884,0,0,0,9.37744-6.77539,14.30163,14.30163,0,0,1-3.771-2.50684c-1.292-1.208-4.3169-4.03711-4.22949-8.42285a10.54464,10.54464,0,0,1,7.65039-9.60547c3.40771-.916,8.10107-.07129,9.74365,2.89063,1.11523,2.01269,1.11475,4.85644-.00293,8.22461a29.5119,29.5119,0,0,1-4.22852,7.88183,14.3377,14.3377,0,0,0,1.42481.166l-.19824,2.99414a17.55421,17.55421,0,0,1-2.99414-.46289c-.0962-.02344-.20948-.05176-.33789-.084a33.66331,33.66331,0,0,1-11.19971,8.43457A29.951,29.951,0,0,1,60.4585,144.5ZM83.396,114.501a7.31064,7.31064,0,0,0-7.37891,7.01367c-.06055,3.04785,2.19531,5.15723,3.2793,6.1709a11.62817,11.62817,0,0,0,3.78174,2.31738,27.39872,27.39872,0,0,0,4.48388-7.9834c.82227-2.47851.9043-4.60156.22608-5.82519C87.21631,115.16211,85.32764,114.501,83.396,114.501Z"/></svg>