<svg data-name="Hekalqilotontli 2a" xmlns="http://www.w3.org/2000/svg" viewBox="0 0 200 200"><title>kh</title><polygon points="47.923 85 44.923 85 44.923 53.5 76.423 53.5 76.423 56.5 47.923 56.5 47.923 85"/><rect x="83.34277" y="38.5" width="60" height="3"/><path d="M123.30957,145.77344l-4.75391-1.54688c12.53516-38.53711,17.67481-61.81787,8.95215-74.46631-6.85058-9.937-20.499-5.92578-26.0498-3.74072-11.19873,4.40869-15.78418,17.9126-17.66065,28.04639-.68261,5.9082-1.30029,12.2251-1.30908,12.314l-4.98828-.25A79.27786,79.27786,0,0,1,78.9209,92.708c.25244-2.14893.51221-4.21729.75342-5.89453,1.54-10.69727,2.76074-21.46973,3.62793-32.01856l4.98339.41016c-.46582,5.6665-1.03271,11.397-1.69531,17.14551a27.95358,27.95358,0,0,1,13.03662-10.9834c14.0791-5.54346,25.74121-3.51856,31.99805,5.55469C141.58105,81.36084,136.63672,104.80469,123.30957,145.77344Z"/><path d="M144.73145,123.29492a74.30506,74.30506,0,0,1-22.17188-7.40039,69.02494,69.02494,0,0,1-8.89453-5.56348l2.96875-4.02343a64.0939,64.0939,0,0,0,8.248,5.15918,69.338,69.338,0,0,0,20.68554,6.89843Z"/></svg>