<svg xmlns="http://www.w3.org/2000/svg" viewBox="0 0 200 200" id="khe!k" data-name="khe!k"><title>khe!k</title><path d="M101.957,172.5c-10.71631,0-20.4414-2.79395-23.877-6.91211l3.83984-3.20312c1.86279,2.23339,9.624,5.31347,20.96387,5.10742,15.06738-.24707,31.67285-8.416,34.25684-23.55274a28.579,28.579,0,0,0-10.36915-26.49609c-6.75488-5.32227-16.7246-5.40137-23.89843-4.53613-4.69971.56836-12.26905,4.23242-14.78955,5.59668l-2.37989-4.39649c.40381-.21875,9.97266-5.36621,16.56885-6.16406,8.11328-.97852,19.48926-.81152,27.59277,5.57227a33.70837,33.70837,0,0,1,12.20411,31.26562c-3.043,17.82129-21.97461,27.42969-39.10352,27.71094C102.62988,172.49707,102.292,172.5,101.957,172.5Z"/><rect x="90.5" y="15.5" width="43" height="3"/><path d="M122.55273,91.0249l-4.56054-2.0498c11.32617-25.20508,16.02246-40.37647,8.4209-48.35694-4.376-4.59228-13.43555-5.49609-24.23438-2.41845C92.084,41.07617,87.9458,49.74365,86.25049,56.26611c-.62451,3.91211-1.19043,8.09961-1.19824,8.15869l-4.97754-.34326a40.56416,40.56416,0,0,1,1.1997-8.36425c.27295-1.72266.56153-3.42286.82715-4.75879,1.4126-7.10108,2.53125-14.24707,3.3252-21.24073l4.96777.56446c-.38476,3.39209-.84521,6.81982-1.37646,10.26074a25.29835,25.29835,0,0,1,11.79-7.15186c12.8081-3.65136,23.45947-2.27343,29.22607,3.77881C139.584,47.19531,134.77246,63.83154,122.55273,91.0249Z"/><path d="M142.26953,76.36816a87.21214,87.21214,0,0,1-20.31738-4.91064,70.7358,70.7358,0,0,1-8.18457-3.70654l2.35547-4.41016a65.73184,65.73184,0,0,0,7.60449,3.44287,82.22505,82.22505,0,0,0,19.15137,4.62158Z"/><path d="M95.61328,87.78271a34.21964,34.21964,0,0,1-11.63623-5.5205,27.58394,27.58394,0,0,1-7.65283-8.521l2.6084-1.48242a24.60272,24.60272,0,0,0,6.83154,7.59375,31.231,31.231,0,0,0,10.62256,5.03174Z"/><path d="M81.98486,94.44922a34.21434,34.21434,0,0,1-11.63672-5.51953,27.58451,27.58451,0,0,1-7.65234-8.52246l2.6084-1.48145a24.5989,24.5989,0,0,0,6.83105,7.59375A31.21763,31.21763,0,0,0,82.7583,91.55078Z"/></svg>