<svg xmlns="http://www.w3.org/2000/svg" viewBox="0 0 200 200" id="khi&apos;" data-name="khi&apos;"><title>khi'</title><polygon points="31.173 84.25 28.173 84.25 28.173 52.75 59.673 52.75 59.673 55.75 31.173 55.75 31.173 84.25"/><path d="M123.30957,145.77344l-4.75391-1.54688c12.53516-38.53711,17.67481-61.81787,8.95215-74.46631-6.85058-9.937-20.499-5.92578-26.0498-3.74072-11.19873,4.40869-15.78418,17.9126-17.66065,28.04639-.68261,5.9082-1.30029,12.2251-1.30908,12.314l-4.98828-.25A79.27786,79.27786,0,0,1,78.9209,92.708c.25244-2.14893.51221-4.21729.75342-5.89453,1.54-10.69727,2.76074-21.46973,3.62793-32.01856l4.98339.41016c-.46582,5.6665-1.03271,11.397-1.69531,17.14551a27.95358,27.95358,0,0,1,13.03662-10.9834c14.0791-5.54346,25.74121-3.51856,31.99805,5.55469C141.58105,81.36084,136.63672,104.80469,123.30957,145.77344Z"/><path d="M144.73145,123.29492a74.30506,74.30506,0,0,1-22.17188-7.40039,69.02494,69.02494,0,0,1-8.89453-5.56348l2.96875-4.02343a64.0939,64.0939,0,0,0,8.248,5.15918,69.338,69.338,0,0,0,20.68554,6.89843Z"/><path d="M88.55615,136.93262a46.6615,46.6615,0,0,1-16.63574-9.19922,44.05966,44.05966,0,0,1-10.84033-14.07715l2.69726-1.3125a41.08271,41.08271,0,0,0,10.10791,13.12207,43.64316,43.64316,0,0,0,15.5586,8.60156Z"/></svg>