<svg xmlns="http://www.w3.org/2000/svg" viewBox="0 0 200 200" id="khig" data-name="khig"><title>khig</title><path d="M102.00195,172.5c-10.71631,0-20.4414-2.79395-23.87695-6.91211l3.83984-3.20312c1.86231,2.23339,9.6128,5.31347,20.96387,5.10742,15.06641-.24707,31.67188-8.416,34.25586-23.55274a28.579,28.579,0,0,0-10.36914-26.49609c-6.75488-5.32227-16.72949-5.40039-23.89844-4.53613-5.65039.68261-14.69824,5.54785-14.78906,5.59765l-2.37939-4.39746c.4038-.21875,9.97216-5.36621,16.56787-6.16406,8.11621-.97852,19.49121-.81055,27.59277,5.57227a33.70834,33.70834,0,0,1,12.2041,31.26562c-3.043,17.82129-21.97461,27.42969-39.10254,27.71094C102.6748,172.49707,102.33691,172.5,102.00195,172.5Z"/><path d="M139.8457,169.4248a42.78148,42.78148,0,0,1-14.05859-6.31347,32.46477,32.46477,0,0,1-9.31445-9.8252l4.28711-2.57226a27.51555,27.51555,0,0,0,7.90234,8.30664,37.7354,37.7354,0,0,0,12.40234,5.55469Z"/><path d="M122.55273,91.0249l-4.56054-2.0498c11.32617-25.20508,16.02246-40.37647,8.4209-48.35694-4.376-4.59228-13.43555-5.49609-24.23438-2.41845C92.084,41.07617,87.9458,49.74365,86.25049,56.26611c-.62451,3.91211-1.19043,8.09961-1.19824,8.15869l-4.97754-.34326a40.56416,40.56416,0,0,1,1.1997-8.36425c.27295-1.72266.56153-3.42286.82715-4.75879,1.4126-7.10108,2.53125-14.24707,3.3252-21.24073l4.96777.56446c-.38476,3.39209-.84521,6.81982-1.37646,10.26074a25.29835,25.29835,0,0,1,11.79-7.15186c12.8081-3.65136,23.45947-2.27343,29.22607,3.77881C139.584,47.19531,134.77246,63.83154,122.55273,91.0249Z"/><path d="M142.26953,76.36816a87.21214,87.21214,0,0,1-20.31738-4.91064,70.7358,70.7358,0,0,1-8.18457-3.70654l2.35547-4.41016a65.73184,65.73184,0,0,0,7.60449,3.44287,82.22505,82.22505,0,0,0,19.15137,4.62158Z"/><path d="M88.61816,92.45068A46.59033,46.59033,0,0,1,72.96533,85.0874,36.86349,36.86349,0,0,1,62.69824,73.74512l2.60352-1.49024a33.88737,33.88737,0,0,0,9.44287,10.41748,43.56666,43.56666,0,0,0,14.63721,6.877Z"/></svg>