<svg data-name="Verolqiloli itik" xmlns="http://www.w3.org/2000/svg" viewBox="0 0 200 200"><title>kh</title><path d="M75.53418,172.44238l-1.06836-4.88476c12.08691-2.64258,29.73828-8.78614,45.19043-23.04492,12.21387-11.26856,19.62012-23.60352,22.16211-32.0127H75v-5h72.99219l-.53223,2.94531c-1.52344,8.42578-8.83105,23.36524-24.41308,37.74219C106.77148,163.20605,88.22559,169.667,75.53418,172.44238Z"/><path d="M135.06543,161.3457c-5.51953-.5664-16.084-2.65039-24.831-10.24414-6.15723-5.34961-13.00293-19.87207-14.00586-22.582l4.68945-1.73437c1.03613,2.7998,7.60254,16.2041,12.59473,20.542,7.707,6.69043,17.13085,8.53808,22.0625,9.04394Z"/><rect x="90.5" y="15.5" width="43" height="3"/><path d="M122.55273,91.0249l-4.56054-2.0498c11.32617-25.20508,16.02246-40.37647,8.4209-48.35694-4.376-4.59228-13.43555-5.49609-24.23438-2.41845C92.084,41.07617,87.9458,49.74365,86.25049,56.26611c-.62451,3.91211-1.19043,8.09961-1.19824,8.15869l-4.97754-.34326a40.56416,40.56416,0,0,1,1.1997-8.36425c.27295-1.72266.56153-3.42286.82715-4.75879,1.4126-7.10108,2.53125-14.24707,3.3252-21.24073l4.96777.56446c-.38476,3.39209-.84521,6.81982-1.37646,10.26074a25.29835,25.29835,0,0,1,11.79-7.15186c12.8081-3.65136,23.45947-2.27343,29.22607,3.77881C139.584,47.19531,134.77246,63.83154,122.55273,91.0249Z"/><path d="M142.26953,76.36816a87.21214,87.21214,0,0,1-20.31738-4.91064,70.7358,70.7358,0,0,1-8.18457-3.70654l2.35547-4.41016a65.73184,65.73184,0,0,0,7.60449,3.44287,82.22505,82.22505,0,0,0,19.15137,4.62158Z"/><path d="M64.5249,96.5q-.27831,0-.55859-.00635l.06738-2.999a19.60727,19.60727,0,0,0,8.5249-1.67578,21.64729,21.64729,0,0,0,6.37305-4.48731,10.70049,10.70049,0,0,1-2.37012-1.66308c-.90136-.84278-3.29638-3.082-3.22851-6.47657a8.14751,8.14751,0,0,1,5.90625-7.42334c2.64453-.709,6.30127-.02734,7.59912,2.313.87353,1.57666.8833,3.77295.02734,6.35157a21.4842,21.4842,0,0,1-2.77246,5.34619c.1211.0122.24268.02246.36377.03076l-.19922,2.99316a13.22315,13.22315,0,0,1-2.26416-.35009l-.01709-.0044A25.0031,25.0031,0,0,1,73.793,94.55322,22.36265,22.36265,0,0,1,64.5249,96.5ZM81.36572,74.49463a5.2193,5.2193,0,0,0-1.34814.17139A5.12282,5.12282,0,0,0,76.332,79.25146c-.041,2.05713,1.52539,3.522,2.27832,4.22559a8.0296,8.0296,0,0,0,2.37207,1.50879,19.46658,19.46658,0,0,0,3.03613-5.49756c.56788-1.71142.63916-3.15185.19581-3.95215A3.51336,3.51336,0,0,0,81.36572,74.49463Z"/></svg>