<svg xmlns="http://www.w3.org/2000/svg" viewBox="0 0 200 200" id="khuc" data-name="khuc"><title>khuc</title><path d="M84.501,172.44922l-1.002-4.89844a44.73009,44.73009,0,0,0,11.82032-4.10156,14.48846,14.48846,0,0,1-4.97022-5.59766l-.06543-.11914c-.96435-1.72265-2.07666-4.5957-.61474-9.63379a10.74517,10.74517,0,0,1,9.3457-7.75586c6.5918-.49609,11.68945,2.918,12.40625,8.3125.57422,4.32813-1.32227,8.74414-4.99317,12.63184a44.11274,44.11274,0,0,0,6.4375-.54492c6.14258-.917,12.1875-5.09082,16.17286-11.165,4.06054-6.19238,5.43847-13.29883,3.77832-19.499-1.95411-7.30274-8.75684-15.84375-19.07422-17.34278-8.13281-1.17773-14.84033,2.42578-17.34717,4.03028l-2.69629-4.21094c2.97754-1.90723,10.96143-6.19239,20.76221-4.7666,12.624,1.833,20.74121,11.86621,23.18554,20.99707,2.02735,7.57519.41407,16.15234-4.42773,23.53418-4.82422,7.35546-11.97363,12.22754-19.61426,13.36816a36.25654,36.25654,0,0,1-12.53418.07031A46.88367,46.88367,0,0,1,84.501,172.44922ZM100.186,145.29883q-.40064,0-.7959.03027c-3.76319.28125-4.87061,3.99317-4.916,4.15137-1.05127,3.62305-.19385,5.15527.17236,5.81055.05713.10156.106.19043.145.26562a9.56288,9.56288,0,0,0,5.376,4.7832c4.51221-3.54687,6.74658-7.63476,6.29639-11.02636C106.08984,146.49707,103.08594,145.29883,100.186,145.29883Z"/><path d="M122.55273,91.0249l-4.56054-2.0498c11.32617-25.20508,16.02246-40.37647,8.4209-48.35694-4.376-4.59228-13.43555-5.49609-24.23438-2.41845C92.084,41.07617,87.9458,49.74365,86.25049,56.26611c-.62451,3.91211-1.19043,8.09961-1.19824,8.15869l-4.97754-.34326a40.56416,40.56416,0,0,1,1.1997-8.36425c.27295-1.72266.56153-3.42286.82715-4.75879,1.4126-7.10108,2.53125-14.24707,3.3252-21.24073l4.96777.56446c-.38476,3.39209-.84521,6.81982-1.37646,10.26074a25.29835,25.29835,0,0,1,11.79-7.15186c12.8081-3.65136,23.45947-2.27343,29.22607,3.77881C139.584,47.19531,134.77246,63.83154,122.55273,91.0249Z"/><path d="M142.26953,76.36816a87.21214,87.21214,0,0,1-20.31738-4.91064,70.7358,70.7358,0,0,1-8.18457-3.70654l2.35547-4.41016a65.73184,65.73184,0,0,0,7.60449,3.44287,82.22505,82.22505,0,0,0,19.15137,4.62158Z"/><path d="M64.5249,96.5q-.27831,0-.55859-.00635l.06738-2.999a19.60727,19.60727,0,0,0,8.5249-1.67578,21.64729,21.64729,0,0,0,6.37305-4.48731,10.70049,10.70049,0,0,1-2.37012-1.66308c-.90136-.84278-3.29638-3.082-3.22851-6.47657a8.14751,8.14751,0,0,1,5.90625-7.42334c2.64453-.709,6.30127-.02734,7.59912,2.313.87353,1.57666.8833,3.77295.02734,6.35157a21.4842,21.4842,0,0,1-2.77246,5.34619c.1211.0122.24268.02246.36377.03076l-.19922,2.99316a13.22315,13.22315,0,0,1-2.26416-.35009l-.01709-.0044A25.0031,25.0031,0,0,1,73.793,94.55322,22.36265,22.36265,0,0,1,64.5249,96.5ZM81.36572,74.49463a5.2193,5.2193,0,0,0-1.34814.17139A5.12282,5.12282,0,0,0,76.332,79.25146c-.041,2.05713,1.52539,3.522,2.27832,4.22559a8.0296,8.0296,0,0,0,2.37207,1.50879,19.46658,19.46658,0,0,0,3.03613-5.49756c.56788-1.71142.63916-3.15185.19581-3.95215A3.51336,3.51336,0,0,0,81.36572,74.49463Z"/></svg>