<svg data-name="Weyilqiloli itik" xmlns="http://www.w3.org/2000/svg" viewBox="0 0 200 200"><title>k</title><path d="M75.53418,172.44238l-1.06836-4.88476c12.08691-2.64258,29.73828-8.78614,45.19043-23.04492,12.21387-11.26856,19.62012-23.60352,22.16211-32.0127H75v-5h72.99219l-.53223,2.94531c-1.52344,8.42578-8.83105,23.36524-24.41308,37.74219C106.77148,163.20605,88.22559,169.667,75.53418,172.44238Z"/><rect x="90.5" y="15.5" width="43" height="3"/><path d="M101.95508,92.49951c-10.71533,0-20.43994-2.79394-23.875-6.91162l3.83984-3.20312c1.86279,2.23291,9.605,5.2788,20.96387,5.10742,15.06738-.24707,31.67285-8.41651,34.25684-23.55274a28.579,28.579,0,0,0-10.36915-26.49609c-6.75488-5.32178-16.72656-5.40381-23.89941-4.53613-4.69824.56836-12.26807,4.23291-14.78857,5.59716l-2.37989-4.39746c.4043-.21875,9.97266-5.36572,16.56885-6.16357,8.11328-.9834,19.49024-.81055,27.59277,5.57227a33.70658,33.70658,0,0,1,12.20411,31.26513c-3.043,17.82129-21.97461,27.42969-39.10352,27.71045Q102.459,92.5,101.95508,92.49951Z"/><path d="M88.61816,59.45068A46.59033,46.59033,0,0,1,72.96533,52.0874,36.86349,36.86349,0,0,1,62.69824,40.74512l2.60352-1.49024a33.88737,33.88737,0,0,0,9.44287,10.41748,43.56666,43.56666,0,0,0,14.63721,6.877Z"/></svg>