<svg xmlns="http://www.w3.org/2000/svg" viewBox="0 0 200 200" id="kiz" data-name="kiz"><title>kiz</title><path d="M143.27832,171.8125c-3.79-3.60059-19.54394-13.46875-41.49707-11.67773-14.05713,1.15234-22.82617,7.64941-25.1792,9.61328l-3.38379-3.67285.86719-.83985C108.75,139.30957,123.20508,121.30078,125.669,112.5H75v-5h56.05859V110c0,9.92676-13.48339,26.43359-37.58691,46.37695a55.16344,55.16344,0,0,1,7.90137-1.22461c23.76465-1.95117,41.13769,9.03418,45.34863,13.03516Z"/><path d="M101.95508,92.49951c-10.71533,0-20.43994-2.79394-23.875-6.91162l3.83984-3.20312c1.86279,2.23291,9.605,5.2788,20.96387,5.10742,15.06738-.24707,31.67285-8.41651,34.25684-23.55274a28.579,28.579,0,0,0-10.36915-26.49609c-6.75488-5.32178-16.72656-5.40381-23.89941-4.53613-4.69824.56836-12.26807,4.23291-14.78857,5.59716l-2.37989-4.39746c.4043-.21875,9.97266-5.36572,16.56885-6.16357,8.11328-.9834,19.49024-.81055,27.59277,5.57227a33.70658,33.70658,0,0,1,12.20411,31.26513c-3.043,17.82129-21.97461,27.42969-39.10352,27.71045Q102.459,92.5,101.95508,92.49951Z"/><path d="M88.61816,59.45068A46.59033,46.59033,0,0,1,72.96533,52.0874,36.86349,36.86349,0,0,1,62.69824,40.74512l2.60352-1.49024a33.88737,33.88737,0,0,0,9.44287,10.41748,43.56666,43.56666,0,0,0,14.63721,6.877Z"/></svg>