<svg data-name="Jokilqiloli itik" xmlns="http://www.w3.org/2000/svg" viewBox="0 0 200 200"><title>ks</title><path d="M108.6416,172.5h-.17969c-9.14013-.04395-16.53711-3.37012-20.83935-9.37695-5.49658-7.67774-7.53809-18.44141-6.06885-31.99219a59.19658,59.19658,0,0,1,6.70752-22.35254l4.36231,2.44336a54.79329,54.79329,0,0,0-6.09913,20.44922c-1.33252,12.291.4043,21.89355,5.16309,28.541,3.35254,4.68067,9.33984,7.26758,16.86426,7.28809,7.52832-.02051,13.51562-2.60645,16.86426-7.28809,4.75976-6.65136,6.49609-16.2539,5.16308-28.542a54.87349,54.87349,0,0,0-6.09961-20.44922l4.36328-2.4414a59.28734,59.28734,0,0,1,6.707,22.35058c1.46973,13.54688-.57128,24.31055-6.06738,31.99219-4.29883,6.00781-11.69531,9.335-20.84082,9.37793Z"/><path d="M144.24414,156.36426a74.757,74.757,0,0,1-18.71-4.93457,62.361,62.361,0,0,1-7.53613-3.72461l2.51953-4.31836a57.44786,57.44786,0,0,0,6.93066,3.42383,69.77893,69.77893,0,0,0,17.46,4.59863Z"/><rect x="80.5" y="15.5" width="47" height="3"/><path d="M143.28027,91.63086c-3.78906-3.58984-19.54687-13.43213-41.5-11.6416-14.05713,1.14795-22.82763,7.62646-25.18115,9.585l-3.37793-3.67871.86719-.8374C108.73926,59.22168,123.19531,41.27393,125.667,32.5H75v-5h56.05859V30c0,9.89648-13.47265,26.3457-37.56445,46.22266a55.2078,55.2078,0,0,1,7.87988-1.2168c23.75879-1.93994,41.13672,9.00732,45.34571,12.99609Z"/><path d="M127.7373,90.1333l-4.99218-.2666a40.67772,40.67772,0,0,1,3.59375-14.64209,45.81511,45.81511,0,0,1,11.334-15.25537l3.33594,3.72363a40.85011,40.85011,0,0,0-10.11328,13.5918A35.706,35.706,0,0,0,127.7373,90.1333Z"/><path d="M85.61328,54.78271a34.21964,34.21964,0,0,1-11.63623-5.5205,27.58394,27.58394,0,0,1-7.65283-8.521l2.6084-1.48242a24.60272,24.60272,0,0,0,6.83154,7.59375,31.231,31.231,0,0,0,10.62256,5.03174Z"/><path d="M71.98486,61.44922a34.21434,34.21434,0,0,1-11.63672-5.51953,27.58451,27.58451,0,0,1-7.65234-8.52246l2.6084-1.48145a24.5989,24.5989,0,0,0,6.831,7.59375A31.21763,31.21763,0,0,0,72.7583,58.55078Z"/></svg>