<svg data-name="Tlachalqiloli itik" xmlns="http://www.w3.org/2000/svg" viewBox="0 0 200 200"><title>ks</title><path d="M92.958,172.44922c-5.73633.001-11.27051-1.72949-14.105-6.55859-3.07373-5.24415-2.67188-14.02735.895-19.58106a15.74466,15.74466,0,0,1,8.68408-6.43945l.18945-.06543c7.04834-2.39942,18.36475-2.03906,35.39893,9.06543A79.44287,79.44287,0,0,0,140.22852,112.5H75v-5h70.44629V110c0,4.57129-3.44727,24.59863-17.25,41.72949A170.24583,170.24583,0,0,1,145.4834,166.1377c.54785.51562.93652.88281,1.14844,1.06445l-3.26368,3.78906c-.24023-.208-.68554-.624-1.30957-1.21094a163.82881,163.82881,0,0,0-17.14746-14.251,67.22585,67.22585,0,0,1-16.97265,13.28027A33.26877,33.26877,0,0,1,92.958,172.44922Zm3.21533-28.8252a18.30577,18.30577,0,0,0-5.92725.90918l-.1958.06739a10.95842,10.95842,0,0,0-6.09472,4.41015c-2.563,3.99024-2.93164,10.69531-.78955,14.34961,3.561,6.07031,15.81982,4.66211,22.36523,1.06641a61.7204,61.7204,0,0,0,15.15625-11.75391C109.67871,145.61523,101.68652,143.624,96.17334,143.624Z"/><path d="M143.28027,91.63086c-3.78906-3.58984-19.54687-13.43213-41.5-11.6416-14.05713,1.14795-22.82763,7.62646-25.18115,9.585l-3.37793-3.67871.86719-.8374C108.73926,59.22168,123.19531,41.27393,125.667,32.5H75v-5h56.05859V30c0,9.89648-13.47265,26.3457-37.56445,46.22266a55.2078,55.2078,0,0,1,7.87988-1.2168c23.75879-1.93994,41.13672,9.00732,45.34571,12.99609Z"/><path d="M127.7373,90.1333l-4.99218-.2666a40.67772,40.67772,0,0,1,3.59375-14.64209,45.81511,45.81511,0,0,1,11.334-15.25537l3.33594,3.72363a40.85011,40.85011,0,0,0-10.11328,13.5918A35.706,35.706,0,0,0,127.7373,90.1333Z"/><path d="M65,63.5A12.5,12.5,0,1,1,77.5,51,12.51408,12.51408,0,0,1,65,63.5Zm0-22A9.5,9.5,0,1,0,74.5,51,9.51081,9.51081,0,0,0,65,41.5Z"/></svg>