<svg data-name="Senzonqiloli itik" xmlns="http://www.w3.org/2000/svg" viewBox="0 0 200 200"><title>ks</title><path d="M143.27832,171.8125c-3.79-3.60059-19.54394-13.46875-41.49707-11.67773-14.05713,1.15234-22.82617,7.64941-25.1792,9.61328l-3.38379-3.67285.58252-.5918,52.92285-57.18164,3.66992,3.39648L87.3833,158.168a54.31184,54.31184,0,0,1,13.98975-3.01563c23.76465-1.95117,41.13769,9.03418,45.34863,13.03516Z"/><rect x="80.5" y="15.5" width="47" height="3"/><path d="M143.28027,91.63086c-3.78906-3.58984-19.54687-13.43213-41.5-11.6416-14.05713,1.14795-22.82763,7.62646-25.18115,9.585l-3.37793-3.67871.86719-.8374C108.73926,59.22168,123.19531,41.27393,125.667,32.5H75v-5h56.05859V30c0,9.89648-13.47265,26.3457-37.56445,46.22266a55.2078,55.2078,0,0,1,7.87988-1.2168c23.75879-1.93994,41.13672,9.00732,45.34571,12.99609Z"/><path d="M127.7373,90.1333l-4.99218-.2666a40.67772,40.67772,0,0,1,3.59375-14.64209,45.81511,45.81511,0,0,1,11.334-15.25537l3.33594,3.72363a40.85011,40.85011,0,0,0-10.11328,13.5918A35.706,35.706,0,0,0,127.7373,90.1333Z"/><path d="M78.61816,59.45068A46.59033,46.59033,0,0,1,62.96533,52.0874,36.86349,36.86349,0,0,1,52.69824,40.74512l2.60352-1.49024a33.88737,33.88737,0,0,0,9.44287,10.41748,43.56666,43.56666,0,0,0,14.63721,6.877Z"/></svg>