<svg xmlns="http://www.w3.org/2000/svg" viewBox="0 0 200 200" id="ksim" data-name="ksim"><title>ksim</title><path d="M135.88281,172.5c-5.26367.001-8.55468-3.8623-10.1416-5.72461-3.67578-4.2998-4.87109-12.16211-4.9209-12.49512-.00293-.02929-.00586-.05957-.00976-.08886-2.65039-.13282-5.36231-.25489-8.0127-.25977-3.9834-.00293-7.95508.126-11.791.40137-2.59473.18652-5.22071.31445-8.00147.45019-1.87744.0918-3.78125.18555-5.69726.29883l-2.11817.124c-3.31006.19239-6.73242.39161-9.9834.66114l-.41308-4.98242c3.312-.27442,6.76562-.47559,10.106-.6709l2.1128-.124c1.93457-.11328,3.855-.208,5.749-.2998,2.75147-.13477,5.3501-.26172,7.88818-.44336,3.957-.28516,8.02149-.4043,12.15918-.415,2.51465.00488,5.044.10938,7.52149.23047a129.11846,129.11846,0,0,1-.30762-13.16309c.22949-9.88867,2.99609-25.75976,3.11328-26.43066l4.92578.86328c-.02832.16113-2.81933,16.17383-3.041,25.68457a122.16646,122.16646,0,0,0,.34082,13.293c.06152.00293.12207.00586.18359.00781a70.08261,70.08261,0,0,1,12.18946,1.47949c1.80078.39844,6.59375,1.457,8.748,5.50489,2.51465,4.72754-.34082,9.77441-.6748,10.334a11.84147,11.84147,0,0,1-9.8252,5.76465Zm-9.96289-18.05957c.44238,2.27246,1.62988,6.75586,3.625,9.08984,1.35059,1.584,3.38281,3.96973,6.3418,3.96973h.0498a6.74837,6.74837,0,0,0,5.5752-3.32324c.0166-.0293,1.77051-3.14453.55664-5.42676-.94922-1.7832-3.39356-2.52441-5.416-2.97168A64.0455,64.0455,0,0,0,125.91992,154.44043Z"/><path d="M143.28027,91.63086c-3.78906-3.58984-19.54687-13.43213-41.5-11.6416-14.05713,1.14795-22.82763,7.62646-25.18115,9.585l-3.37793-3.67871.86719-.8374C108.73926,59.22168,123.19531,41.27393,125.667,32.5H75v-5h56.05859V30c0,9.89648-13.47265,26.3457-37.56445,46.22266a55.2078,55.2078,0,0,1,7.87988-1.2168c23.75879-1.93994,41.13672,9.00732,45.34571,12.99609Z"/><path d="M127.7373,90.1333l-4.99218-.2666a40.67772,40.67772,0,0,1,3.59375-14.64209,45.81511,45.81511,0,0,1,11.334-15.25537l3.33594,3.72363a40.85011,40.85011,0,0,0-10.11328,13.5918A35.706,35.706,0,0,0,127.7373,90.1333Z"/><path d="M78.61816,59.45068A46.59033,46.59033,0,0,1,62.96533,52.0874,36.86349,36.86349,0,0,1,52.69824,40.74512l2.60352-1.49024a33.88737,33.88737,0,0,0,9.44287,10.41748,43.56666,43.56666,0,0,0,14.63721,6.877Z"/></svg>