<svg data-name="Pokalqiloli itik" xmlns="http://www.w3.org/2000/svg" viewBox="0 0 200 200"><title>ks</title><path d="M99.06543,172.50586a125.03756,125.03756,0,0,1-14.353-.85449l.5752-4.9668c24.78662,2.86914,43.00928-2.30664,46.3042-8.9707.37695-.75977,2.11523-4.71875-.55274-8.19532-4.5039-5.86914-10.05566-11.35546-20.08593-11.76953-.57618.00782-5.249.08985-6.1709.10645l-.60157.08691-.71484-4.94922.40234-.05761,5.00684-2.28614c16.2373-8.97753,18.63477-13.709,18.35645-14.40039-.01172-.02734-1.4502-2.85644-18.31348-3.585-9.61426-.417-19.03613.08106-20.03858.167l-.4248-4.98242c1.10449-.09375,10.72949-.61816,20.78369-.17578,17.9834.78906,21.541,4,22.63184,6.709,1.23633,3.07226.67383,8.30273-17.18067,18.71679,10.03809,1.57715,16.08887,7.86719,20.31641,13.375a12.75036,12.75036,0,0,1,1.06738,13.458C132.16211,167.83984,117.74707,172.50586,99.06543,172.50586Z"/><path d="M143.28027,91.63086c-3.78906-3.58984-19.54687-13.43213-41.5-11.6416-14.05713,1.14795-22.82763,7.62646-25.18115,9.585l-3.37793-3.67871.86719-.8374C108.73926,59.22168,123.19531,41.27393,125.667,32.5H75v-5h56.05859V30c0,9.89648-13.47265,26.3457-37.56445,46.22266a55.2078,55.2078,0,0,1,7.87988-1.2168c23.75879-1.93994,41.13672,9.00732,45.34571,12.99609Z"/><path d="M127.7373,90.1333l-4.99218-.2666a40.67772,40.67772,0,0,1,3.59375-14.64209,45.81511,45.81511,0,0,1,11.334-15.25537l3.33594,3.72363a40.85011,40.85011,0,0,0-10.11328,13.5918A35.706,35.706,0,0,0,127.7373,90.1333Z"/><path d="M54.5249,63.5q-.27831,0-.55859-.00635l.06738-2.999a19.53846,19.53846,0,0,0,8.5249-1.67578,21.64729,21.64729,0,0,0,6.373-4.48731,10.70049,10.70049,0,0,1-2.37012-1.66308c-.90136-.84278-3.29638-3.082-3.22851-6.47657a8.14751,8.14751,0,0,1,5.90625-7.42334c2.64355-.708,6.30176-.02783,7.59912,2.313.87353,1.57666.8833,3.773.02734,6.35157a21.49515,21.49515,0,0,1-2.772,5.3457q.18164.019.36475.03125l-.20215,2.99316a13.288,13.288,0,0,1-2.2627-.35009l-.01709-.0044A25.0031,25.0031,0,0,1,63.793,61.55322,22.36265,22.36265,0,0,1,54.5249,63.5ZM71.36572,41.49463a5.2193,5.2193,0,0,0-1.34814.17139A5.12282,5.12282,0,0,0,66.332,46.25146c-.041,2.05713,1.52539,3.522,2.27832,4.22559a8.0296,8.0296,0,0,0,2.37207,1.50879,19.46658,19.46658,0,0,0,3.03613-5.49756c.56788-1.71142.63916-3.15185.19581-3.95215A3.51336,3.51336,0,0,0,71.36572,41.49463Z"/></svg>