<svg xmlns="http://www.w3.org/2000/svg" viewBox="0 0 200 200" id="ku!z&apos;" data-name="ku!z&apos;"><title>ku!z'</title><path d="M143.28027,171.63086c-3.78808-3.58887-19.53711-13.44141-41.5-11.64063-14.05713,1.14747-22.82763,7.626-25.18115,9.584l-3.37793-3.67871.58252-.58985,52.92285-57.00683,3.66407,3.40234L87.40088,158.00684a54.48543,54.48543,0,0,1,13.97314-3.001c23.751-1.93359,41.13477,9.00684,45.34571,12.99609Z"/><path d="M119.959,170.13379l-4.99218-.26758a40.71655,40.71655,0,0,1,3.59375-14.6416,45.84182,45.84182,0,0,1,11.334-15.25586l3.33594,3.72461a40.86708,40.86708,0,0,0-10.11426,13.5918A35.74865,35.74865,0,0,0,119.959,170.13379Z"/><rect x="90.5" y="15.5" width="43" height="3"/><path d="M101.95508,92.49951c-10.71533,0-20.43994-2.79394-23.875-6.91162l3.83984-3.20312c1.86279,2.23291,9.605,5.2788,20.96387,5.10742,15.06738-.24707,31.67285-8.41651,34.25684-23.55274a28.579,28.579,0,0,0-10.36915-26.49609c-6.75488-5.32178-16.72656-5.40381-23.89941-4.53613-4.69824.56836-12.26807,4.23291-14.78857,5.59716l-2.37989-4.39746c.4043-.21875,9.97266-5.36572,16.56885-6.16357,8.11328-.9834,19.49024-.81055,27.59277,5.57227a33.70658,33.70658,0,0,1,12.20411,31.26513c-3.043,17.82129-21.97461,27.42969-39.10352,27.71045Q102.459,92.5,101.95508,92.49951Z"/><path d="M64.5249,63.5q-.27831,0-.55859-.00635l.06738-2.999a19.52307,19.52307,0,0,0,8.5249-1.67578,21.64729,21.64729,0,0,0,6.37305-4.48731,10.70049,10.70049,0,0,1-2.37012-1.66308c-.90136-.84278-3.29638-3.082-3.22851-6.47657a8.14751,8.14751,0,0,1,5.90625-7.42334c2.64453-.708,6.30127-.02783,7.59912,2.313.87353,1.57666.8833,3.773.02734,6.35157a21.49515,21.49515,0,0,1-2.772,5.3457q.18164.019.36475.03125l-.20215,2.99316a13.288,13.288,0,0,1-2.2627-.35009l-.01709-.0044A25.0031,25.0031,0,0,1,73.793,61.55322,22.36265,22.36265,0,0,1,64.5249,63.5ZM81.36572,41.49463a5.2193,5.2193,0,0,0-1.34814.17139A5.12282,5.12282,0,0,0,76.332,46.25146c-.041,2.05713,1.52539,3.522,2.27832,4.22559a8.0296,8.0296,0,0,0,2.37207,1.50879,19.46658,19.46658,0,0,0,3.03613-5.49756c.56788-1.71142.63916-3.15185.19581-3.95215A3.51336,3.51336,0,0,0,81.36572,41.49463Z"/></svg>