<svg xmlns="http://www.w3.org/2000/svg" viewBox="0 0 200 200" id="lu&apos;" data-name="lu&apos;"><title>lu'</title><polygon points="57.923 85 54.923 85 54.923 53.5 86.423 53.5 86.423 56.5 57.923 56.5 57.923 85"/><path d="M104.47168,147.22266l-2.291-4.44532c19.877-10.24121,31.73243-24.94921,28.18946-34.97265-1.998-5.6543-8.377-8.85108-8.64844-8.98438-8.93945-4.40674-21.55371-1.5249-28.58594,3.80567a11.52354,11.52354,0,0,0-4.21142,5.46191l-4.89209-1.01074c.07861-.48242,2.1289-12.28906,20.0039-53.08057l4.58008,2.00684C99.72705,76.28809,94.80225,89.33008,92.106,97.26514c8.36963-5.2876,21.60693-7.96826,31.82666-2.92969.86426.42578,8.52832,4.37939,11.15234,11.80322C139.61035,118.94531,127.30762,135.45605,104.47168,147.22266Z"/><path d="M60.4585,144.5c-.248,0-.4961-.00293-.74561-.00781l.06641-3a26.84018,26.84018,0,0,0,11.86181-2.333,30.29884,30.29884,0,0,0,9.37744-6.77539,14.30163,14.30163,0,0,1-3.771-2.50684c-1.292-1.208-4.3169-4.03711-4.22949-8.42285a10.54464,10.54464,0,0,1,7.65039-9.60547c3.40771-.916,8.10107-.07129,9.74365,2.89063,1.11523,2.01269,1.11475,4.85644-.00293,8.22461a29.5119,29.5119,0,0,1-4.22852,7.88183,14.3377,14.3377,0,0,0,1.42481.166l-.19824,2.99414a17.55421,17.55421,0,0,1-2.99414-.46289c-.0962-.02344-.20948-.05176-.33789-.084a33.66331,33.66331,0,0,1-11.19971,8.43457A29.951,29.951,0,0,1,60.4585,144.5ZM83.396,114.501a7.31064,7.31064,0,0,0-7.37891,7.01367c-.06055,3.04785,2.19531,5.15723,3.2793,6.1709a11.62817,11.62817,0,0,0,3.78174,2.31738,27.39872,27.39872,0,0,0,4.48388-7.9834c.82227-2.47851.9043-4.60156.22608-5.82519C87.21631,115.16211,85.32764,114.501,83.396,114.501Z"/></svg>