<svg id="Mawkazalistli" xmlns="http://www.w3.org/2000/svg" viewBox="0 0 200 200"><title>00171-mawkazalistli</title><path d="M57.00927,136.459l-4.06055-2.918a184.808,184.808,0,0,1,28.438-31.375q1.26636-1.1045,2.48535-2.167-1.21947-1.05981-2.48486-2.16552a183.70665,183.70665,0,0,1-28.43994-31.377l4.06348-2.91308A178.7077,178.7077,0,0,0,84.67431,94.06592q1.56006,1.36083,3.02588,2.63037c11.44043-9.75293,20.16894-15.8125,31.46582-15.21143,17.63574.94922,27.15723,6.82471,28.29785,17.46289a9.85769,9.85769,0,0,1,0,2.106c-.53516,4.99121-4.37012,16.68652-28.35156,17.46387-11.48731.35156-20.1416-5.623-31.41113-15.21778q-1.46559,1.27-3.02637,2.63379A179.78793,179.78793,0,0,0,57.00927,136.459ZM91.55859,99.99463c10.86035,9.14209,18.1914,13.84033,27.3916,13.5249,14.125-.458,22.70508-5.19629,23.543-13.00049a4.84,4.84,0,0,0,0-1.03662c-.31348-2.92041-1.2666-11.80273-23.59668-13.00439C109.86816,85.9873,102.79687,90.49707,91.55859,99.99463Z"/></svg>