<svg data-name="Neliwqiloli itik" xmlns="http://www.w3.org/2000/svg" viewBox="0 0 200 200"><title>m</title><path d="M80.2207,172.49023l-.4414-4.98046c26.05273-2.3086,38.457-1.99512,48.03711-1.51954l7.57031.376c-.0957-4.834-.23731-15.5459.0625-27.18652.1582-6.15235.78808-13.83789,1.585-23.56836l.47363-5.8125,4.98438.40234-.47461,5.81738c-.791,9.65333-1.415,17.27833-1.57031,23.29-.40137,15.57813-.00391,29.47559,0,29.61426l.0791,2.7041-12.958-.64257C118.1543,170.51563,105.95605,170.21,80.2207,172.49023Z"/><path d="M135.87988,92.5c-5.26172,0-8.55175-3.86182-10.13867-5.72363-3.67578-4.30078-4.87109-12.16358-4.9209-12.4961-.00293-.02929-.00586-.05908-.00976-.08838-2.65039-.13281-5.36328-.25537-8.0127-.26074-3.99316-.01416-7.96191.127-11.791.40186-2.58741.18554-5.20655.314-7.979.44922-1.88476.09228-3.79541.186-5.71924.2998l-2.03466.11914c-3.33741.19385-6.78907.394-10.0669.66651L74.793,70.88525c3.33984-.27783,6.82275-.48,10.19092-.67578l2.02929-.11865c1.94043-.11523,3.86866-.20947,5.77-.30225,2.74366-.13427,5.335-.26123,7.86621-.44287,3.9502-.28369,8.0293-.42187,12.15821-.41455,2.51562.00537,5.04492.10987,7.52246.23047a129.099,129.099,0,0,1-.30762-13.16211c.22949-9.88965,2.99609-25.76074,3.11328-26.43115l4.92578.86328c-.02832.16065-2.81933,16.17285-3.041,25.68408a122.16646,122.16646,0,0,0,.34082,13.293c.06152.00293.12207.00537.18359.0083a70.15344,70.15344,0,0,1,12.18946,1.47949c1.80078.398,6.59375,1.457,8.748,5.50489,2.51758,4.73388-.34179,9.77636-.67676,10.33593a11.83679,11.83679,0,0,1-9.82421,5.76221ZM125.919,74.43994c.44335,2.272,1.63085,6.75635,3.626,9.09033,1.34961,1.58448,3.38281,3.96924,6.33985,3.96973l.05175-.00049a6.7456,6.7456,0,0,0,5.5752-3.32275c.01758-.03076,1.77051-3.14405.55664-5.42676-.94922-1.78271-3.39356-2.5249-5.416-2.97217A64.10728,64.10728,0,0,0,125.919,74.43994Z"/><path d="M110.61328,54.78271a34.20142,34.20142,0,0,1-11.63623-5.5205,27.58394,27.58394,0,0,1-7.65283-8.521l2.6084-1.48242a24.60272,24.60272,0,0,0,6.83154,7.59375,31.231,31.231,0,0,0,10.62256,5.03174Z"/><path d="M96.98486,61.44922a34.21434,34.21434,0,0,1-11.63672-5.51953,27.58451,27.58451,0,0,1-7.65234-8.52246l2.6084-1.48145a24.5989,24.5989,0,0,0,6.83105,7.59375A31.21763,31.21763,0,0,0,97.7583,58.55078Z"/></svg>