<svg xmlns="http://www.w3.org/2000/svg" viewBox="0 0 200 200" id="mic" data-name="mic"><title>mic</title><path d="M84.501,172.44922l-1.002-4.89844a44.73009,44.73009,0,0,0,11.82032-4.10156,14.48846,14.48846,0,0,1-4.97022-5.59766l-.06543-.11914c-.96435-1.72265-2.07666-4.5957-.61474-9.63379a10.74517,10.74517,0,0,1,9.3457-7.75586c6.5918-.49609,11.68945,2.918,12.40625,8.3125.57422,4.32813-1.32227,8.74414-4.99317,12.63184a44.11274,44.11274,0,0,0,6.4375-.54492c6.14258-.917,12.1875-5.09082,16.17286-11.165,4.06054-6.19238,5.43847-13.29883,3.77832-19.499-1.95411-7.30274-8.75684-15.84375-19.07422-17.34278-8.13281-1.17773-14.84033,2.42578-17.34717,4.03028l-2.69629-4.21094c2.97754-1.90723,10.96143-6.19239,20.76221-4.7666,12.624,1.833,20.74121,11.86621,23.18554,20.99707,2.02735,7.57519.41407,16.15234-4.42773,23.53418-4.82422,7.35546-11.97363,12.22754-19.61426,13.36816a36.25654,36.25654,0,0,1-12.53418.07031A46.88367,46.88367,0,0,1,84.501,172.44922ZM100.186,145.29883q-.40064,0-.7959.03027c-3.76319.28125-4.87061,3.99317-4.916,4.15137-1.05127,3.62305-.19385,5.15527.17236,5.81055.05713.10156.106.19043.145.26562a9.56288,9.56288,0,0,0,5.376,4.7832c4.51221-3.54687,6.74658-7.63476,6.29639-11.02636C106.08984,146.49707,103.08594,145.29883,100.186,145.29883Z"/><path d="M135.87988,92.5c-5.26172,0-8.55175-3.86182-10.13867-5.72363-3.67578-4.30078-4.87109-12.16358-4.9209-12.4961-.00293-.02929-.00586-.05908-.00976-.08838-2.65039-.13281-5.36328-.25537-8.0127-.26074-3.99316-.01416-7.96191.127-11.791.40186-2.58741.18554-5.20655.314-7.979.44922-1.88476.09228-3.79541.186-5.71924.2998l-2.03466.11914c-3.33741.19385-6.78907.394-10.0669.66651L74.793,70.88525c3.33984-.27783,6.82275-.48,10.19092-.67578l2.02929-.11865c1.94043-.11523,3.86866-.20947,5.77-.30225,2.74366-.13427,5.335-.26123,7.86621-.44287,3.9502-.28369,8.0293-.42187,12.15821-.41455,2.51562.00537,5.04492.10987,7.52246.23047a129.099,129.099,0,0,1-.30762-13.16211c.22949-9.88965,2.99609-25.76074,3.11328-26.43115l4.92578.86328c-.02832.16065-2.81933,16.17285-3.041,25.68408a122.16646,122.16646,0,0,0,.34082,13.293c.06152.00293.12207.00537.18359.0083a70.15344,70.15344,0,0,1,12.18946,1.47949c1.80078.398,6.59375,1.457,8.748,5.50489,2.51758,4.73388-.34179,9.77636-.67676,10.33593a11.83679,11.83679,0,0,1-9.82421,5.76221ZM125.919,74.43994c.44335,2.272,1.63085,6.75635,3.626,9.09033,1.34961,1.58448,3.38281,3.96924,6.33985,3.96973l.05175-.00049a6.7456,6.7456,0,0,0,5.5752-3.32275c.01758-.03076,1.77051-3.14405.55664-5.42676-.94922-1.78271-3.39356-2.5249-5.416-2.97217A64.10728,64.10728,0,0,0,125.919,74.43994Z"/><path d="M103.61816,59.45068A46.59033,46.59033,0,0,1,87.96533,52.0874,36.86349,36.86349,0,0,1,77.69824,40.74512l2.60352-1.49024a33.88737,33.88737,0,0,0,9.44287,10.41748,43.56666,43.56666,0,0,0,14.63721,6.877Z"/></svg>