<svg xmlns="http://www.w3.org/2000/svg" viewBox="0 0 200 200" id="mu" data-name="mu"><title>mu</title><path d="M144.27539,147.5c-6.5498,0-10.63672-5.59473-12.6084-8.293-4.50976-6.15723-5.99414-17.53906-6.05566-18.02051q-.0542-.561-.10645-1.11425c-3.59765-.21094-7.2959-.417-10.90722-.42579-5.13965.001-10.249.19043-15.18164.60352-3.32911.27832-6.7002.47168-10.26954.6748-2.41845.13868-4.8706.27833-7.33886.44922l-2.62012.17871c-4.292.291-8.72949.5918-12.94629,1l-.48242-4.97656c4.28906-.415,8.76318-.71875,13.09033-1.01172l2.61426-.17871c2.48828-.17187,4.96-.31347,7.39795-.45215,3.53515-.20214,6.87451-.39257,10.13769-.666,5.07422-.42481,10.335-.61621,15.61036-.6211,3.50488.00879,7.03417.19239,10.47558.39356-.499-6.88867-.63965-13.32813-.48535-21.00293.29394-14.71533,3.833-38.40723,3.9834-39.40869l4.94531.74316c-.03711.24219-3.6416,24.37549-3.93066,38.76563-.1543,7.76416-.00293,14.23486.52148,21.19287.28418.01562.56934.03027.85352.04492a77.69465,77.69465,0,0,1,15.61621,2.21094c2.23437.57617,8.18457,2.1084,10.7539,7.74023,2.88575,6.32715-.44726,13.22461-.83691,13.99024-2.50977,4.92285-7.25977,8.13379-12.10352,8.18261C144.36035,147.499,144.31738,147.5,144.27539,147.5Zm-13.72168-27.13965.02637.26856c.00488.0332,1.37793,10.51367,5.12207,15.626,1.71,2.34082,4.56348,6.24414,8.5791,6.24512.02344,0,.04492-.001.06836-.001,3.00586-.03027,6.02734-2.16992,7.70019-5.45214.02637-.05079,2.6875-5.38282.74415-9.64551-1.39161-3.04981-4.55079-4.22559-7.457-4.97461a72.68808,72.68808,0,0,0-14.62011-2.05762Z"/><path d="M78.458,99.5q-.37208,0-.74512-.0083l.06641-2.999a27.1606,27.1606,0,0,0,11.86181-2.3335A30.301,30.301,0,0,0,99.019,87.38379a14.31762,14.31762,0,0,1-3.77148-2.50733c-1.292-1.208-4.3169-4.03662-4.22949-8.42236a10.54668,10.54668,0,0,1,7.65039-9.60644c3.40478-.91455,8.10107-.0708,9.74267,2.89209,1.11621,2.0122,1.11524,4.85595-.00195,8.22412a29.4979,29.4979,0,0,1-4.22852,7.88183c.47168.0791.94825.13477,1.42579.16651l-.19922,2.99316a17.41477,17.41477,0,0,1-2.9961-.46338c-.09472-.02344-.207-.05078-.335-.08349a33.662,33.662,0,0,1-11.20068,8.43505A29.95044,29.95044,0,0,1,78.458,99.5Zm22.93652-29.999a7.31062,7.31062,0,0,0-7.37744,7.01269c-.06055,3.04834,2.19531,5.15772,3.2793,6.17139a11.65277,11.65277,0,0,0,3.78174,2.31836,27.37536,27.37536,0,0,0,4.48339-7.98389c.82227-2.47851.9043-4.60156.22657-5.82519C105.21582,70.1626,103.32617,69.501,101.39453,69.501Z"/></svg>