<svg xmlns="http://www.w3.org/2000/svg" viewBox="0 0 200 200" id="nav" data-name="nav"><title>nav</title><path d="M75.53418,172.44238l-1.06836-4.88476c12.08691-2.64258,29.73828-8.78614,45.19043-23.04492,12.21387-11.26856,19.62012-23.60352,22.16211-32.0127H75v-5h72.99219l-.53223,2.94531c-1.52344,8.42578-8.83105,23.36524-24.41308,37.74219C106.77148,163.20605,88.22559,169.667,75.53418,172.44238Z"/><path d="M135.06543,161.3457c-5.51953-.5664-16.084-2.65039-24.831-10.24414-6.15723-5.34961-13.00293-19.87207-14.00586-22.582l4.68945-1.73437c1.03613,2.7998,7.60254,16.2041,12.59473,20.542,7.707,6.69043,17.13085,8.53808,22.0625,9.04394Z"/><path d="M80.2207,92.49023l-.4414-4.98046c26.04883-2.30713,38.45508-1.99366,48.03711-1.51954l7.57031.37549c-.0957-4.83349-.23731-15.5459.0625-27.18652.1582-6.15234.78808-13.83887,1.585-23.57031l.47363-5.81006,4.98438.40234-.47461,5.81592c-.79,9.65381-1.415,17.27881-1.57031,23.291-.40137,15.57861-.00391,29.47607,0,29.61474l.0791,2.7041-12.958-.64257C118.15039,90.51807,105.9502,90.21045,80.2207,92.49023Z"/></svg>