<svg xmlns="http://www.w3.org/2000/svg" viewBox="0 0 200 200" id="ne!z&apos;" data-name="ne!z&apos;"><title>ne!z'</title><path d="M143.28027,171.63086c-3.78808-3.58887-19.53711-13.44141-41.5-11.64063-14.05713,1.14747-22.82763,7.626-25.18115,9.584l-3.37793-3.67871.58252-.58985,52.92285-57.00683,3.66407,3.40234L87.40088,158.00684a54.48543,54.48543,0,0,1,13.97314-3.001c23.751-1.93359,41.13477,9.00684,45.34571,12.99609Z"/><path d="M119.959,170.13379l-4.99218-.26758a40.71655,40.71655,0,0,1,3.59375-14.6416,45.84182,45.84182,0,0,1,11.334-15.25586l3.33594,3.72461a40.86708,40.86708,0,0,0-10.11426,13.5918A35.74865,35.74865,0,0,0,119.959,170.13379Z"/><rect x="76" y="15.5" width="70" height="3"/><path d="M80.2207,92.49023l-.4414-4.98046c26.04883-2.30713,38.45508-1.99366,48.03711-1.51954l7.57031.37549c-.0957-4.83349-.23731-15.5459.0625-27.18652.1582-6.15234.78808-13.83887,1.585-23.57031l.47363-5.81006,4.98438.40234-.47461,5.81592c-.79,9.65381-1.415,17.27881-1.57031,23.291-.40137,15.57861-.00391,29.47607,0,29.61474l.0791,2.7041-12.958-.64257C118.15039,90.51807,105.9502,90.21045,80.2207,92.49023Z"/><path d="M110.61328,54.78271a34.20142,34.20142,0,0,1-11.63623-5.5205,27.58394,27.58394,0,0,1-7.65283-8.521l2.6084-1.48242a24.60272,24.60272,0,0,0,6.83154,7.59375,31.231,31.231,0,0,0,10.62256,5.03174Z"/><path d="M96.98486,61.44922a34.21434,34.21434,0,0,1-11.63672-5.51953,27.58451,27.58451,0,0,1-7.65234-8.52246l2.6084-1.48145a24.5989,24.5989,0,0,0,6.83105,7.59375A31.21763,31.21763,0,0,0,97.7583,58.55078Z"/></svg>