<svg xmlns="http://www.w3.org/2000/svg" viewBox="0 0 200 200" id="ni!k" data-name="ni!k"><title>ni!k</title><path d="M101.957,172.5c-10.71631,0-20.4414-2.79395-23.877-6.91211l3.83984-3.20312c1.86279,2.23339,9.624,5.31347,20.96387,5.10742,15.06738-.24707,31.67285-8.416,34.25684-23.55274a28.579,28.579,0,0,0-10.36915-26.49609c-6.75488-5.32227-16.7246-5.40137-23.89843-4.53613-4.69971.56836-12.26905,4.23242-14.78955,5.59668l-2.37989-4.39649c.40381-.21875,9.97266-5.36621,16.56885-6.16406,8.11328-.97852,19.48926-.81152,27.59277,5.57227a33.70837,33.70837,0,0,1,12.20411,31.26562c-3.043,17.82129-21.97461,27.42969-39.10352,27.71094C102.62988,172.49707,102.292,172.5,101.957,172.5Z"/><rect x="76" y="15.5" width="70" height="3"/><path d="M80.2207,92.49023l-.4414-4.98046c26.04883-2.30713,38.45508-1.99366,48.03711-1.51954l7.57031.37549c-.0957-4.83349-.23731-15.5459.0625-27.18652.1582-6.15234.78808-13.83887,1.585-23.57031l.47363-5.81006,4.98438.40234-.47461,5.81592c-.79,9.65381-1.415,17.27881-1.57031,23.291-.40137,15.57861-.00391,29.47607,0,29.61474l.0791,2.7041-12.958-.64257C118.15039,90.51807,105.9502,90.21045,80.2207,92.49023Z"/><path d="M103.61816,59.45068A46.59033,46.59033,0,0,1,87.96533,52.0874,36.86349,36.86349,0,0,1,77.69824,40.74512l2.60352-1.49024a33.88737,33.88737,0,0,0,9.44287,10.41748,43.56666,43.56666,0,0,0,14.63721,6.877Z"/></svg>