<svg data-name="Neliwqiloli itik" xmlns="http://www.w3.org/2000/svg" viewBox="0 0 200 200"><title>n</title><path d="M80.2207,172.49023l-.4414-4.98046c26.05273-2.3086,38.457-1.99512,48.03711-1.51954l7.57031.376c-.0957-4.834-.23731-15.5459.0625-27.18652.1582-6.15235.78808-13.83789,1.585-23.56836l.47363-5.8125,4.98438.40234-.47461,5.81738c-.791,9.65333-1.415,17.27833-1.57031,23.29-.40137,15.57813-.00391,29.47559,0,29.61426l.0791,2.7041-12.958-.64257C118.1543,170.51563,105.95605,170.21,80.2207,172.49023Z"/><rect x="76" y="15.5" width="70" height="3"/><path d="M80.2207,92.49023l-.4414-4.98046c26.04883-2.30713,38.45508-1.99366,48.03711-1.51954l7.57031.37549c-.0957-4.83349-.23731-15.5459.0625-27.18652.1582-6.15234.78808-13.83887,1.585-23.57031l.47363-5.81006,4.98438.40234-.47461,5.81592c-.79,9.65381-1.415,17.27881-1.57031,23.291-.40137,15.57861-.00391,29.47607,0,29.61474l.0791,2.7041-12.958-.64257C118.15039,90.51807,105.9502,90.21045,80.2207,92.49023Z"/><path d="M103.61816,59.45068A46.59033,46.59033,0,0,1,87.96533,52.0874,36.86349,36.86349,0,0,1,77.69824,40.74512l2.60352-1.49024a33.88737,33.88737,0,0,0,9.44287,10.41748,43.56666,43.56666,0,0,0,14.63721,6.877Z"/></svg>