<svg id="Nimanilistli" xmlns="http://www.w3.org/2000/svg" viewBox="0 0 200 200"><title>00169-nimanilistli</title><path d="M147.85546,146.28516c-16.02441-26.74414-29.40722-47.77442-39.77441-62.50537-17.58838-24.99073-22.646-26.27393-23.47168-26.28321-7.937,7.79-23.92725,24.80274-32.78223,34.28223l-3.65429-3.41309c8.92236-9.55078,25.06982-26.73047,32.97558-34.47949a4.542,4.542,0,0,1,1.1001-.82568c3.81738-2.03955,9.95264-.26612,28.82568,26.29248,10.60059,14.917,24.41895,36.57177,41.07031,64.36181Z"/><path d="M99.94433,137.83691c-1.25293-6.97949-2.2334-20.76757,5.28223-34.68652,5.17285-9.57275,23.38379-24.38476,26.709-26.6792l2.83984,4.11524c-3.81738,2.63378-20.63867,16.59375-25.14941,24.93994a48.66,48.66,0,0,0-4.75977,31.42773Z"/></svg>