<svg xmlns="http://www.w3.org/2000/svg" viewBox="0 0 200 200" id="no&apos;" data-name="no&apos;"><title>no'</title><polygon points="61.923 85 58.923 85 58.923 53.5 90.423 53.5 90.423 56.5 61.923 56.5 61.923 85"/><path d="M70.24805,147.4873l-.4961-4.9746c34.70313-3.46,51.21973-2.98926,63.97754-2.27735l10.97754.61231c-.124-6.42578-.36719-23.43946.0586-42.03907.21093-9.19873,1.05078-20.73095,2.11328-35.331l.62793-8.65674,4.98632.3584-.62695,8.66113c-1.05859,14.53125-1.89355,26.00879-2.10254,35.083-.53613,23.41357-.00488,44.29736,0,44.50537l.07031,2.71289-16.38378-.91406C120.88281,144.52734,104.5957,144.06445,70.24805,147.4873Z"/><path d="M92.74561,99.5A16.5,16.5,0,1,1,109.24609,83,16.51867,16.51867,0,0,1,92.74561,99.5Zm0-30A13.5,13.5,0,1,0,106.24609,83,13.51539,13.51539,0,0,0,92.74561,69.5Z"/></svg>