<svg data-name="Jokilqiloli itik" xmlns="http://www.w3.org/2000/svg" viewBox="0 0 200 200"><title>n</title><path d="M108.6416,172.5h-.17969c-9.14013-.04395-16.53711-3.37012-20.83935-9.37695-5.49658-7.67774-7.53809-18.44141-6.06885-31.99219a59.19658,59.19658,0,0,1,6.70752-22.35254l4.36231,2.44336a54.79329,54.79329,0,0,0-6.09913,20.44922c-1.33252,12.291.4043,21.89355,5.16309,28.541,3.35254,4.68067,9.33984,7.26758,16.86426,7.28809,7.52832-.02051,13.51562-2.60645,16.86426-7.28809,4.75976-6.65136,6.49609-16.2539,5.16308-28.542a54.87349,54.87349,0,0,0-6.09961-20.44922l4.36328-2.4414a59.28734,59.28734,0,0,1,6.707,22.35058c1.46973,13.54688-.57128,24.31055-6.06738,31.99219-4.29883,6.00781-11.69531,9.335-20.84082,9.37793Z"/><path d="M144.24414,156.36426a74.757,74.757,0,0,1-18.71-4.93457,62.361,62.361,0,0,1-7.53613-3.72461l2.51953-4.31836a57.44786,57.44786,0,0,0,6.93066,3.42383,69.77893,69.77893,0,0,0,17.46,4.59863Z"/><rect x="76" y="15.5" width="70" height="3"/><path d="M80.2207,92.49023l-.4414-4.98046c26.04883-2.30713,38.45508-1.99366,48.03711-1.51954l7.57031.37549c-.0957-4.83349-.23731-15.5459.0625-27.18652.1582-6.15234.78808-13.83887,1.585-23.57031l.47363-5.81006,4.98438.40234-.47461,5.81592c-.79,9.65381-1.415,17.27881-1.57031,23.291-.40137,15.57861-.00391,29.47607,0,29.61474l.0791,2.7041-12.958-.64257C118.15039,90.51807,105.9502,90.21045,80.2207,92.49023Z"/><path d="M79.5249,63.5q-.27831,0-.55859-.00635l.06738-2.999a19.52445,19.52445,0,0,0,8.5249-1.67578,21.64729,21.64729,0,0,0,6.37305-4.48731,10.70049,10.70049,0,0,1-2.37012-1.66308c-.90136-.84278-3.29638-3.082-3.22851-6.47657a8.14751,8.14751,0,0,1,5.90625-7.42334c2.64355-.708,6.30176-.02783,7.59863,2.313.874,1.57617.88379,3.77246.02832,6.35108a21.484,21.484,0,0,1-2.77246,5.34619q.18237.019.36475.03125l-.20215,2.99316a13.288,13.288,0,0,1-2.2627-.35009l-.01709-.0044A24.998,24.998,0,0,1,88.793,61.55322,22.36265,22.36265,0,0,1,79.5249,63.5ZM96.36572,41.49463a5.2193,5.2193,0,0,0-1.34814.17139A5.12282,5.12282,0,0,0,91.332,46.25146c-.041,2.05713,1.52539,3.522,2.27832,4.22559a8.01962,8.01962,0,0,0,2.37207,1.50879A19.4711,19.4711,0,0,0,99.019,46.48779c.56739-1.71142.63867-3.15136.19532-3.95166A3.51336,3.51336,0,0,0,96.36572,41.49463Z"/></svg>