<svg data-name="Zawilqiloli itik" xmlns="http://www.w3.org/2000/svg" viewBox="0 0 200 200"><title>ny</title><path d="M143.28027,171.63086c-3.78808-3.58887-19.53711-13.44141-41.5-11.64063-14.05713,1.14747-22.82763,7.626-25.18115,9.584l-3.37793-3.67871.58252-.58985,52.92285-57.00683,3.66407,3.40234L87.40088,158.00684a54.48543,54.48543,0,0,1,13.97314-3.001c23.751-1.93359,41.13477,9.00684,45.34571,12.99609Z"/><path d="M119.959,170.13379l-4.99218-.26758a40.71655,40.71655,0,0,1,3.59375-14.6416,45.84182,45.84182,0,0,1,11.334-15.25586l3.33594,3.72461a40.86708,40.86708,0,0,0-10.11426,13.5918A35.74865,35.74865,0,0,0,119.959,170.13379Z"/><rect x="76" y="15.5" width="70" height="3"/><path d="M80.84033,92.49072l-.42578-4.98144c27.00049-2.30664,39.85986-1.99317,49.79053-1.51905l7.9541.38038c-.09961-4.8335-.24707-15.54932.06445-27.19385.165-6.16016.81836-13.85742,1.64551-23.602l.48926-5.78321,4.98242.417-.48926,5.78906c-.82031,9.66406-1.46875,17.29736-1.62988,23.313-.417,15.57568-.00488,29.47119,0,29.60937l.082,2.70264-13.33691-.63818C120.19531,90.51758,107.53613,90.21,80.84033,92.49072Z"/><path d="M154.72949,79.03613a93.71523,93.71523,0,0,1-21.12011-4.90039,75.00824,75.00824,0,0,1-8.50684-3.69824l2.28125-4.44922a70.04374,70.04374,0,0,0,7.93848,3.4502,88.7205,88.7205,0,0,0,19.99121,4.63183Z"/><path d="M110.61328,54.78271a34.20142,34.20142,0,0,1-11.63623-5.5205,27.58394,27.58394,0,0,1-7.65283-8.521l2.6084-1.48242a24.60272,24.60272,0,0,0,6.83154,7.59375,31.231,31.231,0,0,0,10.62256,5.03174Z"/><path d="M96.98486,61.44922a34.21434,34.21434,0,0,1-11.63672-5.51953,27.58451,27.58451,0,0,1-7.65234-8.52246l2.6084-1.48145a24.5989,24.5989,0,0,0,6.83105,7.59375A31.21763,31.21763,0,0,0,97.7583,58.55078Z"/></svg>