<svg xmlns="http://www.w3.org/2000/svg" viewBox="0 0 200 200" id="nye!c" data-name="nye!c"><title>nye!c</title><path d="M84.501,172.44922l-1.002-4.89844a44.73009,44.73009,0,0,0,11.82032-4.10156,14.48846,14.48846,0,0,1-4.97022-5.59766l-.06543-.11914c-.96435-1.72265-2.07666-4.5957-.61474-9.63379a10.74517,10.74517,0,0,1,9.3457-7.75586c6.5918-.49609,11.68945,2.918,12.40625,8.3125.57422,4.32813-1.32227,8.74414-4.99317,12.63184a44.11274,44.11274,0,0,0,6.4375-.54492c6.14258-.917,12.1875-5.09082,16.17286-11.165,4.06054-6.19238,5.43847-13.29883,3.77832-19.499-1.95411-7.30274-8.75684-15.84375-19.07422-17.34278-8.13281-1.17773-14.84033,2.42578-17.34717,4.03028l-2.69629-4.21094c2.97754-1.90723,10.96143-6.19239,20.76221-4.7666,12.624,1.833,20.74121,11.86621,23.18554,20.99707,2.02735,7.57519.41407,16.15234-4.42773,23.53418-4.82422,7.35546-11.97363,12.22754-19.61426,13.36816a36.25654,36.25654,0,0,1-12.53418.07031A46.88367,46.88367,0,0,1,84.501,172.44922ZM100.186,145.29883q-.40064,0-.7959.03027c-3.76319.28125-4.87061,3.99317-4.916,4.15137-1.05127,3.62305-.19385,5.15527.17236,5.81055.05713.10156.106.19043.145.26562a9.56288,9.56288,0,0,0,5.376,4.7832c4.51221-3.54687,6.74658-7.63476,6.29639-11.02636C106.08984,146.49707,103.08594,145.29883,100.186,145.29883Z"/><rect x="76" y="15.5" width="70" height="3"/><path d="M80.84033,92.49072l-.42578-4.98144c27.00049-2.30664,39.85986-1.99317,49.79053-1.51905l7.9541.38038c-.09961-4.8335-.24707-15.54932.06445-27.19385.165-6.16016.81836-13.85742,1.64551-23.602l.48926-5.78321,4.98242.417-.48926,5.78906c-.82031,9.66406-1.46875,17.29736-1.62988,23.313-.417,15.57568-.00488,29.47119,0,29.60937l.082,2.70264-13.33691-.63818C120.19531,90.51758,107.53613,90.21,80.84033,92.49072Z"/><path d="M154.72949,79.03613a93.71523,93.71523,0,0,1-21.12011-4.90039,75.00824,75.00824,0,0,1-8.50684-3.69824l2.28125-4.44922a70.04374,70.04374,0,0,0,7.93848,3.4502,88.7205,88.7205,0,0,0,19.99121,4.63183Z"/><path d="M110.61328,54.78271a34.20142,34.20142,0,0,1-11.63623-5.5205,27.58394,27.58394,0,0,1-7.65283-8.521l2.6084-1.48242a24.60272,24.60272,0,0,0,6.83154,7.59375,31.231,31.231,0,0,0,10.62256,5.03174Z"/><path d="M96.98486,61.44922a34.21434,34.21434,0,0,1-11.63672-5.51953,27.58451,27.58451,0,0,1-7.65234-8.52246l2.6084-1.48145a24.5989,24.5989,0,0,0,6.83105,7.59375A31.21763,31.21763,0,0,0,97.7583,58.55078Z"/></svg>