<svg xmlns="http://www.w3.org/2000/svg" viewBox="0 0 200 200" id="nye!kh" data-name="nye!kh"><title>nye!kh</title><path d="M122.55273,171.02441l-4.56054-2.04882c11.32617-25.20508,16.02246-40.377,8.4209-48.35743-4.373-4.59179-13.4336-5.49609-24.23438-2.418-9.93555,2.83105-14.1001,11.10156-15.84521,17.5498-.65625,4.0498-1.27295,8.61328-1.28125,8.6748l-4.97754-.34375a40.58848,40.58848,0,0,1,1.19922-8.36328c.27343-1.72265.562-3.42382.82763-4.75879,1.4126-7.10351,2.53125-14.25,3.3252-21.24121l4.96777.56446c-.38476,3.3916-.84521,6.82031-1.37646,10.26074a25.30168,25.30168,0,0,1,11.79-7.15137c12.8081-3.65039,23.4624-2.27246,29.22509,3.77735C139.584,127.19531,134.77246,143.832,122.55273,171.02441Z"/><path d="M142.26953,156.36816a87.16265,87.16265,0,0,1-20.31738-4.91113,70.62041,70.62041,0,0,1-8.18555-3.70605l2.35742-4.41016a65.51473,65.51473,0,0,0,7.60352,3.44238,82.17546,82.17546,0,0,0,19.15137,4.62207Z"/><rect x="76" y="15.5" width="70" height="3"/><path d="M80.84033,92.49072l-.42578-4.98144c27.00049-2.30664,39.85986-1.99317,49.79053-1.51905l7.9541.38038c-.09961-4.8335-.24707-15.54932.06445-27.19385.165-6.16016.81836-13.85742,1.64551-23.602l.48926-5.78321,4.98242.417-.48926,5.78906c-.82031,9.66406-1.46875,17.29736-1.62988,23.313-.417,15.57568-.00488,29.47119,0,29.60937l.082,2.70264-13.33691-.63818C120.19531,90.51758,107.53613,90.21,80.84033,92.49072Z"/><path d="M154.72949,79.03613a93.71523,93.71523,0,0,1-21.12011-4.90039,75.00824,75.00824,0,0,1-8.50684-3.69824l2.28125-4.44922a70.04374,70.04374,0,0,0,7.93848,3.4502,88.7205,88.7205,0,0,0,19.99121,4.63183Z"/><path d="M110.61328,54.78271a34.20142,34.20142,0,0,1-11.63623-5.5205,27.58394,27.58394,0,0,1-7.65283-8.521l2.6084-1.48242a24.60272,24.60272,0,0,0,6.83154,7.59375,31.231,31.231,0,0,0,10.62256,5.03174Z"/><path d="M96.98486,61.44922a34.21434,34.21434,0,0,1-11.63672-5.51953,27.58451,27.58451,0,0,1-7.65234-8.52246l2.6084-1.48145a24.5989,24.5989,0,0,0,6.83105,7.59375A31.21763,31.21763,0,0,0,97.7583,58.55078Z"/></svg>