<svg data-name="Pokalqiloli itik" xmlns="http://www.w3.org/2000/svg" viewBox="0 0 200 200"><title>ny</title><path d="M99.06543,172.50586a125.03756,125.03756,0,0,1-14.353-.85449l.5752-4.9668c24.78662,2.86914,43.00928-2.30664,46.3042-8.9707.37695-.75977,2.11523-4.71875-.55274-8.19532-4.5039-5.86914-10.05566-11.35546-20.08593-11.76953-.57618.00782-5.249.08985-6.1709.10645l-.60157.08691-.71484-4.94922.40234-.05761,5.00684-2.28614c16.2373-8.97753,18.63477-13.709,18.35645-14.40039-.01172-.02734-1.4502-2.85644-18.31348-3.585-9.61426-.417-19.03613.08106-20.03858.167l-.4248-4.98242c1.10449-.09375,10.72949-.61816,20.78369-.17578,17.9834.78906,21.541,4,22.63184,6.709,1.23633,3.07226.67383,8.30273-17.18067,18.71679,10.03809,1.57715,16.08887,7.86719,20.31641,13.375a12.75036,12.75036,0,0,1,1.06738,13.458C132.16211,167.83984,117.74707,172.50586,99.06543,172.50586Z"/><path d="M80.84033,92.49072l-.42578-4.98144c27.00049-2.30664,39.85986-1.99317,49.79053-1.51905l7.9541.38038c-.09961-4.8335-.24707-15.54932.06445-27.19385.165-6.16016.81836-13.85742,1.64551-23.602l.48926-5.78321,4.98242.417-.48926,5.78906c-.82031,9.66406-1.46875,17.29736-1.62988,23.313-.417,15.57568-.00488,29.47119,0,29.60937l.082,2.70264-13.33691-.63818C120.19531,90.51758,107.53613,90.21,80.84033,92.49072Z"/><path d="M154.72949,79.03613a93.71523,93.71523,0,0,1-21.12011-4.90039,75.00824,75.00824,0,0,1-8.50684-3.69824l2.28125-4.44922a70.04374,70.04374,0,0,0,7.93848,3.4502,88.7205,88.7205,0,0,0,19.99121,4.63183Z"/><path d="M110.61328,54.78271a34.20142,34.20142,0,0,1-11.63623-5.5205,27.58394,27.58394,0,0,1-7.65283-8.521l2.6084-1.48242a24.60272,24.60272,0,0,0,6.83154,7.59375,31.231,31.231,0,0,0,10.62256,5.03174Z"/><path d="M96.98486,61.44922a34.21434,34.21434,0,0,1-11.63672-5.51953,27.58451,27.58451,0,0,1-7.65234-8.52246l2.6084-1.48145a24.5989,24.5989,0,0,0,6.83105,7.59375A31.21763,31.21763,0,0,0,97.7583,58.55078Z"/></svg>