<svg data-name="Neliwqiloli itik" xmlns="http://www.w3.org/2000/svg" viewBox="0 0 200 200"><title>ny</title><path d="M80.2207,172.49023l-.4414-4.98046c26.05273-2.3086,38.457-1.99512,48.03711-1.51954l7.57031.376c-.0957-4.834-.23731-15.5459.0625-27.18652.1582-6.15235.78808-13.83789,1.585-23.56836l.47363-5.8125,4.98438.40234-.47461,5.81738c-.791,9.65333-1.415,17.27833-1.57031,23.29-.40137,15.57813-.00391,29.47559,0,29.61426l.0791,2.7041-12.958-.64257C118.1543,170.51563,105.95605,170.21,80.2207,172.49023Z"/><rect x="76" y="15.5" width="70" height="3"/><path d="M80.84033,92.49072l-.42578-4.98144c27.00049-2.30664,39.85986-1.99317,49.79053-1.51905l7.9541.38038c-.09961-4.8335-.24707-15.54932.06445-27.19385.165-6.16016.81836-13.85742,1.64551-23.602l.48926-5.78321,4.98242.417-.48926,5.78906c-.82031,9.66406-1.46875,17.29736-1.62988,23.313-.417,15.57568-.00488,29.47119,0,29.60937l.082,2.70264-13.33691-.63818C120.19531,90.51758,107.53613,90.21,80.84033,92.49072Z"/><path d="M154.72949,79.03613a93.71523,93.71523,0,0,1-21.12011-4.90039,75.00824,75.00824,0,0,1-8.50684-3.69824l2.28125-4.44922a70.04374,70.04374,0,0,0,7.93848,3.4502,88.7205,88.7205,0,0,0,19.99121,4.63183Z"/><path d="M103.61816,59.45068A46.59033,46.59033,0,0,1,87.96533,52.0874,36.86349,36.86349,0,0,1,77.69824,40.74512l2.60352-1.49024a33.88737,33.88737,0,0,0,9.44287,10.41748,43.56666,43.56666,0,0,0,14.63721,6.877Z"/></svg>