<svg xmlns="http://www.w3.org/2000/svg" viewBox="0 0 200 200" id="nyi" data-name="nyi"><title>nyi</title><path d="M70.24805,147.4873l-.4961-4.9746c34.70313-3.46,51.21973-2.98926,63.97754-2.27735l10.97754.61231c-.124-6.42578-.36719-23.43946.0586-42.03907.21093-9.19873,1.05078-20.73095,2.11328-35.331l.62793-8.65674,4.98632.3584-.62695,8.66113c-1.05859,14.53125-1.89355,26.00879-2.10254,35.083-.53613,23.41357-.00488,44.29736,0,44.50537l.07031,2.71289-16.38378-.91406C120.88281,144.52734,104.5957,144.06445,70.24805,147.4873Z"/><path d="M165.30957,127.30664a105.95361,105.95361,0,0,1-27.06738-7.32519,89.48742,89.48742,0,0,1-10.876-5.51661l2.56641-4.291a84.38335,84.38335,0,0,0,10.2666,5.20605,100.97912,100.97912,0,0,0,25.79,6.97364Z"/><path d="M106.55664,91.93311A46.66074,46.66074,0,0,1,89.9209,82.73389,44.06811,44.06811,0,0,1,79.08008,68.65674l2.69726-1.31348a41.08616,41.08616,0,0,0,10.10791,13.123,43.628,43.628,0,0,0,15.55811,8.60058Z"/></svg>