<svg xmlns="http://www.w3.org/2000/svg" viewBox="0 0 200 200" id="nyu!g" data-name="nyu!g"><title>nyu!g</title><path d="M102.00195,172.5c-10.71631,0-20.4414-2.79395-23.87695-6.91211l3.83984-3.20312c1.86231,2.23339,9.6128,5.31347,20.96387,5.10742,15.06641-.24707,31.67188-8.416,34.25586-23.55274a28.579,28.579,0,0,0-10.36914-26.49609c-6.75488-5.32227-16.72949-5.40039-23.89844-4.53613-5.65039.68261-14.69824,5.54785-14.78906,5.59765l-2.37939-4.39746c.4038-.21875,9.97216-5.36621,16.56787-6.16406,8.11621-.97852,19.49121-.81055,27.59277,5.57227a33.70834,33.70834,0,0,1,12.2041,31.26562c-3.043,17.82129-21.97461,27.42969-39.10254,27.71094C102.6748,172.49707,102.33691,172.5,102.00195,172.5Z"/><path d="M139.8457,169.4248a42.78148,42.78148,0,0,1-14.05859-6.31347,32.46477,32.46477,0,0,1-9.31445-9.8252l4.28711-2.57226a27.51555,27.51555,0,0,0,7.90234,8.30664,37.7354,37.7354,0,0,0,12.40234,5.55469Z"/><rect x="76" y="15.5" width="70" height="3"/><path d="M80.84033,92.49072l-.42578-4.98144c27.00049-2.30664,39.85986-1.99317,49.79053-1.51905l7.9541.38038c-.09961-4.8335-.24707-15.54932.06445-27.19385.165-6.16016.81836-13.85742,1.64551-23.602l.48926-5.78321,4.98242.417-.48926,5.78906c-.82031,9.66406-1.46875,17.29736-1.62988,23.313-.417,15.57568-.00488,29.47119,0,29.60937l.082,2.70264-13.33691-.63818C120.19531,90.51758,107.53613,90.21,80.84033,92.49072Z"/><path d="M154.72949,79.03613a93.71523,93.71523,0,0,1-21.12011-4.90039,75.00824,75.00824,0,0,1-8.50684-3.69824l2.28125-4.44922a70.04374,70.04374,0,0,0,7.93848,3.4502,88.7205,88.7205,0,0,0,19.99121,4.63183Z"/><path d="M79.5249,63.5q-.27831,0-.55859-.00635l.06738-2.999a19.52445,19.52445,0,0,0,8.5249-1.67578,21.64729,21.64729,0,0,0,6.37305-4.48731,10.70049,10.70049,0,0,1-2.37012-1.66308c-.90136-.84278-3.29638-3.082-3.22851-6.47657a8.14751,8.14751,0,0,1,5.90625-7.42334c2.64355-.708,6.30176-.02783,7.59863,2.313.874,1.57617.88379,3.77246.02832,6.35108a21.484,21.484,0,0,1-2.77246,5.34619q.18237.019.36475.03125l-.20215,2.99316a13.288,13.288,0,0,1-2.2627-.35009l-.01709-.0044A24.998,24.998,0,0,1,88.793,61.55322,22.36265,22.36265,0,0,1,79.5249,63.5ZM96.36572,41.49463a5.2193,5.2193,0,0,0-1.34814.17139A5.12282,5.12282,0,0,0,91.332,46.25146c-.041,2.05713,1.52539,3.522,2.27832,4.22559a8.01962,8.01962,0,0,0,2.37207,1.50879A19.4711,19.4711,0,0,0,99.019,46.48779c.56739-1.71142.63867-3.15136.19532-3.95166A3.51336,3.51336,0,0,0,96.36572,41.49463Z"/></svg>