<svg xmlns="http://www.w3.org/2000/svg" viewBox="0 0 200 200"><title>n</title><path d="M70.24805,147.4873l-.4961-4.9746c34.70313-3.46,51.21973-2.98926,63.97754-2.27735l10.97754.61231c-.124-6.42578-.36719-23.43946.0586-42.03907.21093-9.19873,1.05078-20.73095,2.11328-35.331l.62793-8.65674,4.98632.3584-.62695,8.66113c-1.05859,14.53125-1.89355,26.00879-2.10254,35.083-.53613,23.41357-.00488,44.29736,0,44.50537l.07031,2.71289-16.38378-.91406C120.88281,144.52734,104.5957,144.06445,70.24805,147.4873Z"/><polygon points="108.937 98.5 77.437 98.5 77.437 67 80.437 67 80.437 95.5 108.937 95.5 108.937 98.5"/></svg>