<svg xmlns="http://www.w3.org/2000/svg" viewBox="0 0 200 200" id="o!z&apos;" data-name="o!z&apos;"><title>o!z'</title><path d="M143.28027,171.63086c-3.78808-3.58887-19.53711-13.44141-41.5-11.64063-14.05713,1.14747-22.82763,7.626-25.18115,9.584l-3.37793-3.67871.58252-.58985,52.92285-57.00683,3.66407,3.40234L87.40088,158.00684a54.48543,54.48543,0,0,1,13.97314-3.001c23.751-1.93359,41.13477,9.00684,45.34571,12.99609Z"/><path d="M119.959,170.13379l-4.99218-.26758a40.71655,40.71655,0,0,1,3.59375-14.6416,45.84182,45.84182,0,0,1,11.334-15.25586l3.33594,3.72461a40.86708,40.86708,0,0,0-10.11426,13.5918A35.74865,35.74865,0,0,0,119.959,170.13379Z"/><path d="M109.999,92.5a32.5,32.5,0,1,1,32.5-32.5A32.53658,32.53658,0,0,1,109.999,92.5Zm0-60a27.5,27.5,0,1,0,27.5,27.5A27.531,27.531,0,0,0,109.999,32.5Z"/><rect x="85.5" y="15.5" width="47" height="3"/></svg>