<svg data-name="Otonqiloli akopa" xmlns="http://www.w3.org/2000/svg" viewBox="0 0 200 200"><title>o</title><path d="M109.999,92.5a32.5,32.5,0,1,1,32.5-32.5A32.53658,32.53658,0,0,1,109.999,92.5Zm0-60a27.5,27.5,0,1,0,27.5,27.5A27.531,27.531,0,0,0,109.999,32.5Z"/><path d="M75.53418,172.44238l-1.06836-4.88476c12.08691-2.64258,29.73828-8.78614,45.19043-23.04492,12.21387-11.26856,19.62012-23.60352,22.16211-32.0127H75v-5h72.99219l-.53223,2.94531c-1.52344,8.42578-8.83105,23.36524-24.41308,37.74219C106.77148,163.20605,88.22559,169.667,75.53418,172.44238Z"/></svg>