<svg xmlns="http://www.w3.org/2000/svg" viewBox="0 0 200 200" id="oq" data-name="oq"><title>oq</title><path d="M109.999,92.5a32.5,32.5,0,1,1,32.5-32.5A32.53658,32.53658,0,0,1,109.999,92.5Zm0-60a27.5,27.5,0,1,0,27.5,27.5A27.531,27.531,0,0,0,109.999,32.5Z"/><path d="M84.5752,171.93945l-2.58008-4.2832c.34521-.208.8374-.47754,1.44677-.80957,5.30176-2.88867,19.38526-10.56152,19.47608-25.13281.084-13.63672-16.12451-25.73242-23.98731-29.4541l2.05713-4.55664c2.063.88769,42.21826,18.36914,56.51221,39.46191V110h5v60h-5v-8.67285c.00195-13.25684-19.37793-27.84277-36.9375-38.04883,4.334,5.44043,7.39648,11.77832,7.35547,18.4668-.10938,17.51953-16.64893,26.53125-22.084,29.49218C85.3042,171.52637,84.87549,171.75879,84.5752,171.93945Z"/></svg>