<svg xmlns="http://www.w3.org/2000/svg" viewBox="0 0 200 200" id="os" data-name="os"><title>os</title><path d="M109.999,92.5a32.5,32.5,0,1,1,32.5-32.5A32.53658,32.53658,0,0,1,109.999,92.5Zm0-60a27.5,27.5,0,1,0,27.5,27.5A27.531,27.531,0,0,0,109.999,32.5Z"/><path d="M143.27832,171.8125c-3.79-3.60059-19.54394-13.46875-41.49707-11.67773-14.05713,1.15234-22.82617,7.64941-25.1792,9.61328l-3.38379-3.67285.58252-.5918,52.92285-57.18164,3.66992,3.39648L87.3833,158.168a54.31184,54.31184,0,0,1,13.98975-3.01563c23.76465-1.95117,41.13769,9.03418,45.34863,13.03516Z"/></svg>