<svg xmlns="http://www.w3.org/2000/svg" viewBox="0 0 200 200" id="oz" data-name="oz"><title>oz</title><path d="M109.999,92.5a32.5,32.5,0,1,1,32.5-32.5A32.53658,32.53658,0,0,1,109.999,92.5Zm0-60a27.5,27.5,0,1,0,27.5,27.5A27.531,27.531,0,0,0,109.999,32.5Z"/><path d="M143.27832,171.8125c-3.79-3.60059-19.54394-13.46875-41.49707-11.67773-14.05713,1.15234-22.82617,7.64941-25.1792,9.61328l-3.38379-3.67285.86719-.83985C108.75,139.30957,123.20508,121.30078,125.669,112.5H75v-5h56.05859V110c0,9.92676-13.48339,26.43359-37.58691,46.37695a55.16344,55.16344,0,0,1,7.90137-1.22461c23.76465-1.95117,41.13769,9.03418,45.34863,13.03516Z"/></svg>