<svg data-name="Xocilqiloli itik" xmlns="http://www.w3.org/2000/svg" viewBox="0 0 200 200"><title>p</title><path d="M110.50488,172.46777a28.73186,28.73186,0,0,1-17.25049-5.68457,22.88825,22.88825,0,0,1-5.11279-5.25586c-5.957-8.5625-5.93506-20.95312-3.27051-29.43359,1.98682-6.32422,5.40821-10.668,9.63379-12.23047,5.82715-2.15039,13.76075,1.02832,18.0625,7.23633,5.043,7.27344,2.65332,15.874,1.75391,19.11133-2.63281,9.50488-9.55762,16.05078-13.793,19.13281,6.24316,2.85254,13.77051,2.93945,19.35156-.0752,5.94336-3.21191,12.82032-11.91894,11.83594-35.16015a57.35131,57.35131,0,0,0-4.19922-19.16992l4.63477-1.877a62.35885,62.35885,0,0,1,4.56054,20.83106c.87793,20.73633-3.98535,34.11719-14.45507,39.77441A24.78523,24.78523,0,0,1,110.50488,172.46777ZM98.52148,124.168a6.57207,6.57207,0,0,0-2.28418.38574c-2.70019.99805-5.105,4.293-6.59619,9.03809-2.22363,7.0791-2.35742,17.94726,2.605,25.08008a17.53665,17.53665,0,0,0,3.59473,3.791c2.62158-1.47851,10.92773-7.71484,13.6543-17.55762.80468-2.89843,2.66992-9.61132-1.03711-14.957C106.0166,126.4248,101.95605,124.168,98.52148,124.168Z"/><path d="M99.06348,92.50635a125.11538,125.11538,0,0,1-14.35108-.85449l.5752-4.9668c24.7876,2.87012,43.00928-2.30664,46.3042-8.97119.376-.75928,2.11425-4.72022-.55274-8.1958-4.5039-5.86963-10.05566-11.356-20.08691-11.76856-.57324.00635-5.24317.08887-6.169.105l-.59961.0874-.7207-4.94726.40332-.05908,5.00879-2.28614c16.23828-8.97753,18.63477-13.70947,18.35645-14.40039-.01172-.02783-1.4502-2.85644-18.31446-3.58545-9.60693-.41406-19.03467.08155-20.03808.167l-.42383-4.98243c1.10644-.09277,10.73877-.61474,20.7832-.17529,17.9834.78955,21.541,4,22.63184,6.709,1.23633,3.07177.67383,8.30273-17.18067,18.71679,10.03809,1.57764,16.08887,7.8667,20.31641,13.37549a12.75055,12.75055,0,0,1,1.06738,13.457C132.16211,87.84033,117.74805,92.50586,99.06348,92.50635Z"/></svg>