<svg data-name="Hekalqilotontli 2b" xmlns="http://www.w3.org/2000/svg" viewBox="0 0 200 200"><title>p</title><polygon points="31.173 84.25 28.173 84.25 28.173 52.75 59.673 52.75 59.673 55.75 31.173 55.75 31.173 84.25"/><path d="M96.56543,147.47754a118.52584,118.52584,0,0,1-16.92334-1.25l.71582-4.94922c27.17236,3.93457,51.21143-2.07129,55.91748-13.96484.51074-1.29395,2.87793-8.05469-.7793-14.01172-5.22754-8.51563-12.209-17.3003-24.35546-17.92774-.7002.01075-6.26758.1333-7.39161.15821l-.71386.12939-.89453-4.91894.48828-.08887L108.668,87.208c18.09375-12.50391,23.38379-20.45508,22.41308-23.46778-.26074-.81054-2.56054-4.90722-22.26367-5.98828a201.27355,201.27355,0,0,0-24.15185.24317l-.5293-4.97168c.47266-.0503,47.47315-3.95655,51.70459,9.18408,2.10254,6.52686-5.67383,16.03369-23.11621,28.26855,13.626,1.26514,21.30664,10.88331,27.0332,20.21045,4.90137,7.9834,1.832,16.78321,1.167,18.46582C136.39746,140.59375,118.82617,147.47754,96.56543,147.47754Z"/><path d="M76.55615,91.93311A46.66279,46.66279,0,0,1,59.9209,82.73389,44.06811,44.06811,0,0,1,49.08008,68.65674l2.69726-1.31348a41.08616,41.08616,0,0,0,10.10791,13.123,43.62192,43.62192,0,0,0,15.5586,8.60058Z"/></svg>