<svg data-name="Limonqiloli itik" xmlns="http://www.w3.org/2000/svg" viewBox="0 0 200 200"><title>q</title><path d="M104.13867,172.36426l-1.625-4.72852c17.90528-6.15039,26.23828-13.28808,28.06738-17.917a4.44522,4.44522,0,0,0-.0625-3.90039c-1.49316-2.81738-6.19433-4.97656-8.47167-5.72461-9.18946-3.02246-22.11084-1.07129-29.29346,2.56055-3.13623,1.584-3.937,3.27343-3.94483,3.29l-4.7373-1.55079c.08057-.33007,2.18164-8.40722,20.166-35.7666l4.17774,2.7461c-8.0127,12.19043-12.78467,20.43066-15.59912,25.7666,8.228-3.36133,20.96045-5.02832,30.7915-1.7959,1.41895.46582,8.63379,3.04883,11.3291,8.13281a9.41069,9.41069,0,0,1,.29493,8.08008C132.28906,159.00293,120.95605,166.58789,104.13867,172.36426Z"/><rect x="90.5" y="15.5" width="43" height="3"/><path d="M84.5752,91.939l-2.58008-4.2832c.34521-.208.8374-.47754,1.44677-.80957,5.30225-2.88818,19.38526-10.561,19.47608-25.13183.084-13.63623-16.12451-25.73291-23.98731-29.45459l2.05713-4.55616c2.063.88721,42.21826,18.36817,56.51221,39.46192V30h5V90h-5V81.32764c.00195-13.26807-19.38379-27.854-36.94482-38.05762,4.3374,5.44189,7.4038,11.78369,7.36279,18.47559C107.80859,79.26514,91.269,88.27588,85.834,91.23682,85.3042,91.52539,84.87549,91.75781,84.5752,91.939Z"/></svg>