<svg xmlns="http://www.w3.org/2000/svg" viewBox="0 0 200 200" id="qe" data-name="qe"><title>qe</title><path d="M78.98779,146.70313l-2.98144-4.01368c.416-.30859,1.00879-.709,1.74316-1.20215,6.58057-4.42089,24.061-16.1621,24.17529-38.90527.10743-21.16894-19.95312-39.74414-29.68505-45.42285l2.43164-4.36768c2.54443,1.34961,53.062,28.46,69.32861,60.35889V55h5v90h-5V131.99121c.00293-22.834-28.03027-46.35791-49.03467-60.77783,6.79053,8.8623,12.01807,19.78857,11.95947,31.394-.12792,25.3916-19.89257,38.668-26.3872,43.03028C79.88525,146.07617,79.35742,146.42871,78.98779,146.70313Z"/><path d="M86.40332,92.07764a45.53114,45.53114,0,0,1-16.46387-9.2793,44.25592,44.25592,0,0,1-10.72461-14.186l2.707-1.29394a41.26889,41.26889,0,0,0,10.00146,13.23,42.5635,42.5635,0,0,0,15.38721,8.66992Z"/><path d="M66.90186,103.419a45.52892,45.52892,0,0,1-16.46436-9.2793,44.25592,44.25592,0,0,1-10.72461-14.186l2.707-1.29394a41.26906,41.26906,0,0,0,10.00147,13.23,42.554,42.554,0,0,0,15.38672,8.66992Z"/></svg>