<svg data-name="Hekalqiloli itik" xmlns="http://www.w3.org/2000/svg" viewBox="0 0 200 200"><title>q</title><path d="M124.94434,171.02441l-4.56055-2.04882c11.31641-25.20508,16.00976-40.377,8.41406-48.3584-4.37109-4.59082-13.41992-5.49512-24.21-2.417-9.92578,2.83105-14.08643,11.10058-15.83008,17.54785-.65576,4.05078-1.272,8.61523-1.28027,8.67675L82.5,144.08105a40.62313,40.62313,0,0,1,1.19824-8.36328c.27344-1.72265.562-3.42285.82715-4.75879,1.40967-7.09375,2.52734-14.24023,3.32227-21.24121l4.96777.56446c-.38477,3.39257-.84424,6.81836-1.375,10.25586a25.28158,25.28158,0,0,1,11.77637-7.14649c12.7998-3.65137,23.44433-2.27344,29.20215,3.77832C141.96094,127.19531,137.15332,143.832,124.94434,171.02441Z"/><rect x="90.5" y="15.5" width="43" height="3"/><path d="M84.5752,91.939l-2.58008-4.2832c.34521-.208.8374-.47754,1.44677-.80957,5.30225-2.88818,19.38526-10.561,19.47608-25.13183.084-13.63623-16.12451-25.73291-23.98731-29.45459l2.05713-4.55616c2.063.88721,42.21826,18.36817,56.51221,39.46192V30h5V90h-5V81.32764c.00195-13.26807-19.38379-27.854-36.94482-38.05762,4.3374,5.44189,7.4038,11.78369,7.36279,18.47559C107.80859,79.26514,91.269,88.27588,85.834,91.23682,85.3042,91.52539,84.87549,91.75781,84.5752,91.939Z"/><path d="M78.61816,59.45068A46.59033,46.59033,0,0,1,62.96533,52.0874,36.86349,36.86349,0,0,1,52.69824,40.74512l2.60352-1.49024a33.88737,33.88737,0,0,0,9.44287,10.41748,43.56666,43.56666,0,0,0,14.63721,6.877Z"/></svg>