<svg xmlns="http://www.w3.org/2000/svg" viewBox="0 0 200 200" id="qis" data-name="qis"><title>qis</title><path d="M143.27832,171.8125c-3.79-3.60059-19.54394-13.46875-41.49707-11.67773-14.05713,1.15234-22.82617,7.64941-25.1792,9.61328l-3.38379-3.67285.58252-.5918,52.92285-57.18164,3.66992,3.39648L87.3833,158.168a54.31184,54.31184,0,0,1,13.98975-3.01563c23.76465-1.95117,41.13769,9.03418,45.34863,13.03516Z"/><path d="M84.5752,91.939l-2.58008-4.2832c.34521-.208.8374-.47754,1.44677-.80957,5.30225-2.88818,19.38526-10.561,19.47608-25.13183.084-13.63623-16.12451-25.73291-23.98731-29.45459l2.05713-4.55616c2.063.88721,42.21826,18.36817,56.51221,39.46192V30h5V90h-5V81.32764c.00195-13.26807-19.38379-27.854-36.94482-38.05762,4.3374,5.44189,7.4038,11.78369,7.36279,18.47559C107.80859,79.26514,91.269,88.27588,85.834,91.23682,85.3042,91.52539,84.87549,91.75781,84.5752,91.939Z"/><path d="M78.61816,59.45068A46.59033,46.59033,0,0,1,62.96533,52.0874,36.86349,36.86349,0,0,1,52.69824,40.74512l2.60352-1.49024a33.88737,33.88737,0,0,0,9.44287,10.41748,43.56666,43.56666,0,0,0,14.63721,6.877Z"/></svg>