<svg data-name="Hekalqilotontli 5" xmlns="http://www.w3.org/2000/svg" viewBox="0 0 200 200"><title>q</title><polygon points="27.923 85 24.923 85 24.923 53.5 56.423 53.5 56.423 56.5 27.923 56.5 27.923 85"/><rect x="83.34277" y="38.5" width="60" height="3"/><path d="M78.98779,146.70313l-2.98144-4.01368c.416-.30859,1.00879-.709,1.74316-1.20215,6.58057-4.42089,24.061-16.1621,24.17529-38.90527.10743-21.16894-19.95312-39.74414-29.68505-45.42285l2.43164-4.36768c2.54443,1.34961,53.062,28.46,69.32861,60.35889V55h5v90h-5V131.99121c.00293-22.834-28.03027-46.35791-49.03467-60.77783,6.79053,8.8623,12.01807,19.78857,11.95947,31.394-.12792,25.3916-19.89257,38.668-26.3872,43.03028C79.88525,146.07617,79.35742,146.42871,78.98779,146.70313Z"/><path d="M62.74561,99.5a16.5,16.5,0,1,1,16.5-16.5A16.51867,16.51867,0,0,1,62.74561,99.5Zm0-30a13.5,13.5,0,1,0,13.5,13.5A13.51539,13.51539,0,0,0,62.74561,69.5Z"/></svg>