<svg data-name="Pokalqiloli itik" xmlns="http://www.w3.org/2000/svg" viewBox="0 0 200 200"><title>q</title><path d="M99.06543,172.50586a125.03756,125.03756,0,0,1-14.353-.85449l.5752-4.9668c24.78662,2.86914,43.00928-2.30664,46.3042-8.9707.37695-.75977,2.11523-4.71875-.55274-8.19532-4.5039-5.86914-10.05566-11.35546-20.08593-11.76953-.57618.00782-5.249.08985-6.1709.10645l-.60157.08691-.71484-4.94922.40234-.05761,5.00684-2.28614c16.2373-8.97753,18.63477-13.709,18.35645-14.40039-.01172-.02734-1.4502-2.85644-18.31348-3.585-9.61426-.417-19.03613.08106-20.03858.167l-.4248-4.98242c1.10449-.09375,10.72949-.61816,20.78369-.17578,17.9834.78906,21.541,4,22.63184,6.709,1.23633,3.07226.67383,8.30273-17.18067,18.71679,10.03809,1.57715,16.08887,7.86719,20.31641,13.375a12.75036,12.75036,0,0,1,1.06738,13.458C132.16211,167.83984,117.74707,172.50586,99.06543,172.50586Z"/><rect x="90.5" y="15.5" width="43" height="3"/><path d="M84.5752,91.939l-2.58008-4.2832c.34521-.208.8374-.47754,1.44677-.80957,5.30225-2.88818,19.38526-10.561,19.47608-25.13183.084-13.63623-16.12451-25.73291-23.98731-29.45459l2.05713-4.55616c2.063.88721,42.21826,18.36817,56.51221,39.46192V30h5V90h-5V81.32764c.00195-13.26807-19.38379-27.854-36.94482-38.05762,4.3374,5.44189,7.4038,11.78369,7.36279,18.47559C107.80859,79.26514,91.269,88.27588,85.834,91.23682,85.3042,91.52539,84.87549,91.75781,84.5752,91.939Z"/><path d="M65,63.5A12.5,12.5,0,1,1,77.5,51,12.51408,12.51408,0,0,1,65,63.5Zm0-22A9.5,9.5,0,1,0,74.5,51,9.51081,9.51081,0,0,0,65,41.5Z"/></svg>