<svg xmlns="http://www.w3.org/2000/svg" viewBox="0 0 200 200" id="qoq" data-name="qoq"><title>qoq</title><path d="M84.5752,171.93945l-2.58008-4.2832c.34521-.208.8374-.47754,1.44677-.80957,5.30176-2.88867,19.38526-10.56152,19.47608-25.13281.084-13.63672-16.12451-25.73242-23.98731-29.4541l2.05713-4.55664c2.063.88769,42.21826,18.36914,56.51221,39.46191V110h5v60h-5v-8.67285c.00195-13.25684-19.37793-27.84277-36.9375-38.04883,4.334,5.44043,7.39648,11.77832,7.35547,18.4668-.10938,17.51953-16.64893,26.53125-22.084,29.49218C85.3042,171.52637,84.87549,171.75879,84.5752,171.93945Z"/><path d="M84.5752,91.939l-2.58008-4.2832c.34521-.208.8374-.47754,1.44677-.80957,5.30225-2.88818,19.38526-10.561,19.47608-25.13183.084-13.63623-16.12451-25.73291-23.98731-29.45459l2.05713-4.55616c2.063.88721,42.21826,18.36817,56.51221,39.46192V30h5V90h-5V81.32764c.00195-13.26807-19.38379-27.854-36.94482-38.05762,4.3374,5.44189,7.4038,11.78369,7.36279,18.47559C107.80859,79.26514,91.269,88.27588,85.834,91.23682,85.3042,91.52539,84.87549,91.75781,84.5752,91.939Z"/><path d="M65,63.5A12.5,12.5,0,1,1,77.5,51,12.51408,12.51408,0,0,1,65,63.5Zm0-22A9.5,9.5,0,1,0,74.5,51,9.51081,9.51081,0,0,0,65,41.5Z"/></svg>