<svg xmlns="http://www.w3.org/2000/svg" viewBox="0 0 200 200" id="qu&apos;" data-name="qu&apos;"><title>qu'</title><polygon points="27.923 85 24.923 85 24.923 53.5 56.423 53.5 56.423 56.5 27.923 56.5 27.923 85"/><path d="M78.98779,146.70313l-2.98144-4.01368c.416-.30859,1.00879-.709,1.74316-1.20215,6.58057-4.42089,24.061-16.1621,24.17529-38.90527.10743-21.16894-19.95312-39.74414-29.68505-45.42285l2.43164-4.36768c2.54443,1.34961,53.062,28.46,69.32861,60.35889V55h5v90h-5V131.99121c.00293-22.834-28.03027-46.35791-49.03467-60.77783,6.79053,8.8623,12.01807,19.78857,11.95947,31.394-.12792,25.3916-19.89257,38.668-26.3872,43.03028C79.88525,146.07617,79.35742,146.42871,78.98779,146.70313Z"/><path d="M48.458,99.5q-.37207,0-.74512-.0083l.06641-2.999a27.16618,27.16618,0,0,0,11.86181-2.3335,30.29884,30.29884,0,0,0,9.37744-6.77539,14.31583,14.31583,0,0,1-3.771-2.50733c-1.292-1.208-4.3169-4.03662-4.22949-8.42236a10.54668,10.54668,0,0,1,7.65039-9.60644c3.40478-.915,8.10107-.06983,9.74365,2.89209,1.11523,2.0122,1.11475,4.85595-.00293,8.22412a29.5119,29.5119,0,0,1-4.22852,7.88183c.47168.0791.94825.13477,1.42481.16651l-.19824,2.99316a17.40184,17.40184,0,0,1-2.99561-.46338c-.09521-.02344-.208-.05078-.33594-.08349a33.655,33.655,0,0,1-11.20019,8.43505A29.95044,29.95044,0,0,1,48.458,99.5ZM71.395,69.501a7.31065,7.31065,0,0,0-7.37793,7.01269c-.06055,3.04834,2.19531,5.15772,3.2793,6.17139a11.64771,11.64771,0,0,0,3.78174,2.31836A27.40257,27.40257,0,0,0,75.562,77.019c.82227-2.478.90479-4.60107.22608-5.82519C75.21631,70.16211,73.32715,69.501,71.395,69.501Z"/></svg>