<svg xmlns="http://www.w3.org/2000/svg" viewBox="0 0 200 200" id="qud" data-name="qud"><title>qud</title><path d="M117.78223,171.75293a37.41933,37.41933,0,0,1-.30957-52.40527,36.38069,36.38069,0,0,1,6.99707-5.55274c-10.89453.84278-26.78662,2.22754-49.21827,4.49512l-.50292-4.97461c53.4331-5.40234,69.49169-5.7998,70.19482-5.81445h.00391l.10644,4.998c-.13769.00391-14.33691.46973-24.00879,10.34668a32.64506,32.64506,0,0,0-9.01562,25.20508,33.34127,33.34127,0,0,0,9.31738,20.19629Z"/><path d="M125.0498,143.33594c-7.91894,0-15.86816-.36426-23.70214-1.08789-4.74659-.4375-9.5376-1.0166-14.23975-1.71875l.73926-4.94532c4.60986.68946,9.30664,1.25586,13.95947,1.68555a254.37569,254.37569,0,0,0,28.51172,1.01172l.10547,4.99805Q127.74024,143.33642,125.0498,143.33594Z"/><path d="M84.5752,91.939l-2.58008-4.2832c.34521-.208.8374-.47754,1.44677-.80957,5.30225-2.88818,19.38526-10.561,19.47608-25.13183.084-13.63623-16.12451-25.73291-23.98731-29.45459l2.05713-4.55616c2.063.88721,42.21826,18.36817,56.51221,39.46192V30h5V90h-5V81.32764c.00195-13.26807-19.38379-27.854-36.94482-38.05762,4.3374,5.44189,7.4038,11.78369,7.36279,18.47559C107.80859,79.26514,91.269,88.27588,85.834,91.23682,85.3042,91.52539,84.87549,91.75781,84.5752,91.939Z"/><path d="M54.5249,63.5q-.27831,0-.55859-.00635l.06738-2.999a19.53846,19.53846,0,0,0,8.5249-1.67578,21.64729,21.64729,0,0,0,6.373-4.48731,10.70049,10.70049,0,0,1-2.37012-1.66308c-.90136-.84278-3.29638-3.082-3.22851-6.47657a8.14751,8.14751,0,0,1,5.90625-7.42334c2.64355-.708,6.30176-.02783,7.59912,2.313.87353,1.57666.8833,3.773.02734,6.35157a21.49515,21.49515,0,0,1-2.772,5.3457q.18164.019.36475.03125l-.20215,2.99316a13.288,13.288,0,0,1-2.2627-.35009l-.01709-.0044A25.0031,25.0031,0,0,1,63.793,61.55322,22.36265,22.36265,0,0,1,54.5249,63.5ZM71.36572,41.49463a5.2193,5.2193,0,0,0-1.34814.17139A5.12282,5.12282,0,0,0,66.332,46.25146c-.041,2.05713,1.52539,3.522,2.27832,4.22559a8.0296,8.0296,0,0,0,2.37207,1.50879,19.46658,19.46658,0,0,0,3.03613-5.49756c.56788-1.71142.63916-3.15185.19581-3.95215A3.51336,3.51336,0,0,0,71.36572,41.49463Z"/></svg>