<svg xmlns="http://www.w3.org/2000/svg" viewBox="0 0 200 200" id="quj" data-name="quj"><title>quj</title><path d="M108.6416,172.5h-.17969c-9.14013-.04395-16.53711-3.37012-20.83935-9.37695-5.49658-7.67774-7.53809-18.44141-6.06885-31.99219a59.19658,59.19658,0,0,1,6.70752-22.35254l4.36231,2.44336a54.79329,54.79329,0,0,0-6.09913,20.44922c-1.33252,12.291.4043,21.89355,5.16309,28.541,3.35254,4.68067,9.33984,7.26758,16.86426,7.28809,7.52832-.02051,13.51562-2.60645,16.86426-7.28809,4.75976-6.65136,6.49609-16.2539,5.16308-28.542a54.87349,54.87349,0,0,0-6.09961-20.44922l4.36328-2.4414a59.28734,59.28734,0,0,1,6.707,22.35058c1.46973,13.54688-.57128,24.31055-6.06738,31.99219-4.29883,6.00781-11.69531,9.335-20.84082,9.37793Z"/><path d="M144.24414,156.36426a74.757,74.757,0,0,1-18.71-4.93457,62.361,62.361,0,0,1-7.53613-3.72461l2.51953-4.31836a57.44786,57.44786,0,0,0,6.93066,3.42383,69.77893,69.77893,0,0,0,17.46,4.59863Z"/><path d="M84.5752,91.939l-2.58008-4.2832c.34521-.208.8374-.47754,1.44677-.80957,5.30225-2.88818,19.38526-10.561,19.47608-25.13183.084-13.63623-16.12451-25.73291-23.98731-29.45459l2.05713-4.55616c2.063.88721,42.21826,18.36817,56.51221,39.46192V30h5V90h-5V81.32764c.00195-13.26807-19.38379-27.854-36.94482-38.05762,4.3374,5.44189,7.4038,11.78369,7.36279,18.47559C107.80859,79.26514,91.269,88.27588,85.834,91.23682,85.3042,91.52539,84.87549,91.75781,84.5752,91.939Z"/><path d="M54.5249,63.5q-.27831,0-.55859-.00635l.06738-2.999a19.53846,19.53846,0,0,0,8.5249-1.67578,21.64729,21.64729,0,0,0,6.373-4.48731,10.70049,10.70049,0,0,1-2.37012-1.66308c-.90136-.84278-3.29638-3.082-3.22851-6.47657a8.14751,8.14751,0,0,1,5.90625-7.42334c2.64355-.708,6.30176-.02783,7.59912,2.313.87353,1.57666.8833,3.773.02734,6.35157a21.49515,21.49515,0,0,1-2.772,5.3457q.18164.019.36475.03125l-.20215,2.99316a13.288,13.288,0,0,1-2.2627-.35009l-.01709-.0044A25.0031,25.0031,0,0,1,63.793,61.55322,22.36265,22.36265,0,0,1,54.5249,63.5ZM71.36572,41.49463a5.2193,5.2193,0,0,0-1.34814.17139A5.12282,5.12282,0,0,0,66.332,46.25146c-.041,2.05713,1.52539,3.522,2.27832,4.22559a8.0296,8.0296,0,0,0,2.37207,1.50879,19.46658,19.46658,0,0,0,3.03613-5.49756c.56788-1.71142.63916-3.15185.19581-3.95215A3.51336,3.51336,0,0,0,71.36572,41.49463Z"/></svg>