<svg data-name="Verolqiloli itik" xmlns="http://www.w3.org/2000/svg" viewBox="0 0 200 200"><title>r</title><path d="M75.53418,172.44238l-1.06836-4.88476c12.08691-2.64258,29.73828-8.78614,45.19043-23.04492,12.21387-11.26856,19.62012-23.60352,22.16211-32.0127H75v-5h72.99219l-.53223,2.94531c-1.52344,8.42578-8.83105,23.36524-24.41308,37.74219C106.77148,163.20605,88.22559,169.667,75.53418,172.44238Z"/><path d="M135.06543,161.3457c-5.51953-.5664-16.084-2.65039-24.831-10.24414-6.15723-5.34961-13.00293-19.87207-14.00586-22.582l4.68945-1.73437c1.03613,2.7998,7.60254,16.2041,12.59473,20.542,7.707,6.69043,17.13085,8.53808,22.0625,9.04394Z"/><rect x="90.5" y="15.5" width="43" height="3"/><path d="M150.42188,79.043a148.58349,148.58349,0,0,1-26.88379-4.85059,111.35177,111.35177,0,0,1-10.81446-3.65722l1.85157-4.64453a106.07477,106.07477,0,0,0,10.32714,3.49121A143.57348,143.57348,0,0,0,150.877,74.06348Z"/><path d="M104.13867,92.36426l-1.625-4.72852c17.90528-6.15039,26.23926-13.2876,28.06738-17.9165a4.44516,4.44516,0,0,0-.0625-3.90039c-1.49121-2.8125-6.19433-4.97559-8.47363-5.72608-9.18457-3.01806-22.10791-1.06933-29.292,2.561-3.08838,1.561-3.9082,3.19922-3.91406,3.21484l-4.76758-1.47558c.08057-.33057,2.18164-8.40577,20.166-35.76612l4.17774,2.7461c-8.02051,12.20263-12.793,20.44091-15.60449,25.76806,8.22656-3.36328,20.96093-5.03076,30.79687-1.79785,1.4209.46826,8.6377,3.05762,11.3291,8.13379a9.4086,9.4086,0,0,1,.29493,8.0791C132.28906,79.00342,120.95605,86.5874,104.13867,92.36426Z"/></svg>