<svg data-name="Ksimalqiloli itik" xmlns="http://www.w3.org/2000/svg" viewBox="0 0 200 200"><title>r</title><path d="M143.28027,171.63086c-3.78808-3.58887-19.53711-13.44141-41.5-11.64063-14.05713,1.14747-22.82763,7.626-25.18115,9.584l-3.37793-3.67871.86719-.83692C108.73926,139.22266,123.19531,121.27441,125.667,112.5H75v-5h56.05859V110c0,9.89648-13.47265,26.3457-37.56445,46.22266a55.33606,55.33606,0,0,1,7.87988-1.2168c23.751-1.93359,41.13477,9.00684,45.34571,12.99609Z"/><path d="M127.7373,170.13379l-4.99218-.26758a40.67518,40.67518,0,0,1,3.59375-14.6416,45.82179,45.82179,0,0,1,11.334-15.25586l3.33594,3.72461a40.84039,40.84039,0,0,0-10.11328,13.5918A35.69859,35.69859,0,0,0,127.7373,170.13379Z"/><rect x="90.5" y="15.5" width="43" height="3"/><path d="M150.42188,79.043a148.58349,148.58349,0,0,1-26.88379-4.85059,111.35177,111.35177,0,0,1-10.81446-3.65722l1.85157-4.64453a106.07477,106.07477,0,0,0,10.32714,3.49121A143.57348,143.57348,0,0,0,150.877,74.06348Z"/><path d="M104.13867,92.36426l-1.625-4.72852c17.90528-6.15039,26.23926-13.2876,28.06738-17.9165a4.44516,4.44516,0,0,0-.0625-3.90039c-1.49121-2.8125-6.19433-4.97559-8.47363-5.72608-9.18457-3.01806-22.10791-1.06933-29.292,2.561-3.08838,1.561-3.9082,3.19922-3.91406,3.21484l-4.76758-1.47558c.08057-.33057,2.18164-8.40577,20.166-35.76612l4.17774,2.7461c-8.02051,12.20263-12.793,20.44091-15.60449,25.76806,8.22656-3.36328,20.96093-5.03076,30.79687-1.79785,1.4209.46826,8.6377,3.05762,11.3291,8.13379a9.4086,9.4086,0,0,1,.29493,8.0791C132.28906,79.00342,120.95605,86.5874,104.13867,92.36426Z"/><path d="M88.61816,92.45068A46.59033,46.59033,0,0,1,72.96533,85.0874,36.86349,36.86349,0,0,1,62.69824,73.74512l2.60352-1.49024a33.88737,33.88737,0,0,0,9.44287,10.41748,43.56666,43.56666,0,0,0,14.63721,6.877Z"/></svg>