<svg data-name="Nyonilqiloli itik" xmlns="http://www.w3.org/2000/svg" viewBox="0 0 200 200"><title>r</title><path d="M80.84033,172.49121l-.42578-4.98242c27.01025-2.30762,39.86572-1.99219,49.79053-1.51856l7.9541.37989c-.09961-4.833-.24707-15.54785.06445-27.19239.165-6.16015.81836-13.85742,1.64551-23.60156l.48926-5.78515,4.98242.418-.48926,5.79c-.82031,9.66407-1.46875,17.29688-1.62988,23.31153-.417,15.584-.00488,29.4707,0,29.60937l.082,2.70215-13.33691-.63769C120.19922,170.5166,107.542,170.21,80.84033,172.49121Z"/><path d="M154.72949,159.03516a93.70135,93.70135,0,0,1-21.12011-4.89942,75.16806,75.16806,0,0,1-8.50684-3.69824l2.28125-4.44922a70.21874,70.21874,0,0,0,7.93848,3.4502,88.78544,88.78544,0,0,0,19.99121,4.63183Z"/><rect x="90.5" y="15.5" width="43" height="3"/><path d="M150.42188,79.043a148.58349,148.58349,0,0,1-26.88379-4.85059,111.35177,111.35177,0,0,1-10.81446-3.65722l1.85157-4.64453a106.07477,106.07477,0,0,0,10.32714,3.49121A143.57348,143.57348,0,0,0,150.877,74.06348Z"/><path d="M104.13867,92.36426l-1.625-4.72852c17.90528-6.15039,26.23926-13.2876,28.06738-17.9165a4.44516,4.44516,0,0,0-.0625-3.90039c-1.49121-2.8125-6.19433-4.97559-8.47363-5.72608-9.18457-3.01806-22.10791-1.06933-29.292,2.561-3.08838,1.561-3.9082,3.19922-3.91406,3.21484l-4.76758-1.47558c.08057-.33057,2.18164-8.40577,20.166-35.76612l4.17774,2.7461c-8.02051,12.20263-12.793,20.44091-15.60449,25.76806,8.22656-3.36328,20.96093-5.03076,30.79687-1.79785,1.4209.46826,8.6377,3.05762,11.3291,8.13379a9.4086,9.4086,0,0,1,.29493,8.0791C132.28906,79.00342,120.95605,86.5874,104.13867,92.36426Z"/><path d="M64.5249,96.5q-.27831,0-.55859-.00635l.06738-2.999a19.60727,19.60727,0,0,0,8.5249-1.67578,21.64729,21.64729,0,0,0,6.37305-4.48731,10.70049,10.70049,0,0,1-2.37012-1.66308c-.90136-.84278-3.29638-3.082-3.22851-6.47657a8.14751,8.14751,0,0,1,5.90625-7.42334c2.64453-.709,6.30127-.02734,7.59912,2.313.87353,1.57666.8833,3.77295.02734,6.35157a21.4842,21.4842,0,0,1-2.77246,5.34619c.1211.0122.24268.02246.36377.03076l-.19922,2.99316a13.22315,13.22315,0,0,1-2.26416-.35009l-.01709-.0044A25.0031,25.0031,0,0,1,73.793,94.55322,22.36265,22.36265,0,0,1,64.5249,96.5ZM81.36572,74.49463a5.2193,5.2193,0,0,0-1.34814.17139A5.12282,5.12282,0,0,0,76.332,79.25146c-.041,2.05713,1.52539,3.522,2.27832,4.22559a8.0296,8.0296,0,0,0,2.37207,1.50879,19.46658,19.46658,0,0,0,3.03613-5.49756c.56788-1.71142.63916-3.15185.19581-3.95215A3.51336,3.51336,0,0,0,81.36572,74.49463Z"/></svg>