<svg xmlns="http://www.w3.org/2000/svg" viewBox="0 0 200 200" id="ra!b" data-name="ra!b"><title>ra!b</title><path d="M94.42529,168.58105c-.77832-1.5039-1.52832-3.02929-2.23-4.5332a125.9695,125.9695,0,0,1-8.50976-24.7168l4.87011-1.13085a121.01019,121.01019,0,0,0,8.1709,23.73339c.67285,1.44336,1.39258,2.90723,2.13916,4.35059Z"/><path d="M135.88281,172.5c-5.26367.001-8.55468-3.8623-10.1416-5.72461-3.67578-4.2998-4.87109-12.16211-4.9209-12.49512-.00293-.02929-.00586-.05957-.00976-.08886-2.65039-.13282-5.36231-.25489-8.0127-.25977-3.9834-.00293-7.95508.126-11.791.40137-2.59473.18652-5.22071.31445-8.00147.45019-1.87744.0918-3.78125.18555-5.69726.29883l-2.11817.124c-3.31006.19239-6.73242.39161-9.9834.66114l-.41308-4.98242c3.312-.27442,6.76562-.47559,10.106-.6709l2.1128-.124c1.93457-.11328,3.855-.208,5.749-.2998,2.75147-.13477,5.3501-.26172,7.88818-.44336,3.957-.28516,8.02149-.4043,12.15918-.415,2.51465.00488,5.044.10938,7.52149.23047a129.11846,129.11846,0,0,1-.30762-13.16309c.22949-9.88867,2.99609-25.75976,3.11328-26.43066l4.92578.86328c-.02832.16113-2.81933,16.17383-3.041,25.68457a122.16646,122.16646,0,0,0,.34082,13.293c.06152.00293.12207.00586.18359.00781a70.08261,70.08261,0,0,1,12.18946,1.47949c1.80078.39844,6.59375,1.457,8.748,5.50489,2.51465,4.72754-.34082,9.77441-.6748,10.334a11.84147,11.84147,0,0,1-9.8252,5.76465Zm-9.96289-18.05957c.44238,2.27246,1.62988,6.75586,3.625,9.08984,1.35059,1.584,3.38281,3.96973,6.3418,3.96973h.0498a6.74837,6.74837,0,0,0,5.5752-3.32324c.0166-.0293,1.77051-3.14453.55664-5.42676-.94922-1.7832-3.39356-2.52441-5.416-2.97168A64.0455,64.0455,0,0,0,125.91992,154.44043Z"/><rect x="90.5" y="15.5" width="43" height="3"/><path d="M150.42188,79.043a148.58349,148.58349,0,0,1-26.88379-4.85059,111.35177,111.35177,0,0,1-10.81446-3.65722l1.85157-4.64453a106.07477,106.07477,0,0,0,10.32714,3.49121A143.57348,143.57348,0,0,0,150.877,74.06348Z"/><path d="M104.13867,92.36426l-1.625-4.72852c17.90528-6.15039,26.23926-13.2876,28.06738-17.9165a4.44516,4.44516,0,0,0-.0625-3.90039c-1.49121-2.8125-6.19433-4.97559-8.47363-5.72608-9.18457-3.01806-22.10791-1.06933-29.292,2.561-3.08838,1.561-3.9082,3.19922-3.91406,3.21484l-4.76758-1.47558c.08057-.33057,2.18164-8.40577,20.166-35.76612l4.17774,2.7461c-8.02051,12.20263-12.793,20.44091-15.60449,25.76806,8.22656-3.36328,20.96093-5.03076,30.79687-1.79785,1.4209.46826,8.6377,3.05762,11.3291,8.13379a9.4086,9.4086,0,0,1,.29493,8.0791C132.28906,79.00342,120.95605,86.5874,104.13867,92.36426Z"/></svg>