<svg xmlns="http://www.w3.org/2000/svg" viewBox="0 0 200 200" id="ra!d" data-name="ra!d"><title>ra!d</title><path d="M117.78223,171.75293a37.41933,37.41933,0,0,1-.30957-52.40527,36.38069,36.38069,0,0,1,6.99707-5.55274c-10.89453.84278-26.78662,2.22754-49.21827,4.49512l-.50292-4.97461c53.4331-5.40234,69.49169-5.7998,70.19482-5.81445h.00391l.10644,4.998c-.13769.00391-14.33691.46973-24.00879,10.34668a32.64506,32.64506,0,0,0-9.01562,25.20508,33.34127,33.34127,0,0,0,9.31738,20.19629Z"/><path d="M125.0498,143.33594c-7.91894,0-15.86816-.36426-23.70214-1.08789-4.74659-.4375-9.5376-1.0166-14.23975-1.71875l.73926-4.94532c4.60986.68946,9.30664,1.25586,13.95947,1.68555a254.37569,254.37569,0,0,0,28.51172,1.01172l.10547,4.99805Q127.74024,143.33642,125.0498,143.33594Z"/><rect x="90.5" y="15.5" width="43" height="3"/><path d="M150.42188,79.043a148.58349,148.58349,0,0,1-26.88379-4.85059,111.35177,111.35177,0,0,1-10.81446-3.65722l1.85157-4.64453a106.07477,106.07477,0,0,0,10.32714,3.49121A143.57348,143.57348,0,0,0,150.877,74.06348Z"/><path d="M104.13867,92.36426l-1.625-4.72852c17.90528-6.15039,26.23926-13.2876,28.06738-17.9165a4.44516,4.44516,0,0,0-.0625-3.90039c-1.49121-2.8125-6.19433-4.97559-8.47363-5.72608-9.18457-3.01806-22.10791-1.06933-29.292,2.561-3.08838,1.561-3.9082,3.19922-3.91406,3.21484l-4.76758-1.47558c.08057-.33057,2.18164-8.40577,20.166-35.76612l4.17774,2.7461c-8.02051,12.20263-12.793,20.44091-15.60449,25.76806,8.22656-3.36328,20.96093-5.03076,30.79687-1.79785,1.4209.46826,8.6377,3.05762,11.3291,8.13379a9.4086,9.4086,0,0,1,.29493,8.0791C132.28906,79.00342,120.95605,86.5874,104.13867,92.36426Z"/></svg>