<svg data-name="Hekalqilotontli 3" xmlns="http://www.w3.org/2000/svg" viewBox="0 0 200 200"><title>r</title><polygon points="57.923 85 54.923 85 54.923 53.5 86.423 53.5 86.423 56.5 57.923 56.5 57.923 85"/><path d="M150.30957,127.30664a105.95361,105.95361,0,0,1-27.06738-7.32519,89.48742,89.48742,0,0,1-10.876-5.51661l2.56641-4.291a84.38335,84.38335,0,0,0,10.2666,5.20605,100.97912,100.97912,0,0,0,25.79,6.97364Z"/><path d="M104.47168,147.22266l-2.291-4.44532c19.877-10.24121,31.73243-24.94921,28.18946-34.97265-1.998-5.6543-8.377-8.85108-8.64844-8.98438-8.93945-4.40674-21.55371-1.5249-28.58594,3.80567a11.52354,11.52354,0,0,0-4.21142,5.46191l-4.89209-1.01074c.07861-.48242,2.1289-12.28906,20.0039-53.08057l4.58008,2.00684C99.72705,76.28809,94.80225,89.33008,92.106,97.26514c8.36963-5.2876,21.60693-7.96826,31.82666-2.92969.86426.42578,8.52832,4.37939,11.15234,11.80322C139.61035,118.94531,127.30762,135.45605,104.47168,147.22266Z"/><path d="M88.55615,136.93262a46.6615,46.6615,0,0,1-16.63574-9.19922,44.05966,44.05966,0,0,1-10.84033-14.07715l2.69726-1.3125a41.08271,41.08271,0,0,0,10.10791,13.12207,43.64316,43.64316,0,0,0,15.5586,8.60156Z"/></svg>