<svg data-name="Coalqiloli itik" xmlns="http://www.w3.org/2000/svg" viewBox="0 0 200 200"><title>r</title><path d="M101.957,172.5c-10.71631,0-20.4414-2.79395-23.877-6.91211l3.83984-3.20312c1.86279,2.23339,9.624,5.31347,20.96387,5.10742,15.06738-.24707,31.67285-8.416,34.25684-23.55274a28.579,28.579,0,0,0-10.36915-26.49609c-6.75488-5.32227-16.7246-5.40137-23.89843-4.53613-4.69971.56836-12.26905,4.23242-14.78955,5.59668l-2.37989-4.39649c.40381-.21875,9.97266-5.36621,16.56885-6.16406,8.11328-.97852,19.48926-.81152,27.59277,5.57227a33.70837,33.70837,0,0,1,12.20411,31.26562c-3.043,17.82129-21.97461,27.42969-39.10352,27.71094C102.62988,172.49707,102.292,172.5,101.957,172.5Z"/><path d="M150.42188,79.043a148.58349,148.58349,0,0,1-26.88379-4.85059,111.35177,111.35177,0,0,1-10.81446-3.65722l1.85157-4.64453a106.07477,106.07477,0,0,0,10.32714,3.49121A143.57348,143.57348,0,0,0,150.877,74.06348Z"/><path d="M104.13867,92.36426l-1.625-4.72852c17.90528-6.15039,26.23926-13.2876,28.06738-17.9165a4.44516,4.44516,0,0,0-.0625-3.90039c-1.49121-2.8125-6.19433-4.97559-8.47363-5.72608-9.18457-3.01806-22.10791-1.06933-29.292,2.561-3.08838,1.561-3.9082,3.19922-3.91406,3.21484l-4.76758-1.47558c.08057-.33057,2.18164-8.40577,20.166-35.76612l4.17774,2.7461c-8.02051,12.20263-12.793,20.44091-15.60449,25.76806,8.22656-3.36328,20.96093-5.03076,30.79687-1.79785,1.4209.46826,8.6377,3.05762,11.3291,8.13379a9.4086,9.4086,0,0,1,.29493,8.0791C132.28906,79.00342,120.95605,86.5874,104.13867,92.36426Z"/><path d="M64.5249,96.5q-.27831,0-.55859-.00635l.06738-2.999a19.60727,19.60727,0,0,0,8.5249-1.67578,21.64729,21.64729,0,0,0,6.37305-4.48731,10.70049,10.70049,0,0,1-2.37012-1.66308c-.90136-.84278-3.29638-3.082-3.22851-6.47657a8.14751,8.14751,0,0,1,5.90625-7.42334c2.64453-.709,6.30127-.02734,7.59912,2.313.87353,1.57666.8833,3.77295.02734,6.35157a21.4842,21.4842,0,0,1-2.77246,5.34619c.1211.0122.24268.02246.36377.03076l-.19922,2.99316a13.22315,13.22315,0,0,1-2.26416-.35009l-.01709-.0044A25.0031,25.0031,0,0,1,73.793,94.55322,22.36265,22.36265,0,0,1,64.5249,96.5ZM81.36572,74.49463a5.2193,5.2193,0,0,0-1.34814.17139A5.12282,5.12282,0,0,0,76.332,79.25146c-.041,2.05713,1.52539,3.522,2.27832,4.22559a8.0296,8.0296,0,0,0,2.37207,1.50879,19.46658,19.46658,0,0,0,3.03613-5.49756c.56788-1.71142.63916-3.15185.19581-3.95215A3.51336,3.51336,0,0,0,81.36572,74.49463Z"/></svg>