<svg id="Sasanili_1a" data-name="Sasanili 1a" xmlns="http://www.w3.org/2000/svg" viewBox="0 0 200 200"><title>00185-sasanili1a</title><path d="M103.18456,87.46191l-2.582-4.28125c45.39649-27.37793,45.40332-34.585,44.94336-35.75146-.23242-.58887-3.3916-5.55127-42.18066,1.54248l-.90039-4.918c38.73535-7.0835,45.86523-3.19482,47.7334,1.542C152.32519,50.99561,148.40331,60.19189,103.18456,87.46191Z"/><path d="M53.18456,99.46191l-2.582-4.28125C96,67.80322,96.00585,60.5957,95.54589,59.4292c-.23242-.58936-3.38965-5.55078-42.18115,1.54248l-.89941-4.918c38.73388-7.083,45.86474-3.19482,47.73291,1.542C102.32519,62.99561,98.40331,72.19238,53.18456,99.46191Z"/></svg>