<svg id="Sasanili_1b" data-name="Sasanili 1b" xmlns="http://www.w3.org/2000/svg" viewBox="0 0 200 200"><title>00186-sasanili1b</title><path d="M64.82275,146.82813c-10.8335,0-13.89014-2.55567-15.02-5.42383-2.12842-5.39942,1.793-14.59571,47.01269-41.86621l2.582,4.28125C54,131.19727,53.99462,138.4043,54.4541,139.57031c.23193.58985,3.39013,5.55176,42.18066-1.542l.90039,4.918C82.25048,145.74121,71.88378,146.82813,64.82275,146.82813Z"/><path d="M114.82324,134.82813c-10.83106,0-13.89063-2.55567-15.02149-5.42383-2.12695-5.40039,1.79492-14.59668,47.01367-41.86621l2.582,4.28125c-45.39648,27.37793-45.40332,34.585-44.94335,35.752.23242.58887,3.39062,5.5498,42.18066-1.543l.90039,4.918C132.249,133.74219,121.88378,134.82813,114.82324,134.82813Z"/></svg>