<svg xmlns="http://www.w3.org/2000/svg" viewBox="0 0 200 200" id="saw" data-name="saw"><title>saw</title><path d="M75.53418,172.44238l-1.06836-4.88476c12.08691-2.64258,29.73828-8.78614,45.19043-23.04492,12.21387-11.26856,19.62012-23.60352,22.16211-32.0127H75v-5h72.99219l-.53223,2.94531c-1.52344,8.42578-8.83105,23.36524-24.41308,37.74219C106.77148,163.20605,88.22559,169.667,75.53418,172.44238Z"/><path d="M143.27734,91.812c-3.78808-3.60107-19.543-13.47119-41.49609-11.67676-14.05664,1.15186-22.82617,7.64942-25.1792,9.61377l-3.38379-3.67334.58252-.59179,52.92285-57.18213,3.66992,3.39648L87.38379,78.16748a54.34841,54.34841,0,0,1,13.98926-3.01562c23.7832-1.94434,41.13965,9.03564,45.34961,13.03613Z"/></svg>