<svg xmlns="http://www.w3.org/2000/svg" viewBox="0 0 200 200" id="se!" data-name="se!"><title>se!</title><rect x="58.34277" y="38.5" width="80" height="3"/><path d="M153.14355,146.6748c-4.92382-5.46-25.36914-20.43359-53.73437-17.7207a55.42976,55.42976,0,0,0-32.665,14.58106l-3.65478-3.40332.749-.8877,68.063-85.79785,3.918,3.10742-58.353,73.55567a61.21948,61.21948,0,0,1,21.46728-6.13184c30.40821-2.90723,52.56153,13.4043,57.92286,19.34766Z"/><path d="M86.40332,92.07764a45.53114,45.53114,0,0,1-16.46387-9.2793,44.25592,44.25592,0,0,1-10.72461-14.186l2.707-1.29394a41.26889,41.26889,0,0,0,10.00146,13.23,42.5635,42.5635,0,0,0,15.38721,8.66992Z"/><path d="M66.90186,103.419a45.52892,45.52892,0,0,1-16.46436-9.2793,44.25592,44.25592,0,0,1-10.72461-14.186l2.707-1.29394a41.26906,41.26906,0,0,0,10.00147,13.23,42.554,42.554,0,0,0,15.38672,8.66992Z"/></svg>