<svg xmlns="http://www.w3.org/2000/svg" viewBox="0 0 200 200" id="si!" data-name="si!"><title>si!</title><rect x="58.34277" y="38.5" width="80" height="3"/><path d="M153.14355,146.6748c-4.92382-5.46-25.36914-20.43359-53.73437-17.7207a55.42976,55.42976,0,0,0-32.665,14.58106l-3.65478-3.40332.749-.8877,68.063-85.79785,3.918,3.10742-58.353,73.55567a61.21948,61.21948,0,0,1,21.46728-6.13184c30.40821-2.90723,52.56153,13.4043,57.92286,19.34766Z"/><path d="M76.55615,91.93311A46.66279,46.66279,0,0,1,59.9209,82.73389,44.06811,44.06811,0,0,1,49.08008,68.65674l2.69726-1.31348a41.08616,41.08616,0,0,0,10.10791,13.123,43.62192,43.62192,0,0,0,15.5586,8.60058Z"/></svg>