<svg xmlns="http://www.w3.org/2000/svg" viewBox="0 0 200 200" id="so!&apos;" data-name="so!&apos;"><title>so!'</title><polygon points="31.173 84.25 28.173 84.25 28.173 52.75 59.673 52.75 59.673 55.75 31.173 55.75 31.173 84.25"/><rect x="58.34277" y="38.5" width="80" height="3"/><path d="M153.14355,146.6748c-4.92382-5.46-25.36914-20.43359-53.73437-17.7207a55.42976,55.42976,0,0,0-32.665,14.58106l-3.65478-3.40332.749-.8877,68.063-85.79785,3.918,3.10742-58.353,73.55567a61.21948,61.21948,0,0,1,21.46728-6.13184c30.40821-2.90723,52.56153,13.4043,57.92286,19.34766Z"/><path d="M62.74561,99.5a16.5,16.5,0,1,1,16.5-16.5A16.51867,16.51867,0,0,1,62.74561,99.5Zm0-30a13.5,13.5,0,1,0,13.5,13.5A13.51539,13.51539,0,0,0,62.74561,69.5Z"/></svg>