<svg data-name="Hekalqiloli itik" xmlns="http://www.w3.org/2000/svg" viewBox="0 0 200 200"><title>t</title><path d="M124.94434,171.02441l-4.56055-2.04882c11.31641-25.20508,16.00976-40.377,8.41406-48.3584-4.37109-4.59082-13.41992-5.49512-24.21-2.417-9.92578,2.83105-14.08643,11.10058-15.83008,17.54785-.65576,4.05078-1.272,8.61523-1.28027,8.67675L82.5,144.08105a40.62313,40.62313,0,0,1,1.19824-8.36328c.27344-1.72265.562-3.42285.82715-4.75879,1.40967-7.09375,2.52734-14.24023,3.32227-21.24121l4.96777.56446c-.38477,3.39257-.84424,6.81836-1.375,10.25586a25.28158,25.28158,0,0,1,11.77637-7.14649c12.7998-3.65137,23.44433-2.27344,29.20215,3.77832C141.96094,127.19531,137.15332,143.832,124.94434,171.02441Z"/><path d="M117.78223,91.75293a37.41879,37.41879,0,0,1-.30957-52.40479,36.34316,36.34316,0,0,1,6.99707-5.55273C113.5752,34.63818,97.68311,36.022,75.25146,38.29l-.50292-4.97461c53.51806-5.41064,69.54248-5.80078,70.19873-5.81494l.10644,4.999c-.13769.00342-14.33691.46875-24.00879,10.34668a32.6429,32.6429,0,0,0-9.01562,25.2041,33.343,33.343,0,0,0,9.31738,20.19678Z"/><path d="M96.61328,64.78271a34.21964,34.21964,0,0,1-11.63623-5.5205,27.58394,27.58394,0,0,1-7.65283-8.521l2.6084-1.48242a24.60272,24.60272,0,0,0,6.83154,7.59375,31.231,31.231,0,0,0,10.62256,5.03174Z"/><path d="M82.98486,71.44922a34.21434,34.21434,0,0,1-11.63672-5.51953,27.58451,27.58451,0,0,1-7.65234-8.52246l2.6084-1.48145a24.5989,24.5989,0,0,0,6.83105,7.59375A31.21763,31.21763,0,0,0,83.7583,68.55078Z"/></svg>