<svg data-name="Tlachalqiloli itik" xmlns="http://www.w3.org/2000/svg" viewBox="0 0 200 200"><title>t</title><path d="M92.958,172.44922c-5.73633.001-11.27051-1.72949-14.105-6.55859-3.07373-5.24415-2.67188-14.02735.895-19.58106a15.74466,15.74466,0,0,1,8.68408-6.43945l.18945-.06543c7.04834-2.39942,18.36475-2.03906,35.39893,9.06543A79.44287,79.44287,0,0,0,140.22852,112.5H75v-5h70.44629V110c0,4.57129-3.44727,24.59863-17.25,41.72949A170.24583,170.24583,0,0,1,145.4834,166.1377c.54785.51562.93652.88281,1.14844,1.06445l-3.26368,3.78906c-.24023-.208-.68554-.624-1.30957-1.21094a163.82881,163.82881,0,0,0-17.14746-14.251,67.22585,67.22585,0,0,1-16.97265,13.28027A33.26877,33.26877,0,0,1,92.958,172.44922Zm3.21533-28.8252a18.30577,18.30577,0,0,0-5.92725.90918l-.1958.06739a10.95842,10.95842,0,0,0-6.09472,4.41015c-2.563,3.99024-2.93164,10.69531-.78955,14.34961,3.561,6.07031,15.81982,4.66211,22.36523,1.06641a61.7204,61.7204,0,0,0,15.15625-11.75391C109.67871,145.61523,101.68652,143.624,96.17334,143.624Z"/><rect x="90.5" y="15.5" width="43" height="3"/><path d="M117.78223,91.75293a37.41879,37.41879,0,0,1-.30957-52.40479,36.34316,36.34316,0,0,1,6.99707-5.55273C113.5752,34.63818,97.68311,36.022,75.25146,38.29l-.50292-4.97461c53.51806-5.41064,69.54248-5.80078,70.19873-5.81494l.10644,4.999c-.13769.00342-14.33691.46875-24.00879,10.34668a32.6429,32.6429,0,0,0-9.01562,25.2041,33.343,33.343,0,0,0,9.31738,20.19678Z"/><path d="M65.5249,73.5q-.27831,0-.55859-.00635l.06738-2.999a19.589,19.589,0,0,0,8.5249-1.67578,21.64729,21.64729,0,0,0,6.37305-4.48731,10.70049,10.70049,0,0,1-2.37012-1.66308c-.90136-.84278-3.29638-3.082-3.22851-6.47657a8.14751,8.14751,0,0,1,5.90625-7.42334c2.64453-.709,6.30127-.02734,7.59912,2.313.87353,1.57666.8833,3.773.02734,6.35157a21.49515,21.49515,0,0,1-2.772,5.3457q.18164.019.36475.03125l-.20215,2.99316a13.288,13.288,0,0,1-2.2627-.35009l-.01709-.0044A25.0031,25.0031,0,0,1,74.793,71.55322,22.36265,22.36265,0,0,1,65.5249,73.5ZM82.36572,51.49463a5.2193,5.2193,0,0,0-1.34814.17139A5.12282,5.12282,0,0,0,77.332,56.25146c-.041,2.05713,1.52539,3.522,2.27832,4.22559a8.0296,8.0296,0,0,0,2.37207,1.50879,19.46658,19.46658,0,0,0,3.03613-5.49756c.56788-1.71142.63916-3.15185.19581-3.95215A3.51336,3.51336,0,0,0,82.36572,51.49463Z"/></svg>