<svg xmlns="http://www.w3.org/2000/svg" viewBox="0 0 200 200"><title>t</title><path d="M120.38574,146.61133a59.37394,59.37394,0,0,1-13.47363-34.05371c-1.09375-15.56446,3.79492-31.46,13.07715-42.51953a48.19865,48.19865,0,0,1,13.26562-11.00733c-13.999,1.208-35.73144,3.35449-67.96191,7.15625L64.707,61.22119c68.79688-8.11474,89.3877-8.69971,90.23145-8.72021l.124,4.998h0l-.00195.00049c-.29492.00928-18.65137.75244-31.24121,15.75342-8.46875,10.08984-12.92481,24.65234-11.91895,38.95508A55.12493,55.12493,0,0,0,124.208,143.38867Z"/></svg>