<svg id="Tetlanilistli" xmlns="http://www.w3.org/2000/svg" viewBox="0 0 200 200"><title>00172-tetlanilistli</title><path d="M66.45654,147.05371l-2.91309-4.06445a178.67356,178.67356,0,0,0,30.523-27.66406q1.36084-1.56006,2.62988-3.0254C86.94335,100.85938,80.87744,92.11914,81.48486,80.835c.94922-17.63672,6.82422-27.15771,17.4624-28.2998a9.97321,9.97321,0,0,1,2.10449,0c4.99317.53613,16.68848,4.37109,17.46582,28.353.37207,11.47022-5.62109,20.14014-15.2168,31.41065q1.26856,1.46484,2.63282,3.02539a179.76233,179.76233,0,0,0,30.52539,27.667l-2.918,4.06055a184.85462,184.85462,0,0,1-31.375-28.43848q-1.10449-1.26709-2.167-2.48535-1.05909,1.21875-2.165,2.48437A183.75584,183.75584,0,0,1,66.45654,147.05371ZM100,57.47852a4.91875,4.91875,0,0,0-.5205.02832c-2.918.313-11.8003,1.2666-13.00147,23.59668-.4873,9.04834,4.01953,16.10058,13.51709,27.33789,9.1416-10.85987,13.82422-18.17334,13.52441-27.39112-.458-14.12451-5.19628-22.70605-13-23.54345A4.90044,4.90044,0,0,0,100,57.47852Z"/></svg>