<svg data-name="Pokalqiloli itik" xmlns="http://www.w3.org/2000/svg" viewBox="0 0 200 200"><title>t</title><path d="M99.06543,172.50586a125.03756,125.03756,0,0,1-14.353-.85449l.5752-4.9668c24.78662,2.86914,43.00928-2.30664,46.3042-8.9707.37695-.75977,2.11523-4.71875-.55274-8.19532-4.5039-5.86914-10.05566-11.35546-20.08593-11.76953-.57618.00782-5.249.08985-6.1709.10645l-.60157.08691-.71484-4.94922.40234-.05761,5.00684-2.28614c16.2373-8.97753,18.63477-13.709,18.35645-14.40039-.01172-.02734-1.4502-2.85644-18.31348-3.585-9.61426-.417-19.03613.08106-20.03858.167l-.4248-4.98242c1.10449-.09375,10.72949-.61816,20.78369-.17578,17.9834.78906,21.541,4,22.63184,6.709,1.23633,3.07226.67383,8.30273-17.18067,18.71679,10.03809,1.57715,16.08887,7.86719,20.31641,13.375a12.75036,12.75036,0,0,1,1.06738,13.458C132.16211,167.83984,117.74707,172.50586,99.06543,172.50586Z"/><path d="M117.78223,91.75293a37.41879,37.41879,0,0,1-.30957-52.40479,36.34316,36.34316,0,0,1,6.99707-5.55273C113.5752,34.63818,97.68311,36.022,75.25146,38.29l-.50292-4.97461c53.51806-5.41064,69.54248-5.80078,70.19873-5.81494l.10644,4.999c-.13769.00342-14.33691.46875-24.00879,10.34668a32.6429,32.6429,0,0,0-9.01562,25.2041,33.343,33.343,0,0,0,9.31738,20.19678Z"/><path d="M89.61816,69.45068A46.59033,46.59033,0,0,1,73.96533,62.0874,36.86349,36.86349,0,0,1,63.69824,50.74512l2.60352-1.49024a33.88737,33.88737,0,0,0,9.44287,10.41748,43.56666,43.56666,0,0,0,14.63721,6.877Z"/></svg>