<svg data-name="Khamalqiloli itik" xmlns="http://www.w3.org/2000/svg" viewBox="0 0 200 200"><title>tl</title><path d="M122.55273,171.02441l-4.56054-2.04882c11.32617-25.20508,16.02246-40.377,8.4209-48.35743-4.373-4.59179-13.4336-5.49609-24.23438-2.418-9.93555,2.83105-14.1001,11.10156-15.84521,17.5498-.65625,4.0498-1.27295,8.61328-1.28125,8.6748l-4.97754-.34375a40.58848,40.58848,0,0,1,1.19922-8.36328c.27343-1.72265.562-3.42382.82763-4.75879,1.4126-7.10351,2.53125-14.25,3.3252-21.24121l4.96777.56446c-.38476,3.3916-.84521,6.82031-1.37646,10.26074a25.30168,25.30168,0,0,1,11.79-7.15137c12.8081-3.65039,23.4624-2.27246,29.22509,3.77735C139.584,127.19531,134.77246,143.832,122.55273,171.02441Z"/><path d="M142.26953,156.36816a87.16265,87.16265,0,0,1-20.31738-4.91113,70.62041,70.62041,0,0,1-8.18555-3.70605l2.35742-4.41016a65.51473,65.51473,0,0,0,7.60352,3.44238,82.17546,82.17546,0,0,0,19.15137,4.62207Z"/><rect x="82" y="15.5" width="60" height="3"/><path d="M92.95752,92.44971c-5.73584,0-11.27-1.73-14.10449-6.5586-3.07373-5.24463-2.67188-14.02783.895-19.58154a15.73835,15.73835,0,0,1,8.68847-6.44092l.18653-.064c7.04736-2.39942,18.3623-2.03858,35.39843,9.06543A79.44508,79.44508,0,0,0,140.22852,32.5H75v-5h70.44629V30c0,4.57178-3.44727,24.59912-17.25,41.729a170.28207,170.28207,0,0,1,17.28809,14.40967c.54785.51465.93554.88184,1.14746,1.064l-3.26368,3.78808c-.24023-.20752-.68457-.623-1.30859-1.209a163.9737,163.9737,0,0,0-17.14746-14.25293,67.22816,67.22816,0,0,1-16.97363,13.28076A33.27561,33.27561,0,0,1,92.95752,92.44971Zm3.21631-28.8252a18.30533,18.30533,0,0,0-5.92774.90967l-.19384.06641a10.94864,10.94864,0,0,0-6.09668,4.41015c-2.563,3.99024-2.93164,10.6958-.78955,14.35059,3.562,6.06885,15.81982,4.66064,22.36523,1.06592A61.69981,61.69981,0,0,0,120.6875,72.67236C109.67969,65.61621,101.6875,63.62451,96.17383,63.62451Z"/><path d="M85.61328,54.78271a34.21964,34.21964,0,0,1-11.63623-5.5205,27.58394,27.58394,0,0,1-7.65283-8.521l2.6084-1.48242a24.60272,24.60272,0,0,0,6.83154,7.59375,31.231,31.231,0,0,0,10.62256,5.03174Z"/><path d="M71.98486,61.44922a34.21434,34.21434,0,0,1-11.63672-5.51953,27.58451,27.58451,0,0,1-7.65234-8.52246l2.6084-1.48145a24.5989,24.5989,0,0,0,6.831,7.59375A31.21763,31.21763,0,0,0,72.7583,58.55078Z"/></svg>