<svg data-name="Ksimalqiloli itik" xmlns="http://www.w3.org/2000/svg" viewBox="0 0 200 200"><title>tl</title><path d="M143.28027,171.63086c-3.78808-3.58887-19.53711-13.44141-41.5-11.64063-14.05713,1.14747-22.82763,7.626-25.18115,9.584l-3.37793-3.67871.86719-.83692C108.73926,139.22266,123.19531,121.27441,125.667,112.5H75v-5h56.05859V110c0,9.89648-13.47265,26.3457-37.56445,46.22266a55.33606,55.33606,0,0,1,7.87988-1.2168c23.751-1.93359,41.13477,9.00684,45.34571,12.99609Z"/><path d="M127.7373,170.13379l-4.99218-.26758a40.67518,40.67518,0,0,1,3.59375-14.6416,45.82179,45.82179,0,0,1,11.334-15.25586l3.33594,3.72461a40.84039,40.84039,0,0,0-10.11328,13.5918A35.69859,35.69859,0,0,0,127.7373,170.13379Z"/><rect x="82" y="15.5" width="60" height="3"/><path d="M92.95752,92.44971c-5.73584,0-11.27-1.73-14.10449-6.5586-3.07373-5.24463-2.67188-14.02783.895-19.58154a15.73835,15.73835,0,0,1,8.68847-6.44092l.18653-.064c7.04736-2.39942,18.3623-2.03858,35.39843,9.06543A79.44508,79.44508,0,0,0,140.22852,32.5H75v-5h70.44629V30c0,4.57178-3.44727,24.59912-17.25,41.729a170.28207,170.28207,0,0,1,17.28809,14.40967c.54785.51465.93554.88184,1.14746,1.064l-3.26368,3.78808c-.24023-.20752-.68457-.623-1.30859-1.209a163.9737,163.9737,0,0,0-17.14746-14.25293,67.22816,67.22816,0,0,1-16.97363,13.28076A33.27561,33.27561,0,0,1,92.95752,92.44971Zm3.21631-28.8252a18.30533,18.30533,0,0,0-5.92774.90967l-.19384.06641a10.94864,10.94864,0,0,0-6.09668,4.41015c-2.563,3.99024-2.93164,10.6958-.78955,14.35059,3.562,6.06885,15.81982,4.66064,22.36523,1.06592A61.69981,61.69981,0,0,0,120.6875,72.67236C109.67969,65.61621,101.6875,63.62451,96.17383,63.62451Z"/><path d="M65,63.5A12.5,12.5,0,1,1,77.5,51,12.51408,12.51408,0,0,1,65,63.5Zm0-22A9.5,9.5,0,1,0,74.5,51,9.51081,9.51081,0,0,0,65,41.5Z"/></svg>