<svg xmlns="http://www.w3.org/2000/svg" viewBox="0 0 200 200" id="tle!s" data-name="tle!s"><title>tle!s</title><path d="M143.27832,171.8125c-3.79-3.60059-19.54394-13.46875-41.49707-11.67773-14.05713,1.15234-22.82617,7.64941-25.1792,9.61328l-3.38379-3.67285.58252-.5918,52.92285-57.18164,3.66992,3.39648L87.3833,158.168a54.31184,54.31184,0,0,1,13.98975-3.01563c23.76465-1.95117,41.13769,9.03418,45.34863,13.03516Z"/><rect x="82" y="15.5" width="60" height="3"/><path d="M92.95752,92.44971c-5.73584,0-11.27-1.73-14.10449-6.5586-3.07373-5.24463-2.67188-14.02783.895-19.58154a15.73835,15.73835,0,0,1,8.68847-6.44092l.18653-.064c7.04736-2.39942,18.3623-2.03858,35.39843,9.06543A79.44508,79.44508,0,0,0,140.22852,32.5H75v-5h70.44629V30c0,4.57178-3.44727,24.59912-17.25,41.729a170.28207,170.28207,0,0,1,17.28809,14.40967c.54785.51465.93554.88184,1.14746,1.064l-3.26368,3.78808c-.24023-.20752-.68457-.623-1.30859-1.209a163.9737,163.9737,0,0,0-17.14746-14.25293,67.22816,67.22816,0,0,1-16.97363,13.28076A33.27561,33.27561,0,0,1,92.95752,92.44971Zm3.21631-28.8252a18.30533,18.30533,0,0,0-5.92774.90967l-.19384.06641a10.94864,10.94864,0,0,0-6.09668,4.41015c-2.563,3.99024-2.93164,10.6958-.78955,14.35059,3.562,6.06885,15.81982,4.66064,22.36523,1.06592A61.69981,61.69981,0,0,0,120.6875,72.67236C109.67969,65.61621,101.6875,63.62451,96.17383,63.62451Z"/><path d="M85.61328,54.78271a34.21964,34.21964,0,0,1-11.63623-5.5205,27.58394,27.58394,0,0,1-7.65283-8.521l2.6084-1.48242a24.60272,24.60272,0,0,0,6.83154,7.59375,31.231,31.231,0,0,0,10.62256,5.03174Z"/><path d="M71.98486,61.44922a34.21434,34.21434,0,0,1-11.63672-5.51953,27.58451,27.58451,0,0,1-7.65234-8.52246l2.6084-1.48145a24.5989,24.5989,0,0,0,6.831,7.59375A31.21763,31.21763,0,0,0,72.7583,58.55078Z"/></svg>