<svg data-name="Weyakqiloli 4" xmlns="http://www.w3.org/2000/svg" viewBox="0 0 200 200"><title>tl</title><rect x="70.34277" y="38.5" width="80" height="3"/><path d="M88.17432,147.51074a25.86473,25.86473,0,0,1-6.82911-.86914,16.61711,16.61711,0,0,1-10.852-8.5791c-3.72705-7.41895-3.22216-19.87891,1.126-27.77734a19.85689,19.85689,0,0,1,10.769-9.25586l.24219-.09668c9.02686-3.583,23.56006-3.0127,45.49561,13.78222C143.60352,92.7373,148.82715,66.92041,149.71582,57.5H65v-5h89.85938V55c0,6.8584-4.52051,37.269-22.751,62.87793a226.11422,226.11422,0,0,1,23.16113,22.37988c.71777.78614,1.22559,1.34668,1.50293,1.625l-3.54492,3.52539c-.30371-.30566-.86524-.918-1.65234-1.78222a221.55289,221.55289,0,0,0-22.4834-21.72071,89.32924,89.32924,0,0,1-21.94043,20.12793A37.26135,37.26135,0,0,1,88.17432,147.51074Zm4.14453-43.36523a21.05454,21.05454,0,0,0-7.82959,1.42871l-.25.10058a14.99086,14.99086,0,0,0-8.23975,7.02051c-3.58642,6.51563-4.0625,17.10352-1.03906,23.1211a11.59739,11.59739,0,0,0,7.70557,6.00293c7.15283,1.958,16.37451-.52735,21.78808-3.9961a83.65186,83.65186,0,0,0,20.67383-19.06933C112.55664,109.125,101.42773,104.14551,92.31885,104.14551Z"/><path d="M76.55615,91.93311A46.66279,46.66279,0,0,1,59.9209,82.73389,44.06811,44.06811,0,0,1,49.08008,68.65674l2.69726-1.31348a41.08616,41.08616,0,0,0,10.10791,13.123,43.62192,43.62192,0,0,0,15.5586,8.60058Z"/></svg>