<svg data-name="Hekalqilotontli 5" xmlns="http://www.w3.org/2000/svg" viewBox="0 0 200 200"><title>tl</title><polygon points="27.923 85 24.923 85 24.923 53.5 56.423 53.5 56.423 56.5 27.923 56.5 27.923 85"/><rect x="70.34277" y="38.5" width="80" height="3"/><path d="M88.17432,147.51074a25.86473,25.86473,0,0,1-6.82911-.86914,16.61711,16.61711,0,0,1-10.852-8.5791c-3.72705-7.41895-3.22216-19.87891,1.126-27.77734a19.85689,19.85689,0,0,1,10.769-9.25586l.24219-.09668c9.02686-3.583,23.56006-3.0127,45.49561,13.78222C143.60352,92.7373,148.82715,66.92041,149.71582,57.5H65v-5h89.85938V55c0,6.8584-4.52051,37.269-22.751,62.87793a226.11422,226.11422,0,0,1,23.16113,22.37988c.71777.78614,1.22559,1.34668,1.50293,1.625l-3.54492,3.52539c-.30371-.30566-.86524-.918-1.65234-1.78222a221.55289,221.55289,0,0,0-22.4834-21.72071,89.32924,89.32924,0,0,1-21.94043,20.12793A37.26135,37.26135,0,0,1,88.17432,147.51074Zm4.14453-43.36523a21.05454,21.05454,0,0,0-7.82959,1.42871l-.25.10058a14.99086,14.99086,0,0,0-8.23975,7.02051c-3.58642,6.51563-4.0625,17.10352-1.03906,23.1211a11.59739,11.59739,0,0,0,7.70557,6.00293c7.15283,1.958,16.37451-.52735,21.78808-3.9961a83.65186,83.65186,0,0,0,20.67383-19.06933C112.55664,109.125,101.42773,104.14551,92.31885,104.14551Z"/><path d="M48.458,99.5q-.37207,0-.74512-.0083l.06641-2.999a27.16618,27.16618,0,0,0,11.86181-2.3335,30.29884,30.29884,0,0,0,9.37744-6.77539,14.31583,14.31583,0,0,1-3.771-2.50733c-1.292-1.208-4.3169-4.03662-4.22949-8.42236a10.54668,10.54668,0,0,1,7.65039-9.60644c3.40478-.915,8.10107-.06983,9.74365,2.89209,1.11523,2.0122,1.11475,4.85595-.00293,8.22412a29.5119,29.5119,0,0,1-4.22852,7.88183c.47168.0791.94825.13477,1.42481.16651l-.19824,2.99316a17.40184,17.40184,0,0,1-2.99561-.46338c-.09521-.02344-.208-.05078-.33594-.08349a33.655,33.655,0,0,1-11.20019,8.43505A29.95044,29.95044,0,0,1,48.458,99.5ZM71.395,69.501a7.31065,7.31065,0,0,0-7.37793,7.01269c-.06055,3.04834,2.19531,5.15772,3.2793,6.17139a11.64771,11.64771,0,0,0,3.78174,2.31836A27.40257,27.40257,0,0,0,75.562,77.019c.82227-2.478.90479-4.60107.22608-5.82519C75.21631,70.16211,73.32715,69.501,71.395,69.501Z"/></svg>