<svg xmlns="http://www.w3.org/2000/svg" viewBox="0 0 200 200" id="tlub" data-name="tlub"><title>tlub</title><path d="M94.42529,168.58105c-.77832-1.5039-1.52832-3.02929-2.23-4.5332a125.9695,125.9695,0,0,1-8.50976-24.7168l4.87011-1.13085a121.01019,121.01019,0,0,0,8.1709,23.73339c.67285,1.44336,1.39258,2.90723,2.13916,4.35059Z"/><path d="M135.88281,172.5c-5.26367.001-8.55468-3.8623-10.1416-5.72461-3.67578-4.2998-4.87109-12.16211-4.9209-12.49512-.00293-.02929-.00586-.05957-.00976-.08886-2.65039-.13282-5.36231-.25489-8.0127-.25977-3.9834-.00293-7.95508.126-11.791.40137-2.59473.18652-5.22071.31445-8.00147.45019-1.87744.0918-3.78125.18555-5.69726.29883l-2.11817.124c-3.31006.19239-6.73242.39161-9.9834.66114l-.41308-4.98242c3.312-.27442,6.76562-.47559,10.106-.6709l2.1128-.124c1.93457-.11328,3.855-.208,5.749-.2998,2.75147-.13477,5.3501-.26172,7.88818-.44336,3.957-.28516,8.02149-.4043,12.15918-.415,2.51465.00488,5.044.10938,7.52149.23047a129.11846,129.11846,0,0,1-.30762-13.16309c.22949-9.88867,2.99609-25.75976,3.11328-26.43066l4.92578.86328c-.02832.16113-2.81933,16.17383-3.041,25.68457a122.16646,122.16646,0,0,0,.34082,13.293c.06152.00293.12207.00586.18359.00781a70.08261,70.08261,0,0,1,12.18946,1.47949c1.80078.39844,6.59375,1.457,8.748,5.50489,2.51465,4.72754-.34082,9.77441-.6748,10.334a11.84147,11.84147,0,0,1-9.8252,5.76465Zm-9.96289-18.05957c.44238,2.27246,1.62988,6.75586,3.625,9.08984,1.35059,1.584,3.38281,3.96973,6.3418,3.96973h.0498a6.74837,6.74837,0,0,0,5.5752-3.32324c.0166-.0293,1.77051-3.14453.55664-5.42676-.94922-1.7832-3.39356-2.52441-5.416-2.97168A64.0455,64.0455,0,0,0,125.91992,154.44043Z"/><path d="M92.95752,92.44971c-5.73584,0-11.27-1.73-14.10449-6.5586-3.07373-5.24463-2.67188-14.02783.895-19.58154a15.73835,15.73835,0,0,1,8.68847-6.44092l.18653-.064c7.04736-2.39942,18.3623-2.03858,35.39843,9.06543A79.44508,79.44508,0,0,0,140.22852,32.5H75v-5h70.44629V30c0,4.57178-3.44727,24.59912-17.25,41.729a170.28207,170.28207,0,0,1,17.28809,14.40967c.54785.51465.93554.88184,1.14746,1.064l-3.26368,3.78808c-.24023-.20752-.68457-.623-1.30859-1.209a163.9737,163.9737,0,0,0-17.14746-14.25293,67.22816,67.22816,0,0,1-16.97363,13.28076A33.27561,33.27561,0,0,1,92.95752,92.44971Zm3.21631-28.8252a18.30533,18.30533,0,0,0-5.92774.90967l-.19384.06641a10.94864,10.94864,0,0,0-6.09668,4.41015c-2.563,3.99024-2.93164,10.6958-.78955,14.35059,3.562,6.06885,15.81982,4.66064,22.36523,1.06592A61.69981,61.69981,0,0,0,120.6875,72.67236C109.67969,65.61621,101.6875,63.62451,96.17383,63.62451Z"/><path d="M54.5249,63.5q-.27831,0-.55859-.00635l.06738-2.999a19.53846,19.53846,0,0,0,8.5249-1.67578,21.64729,21.64729,0,0,0,6.373-4.48731,10.70049,10.70049,0,0,1-2.37012-1.66308c-.90136-.84278-3.29638-3.082-3.22851-6.47657a8.14751,8.14751,0,0,1,5.90625-7.42334c2.64355-.708,6.30176-.02783,7.59912,2.313.87353,1.57666.8833,3.773.02734,6.35157a21.49515,21.49515,0,0,1-2.772,5.3457q.18164.019.36475.03125l-.20215,2.99316a13.288,13.288,0,0,1-2.2627-.35009l-.01709-.0044A25.0031,25.0031,0,0,1,63.793,61.55322,22.36265,22.36265,0,0,1,54.5249,63.5ZM71.36572,41.49463a5.2193,5.2193,0,0,0-1.34814.17139A5.12282,5.12282,0,0,0,66.332,46.25146c-.041,2.05713,1.52539,3.522,2.27832,4.22559a8.0296,8.0296,0,0,0,2.37207,1.50879,19.46658,19.46658,0,0,0,3.03613-5.49756c.56788-1.71142.63916-3.15185.19581-3.95215A3.51336,3.51336,0,0,0,71.36572,41.49463Z"/></svg>