<svg data-name="Xocilqiloli itik" xmlns="http://www.w3.org/2000/svg" viewBox="0 0 200 200"><title>t</title><path d="M110.50488,172.46777a28.73186,28.73186,0,0,1-17.25049-5.68457,22.88825,22.88825,0,0,1-5.11279-5.25586c-5.957-8.5625-5.93506-20.95312-3.27051-29.43359,1.98682-6.32422,5.40821-10.668,9.63379-12.23047,5.82715-2.15039,13.76075,1.02832,18.0625,7.23633,5.043,7.27344,2.65332,15.874,1.75391,19.11133-2.63281,9.50488-9.55762,16.05078-13.793,19.13281,6.24316,2.85254,13.77051,2.93945,19.35156-.0752,5.94336-3.21191,12.82032-11.91894,11.83594-35.16015a57.35131,57.35131,0,0,0-4.19922-19.16992l4.63477-1.877a62.35885,62.35885,0,0,1,4.56054,20.83106c.87793,20.73633-3.98535,34.11719-14.45507,39.77441A24.78523,24.78523,0,0,1,110.50488,172.46777ZM98.52148,124.168a6.57207,6.57207,0,0,0-2.28418.38574c-2.70019.99805-5.105,4.293-6.59619,9.03809-2.22363,7.0791-2.35742,17.94726,2.605,25.08008a17.53665,17.53665,0,0,0,3.59473,3.791c2.62158-1.47851,10.92773-7.71484,13.6543-17.55762.80468-2.89843,2.66992-9.61132-1.03711-14.957C106.0166,126.4248,101.95605,124.168,98.52148,124.168Z"/><rect x="90.5" y="15.5" width="43" height="3"/><path d="M117.78223,91.75293a37.41879,37.41879,0,0,1-.30957-52.40479,36.34316,36.34316,0,0,1,6.99707-5.55273C113.5752,34.63818,97.68311,36.022,75.25146,38.29l-.50292-4.97461c53.51806-5.41064,69.54248-5.80078,70.19873-5.81494l.10644,4.999c-.13769.00342-14.33691.46875-24.00879,10.34668a32.6429,32.6429,0,0,0-9.01562,25.2041,33.343,33.343,0,0,0,9.31738,20.19678Z"/><path d="M65.5249,73.5q-.27831,0-.55859-.00635l.06738-2.999a19.589,19.589,0,0,0,8.5249-1.67578,21.64729,21.64729,0,0,0,6.37305-4.48731,10.70049,10.70049,0,0,1-2.37012-1.66308c-.90136-.84278-3.29638-3.082-3.22851-6.47657a8.14751,8.14751,0,0,1,5.90625-7.42334c2.64453-.709,6.30127-.02734,7.59912,2.313.87353,1.57666.8833,3.773.02734,6.35157a21.49515,21.49515,0,0,1-2.772,5.3457q.18164.019.36475.03125l-.20215,2.99316a13.288,13.288,0,0,1-2.2627-.35009l-.01709-.0044A25.0031,25.0031,0,0,1,74.793,71.55322,22.36265,22.36265,0,0,1,65.5249,73.5ZM82.36572,51.49463a5.2193,5.2193,0,0,0-1.34814.17139A5.12282,5.12282,0,0,0,77.332,56.25146c-.041,2.05713,1.52539,3.522,2.27832,4.22559a8.0296,8.0296,0,0,0,2.37207,1.50879,19.46658,19.46658,0,0,0,3.03613-5.49756c.56788-1.71142.63916-3.15185.19581-3.95215A3.51336,3.51336,0,0,0,82.36572,51.49463Z"/></svg>