<svg xmlns="http://www.w3.org/2000/svg" viewBox="0 0 200 200" id="tuq" data-name="tuq"><title>tuq</title><path d="M84.5752,171.93945l-2.58008-4.2832c.34521-.208.8374-.47754,1.44677-.80957,5.30176-2.88867,19.38526-10.56152,19.47608-25.13281.084-13.63672-16.12451-25.73242-23.98731-29.4541l2.05713-4.55664c2.063.88769,42.21826,18.36914,56.51221,39.46191V110h5v60h-5v-8.67285c.00195-13.25684-19.37793-27.84277-36.9375-38.04883,4.334,5.44043,7.39648,11.77832,7.35547,18.4668-.10938,17.51953-16.64893,26.53125-22.084,29.49218C85.3042,171.52637,84.87549,171.75879,84.5752,171.93945Z"/><path d="M117.78223,91.75293a37.41879,37.41879,0,0,1-.30957-52.40479,36.34316,36.34316,0,0,1,6.99707-5.55273C113.5752,34.63818,97.68311,36.022,75.25146,38.29l-.50292-4.97461c53.51806-5.41064,69.54248-5.80078,70.19873-5.81494l.10644,4.999c-.13769.00342-14.33691.46875-24.00879,10.34668a32.6429,32.6429,0,0,0-9.01562,25.2041,33.343,33.343,0,0,0,9.31738,20.19678Z"/><path d="M65.5249,73.5q-.27831,0-.55859-.00635l.06738-2.999a19.589,19.589,0,0,0,8.5249-1.67578,21.64729,21.64729,0,0,0,6.37305-4.48731,10.70049,10.70049,0,0,1-2.37012-1.66308c-.90136-.84278-3.29638-3.082-3.22851-6.47657a8.14751,8.14751,0,0,1,5.90625-7.42334c2.64453-.709,6.30127-.02734,7.59912,2.313.87353,1.57666.8833,3.773.02734,6.35157a21.49515,21.49515,0,0,1-2.772,5.3457q.18164.019.36475.03125l-.20215,2.99316a13.288,13.288,0,0,1-2.2627-.35009l-.01709-.0044A25.0031,25.0031,0,0,1,74.793,71.55322,22.36265,22.36265,0,0,1,65.5249,73.5ZM82.36572,51.49463a5.2193,5.2193,0,0,0-1.34814.17139A5.12282,5.12282,0,0,0,77.332,56.25146c-.041,2.05713,1.52539,3.522,2.27832,4.22559a8.0296,8.0296,0,0,0,2.37207,1.50879,19.46658,19.46658,0,0,0,3.03613-5.49756c.56788-1.71142.63916-3.15185.19581-3.95215A3.51336,3.51336,0,0,0,82.36572,51.49463Z"/></svg>