<svg xmlns="http://www.w3.org/2000/svg" viewBox="0 0 200 200" id="u!" data-name="u!"><title>u!</title><path d="M67.13428,147.5q-1.092,0-2.18994-.02441l.11132-4.99805a83.607,83.607,0,0,0,36.45313-7.17676,93.72263,93.72263,0,0,0,30.67676-22.86621,41.72163,41.72163,0,0,1-13.31446-8.26562c-3.68066-3.44092-12.2998-11.49952-12.05468-23.76709.24121-12.12745,9.47168-23.70362,21.4707-26.92725,9.53223-2.56152,22.64355-.07422,26.96094,7.71387,3.06836,5.53564,3.01465,13.51416-.15625,23.07324-2.58789,7.79932-7.46778,16.85058-14.28125,25.60254a45.37962,45.37962,0,0,0,7.63574,1.168l-.33008,4.98828a50.20811,50.20811,0,0,1-8.6416-1.33594c-.57422-.14062-1.30566-.32031-2.16211-.55566a99.33308,99.33308,0,0,1-33.74707,25.72851A87.87552,87.87552,0,0,1,67.13428,147.5Zm68.88037-89.99609a25.07531,25.07531,0,0,0-6.43067.7998c-9.76855,2.624-17.57324,12.37451-17.76953,22.19775-.19922,10.03858,7.27832,17.02979,10.47071,20.01514a37.54687,37.54687,0,0,0,13.3623,7.86231C142.7207,99.64453,147.75391,90.501,150.3457,82.687c2.68067-8.08008,2.86914-14.85449.5293-19.07471C148.63379,59.56836,142.24023,57.50391,136.01465,57.50391Z"/><rect x="70.34277" y="38.5" width="80" height="3"/></svg>