<svg xmlns="http://www.w3.org/2000/svg" viewBox="0 0 200 200" id="u!h" data-name="u!h"><title>u!h</title><path d="M124.94434,171.02441l-4.56055-2.04882c11.31641-25.20508,16.00976-40.377,8.41406-48.3584-4.37109-4.59082-13.41992-5.49512-24.21-2.417-9.92578,2.83105-14.08643,11.10058-15.83008,17.54785-.65576,4.05078-1.272,8.61523-1.28027,8.67675L82.5,144.08105a40.62313,40.62313,0,0,1,1.19824-8.36328c.27344-1.72265.562-3.42285.82715-4.75879,1.40967-7.09375,2.52734-14.24023,3.32227-21.24121l4.96777.56446c-.38477,3.39257-.84424,6.81836-1.375,10.25586a25.28158,25.28158,0,0,1,11.77637-7.14649c12.7998-3.65137,23.44433-2.27344,29.20215,3.77832C141.96094,127.19531,137.15332,143.832,124.94434,171.02441Z"/><path d="M81.42383,92.5q-.73755,0-1.47949-.01611l.11132-4.999a54.73016,54.73016,0,0,0,23.94043-4.71093A61.29252,61.29252,0,0,0,123.3877,68.59668a28.3745,28.3745,0,0,1-8.043-5.2085c-2.53418-2.36914-8.47071-7.918-8.29981-16.47021.167-8.44141,6.585-16.49756,14.92969-18.73975,6.63477-1.7832,15.75391-.16943,18.91992,5.54346,2.16211,3.89941,2.14649,9.44922-.042,16.04883A59.14067,59.14067,0,0,1,131.99219,66.04a29.45825,29.45825,0,0,0,3.69433.48291l-.332,4.98926a34.42058,34.42058,0,0,1-5.90332-.91358c-.25976-.06347-.583-.14258-.96094-.24218a66.90943,66.90943,0,0,1-22.4375,16.97509A59.40591,59.40591,0,0,1,81.42383,92.5Zm45.918-60.00781a15.79452,15.79452,0,0,0-4.07032.51513c-6.17285,1.65821-11.10546,7.8125-11.22851,14.00977-.125,6.32324,4.49609,10.64258,6.7168,12.71875a23.94678,23.94678,0,0,0,8.0664,4.8667,55.56129,55.56129,0,0,0,9.28028-16.40674c1.71289-5.16309,1.86035-9.44287.415-12.05029C135.28223,33.90918,131.38086,32.49219,127.3418,32.49219Z"/><rect x="82" y="15.5" width="60" height="3"/></svg>