<svg data-name="Xocilqiloli itik" xmlns="http://www.w3.org/2000/svg" viewBox="0 0 200 200"><title>u</title><path d="M110.50488,172.46777a28.73186,28.73186,0,0,1-17.25049-5.68457,22.88825,22.88825,0,0,1-5.11279-5.25586c-5.957-8.5625-5.93506-20.95312-3.27051-29.43359,1.98682-6.32422,5.40821-10.668,9.63379-12.23047,5.82715-2.15039,13.76075,1.02832,18.0625,7.23633,5.043,7.27344,2.65332,15.874,1.75391,19.11133-2.63281,9.50488-9.55762,16.05078-13.793,19.13281,6.24316,2.85254,13.77051,2.93945,19.35156-.0752,5.94336-3.21191,12.82032-11.91894,11.83594-35.16015a57.35131,57.35131,0,0,0-4.19922-19.16992l4.63477-1.877a62.35885,62.35885,0,0,1,4.56054,20.83106c.87793,20.73633-3.98535,34.11719-14.45507,39.77441A24.78523,24.78523,0,0,1,110.50488,172.46777ZM98.52148,124.168a6.57207,6.57207,0,0,0-2.28418.38574c-2.70019.99805-5.105,4.293-6.59619,9.03809-2.22363,7.0791-2.35742,17.94726,2.605,25.08008a17.53665,17.53665,0,0,0,3.59473,3.791c2.62158-1.47851,10.92773-7.71484,13.6543-17.55762.80468-2.89843,2.66992-9.61132-1.03711-14.957C106.0166,126.4248,101.95605,124.168,98.52148,124.168Z"/><path d="M81.42383,92.5q-.73755,0-1.47949-.01611l.11132-4.999a54.73016,54.73016,0,0,0,23.94043-4.71093A61.29252,61.29252,0,0,0,123.3877,68.59668a28.3745,28.3745,0,0,1-8.043-5.2085c-2.53418-2.36914-8.47071-7.918-8.29981-16.47021.167-8.44141,6.585-16.49756,14.92969-18.73975,6.63477-1.7832,15.75391-.16943,18.91992,5.54346,2.16211,3.89941,2.14649,9.44922-.042,16.04883A59.14067,59.14067,0,0,1,131.99219,66.04a29.45825,29.45825,0,0,0,3.69433.48291l-.332,4.98926a34.42058,34.42058,0,0,1-5.90332-.91358c-.25976-.06347-.583-.14258-.96094-.24218a66.90943,66.90943,0,0,1-22.4375,16.97509A59.40591,59.40591,0,0,1,81.42383,92.5Zm45.918-60.00781a15.79452,15.79452,0,0,0-4.07032.51513c-6.17285,1.65821-11.10546,7.8125-11.22851,14.00977-.125,6.32324,4.49609,10.64258,6.7168,12.71875a23.94678,23.94678,0,0,0,8.0664,4.8667,55.56129,55.56129,0,0,0,9.28028-16.40674c1.71289-5.16309,1.86035-9.44287.415-12.05029C135.28223,33.90918,131.38086,32.49219,127.3418,32.49219Z"/><rect x="82" y="15.5" width="60" height="3"/></svg>