<svg data-name="Ufalqiloli akopa" xmlns="http://www.w3.org/2000/svg" viewBox="0 0 200 200"><title>u</title><path d="M81.42383,92.5q-.73755,0-1.47949-.01611l.11132-4.999a54.73016,54.73016,0,0,0,23.94043-4.71093A61.29252,61.29252,0,0,0,123.3877,68.59668a28.3745,28.3745,0,0,1-8.043-5.2085c-2.53418-2.36914-8.47071-7.918-8.29981-16.47021.167-8.44141,6.585-16.49756,14.92969-18.73975,6.63477-1.7832,15.75391-.16943,18.91992,5.54346,2.16211,3.89941,2.14649,9.44922-.042,16.04883A59.14067,59.14067,0,0,1,131.99219,66.04a29.45825,29.45825,0,0,0,3.69433.48291l-.332,4.98926a34.42058,34.42058,0,0,1-5.90332-.91358c-.25976-.06347-.583-.14258-.96094-.24218a66.90943,66.90943,0,0,1-22.4375,16.97509A59.40591,59.40591,0,0,1,81.42383,92.5Zm45.918-60.00781a15.79452,15.79452,0,0,0-4.07032.51513c-6.17285,1.65821-11.10546,7.8125-11.22851,14.00977-.125,6.32324,4.49609,10.64258,6.7168,12.71875a23.94678,23.94678,0,0,0,8.0664,4.8667,55.56129,55.56129,0,0,0,9.28028-16.40674c1.71289-5.16309,1.86035-9.44287.415-12.05029C135.28223,33.90918,131.38086,32.49219,127.3418,32.49219Z"/><path d="M84.501,172.44922l-1.002-4.89844a44.73009,44.73009,0,0,0,11.82032-4.10156,14.48846,14.48846,0,0,1-4.97022-5.59766l-.06543-.11914c-.96435-1.72265-2.07666-4.5957-.61474-9.63379a10.74517,10.74517,0,0,1,9.3457-7.75586c6.5918-.49609,11.68945,2.918,12.40625,8.3125.57422,4.32813-1.32227,8.74414-4.99317,12.63184a44.11274,44.11274,0,0,0,6.4375-.54492c6.14258-.917,12.1875-5.09082,16.17286-11.165,4.06054-6.19238,5.43847-13.29883,3.77832-19.499-1.95411-7.30274-8.75684-15.84375-19.07422-17.34278-8.13281-1.17773-14.84033,2.42578-17.34717,4.03028l-2.69629-4.21094c2.97754-1.90723,10.96143-6.19239,20.76221-4.7666,12.624,1.833,20.74121,11.86621,23.18554,20.99707,2.02735,7.57519.41407,16.15234-4.42773,23.53418-4.82422,7.35546-11.97363,12.22754-19.61426,13.36816a36.25654,36.25654,0,0,1-12.53418.07031A46.88367,46.88367,0,0,1,84.501,172.44922ZM100.186,145.29883q-.40064,0-.7959.03027c-3.76319.28125-4.87061,3.99317-4.916,4.15137-1.05127,3.62305-.19385,5.15527.17236,5.81055.05713.10156.106.19043.145.26562a9.56288,9.56288,0,0,0,5.376,4.7832c4.51221-3.54687,6.74658-7.63476,6.29639-11.02636C106.08984,146.49707,103.08594,145.29883,100.186,145.29883Z"/></svg>