<svg data-name="Ufalqiloli akopa" xmlns="http://www.w3.org/2000/svg" viewBox="0 0 200 200"><title>u</title><path d="M81.42383,92.5q-.73755,0-1.47949-.01611l.11132-4.999a54.73016,54.73016,0,0,0,23.94043-4.71093A61.29252,61.29252,0,0,0,123.3877,68.59668a28.3745,28.3745,0,0,1-8.043-5.2085c-2.53418-2.36914-8.47071-7.918-8.29981-16.47021.167-8.44141,6.585-16.49756,14.92969-18.73975,6.63477-1.7832,15.75391-.16943,18.91992,5.54346,2.16211,3.89941,2.14649,9.44922-.042,16.04883A59.14067,59.14067,0,0,1,131.99219,66.04a29.45825,29.45825,0,0,0,3.69433.48291l-.332,4.98926a34.42058,34.42058,0,0,1-5.90332-.91358c-.25976-.06347-.583-.14258-.96094-.24218a66.90943,66.90943,0,0,1-22.4375,16.97509A59.40591,59.40591,0,0,1,81.42383,92.5Zm45.918-60.00781a15.79452,15.79452,0,0,0-4.07032.51513c-6.17285,1.65821-11.10546,7.8125-11.22851,14.00977-.125,6.32324,4.49609,10.64258,6.7168,12.71875a23.94678,23.94678,0,0,0,8.0664,4.8667,55.56129,55.56129,0,0,0,9.28028-16.40674c1.71289-5.16309,1.86035-9.44287.415-12.05029C135.28223,33.90918,131.38086,32.49219,127.3418,32.49219Z"/><path d="M80.84033,172.49121l-.42578-4.98242c27.01025-2.30762,39.86572-1.99219,49.79053-1.51856l7.9541.37989c-.09961-4.833-.24707-15.54785.06445-27.19239.165-6.16015.81836-13.85742,1.64551-23.60156l.48926-5.78515,4.98242.418-.48926,5.79c-.82031,9.66407-1.46875,17.29688-1.62988,23.31153-.417,15.584-.00488,29.4707,0,29.60937l.082,2.70215-13.33691-.63769C120.19922,170.5166,107.542,170.21,80.84033,172.49121Z"/><path d="M154.72949,159.03516a93.70135,93.70135,0,0,1-21.12011-4.89942,75.16806,75.16806,0,0,1-8.50684-3.69824l2.28125-4.44922a70.21874,70.21874,0,0,0,7.93848,3.4502,88.78544,88.78544,0,0,0,19.99121,4.63183Z"/></svg>