<svg xmlns="http://www.w3.org/2000/svg" viewBox="0 0 200 200" id="uz&apos;" data-name="uz&apos;"><title>uz'</title><path d="M81.42383,92.5q-.73755,0-1.47949-.01611l.11132-4.999a54.73016,54.73016,0,0,0,23.94043-4.71093A61.29252,61.29252,0,0,0,123.3877,68.59668a28.3745,28.3745,0,0,1-8.043-5.2085c-2.53418-2.36914-8.47071-7.918-8.29981-16.47021.167-8.44141,6.585-16.49756,14.92969-18.73975,6.63477-1.7832,15.75391-.16943,18.91992,5.54346,2.16211,3.89941,2.14649,9.44922-.042,16.04883A59.14067,59.14067,0,0,1,131.99219,66.04a29.45825,29.45825,0,0,0,3.69433.48291l-.332,4.98926a34.42058,34.42058,0,0,1-5.90332-.91358c-.25976-.06347-.583-.14258-.96094-.24218a66.90943,66.90943,0,0,1-22.4375,16.97509A59.40591,59.40591,0,0,1,81.42383,92.5Zm45.918-60.00781a15.79452,15.79452,0,0,0-4.07032.51513c-6.17285,1.65821-11.10546,7.8125-11.22851,14.00977-.125,6.32324,4.49609,10.64258,6.7168,12.71875a23.94678,23.94678,0,0,0,8.0664,4.8667,55.56129,55.56129,0,0,0,9.28028-16.40674c1.71289-5.16309,1.86035-9.44287.415-12.05029C135.28223,33.90918,131.38086,32.49219,127.3418,32.49219Z"/><path d="M143.28027,171.63086c-3.78808-3.58887-19.53711-13.44141-41.5-11.64063-14.05713,1.14747-22.82763,7.626-25.18115,9.584l-3.37793-3.67871.58252-.58985,52.92285-57.00683,3.66407,3.40234L87.40088,158.00684a54.48543,54.48543,0,0,1,13.97314-3.001c23.751-1.93359,41.13477,9.00684,45.34571,12.99609Z"/><path d="M119.959,170.13379l-4.99218-.26758a40.71655,40.71655,0,0,1,3.59375-14.6416,45.84182,45.84182,0,0,1,11.334-15.25586l3.33594,3.72461a40.86708,40.86708,0,0,0-10.11426,13.5918A35.74865,35.74865,0,0,0,119.959,170.13379Z"/></svg>