<svg data-name="Ksimalqiloli itik" xmlns="http://www.w3.org/2000/svg" viewBox="0 0 200 200"><title>v</title><path d="M143.28027,171.63086c-3.78808-3.58887-19.53711-13.44141-41.5-11.64063-14.05713,1.14747-22.82763,7.626-25.18115,9.584l-3.37793-3.67871.86719-.83692C108.73926,139.22266,123.19531,121.27441,125.667,112.5H75v-5h56.05859V110c0,9.89648-13.47265,26.3457-37.56445,46.22266a55.33606,55.33606,0,0,1,7.87988-1.2168c23.751-1.93359,41.13477,9.00684,45.34571,12.99609Z"/><path d="M127.7373,170.13379l-4.99218-.26758a40.67518,40.67518,0,0,1,3.59375-14.6416,45.82179,45.82179,0,0,1,11.334-15.25586l3.33594,3.72461a40.84039,40.84039,0,0,0-10.11328,13.5918A35.69859,35.69859,0,0,0,127.7373,170.13379Z"/><path d="M75.53418,92.44238l-1.06836-4.88476c12.08691-2.64258,29.73828-8.78614,45.19043-23.04541,12.21387-11.269,19.62012-23.603,22.16211-32.01221H75v-5h72.99219L147.46,30.44482c-1.52344,8.4253-8.83105,23.36524-24.41308,37.74219C106.77148,83.20654,88.22559,89.667,75.53418,92.44238Z"/><path d="M135.06543,81.34521c-5.51855-.56494-16.082-2.64746-24.831-10.24365C104.07813,65.75244,97.23145,51.23,96.22852,48.52051l4.68945-1.73535c1.03613,2.7998,7.60351,16.2041,12.59473,20.5415,7.709,6.69287,17.13183,8.53955,22.0625,9.04492Z"/><path d="M85.61328,54.78271a34.21964,34.21964,0,0,1-11.63623-5.5205,27.58394,27.58394,0,0,1-7.65283-8.521l2.6084-1.48242a24.60272,24.60272,0,0,0,6.83154,7.59375,31.231,31.231,0,0,0,10.62256,5.03174Z"/><path d="M71.98486,61.44922a34.21434,34.21434,0,0,1-11.63672-5.51953,27.58451,27.58451,0,0,1-7.65234-8.52246l2.6084-1.48145a24.5989,24.5989,0,0,0,6.831,7.59375A31.21763,31.21763,0,0,0,72.7583,58.55078Z"/></svg>