<svg data-name="Yololqiloli itik" xmlns="http://www.w3.org/2000/svg" viewBox="0 0 200 200"><title>v</title><path d="M110.09277,172.5h-.17968c-9.14893-.043-16.55079-3.36914-20.85694-9.376-5.50244-7.67871-7.54638-18.44238-6.07519-31.99316a59.15966,59.15966,0,0,1,6.71435-22.35352l4.36133,2.44532a54.74458,54.74458,0,0,0-6.105,20.44824c-1.33447,12.29.40479,21.89258,5.16846,28.54,3.356,4.68164,9.34961,7.26855,16.88281,7.28906,7.53613-.02051,13.53027-2.60742,16.88281-7.28906,4.76367-6.65137,6.50293-16.25391,5.168-28.54a54.82926,54.82926,0,0,0-6.10547-20.44922l4.36328-2.44336a59.27629,59.27629,0,0,1,6.71289,22.35156c1.47168,13.54688-.57128,24.31055-6.07421,31.99317-4.30274,6.00781-11.70411,9.334-20.85743,9.37695Z"/><rect x="76" y="15.5" width="70" height="3"/><path d="M75.53418,92.44238l-1.06836-4.88476c12.08691-2.64258,29.73828-8.78614,45.19043-23.04541,12.21387-11.269,19.62012-23.603,22.16211-32.01221H75v-5h72.99219L147.46,30.44482c-1.52344,8.4253-8.83105,23.36524-24.41308,37.74219C106.77148,83.20654,88.22559,89.667,75.53418,92.44238Z"/><path d="M135.06543,81.34521c-5.51855-.56494-16.082-2.64746-24.831-10.24365C104.07813,65.75244,97.23145,51.23,96.22852,48.52051l4.68945-1.73535c1.03613,2.7998,7.60351,16.2041,12.59473,20.5415,7.709,6.69287,17.13183,8.53955,22.0625,9.04492Z"/><path d="M78.61816,59.45068A46.59033,46.59033,0,0,1,62.96533,52.0874,36.86349,36.86349,0,0,1,52.69824,40.74512l2.60352-1.49024a33.88737,33.88737,0,0,0,9.44287,10.41748,43.56666,43.56666,0,0,0,14.63721,6.877Z"/></svg>