<svg data-name="Hekalqilotontli 5" xmlns="http://www.w3.org/2000/svg" viewBox="0 0 200 200"><title>v</title><polygon points="27.923 85 24.923 85 24.923 53.5 56.423 53.5 56.423 56.5 27.923 56.5 27.923 85"/><rect x="68.34277" y="38.5" width="90" height="3"/><path d="M65.61768,147.42285l-1.23536-4.8457a120.09634,120.09634,0,0,0,58.38135-34.75391C139.31348,90.00732,149.084,70.34473,151.97754,57.5H65v-5h92.917l-.44629,2.88281c-1.92382,12.41553-11.208,34.49073-31.043,55.84278A125.09394,125.09394,0,0,1,65.61768,147.42285Z"/><path d="M142.25781,130.76953a53.68159,53.68159,0,0,1-31.6289-15.1914c-7.64551-7.752-16.48243-29.49415-17.70313-33.34327l4.76563-1.51172c1.35254,4.26368,9.9414,24.69678,16.49707,31.34229a48.6524,48.6524,0,0,0,28.66308,13.73926Z"/><path d="M62.74561,99.5a16.5,16.5,0,1,1,16.5-16.5A16.51867,16.51867,0,0,1,62.74561,99.5Zm0-30a13.5,13.5,0,1,0,13.5,13.5A13.51539,13.51539,0,0,0,62.74561,69.5Z"/></svg>