<svg xmlns="http://www.w3.org/2000/svg" viewBox="0 0 200 200" id="va!x" data-name="va!x"><title>va!x</title><path d="M110.50488,172.46777a28.73186,28.73186,0,0,1-17.25049-5.68457,22.88825,22.88825,0,0,1-5.11279-5.25586c-5.957-8.5625-5.93506-20.95312-3.27051-29.43359,1.98682-6.32422,5.40821-10.668,9.63379-12.23047,5.82715-2.15039,13.76075,1.02832,18.0625,7.23633,5.043,7.27344,2.65332,15.874,1.75391,19.11133-2.63281,9.50488-9.55762,16.05078-13.793,19.13281,6.24316,2.85254,13.77051,2.93945,19.35156-.0752,5.94336-3.21191,12.82032-11.91894,11.83594-35.16015a57.35131,57.35131,0,0,0-4.19922-19.16992l4.63477-1.877a62.35885,62.35885,0,0,1,4.56054,20.83106c.87793,20.73633-3.98535,34.11719-14.45507,39.77441A24.78523,24.78523,0,0,1,110.50488,172.46777ZM98.52148,124.168a6.57207,6.57207,0,0,0-2.28418.38574c-2.70019.99805-5.105,4.293-6.59619,9.03809-2.22363,7.0791-2.35742,17.94726,2.605,25.08008a17.53665,17.53665,0,0,0,3.59473,3.791c2.62158-1.47851,10.92773-7.71484,13.6543-17.55762.80468-2.89843,2.66992-9.61132-1.03711-14.957C106.0166,126.4248,101.95605,124.168,98.52148,124.168Z"/><rect x="76" y="15.5" width="70" height="3"/><path d="M75.53418,92.44238l-1.06836-4.88476c12.08691-2.64258,29.73828-8.78614,45.19043-23.04541,12.21387-11.269,19.62012-23.603,22.16211-32.01221H75v-5h72.99219L147.46,30.44482c-1.52344,8.4253-8.83105,23.36524-24.41308,37.74219C106.77148,83.20654,88.22559,89.667,75.53418,92.44238Z"/><path d="M135.06543,81.34521c-5.51855-.56494-16.082-2.64746-24.831-10.24365C104.07813,65.75244,97.23145,51.23,96.22852,48.52051l4.68945-1.73535c1.03613,2.7998,7.60351,16.2041,12.59473,20.5415,7.709,6.69287,17.13183,8.53955,22.0625,9.04492Z"/></svg>