<svg xmlns="http://www.w3.org/2000/svg" viewBox="0 0 200 200" id="ve&apos;" data-name="ve&apos;"><title>ve'</title><polygon points="27.923 85 24.923 85 24.923 53.5 56.423 53.5 56.423 56.5 27.923 56.5 27.923 85"/><path d="M65.61768,147.42285l-1.23536-4.8457a120.09634,120.09634,0,0,0,58.38135-34.75391C139.31348,90.00732,149.084,70.34473,151.97754,57.5H65v-5h92.917l-.44629,2.88281c-1.92382,12.41553-11.208,34.49073-31.043,55.84278A125.09394,125.09394,0,0,1,65.61768,147.42285Z"/><path d="M142.25781,130.76953a53.68159,53.68159,0,0,1-31.6289-15.1914c-7.64551-7.752-16.48243-29.49415-17.70313-33.34327l4.76563-1.51172c1.35254,4.26368,9.9414,24.69678,16.49707,31.34229a48.6524,48.6524,0,0,0,28.66308,13.73926Z"/><path d="M86.40332,92.07764a45.53114,45.53114,0,0,1-16.46387-9.2793,44.25592,44.25592,0,0,1-10.72461-14.186l2.707-1.29394a41.26889,41.26889,0,0,0,10.00146,13.23,42.5635,42.5635,0,0,0,15.38721,8.66992Z"/><path d="M66.90186,103.419a45.52892,45.52892,0,0,1-16.46436-9.2793,44.25592,44.25592,0,0,1-10.72461-14.186l2.707-1.29394a41.26906,41.26906,0,0,0,10.00147,13.23,42.554,42.554,0,0,0,15.38672,8.66992Z"/></svg>