<svg xmlns="http://www.w3.org/2000/svg" viewBox="0 0 200 200" id="wa!n" data-name="wa!n"><title>wa!n</title><path d="M80.2207,172.49023l-.4414-4.98046c26.05273-2.3086,38.457-1.99512,48.03711-1.51954l7.57031.376c-.0957-4.834-.23731-15.5459.0625-27.18652.1582-6.15235.78808-13.83789,1.585-23.56836l.47363-5.8125,4.98438.40234-.47461,5.81738c-.791,9.65333-1.415,17.27833-1.57031,23.29-.40137,15.57813-.00391,29.47559,0,29.61426l.0791,2.7041-12.958-.64257C118.1543,170.51563,105.95605,170.21,80.2207,172.49023Z"/><rect x="76" y="15.5" width="70" height="3"/><path d="M75.53418,92.44238l-1.06836-4.88476c12.08691-2.64258,29.73828-8.78614,45.19043-23.04541,12.21387-11.269,19.62012-23.603,22.16211-32.01221H75v-5h72.99219L147.46,30.44482c-1.52344,8.4253-8.83105,23.36524-24.41308,37.74219C106.77148,83.20654,88.22559,89.667,75.53418,92.44238Z"/></svg>