<svg data-name="Coalqiloli itik" xmlns="http://www.w3.org/2000/svg" viewBox="0 0 200 200"><title>w</title><path d="M101.957,172.5c-10.71631,0-20.4414-2.79395-23.877-6.91211l3.83984-3.20312c1.86279,2.23339,9.624,5.31347,20.96387,5.10742,15.06738-.24707,31.67285-8.416,34.25684-23.55274a28.579,28.579,0,0,0-10.36915-26.49609c-6.75488-5.32227-16.7246-5.40137-23.89843-4.53613-4.69971.56836-12.26905,4.23242-14.78955,5.59668l-2.37989-4.39649c.40381-.21875,9.97266-5.36621,16.56885-6.16406,8.11328-.97852,19.48926-.81152,27.59277,5.57227a33.70837,33.70837,0,0,1,12.20411,31.26562c-3.043,17.82129-21.97461,27.42969-39.10352,27.71094C102.62988,172.49707,102.292,172.5,101.957,172.5Z"/><rect x="76" y="15.5" width="70" height="3"/><path d="M75.53418,92.44238l-1.06836-4.88476c12.08691-2.64258,29.73828-8.78614,45.19043-23.04541,12.21387-11.269,19.62012-23.603,22.16211-32.01221H75v-5h72.99219L147.46,30.44482c-1.52344,8.4253-8.83105,23.36524-24.41308,37.74219C106.77148,83.20654,88.22559,89.667,75.53418,92.44238Z"/><path d="M85.61328,54.78271a34.21964,34.21964,0,0,1-11.63623-5.5205,27.58394,27.58394,0,0,1-7.65283-8.521l2.6084-1.48242a24.60272,24.60272,0,0,0,6.83154,7.59375,31.231,31.231,0,0,0,10.62256,5.03174Z"/><path d="M71.98486,61.44922a34.21434,34.21434,0,0,1-11.63672-5.51953,27.58451,27.58451,0,0,1-7.65234-8.52246l2.6084-1.48145a24.5989,24.5989,0,0,0,6.831,7.59375A31.21763,31.21763,0,0,0,72.7583,58.55078Z"/></svg>