<svg xmlns="http://www.w3.org/2000/svg" viewBox="0 0 200 200" id="we!m" data-name="we!m"><title>we!m</title><path d="M135.88281,172.5c-5.26367.001-8.55468-3.8623-10.1416-5.72461-3.67578-4.2998-4.87109-12.16211-4.9209-12.49512-.00293-.02929-.00586-.05957-.00976-.08886-2.65039-.13282-5.36231-.25489-8.0127-.25977-3.9834-.00293-7.95508.126-11.791.40137-2.59473.18652-5.22071.31445-8.00147.45019-1.87744.0918-3.78125.18555-5.69726.29883l-2.11817.124c-3.31006.19239-6.73242.39161-9.9834.66114l-.41308-4.98242c3.312-.27442,6.76562-.47559,10.106-.6709l2.1128-.124c1.93457-.11328,3.855-.208,5.749-.2998,2.75147-.13477,5.3501-.26172,7.88818-.44336,3.957-.28516,8.02149-.4043,12.15918-.415,2.51465.00488,5.044.10938,7.52149.23047a129.11846,129.11846,0,0,1-.30762-13.16309c.22949-9.88867,2.99609-25.75976,3.11328-26.43066l4.92578.86328c-.02832.16113-2.81933,16.17383-3.041,25.68457a122.16646,122.16646,0,0,0,.34082,13.293c.06152.00293.12207.00586.18359.00781a70.08261,70.08261,0,0,1,12.18946,1.47949c1.80078.39844,6.59375,1.457,8.748,5.50489,2.51465,4.72754-.34082,9.77441-.6748,10.334a11.84147,11.84147,0,0,1-9.8252,5.76465Zm-9.96289-18.05957c.44238,2.27246,1.62988,6.75586,3.625,9.08984,1.35059,1.584,3.38281,3.96973,6.3418,3.96973h.0498a6.74837,6.74837,0,0,0,5.5752-3.32324c.0166-.0293,1.77051-3.14453.55664-5.42676-.94922-1.7832-3.39356-2.52441-5.416-2.97168A64.0455,64.0455,0,0,0,125.91992,154.44043Z"/><rect x="76" y="15.5" width="70" height="3"/><path d="M75.53418,92.44238l-1.06836-4.88476c12.08691-2.64258,29.73828-8.78614,45.19043-23.04541,12.21387-11.269,19.62012-23.603,22.16211-32.01221H75v-5h72.99219L147.46,30.44482c-1.52344,8.4253-8.83105,23.36524-24.41308,37.74219C106.77148,83.20654,88.22559,89.667,75.53418,92.44238Z"/><path d="M85.61328,54.78271a34.21964,34.21964,0,0,1-11.63623-5.5205,27.58394,27.58394,0,0,1-7.65283-8.521l2.6084-1.48242a24.60272,24.60272,0,0,0,6.83154,7.59375,31.231,31.231,0,0,0,10.62256,5.03174Z"/><path d="M71.98486,61.44922a34.21434,34.21434,0,0,1-11.63672-5.51953,27.58451,27.58451,0,0,1-7.65234-8.52246l2.6084-1.48145a24.5989,24.5989,0,0,0,6.831,7.59375A31.21763,31.21763,0,0,0,72.7583,58.55078Z"/></svg>