<svg xmlns="http://www.w3.org/2000/svg" viewBox="0 0 200 200" id="wi" data-name="wi"><title>wi</title><path d="M65.61768,147.42285l-1.23536-4.8457a120.09634,120.09634,0,0,0,58.38135-34.75391C139.31348,90.00732,149.084,70.34473,151.97754,57.5H65v-5h92.917l-.44629,2.88281c-1.92382,12.41553-11.208,34.49073-31.043,55.84278A125.09394,125.09394,0,0,1,65.61768,147.42285Z"/><path d="M76.55615,91.93311A46.66279,46.66279,0,0,1,59.9209,82.73389,44.06811,44.06811,0,0,1,49.08008,68.65674l2.69726-1.31348a41.08616,41.08616,0,0,0,10.10791,13.123,43.62192,43.62192,0,0,0,15.5586,8.60058Z"/></svg>