<svg xmlns="http://www.w3.org/2000/svg" viewBox="0 0 200 200" id="xa!d" data-name="xa!d"><title>xa!d</title><path d="M117.78223,171.75293a37.41933,37.41933,0,0,1-.30957-52.40527,36.38069,36.38069,0,0,1,6.99707-5.55274c-10.89453.84278-26.78662,2.22754-49.21827,4.49512l-.50292-4.97461c53.4331-5.40234,69.49169-5.7998,70.19482-5.81445h.00391l.10644,4.998c-.13769.00391-14.33691.46973-24.00879,10.34668a32.64506,32.64506,0,0,0-9.01562,25.20508,33.34127,33.34127,0,0,0,9.31738,20.19629Z"/><path d="M125.0498,143.33594c-7.91894,0-15.86816-.36426-23.70214-1.08789-4.74659-.4375-9.5376-1.0166-14.23975-1.71875l.73926-4.94532c4.60986.68946,9.30664,1.25586,13.95947,1.68555a254.37569,254.37569,0,0,0,28.51172,1.01172l.10547,4.99805Q127.74024,143.33642,125.0498,143.33594Z"/><rect x="85.5" y="15.5" width="47" height="3"/><path d="M110.50488,92.46826A28.73663,28.73663,0,0,1,93.25439,86.7832a22.8834,22.8834,0,0,1-5.11279-5.25586c-5.95752-8.563-5.93506-20.9541-3.27-29.43554,1.98682-6.32325,5.40821-10.66651,9.63379-12.228,5.82666-2.15137,13.76026,1.02832,18.062,7.23584,5.043,7.27246,2.65332,15.87353,1.75391,19.11133-2.63281,9.50586-9.55762,16.05078-13.79346,19.13281,6.24365,2.85107,13.771,2.93945,19.35205-.0752,5.94336-3.21191,12.82032-11.91845,11.83692-35.16015a57.37936,57.37936,0,0,0-4.2002-19.16992l4.63477-1.877a62.36155,62.36155,0,0,1,4.56054,20.83155c.87793,20.73584-3.98535,34.11621-14.45507,39.77392A24.78558,24.78558,0,0,1,110.50488,92.46826ZM98.52246,44.16846a6.58408,6.58408,0,0,0-2.28467.38525c-2.70068.99854-5.10547,4.29248-6.59619,9.03711-2.22412,7.07959-2.3584,17.94775,2.60449,25.08106a17.8134,17.8134,0,0,0,3.59473,3.791c2.62109-1.47851,10.92773-7.71435,13.6543-17.55762.80468-2.89892,2.66992-9.61181-1.03711-14.95752C106.01758,46.42529,101.957,44.16846,98.52246,44.16846Z"/></svg>