<svg xmlns="http://www.w3.org/2000/svg" viewBox="0 0 200 200" id="xo!&apos;" data-name="xo!&apos;"><title>xo!'</title><polygon points="8.173 84.25 5.173 84.25 5.173 52.75 36.673 52.75 36.673 55.75 8.173 55.75 8.173 84.25"/><rect x="79.34277" y="38.5" width="60" height="3"/><path d="M110.74707,147.46094a41.8311,41.8311,0,0,1-25.106-8.27832,33.17149,33.17149,0,0,1-7.40283-7.60547c-8.647-12.42969-8.51758-31.03662-4.73877-43.06445,2.86231-9.10791,7.72461-15.33887,13.6919-17.54493,8.23242-3.03759,19.48925,1.52832,25.63183,10.394,7.2334,10.43066,3.76074,22.92334,2.45313,27.62646-4.252,15.34668-16.126,25.4082-21.93116,29.21094,10.05811,5.34082,22.7876,5.81836,32.06983.80273,9.22851-4.9873,19.91406-18.38574,18.4082-53.895a87.28667,87.28667,0,0,0-6.38965-29.16845l4.63477-1.877a92.30006,92.30006,0,0,1,6.751,30.83106c1.29687,30.583-5.77832,50.26758-21.02735,58.50781A35.94626,35.94626,0,0,1,110.74707,147.46094ZM92.728,75.01563a10.96187,10.96187,0,0,0-3.8042.64208C84.50635,77.291,80.62305,82.523,78.27,90.01172c-3.42529,10.90039-3.61182,27.66406,4.07275,38.71a28.46625,28.46625,0,0,0,6.335,6.48926c.06788.05176.13477.10254.20313.15429l-.124-.2539c3.23437-1.5791,17.25879-11.42188,21.69043-27.419,1.2539-4.51269,4.16406-14.97851-1.7334-23.48193C104.8252,78.59717,98.30078,75.01563,92.728,75.01563Z"/><path d="M39.74561,99.5a16.5,16.5,0,1,1,16.5-16.5A16.51867,16.51867,0,0,1,39.74561,99.5Zm0-30a13.5,13.5,0,1,0,13.5,13.5A13.51539,13.51539,0,0,0,39.74561,69.5Z"/></svg>