<svg data-name="Hekalqiloli itik" xmlns="http://www.w3.org/2000/svg" viewBox="0 0 200 200"><title>x</title><path d="M124.94434,171.02441l-4.56055-2.04882c11.31641-25.20508,16.00976-40.377,8.41406-48.3584-4.37109-4.59082-13.41992-5.49512-24.21-2.417-9.92578,2.83105-14.08643,11.10058-15.83008,17.54785-.65576,4.05078-1.272,8.61523-1.28027,8.67675L82.5,144.08105a40.62313,40.62313,0,0,1,1.19824-8.36328c.27344-1.72265.562-3.42285.82715-4.75879,1.40967-7.09375,2.52734-14.24023,3.32227-21.24121l4.96777.56446c-.38477,3.39257-.84424,6.81836-1.375,10.25586a25.28158,25.28158,0,0,1,11.77637-7.14649c12.7998-3.65137,23.44433-2.27344,29.20215,3.77832C141.96094,127.19531,137.15332,143.832,124.94434,171.02441Z"/><rect x="85.5" y="15.5" width="47" height="3"/><path d="M110.50488,92.46826A28.73663,28.73663,0,0,1,93.25439,86.7832a22.8834,22.8834,0,0,1-5.11279-5.25586c-5.95752-8.563-5.93506-20.9541-3.27-29.43554,1.98682-6.32325,5.40821-10.66651,9.63379-12.228,5.82666-2.15137,13.76026,1.02832,18.062,7.23584,5.043,7.27246,2.65332,15.87353,1.75391,19.11133-2.63281,9.50586-9.55762,16.05078-13.79346,19.13281,6.24365,2.85107,13.771,2.93945,19.35205-.0752,5.94336-3.21191,12.82032-11.91845,11.83692-35.16015a57.37936,57.37936,0,0,0-4.2002-19.16992l4.63477-1.877a62.36155,62.36155,0,0,1,4.56054,20.83155c.87793,20.73584-3.98535,34.11621-14.45507,39.77392A24.78558,24.78558,0,0,1,110.50488,92.46826ZM98.52246,44.16846a6.58408,6.58408,0,0,0-2.28467.38525c-2.70068.99854-5.10547,4.29248-6.59619,9.03711-2.22412,7.07959-2.3584,17.94775,2.60449,25.08106a17.8134,17.8134,0,0,0,3.59473,3.791c2.62109-1.47851,10.92773-7.71435,13.6543-17.55762.80468-2.89892,2.66992-9.61181-1.03711-14.95752C106.01758,46.42529,101.957,44.16846,98.52246,44.16846Z"/><path d="M55,63.5A12.5,12.5,0,1,1,67.5,51,12.51408,12.51408,0,0,1,55,63.5Zm0-22A9.5,9.5,0,1,0,64.5,51,9.51081,9.51081,0,0,0,55,41.5Z"/></svg>