<svg data-name="Zawilqiloli itik" xmlns="http://www.w3.org/2000/svg" viewBox="0 0 200 200"><title>x</title><path d="M143.28027,171.63086c-3.78808-3.58887-19.53711-13.44141-41.5-11.64063-14.05713,1.14747-22.82763,7.626-25.18115,9.584l-3.37793-3.67871.58252-.58985,52.92285-57.00683,3.66407,3.40234L87.40088,158.00684a54.48543,54.48543,0,0,1,13.97314-3.001c23.751-1.93359,41.13477,9.00684,45.34571,12.99609Z"/><path d="M119.959,170.13379l-4.99218-.26758a40.71655,40.71655,0,0,1,3.59375-14.6416,45.84182,45.84182,0,0,1,11.334-15.25586l3.33594,3.72461a40.86708,40.86708,0,0,0-10.11426,13.5918A35.74865,35.74865,0,0,0,119.959,170.13379Z"/><path d="M110.50488,92.46826A28.73663,28.73663,0,0,1,93.25439,86.7832a22.8834,22.8834,0,0,1-5.11279-5.25586c-5.95752-8.563-5.93506-20.9541-3.27-29.43554,1.98682-6.32325,5.40821-10.66651,9.63379-12.228,5.82666-2.15137,13.76026,1.02832,18.062,7.23584,5.043,7.27246,2.65332,15.87353,1.75391,19.11133-2.63281,9.50586-9.55762,16.05078-13.79346,19.13281,6.24365,2.85107,13.771,2.93945,19.35205-.0752,5.94336-3.21191,12.82032-11.91845,11.83692-35.16015a57.37936,57.37936,0,0,0-4.2002-19.16992l4.63477-1.877a62.36155,62.36155,0,0,1,4.56054,20.83155c.87793,20.73584-3.98535,34.11621-14.45507,39.77392A24.78558,24.78558,0,0,1,110.50488,92.46826ZM98.52246,44.16846a6.58408,6.58408,0,0,0-2.28467.38525c-2.70068.99854-5.10547,4.29248-6.59619,9.03711-2.22412,7.07959-2.3584,17.94775,2.60449,25.08106a17.8134,17.8134,0,0,0,3.59473,3.791c2.62109-1.47851,10.92773-7.71435,13.6543-17.55762.80468-2.89892,2.66992-9.61181-1.03711-14.95752C106.01758,46.42529,101.957,44.16846,98.52246,44.16846Z"/><path d="M55,63.5A12.5,12.5,0,1,1,67.5,51,12.51408,12.51408,0,0,1,55,63.5Zm0-22A9.5,9.5,0,1,0,64.5,51,9.51081,9.51081,0,0,0,55,41.5Z"/></svg>