<svg xmlns="http://www.w3.org/2000/svg" viewBox="0 0 200 200" id="xu" data-name="xu"><title>xu</title><path d="M110.74707,147.46094a41.8311,41.8311,0,0,1-25.106-8.27832,33.17149,33.17149,0,0,1-7.40283-7.60547c-8.647-12.42969-8.51758-31.03662-4.73877-43.06445,2.86231-9.10791,7.72461-15.33887,13.6919-17.54493,8.23242-3.03759,19.48925,1.52832,25.63183,10.394,7.2334,10.43066,3.76074,22.92334,2.45313,27.62646-4.252,15.34668-16.126,25.4082-21.93116,29.21094,10.05811,5.34082,22.7876,5.81836,32.06983.80273,9.22851-4.9873,19.91406-18.38574,18.4082-53.895a87.28667,87.28667,0,0,0-6.38965-29.16845l4.63477-1.877a92.30006,92.30006,0,0,1,6.751,30.83106c1.29687,30.583-5.77832,50.26758-21.02735,58.50781A35.94626,35.94626,0,0,1,110.74707,147.46094ZM92.728,75.01563a10.96187,10.96187,0,0,0-3.8042.64208C84.50635,77.291,80.62305,82.523,78.27,90.01172c-3.42529,10.90039-3.61182,27.66406,4.07275,38.71a28.46625,28.46625,0,0,0,6.335,6.48926c.06788.05176.13477.10254.20313.15429l-.124-.2539c3.23437-1.5791,17.25879-11.42188,21.69043-27.419,1.2539-4.51269,4.16406-14.97851-1.7334-23.48193C104.8252,78.59717,98.30078,75.01563,92.728,75.01563Z"/><path d="M25.458,99.5q-.37208,0-.74512-.0083l.06641-2.999a27.15221,27.15221,0,0,0,11.86181-2.3335,30.29884,30.29884,0,0,0,9.37744-6.77539,14.31583,14.31583,0,0,1-3.771-2.50733c-1.292-1.208-4.3169-4.03662-4.22949-8.42236a10.54668,10.54668,0,0,1,7.65039-9.60644c3.40576-.916,8.10058-.06983,9.74365,2.8916,1.11523,2.01269,1.11475,4.85644-.00293,8.22461a29.5119,29.5119,0,0,1-4.22852,7.88183c.47168.0791.94825.13477,1.42481.16651l-.19824,2.99316a17.40184,17.40184,0,0,1-2.99561-.46338c-.09521-.02344-.208-.05078-.33594-.08349a33.655,33.655,0,0,1-11.20019,8.43505A29.95044,29.95044,0,0,1,25.458,99.5ZM48.39453,69.501a7.31062,7.31062,0,0,0-7.37744,7.01269c-.06055,3.04834,2.19531,5.15772,3.2793,6.17139a11.64771,11.64771,0,0,0,3.78174,2.31836A27.40257,27.40257,0,0,0,52.562,77.019c.82227-2.478.90479-4.60107.22608-5.82519C52.21631,70.1626,50.32666,69.501,48.39453,69.501Z"/></svg>