<svg xmlns="http://www.w3.org/2000/svg" viewBox="0 0 200 200" id="xutl" data-name="xutl"><title>xutl</title><path d="M92.958,172.44922c-5.73633.001-11.27051-1.72949-14.105-6.55859-3.07373-5.24415-2.67188-14.02735.895-19.58106a15.74466,15.74466,0,0,1,8.68408-6.43945l.18945-.06543c7.04834-2.39942,18.36475-2.03906,35.39893,9.06543A79.44287,79.44287,0,0,0,140.22852,112.5H75v-5h70.44629V110c0,4.57129-3.44727,24.59863-17.25,41.72949A170.24583,170.24583,0,0,1,145.4834,166.1377c.54785.51562.93652.88281,1.14844,1.06445l-3.26368,3.78906c-.24023-.208-.68554-.624-1.30957-1.21094a163.82881,163.82881,0,0,0-17.14746-14.251,67.22585,67.22585,0,0,1-16.97265,13.28027A33.26877,33.26877,0,0,1,92.958,172.44922Zm3.21533-28.8252a18.30577,18.30577,0,0,0-5.92725.90918l-.1958.06739a10.95842,10.95842,0,0,0-6.09472,4.41015c-2.563,3.99024-2.93164,10.69531-.78955,14.34961,3.561,6.07031,15.81982,4.66211,22.36523,1.06641a61.7204,61.7204,0,0,0,15.15625-11.75391C109.67871,145.61523,101.68652,143.624,96.17334,143.624Z"/><path d="M110.50488,92.46826A28.73663,28.73663,0,0,1,93.25439,86.7832a22.8834,22.8834,0,0,1-5.11279-5.25586c-5.95752-8.563-5.93506-20.9541-3.27-29.43554,1.98682-6.32325,5.40821-10.66651,9.63379-12.228,5.82666-2.15137,13.76026,1.02832,18.062,7.23584,5.043,7.27246,2.65332,15.87353,1.75391,19.11133-2.63281,9.50586-9.55762,16.05078-13.79346,19.13281,6.24365,2.85107,13.771,2.93945,19.35205-.0752,5.94336-3.21191,12.82032-11.91845,11.83692-35.16015a57.37936,57.37936,0,0,0-4.2002-19.16992l4.63477-1.877a62.36155,62.36155,0,0,1,4.56054,20.83155c.87793,20.73584-3.98535,34.11621-14.45507,39.77392A24.78558,24.78558,0,0,1,110.50488,92.46826ZM98.52246,44.16846a6.58408,6.58408,0,0,0-2.28467.38525c-2.70068.99854-5.10547,4.29248-6.59619,9.03711-2.22412,7.07959-2.3584,17.94775,2.60449,25.08106a17.8134,17.8134,0,0,0,3.59473,3.791c2.62109-1.47851,10.92773-7.71435,13.6543-17.55762.80468-2.89892,2.66992-9.61181-1.03711-14.95752C106.01758,46.42529,101.957,44.16846,98.52246,44.16846Z"/><path d="M44.5249,63.5q-.27831,0-.55859-.00635l.06738-2.999a19.52726,19.52726,0,0,0,8.5249-1.67578,21.64729,21.64729,0,0,0,6.373-4.48731,10.70049,10.70049,0,0,1-2.37012-1.66308c-.90136-.84278-3.29638-3.082-3.22851-6.47657a8.14751,8.14751,0,0,1,5.90625-7.42334c2.645-.708,6.30224-.02783,7.59912,2.313.87353,1.57666.8833,3.773.02734,6.35157a21.49515,21.49515,0,0,1-2.772,5.3457q.18164.019.36475.03125l-.20215,2.99316a13.288,13.288,0,0,1-2.2627-.35009l-.01709-.0044A25.0031,25.0031,0,0,1,53.793,61.55322,22.36265,22.36265,0,0,1,44.5249,63.5ZM61.36572,41.49463a5.2193,5.2193,0,0,0-1.34814.17139A5.12282,5.12282,0,0,0,56.332,46.25146c-.041,2.05713,1.52539,3.522,2.27832,4.22559a8.0296,8.0296,0,0,0,2.37207,1.50879,19.46658,19.46658,0,0,0,3.03613-5.49756c.56788-1.71142.63916-3.15185.19581-3.95215A3.51336,3.51336,0,0,0,61.36572,41.49463Z"/></svg>