<svg data-name="Nyonilqiloli itik" xmlns="http://www.w3.org/2000/svg" viewBox="0 0 200 200"><title>y</title><path d="M80.84033,172.49121l-.42578-4.98242c27.01025-2.30762,39.86572-1.99219,49.79053-1.51856l7.9541.37989c-.09961-4.833-.24707-15.54785.06445-27.19239.165-6.16015.81836-13.85742,1.64551-23.60156l.48926-5.78515,4.98242.418-.48926,5.79c-.82031,9.66407-1.46875,17.29688-1.62988,23.31153-.417,15.584-.00488,29.4707,0,29.60937l.082,2.70215-13.33691-.63769C120.19922,170.5166,107.542,170.21,80.84033,172.49121Z"/><path d="M154.72949,159.03516a93.70135,93.70135,0,0,1-21.12011-4.89942,75.16806,75.16806,0,0,1-8.50684-3.69824l2.28125-4.44922a70.21874,70.21874,0,0,0,7.93848,3.4502,88.78544,88.78544,0,0,0,19.99121,4.63183Z"/><path d="M110.09277,92.5l-.17968-.00049c-9.14893-.04248-16.55079-3.36865-20.85694-9.37646-5.50244-7.67823-7.54638-18.4419-6.07519-31.99317a59.16261,59.16261,0,0,1,6.71435-22.353l4.36133,2.44628a54.73753,54.73753,0,0,0-6.105,20.44727c-1.334,12.29.40479,21.89258,5.16846,28.54,3.356,4.68213,9.34961,7.269,16.88281,7.28955,7.53613-.02051,13.5293-2.60742,16.88281-7.28906,4.76367-6.65186,6.50293-16.2544,5.168-28.541a54.82548,54.82548,0,0,0-6.10547-20.44824l4.36328-2.44336a59.273,59.273,0,0,1,6.71289,22.35107c1.47168,13.54688-.57226,24.311-6.07421,31.99268-4.30274,6.0083-11.70411,9.335-20.85743,9.37744Z"/><path d="M75.61328,54.78271a34.21964,34.21964,0,0,1-11.63623-5.5205,27.58394,27.58394,0,0,1-7.65283-8.521l2.6084-1.48242a24.60272,24.60272,0,0,0,6.83154,7.59375,31.231,31.231,0,0,0,10.62256,5.03174Z"/><path d="M61.98486,61.44922a34.21434,34.21434,0,0,1-11.63672-5.51953,27.58451,27.58451,0,0,1-7.65234-8.52246l2.6084-1.48145a24.5989,24.5989,0,0,0,6.831,7.59375,31.21763,31.21763,0,0,0,10.623,5.03125Z"/></svg>