<svg data-name="Coalqiloli itik" xmlns="http://www.w3.org/2000/svg" viewBox="0 0 200 200"><title>y</title><path d="M101.957,172.5c-10.71631,0-20.4414-2.79395-23.877-6.91211l3.83984-3.20312c1.86279,2.23339,9.624,5.31347,20.96387,5.10742,15.06738-.24707,31.67285-8.416,34.25684-23.55274a28.579,28.579,0,0,0-10.36915-26.49609c-6.75488-5.32227-16.7246-5.40137-23.89843-4.53613-4.69971.56836-12.26905,4.23242-14.78955,5.59668l-2.37989-4.39649c.40381-.21875,9.97266-5.36621,16.56885-6.16406,8.11328-.97852,19.48926-.81152,27.59277,5.57227a33.70837,33.70837,0,0,1,12.20411,31.26562c-3.043,17.82129-21.97461,27.42969-39.10352,27.71094C102.62988,172.49707,102.292,172.5,101.957,172.5Z"/><rect x="85.5" y="15.5" width="47" height="3"/><path d="M110.09277,92.5l-.17968-.00049c-9.14893-.04248-16.55079-3.36865-20.85694-9.37646-5.50244-7.67823-7.54638-18.4419-6.07519-31.99317a59.16261,59.16261,0,0,1,6.71435-22.353l4.36133,2.44628a54.73753,54.73753,0,0,0-6.105,20.44727c-1.334,12.29.40479,21.89258,5.16846,28.54,3.356,4.68213,9.34961,7.269,16.88281,7.28955,7.53613-.02051,13.5293-2.60742,16.88281-7.28906,4.76367-6.65186,6.50293-16.2544,5.168-28.541a54.82548,54.82548,0,0,0-6.10547-20.44824l4.36328-2.44336a59.273,59.273,0,0,1,6.71289,22.35107c1.47168,13.54688-.57226,24.311-6.07421,31.99268-4.30274,6.0083-11.70411,9.335-20.85743,9.37744Z"/><path d="M68.61816,59.45068A46.59033,46.59033,0,0,1,52.96533,52.0874,36.86349,36.86349,0,0,1,42.69824,40.74512l2.60352-1.49024a33.88737,33.88737,0,0,0,9.44287,10.41748,43.56666,43.56666,0,0,0,14.63721,6.877Z"/></svg>