<svg data-name="Hekalqiloli itik" xmlns="http://www.w3.org/2000/svg" viewBox="0 0 200 200"><title>y</title><path d="M124.94434,171.02441l-4.56055-2.04882c11.31641-25.20508,16.00976-40.377,8.41406-48.3584-4.37109-4.59082-13.41992-5.49512-24.21-2.417-9.92578,2.83105-14.08643,11.10058-15.83008,17.54785-.65576,4.05078-1.272,8.61523-1.28027,8.67675L82.5,144.08105a40.62313,40.62313,0,0,1,1.19824-8.36328c.27344-1.72265.562-3.42285.82715-4.75879,1.40967-7.09375,2.52734-14.24023,3.32227-21.24121l4.96777.56446c-.38477,3.39257-.84424,6.81836-1.375,10.25586a25.28158,25.28158,0,0,1,11.77637-7.14649c12.7998-3.65137,23.44433-2.27344,29.20215,3.77832C141.96094,127.19531,137.15332,143.832,124.94434,171.02441Z"/><path d="M110.09277,92.5l-.17968-.00049c-9.14893-.04248-16.55079-3.36865-20.85694-9.37646-5.50244-7.67823-7.54638-18.4419-6.07519-31.99317a59.16261,59.16261,0,0,1,6.71435-22.353l4.36133,2.44628a54.73753,54.73753,0,0,0-6.105,20.44727c-1.334,12.29.40479,21.89258,5.16846,28.54,3.356,4.68213,9.34961,7.269,16.88281,7.28955,7.53613-.02051,13.5293-2.60742,16.88281-7.28906,4.76367-6.65186,6.50293-16.2544,5.168-28.541a54.82548,54.82548,0,0,0-6.10547-20.44824l4.36328-2.44336a59.273,59.273,0,0,1,6.71289,22.35107c1.47168,13.54688-.57226,24.311-6.07421,31.99268-4.30274,6.0083-11.70411,9.335-20.85743,9.37744Z"/><path d="M68.61816,59.45068A46.59033,46.59033,0,0,1,52.96533,52.0874,36.86349,36.86349,0,0,1,42.69824,40.74512l2.60352-1.49024a33.88737,33.88737,0,0,0,9.44287,10.41748,43.56666,43.56666,0,0,0,14.63721,6.877Z"/></svg>