<svg data-name="Chakalqiloli itik" xmlns="http://www.w3.org/2000/svg" viewBox="0 0 200 200"><title>y</title><path d="M84.501,172.44922l-1.002-4.89844a44.73009,44.73009,0,0,0,11.82032-4.10156,14.48846,14.48846,0,0,1-4.97022-5.59766l-.06543-.11914c-.96435-1.72265-2.07666-4.5957-.61474-9.63379a10.74517,10.74517,0,0,1,9.3457-7.75586c6.5918-.49609,11.68945,2.918,12.40625,8.3125.57422,4.32813-1.32227,8.74414-4.99317,12.63184a44.11274,44.11274,0,0,0,6.4375-.54492c6.14258-.917,12.1875-5.09082,16.17286-11.165,4.06054-6.19238,5.43847-13.29883,3.77832-19.499-1.95411-7.30274-8.75684-15.84375-19.07422-17.34278-8.13281-1.17773-14.84033,2.42578-17.34717,4.03028l-2.69629-4.21094c2.97754-1.90723,10.96143-6.19239,20.76221-4.7666,12.624,1.833,20.74121,11.86621,23.18554,20.99707,2.02735,7.57519.41407,16.15234-4.42773,23.53418-4.82422,7.35546-11.97363,12.22754-19.61426,13.36816a36.25654,36.25654,0,0,1-12.53418.07031A46.88367,46.88367,0,0,1,84.501,172.44922ZM100.186,145.29883q-.40064,0-.7959.03027c-3.76319.28125-4.87061,3.99317-4.916,4.15137-1.05127,3.62305-.19385,5.15527.17236,5.81055.05713.10156.106.19043.145.26562a9.56288,9.56288,0,0,0,5.376,4.7832c4.51221-3.54687,6.74658-7.63476,6.29639-11.02636C106.08984,146.49707,103.08594,145.29883,100.186,145.29883Z"/><rect x="85.5" y="15.5" width="47" height="3"/><path d="M110.09277,92.5l-.17968-.00049c-9.14893-.04248-16.55079-3.36865-20.85694-9.37646-5.50244-7.67823-7.54638-18.4419-6.07519-31.99317a59.16261,59.16261,0,0,1,6.71435-22.353l4.36133,2.44628a54.73753,54.73753,0,0,0-6.105,20.44727c-1.334,12.29.40479,21.89258,5.16846,28.54,3.356,4.68213,9.34961,7.269,16.88281,7.28955,7.53613-.02051,13.5293-2.60742,16.88281-7.28906,4.76367-6.65186,6.50293-16.2544,5.168-28.541a54.82548,54.82548,0,0,0-6.10547-20.44824l4.36328-2.44336a59.273,59.273,0,0,1,6.71289,22.35107c1.47168,13.54688-.57226,24.311-6.07421,31.99268-4.30274,6.0083-11.70411,9.335-20.85743,9.37744Z"/></svg>