<svg xmlns="http://www.w3.org/2000/svg" viewBox="0 0 200 200" id="ye!" data-name="ye!"><title>ye!</title><rect x="79.34277" y="38.5" width="60" height="3"/><path d="M110.13379,147.5l-.26172-.001c-12.98877-.06347-23.4707-4.876-29.53564-13.56836-7.84766-11.251-10.75586-27.0957-8.64356-47.09326,1.75586-16.5791,6.79981-27.814,9.65039-33.03515l4.38867,2.3955c-2.15088,3.94043-7.34033,14.86475-9.0664,31.16553-1.98242,18.76563.63232,33.47168,7.77148,43.70606,5.123,7.34277,14.19971,11.39941,25.56592,11.43066,11.37109-.03125,20.44727-4.08789,25.56543-11.42969,7.13965-10.24218,9.75488-24.94726,7.77148-43.70752-1.72461-16.28222-6.915-27.21924-9.06738-31.166l4.39063-2.39356c2.85058,5.229,7.89453,16.47412,9.64941,33.03369,2.11328,19.99122-.79492,35.835-8.64258,47.09278-6.05859,8.69238-16.541,13.50586-29.53613,13.56933Z"/><path d="M61.40332,92.07764A45.54132,45.54132,0,0,1,44.939,82.79834a44.25446,44.25446,0,0,1-10.72412-14.186l2.707-1.29394a41.26889,41.26889,0,0,0,10.00146,13.23,42.5635,42.5635,0,0,0,15.38721,8.66992Z"/><path d="M41.90186,103.419a45.52892,45.52892,0,0,1-16.46436-9.2793,44.25592,44.25592,0,0,1-10.72461-14.186l2.707-1.29394a41.26906,41.26906,0,0,0,10.00147,13.23,42.554,42.554,0,0,0,15.38672,8.66992Z"/></svg>