<svg xmlns="http://www.w3.org/2000/svg" viewBox="0 0 200 200" id="yo!" data-name="yo!"><title>yo!</title><rect x="79.34277" y="38.5" width="60" height="3"/><path d="M110.13379,147.5l-.26172-.001c-12.98877-.06347-23.4707-4.876-29.53564-13.56836-7.84766-11.251-10.75586-27.0957-8.64356-47.09326,1.75586-16.5791,6.79981-27.814,9.65039-33.03515l4.38867,2.3955c-2.15088,3.94043-7.34033,14.86475-9.0664,31.16553-1.98242,18.76563.63232,33.47168,7.77148,43.70606,5.123,7.34277,14.19971,11.39941,25.56592,11.43066,11.37109-.03125,20.44727-4.08789,25.56543-11.42969,7.13965-10.24218,9.75488-24.94726,7.77148-43.70752-1.72461-16.28222-6.915-27.21924-9.06738-31.166l4.39063-2.39356c2.85058,5.229,7.89453,16.47412,9.64941,33.03369,2.11328,19.99122-.79492,35.835-8.64258,47.09278-6.05859,8.69238-16.541,13.50586-29.53613,13.56933Z"/><path d="M39.74561,99.5a16.5,16.5,0,1,1,16.5-16.5A16.51867,16.51867,0,0,1,39.74561,99.5Zm0-30a13.5,13.5,0,1,0,13.5,13.5A13.51539,13.51539,0,0,0,39.74561,69.5Z"/></svg>