<svg xmlns="http://www.w3.org/2000/svg" viewBox="0 0 200 200" id="yu!x" data-name="yu!x"><title>yu!x</title><path d="M110.50488,172.46777a28.73186,28.73186,0,0,1-17.25049-5.68457,22.88825,22.88825,0,0,1-5.11279-5.25586c-5.957-8.5625-5.93506-20.95312-3.27051-29.43359,1.98682-6.32422,5.40821-10.668,9.63379-12.23047,5.82715-2.15039,13.76075,1.02832,18.0625,7.23633,5.043,7.27344,2.65332,15.874,1.75391,19.11133-2.63281,9.50488-9.55762,16.05078-13.793,19.13281,6.24316,2.85254,13.77051,2.93945,19.35156-.0752,5.94336-3.21191,12.82032-11.91894,11.83594-35.16015a57.35131,57.35131,0,0,0-4.19922-19.16992l4.63477-1.877a62.35885,62.35885,0,0,1,4.56054,20.83106c.87793,20.73633-3.98535,34.11719-14.45507,39.77441A24.78523,24.78523,0,0,1,110.50488,172.46777ZM98.52148,124.168a6.57207,6.57207,0,0,0-2.28418.38574c-2.70019.99805-5.105,4.293-6.59619,9.03809-2.22363,7.0791-2.35742,17.94726,2.605,25.08008a17.53665,17.53665,0,0,0,3.59473,3.791c2.62158-1.47851,10.92773-7.71484,13.6543-17.55762.80468-2.89843,2.66992-9.61132-1.03711-14.957C106.0166,126.4248,101.95605,124.168,98.52148,124.168Z"/><rect x="85.5" y="15.5" width="47" height="3"/><path d="M110.09277,92.5l-.17968-.00049c-9.14893-.04248-16.55079-3.36865-20.85694-9.37646-5.50244-7.67823-7.54638-18.4419-6.07519-31.99317a59.16261,59.16261,0,0,1,6.71435-22.353l4.36133,2.44628a54.73753,54.73753,0,0,0-6.105,20.44727c-1.334,12.29.40479,21.89258,5.16846,28.54,3.356,4.68213,9.34961,7.269,16.88281,7.28955,7.53613-.02051,13.5293-2.60742,16.88281-7.28906,4.76367-6.65186,6.50293-16.2544,5.168-28.541a54.82548,54.82548,0,0,0-6.10547-20.44824l4.36328-2.44336a59.273,59.273,0,0,1,6.71289,22.35107c1.47168,13.54688-.57226,24.311-6.07421,31.99268-4.30274,6.0083-11.70411,9.335-20.85743,9.37744Z"/><path d="M44.5249,63.5q-.27831,0-.55859-.00635l.06738-2.999a19.52726,19.52726,0,0,0,8.5249-1.67578,21.64729,21.64729,0,0,0,6.373-4.48731,10.70049,10.70049,0,0,1-2.37012-1.66308c-.90136-.84278-3.29638-3.082-3.22851-6.47657a8.14751,8.14751,0,0,1,5.90625-7.42334c2.645-.708,6.30224-.02783,7.59912,2.313.87353,1.57666.8833,3.773.02734,6.35157a21.49515,21.49515,0,0,1-2.772,5.3457q.18164.019.36475.03125l-.20215,2.99316a13.288,13.288,0,0,1-2.2627-.35009l-.01709-.0044A25.0031,25.0031,0,0,1,53.793,61.55322,22.36265,22.36265,0,0,1,44.5249,63.5ZM61.36572,41.49463a5.2193,5.2193,0,0,0-1.34814.17139A5.12282,5.12282,0,0,0,56.332,46.25146c-.041,2.05713,1.52539,3.522,2.27832,4.22559a8.0296,8.0296,0,0,0,2.37207,1.50879,19.46658,19.46658,0,0,0,3.03613-5.49756c.56788-1.71142.63916-3.15185.19581-3.95215A3.51336,3.51336,0,0,0,61.36572,41.49463Z"/></svg>