<svg xmlns="http://www.w3.org/2000/svg" viewBox="0 0 200 200"><title>y</title><path d="M110.13379,147.5l-.26172-.001c-12.98877-.06347-23.4707-4.876-29.53564-13.56836-7.84766-11.251-10.75586-27.0957-8.64356-47.09326,1.75586-16.5791,6.79981-27.814,9.65039-33.03515l4.38867,2.3955c-2.15088,3.94043-7.34033,14.86475-9.0664,31.16553-1.98242,18.76563.63232,33.47168,7.77148,43.70606,5.123,7.34277,14.19971,11.39941,25.56592,11.43066,11.37109-.03125,20.44727-4.08789,25.56543-11.42969,7.13965-10.24218,9.75488-24.94726,7.77148-43.70752-1.72461-16.28222-6.915-27.21924-9.06738-31.166l4.39063-2.39356c2.85058,5.229,7.89453,16.47412,9.64941,33.03369,2.11328,19.99122-.79492,35.835-8.64258,47.09278-6.05859,8.69238-16.541,13.50586-29.53613,13.56933Z"/><path d="M25.458,99.5q-.37208,0-.74512-.0083l.06641-2.999a27.15221,27.15221,0,0,0,11.86181-2.3335,30.29884,30.29884,0,0,0,9.37744-6.77539,14.31583,14.31583,0,0,1-3.771-2.50733c-1.292-1.208-4.3169-4.03662-4.22949-8.42236a10.54668,10.54668,0,0,1,7.65039-9.60644c3.40576-.916,8.10058-.06983,9.74365,2.8916,1.11523,2.01269,1.11475,4.85644-.00293,8.22461a29.5119,29.5119,0,0,1-4.22852,7.88183c.47168.0791.94825.13477,1.42481.16651l-.19824,2.99316a17.40184,17.40184,0,0,1-2.99561-.46338c-.09521-.02344-.208-.05078-.33594-.08349a33.655,33.655,0,0,1-11.20019,8.43505A29.95044,29.95044,0,0,1,25.458,99.5ZM48.39453,69.501a7.31062,7.31062,0,0,0-7.37744,7.01269c-.06055,3.04834,2.19531,5.15772,3.2793,6.17139a11.64771,11.64771,0,0,0,3.78174,2.31836A27.40257,27.40257,0,0,0,52.562,77.019c.82227-2.478.90479-4.60107.22608-5.82519C52.21631,70.1626,50.32666,69.501,48.39453,69.501Z"/></svg>