<svg data-name="Xocilqiloli itik" xmlns="http://www.w3.org/2000/svg" viewBox="0 0 200 200"><title>z'</title><path d="M110.50488,172.46777a28.73186,28.73186,0,0,1-17.25049-5.68457,22.88825,22.88825,0,0,1-5.11279-5.25586c-5.957-8.5625-5.93506-20.95312-3.27051-29.43359,1.98682-6.32422,5.40821-10.668,9.63379-12.23047,5.82715-2.15039,13.76075,1.02832,18.0625,7.23633,5.043,7.27344,2.65332,15.874,1.75391,19.11133-2.63281,9.50488-9.55762,16.05078-13.793,19.13281,6.24316,2.85254,13.77051,2.93945,19.35156-.0752,5.94336-3.21191,12.82032-11.91894,11.83594-35.16015a57.35131,57.35131,0,0,0-4.19922-19.16992l4.63477-1.877a62.35885,62.35885,0,0,1,4.56054,20.83106c.87793,20.73633-3.98535,34.11719-14.45507,39.77441A24.78523,24.78523,0,0,1,110.50488,172.46777ZM98.52148,124.168a6.57207,6.57207,0,0,0-2.28418.38574c-2.70019.99805-5.105,4.293-6.59619,9.03809-2.22363,7.0791-2.35742,17.94726,2.605,25.08008a17.53665,17.53665,0,0,0,3.59473,3.791c2.62158-1.47851,10.92773-7.71484,13.6543-17.55762.80468-2.89843,2.66992-9.61132-1.03711-14.957C106.0166,126.4248,101.95605,124.168,98.52148,124.168Z"/><rect x="80.5" y="15.5" width="47" height="3"/><path d="M143.28027,91.63086c-3.78906-3.58984-19.54687-13.43213-41.5-11.6416-14.05713,1.14795-22.82763,7.62646-25.18115,9.585l-3.37793-3.67871.58252-.58985,52.92285-57.00634,3.66407,3.40136L87.40137,78.00635A54.47772,54.47772,0,0,1,101.374,75.00586c23.75879-1.93994,41.13672,9.00732,45.34571,12.99609Z"/><path d="M119.959,90.13428l-4.99218-.26856a40.70112,40.70112,0,0,1,3.59375-14.64111,45.83513,45.83513,0,0,1,11.334-15.25537l3.33594,3.72363a40.8835,40.8835,0,0,0-10.11426,13.59229A35.7284,35.7284,0,0,0,119.959,90.13428Z"/><path d="M78.61816,59.45068A46.59033,46.59033,0,0,1,62.96533,52.0874,36.86349,36.86349,0,0,1,52.69824,40.74512l2.60352-1.49024a33.88737,33.88737,0,0,0,9.44287,10.41748,43.56666,43.56666,0,0,0,14.63721,6.877Z"/></svg>