<svg xmlns="http://www.w3.org/2000/svg" viewBox="0 0 200 200" id="z&apos;i!n" data-name="z&apos;i!n"><title>z'i!n</title><path d="M80.2207,172.49023l-.4414-4.98046c26.05273-2.3086,38.457-1.99512,48.03711-1.51954l7.57031.376c-.0957-4.834-.23731-15.5459.0625-27.18652.1582-6.15235.78808-13.83789,1.585-23.56836l.47363-5.8125,4.98438.40234-.47461,5.81738c-.791,9.65333-1.415,17.27833-1.57031,23.29-.40137,15.57813-.00391,29.47559,0,29.61426l.0791,2.7041-12.958-.64257C118.1543,170.51563,105.95605,170.21,80.2207,172.49023Z"/><rect x="80.5" y="15.5" width="47" height="3"/><path d="M143.28027,91.63086c-3.78906-3.58984-19.54687-13.43213-41.5-11.6416-14.05713,1.14795-22.82763,7.62646-25.18115,9.585l-3.37793-3.67871.58252-.58985,52.92285-57.00634,3.66407,3.40136L87.40137,78.00635A54.47772,54.47772,0,0,1,101.374,75.00586c23.75879-1.93994,41.13672,9.00732,45.34571,12.99609Z"/><path d="M119.959,90.13428l-4.99218-.26856a40.70112,40.70112,0,0,1,3.59375-14.64111,45.83513,45.83513,0,0,1,11.334-15.25537l3.33594,3.72363a40.8835,40.8835,0,0,0-10.11426,13.59229A35.7284,35.7284,0,0,0,119.959,90.13428Z"/><path d="M78.61816,59.45068A46.59033,46.59033,0,0,1,62.96533,52.0874,36.86349,36.86349,0,0,1,52.69824,40.74512l2.60352-1.49024a33.88737,33.88737,0,0,0,9.44287,10.41748,43.56666,43.56666,0,0,0,14.63721,6.877Z"/></svg>