<svg xmlns="http://www.w3.org/2000/svg" viewBox="0 0 200 200" id="z&apos;iny" data-name="z&apos;iny"><title>z'iny</title><path d="M80.84033,172.49121l-.42578-4.98242c27.01025-2.30762,39.86572-1.99219,49.79053-1.51856l7.9541.37989c-.09961-4.833-.24707-15.54785.06445-27.19239.165-6.16015.81836-13.85742,1.64551-23.60156l.48926-5.78515,4.98242.418-.48926,5.79c-.82031,9.66407-1.46875,17.29688-1.62988,23.31153-.417,15.584-.00488,29.4707,0,29.60937l.082,2.70215-13.33691-.63769C120.19922,170.5166,107.542,170.21,80.84033,172.49121Z"/><path d="M154.72949,159.03516a93.70135,93.70135,0,0,1-21.12011-4.89942,75.16806,75.16806,0,0,1-8.50684-3.69824l2.28125-4.44922a70.21874,70.21874,0,0,0,7.93848,3.4502,88.78544,88.78544,0,0,0,19.99121,4.63183Z"/><path d="M143.28027,91.63086c-3.78906-3.58984-19.54687-13.43213-41.5-11.6416-14.05713,1.14795-22.82763,7.62646-25.18115,9.585l-3.37793-3.67871.58252-.58985,52.92285-57.00634,3.66407,3.40136L87.40137,78.00635A54.47772,54.47772,0,0,1,101.374,75.00586c23.75879-1.93994,41.13672,9.00732,45.34571,12.99609Z"/><path d="M119.959,90.13428l-4.99218-.26856a40.70112,40.70112,0,0,1,3.59375-14.64111,45.83513,45.83513,0,0,1,11.334-15.25537l3.33594,3.72363a40.8835,40.8835,0,0,0-10.11426,13.59229A35.7284,35.7284,0,0,0,119.959,90.13428Z"/><path d="M78.61816,59.45068A46.59033,46.59033,0,0,1,62.96533,52.0874,36.86349,36.86349,0,0,1,52.69824,40.74512l2.60352-1.49024a33.88737,33.88737,0,0,0,9.44287,10.41748,43.56666,43.56666,0,0,0,14.63721,6.877Z"/></svg>