<svg xmlns="http://www.w3.org/2000/svg" viewBox="0 0 200 200" id="z&apos;iq" data-name="z&apos;iq"><title>z'iq</title><path d="M84.5752,171.93945l-2.58008-4.2832c.34521-.208.8374-.47754,1.44677-.80957,5.30176-2.88867,19.38526-10.56152,19.47608-25.13281.084-13.63672-16.12451-25.73242-23.98731-29.4541l2.05713-4.55664c2.063.88769,42.21826,18.36914,56.51221,39.46191V110h5v60h-5v-8.67285c.00195-13.25684-19.37793-27.84277-36.9375-38.04883,4.334,5.44043,7.39648,11.77832,7.35547,18.4668-.10938,17.51953-16.64893,26.53125-22.084,29.49218C85.3042,171.52637,84.87549,171.75879,84.5752,171.93945Z"/><path d="M143.28027,91.63086c-3.78906-3.58984-19.54687-13.43213-41.5-11.6416-14.05713,1.14795-22.82763,7.62646-25.18115,9.585l-3.37793-3.67871.58252-.58985,52.92285-57.00634,3.66407,3.40136L87.40137,78.00635A54.47772,54.47772,0,0,1,101.374,75.00586c23.75879-1.93994,41.13672,9.00732,45.34571,12.99609Z"/><path d="M119.959,90.13428l-4.99218-.26856a40.70112,40.70112,0,0,1,3.59375-14.64111,45.83513,45.83513,0,0,1,11.334-15.25537l3.33594,3.72363a40.8835,40.8835,0,0,0-10.11426,13.59229A35.7284,35.7284,0,0,0,119.959,90.13428Z"/><path d="M78.61816,59.45068A46.59033,46.59033,0,0,1,62.96533,52.0874,36.86349,36.86349,0,0,1,52.69824,40.74512l2.60352-1.49024a33.88737,33.88737,0,0,0,9.44287,10.41748,43.56666,43.56666,0,0,0,14.63721,6.877Z"/></svg>