<svg data-name="Weyilqiloli itik" xmlns="http://www.w3.org/2000/svg" viewBox="0 0 200 200"><title>z</title><path d="M75.53418,172.44238l-1.06836-4.88476c12.08691-2.64258,29.73828-8.78614,45.19043-23.04492,12.21387-11.26856,19.62012-23.60352,22.16211-32.0127H75v-5h72.99219l-.53223,2.94531c-1.52344,8.42578-8.83105,23.36524-24.41308,37.74219C106.77148,163.20605,88.22559,169.667,75.53418,172.44238Z"/><rect x="80.5" y="15.5" width="47" height="3"/><path d="M143.27734,91.812c-3.78808-3.60107-19.543-13.47119-41.49609-11.67676-14.05664,1.15186-22.82617,7.64942-25.1792,9.61377l-3.38379-3.67334.8667-.83984C108.75,59.31006,123.20508,41.30078,125.669,32.5H75v-5h56.05859V30c0,9.92676-13.48339,26.43311-37.58642,46.37744a55.00309,55.00309,0,0,1,7.90088-1.22558c23.7832-1.94434,41.13965,9.03564,45.34961,13.03613Z"/><path d="M65,63.5A12.5,12.5,0,1,1,77.5,51,12.51408,12.51408,0,0,1,65,63.5Zm0-22A9.5,9.5,0,1,0,74.5,51,9.51081,9.51081,0,0,0,65,41.5Z"/></svg>