<svg xmlns="http://www.w3.org/2000/svg" viewBox="0 0 200 200" id="za!d" data-name="za!d"><title>za!d</title><path d="M117.78223,171.75293a37.41933,37.41933,0,0,1-.30957-52.40527,36.38069,36.38069,0,0,1,6.99707-5.55274c-10.89453.84278-26.78662,2.22754-49.21827,4.49512l-.50292-4.97461c53.4331-5.40234,69.49169-5.7998,70.19482-5.81445h.00391l.10644,4.998c-.13769.00391-14.33691.46973-24.00879,10.34668a32.64506,32.64506,0,0,0-9.01562,25.20508,33.34127,33.34127,0,0,0,9.31738,20.19629Z"/><path d="M125.0498,143.33594c-7.91894,0-15.86816-.36426-23.70214-1.08789-4.74659-.4375-9.5376-1.0166-14.23975-1.71875l.73926-4.94532c4.60986.68946,9.30664,1.25586,13.95947,1.68555a254.37569,254.37569,0,0,0,28.51172,1.01172l.10547,4.99805Q127.74024,143.33642,125.0498,143.33594Z"/><rect x="80.5" y="15.5" width="47" height="3"/><path d="M143.27734,91.812c-3.78808-3.60107-19.543-13.47119-41.49609-11.67676-14.05664,1.15186-22.82617,7.64942-25.1792,9.61377l-3.38379-3.67334.8667-.83984C108.75,59.31006,123.20508,41.30078,125.669,32.5H75v-5h56.05859V30c0,9.92676-13.48339,26.43311-37.58642,46.37744a55.00309,55.00309,0,0,1,7.90088-1.22558c23.7832-1.94434,41.13965,9.03564,45.34961,13.03613Z"/></svg>