<svg xmlns="http://www.w3.org/2000/svg" viewBox="0 0 200 200" id="zeq" data-name="zeq"><title>zeq</title><path d="M84.5752,171.93945l-2.58008-4.2832c.34521-.208.8374-.47754,1.44677-.80957,5.30176-2.88867,19.38526-10.56152,19.47608-25.13281.084-13.63672-16.12451-25.73242-23.98731-29.4541l2.05713-4.55664c2.063.88769,42.21826,18.36914,56.51221,39.46191V110h5v60h-5v-8.67285c.00195-13.25684-19.37793-27.84277-36.9375-38.04883,4.334,5.44043,7.39648,11.77832,7.35547,18.4668-.10938,17.51953-16.64893,26.53125-22.084,29.49218C85.3042,171.52637,84.87549,171.75879,84.5752,171.93945Z"/><path d="M143.27734,91.812c-3.78808-3.60107-19.543-13.47119-41.49609-11.67676-14.05664,1.15186-22.82617,7.64942-25.1792,9.61377l-3.38379-3.67334.8667-.83984C108.75,59.31006,123.20508,41.30078,125.669,32.5H75v-5h56.05859V30c0,9.92676-13.48339,26.43311-37.58642,46.37744a55.00309,55.00309,0,0,1,7.90088-1.22558c23.7832-1.94434,41.13965,9.03564,45.34961,13.03613Z"/><path d="M85.61328,54.78271a34.21964,34.21964,0,0,1-11.63623-5.5205,27.58394,27.58394,0,0,1-7.65283-8.521l2.6084-1.48242a24.60272,24.60272,0,0,0,6.83154,7.59375,31.231,31.231,0,0,0,10.62256,5.03174Z"/><path d="M71.98486,61.44922a34.21434,34.21434,0,0,1-11.63672-5.51953,27.58451,27.58451,0,0,1-7.65234-8.52246l2.6084-1.48145a24.5989,24.5989,0,0,0,6.831,7.59375A31.21763,31.21763,0,0,0,72.7583,58.55078Z"/></svg>