<svg xmlns="http://www.w3.org/2000/svg" viewBox="0 0 200 200" id="zi!r" data-name="zi!r"><title>zi!r</title><path d="M150.42188,159.042a148.49983,148.49983,0,0,1-26.88379-4.84961,111.27966,111.27966,0,0,1-10.81446-3.65722l1.85157-4.64453a106.17679,106.17679,0,0,0,10.32714,3.49121,143.57348,143.57348,0,0,0,25.97461,4.68164Z"/><path d="M104.13867,172.36426l-1.625-4.72852c17.90528-6.15039,26.23828-13.28808,28.06738-17.917a4.44522,4.44522,0,0,0-.0625-3.90039c-1.49316-2.81738-6.19433-4.97656-8.47167-5.72461-9.18946-3.02246-22.11084-1.07129-29.29346,2.56055-3.13623,1.584-3.937,3.27343-3.94483,3.29l-4.7373-1.55079c.08057-.33007,2.18164-8.40722,20.166-35.7666l4.17774,2.7461c-8.0127,12.19043-12.78467,20.43066-15.59912,25.7666,8.228-3.36133,20.96045-5.02832,30.7915-1.7959,1.41895.46582,8.63379,3.04883,11.3291,8.13281a9.41069,9.41069,0,0,1,.29493,8.08008C132.28906,159.00293,120.95605,166.58789,104.13867,172.36426Z"/><rect x="80.5" y="15.5" width="47" height="3"/><path d="M143.27734,91.812c-3.78808-3.60107-19.543-13.47119-41.49609-11.67676-14.05664,1.15186-22.82617,7.64942-25.1792,9.61377l-3.38379-3.67334.8667-.83984C108.75,59.31006,123.20508,41.30078,125.669,32.5H75v-5h56.05859V30c0,9.92676-13.48339,26.43311-37.58642,46.37744a55.00309,55.00309,0,0,1,7.90088-1.22558c23.7832-1.94434,41.13965,9.03564,45.34961,13.03613Z"/><path d="M78.61816,59.45068A46.59033,46.59033,0,0,1,62.96533,52.0874,36.86349,36.86349,0,0,1,52.69824,40.74512l2.60352-1.49024a33.88737,33.88737,0,0,0,9.44287,10.41748,43.56666,43.56666,0,0,0,14.63721,6.877Z"/></svg>