<svg id="Zikoalistli_2" data-name="Zikoalistli 2" xmlns="http://www.w3.org/2000/svg" viewBox="0 0 200 200"><title>00167-zikoalistli2</title><path d="M83.73876,147.501a3.8308,3.8308,0,0,1-2.2705-.75879c-1.877-1.36914-2.83545-4.35156-3.01661-9.38672-.89209-24.84277-1.58984-54.0708.00245-82.49512l4.99218.2793c-1.58105,28.22217-.88623,57.30762.00244,82.03613a15.58267,15.58267,0,0,0,.78174,5.11035c6.83985-2.38769,35.35059-16.05859,53.93457-36.13672l3.66992,3.39649c-20.123,21.74023-50.97607,36.10058-57.04443,37.80762A3.87517,3.87517,0,0,1,83.73876,147.501Z"/><path d="M138.1162,146.71191c-6.43652-2.97753-18.29394-10.084-25.38476-24.22265-4.87793-9.73535-6.5625-33.14405-6.53418-37.18213l5,.03516c-.03223,4.47314,1.82226,26.56,6.00391,34.90576a48.66492,48.66492,0,0,0,23.01464,21.9248Z"/></svg>