<svg data-name="Ksimalqiloli itik" xmlns="http://www.w3.org/2000/svg" viewBox="0 0 200 200"><title>z</title><path d="M143.28027,171.63086c-3.78808-3.58887-19.53711-13.44141-41.5-11.64063-14.05713,1.14747-22.82763,7.626-25.18115,9.584l-3.37793-3.67871.86719-.83692C108.73926,139.22266,123.19531,121.27441,125.667,112.5H75v-5h56.05859V110c0,9.89648-13.47265,26.3457-37.56445,46.22266a55.33606,55.33606,0,0,1,7.87988-1.2168c23.751-1.93359,41.13477,9.00684,45.34571,12.99609Z"/><path d="M127.7373,170.13379l-4.99218-.26758a40.67518,40.67518,0,0,1,3.59375-14.6416,45.82179,45.82179,0,0,1,11.334-15.25586l3.33594,3.72461a40.84039,40.84039,0,0,0-10.11328,13.5918A35.69859,35.69859,0,0,0,127.7373,170.13379Z"/><path d="M143.27734,91.812c-3.78808-3.60107-19.543-13.47119-41.49609-11.67676-14.05664,1.15186-22.82617,7.64942-25.1792,9.61377l-3.38379-3.67334.8667-.83984C108.75,59.31006,123.20508,41.30078,125.669,32.5H75v-5h56.05859V30c0,9.92676-13.48339,26.43311-37.58642,46.37744a55.00309,55.00309,0,0,1,7.90088-1.22558c23.7832-1.94434,41.13965,9.03564,45.34961,13.03613Z"/><path d="M78.61816,59.45068A46.59033,46.59033,0,0,1,62.96533,52.0874,36.86349,36.86349,0,0,1,52.69824,40.74512l2.60352-1.49024a33.88737,33.88737,0,0,0,9.44287,10.41748,43.56666,43.56666,0,0,0,14.63721,6.877Z"/></svg>