<svg data-name="Zopilqiloli itik" xmlns="http://www.w3.org/2000/svg" viewBox="0 0 200 200"><title>z</title><path d="M143.27832,171.8125c-3.79-3.60059-19.54394-13.46875-41.49707-11.67773-14.05713,1.15234-22.82617,7.64941-25.1792,9.61328l-3.38379-3.67285.86719-.83985C108.75,139.30957,123.20508,121.30078,125.669,112.5H75v-5h56.05859V110c0,9.92676-13.48339,26.43359-37.58691,46.37695a55.16344,55.16344,0,0,1,7.90137-1.22461c23.76465-1.95117,41.13769,9.03418,45.34863,13.03516Z"/><path d="M143.27734,91.812c-3.78808-3.60107-19.543-13.47119-41.49609-11.67676-14.05664,1.15186-22.82617,7.64942-25.1792,9.61377l-3.38379-3.67334.8667-.83984C108.75,59.31006,123.20508,41.30078,125.669,32.5H75v-5h56.05859V30c0,9.92676-13.48339,26.43311-37.58642,46.37744a55.00309,55.00309,0,0,1,7.90088-1.22558c23.7832-1.94434,41.13965,9.03564,45.34961,13.03613Z"/><path d="M78.61816,59.45068A46.59033,46.59033,0,0,1,62.96533,52.0874,36.86349,36.86349,0,0,1,52.69824,40.74512l2.60352-1.49024a33.88737,33.88737,0,0,0,9.44287,10.41748,43.56666,43.56666,0,0,0,14.63721,6.877Z"/></svg>