<svg xmlns="http://www.w3.org/2000/svg" viewBox="0 0 200 200" id="zo" data-name="zo"><title>zo</title><path d="M153.14355,146.6748c-4.92382-5.46-25.36914-20.43359-53.73437-17.7207a55.42976,55.42976,0,0,0-32.665,14.58106l-3.65478-3.40332,1.01611-1.15918c46.4668-40.54444,64.90527-68.105,67.042-81.47266H65v-5h71.36035V55c0,14.82227-19.01269,41.104-51.73828,72.09961a61.118,61.118,0,0,1,14.31152-3.12207c30.40821-2.90723,52.56153,13.4043,57.92286,19.34766Z"/><path d="M62.74561,99.5a16.5,16.5,0,1,1,16.5-16.5A16.51867,16.51867,0,0,1,62.74561,99.5Zm0-30a13.5,13.5,0,1,0,13.5,13.5A13.51539,13.51539,0,0,0,62.74561,69.5Z"/></svg>