<svg xmlns="http://www.w3.org/2000/svg" viewBox="0 0 200 200" id="zony" data-name="zony"><title>zony</title><path d="M80.84033,172.49121l-.42578-4.98242c27.01025-2.30762,39.86572-1.99219,49.79053-1.51856l7.9541.37989c-.09961-4.833-.24707-15.54785.06445-27.19239.165-6.16015.81836-13.85742,1.64551-23.60156l.48926-5.78515,4.98242.418-.48926,5.79c-.82031,9.66407-1.46875,17.29688-1.62988,23.31153-.417,15.584-.00488,29.4707,0,29.60937l.082,2.70215-13.33691-.63769C120.19922,170.5166,107.542,170.21,80.84033,172.49121Z"/><path d="M154.72949,159.03516a93.70135,93.70135,0,0,1-21.12011-4.89942,75.16806,75.16806,0,0,1-8.50684-3.69824l2.28125-4.44922a70.21874,70.21874,0,0,0,7.93848,3.4502,88.78544,88.78544,0,0,0,19.99121,4.63183Z"/><path d="M143.27734,91.812c-3.78808-3.60107-19.543-13.47119-41.49609-11.67676-14.05664,1.15186-22.82617,7.64942-25.1792,9.61377l-3.38379-3.67334.8667-.83984C108.75,59.31006,123.20508,41.30078,125.669,32.5H75v-5h56.05859V30c0,9.92676-13.48339,26.43311-37.58642,46.37744a55.00309,55.00309,0,0,1,7.90088-1.22558c23.7832-1.94434,41.13965,9.03564,45.34961,13.03613Z"/><path d="M65,63.5A12.5,12.5,0,1,1,77.5,51,12.51408,12.51408,0,0,1,65,63.5Zm0-22A9.5,9.5,0,1,0,74.5,51,9.51081,9.51081,0,0,0,65,41.5Z"/></svg>