<svg id="Akalqiloli" class="space" xmlns="http://www.w3.org/2000/svg" viewBox="0 0 200 200"><title>00001-a</title><path d="M66.186,149.85742,63.814,140.14258a118.41232,118.41232,0,0,0,56.94581-32.457,114.35755,114.35755,0,0,0,29.36914-53.812l9.74218,2.25292a124.34966,124.34966,0,0,1-31.93359,58.522A128.40491,128.40491,0,0,1,66.186,149.85742Z"/><path d="M141.96191,133.252c-7.36523-.87988-21.46093-4.11718-33.11132-15.918-8.0835-8.19433-17.00586-30.2373-18.30811-34.34326l9.53223-3.02343c1.604,5.05664,10.03076,24.39892,15.89306,30.34326a46.1392,46.1392,0,0,0,27.17969,13.01172Z"/></svg>
