<svg id="Elinqilotontli_1" data-name="Elinqilotontli 1" xmlns="http://www.w3.org/2000/svg" viewBox="0 0 200 200"><title>00035-_e1</title><path d="M115.9502,93.50781a47.01886,47.01886,0,0,1-17.00245-9.58447A45.72672,45.72672,0,0,1,87.86182,69.25879l5.41308-2.58691a39.78924,39.78924,0,0,0,9.64014,12.751,41.06755,41.06755,0,0,0,14.84961,8.36524Z"/><path d="M96.44824,104.84863a47.00955,47.00955,0,0,1-17.00244-9.584A45.727,45.727,0,0,1,68.35986,80.6001L73.773,78.01318a39.78356,39.78356,0,0,0,9.64062,12.751,41.04888,41.04888,0,0,0,14.84815,8.36523Z"/></svg>