<svg id="Elinqilotontli_2" data-name="Elinqilotontli 2" xmlns="http://www.w3.org/2000/svg" viewBox="0 0 200 200"><title>00036-_e2</title><path d="M85.94971,93.50732a47.02288,47.02288,0,0,1-17.002-9.584A45.72672,45.72672,0,0,1,57.86182,69.25879l5.41308-2.58691a39.78366,39.78366,0,0,0,9.64063,12.751,41.05946,41.05946,0,0,0,14.84863,8.36572Z"/><path d="M66.44824,104.84863a47.00955,47.00955,0,0,1-17.00244-9.584A45.727,45.727,0,0,1,38.35986,80.6001L43.773,78.01318a39.78356,39.78356,0,0,0,9.64062,12.751,41.04888,41.04888,0,0,0,14.84815,8.36523Z"/></svg>