<svg id="Elinqilotontli_3" data-name="Elinqilotontli 3" xmlns="http://www.w3.org/2000/svg" viewBox="0 0 200 200"><title>00037-_e3</title><path d="M90.94971,103.50781a47.024,47.024,0,0,1-17.002-9.58447A45.72672,45.72672,0,0,1,62.86182,79.25879l5.41308-2.58691a39.78366,39.78366,0,0,0,9.64063,12.751,41.05946,41.05946,0,0,0,14.84863,8.36572Z"/><path d="M71.44824,114.84863a47.01659,47.01659,0,0,1-17.00244-9.584A45.727,45.727,0,0,1,43.35986,90.6001L48.773,88.01318a39.78356,39.78356,0,0,0,9.64062,12.751,41.0428,41.0428,0,0,0,14.84815,8.36572Z"/></svg>