<svg id="Elinqilotontli_4" data-name="Elinqilotontli 4" xmlns="http://www.w3.org/2000/svg" viewBox="0 0 200 200"><title>00038-_e4</title><path d="M60.94971,93.50732a47.035,47.035,0,0,1-17.00244-9.58349,45.74475,45.74475,0,0,1-11.08545-14.665l5.41308-2.58691a39.7822,39.7822,0,0,0,9.64014,12.751,41.06558,41.06558,0,0,0,14.84912,8.36572Z"/><path d="M41.44824,104.84863a47.00955,47.00955,0,0,1-17.00244-9.584A45.727,45.727,0,0,1,13.35986,80.6001L18.773,78.01318a39.78356,39.78356,0,0,0,9.64062,12.751,41.04888,41.04888,0,0,0,14.84815,8.36523Z"/></svg>