<svg id="Elinqilotontli_5" data-name="Elinqilotontli 5" xmlns="http://www.w3.org/2000/svg" viewBox="0 0 200 200"><title>00039-_e5</title><path d="M97.94971,138.50781a47.03145,47.03145,0,0,1-17.002-9.585,45.71421,45.71421,0,0,1-11.08642-14.665l5.41406-2.58593a39.74333,39.74333,0,0,0,9.64014,12.75,41.06994,41.06994,0,0,0,14.84863,8.36718Z"/><path d="M78.44824,149.84863a47.01659,47.01659,0,0,1-17.00244-9.584,45.7232,45.7232,0,0,1-11.08594-14.66406L55.773,123.0127a39.75886,39.75886,0,0,0,9.64062,12.751,41.03672,41.03672,0,0,0,14.84815,8.36621Z"/></svg>