<svg id="Elinqilotontli_akopa_7" data-name="Elinqilotontli akopa 7" xmlns="http://www.w3.org/2000/svg" viewBox="0 0 200 200"><title>00046-_e_7</title><path d="M91.22656,78.23193A35.70909,35.70909,0,0,1,79.0835,72.46729,29.078,29.078,0,0,1,71.02,63.48242l5.2168-2.96484A23.11436,23.11436,0,0,0,82.65723,67.648a29.75223,29.75223,0,0,0,10.11621,4.78711Z"/><path d="M77.59863,84.89893a35.717,35.717,0,0,1-12.144-5.76465,29.0655,29.0655,0,0,1-8.063-8.98584l5.2168-2.96387a23.10689,23.10689,0,0,0,6.42041,7.13037,29.71958,29.71958,0,0,0,10.11572,4.78613Z"/></svg>