<svg id="Ufalqilotontli_5" data-name="Ufalqilotontli 5" xmlns="http://www.w3.org/2000/svg" viewBox="0 0 200 200"><title>00149-_u5</title><path d="M58.99238,146.00325c-.25928,0-.51855-.00292-.7793-.00878l.13282-5.99805a25.81882,25.81882,0,0,0,11.21142-2.20117,28.07894,28.07894,0,0,0,7.48145-5.06641,15.13445,15.13445,0,0,1-2.28223-1.75342c-1.31445-1.22851-4.80566-4.4917-4.70508-9.54785a12.09538,12.09538,0,0,1,8.76172-11.02539c4.03711-1.08447,9.42481-.03076,11.44434,3.61328,1.32422,2.38916,1.36132,5.64795.1084,9.42432a30.73312,30.73312,0,0,1-4.25684,8.02441l-.26758,4.04151a19.00372,19.00372,0,0,1-2.72656-.38184A34.87327,34.87327,0,0,1,72.02607,143.264,31.44455,31.44455,0,0,1,58.99238,146.00325Zm22.94287-30.00292a5.82917,5.82917,0,0,0-5.88476,5.54687c-.04786,2.38037,1.80761,4.11377,2.80371,5.04541a9.61509,9.61509,0,0,0,2.26172,1.55615,24.71971,24.71971,0,0,0,3.55566-6.59814c.80078-2.415.70019-3.97315.33789-4.62647C84.77021,116.49251,83.43427,116.00033,81.93525,116.00033Z"/></svg>