<svg xmlns="http://www.w3.org/2000/svg" viewBox="0 0 200 200" id="a!tl" data-name="a!tl"><title>a!tl</title><path d="M81.18652,94.85742l-2.373-9.71484a77.28127,77.28127,0,0,0,37.16308-21.1792,74.55714,74.55714,0,0,0,19.15235-35.08984l9.74218,2.25292A84.55264,84.55264,0,0,1,123.1543,70.92578,87.27955,87.27955,0,0,1,81.18652,94.85742Z"/><path d="M131.10938,83.82324a39.1419,39.1419,0,0,1-23.06153-11.09668c-5.96875-6.0498-12.00928-21.67431-12.6084-23.562l9.53223-3.02344c1.10937,3.49707,6.624,15.94385,10.19336,19.561a29.08474,29.08474,0,0,0,17.13184,8.1914Z"/><rect x="82" y="14" width="60" height="6"/><path d="M93.11328,174.98828c-6.6748,0-13.0918-2.168-16.416-7.832-3.562-6.07617-3.145-15.82617.94726-22.19824a18.32593,18.32593,0,0,1,9.97852-7.45313l.17968-.0625c9.83106-3.3457,21.78321-.626,35.71094,8.084A77.46083,77.46083,0,0,0,137.291,115H75V105h72.94629v5c0,4.56152-3.29395,23.93164-16.209,41.19434a183.10189,183.10189,0,0,1,15.458,13.12207c.51074.47949.8711.82226,1.06739.99218l-6.5254,7.57618c-.25585-.21973-.72851-.66016-1.3916-1.28321a170.40013,170.40013,0,0,0-15.13379-12.79492A69.09243,69.09243,0,0,1,109.1416,171.001,34.75349,34.75349,0,0,1,93.11328,174.98828Zm3.19483-28.8916a16.239,16.239,0,0,0-5.25684.80371l-.19189.06543a8.45157,8.45157,0,0,0-4.8003,3.39551c-2.24219,3.49121-2.23681,9.1748-.73633,11.73535,2.59082,4.415,13.354,3.24414,19.00538.13965a59.25416,59.25416,0,0,0,12.41406-9.11426C107.61816,147.68164,100.9624,146.09668,96.30811,146.09668Z"/></svg>