<svg data-name="Neliwqiloli itik" xmlns="http://www.w3.org/2000/svg" viewBox="0 0 200 200"><title>a</title><path d="M80.44141,174.98047l-.88282-9.96094c26.21387-2.32129,38.71778-2.00586,48.38184-1.52637l4.90039.24317c-.083-5.55274-.14551-14.75586.10938-24.6211.16015-6.22168.792-13.93847,1.59277-23.708l.47363-5.80957,9.9668.80468-.47363,5.82032c-.78809,9.61425-1.41016,17.208-1.56348,23.15039-.39941,15.51758-.00391,29.33886,0,29.47656l.1582,5.4082-15.66015-.77636C118.11719,173.0166,106.02148,172.71484,80.44141,174.98047Z"/><path d="M81.18652,94.85742l-2.373-9.71484a77.28127,77.28127,0,0,0,37.16308-21.1792,74.55714,74.55714,0,0,0,19.15235-35.08984l9.74218,2.25292A84.55264,84.55264,0,0,1,123.1543,70.92578,87.27955,87.27955,0,0,1,81.18652,94.85742Z"/><path d="M131.10938,83.82324a39.1419,39.1419,0,0,1-23.06153-11.09668c-5.96875-6.0498-12.00928-21.67431-12.6084-23.562l9.53223-3.02344c1.10937,3.49707,6.624,15.94385,10.19336,19.561a29.08474,29.08474,0,0,0,17.13184,8.1914Z"/><rect x="82" y="14" width="60" height="6"/></svg>