<svg xmlns="http://www.w3.org/2000/svg" viewBox="0 0 200 200" id="ak" data-name="ak"><title>ak</title><path d="M81.18652,94.85742l-2.373-9.71484a77.28127,77.28127,0,0,0,37.16308-21.1792,74.55714,74.55714,0,0,0,19.15235-35.08984l9.74218,2.25292A84.55264,84.55264,0,0,1,123.1543,70.92578,87.27955,87.27955,0,0,1,81.18652,94.85742Z"/><path d="M131.10938,83.82324a39.1419,39.1419,0,0,1-23.06153-11.09668c-5.96875-6.0498-12.00928-21.67431-12.6084-23.562l9.53223-3.02344c1.10937,3.49707,6.624,15.94385,10.19336,19.561a29.08474,29.08474,0,0,0,17.13184,8.1914Z"/><path d="M 111.39258 105.17383 C 95.307029 106.46211 82.630859 115.98047 82.630859 115.98047 L 88.460938 124.10547 C 88.460938 124.10547 108.14643 110.73493 124.91602 116.70703 C 133.34491 119.70879 136.00079 124.56071 136.37695 130.6875 C 136.75312 136.81429 133.91127 144.34972 129.20898 149.9707 C 113.445 168.81459 90.290782 169.41479 80.25 164.94141 L 76.181641 174.07617 C 91.273705 180.80001 118.19195 178.72465 136.87891 156.38672 C 143.03729 149.02515 146.93917 139.51956 146.35938 130.07617 C 145.77958 120.63278 139.78016 111.38566 128.27148 107.28711 C 122.4951 105.22998 116.75443 104.7444 111.39258 105.17383 z "/></svg>