<svg xmlns="http://www.w3.org/2000/svg" viewBox="0 0 200 200" id="aks" data-name="aks"><title>aks</title><path d="M81.18652,94.85742l-2.373-9.71484a77.28127,77.28127,0,0,0,37.16308-21.1792,74.55714,74.55714,0,0,0,19.15235-35.08984l9.74218,2.25292A84.55264,84.55264,0,0,1,123.1543,70.92578,87.27955,87.27955,0,0,1,81.18652,94.85742Z"/><path d="M131.10938,83.82324a39.1419,39.1419,0,0,1-23.06153-11.09668c-5.96875-6.0498-12.00928-21.67431-12.6084-23.562l9.53223-3.02344c1.10937,3.49707,6.624,15.94385,10.19336,19.561a29.08474,29.08474,0,0,0,17.13184,8.1914Z"/><path d="M141.56152,173.44629c-2.915-2.76074-18.18164-12.71484-39.57714-10.96484-13.32667,1.08789-21.5752,7.1748-23.78614,9.01464l-6.75586-7.35742.84815-.8584.30322-.22656c31.90918-23.791,45.26172-39.70019,49.4209-48.05371H75V105h58.55859v5c0,9.75684-11.09472,24.48145-31.74609,42.46484,24.46973-1.78125,41.92969,9.27149,46.626,13.72168Z"/><path d="M130.23438,170.2666l-9.98633-.5332a43.17421,43.17421,0,0,1,3.81347-15.53906,48.30323,48.30323,0,0,1,11.94239-16.08692l6.67382,7.44727a38.36619,38.36619,0,0,0-9.50488,12.75976A33.2049,33.2049,0,0,0,130.23438,170.2666Z"/></svg>