<svg data-name="Akaqiloli akopa" xmlns="http://www.w3.org/2000/svg" viewBox="0 0 200 200"><title>a</title><path d="M81.18652,94.85742l-2.373-9.71484a77.28127,77.28127,0,0,0,37.16308-21.1792,74.55714,74.55714,0,0,0,19.15235-35.08984l9.74218,2.25292A84.55264,84.55264,0,0,1,123.1543,70.92578,87.27955,87.27955,0,0,1,81.18652,94.85742Z"/><path d="M131.10938,83.82324a39.1419,39.1419,0,0,1-23.06153-11.09668c-5.96875-6.0498-12.00928-21.67431-12.6084-23.562l9.53223-3.02344c1.10937,3.49707,6.624,15.94385,10.19336,19.561a29.08474,29.08474,0,0,0,17.13184,8.1914Z"/><path d="M150.19336,161.53223a151.06188,151.06188,0,0,1-27.33691-4.93457,113.84292,113.84292,0,0,1-11.0586-3.74024l3.70313-9.28906a103.80863,103.80863,0,0,0,10.084,3.4082,140.9999,140.9999,0,0,0,25.52051,4.59668Z"/><path d="M104.9502,174.72852l-3.248-9.457c16.02246-5.5039,24.88183-12.23828,26.55371-16.4707.43359-1.09668.18652-1.56152.05371-1.81152-.96582-1.82227-4.77344-3.77442-7.043-4.52051-8.57422-2.81738-20.65674-.98535-27.38574,2.416a6.973,6.973,0,0,0-2.84717,2.19726,1.299,1.299,0,0,0,.14453-.33105L86.5,144.98633l-4.85742-1.18555c.2124-.87109,2.59424-9.29883,20.50586-36.54687l8.35547,5.49218c-5.60743,8.53223-9.606,15.09278-12.44385,20.04786,8.14209-2.08106,18.05908-2.543,26.32861.1748,1.57813.51855,9.61231,3.40625,12.75684,9.33691a11.83877,11.83877,0,0,1,.41113,10.169C133.16016,163.60254,115.24023,171.19434,104.9502,174.72852Z"/></svg>