<svg id="Balamqiloli" xmlns="http://www.w3.org/2000/svg" viewBox="0 0 200 200"><title>00119-b</title><path d="M88.25928,143.17578c-.99854-2.251-1.96778-4.5498-2.88037-6.832A211.90444,211.90444,0,0,1,74.394,99.12549l9.80762-1.95313a201.79414,201.79414,0,0,0,10.4624,35.45752c.86719,2.16895,1.7876,4.35254,2.73633,6.49121Z"/><path d="M143.2666,150c-7.8125,0-12.4043-6.28613-14.61816-9.31836-4.19141-5.72168-5.90723-15.0918-6.38379-18.2334-2.89258-.16113-5.82129-.29492-8.67383-.30176-5.05566.01172-10.10449.18848-14.9668.59473-3.36132.28125-6.74853.47461-10.335.67969-2.40869.13769-4.85058.27734-7.30957.44726l-2.623.17872c-4.27393.29-8.69336.58886-12.87452.99414l-.96386-9.95313c4.3247-.41894,8.81738-.72363,13.16211-1.01855l2.61084-.17774c2.498-.17187,4.98-.31445,7.42773-.4541,3.51807-.20117,6.84131-.39062,10.07178-.66113,5.146-.43067,10.45556-.63867,15.8247-.62989,2.61133.00684,5.21973.10743,7.793.24122-.34863-5.94043-.44043-11.793-.30859-18.40088.29785-14.875,3.86035-38.72217,4.01172-39.73L135,55.74316c-.03613.24024-3.61719,24.21875-3.90234,38.44385-.13672,6.85987-.03223,12.69776.36132,18.769a77.97144,77.97144,0,0,1,14.75879,2.21094c2.54493.65528,9.335,2.40332,12.39942,9.12207,3.37109,7.39258-.4375,15.28516-.88379,16.16114-2.92774,5.74414-8.543,9.49023-14.30567,9.54882C143.374,149.999,143.32031,150,143.2666,150Zm-10.74414-26.94238c.7041,3.585,2.0918,8.8457,4.19629,11.7207,1.94238,2.66016,4.042,5.25391,6.60352,5.2207,2.05566-.0205,4.26464-1.66308,5.5-4.08691.59082-1.1875,1.88183-4.874.69726-7.47363-.95508-2.0918-3.47168-2.98926-5.80664-3.59082A65.28442,65.28442,0,0,0,132.52246,123.05762Z"/></svg>