<svg data-name="Hekalqiloli itik" xmlns="http://www.w3.org/2000/svg" viewBox="0 0 200 200"><title>b</title><path d="M127.22559,172.04785l-9.123-4.0957c10.61621-23.64453,15.47363-38.68848,8.88379-45.61133-3.7168-3.90625-11.834-4.55566-21.71289-1.73633-8.73194,2.49024-12.47217,9.86524-14.07422,15.70508-.63867,3.96484-1.23584,8.38867-1.24414,8.44824L80,144.07227a42.994,42.994,0,0,1,1.37158-9.63184c.23487-1.44336.47608-2.833.70166-3.96875,1.39649-7.02637,2.50342-14.10352,3.29-21.03516l9.93652,1.127q-.21751,1.916-.46582,3.84375a29.15692,29.15692,0,0,1,7.69727-3.41993c13.72461-3.91308,25.27637-2.2871,31.69922,4.459C145.81738,127.62109,138.28125,147.42383,127.22559,172.04785Z"/><path d="M92.20508,89.73047c-.78906-1.52442-1.55469-3.08057-2.27539-4.62549a128.48992,128.48992,0,0,1-8.6792-25.207l9.74023-2.26367a118.52528,118.52528,0,0,0,8.001,23.24267c.66357,1.42139,1.36768,2.854,2.09424,4.25782Z"/><path d="M135.87793,95c-6.41406,0-10.35156-4.62158-12.03906-6.60254-3.01953-3.53223-4.50879-8.90234-5.12989-11.8042-2-.09082-3.95312-.1582-5.917-.16211-3.89844.00049-7.83789.12549-11.60644.39551-2.61573.1875-5.24854.31641-8.03565.45264-1.876.09179-3.77832.18506-5.69336.29834l-2.03759.11914c-3.32227.19287-6.75782.39258-10.00489.6626l-.82812-9.96583c3.37109-.28027,6.86963-.48339,10.25293-.68017l2.02636-.11817c1.94922-.11572,3.88623-.21044,5.7959-.30371,2.729-.13379,5.30664-.25976,7.80908-.43945,4.01221-.2876,8.20069-.42236,12.34229-.4209,1.62012.00342,3.23828.04688,4.84082.10889-.17969-3.39746-.21875-6.81543-.13086-10.59912.23535-10.0752,3.03223-26.12647,3.15137-26.80469l9.84961,1.727c-.02735.15918-2.78614,15.99072-3.00293,25.31055-.09278,3.95117-.042,7.38428.1748,10.85547a68.83086,68.83086,0,0,1,10.583,1.42724c2.10449.46485,7.71484,1.70508,10.41113,6.77051,3.16211,5.94531-.3291,12.10986-.7373,12.793a14.19057,14.19057,0,0,1-11.94824,6.97949C135.96191,94.99951,135.91992,95,135.87793,95Zm-6.69434-17.82666a14.39212,14.39212,0,0,0,2.26172,4.73291C132.83691,83.53955,134.21973,85,135.88574,85l.02735-.00049a4.31632,4.31632,0,0,0,3.44921-2.10058c.35059-.62061.89844-2.22315.499-2.97461-.24121-.45264-1.08789-1.11719-3.749-1.70508A54.81427,54.81427,0,0,0,129.18359,77.17334Z"/><path d="M78.23584,60.90088a48.10489,48.10489,0,0,1-16.16016-7.60547,38.36221,38.36221,0,0,1-10.6792-11.80469l5.207-2.98144a32.40343,32.40343,0,0,0,9.03125,9.95556,42.05833,42.05833,0,0,0,14.12939,6.63428Z"/></svg>