<svg xmlns="http://www.w3.org/2000/svg" viewBox="0 0 200 200"><title>b</title><path d="M88.25928,143.17578c-.99854-2.251-1.96778-4.5498-2.88037-6.832A211.90444,211.90444,0,0,1,74.394,99.12549l9.80762-1.95313a201.79414,201.79414,0,0,0,10.4624,35.45752c.86719,2.16895,1.7876,4.35254,2.73633,6.49121Z"/><path d="M143.2666,150c-7.8125,0-12.4043-6.28613-14.61816-9.31836-4.19141-5.72168-5.90723-15.0918-6.38379-18.2334-2.89258-.16113-5.82129-.29492-8.67383-.30176-5.05566.01172-10.10449.18848-14.9668.59473-3.36132.28125-6.74853.47461-10.335.67969-2.40869.13769-4.85058.27734-7.30957.44726l-2.623.17872c-4.27393.29-8.69336.58886-12.87452.99414l-.96386-9.95313c4.3247-.41894,8.81738-.72363,13.16211-1.01855l2.61084-.17774c2.498-.17187,4.98-.31445,7.42773-.4541,3.51807-.20117,6.84131-.39062,10.07178-.66113,5.146-.43067,10.45556-.63867,15.8247-.62989,2.61133.00684,5.21973.10743,7.793.24122-.34863-5.94043-.44043-11.793-.30859-18.40088.29785-14.875,3.86035-38.72217,4.01172-39.73L135,55.74316c-.03613.24024-3.61719,24.21875-3.90234,38.44385-.13672,6.85987-.03223,12.69776.36132,18.769a77.97144,77.97144,0,0,1,14.75879,2.21094c2.54493.65528,9.335,2.40332,12.39942,9.12207,3.37109,7.39258-.4375,15.28516-.88379,16.16114-2.92774,5.74414-8.543,9.49023-14.30567,9.54882C143.374,149.999,143.32031,150,143.2666,150Zm-10.74414-26.94238c.7041,3.585,2.0918,8.8457,4.19629,11.7207,1.94238,2.66016,4.042,5.25391,6.60352,5.2207,2.05566-.0205,4.26464-1.66308,5.5-4.08691.59082-1.1875,1.88183-4.874.69726-7.47363-.95508-2.0918-3.47168-2.98926-5.80664-3.59082A65.28442,65.28442,0,0,0,132.52246,123.05762Z"/><path d="M46.99238,101c-.25928,0-.51855-.00293-.7793-.00879l.13282-5.998A25.81867,25.81867,0,0,0,57.55732,92.792a28.07891,28.07891,0,0,0,7.48145-5.0664,15.1351,15.1351,0,0,1-2.28223-1.75342c-1.31445-1.22852-4.80566-4.4917-4.70508-9.54785a12.09537,12.09537,0,0,1,8.76172-11.02539c4.03711-1.08448,9.42481-.03077,11.44434,3.61328,1.32422,2.38916,1.36132,5.648.1084,9.42431a30.73317,30.73317,0,0,1-4.25684,8.02442l-.26758,4.0415a19.00229,19.00229,0,0,1-2.72656-.38183,34.87325,34.87325,0,0,1-11.08887,8.14013A31.4444,31.4444,0,0,1,46.99238,101ZM69.93525,70.99707A5.82921,5.82921,0,0,0,64.05049,76.544c-.04786,2.38037,1.80761,4.11376,2.80371,5.04541a9.61569,9.61569,0,0,0,2.26172,1.55615,24.71961,24.71961,0,0,0,3.55566-6.59815c.80078-2.415.70019-3.97314.33789-4.62646C72.77021,71.48926,71.43427,70.99707,69.93525,70.99707Z"/></svg>