<svg data-name="Khamalqiloli itik" xmlns="http://www.w3.org/2000/svg" viewBox="0 0 200 200"><title>b</title><path d="M124.833,172.0498l-9.1211-4.0996c10.624-23.64258,15.48536-38.68555,8.89161-45.6084-3.72071-3.90528-11.84571-4.55664-21.74024-1.73731-8.81787,2.5127-12.55078,10.08985-14.13086,15.96973-.623,3.89551-1.19433,8.125-1.20263,8.18457l-9.95508-.68652a42.93215,42.93215,0,0,1,1.373-9.63282c.23487-1.44336.47608-2.833.70215-3.96875,1.39893-7.03515,2.50684-14.1123,3.29248-21.03418l9.93653,1.127q-.21753,1.91748-.4668,3.84765a29.16583,29.16583,0,0,1,7.71094-3.42383c13.73144-3.91406,25.293-2.28906,31.7207,4.457C143.44141,127.62109,135.89844,147.4248,124.833,172.0498Z"/><path d="M141.96582,158.84961a89.67367,89.67367,0,0,1-20.90234-5.05566,73.17372,73.17372,0,0,1-8.47461-3.8379l4.71289-8.82031a62.98587,62.98587,0,0,0,7.3125,3.30957,79.64571,79.64571,0,0,0,18.56836,4.47852Z"/><rect x="72" y="14" width="60" height="6"/><path d="M92.20508,89.73047c-.78906-1.52442-1.55469-3.08057-2.27539-4.62549a128.48992,128.48992,0,0,1-8.6792-25.207l9.74023-2.26367a118.52528,118.52528,0,0,0,8.001,23.24267c.66357,1.42139,1.36768,2.854,2.09424,4.25782Z"/><path d="M135.87793,95c-6.41406,0-10.35156-4.62158-12.03906-6.60254-3.01953-3.53223-4.50879-8.90234-5.12989-11.8042-2-.09082-3.95312-.1582-5.917-.16211-3.89844.00049-7.83789.12549-11.60644.39551-2.61573.1875-5.24854.31641-8.03565.45264-1.876.09179-3.77832.18506-5.69336.29834l-2.03759.11914c-3.32227.19287-6.75782.39258-10.00489.6626l-.82812-9.96583c3.37109-.28027,6.86963-.48339,10.25293-.68017l2.02636-.11817c1.94922-.11572,3.88623-.21044,5.7959-.30371,2.729-.13379,5.30664-.25976,7.80908-.43945,4.01221-.2876,8.20069-.42236,12.34229-.4209,1.62012.00342,3.23828.04688,4.84082.10889-.17969-3.39746-.21875-6.81543-.13086-10.59912.23535-10.0752,3.03223-26.12647,3.15137-26.80469l9.84961,1.727c-.02735.15918-2.78614,15.99072-3.00293,25.31055-.09278,3.95117-.042,7.38428.1748,10.85547a68.83086,68.83086,0,0,1,10.583,1.42724c2.10449.46485,7.71484,1.70508,10.41113,6.77051,3.16211,5.94531-.3291,12.10986-.7373,12.793a14.19057,14.19057,0,0,1-11.94824,6.97949C135.96191,94.99951,135.91992,95,135.87793,95Zm-6.69434-17.82666a14.39212,14.39212,0,0,0,2.26172,4.73291C132.83691,83.53955,134.21973,85,135.88574,85l.02735-.00049a4.31632,4.31632,0,0,0,3.44921-2.10058c.35059-.62061.89844-2.22315.499-2.97461-.24121-.45264-1.08789-1.11719-3.749-1.70508A54.81427,54.81427,0,0,0,129.18359,77.17334Z"/><path d="M78.23584,60.90088a48.10489,48.10489,0,0,1-16.16016-7.60547,38.36221,38.36221,0,0,1-10.6792-11.80469l5.207-2.98144a32.40343,32.40343,0,0,0,9.03125,9.95556,42.05833,42.05833,0,0,0,14.12939,6.63428Z"/></svg>