<svg xmlns="http://www.w3.org/2000/svg" viewBox="0 0 200 200" id="bi!p" data-name="bi!p"><title>bi!p</title><path d="M92.20508,89.73047c-.78906-1.52442-1.55469-3.08057-2.27539-4.62549a128.48992,128.48992,0,0,1-8.6792-25.207l9.74023-2.26367a118.52528,118.52528,0,0,0,8.001,23.24267c.66357,1.42139,1.36768,2.854,2.09424,4.25782Z"/><path d="M135.87793,95c-6.41406,0-10.35156-4.62158-12.03906-6.60254-3.01953-3.53223-4.50879-8.90234-5.12989-11.8042-2-.09082-3.95312-.1582-5.917-.16211-3.89844.00049-7.83789.12549-11.60644.39551-2.61573.1875-5.24854.31641-8.03565.45264-1.876.09179-3.77832.18506-5.69336.29834l-2.03759.11914c-3.32227.19287-6.75782.39258-10.00489.6626l-.82812-9.96583c3.37109-.28027,6.86963-.48339,10.25293-.68017l2.02636-.11817c1.94922-.11572,3.88623-.21044,5.7959-.30371,2.729-.13379,5.30664-.25976,7.80908-.43945,4.01221-.2876,8.20069-.42236,12.34229-.4209,1.62012.00342,3.23828.04688,4.84082.10889-.17969-3.39746-.21875-6.81543-.13086-10.59912.23535-10.0752,3.03223-26.12647,3.15137-26.80469l9.84961,1.727c-.02735.15918-2.78614,15.99072-3.00293,25.31055-.09278,3.95117-.042,7.38428.1748,10.85547a68.83086,68.83086,0,0,1,10.583,1.42724c2.10449.46485,7.71484,1.70508,10.41113,6.77051,3.16211,5.94531-.3291,12.10986-.7373,12.793a14.19057,14.19057,0,0,1-11.94824,6.97949C135.96191,94.99951,135.91992,95,135.87793,95Zm-6.69434-17.82666a14.39212,14.39212,0,0,0,2.26172,4.73291C132.83691,83.53955,134.21973,85,135.88574,85l.02735-.00049a4.31632,4.31632,0,0,0,3.44921-2.10058c.35059-.62061.89844-2.22315.499-2.97461-.24121-.45264-1.08789-1.11719-3.749-1.70508A54.81427,54.81427,0,0,0,129.18359,77.17334Z"/><path d="M78.23584,60.90088a48.10489,48.10489,0,0,1-16.16016-7.60547,38.36221,38.36221,0,0,1-10.6792-11.80469l5.207-2.98144a32.40343,32.40343,0,0,0,9.03125,9.95556,42.05833,42.05833,0,0,0,14.12939,6.63428Z"/><rect x="72" y="14" width="60" height="6"/><path d="M98.918,174.98242a126.87494,126.87494,0,0,1-14.49317-.84765l1.1504-9.9336c25.82128,2.98828,41.38671-2.76367,43.77636-7.5957.26074-.52734,1.46973-3.26465-.2959-5.56543-4.124-5.374-9.17578-10.39649-18.13867-10.79-.75488.01074-4.77148.08105-5.93359.10156l-.44531.06446-1.08887-7.53321-.94629-2.07324.60742-.27637-.00195-.01367.04687-.00683L107.749,128.415c10.56934-5.85059,14.64453-9.53418,16.1709-11.2959-6.37012-2.35547-26.90722-2.47266-34.82861-1.79687l-.84863-9.96485c1.89355-.16015,11.585-.59765,21.105-.18262,15.55371.68262,22.751,3.08008,24.84179,8.27344,2.23243,5.54688-1.74707,11.335-13.17578,18.7168,7.42969,2.77051,12.33887,8.04883,15.97559,12.78711a15.2375,15.2375,0,0,1,1.32422,16.08984C133.40039,170.97559,116.68848,174.98145,98.918,174.98242Zm26.4375-57.10937v0Z"/></svg>