<svg data-name="Balamqiloli itik" xmlns="http://www.w3.org/2000/svg" viewBox="0 0 200 200"><title>c</title><path d="M92.20459,169.73047c-.79346-1.53418-1.55908-3.09082-2.2749-4.626a128.48063,128.48063,0,0,1-8.6792-25.207l9.74023-2.26367a118.49776,118.49776,0,0,0,8.001,23.24316c.65918,1.41309,1.36377,2.84473,2.09521,4.25782Z"/><path d="M135.88184,175c-6.417.001-10.35547-4.62207-12.043-6.60254-3.01953-3.53223-4.50879-8.90234-5.12989-11.80371-2-.0918-3.95214-.1582-5.916-.16211-3.92774.002-7.833.124-11.60645.39551-2.624.1875-5.26416.31738-8.05908.45312-1.86914.0918-3.76416.18457-5.67236.29688l-2.11963.124c-3.29492.19238-6.70215.39063-9.92236.65821l-.82618-9.9668c3.34229-.27637,6.812-.47852,10.167-.67383l2.11035-.124c1.94336-.11426,3.87256-.209,5.7749-.30176,2.73682-.13379,5.32178-.26074,7.83154-.44043,4.01856-.28809,8.18067-.41016,12.34278-.4209,1.62011.00293,3.2373.0459,4.83984.1084-.17969-3.39746-.21875-6.81543-.13086-10.59863.23535-10.0752,3.03223-26.127,3.15137-26.80469l9.84961,1.72656c-.02735.15918-2.78614,15.99121-3.00293,25.31055-.09278,3.95117-.042,7.38476.1748,10.85547a69.00526,69.00526,0,0,1,10.583,1.42675c2.10449.46583,7.71582,1.70508,10.41113,6.77149,3.15821,5.93652-.32715,12.10547-.73535,12.78906A14.19563,14.19563,0,0,1,136.00488,175Zm-6.69825-17.82617a14.38822,14.38822,0,0,0,2.26172,4.73144c1.39942,1.64258,2.76758,3.124,4.46875,3.09473a4.3173,4.3173,0,0,0,3.44824-2.10059c.34961-.62011.89844-2.22363.499-2.97461-.24121-.45312-1.08789-1.11718-3.749-1.70605A54.76087,54.76087,0,0,0,129.18359,157.17383Z"/><rect x="100.5" y="14" width="35" height="6"/><path d="M85.00195,94.89844l-2.0039-9.79688a44.21114,44.21114,0,0,0,7.72168-2.311A18.19536,18.19536,0,0,1,88.12891,79c-.709-1.26514-2.7837-4.97266-.86084-11.59863.93554-3.28223,4.43164-9.01807,11.56006-9.55127,7.84765-.60156,14.18554,3.811,15.07031,10.47558a16.02091,16.02091,0,0,1-2.13965,10.04981c.24121-.0332.4873-.06836.73633-.10547,5.45019-.81348,10.85156-4.57568,14.45215-10.06445,3.67089-5.59668,4.92968-11.96827,3.4541-17.48145-1.75-6.53613-7.82129-14.1792-17.01856-15.51416-7.30273-1.06494-13.36865,2.20654-15.63916,3.66113L92.3501,30.4502a33.29121,33.29121,0,0,1,22.47021-5.13672c13.75,1.99609,22.585,12.90185,25.24121,22.8247,2.21192,8.26221.4795,17.57569-4.75293,25.55225-5.21484,7.9502-12.99121,13.22412-21.335,14.46973a39.618,39.618,0,0,1-12.375.29052A50.21642,50.21642,0,0,1,85.00195,94.89844Zm15.19483-27.1001c-.20655,0-.41309.00781-.61768.02344a3.2172,3.2172,0,0,0-2.71045,2.376c-.75342,2.59766-.2539,3.49024-.04052,3.8711.07324.13135.13574.24511.18554.34179a6.93392,6.93392,0,0,0,2.76856,2.979c2.97656-2.63574,4.50976-5.44092,4.20312-7.74805C103.82031,68.39844,102.01172,67.79834,100.19678,67.79834Z"/><path d="M88.23584,60.90088a48.10489,48.10489,0,0,1-16.16016-7.60547,38.36221,38.36221,0,0,1-10.6792-11.80469l5.207-2.98144a32.40343,32.40343,0,0,0,9.03125,9.95556,42.05833,42.05833,0,0,0,14.12939,6.63428Z"/></svg>