<svg data-name="Nyonilqiloli itik" xmlns="http://www.w3.org/2000/svg" viewBox="0 0 200 200"><title>c</title><path d="M81.05322,174.98145l-.85156-9.9629c27.15967-2.32226,40.11377-2.00585,50.12354-1.52539l5.28613.25293c-.08692-5.55468-.15137-14.76464.11328-24.63574.167-6.23242.82324-13.96094,1.65332-23.74512l.48926-5.78222,9.96484.834-.48926,5.79395c-.81738,9.623-1.46289,17.22461-1.62207,23.167-.415,15.5127-.00488,29.32812,0,29.46582l.16407,5.40527-16.03809-.76757C120.16113,173.01855,107.60059,172.71484,81.05322,174.98145Z"/><path d="M154.43652,161.51855a96.24223,96.24223,0,0,1-21.68359-5.03417,77.77882,77.77882,0,0,1-8.79-3.82129l4.56055-8.90039a67.61045,67.61045,0,0,0,7.65527,3.32714,86.2326,86.2326,0,0,0,19.42774,4.49707Z"/><path d="M85.00195,94.89844l-2.0039-9.79688a44.21114,44.21114,0,0,0,7.72168-2.311A18.19536,18.19536,0,0,1,88.12891,79c-.709-1.26514-2.7837-4.97266-.86084-11.59863.93554-3.28223,4.43164-9.01807,11.56006-9.55127,7.84765-.60156,14.18554,3.811,15.07031,10.47558a16.02091,16.02091,0,0,1-2.13965,10.04981c.24121-.0332.4873-.06836.73633-.10547,5.45019-.81348,10.85156-4.57568,14.45215-10.06445,3.67089-5.59668,4.92968-11.96827,3.4541-17.48145-1.75-6.53613-7.82129-14.1792-17.01856-15.51416-7.30273-1.06494-13.36865,2.20654-15.63916,3.66113L92.3501,30.4502a33.29121,33.29121,0,0,1,22.47021-5.13672c13.75,1.99609,22.585,12.90185,25.24121,22.8247,2.21192,8.26221.4795,17.57569-4.75293,25.55225-5.21484,7.9502-12.99121,13.22412-21.335,14.46973a39.618,39.618,0,0,1-12.375.29052A50.21642,50.21642,0,0,1,85.00195,94.89844Zm15.19483-27.1001c-.20655,0-.41309.00781-.61768.02344a3.2172,3.2172,0,0,0-2.71045,2.376c-.75342,2.59766-.2539,3.49024-.04052,3.8711.07324.13135.13574.24511.18554.34179a6.93392,6.93392,0,0,0,2.76856,2.979c2.97656-2.63574,4.50976-5.44092,4.20312-7.74805C103.82031,68.39844,102.01172,67.79834,100.19678,67.79834Z"/><path d="M75,65A14,14,0,1,1,89,51,14.01572,14.01572,0,0,1,75,65Zm0-22a8,8,0,1,0,8,8A8.00917,8.00917,0,0,0,75,43Z"/></svg>