<svg xmlns="http://www.w3.org/2000/svg" viewBox="0 0 200 200" id="ca!k" data-name="ca!k"><title>ca!k</title><path d="M85.00195,94.89844l-2.0039-9.79688a44.21114,44.21114,0,0,0,7.72168-2.311A18.19536,18.19536,0,0,1,88.12891,79c-.709-1.26514-2.7837-4.97266-.86084-11.59863.93554-3.28223,4.43164-9.01807,11.56006-9.55127,7.84765-.60156,14.18554,3.811,15.07031,10.47558a16.02091,16.02091,0,0,1-2.13965,10.04981c.24121-.0332.4873-.06836.73633-.10547,5.45019-.81348,10.85156-4.57568,14.45215-10.06445,3.67089-5.59668,4.92968-11.96827,3.4541-17.48145-1.75-6.53613-7.82129-14.1792-17.01856-15.51416-7.30273-1.06494-13.36865,2.20654-15.63916,3.66113L92.3501,30.4502a33.29121,33.29121,0,0,1,22.47021-5.13672c13.75,1.99609,22.585,12.90185,25.24121,22.8247,2.21192,8.26221.4795,17.57569-4.75293,25.55225-5.21484,7.9502-12.99121,13.22412-21.335,14.46973a39.618,39.618,0,0,1-12.375.29052A50.21642,50.21642,0,0,1,85.00195,94.89844Zm15.19483-27.1001c-.20655,0-.41309.00781-.61768.02344a3.2172,3.2172,0,0,0-2.71045,2.376c-.75342,2.59766-.2539,3.49024-.04052,3.8711.07324.13135.13574.24511.18554.34179a6.93392,6.93392,0,0,0,2.76856,2.979c2.97656-2.63574,4.50976-5.44092,4.20312-7.74805C103.82031,68.39844,102.01172,67.79834,100.19678,67.79834Z"/><rect x="100.5" y="14" width="35" height="6"/><path d="M 111.39258 105.17383 C 95.307029 106.46211 82.630859 115.98047 82.630859 115.98047 L 88.460938 124.10547 C 88.460938 124.10547 108.14643 110.73493 124.91602 116.70703 C 133.34491 119.70879 136.00079 124.56071 136.37695 130.6875 C 136.75312 136.81429 133.91127 144.34972 129.20898 149.9707 C 113.445 168.81459 90.290782 169.41479 80.25 164.94141 L 76.181641 174.07617 C 91.273705 180.80001 118.19195 178.72465 136.87891 156.38672 C 143.03729 149.02515 146.93917 139.51956 146.35938 130.07617 C 145.77958 120.63278 139.78016 111.38566 128.27148 107.28711 C 122.4951 105.22998 116.75443 104.7444 111.39258 105.17383 z "/></svg>