<svg xmlns="http://www.w3.org/2000/svg" viewBox="0 0 200 200" id="ca!q" data-name="ca!q"><title>ca!q</title><path d="M85.00195,94.89844l-2.0039-9.79688a44.21114,44.21114,0,0,0,7.72168-2.311A18.19536,18.19536,0,0,1,88.12891,79c-.709-1.26514-2.7837-4.97266-.86084-11.59863.93554-3.28223,4.43164-9.01807,11.56006-9.55127,7.84765-.60156,14.18554,3.811,15.07031,10.47558a16.02091,16.02091,0,0,1-2.13965,10.04981c.24121-.0332.4873-.06836.73633-.10547,5.45019-.81348,10.85156-4.57568,14.45215-10.06445,3.67089-5.59668,4.92968-11.96827,3.4541-17.48145-1.75-6.53613-7.82129-14.1792-17.01856-15.51416-7.30273-1.06494-13.36865,2.20654-15.63916,3.66113L92.3501,30.4502a33.29121,33.29121,0,0,1,22.47021-5.13672c13.75,1.99609,22.585,12.90185,25.24121,22.8247,2.21192,8.26221.4795,17.57569-4.75293,25.55225-5.21484,7.9502-12.99121,13.22412-21.335,14.46973a39.618,39.618,0,0,1-12.375.29052A50.21642,50.21642,0,0,1,85.00195,94.89844Zm15.19483-27.1001c-.20655,0-.41309.00781-.61768.02344a3.2172,3.2172,0,0,0-2.71045,2.376c-.75342,2.59766-.2539,3.49024-.04052,3.8711.07324.13135.13574.24511.18554.34179a6.93392,6.93392,0,0,0,2.76856,2.979c2.97656-2.63574,4.50976-5.44092,4.20312-7.74805C103.82031,68.39844,102.01172,67.79834,100.19678,67.79834Z"/><rect x="100.5" y="14" width="35" height="6"/><path d="M85.86523,174.08105l-5.16015-8.5664c.36767-.2207.8916-.50977,1.54053-.86328,4.94775-2.69532,18.09082-9.85645,18.17236-22.95313.06933-11.22461-13.41895-22.85449-22.55713-27.17871l4.11523-9.1123c4.73487,2.03711,36.4751,16.125,53.02393,34.54882V110h10v60H135v-8.67285c.001-9.58789-12.29-20.9043-26.88867-30.50488a27.43239,27.43239,0,0,1,2.30664,10.93847c-.11817,18.99414-17.63281,28.53614-23.38818,31.67188C86.54,173.7002,86.14307,173.91309,85.86523,174.08105Z"/></svg>