<svg xmlns="http://www.w3.org/2000/svg" viewBox="0 0 200 200" id="ce!" data-name="ce!"><title>ce!</title><rect x="89.34277" y="37" width="60" height="6"/><path d="M72.00195,149.89844l-2.0039-9.79688a66.52487,66.52487,0,0,0,15.5249-5.14551,23.45251,23.45251,0,0,1-6.10986-7.60449L79.333,127.207c-.896-1.60156-3.62207-6.47558-1.03076-15.4082,1.23046-4.3125,5.80859-11.833,15.126-12.53076,10.57276-.8086,18.77393,4.77,19.9419,13.54931.81152,6.11817-1.32715,12.24512-5.73145,17.7666,1.99121-.12207,4.14453-.35839,6.47363-.707,8.86817-1.32324,17.61426-7.37793,23.39942-16.19726,5.89648-8.99024,7.90332-19.28272,5.50488-28.23975-2.8291-10.5708-12.667-22.93408-27.583-25.09912-11.78027-1.71191-21.52539,3.52832-25.167,5.86035l-5.39355-8.4209c5.69629-3.64843,17.42968-9.45019,31.998-7.33593,19.5,2.83105,32.03418,18.31787,35.80567,32.40966,3.13379,11.70606.65429,24.94092-6.80371,36.31006-7.43164,11.33008-18.46973,18.83985-30.28223,20.60352-5.6084.83887-12.29492,1.4248-18.59131.2373A72.58334,72.58334,0,0,1,72.00195,149.89844Zm23.29248-40.70117c-.374,0-.74609.01464-1.11474.042-4.66748.34961-6.11865,4.82226-6.269,5.33105-1.43017,4.93067-.32275,6.91016.14991,7.75489.09375.168.17431.31445.23828.43847A13.11381,13.11381,0,0,0,94.99268,129.04c5.98681-4.86816,9.06982-10.34766,8.46435-14.90625C102.99609,110.668,99.09375,109.19727,95.29443,109.19727Z"/><path d="M85.94971,93.50732a47.02288,47.02288,0,0,1-17.002-9.584A45.72672,45.72672,0,0,1,57.86182,69.25879l5.41308-2.58691a39.78366,39.78366,0,0,0,9.64063,12.751,41.05946,41.05946,0,0,0,14.84863,8.36572Z"/><path d="M66.44824,104.84863a47.00955,47.00955,0,0,1-17.00244-9.584A45.727,45.727,0,0,1,38.35986,80.6001L43.773,78.01318a39.78356,39.78356,0,0,0,9.64062,12.751,41.04888,41.04888,0,0,0,14.84815,8.36523Z"/></svg>