<svg data-name="Xocilqiloli itik" xmlns="http://www.w3.org/2000/svg" viewBox="0 0 200 200"><title>c</title><path d="M110.4375,175.01758a31.04036,31.04036,0,0,1-18.70215-6.249,25.28544,25.28544,0,0,1-5.646-5.81347c-6.44092-9.25781-6.45069-22.54785-3.603-31.61133,2.22363-7.07812,6.18408-11.98828,11.15185-13.8252,6.96192-2.56835,15.98194.93848,20.98389,8.15723,5.71094,8.23633,3.09375,17.65723,2.1084,21.2041a38.026,38.026,0,0,1-11.10742,17.541,19.05694,19.05694,0,0,0,13.06836-1.35156c5.31543-2.87305,11.457-10.9043,10.52734-32.85547a54.88459,54.88459,0,0,0-4.01953-18.33692l9.26855-3.7539a64.80881,64.80881,0,0,1,4.74121,21.665c.92286,21.77148-4.38085,35.92773-15.76367,42.07812A27.38885,27.38885,0,0,1,110.4375,175.01758ZM98.50439,126.67285a4.06063,4.06063,0,0,0-1.40136.22559c-1.91016.707-3.85645,3.55859-5.07666,7.44336-2.11182,6.72168-2.00977,16.748,2.272,22.90234a14.77792,14.77792,0,0,0,1.76709,2.0918c3.06934-2.21192,8.915-7.49805,11.02051-15.09864.71191-2.56152,2.35644-8.48242-.68262-12.86523C104.28418,128.31445,100.92676,126.67285,98.50439,126.67285Z"/><rect x="100.5" y="14" width="35" height="6"/><path d="M85.00195,94.89844l-2.0039-9.79688a44.21114,44.21114,0,0,0,7.72168-2.311A18.19536,18.19536,0,0,1,88.12891,79c-.709-1.26514-2.7837-4.97266-.86084-11.59863.93554-3.28223,4.43164-9.01807,11.56006-9.55127,7.84765-.60156,14.18554,3.811,15.07031,10.47558a16.02091,16.02091,0,0,1-2.13965,10.04981c.24121-.0332.4873-.06836.73633-.10547,5.45019-.81348,10.85156-4.57568,14.45215-10.06445,3.67089-5.59668,4.92968-11.96827,3.4541-17.48145-1.75-6.53613-7.82129-14.1792-17.01856-15.51416-7.30273-1.06494-13.36865,2.20654-15.63916,3.66113L92.3501,30.4502a33.29121,33.29121,0,0,1,22.47021-5.13672c13.75,1.99609,22.585,12.90185,25.24121,22.8247,2.21192,8.26221.4795,17.57569-4.75293,25.55225-5.21484,7.9502-12.99121,13.22412-21.335,14.46973a39.618,39.618,0,0,1-12.375.29052A50.21642,50.21642,0,0,1,85.00195,94.89844Zm15.19483-27.1001c-.20655,0-.41309.00781-.61768.02344a3.2172,3.2172,0,0,0-2.71045,2.376c-.75342,2.59766-.2539,3.49024-.04052,3.8711.07324.13135.13574.24511.18554.34179a6.93392,6.93392,0,0,0,2.76856,2.979c2.97656-2.63574,4.50976-5.44092,4.20312-7.74805C103.82031,68.39844,102.01172,67.79834,100.19678,67.79834Z"/><path d="M88.23584,60.90088a48.10489,48.10489,0,0,1-16.16016-7.60547,38.36221,38.36221,0,0,1-10.6792-11.80469l5.207-2.98144a32.40343,32.40343,0,0,0,9.03125,9.95556,42.05833,42.05833,0,0,0,14.12939,6.63428Z"/></svg>