<svg data-name="Tlachalqiloli itik" xmlns="http://www.w3.org/2000/svg" viewBox="0 0 200 200"><title>c</title><path d="M93.11328,174.98828c-6.6748,0-13.0918-2.168-16.416-7.832-3.562-6.07617-3.145-15.82617.94726-22.19824a18.32593,18.32593,0,0,1,9.97852-7.45313l.17968-.0625c9.83106-3.3457,21.78321-.626,35.71094,8.084A77.46083,77.46083,0,0,0,137.291,115H75V105h72.94629v5c0,4.56152-3.29395,23.93164-16.209,41.19434a183.10189,183.10189,0,0,1,15.458,13.12207c.51074.47949.8711.82226,1.06739.99218l-6.5254,7.57618c-.25585-.21973-.72851-.66016-1.3916-1.28321a170.40013,170.40013,0,0,0-15.13379-12.79492A69.09243,69.09243,0,0,1,109.1416,171.001,34.75349,34.75349,0,0,1,93.11328,174.98828Zm3.19483-28.8916a16.239,16.239,0,0,0-5.25684.80371l-.19189.06543a8.45157,8.45157,0,0,0-4.8003,3.39551c-2.24219,3.49121-2.23681,9.1748-.73633,11.73535,2.59082,4.415,13.354,3.24414,19.00538.13965a59.25416,59.25416,0,0,0,12.41406-9.11426C107.61816,147.68164,100.9624,146.09668,96.30811,146.09668Z"/><path d="M85.00195,94.89844l-2.0039-9.79688a44.21114,44.21114,0,0,0,7.72168-2.311A18.19536,18.19536,0,0,1,88.12891,79c-.709-1.26514-2.7837-4.97266-.86084-11.59863.93554-3.28223,4.43164-9.01807,11.56006-9.55127,7.84765-.60156,14.18554,3.811,15.07031,10.47558a16.02091,16.02091,0,0,1-2.13965,10.04981c.24121-.0332.4873-.06836.73633-.10547,5.45019-.81348,10.85156-4.57568,14.45215-10.06445,3.67089-5.59668,4.92968-11.96827,3.4541-17.48145-1.75-6.53613-7.82129-14.1792-17.01856-15.51416-7.30273-1.06494-13.36865,2.20654-15.63916,3.66113L92.3501,30.4502a33.29121,33.29121,0,0,1,22.47021-5.13672c13.75,1.99609,22.585,12.90185,25.24121,22.8247,2.21192,8.26221.4795,17.57569-4.75293,25.55225-5.21484,7.9502-12.99121,13.22412-21.335,14.46973a39.618,39.618,0,0,1-12.375.29052A50.21642,50.21642,0,0,1,85.00195,94.89844Zm15.19483-27.1001c-.20655,0-.41309.00781-.61768.02344a3.2172,3.2172,0,0,0-2.71045,2.376c-.75342,2.59766-.2539,3.49024-.04052,3.8711.07324.13135.13574.24511.18554.34179a6.93392,6.93392,0,0,0,2.76856,2.979c2.97656-2.63574,4.50976-5.44092,4.20312-7.74805C103.82031,68.39844,102.01172,67.79834,100.19678,67.79834Z"/><path d="M75,65A14,14,0,1,1,89,51,14.01572,14.01572,0,0,1,75,65Zm0-22a8,8,0,1,0,8,8A8.00917,8.00917,0,0,0,75,43Z"/></svg>