<svg xmlns="http://www.w3.org/2000/svg" viewBox="0 0 200 200" id="cu!&apos;" data-name="cu!&apos;"><title>cu!'</title><polygon points="49.423 85 43.423 85 43.423 52 76.423 52 76.423 58 49.423 58 49.423 85"/><rect x="89.34277" y="37" width="60" height="6"/><path d="M72.00195,149.89844l-2.0039-9.79688a66.52487,66.52487,0,0,0,15.5249-5.14551,23.45251,23.45251,0,0,1-6.10986-7.60449L79.333,127.207c-.896-1.60156-3.62207-6.47558-1.03076-15.4082,1.23046-4.3125,5.80859-11.833,15.126-12.53076,10.57276-.8086,18.77393,4.77,19.9419,13.54931.81152,6.11817-1.32715,12.24512-5.73145,17.7666,1.99121-.12207,4.14453-.35839,6.47363-.707,8.86817-1.32324,17.61426-7.37793,23.39942-16.19726,5.89648-8.99024,7.90332-19.28272,5.50488-28.23975-2.8291-10.5708-12.667-22.93408-27.583-25.09912-11.78027-1.71191-21.52539,3.52832-25.167,5.86035l-5.39355-8.4209c5.69629-3.64843,17.42968-9.45019,31.998-7.33593,19.5,2.83105,32.03418,18.31787,35.80567,32.40966,3.13379,11.70606.65429,24.94092-6.80371,36.31006-7.43164,11.33008-18.46973,18.83985-30.28223,20.60352-5.6084.83887-12.29492,1.4248-18.59131.2373A72.58334,72.58334,0,0,1,72.00195,149.89844Zm23.29248-40.70117c-.374,0-.74609.01464-1.11474.042-4.66748.34961-6.11865,4.82226-6.269,5.33105-1.43017,4.93067-.32275,6.91016.14991,7.75489.09375.168.17431.31445.23828.43847A13.11381,13.11381,0,0,0,94.99268,129.04c5.98681-4.86816,9.06982-10.34766,8.46435-14.90625C102.99609,110.668,99.09375,109.19727,95.29443,109.19727Z"/><path d="M46.99238,101c-.25928,0-.51855-.00293-.7793-.00879l.13282-5.998A25.81867,25.81867,0,0,0,57.55732,92.792a28.07891,28.07891,0,0,0,7.48145-5.0664,15.1351,15.1351,0,0,1-2.28223-1.75342c-1.31445-1.22852-4.80566-4.4917-4.70508-9.54785a12.09537,12.09537,0,0,1,8.76172-11.02539c4.03711-1.08448,9.42481-.03077,11.44434,3.61328,1.32422,2.38916,1.36132,5.648.1084,9.42431a30.73317,30.73317,0,0,1-4.25684,8.02442l-.26758,4.0415a19.00229,19.00229,0,0,1-2.72656-.38183,34.87325,34.87325,0,0,1-11.08887,8.14013A31.4444,31.4444,0,0,1,46.99238,101ZM69.93525,70.99707A5.82921,5.82921,0,0,0,64.05049,76.544c-.04786,2.38037,1.80761,4.11376,2.80371,5.04541a9.61569,9.61569,0,0,0,2.26172,1.55615,24.71961,24.71961,0,0,0,3.55566-6.59815c.80078-2.415.70019-3.97314.33789-4.62646C72.77021,71.48926,71.43427,70.99707,69.93525,70.99707Z"/></svg>