<svg data-name="Tlachalqiloli itik" xmlns="http://www.w3.org/2000/svg" viewBox="0 0 200 200"><title>d</title><path d="M93.11328,174.98828c-6.6748,0-13.0918-2.168-16.416-7.832-3.562-6.07617-3.145-15.82617.94726-22.19824a18.32593,18.32593,0,0,1,9.97852-7.45313l.17968-.0625c9.83106-3.3457,21.78321-.626,35.71094,8.084A77.46083,77.46083,0,0,0,137.291,115H75V105h72.94629v5c0,4.56152-3.29395,23.93164-16.209,41.19434a183.10189,183.10189,0,0,1,15.458,13.12207c.51074.47949.8711.82226,1.06739.99218l-6.5254,7.57618c-.25585-.21973-.72851-.66016-1.3916-1.28321a170.40013,170.40013,0,0,0-15.13379-12.79492A69.09243,69.09243,0,0,1,109.1416,171.001,34.75349,34.75349,0,0,1,93.11328,174.98828Zm3.19483-28.8916a16.239,16.239,0,0,0-5.25684.80371l-.19189.06543a8.45157,8.45157,0,0,0-4.8003,3.39551c-2.24219,3.49121-2.23681,9.1748-.73633,11.73535,2.59082,4.415,13.354,3.24414,19.00538.13965a59.25416,59.25416,0,0,0,12.41406-9.11426C107.61816,147.68164,100.9624,146.09668,96.30811,146.09668Z"/><path d="M116,93.50586a39.9167,39.9167,0,0,1-.31348-55.90674q.31788-.3252.64063-.63916C106.126,37.813,92.75,39.03369,75.50293,40.77734l-1.00586-9.94921c53.61523-5.42042,69.73633-5.813,70.39648-5.82715l.21387,9.998c-.11523.00342-13.35254.48291-22.27637,9.59619a30.10725,30.10725,0,0,0-8.30957,23.251,30.79466,30.79466,0,0,0,8.60743,18.64795Z"/><path d="M125.05078,65.83594c-7.99609,0-16.02344-.36817-23.93359-1.09815-4.78321-.4414-9.6211-1.02539-14.37793-1.73584l1.47656-9.89062c4.57275.6831,9.22266,1.24414,13.82031,1.66846a250.49833,250.49833,0,0,0,28.23047,1.00146l.209,9.99805Q127.76708,65.83569,125.05078,65.83594Z"/><path d="M84.23584,82.90088a48.10489,48.10489,0,0,1-16.16016-7.60547,38.36221,38.36221,0,0,1-10.6792-11.80469l5.207-2.98144a32.40343,32.40343,0,0,0,9.03125,9.95556,42.05833,42.05833,0,0,0,14.12939,6.63428Z"/></svg>