<svg xmlns="http://www.w3.org/2000/svg" viewBox="0 0 200 200" id="do!&apos;" data-name="do!&apos;"><title>do!'</title><path d="M118.47363,148.22266A61.89448,61.89448,0,0,1,104.419,112.7334c-1.13868-16.19629,3.96679-32.7583,13.65527-44.30225a50.35058,50.35058,0,0,1,6.03808-6.06543c-13.73437,1.28711-32.77587,3.2666-58.52636,6.30371l-1.17188-9.93115c68.43555-8.07226,89.32617-8.707,90.44141-8.73633a.1.1,0,0,1,.02051-.00049l.25,9.99708c-.15625.00488-17.53028.72851-29.3916,14.86132-8.06153,9.605-12.30079,23.50147-11.34083,37.17237a52.56362,52.56362,0,0,0,11.72657,29.74511Z"/><path d="M129.33984,106.25391a287.22151,287.22151,0,0,1-30.70507-1.64453c-6.14942-.66211-12.35694-1.53711-18.45069-2.59864l1.7168-9.85156c5.88037,1.0249,11.8706,1.86865,17.80517,2.50781a277.25312,277.25312,0,0,0,36.36329,1.5044l.24414,9.99658Q132.833,106.2544,129.33984,106.25391Z"/><path d="M39.74561,101a18,18,0,1,1,18-18A18.02031,18.02031,0,0,1,39.74561,101Zm0-30a12,12,0,1,0,12,12A12.01375,12.01375,0,0,0,39.74561,71Z"/><rect x="83.34277" y="37" width="60" height="6"/><polygon points="10.423 85 4.423 85 4.423 52 37.423 52 37.423 58 10.423 58 10.423 85"/></svg>