<svg xmlns="http://www.w3.org/2000/svg" viewBox="0 0 200 200" id="do!d" data-name="do!d"><title>do!d</title><path d="M116,173.50586a39.91736,39.91736,0,0,1-.31348-55.90723c.21192-.21679.42481-.42871.64063-.63867-10.20117.85352-23.57715,2.07324-40.82422,3.81738l-1.00586-9.94921c53.61523-5.4209,69.73633-5.8125,70.39648-5.82715l.21485,9.998c-.11621.00293-13.35352.4834-22.27735,9.59571a30.11273,30.11273,0,0,0-8.30957,23.251,30.79639,30.79639,0,0,0,8.60743,18.64844Z"/><path d="M125.05078,145.83594c-7.99609,0-16.02344-.36817-23.93359-1.09864-4.79248-.44238-9.63037-1.02636-14.37842-1.73535l1.47754-9.89062c4.564.68262,9.21338,1.24316,13.81982,1.66894a251.41886,251.41886,0,0,0,28.23047,1.001l.209,9.99805Q127.76708,145.83642,125.05078,145.83594Z"/><rect x="90.5" y="14" width="43" height="6"/><path d="M116,93.50586a39.9167,39.9167,0,0,1-.31348-55.90674q.31788-.3252.64063-.63916C106.126,37.813,92.75,39.03369,75.50293,40.77734l-1.00586-9.94921c53.61523-5.42042,69.73633-5.813,70.39648-5.82715l.21387,9.998c-.11523.00342-13.35254.48291-22.27637,9.59619a30.10725,30.10725,0,0,0-8.30957,23.251,30.79466,30.79466,0,0,0,8.60743,18.64795Z"/><path d="M125.05078,65.83594c-7.99609,0-16.02344-.36817-23.93359-1.09815-4.78321-.4414-9.6211-1.02539-14.37793-1.73584l1.47656-9.89062c4.57275.6831,9.22266,1.24414,13.82031,1.66846a250.49833,250.49833,0,0,0,28.23047,1.00146l.209,9.99805Q127.76708,65.83569,125.05078,65.83594Z"/><path d="M71,87A14,14,0,1,1,85,73,14.01572,14.01572,0,0,1,71,87Zm0-22a8,8,0,1,0,8,8A8.00917,8.00917,0,0,0,71,65Z"/></svg>