<svg xmlns="http://www.w3.org/2000/svg" viewBox="0 0 200 200" id="doh" data-name="doh"><title>doh</title><path d="M116,93.50586a39.9167,39.9167,0,0,1-.31348-55.90674q.31788-.3252.64063-.63916C106.126,37.813,92.75,39.03369,75.50293,40.77734l-1.00586-9.94921c53.61523-5.42042,69.73633-5.813,70.39648-5.82715l.21387,9.998c-.11523.00342-13.35254.48291-22.27637,9.59619a30.10725,30.10725,0,0,0-8.30957,23.251,30.79466,30.79466,0,0,0,8.60743,18.64795Z"/><path d="M125.05078,65.83594c-7.99609,0-16.02344-.36817-23.93359-1.09815-4.78321-.4414-9.6211-1.02539-14.37793-1.73584l1.47656-9.89062c4.57275.6831,9.22266,1.24414,13.82031,1.66846a250.49833,250.49833,0,0,0,28.23047,1.00146l.209,9.99805Q127.76708,65.83569,125.05078,65.83594Z"/><path d="M71,87A14,14,0,1,1,85,73,14.01572,14.01572,0,0,1,71,87Zm0-22a8,8,0,1,0,8,8A8.00917,8.00917,0,0,0,71,65Z"/><path d="M127.22559,172.04785l-9.123-4.0957c10.61621-23.64453,15.47363-38.68848,8.88379-45.61133-3.7168-3.90625-11.834-4.55566-21.71289-1.73633-8.73194,2.49024-12.47217,9.86524-14.07422,15.70508-.63867,3.96484-1.23584,8.38867-1.24414,8.44824L80,144.07227a42.994,42.994,0,0,1,1.37158-9.63184c.23487-1.44336.47608-2.833.70166-3.96875,1.39649-7.02637,2.50342-14.10352,3.29-21.03516l9.93652,1.127q-.21751,1.916-.46582,3.84375a29.15692,29.15692,0,0,1,7.69727-3.41993c13.72461-3.91308,25.27637-2.2871,31.69922,4.459C145.81738,127.62109,138.28125,147.42383,127.22559,172.04785Z"/></svg>