<svg xmlns="http://www.w3.org/2000/svg" viewBox="0 0 200 200" id="doq" data-name="doq"><title>doq</title><path d="M85.86523,174.08105l-5.16015-8.5664c.36767-.2207.8916-.50977,1.54053-.86328,4.94775-2.69532,18.09082-9.85645,18.17236-22.95313.06933-11.22461-13.41895-22.85449-22.55713-27.17871l4.11523-9.1123c4.73487,2.03711,36.4751,16.125,53.02393,34.54882V110h10v60H135v-8.67285c.001-9.58789-12.29-20.9043-26.88867-30.50488a27.43239,27.43239,0,0,1,2.30664,10.93847c-.11817,18.99414-17.63281,28.53614-23.38818,31.67188C86.54,173.7002,86.14307,173.91309,85.86523,174.08105Z"/><path d="M116,93.50586a39.9167,39.9167,0,0,1-.31348-55.90674q.31788-.3252.64063-.63916C106.126,37.813,92.75,39.03369,75.50293,40.77734l-1.00586-9.94921c53.61523-5.42042,69.73633-5.813,70.39648-5.82715l.21387,9.998c-.11523.00342-13.35254.48291-22.27637,9.59619a30.10725,30.10725,0,0,0-8.30957,23.251,30.79466,30.79466,0,0,0,8.60743,18.64795Z"/><path d="M125.05078,65.83594c-7.99609,0-16.02344-.36817-23.93359-1.09815-4.78321-.4414-9.6211-1.02539-14.37793-1.73584l1.47656-9.89062c4.57275.6831,9.22266,1.24414,13.82031,1.66846a250.49833,250.49833,0,0,0,28.23047,1.00146l.209,9.99805Q127.76708,65.83569,125.05078,65.83594Z"/><path d="M71,87A14,14,0,1,1,85,73,14.01572,14.01572,0,0,1,71,87Zm0-22a8,8,0,1,0,8,8A8.00917,8.00917,0,0,0,71,65Z"/></svg>