<svg xmlns="http://www.w3.org/2000/svg" viewBox="0 0 200 200" id="du!&apos;" data-name="du!&apos;"><title>du!'</title><path d="M118.47363,148.22266A61.89448,61.89448,0,0,1,104.419,112.7334c-1.13868-16.19629,3.96679-32.7583,13.65527-44.30225a50.35058,50.35058,0,0,1,6.03808-6.06543c-13.73437,1.28711-32.77587,3.2666-58.52636,6.30371l-1.17188-9.93115c68.43555-8.07226,89.32617-8.707,90.44141-8.73633a.1.1,0,0,1,.02051-.00049l.25,9.99708c-.15625.00488-17.53028.72851-29.3916,14.86132-8.06153,9.605-12.30079,23.50147-11.34083,37.17237a52.56362,52.56362,0,0,0,11.72657,29.74511Z"/><path d="M129.33984,106.25391a287.22151,287.22151,0,0,1-30.70507-1.64453c-6.14942-.66211-12.35694-1.53711-18.45069-2.59864l1.7168-9.85156c5.88037,1.0249,11.8706,1.86865,17.80517,2.50781a277.25312,277.25312,0,0,0,36.36329,1.5044l.24414,9.99658Q132.833,106.2544,129.33984,106.25391Z"/><path d="M23.99238,101c-.25928,0-.51855-.00293-.7793-.00879l.13282-5.998A25.81867,25.81867,0,0,0,34.55732,92.792a28.07891,28.07891,0,0,0,7.48145-5.0664,15.1351,15.1351,0,0,1-2.28223-1.75342c-1.31445-1.22852-4.80566-4.4917-4.70508-9.54785a12.09537,12.09537,0,0,1,8.76172-11.02539c4.03711-1.08448,9.42481-.03077,11.44434,3.61328,1.32422,2.38916,1.36132,5.648.1084,9.42431a30.73317,30.73317,0,0,1-4.25684,8.02442l-.26758,4.0415a19.00229,19.00229,0,0,1-2.72656-.38183,34.87325,34.87325,0,0,1-11.08887,8.14013A31.4444,31.4444,0,0,1,23.99238,101ZM46.93525,70.99707A5.82921,5.82921,0,0,0,41.05049,76.544c-.04786,2.38037,1.80761,4.11376,2.80371,5.04541a9.61569,9.61569,0,0,0,2.26172,1.55615,24.71961,24.71961,0,0,0,3.55566-6.59815c.80078-2.415.70019-3.97314.33789-4.62646C49.77021,71.48926,48.43427,70.99707,46.93525,70.99707Z"/><rect x="83.34277" y="37" width="60" height="6"/><polygon points="40.423 85 34.423 85 34.423 52 67.423 52 67.423 58 40.423 58 40.423 85"/></svg>