<svg xmlns="http://www.w3.org/2000/svg" viewBox="0 0 200 200" id="e!&apos;" data-name="e!&apos;"><title>e!'</title><path d="M140.7002,147.03418l-9.13477-4.06836c.22656-.50781.82715-1.87793,1.51562-3.61621,3.89258-9.86914,6.68653-27.59863,8.30274-52.686a28.00118,28.00118,0,0,0,.01269-4.91259,27.8277,27.8277,0,0,0-8.92871-17.3086c-8.00781-7.03662-19.98242-4.54345-38.10644-.77a132.46614,132.46614,0,0,0-19.11865,5.50782l-3.48536-9.373a142.52954,142.52954,0,0,1,20.56592-5.92481c19.54785-4.0708,34.98633-7.28613,46.74512,3.04737a37.66442,37.66442,0,0,1,12.28125,23.85254,37.95761,37.95761,0,0,1,.01367,6.519c-2.53613,39.37939-7.38769,51.68213-8.98242,55.7251C141.62012,144.94727,140.95215,146.46875,140.7002,147.03418Z"/><path d="M88.86719,147.03418l-9.13477-4.06836c.22461-.50488.82276-1.86816,1.51514-3.61621,3.89307-9.86719,6.687-27.5957,8.30224-52.686a27.85084,27.85084,0,0,0,.01319-4.91162l9.95312-.96679a37.45176,37.45176,0,0,1,.01319,6.51709c-2.53516,39.3833-7.3877,51.68213-8.98242,55.72412C89.78271,144.95605,89.11768,146.47168,88.86719,147.03418Z"/><rect x="83.34277" y="37" width="60" height="6"/><polygon points="39.423 85 33.423 85 33.423 52 66.423 52 66.423 58 39.423 58 39.423 85"/></svg>