<svg xmlns="http://www.w3.org/2000/svg" viewBox="0 0 200 200" id="e!n" data-name="e!n"><title>e!n</title><path d="M131.99023,92.0332l-9.13671-4.0664c.13769-.3086.53027-1.20215.98437-2.34815,2.53027-6.4126,4.35547-18.06152,5.4209-34.6167a16.91289,16.91289,0,0,0,.01269-3.00537,16.90238,16.90238,0,0,0-5.3916-10.44873c-4.50488-3.95849-11.3164-2.76806-23.96582-.13476a86.69469,86.69469,0,0,0-12.50488,3.60254l-3.48535-9.37305a96.7511,96.7511,0,0,1,13.95166-4.01953c13.48681-2.80811,24.13916-5.02637,32.604,2.41162a26.82159,26.82159,0,0,1,8.74512,16.9917,26.34356,26.34356,0,0,1,.01367,4.6167c-1.707,26.51757-5.01367,34.89892-6.10058,37.65332C132.60645,90.63574,132.14941,91.6748,131.99023,92.0332Z"/><path d="M97.43457,92.0332l-9.13574-4.0664c.13721-.30811.5293-1.20117.98291-2.34668,2.53125-6.41407,4.356-18.063,5.42139-34.61817a17.009,17.009,0,0,0,.01318-3.00537l9.95264-.96875a26.306,26.306,0,0,1,.01367,4.61328c-1.707,26.51953-5.01416,34.90088-6.10108,37.65528C98.05176,90.63477,97.59424,91.67432,97.43457,92.0332Z"/><rect x="90.5" y="14" width="43" height="6"/><path d="M80.44141,174.98047l-.88282-9.96094c26.21387-2.32129,38.71778-2.00586,48.38184-1.52637l4.90039.24317c-.083-5.55274-.14551-14.75586.10938-24.6211.16015-6.22168.792-13.93847,1.59277-23.708l.47363-5.80957,9.9668.80468-.47363,5.82032c-.78809,9.61425-1.41016,17.208-1.56348,23.15039-.39941,15.51758-.00391,29.33886,0,29.47656l.1582,5.4082-15.66015-.77636C118.11719,173.0166,106.02148,172.71484,80.44141,174.98047Z"/></svg>