<svg data-name="Nyonilqiloli itik" xmlns="http://www.w3.org/2000/svg" viewBox="0 0 200 200"><title>e</title><path d="M81.05322,174.98145l-.85156-9.9629c27.15967-2.32226,40.11377-2.00585,50.12354-1.52539l5.28613.25293c-.08692-5.55468-.15137-14.76464.11328-24.63574.167-6.23242.82324-13.96094,1.65332-23.74512l.48926-5.78222,9.96484.834-.48926,5.79395c-.81738,9.623-1.46289,17.22461-1.62207,23.167-.415,15.5127-.00488,29.32812,0,29.46582l.16407,5.40527-16.03809-.76757C120.16113,173.01855,107.60059,172.71484,81.05322,174.98145Z"/><path d="M154.43652,161.51855a96.24223,96.24223,0,0,1-21.68359-5.03417,77.77882,77.77882,0,0,1-8.79-3.82129l4.56055-8.90039a67.61045,67.61045,0,0,0,7.65527,3.32714,86.2326,86.2326,0,0,0,19.42774,4.49707Z"/><path d="M131.99023,92.0332l-9.13671-4.0664c.13769-.3086.53027-1.20215.98437-2.34815,2.53027-6.4126,4.35547-18.06152,5.4209-34.6167a16.91289,16.91289,0,0,0,.01269-3.00537,16.90238,16.90238,0,0,0-5.3916-10.44873c-4.50488-3.95849-11.3164-2.76806-23.96582-.13476a86.69469,86.69469,0,0,0-12.50488,3.60254l-3.48535-9.37305a96.7511,96.7511,0,0,1,13.95166-4.01953c13.48681-2.80811,24.13916-5.02637,32.604,2.41162a26.82159,26.82159,0,0,1,8.74512,16.9917,26.34356,26.34356,0,0,1,.01367,4.6167c-1.707,26.51757-5.01367,34.89892-6.10058,37.65332C132.60645,90.63574,132.14941,91.6748,131.99023,92.0332Z"/><path d="M97.43457,92.0332l-9.13574-4.0664c.13721-.30811.5293-1.20117.98291-2.34668,2.53125-6.41407,4.356-18.063,5.42139-34.61817a17.009,17.009,0,0,0,.01318-3.00537l9.95264-.96875a26.306,26.306,0,0,1,.01367,4.61328c-1.707,26.51953-5.01416,34.90088-6.10108,37.65528C98.05176,90.63477,97.59424,91.67432,97.43457,92.0332Z"/><rect x="90.5" y="14" width="43" height="6"/></svg>