<svg data-name="Dunilqiloli itik" xmlns="http://www.w3.org/2000/svg" viewBox="0 0 200 200"><title>e</title><path d="M116,173.50586a39.91736,39.91736,0,0,1-.31348-55.90723c.21192-.21679.42481-.42871.64063-.63867-10.20117.85352-23.57715,2.07324-40.82422,3.81738l-1.00586-9.94921c53.61523-5.4209,69.73633-5.8125,70.39648-5.82715l.21485,9.998c-.11621.00293-13.35352.4834-22.27735,9.59571a30.11273,30.11273,0,0,0-8.30957,23.251,30.79639,30.79639,0,0,0,8.60743,18.64844Z"/><path d="M125.05078,145.83594c-7.99609,0-16.02344-.36817-23.93359-1.09864-4.79248-.44238-9.63037-1.02636-14.37842-1.73535l1.47754-9.89062c4.564.68262,9.21338,1.24316,13.81982,1.66894a251.41886,251.41886,0,0,0,28.23047,1.001l.209,9.99805Q127.76708,145.83642,125.05078,145.83594Z"/><path d="M131.99023,92.0332l-9.13671-4.0664c.13769-.3086.53027-1.20215.98437-2.34815,2.53027-6.4126,4.35547-18.06152,5.4209-34.6167a16.91289,16.91289,0,0,0,.01269-3.00537,16.90238,16.90238,0,0,0-5.3916-10.44873c-4.50488-3.95849-11.3164-2.76806-23.96582-.13476a86.69469,86.69469,0,0,0-12.50488,3.60254l-3.48535-9.37305a96.7511,96.7511,0,0,1,13.95166-4.01953c13.48681-2.80811,24.13916-5.02637,32.604,2.41162a26.82159,26.82159,0,0,1,8.74512,16.9917,26.34356,26.34356,0,0,1,.01367,4.6167c-1.707,26.51757-5.01367,34.89892-6.10058,37.65332C132.60645,90.63574,132.14941,91.6748,131.99023,92.0332Z"/><path d="M97.43457,92.0332l-9.13574-4.0664c.13721-.30811.5293-1.20117.98291-2.34668,2.53125-6.41407,4.356-18.063,5.42139-34.61817a17.009,17.009,0,0,0,.01318-3.00537l9.95264-.96875a26.306,26.306,0,0,1,.01367,4.61328c-1.707,26.51953-5.01416,34.90088-6.10108,37.65528C98.05176,90.63477,97.59424,91.67432,97.43457,92.0332Z"/><rect x="90.5" y="14" width="43" height="6"/></svg>