<svg xmlns="http://www.w3.org/2000/svg" viewBox="0 0 200 200" id="eg" data-name="eg"><title>eg</title><path d="M131.99023,92.0332l-9.13671-4.0664c.13769-.3086.53027-1.20215.98437-2.34815,2.53027-6.4126,4.35547-18.06152,5.4209-34.6167a16.91289,16.91289,0,0,0,.01269-3.00537,16.90238,16.90238,0,0,0-5.3916-10.44873c-4.50488-3.95849-11.3164-2.76806-23.96582-.13476a86.69469,86.69469,0,0,0-12.50488,3.60254l-3.48535-9.37305a96.7511,96.7511,0,0,1,13.95166-4.01953c13.48681-2.80811,24.13916-5.02637,32.604,2.41162a26.82159,26.82159,0,0,1,8.74512,16.9917,26.34356,26.34356,0,0,1,.01367,4.6167c-1.707,26.51757-5.01367,34.89892-6.10058,37.65332C132.60645,90.63574,132.14941,91.6748,131.99023,92.0332Z"/><path d="M97.43457,92.0332l-9.13574-4.0664c.13721-.30811.5293-1.20117.98291-2.34668,2.53125-6.41407,4.356-18.063,5.42139-34.61817a17.009,17.009,0,0,0,.01318-3.00537l9.95264-.96875a26.306,26.306,0,0,1,.01367,4.61328c-1.707,26.51953-5.01416,34.90088-6.10108,37.65528C98.05176,90.63477,97.59424,91.67432,97.43457,92.0332Z"/><path d="M139.23633,171.84961a44.6835,44.6835,0,0,1-14.88672-6.69238,34.96575,34.96575,0,0,1-10.02148-10.58594l8.57617-5.14258a25.0312,25.0312,0,0,0,7.19531,7.54688,35.19669,35.19669,0,0,0,11.57422,5.1748Z"/><path d="m 111.39258,105.17383 c -16.085551,1.28828 -28.761721,10.80664 -28.761721,10.80664 l 5.830079,8.125 c 0,0 19.685492,-13.37054 36.455082,-7.39844 8.42889,3.00176 11.08477,7.85368 11.46093,13.98047 0.37617,6.12679 -2.46568,13.66222 -7.16797,19.2832 C 113.445,168.81459 90.290782,169.41479 80.25,164.94141 l -4.068359,9.13476 c 15.092064,6.72384 42.010309,4.64848 60.697269,-17.68945 6.15838,-7.36157 10.06026,-16.86716 9.48047,-26.31055 -0.5798,-9.44339 -6.57922,-18.69051 -18.0879,-22.78906 -5.77638,-2.05713 -11.51705,-2.54271 -16.8789,-2.11328 z"/></svg>