<svg xmlns="http://www.w3.org/2000/svg" viewBox="0 0 200 200" id="eh" data-name="eh"><title>eh</title><path d="M131.99023,92.0332l-9.13671-4.0664c.13769-.3086.53027-1.20215.98437-2.34815,2.53027-6.4126,4.35547-18.06152,5.4209-34.6167a16.91289,16.91289,0,0,0,.01269-3.00537,16.90238,16.90238,0,0,0-5.3916-10.44873c-4.50488-3.95849-11.3164-2.76806-23.96582-.13476a86.69469,86.69469,0,0,0-12.50488,3.60254l-3.48535-9.37305a96.7511,96.7511,0,0,1,13.95166-4.01953c13.48681-2.80811,24.13916-5.02637,32.604,2.41162a26.82159,26.82159,0,0,1,8.74512,16.9917,26.34356,26.34356,0,0,1,.01367,4.6167c-1.707,26.51757-5.01367,34.89892-6.10058,37.65332C132.60645,90.63574,132.14941,91.6748,131.99023,92.0332Z"/><path d="M97.43457,92.0332l-9.13574-4.0664c.13721-.30811.5293-1.20117.98291-2.34668,2.53125-6.41407,4.356-18.063,5.42139-34.61817a17.009,17.009,0,0,0,.01318-3.00537l9.95264-.96875a26.306,26.306,0,0,1,.01367,4.61328c-1.707,26.51953-5.01416,34.90088-6.10108,37.65528C98.05176,90.63477,97.59424,91.67432,97.43457,92.0332Z"/><path d="M127.22559,172.04785l-9.123-4.0957c10.61621-23.64453,15.47363-38.68848,8.88379-45.61133-3.7168-3.90625-11.834-4.55566-21.71289-1.73633-8.73194,2.49024-12.47217,9.86524-14.07422,15.70508-.63867,3.96484-1.23584,8.38867-1.24414,8.44824L80,144.07227a42.994,42.994,0,0,1,1.37158-9.63184c.23487-1.44336.47608-2.833.70166-3.96875,1.39649-7.02637,2.50342-14.10352,3.29-21.03516l9.93652,1.127q-.21751,1.916-.46582,3.84375a29.15692,29.15692,0,0,1,7.69727-3.41993c13.72461-3.91308,25.27637-2.2871,31.69922,4.459C145.81738,127.62109,138.28125,147.42383,127.22559,172.04785Z"/></svg>