<svg data-name="Balamqiloli itik" xmlns="http://www.w3.org/2000/svg" viewBox="0 0 200 200"><title>f</title><path d="M92.20459,169.73047c-.79346-1.53418-1.55908-3.09082-2.2749-4.626a128.48063,128.48063,0,0,1-8.6792-25.207l9.74023-2.26367a118.49776,118.49776,0,0,0,8.001,23.24316c.65918,1.41309,1.36377,2.84473,2.09521,4.25782Z"/><path d="M135.88184,175c-6.417.001-10.35547-4.62207-12.043-6.60254-3.01953-3.53223-4.50879-8.90234-5.12989-11.80371-2-.0918-3.95214-.1582-5.916-.16211-3.92774.002-7.833.124-11.60645.39551-2.624.1875-5.26416.31738-8.05908.45312-1.86914.0918-3.76416.18457-5.67236.29688l-2.11963.124c-3.29492.19238-6.70215.39063-9.92236.65821l-.82618-9.9668c3.34229-.27637,6.812-.47852,10.167-.67383l2.11035-.124c1.94336-.11426,3.87256-.209,5.7749-.30176,2.73682-.13379,5.32178-.26074,7.83154-.44043,4.01856-.28809,8.18067-.41016,12.34278-.4209,1.62011.00293,3.2373.0459,4.83984.1084-.17969-3.39746-.21875-6.81543-.13086-10.59863.23535-10.0752,3.03223-26.127,3.15137-26.80469l9.84961,1.72656c-.02735.15918-2.78614,15.99121-3.00293,25.31055-.09278,3.95117-.042,7.38476.1748,10.85547a69.00526,69.00526,0,0,1,10.583,1.42675c2.10449.46583,7.71582,1.70508,10.41113,6.77149,3.15821,5.93652-.32715,12.10547-.73535,12.78906A14.19563,14.19563,0,0,1,136.00488,175Zm-6.69825-17.82617a14.38822,14.38822,0,0,0,2.26172,4.73144c1.39942,1.64258,2.76758,3.124,4.46875,3.09473a4.3173,4.3173,0,0,0,3.44824-2.10059c.34961-.62011.89844-2.22363.499-2.97461-.24121-.45312-1.08789-1.11718-3.749-1.70605A54.76087,54.76087,0,0,0,129.18359,157.17383Z"/><path d="M137.167,91.81934A40.06887,40.06887,0,0,1,123.42676,85.021a33.99056,33.99056,0,0,1-9.14649-10.6294l8.78125-4.7832a24.06438,24.06438,0,0,0,6.48633,7.50488A29.975,29.975,0,0,0,139.833,82.18066Z"/><path d="M98.916,94.98242a126.83192,126.83192,0,0,1-14.49122-.84717l1.1504-9.93359c25.82128,2.99219,41.38671-2.76514,43.77636-7.5957.26074-.52735,1.46875-3.26612-.2959-5.56592-4.124-5.374-9.17578-10.39746-18.14062-10.79-.75.01025-4.76172.081-5.92871.10156l-.44141.06446-1.10058-7.5459-.94043-2.06055.59961-.27393-.002-.01513.05078-.00733L107.749,48.415c10.56836-5.8501,14.64356-9.53369,16.1709-11.29541-6.37109-2.35352-26.90722-2.47119-34.8291-1.79834l-.84766-9.96387c1.896-.16064,11.59375-.59717,21.1045-.18213,15.55371.68262,22.751,3.07959,24.84179,8.27295,2.23243,5.54688-1.74609,11.335-13.17578,18.71729,7.43164,2.77,12.33985,8.04834,15.97559,12.78662a15.23928,15.23928,0,0,1,1.32519,16.08838C133.40039,90.97607,116.6875,94.98193,98.916,94.98242Zm26.43945-57.10888Z"/></svg>