<svg id="Galilqiloli" xmlns="http://www.w3.org/2000/svg" viewBox="0 0 200 200"><title>00128-g</title><path d="m 145.52051,145.27637 a 50.17136,50.17136 0 0 1 -17.8916,-9.89844 47.523,47.523 0 0 1 -11.69629,-15.19043 l 8.99218,-4.375 a 37.56731,37.56731 0 0 0 9.25293,12.00781 40.104,40.104 0 0 0 14.30176,7.90332 z" />
<path d="M 120.39844,51.056642 C 99.07097,50.75765 81.302734,65.992189 81.302734,65.992189 l 6.369141,7.710937 c 0,0 23.662815,-18.701289 44.091795,-10.326172 10.2626,4.207273 14.10785,11.700605 14.60352,20.994141 0.49567,9.293535 -3.16268,20.165605 -9.02344,28.230465 -19.34157,26.61549 -46.988813,27.3542 -59.355469,21.01172 l -4.564453,8.89844 c 17.741528,9.09908 50.080412,6.14522 72.009762,-24.03125 7.14989,-9.8388 11.56947,-22.463982 10.91993,-34.642578 -0.64955,-12.178596 -7.17308,-24.130409 -20.79493,-29.714844 -5.12622,-2.101561 -10.23843,-2.997408 -15.16015,-3.066406 z" /></svg>