<svg xmlns="http://www.w3.org/2000/svg" viewBox="0 0 200 200" id="gac" data-name="gac"><title>gac</title><path d="M139.2373,91.84961a45.29127,45.29127,0,0,1-14.88769-6.6919,34.97607,34.97607,0,0,1-10.02148-10.58593l8.57617-5.14356a25.04669,25.04669,0,0,0,7.19531,7.54834,35.206,35.206,0,0,0,11.57324,5.17383Z"/><path d="m 111.06055,24.042969 c -16.085554,1.288282 -28.759769,10.80664 -28.759769,10.80664 l 5.828125,8.125 c 0,0 19.687444,-13.370547 36.457034,-7.398437 8.42889,3.001756 11.08477,7.853675 11.46094,13.980469 0.37616,6.126793 -2.46569,13.662214 -7.16797,19.283203 C 113.11492,87.683735 89.960703,88.28393 79.919922,83.810547 l -4.070313,9.134765 c 15.092065,6.723838 42.012271,4.648478 60.699221,-17.689453 6.15838,-7.361572 10.05831,-16.869108 9.47851,-26.3125 -0.57979,-9.443392 -6.57921,-18.690511 -18.08789,-22.789062 -5.77638,-2.05713 -11.51705,-2.540756 -16.8789,-2.111328 z"/><path d="M85.00195,174.89844l-2.0039-9.79688a44.21139,44.21139,0,0,0,7.72168-2.31054,18.19289,18.19289,0,0,1-2.59082-3.79c-.709-1.26563-2.7837-4.97364-.86084-11.59961.93506-3.28223,4.43164-9.01758,11.55957-9.55176,7.84814-.60059,14.186,3.81055,15.0708,10.47656a16.02305,16.02305,0,0,1-2.13867,10.04883q.36181-.04834.73535-.10547c5.45019-.81348,10.85254-4.57519,14.45215-10.06348,3.67089-5.59667,4.92968-11.96875,3.4541-17.48144-1.749-6.53613-7.82129-14.17969-17.01856-15.51465-7.29883-1.05664-13.36914,2.20606-15.63916,3.66016L92.3501,110.4502a33.28687,33.28687,0,0,1,22.47021-5.13672c13.75,1.99707,22.585,12.90234,25.24121,22.82519,2.21192,8.26172.4795,17.5752-4.75293,25.55176-5.21386,7.9502-12.99121,13.22363-21.335,14.46973a39.77987,39.77987,0,0,1-12.374.291A50.21526,50.21526,0,0,1,85.00195,174.89844Zm15.1958-27.10059c-.207,0-.41357.00781-.61816.02344a3.21864,3.21864,0,0,0-2.71094,2.37695c-.75342,2.59766-.2539,3.49024-.04052,3.8711.07324.13086.13574.24511.18554.34179a6.93027,6.93027,0,0,0,2.76856,2.97852c2.97656-2.63477,4.50976-5.44043,4.20312-7.748C103.82031,148.39844,102.01172,147.79785,100.19775,147.79785Z"/></svg>