<svg xmlns="http://www.w3.org/2000/svg" viewBox="0 0 200 200" id="gax" data-name="gax"><title>gax</title><path d="M110.4375,175.01758a31.04036,31.04036,0,0,1-18.70215-6.249,25.28544,25.28544,0,0,1-5.646-5.81347c-6.44092-9.25781-6.45069-22.54785-3.603-31.61133,2.22363-7.07812,6.18408-11.98828,11.15185-13.8252,6.96192-2.56835,15.98194.93848,20.98389,8.15723,5.71094,8.23633,3.09375,17.65723,2.1084,21.2041a38.026,38.026,0,0,1-11.10742,17.541,19.05694,19.05694,0,0,0,13.06836-1.35156c5.31543-2.87305,11.457-10.9043,10.52734-32.85547a54.88459,54.88459,0,0,0-4.01953-18.33692l9.26855-3.7539a64.80881,64.80881,0,0,1,4.74121,21.665c.92286,21.77148-4.38085,35.92773-15.76367,42.07812A27.38885,27.38885,0,0,1,110.4375,175.01758ZM98.50439,126.67285a4.06063,4.06063,0,0,0-1.40136.22559c-1.91016.707-3.85645,3.55859-5.07666,7.44336-2.11182,6.72168-2.00977,16.748,2.272,22.90234a14.77792,14.77792,0,0,0,1.76709,2.0918c3.06934-2.21192,8.915-7.49805,11.02051-15.09864.71191-2.56152,2.35644-8.48242-.68262-12.86523C104.28418,128.31445,100.92676,126.67285,98.50439,126.67285Z"/><path d="M101.9834,95c-11.56885,0-21.8418-3.0918-25.77783-7.811l7.67871-6.40527c1.25732,1.50586,8.31543,4.40088,19.00342,4.2085,14.03613-.23,29.47753-7.67969,31.832-21.47315a26.01109,26.01109,0,0,0-9.45118-24.11181c-4.74316-3.73682-12.57421-5.16651-22.05175-4.01807-4.292.519-11.48926,4.0127-13.90039,5.31494l-4.75782-8.79541c1.05567-.57178,10.51465-5.60742,17.457-6.44726,8.58691-1.03711,20.665-.82373,29.4414,6.09082a35.78811,35.78811,0,0,1,13.12012,33.64941c-3.27149,19.16357-23.36621,29.4917-41.52539,29.78955C102.69531,94.99707,102.33789,95,101.9834,95Z"/><path d="M139.2373,91.84961a45.29127,45.29127,0,0,1-14.88769-6.6919,34.97607,34.97607,0,0,1-10.02148-10.58593l8.57617-5.14356a25.04669,25.04669,0,0,0,7.19531,7.54834,35.206,35.206,0,0,0,11.57324,5.17383Z"/></svg>