<svg xmlns="http://www.w3.org/2000/svg" viewBox="0 0 200 200" id="ge!g" data-name="ge!g"><title>ge!g</title><path d="M139.2373,91.84961a45.29127,45.29127,0,0,1-14.88769-6.6919,34.97607,34.97607,0,0,1-10.02148-10.58593l8.57617-5.14356a25.04669,25.04669,0,0,0,7.19531,7.54834,35.206,35.206,0,0,0,11.57324,5.17383Z"/><path d="m 111.06055,24.042969 c -16.085554,1.288282 -28.759769,10.80664 -28.759769,10.80664 l 5.828125,8.125 c 0,0 19.687444,-13.370547 36.457034,-7.398437 8.42889,3.001756 11.08477,7.853675 11.46094,13.980469 0.37616,6.126793 -2.46569,13.662214 -7.16797,19.283203 C 113.11492,87.683735 89.960703,88.28393 79.919922,83.810547 l -4.070313,9.134765 c 15.092065,6.723838 42.012271,4.648478 60.699221,-17.689453 6.15838,-7.361572 10.05831,-16.869108 9.47851,-26.3125 -0.57979,-9.443392 -6.57921,-18.690511 -18.08789,-22.789062 -5.77638,-2.05713 -11.51705,-2.540756 -16.8789,-2.111328 z"/><path d="M95.22656,56.23193A35.70909,35.70909,0,0,1,83.0835,50.46729,29.078,29.078,0,0,1,75.02,41.48242l5.2168-2.96484A23.11436,23.11436,0,0,0,86.65723,45.648a29.75223,29.75223,0,0,0,10.11621,4.78711Z"/><path d="M81.59863,62.89893a35.717,35.717,0,0,1-12.144-5.76465,29.0655,29.0655,0,0,1-8.063-8.98584l5.2168-2.96387a23.10689,23.10689,0,0,0,6.42041,7.13037,29.71958,29.71958,0,0,0,10.11572,4.78613Z"/><rect x="90.5" y="14" width="43" height="6"/><path d="M139.23633,171.84961a44.6835,44.6835,0,0,1-14.88672-6.69238,34.96575,34.96575,0,0,1-10.02148-10.58594l8.57617-5.14258a25.0312,25.0312,0,0,0,7.19531,7.54688,35.19669,35.19669,0,0,0,11.57422,5.1748Z"/><path d="m 111.39258,105.17383 c -16.085551,1.28828 -28.761721,10.80664 -28.761721,10.80664 l 5.830079,8.125 c 0,0 19.685492,-13.37054 36.455082,-7.39844 8.42889,3.00176 11.08477,7.85368 11.46093,13.98047 0.37617,6.12679 -2.46568,13.66222 -7.16797,19.2832 C 113.445,168.81459 90.290782,169.41479 80.25,164.94141 l -4.068359,9.13476 c 15.092064,6.72384 42.010309,4.64848 60.697269,-17.68945 6.15838,-7.36157 10.06026,-16.86716 9.48047,-26.31055 -0.5798,-9.44339 -6.57922,-18.69051 -18.0879,-22.78906 -5.77638,-2.05713 -11.51705,-2.54271 -16.8789,-2.11328 z"/></svg>