<svg xmlns="http://www.w3.org/2000/svg" viewBox="0 0 200 200" id="ge!p" data-name="ge!p"><title>ge!p</title><path d="M98.918,174.98242a126.87494,126.87494,0,0,1-14.49317-.84765l1.1504-9.9336c25.82128,2.98828,41.38671-2.76367,43.77636-7.5957.26074-.52734,1.46973-3.26465-.2959-5.56543-4.124-5.374-9.17578-10.39649-18.13867-10.79-.75488.01074-4.77148.08105-5.93359.10156l-.44531.06446-1.08887-7.53321-.94629-2.07324.60742-.27637-.00195-.01367.04687-.00683L107.749,128.415c10.56934-5.85059,14.64453-9.53418,16.1709-11.2959-6.37012-2.35547-26.90722-2.47266-34.82861-1.79687l-.84863-9.96485c1.89355-.16015,11.585-.59765,21.105-.18262,15.55371.68262,22.751,3.08008,24.84179,8.27344,2.23243,5.54688-1.74707,11.335-13.17578,18.7168,7.42969,2.77051,12.33887,8.04883,15.97559,12.78711a15.2375,15.2375,0,0,1,1.32422,16.08984C133.40039,170.97559,116.68848,174.98145,98.918,174.98242Zm26.4375-57.10937v0Z"/><rect x="90.5" y="14" width="43" height="6"/><path d="M101.9834,95c-11.56885,0-21.8418-3.0918-25.77783-7.811l7.67871-6.40527c1.25732,1.50586,8.31543,4.40088,19.00342,4.2085,14.03613-.23,29.47753-7.67969,31.832-21.47315a26.01109,26.01109,0,0,0-9.45118-24.11181c-4.74316-3.73682-12.57421-5.16651-22.05175-4.01807-4.292.519-11.48926,4.0127-13.90039,5.31494l-4.75782-8.79541c1.05567-.57178,10.51465-5.60742,17.457-6.44726,8.58691-1.03711,20.665-.82373,29.4414,6.09082a35.78811,35.78811,0,0,1,13.12012,33.64941c-3.27149,19.16357-23.36621,29.4917-41.52539,29.78955C102.69531,94.99707,102.33789,95,101.9834,95Z"/><path d="M139.2373,91.84961a45.29127,45.29127,0,0,1-14.88769-6.6919,34.97607,34.97607,0,0,1-10.02148-10.58593l8.57617-5.14356a25.04669,25.04669,0,0,0,7.19531,7.54834,35.206,35.206,0,0,0,11.57324,5.17383Z"/><path d="M95.22656,56.23193A35.70909,35.70909,0,0,1,83.0835,50.46729,29.078,29.078,0,0,1,75.02,41.48242l5.2168-2.96484A23.11436,23.11436,0,0,0,86.65723,45.648a29.75223,29.75223,0,0,0,10.11621,4.78711Z"/><path d="M81.59863,62.89893a35.717,35.717,0,0,1-12.144-5.76465,29.0655,29.0655,0,0,1-8.063-8.98584l5.2168-2.96387a23.10689,23.10689,0,0,0,6.42041,7.13037,29.71958,29.71958,0,0,0,10.11572,4.78613Z"/></svg>