<svg xmlns="http://www.w3.org/2000/svg" viewBox="0 0 200 200" id="ge!s" data-name="ge!s"><title>ge!s</title><path d="M141.55566,173.625c-2.91308-2.76855-18.17578-12.75586-39.57031-10.99805-13.32422,1.0918-21.57129,7.19629-23.78125,9.041l-6.76758-7.34668.52881-.53711,52.92334-57.18066,7.33985,6.793L95.14209,153.46484a59.05073,59.05073,0,0,1,6.02686-.80468c24.79882-2.02442,42.53613,9.21191,47.27539,13.71484Z"/><rect x="90.5" y="14" width="43" height="6"/><path d="M101.9834,95c-11.56885,0-21.8418-3.0918-25.77783-7.811l7.67871-6.40527c1.25732,1.50586,8.31543,4.40088,19.00342,4.2085,14.03613-.23,29.47753-7.67969,31.832-21.47315a26.01109,26.01109,0,0,0-9.45118-24.11181c-4.74316-3.73682-12.57421-5.16651-22.05175-4.01807-4.292.519-11.48926,4.0127-13.90039,5.31494l-4.75782-8.79541c1.05567-.57178,10.51465-5.60742,17.457-6.44726,8.58691-1.03711,20.665-.82373,29.4414,6.09082a35.78811,35.78811,0,0,1,13.12012,33.64941c-3.27149,19.16357-23.36621,29.4917-41.52539,29.78955C102.69531,94.99707,102.33789,95,101.9834,95Z"/><path d="M139.2373,91.84961a45.29127,45.29127,0,0,1-14.88769-6.6919,34.97607,34.97607,0,0,1-10.02148-10.58593l8.57617-5.14356a25.04669,25.04669,0,0,0,7.19531,7.54834,35.206,35.206,0,0,0,11.57324,5.17383Z"/><path d="M95.22656,56.23193A35.70909,35.70909,0,0,1,83.0835,50.46729,29.078,29.078,0,0,1,75.02,41.48242l5.2168-2.96484A23.11436,23.11436,0,0,0,86.65723,45.648a29.75223,29.75223,0,0,0,10.11621,4.78711Z"/><path d="M81.59863,62.89893a35.717,35.717,0,0,1-12.144-5.76465,29.0655,29.0655,0,0,1-8.063-8.98584l5.2168-2.96387a23.10689,23.10689,0,0,0,6.42041,7.13037,29.71958,29.71958,0,0,0,10.11572,4.78613Z"/></svg>