<svg xmlns="http://www.w3.org/2000/svg" viewBox="0 0 200 200" id="gi!w" data-name="gi!w"><title>gi!w</title><path d="M139.2373,91.84961a45.29127,45.29127,0,0,1-14.88769-6.6919,34.97607,34.97607,0,0,1-10.02148-10.58593l8.57617-5.14356a25.04669,25.04669,0,0,0,7.19531,7.54834,35.206,35.206,0,0,0,11.57324,5.17383Z"/><path d="m 111.06055,24.042969 c -16.085554,1.288282 -28.759769,10.80664 -28.759769,10.80664 l 5.828125,8.125 c 0,0 19.687444,-13.370547 36.457034,-7.398437 8.42889,3.001756 11.08477,7.853675 11.46094,13.980469 0.37616,6.126793 -2.46569,13.662214 -7.16797,19.283203 C 113.11492,87.683735 89.960703,88.28393 79.919922,83.810547 l -4.070313,9.134765 c 15.092065,6.723838 42.012271,4.648478 60.699221,-17.689453 6.15838,-7.361572 10.05831,-16.869108 9.47851,-26.3125 -0.57979,-9.443392 -6.57921,-18.690511 -18.08789,-22.789062 -5.77638,-2.05713 -11.51705,-2.540756 -16.8789,-2.111328 z"/><path d="M88.23584,60.90088a48.10489,48.10489,0,0,1-16.16016-7.60547,38.36221,38.36221,0,0,1-10.6792-11.80469l5.207-2.98144a32.40343,32.40343,0,0,0,9.03125,9.95556,42.05833,42.05833,0,0,0,14.12939,6.63428Z"/><rect x="90.5" y="14" width="43" height="6"/><path d="M76.06787,174.88477l-2.13574-9.76954c11.78418-2.57617,28.98877-8.56152,44.02881-22.44043C128.35645,133.084,135.14063,122.792,138.29,115H75V105h75.98535l-1.06543,5.88965c-1.59179,8.80664-9.1416,24.33887-25.17773,39.13476C108.05469,165.42383,89.062,172.043,76.06787,174.88477Z"/></svg>