<svg xmlns="http://www.w3.org/2000/svg" viewBox="0 0 200 200" id="gik" data-name="gik"><title>gik</title><path d="M139.2373,91.84961a45.29127,45.29127,0,0,1-14.88769-6.6919,34.97607,34.97607,0,0,1-10.02148-10.58593l8.57617-5.14356a25.04669,25.04669,0,0,0,7.19531,7.54834,35.206,35.206,0,0,0,11.57324,5.17383Z"/><path d="m 111.06055,24.042969 c -16.085554,1.288282 -28.759769,10.80664 -28.759769,10.80664 l 5.828125,8.125 c 0,0 19.687444,-13.370547 36.457034,-7.398437 8.42889,3.001756 11.08477,7.853675 11.46094,13.980469 0.37616,6.126793 -2.46569,13.662214 -7.16797,19.283203 C 113.11492,87.683735 89.960703,88.28393 79.919922,83.810547 l -4.070313,9.134765 c 15.092065,6.723838 42.012271,4.648478 60.699221,-17.689453 6.15838,-7.361572 10.05831,-16.869108 9.47851,-26.3125 -0.57979,-9.443392 -6.57921,-18.690511 -18.08789,-22.789062 -5.77638,-2.05713 -11.51705,-2.540756 -16.8789,-2.111328 z"/><path d="M88.23584,60.90088a48.10489,48.10489,0,0,1-16.16016-7.60547,38.36221,38.36221,0,0,1-10.6792-11.80469l5.207-2.98144a32.40343,32.40343,0,0,0,9.03125,9.95556,42.05833,42.05833,0,0,0,14.12939,6.63428Z"/><path d="M 111.39258 105.17383 C 95.307029 106.46211 82.630859 115.98047 82.630859 115.98047 L 88.460938 124.10547 C 88.460938 124.10547 108.14643 110.73493 124.91602 116.70703 C 133.34491 119.70879 136.00079 124.56071 136.37695 130.6875 C 136.75312 136.81429 133.91127 144.34972 129.20898 149.9707 C 113.445 168.81459 90.290782 169.41479 80.25 164.94141 L 76.181641 174.07617 C 91.273705 180.80001 118.19195 178.72465 136.87891 156.38672 C 143.03729 149.02515 146.93917 139.51956 146.35938 130.07617 C 145.77958 120.63278 139.78016 111.38566 128.27148 107.28711 C 122.4951 105.22998 116.75443 104.7444 111.39258 105.17383 z "/></svg>