<svg xmlns="http://www.w3.org/2000/svg" viewBox="0 0 200 200" id="goz" data-name="goz"><title>goz</title><path d="M139.2373,91.84961a45.29127,45.29127,0,0,1-14.88769-6.6919,34.97607,34.97607,0,0,1-10.02148-10.58593l8.57617-5.14356a25.04669,25.04669,0,0,0,7.19531,7.54834,35.206,35.206,0,0,0,11.57324,5.17383Z"/><path d="m 111.06055,24.042969 c -16.085554,1.288282 -28.759769,10.80664 -28.759769,10.80664 l 5.828125,8.125 c 0,0 19.687444,-13.370547 36.457034,-7.398437 8.42889,3.001756 11.08477,7.853675 11.46094,13.980469 0.37616,6.126793 -2.46569,13.662214 -7.16797,19.283203 C 113.11492,87.683735 89.960703,88.28393 79.919922,83.810547 l -4.070313,9.134765 c 15.092065,6.723838 42.012271,4.648478 60.699221,-17.689453 6.15838,-7.361572 10.05831,-16.869108 9.47851,-26.3125 -0.57979,-9.443392 -6.57921,-18.690511 -18.08789,-22.789062 -5.77638,-2.05713 -11.51705,-2.540756 -16.8789,-2.111328 z"/><path d="M75,65A14,14,0,1,1,89,51,14.01572,14.01572,0,0,1,75,65Zm0-22a8,8,0,1,0,8,8A8.00917,8.00917,0,0,0,75,43Z"/><path d="M141.55566,173.625c-2.91308-2.76855-18.17578-12.75586-39.57031-10.99805-13.32422,1.0918-21.57129,7.19629-23.78125,9.041l-6.76758-7.34668.84815-.86133.30322-.22656C104.52246,139.34961,117.874,123.37891,122.02344,115H75V105h58.55859v5c0,9.78613-11.10742,24.56348-31.77832,42.6123,24.48731-1.80371,41.96289,9.2959,46.66407,13.7627Z"/></svg>