<svg data-name="Weyakqiloli 3" xmlns="http://www.w3.org/2000/svg" viewBox="0 0 200 200"><title>g</title><rect x="83.34277" y="37" width="60" height="6"/><path d="M100.1582,150c-13.94091,0-26.21191-4.43848-30.79931-11.21875l8.28222-5.60352c1.96192,2.9004,10.84668,7.06446,23.64893,6.81055,17.46582-.35254,36.7373-12.19043,39.77539-34.13379,1.98145-14.30761-2.94629-30-12.26172-39.04883-7.57129-7.35351-18.91992-7.4414-27.10351-6.22216-5.25342.7832-14.28711,6.19873-17.0376,8.03418l-5.55078-8.31836c1.27588-.85108,12.70654-8.353,21.11328-9.60645,14.938-2.22656,27.231.86377,35.54541,8.93994,11.668,11.3335,17.63476,30.01514,15.20117,47.59278-3.80762,27.49414-27.77344,42.32324-49.47949,42.76074C101.04688,149.99512,100.60107,150,100.1582,150Z"/><path d="M145.52051,145.27637a50.17136,50.17136,0,0,1-17.8916-9.89844,47.523,47.523,0,0,1-11.69629-15.19043l8.99218-4.375a37.56731,37.56731,0,0,0,9.25293,12.00781,40.104,40.104,0,0,0,14.30176,7.90332Z"/><path d="M46.99238,101c-.25928,0-.51855-.00293-.7793-.00879l.13282-5.998A25.81867,25.81867,0,0,0,57.55732,92.792a28.07891,28.07891,0,0,0,7.48145-5.0664,15.1351,15.1351,0,0,1-2.28223-1.75342c-1.31445-1.22852-4.80566-4.4917-4.70508-9.54785a12.09537,12.09537,0,0,1,8.76172-11.02539c4.03711-1.08448,9.42481-.03077,11.44434,3.61328,1.32422,2.38916,1.36132,5.648.1084,9.42431a30.73317,30.73317,0,0,1-4.25684,8.02442l-.26758,4.0415a19.00229,19.00229,0,0,1-2.72656-.38183,34.87325,34.87325,0,0,1-11.08887,8.14013A31.4444,31.4444,0,0,1,46.99238,101ZM69.93525,70.99707A5.82921,5.82921,0,0,0,64.05049,76.544c-.04786,2.38037,1.80761,4.11376,2.80371,5.04541a9.61569,9.61569,0,0,0,2.26172,1.55615,24.71961,24.71961,0,0,0,3.55566-6.59815c.80078-2.415.70019-3.97314.33789-4.62646C72.77021,71.48926,71.43427,70.99707,69.93525,70.99707Z"/></svg>