<svg xmlns="http://www.w3.org/2000/svg" viewBox="0 0 200 200" id="gu!" data-name="gu!"><title>gu!</title><path d="m 145.52051,145.27637 a 50.17136,50.17136 0 0 1 -17.8916,-9.89844 47.523,47.523 0 0 1 -11.69629,-15.19043 l 8.99218,-4.375 a 37.56731,37.56731 0 0 0 9.25293,12.00781 40.104,40.104 0 0 0 14.30176,7.90332 z"/><path d="M 120.39844,51.056642 C 99.07097,50.75765 81.302734,65.992189 81.302734,65.992189 l 6.369141,7.710937 c 0,0 23.662815,-18.701289 44.091795,-10.326172 10.2626,4.207273 14.10785,11.700605 14.60352,20.994141 0.49567,9.293535 -3.16268,20.165605 -9.02344,28.230465 -19.34157,26.61549 -46.988813,27.3542 -59.355469,21.01172 l -4.564453,8.89844 c 17.741528,9.09908 50.080412,6.14522 72.009762,-24.03125 7.14989,-9.8388 11.56947,-22.463982 10.91993,-34.642578 -0.64955,-12.178596 -7.17308,-24.130409 -20.79493,-29.714844 -5.12622,-2.101561 -10.23843,-2.997408 -15.16015,-3.066406 z"/><path d="M46.99238,101c-.25928,0-.51855-.00293-.7793-.00879l.13282-5.998A25.81867,25.81867,0,0,0,57.55732,92.792a28.07891,28.07891,0,0,0,7.48145-5.0664,15.1351,15.1351,0,0,1-2.28223-1.75342c-1.31445-1.22852-4.80566-4.4917-4.70508-9.54785a12.09537,12.09537,0,0,1,8.76172-11.02539c4.03711-1.08448,9.42481-.03077,11.44434,3.61328,1.32422,2.38916,1.36132,5.648.1084,9.42431a30.73317,30.73317,0,0,1-4.25684,8.02442l-.26758,4.0415a19.00229,19.00229,0,0,1-2.72656-.38183,34.87325,34.87325,0,0,1-11.08887,8.14013A31.4444,31.4444,0,0,1,46.99238,101ZM69.93525,70.99707A5.82921,5.82921,0,0,0,64.05049,76.544c-.04786,2.38037,1.80761,4.11376,2.80371,5.04541a9.61569,9.61569,0,0,0,2.26172,1.55615,24.71961,24.71961,0,0,0,3.55566-6.59815c.80078-2.415.70019-3.97314.33789-4.62646C72.77021,71.48926,71.43427,70.99707,69.93525,70.99707Z"/><rect x="83.34277" y="37" width="60" height="6"/></svg>