<svg xmlns="http://www.w3.org/2000/svg" viewBox="0 0 200 200" id="gu!kh" data-name="gu!kh"><title>gu!kh</title><path d="M139.2373,91.84961a45.29127,45.29127,0,0,1-14.88769-6.6919,34.97607,34.97607,0,0,1-10.02148-10.58593l8.57617-5.14356a25.04669,25.04669,0,0,0,7.19531,7.54834,35.206,35.206,0,0,0,11.57324,5.17383Z"/><path d="m 111.06055,24.042969 c -16.085554,1.288282 -28.759769,10.80664 -28.759769,10.80664 l 5.828125,8.125 c 0,0 19.687444,-13.370547 36.457034,-7.398437 8.42889,3.001756 11.08477,7.853675 11.46094,13.980469 0.37616,6.126793 -2.46569,13.662214 -7.16797,19.283203 C 113.11492,87.683735 89.960703,88.28393 79.919922,83.810547 l -4.070313,9.134765 c 15.092065,6.723838 42.012271,4.648478 60.699221,-17.689453 6.15838,-7.361572 10.05831,-16.869108 9.47851,-26.3125 -0.57979,-9.443392 -6.57921,-18.690511 -18.08789,-22.789062 -5.77638,-2.05713 -11.51705,-2.540756 -16.8789,-2.111328 z"/><path d="M63.54717,64c-.18946,0-.37891-.002-.56934-.00635l.08887-3.999a18.89639,18.89639,0,0,0,8.30859-1.63135,20.943,20.943,0,0,0,5.75244-3.91943,10.9594,10.9594,0,0,1-1.88525-1.41016c-.94629-.88428-3.45947-3.23389-3.38721-6.852a8.66358,8.66358,0,0,1,6.27637-7.896c2.88721-.77587,6.73193-.0332,8.166,2.55372.94335,1.70166.96582,4.03613.06542,6.75048a22.09,22.09,0,0,1-2.90576,5.56885l-.2124,3.14356a13.7993,13.7993,0,0,1-2.07715-.3003,25.40012,25.40012,0,0,1-8.147,6.00684A22.85223,22.85223,0,0,1,63.54717,64Zm16.835-22.00391a4.48166,4.48166,0,0,0-4.52783,4.26563c-.03663,1.834,1.41992,3.1958,2.11962,3.8501a7.35317,7.35317,0,0,0,1.87452,1.25586,18.68512,18.68512,0,0,0,2.71826-5.03711c.60742-1.832.51855-3.03614.23291-3.55176A3.19544,3.19544,0,0,0,80.38213,41.99609Z"/><rect x="90.5" y="14" width="43" height="6"/><path d="M124.833,172.0498l-9.1211-4.0996c10.624-23.64258,15.48536-38.68555,8.89161-45.6084-3.72071-3.90528-11.84571-4.55664-21.74024-1.73731-8.81787,2.5127-12.55078,10.08985-14.13086,15.96973-.623,3.89551-1.19433,8.125-1.20263,8.18457l-9.95508-.68652a42.93215,42.93215,0,0,1,1.373-9.63282c.23487-1.44336.47608-2.833.70215-3.96875,1.39893-7.03515,2.50684-14.1123,3.29248-21.03418l9.93653,1.127q-.21753,1.91748-.4668,3.84765a29.16583,29.16583,0,0,1,7.71094-3.42383c13.73144-3.91406,25.293-2.28906,31.7207,4.457C143.44141,127.62109,135.89844,147.4248,124.833,172.0498Z"/><path d="M141.96582,158.84961a89.67367,89.67367,0,0,1-20.90234-5.05566,73.17372,73.17372,0,0,1-8.47461-3.8379l4.71289-8.82031a62.98587,62.98587,0,0,0,7.3125,3.30957,79.64571,79.64571,0,0,0,18.56836,4.47852Z"/></svg>