<svg xmlns="http://www.w3.org/2000/svg" viewBox="0 0 200 200" id="gu!n" data-name="gu!n"><title>gu!n</title><path d="M80.44141,174.98047l-.88282-9.96094c26.21387-2.32129,38.71778-2.00586,48.38184-1.52637l4.90039.24317c-.083-5.55274-.14551-14.75586.10938-24.6211.16015-6.22168.792-13.93847,1.59277-23.708l.47363-5.80957,9.9668.80468-.47363,5.82032c-.78809,9.61425-1.41016,17.208-1.56348,23.15039-.39941,15.51758-.00391,29.33886,0,29.47656l.1582,5.4082-15.66015-.77636C118.11719,173.0166,106.02148,172.71484,80.44141,174.98047Z"/><rect x="90.5" y="14" width="43" height="6"/><path d="M101.9834,95c-11.56885,0-21.8418-3.0918-25.77783-7.811l7.67871-6.40527c1.25732,1.50586,8.31543,4.40088,19.00342,4.2085,14.03613-.23,29.47753-7.67969,31.832-21.47315a26.01109,26.01109,0,0,0-9.45118-24.11181c-4.74316-3.73682-12.57421-5.16651-22.05175-4.01807-4.292.519-11.48926,4.0127-13.90039,5.31494l-4.75782-8.79541c1.05567-.57178,10.51465-5.60742,17.457-6.44726,8.58691-1.03711,20.665-.82373,29.4414,6.09082a35.78811,35.78811,0,0,1,13.12012,33.64941c-3.27149,19.16357-23.36621,29.4917-41.52539,29.78955C102.69531,94.99707,102.33789,95,101.9834,95Z"/><path d="M139.2373,91.84961a45.29127,45.29127,0,0,1-14.88769-6.6919,34.97607,34.97607,0,0,1-10.02148-10.58593l8.57617-5.14356a25.04669,25.04669,0,0,0,7.19531,7.54834,35.206,35.206,0,0,0,11.57324,5.17383Z"/><path d="M63.54717,64c-.18946,0-.37891-.002-.56934-.00635l.08887-3.999a18.89639,18.89639,0,0,0,8.30859-1.63135,20.943,20.943,0,0,0,5.75244-3.91943,10.9594,10.9594,0,0,1-1.88525-1.41016c-.94629-.88428-3.45947-3.23389-3.38721-6.852a8.66358,8.66358,0,0,1,6.27637-7.896c2.88721-.77587,6.73193-.0332,8.166,2.55372.94335,1.70166.96582,4.03613.06542,6.75048a22.09,22.09,0,0,1-2.90576,5.56885l-.2124,3.14356a13.7993,13.7993,0,0,1-2.07715-.3003,25.40012,25.40012,0,0,1-8.147,6.00684A22.85223,22.85223,0,0,1,63.54717,64Zm16.835-22.00391a4.48166,4.48166,0,0,0-4.52783,4.26563c-.03663,1.834,1.41992,3.1958,2.11962,3.8501a7.35317,7.35317,0,0,0,1.87452,1.25586,18.68512,18.68512,0,0,0,2.71826-5.03711c.60742-1.832.51855-3.03614.23291-3.55176A3.19544,3.19544,0,0,0,80.38213,41.99609Z"/></svg>