<svg data-name="Tekolqiloli itik" xmlns="http://www.w3.org/2000/svg" viewBox="0 0 200 200"><title>h</title><path d="M116,173.50586a39.91736,39.91736,0,0,1-.31348-55.90723c.21192-.21679.42481-.42871.64063-.63867-10.20117.85352-23.57715,2.07324-40.82422,3.81738l-1.00586-9.94921c53.61523-5.4209,69.73633-5.8125,70.39648-5.82715l.21485,9.998c-.11621.00293-13.35352.4834-22.27735,9.59571a30.11273,30.11273,0,0,0-8.30957,23.251,30.79639,30.79639,0,0,0,8.60743,18.64844Z"/><path d="M127.22559,92.04785l-9.123-4.0957c10.61621-23.645,15.47363-38.688,8.88379-45.61084-3.71778-3.90723-11.835-4.55469-21.71289-1.73779-8.80811,2.5122-12.5376,10.08886-14.11621,15.96875-.62256,3.895-1.19385,8.12695-1.20215,8.18554L80,64.07227a42.95432,42.95432,0,0,1,1.37207-9.63233c.23438-1.44336.47559-2.833.70117-3.96826,1.396-7.02441,2.50293-14.10156,3.29-21.03564L95.2998,30.564q-.21751,1.91529-.46582,3.84229a29.15574,29.15574,0,0,1,7.69727-3.41895c13.72168-3.91552,25.27637-2.28857,31.69922,4.46C145.81738,47.62061,138.28125,67.42383,127.22559,92.04785Z"/><path d="M88.23584,93.90088a48.10489,48.10489,0,0,1-16.16016-7.60547,38.36221,38.36221,0,0,1-10.6792-11.80469l5.207-2.98144a32.40343,32.40343,0,0,0,9.03125,9.95556,42.05833,42.05833,0,0,0,14.12939,6.63428Z"/></svg>