<svg xmlns="http://www.w3.org/2000/svg" viewBox="0 0 200 200"><title>h</title><path d="M128.43555,146.53809l-9.51563-3.07618c11.92676-36.89648,17.25781-60.5542,9.21289-72.29492-5.78418-8.44043-17.9248-4.78662-22.876-2.82519C95.12646,72.35449,90.937,85.28809,89.208,94.918c-.64893,5.70849-1.22315,11.61523-1.23145,11.70117L78,106.12305a81.3755,81.3755,0,0,1,1.40381-13.48487c.26123-2.24853.53125-4.42285.78223-6.17724,1.52343-10.647,2.73046-21.36914,3.58837-31.86817l9.9668.81446q-.36987,4.52564-.82373,9.09912a27.909,27.909,0,0,1,8.65576-5.46143c14.958-5.92627,27.97168-3.50781,34.8086,6.46924C146.86133,80.80762,141.92773,104.79883,128.43555,146.53809Z"/><path d="M97.94971,138.50781a47.03145,47.03145,0,0,1-17.002-9.585,45.71421,45.71421,0,0,1-11.08642-14.665l5.41406-2.58593a39.74333,39.74333,0,0,0,9.64014,12.75,41.06994,41.06994,0,0,0,14.84863,8.36718Z"/><path d="M78.44824,149.84863a47.01659,47.01659,0,0,1-17.00244-9.584,45.7232,45.7232,0,0,1-11.08594-14.66406L55.773,123.0127a39.75886,39.75886,0,0,0,9.64062,12.751,41.03672,41.03672,0,0,0,14.84815,8.36621Z"/></svg>