<svg xmlns="http://www.w3.org/2000/svg" viewBox="0 0 200 200" id="he!tl" data-name="he!tl"><title>he!tl</title><path d="M93.11328,174.98828c-6.6748,0-13.0918-2.168-16.416-7.832-3.562-6.07617-3.145-15.82617.94726-22.19824a18.32593,18.32593,0,0,1,9.97852-7.45313l.17968-.0625c9.83106-3.3457,21.78321-.626,35.71094,8.084A77.46083,77.46083,0,0,0,137.291,115H75V105h72.94629v5c0,4.56152-3.29395,23.93164-16.209,41.19434a183.10189,183.10189,0,0,1,15.458,13.12207c.51074.47949.8711.82226,1.06739.99218l-6.5254,7.57618c-.25585-.21973-.72851-.66016-1.3916-1.28321a170.40013,170.40013,0,0,0-15.13379-12.79492A69.09243,69.09243,0,0,1,109.1416,171.001,34.75349,34.75349,0,0,1,93.11328,174.98828Zm3.19483-28.8916a16.239,16.239,0,0,0-5.25684.80371l-.19189.06543a8.45157,8.45157,0,0,0-4.8003,3.39551c-2.24219,3.49121-2.23681,9.1748-.73633,11.73535,2.59082,4.415,13.354,3.24414,19.00538.13965a59.25416,59.25416,0,0,0,12.41406-9.11426C107.61816,147.68164,100.9624,146.09668,96.30811,146.09668Z"/><rect x="90.5" y="14" width="43" height="6"/><path d="M127.22559,92.04785l-9.123-4.0957c10.61621-23.645,15.47363-38.688,8.88379-45.61084-3.71778-3.90723-11.835-4.55469-21.71289-1.73779-8.80811,2.5122-12.5376,10.08886-14.11621,15.96875-.62256,3.895-1.19385,8.12695-1.20215,8.18554L80,64.07227a42.95432,42.95432,0,0,1,1.37207-9.63233c.23438-1.44336.47559-2.833.70117-3.96826,1.396-7.02441,2.50293-14.10156,3.29-21.03564L95.2998,30.564q-.21751,1.91529-.46582,3.84229a29.15574,29.15574,0,0,1,7.69727-3.41895c13.72168-3.91552,25.27637-2.28857,31.69922,4.46C145.81738,47.62061,138.28125,67.42383,127.22559,92.04785Z"/><path d="M95.22656,89.23193A35.70909,35.70909,0,0,1,83.0835,83.46729,29.078,29.078,0,0,1,75.02,74.48242l5.2168-2.96484A23.11436,23.11436,0,0,0,86.65723,78.648a29.75223,29.75223,0,0,0,10.11621,4.78711Z"/><path d="M81.59863,95.89893a35.717,35.717,0,0,1-12.144-5.76465,29.0655,29.0655,0,0,1-8.063-8.98584l5.2168-2.96387a23.10689,23.10689,0,0,0,6.42041,7.13037,29.71958,29.71958,0,0,0,10.11572,4.78613Z"/></svg>