<svg xmlns="http://www.w3.org/2000/svg" viewBox="0 0 200 200" id="heg" data-name="heg"><title>heg</title><path d="M127.22559,92.04785l-9.123-4.0957c10.61621-23.645,15.47363-38.688,8.88379-45.61084-3.71778-3.90723-11.835-4.55469-21.71289-1.73779-8.80811,2.5122-12.5376,10.08886-14.11621,15.96875-.62256,3.895-1.19385,8.12695-1.20215,8.18554L80,64.07227a42.95432,42.95432,0,0,1,1.37207-9.63233c.23438-1.44336.47559-2.833.70117-3.96826,1.396-7.02441,2.50293-14.10156,3.29-21.03564L95.2998,30.564q-.21751,1.91529-.46582,3.84229a29.15574,29.15574,0,0,1,7.69727-3.41895c13.72168-3.91552,25.27637-2.28857,31.69922,4.46C145.81738,47.62061,138.28125,67.42383,127.22559,92.04785Z"/><path d="M95.22656,89.23193A35.70909,35.70909,0,0,1,83.0835,83.46729,29.078,29.078,0,0,1,75.02,74.48242l5.2168-2.96484A23.11436,23.11436,0,0,0,86.65723,78.648a29.75223,29.75223,0,0,0,10.11621,4.78711Z"/><path d="M81.59863,95.89893a35.717,35.717,0,0,1-12.144-5.76465,29.0655,29.0655,0,0,1-8.063-8.98584l5.2168-2.96387a23.10689,23.10689,0,0,0,6.42041,7.13037,29.71958,29.71958,0,0,0,10.11572,4.78613Z"/><path d="M139.23633,171.84961a44.6835,44.6835,0,0,1-14.88672-6.69238,34.96575,34.96575,0,0,1-10.02148-10.58594l8.57617-5.14258a25.0312,25.0312,0,0,0,7.19531,7.54688,35.19669,35.19669,0,0,0,11.57422,5.1748Z"/><path d="m 111.39258,105.17383 c -16.085551,1.28828 -28.761721,10.80664 -28.761721,10.80664 l 5.830079,8.125 c 0,0 19.685492,-13.37054 36.455082,-7.39844 8.42889,3.00176 11.08477,7.85368 11.46093,13.98047 0.37617,6.12679 -2.46568,13.66222 -7.16797,19.2832 C 113.445,168.81459 90.290782,169.41479 80.25,164.94141 l -4.068359,9.13476 c 15.092064,6.72384 42.010309,4.64848 60.697269,-17.68945 6.15838,-7.36157 10.06026,-16.86716 9.48047,-26.31055 -0.5798,-9.44339 -6.57922,-18.69051 -18.0879,-22.78906 -5.77638,-2.05713 -11.51705,-2.54271 -16.8789,-2.11328 z"/></svg>