<svg data-name="Mailqiloli itik" xmlns="http://www.w3.org/2000/svg" viewBox="0 0 200 200"><title>h</title><path d="M135.88184,175c-6.417.001-10.35547-4.62207-12.043-6.60254-3.01953-3.53223-4.50879-8.90234-5.12989-11.80371-2-.0918-3.95214-.1582-5.916-.16211-3.92774.002-7.833.124-11.60645.39551-2.624.1875-5.26416.31738-8.05908.45312-1.86914.0918-3.76416.18457-5.67236.29688l-2.11963.124c-3.29492.19238-6.70215.39063-9.92236.65821l-.82618-9.9668c3.34229-.27637,6.812-.47852,10.167-.67383l2.11035-.124c1.94336-.11426,3.87256-.209,5.7749-.30176,2.73682-.13379,5.32178-.26074,7.83154-.44043,4.01856-.28809,8.18067-.41016,12.34278-.4209,1.62011.00293,3.2373.0459,4.83984.1084-.17969-3.39746-.21875-6.81543-.13086-10.59863.23535-10.0752,3.03223-26.127,3.15137-26.80469l9.84961,1.72656c-.02735.15918-2.78614,15.99121-3.00293,25.31055-.09278,3.95117-.042,7.38476.1748,10.85547a69.00526,69.00526,0,0,1,10.583,1.42675c2.10449.46583,7.71582,1.70508,10.41113,6.77149,3.15821,5.93652-.32715,12.10547-.73535,12.78906A14.19563,14.19563,0,0,1,136.00488,175Zm-6.69825-17.82617a14.38822,14.38822,0,0,0,2.26172,4.73144c1.39942,1.64258,2.76758,3.124,4.46875,3.09473a4.3173,4.3173,0,0,0,3.44824-2.10059c.34961-.62011.89844-2.22363.499-2.97461-.24121-.45312-1.08789-1.11718-3.749-1.70605A54.76087,54.76087,0,0,0,129.18359,157.17383Z"/><path d="M127.22559,92.04785l-9.123-4.0957c10.61621-23.645,15.47363-38.688,8.88379-45.61084-3.71778-3.90723-11.835-4.55469-21.71289-1.73779-8.80811,2.5122-12.5376,10.08886-14.11621,15.96875-.62256,3.895-1.19385,8.12695-1.20215,8.18554L80,64.07227a42.95432,42.95432,0,0,1,1.37207-9.63233c.23438-1.44336.47559-2.833.70117-3.96826,1.396-7.02441,2.50293-14.10156,3.29-21.03564L95.2998,30.564q-.21751,1.91529-.46582,3.84229a29.15574,29.15574,0,0,1,7.69727-3.41895c13.72168-3.91552,25.27637-2.28857,31.69922,4.46C145.81738,47.62061,138.28125,67.42383,127.22559,92.04785Z"/><path d="M95.22656,89.23193A35.70909,35.70909,0,0,1,83.0835,83.46729,29.078,29.078,0,0,1,75.02,74.48242l5.2168-2.96484A23.11436,23.11436,0,0,0,86.65723,78.648a29.75223,29.75223,0,0,0,10.11621,4.78711Z"/><path d="M81.59863,95.89893a35.717,35.717,0,0,1-12.144-5.76465,29.0655,29.0655,0,0,1-8.063-8.98584l5.2168-2.96387a23.10689,23.10689,0,0,0,6.42041,7.13037,29.71958,29.71958,0,0,0,10.11572,4.78613Z"/></svg>