<svg data-name="Zawilqiloli itik" xmlns="http://www.w3.org/2000/svg" viewBox="0 0 200 200"><title>h</title><path d="M141.56152,173.44629c-2.915-2.76074-18.18164-12.71484-39.57714-10.96484-13.32667,1.08789-21.5752,7.1748-23.78614,9.01464l-6.75586-7.35742.52881-.53515,52.92334-57.00489,7.32813,6.80274L95.1709,153.31152a59.446,59.446,0,0,1,5.999-.79687c24.80371-2.02735,42.53125,9.18262,47.26856,13.67187Z"/><path d="M122.45605,170.26855l-9.98632-.5371a43.21035,43.21035,0,0,1,3.81347-15.53711,48.31344,48.31344,0,0,1,11.94239-16.08692l6.67382,7.44727a38.38984,38.38984,0,0,0-9.50488,12.76074A33.22622,33.22622,0,0,0,122.45605,170.26855Z"/><path d="M127.22559,92.04785l-9.123-4.0957c10.61621-23.645,15.47363-38.688,8.88379-45.61084-3.71778-3.90723-11.835-4.55469-21.71289-1.73779-8.80811,2.5122-12.5376,10.08886-14.11621,15.96875-.62256,3.895-1.19385,8.12695-1.20215,8.18554L80,64.07227a42.95432,42.95432,0,0,1,1.37207-9.63233c.23438-1.44336.47559-2.833.70117-3.96826,1.396-7.02441,2.50293-14.10156,3.29-21.03564L95.2998,30.564q-.21751,1.91529-.46582,3.84229a29.15574,29.15574,0,0,1,7.69727-3.41895c13.72168-3.91552,25.27637-2.28857,31.69922,4.46C145.81738,47.62061,138.28125,67.42383,127.22559,92.04785Z"/><path d="M95.22656,89.23193A35.70909,35.70909,0,0,1,83.0835,83.46729,29.078,29.078,0,0,1,75.02,74.48242l5.2168-2.96484A23.11436,23.11436,0,0,0,86.65723,78.648a29.75223,29.75223,0,0,0,10.11621,4.78711Z"/><path d="M81.59863,95.89893a35.717,35.717,0,0,1-12.144-5.76465,29.0655,29.0655,0,0,1-8.063-8.98584l5.2168-2.96387a23.10689,23.10689,0,0,0,6.42041,7.13037,29.71958,29.71958,0,0,0,10.11572,4.78613Z"/></svg>