<svg data-name="Hekalqilotontli 2b" xmlns="http://www.w3.org/2000/svg" viewBox="0 0 200 200"><title>h</title><polygon points="33.423 85 27.423 85 27.423 52 60.423 52 60.423 58 33.423 58 33.423 85"/><path d="M128.43555,146.53809l-9.51563-3.07618c11.92676-36.89648,17.25781-60.5542,9.21289-72.29492-5.78418-8.44043-17.9248-4.78662-22.876-2.82519C95.12646,72.35449,90.937,85.28809,89.208,94.918c-.64893,5.70849-1.22315,11.61523-1.23145,11.70117L78,106.12305a81.3755,81.3755,0,0,1,1.40381-13.48487c.26123-2.24853.53125-4.42285.78223-6.17724,1.52343-10.647,2.73046-21.36914,3.58837-31.86817l9.9668.81446q-.36987,4.52564-.82373,9.09912a27.909,27.909,0,0,1,8.65576-5.46143c14.958-5.92627,27.97168-3.50781,34.8086,6.46924C146.86133,80.80762,141.92773,104.79883,128.43555,146.53809Z"/><path d="M88.1123,138.36523a48.17729,48.17729,0,0,1-17.17382-9.498,45.54447,45.54447,0,0,1-11.207-14.55469l5.39453-2.625a39.58165,39.58165,0,0,0,9.7417,12.64453,42.13624,42.13624,0,0,0,15.02,8.30274Z"/></svg>