<svg data-name="Khamalqiloli itik" xmlns="http://www.w3.org/2000/svg" viewBox="0 0 200 200"><title>h</title><path d="M124.833,172.0498l-9.1211-4.0996c10.624-23.64258,15.48536-38.68555,8.89161-45.6084-3.72071-3.90528-11.84571-4.55664-21.74024-1.73731-8.81787,2.5127-12.55078,10.08985-14.13086,15.96973-.623,3.89551-1.19433,8.125-1.20263,8.18457l-9.95508-.68652a42.93215,42.93215,0,0,1,1.373-9.63282c.23487-1.44336.47608-2.833.70215-3.96875,1.39893-7.03515,2.50684-14.1123,3.29248-21.03418l9.93653,1.127q-.21753,1.91748-.4668,3.84765a29.16583,29.16583,0,0,1,7.71094-3.42383c13.73144-3.91406,25.293-2.28906,31.7207,4.457C143.44141,127.62109,135.89844,147.4248,124.833,172.0498Z"/><path d="M141.96582,158.84961a89.67367,89.67367,0,0,1-20.90234-5.05566,73.17372,73.17372,0,0,1-8.47461-3.8379l4.71289-8.82031a62.98587,62.98587,0,0,0,7.3125,3.30957,79.64571,79.64571,0,0,0,18.56836,4.47852Z"/><rect x="90.5" y="14" width="43" height="6"/><path d="M127.22559,92.04785l-9.123-4.0957c10.61621-23.645,15.47363-38.688,8.88379-45.61084-3.71778-3.90723-11.835-4.55469-21.71289-1.73779-8.80811,2.5122-12.5376,10.08886-14.11621,15.96875-.62256,3.895-1.19385,8.12695-1.20215,8.18554L80,64.07227a42.95432,42.95432,0,0,1,1.37207-9.63233c.23438-1.44336.47559-2.833.70117-3.96826,1.396-7.02441,2.50293-14.10156,3.29-21.03564L95.2998,30.564q-.21751,1.91529-.46582,3.84229a29.15574,29.15574,0,0,1,7.69727-3.41895c13.72168-3.91552,25.27637-2.28857,31.69922,4.46C145.81738,47.62061,138.28125,67.42383,127.22559,92.04785Z"/><path d="M75,98A14,14,0,1,1,89,84,14.01572,14.01572,0,0,1,75,98Zm0-22a8,8,0,1,0,8,8A8.00917,8.00917,0,0,0,75,76Z"/></svg>