<svg xmlns="http://www.w3.org/2000/svg" viewBox="0 0 200 200" id="ho!z" data-name="ho!z"><title>ho!z</title><path d="M141.55566,173.625c-2.91308-2.76855-18.17578-12.75586-39.57031-10.99805-13.32422,1.0918-21.57129,7.19629-23.78125,9.041l-6.76758-7.34668.84815-.86133.30322-.22656C104.52246,139.34961,117.874,123.37891,122.02344,115H75V105h58.55859v5c0,9.78613-11.10742,24.56348-31.77832,42.6123,24.48731-1.80371,41.96289,9.2959,46.66407,13.7627Z"/><rect x="90.5" y="14" width="43" height="6"/><path d="M127.22559,92.04785l-9.123-4.0957c10.61621-23.645,15.47363-38.688,8.88379-45.61084-3.71778-3.90723-11.835-4.55469-21.71289-1.73779-8.80811,2.5122-12.5376,10.08886-14.11621,15.96875-.62256,3.895-1.19385,8.12695-1.20215,8.18554L80,64.07227a42.95432,42.95432,0,0,1,1.37207-9.63233c.23438-1.44336.47559-2.833.70117-3.96826,1.396-7.02441,2.50293-14.10156,3.29-21.03564L95.2998,30.564q-.21751,1.91529-.46582,3.84229a29.15574,29.15574,0,0,1,7.69727-3.41895c13.72168-3.91552,25.27637-2.28857,31.69922,4.46C145.81738,47.62061,138.28125,67.42383,127.22559,92.04785Z"/><path d="M75,98A14,14,0,1,1,89,84,14.01572,14.01572,0,0,1,75,98Zm0-22a8,8,0,1,0,8,8A8.00917,8.00917,0,0,0,75,76Z"/></svg>