<svg data-name="Limonqiloli itik" xmlns="http://www.w3.org/2000/svg" viewBox="0 0 200 200"><title>h</title><path d="M104.9502,174.72852l-3.248-9.457c16.02246-5.5039,24.88183-12.23828,26.55371-16.4707.43359-1.09668.18652-1.56152.05371-1.81152-.96582-1.82227-4.77344-3.77442-7.043-4.52051-8.57422-2.81738-20.65674-.98535-27.38574,2.416a6.973,6.973,0,0,0-2.84717,2.19726,1.299,1.299,0,0,0,.14453-.33105L86.5,144.98633l-4.85742-1.18555c.2124-.87109,2.59424-9.29883,20.50586-36.54687l8.35547,5.49218c-5.60743,8.53223-9.606,15.09278-12.44385,20.04786,8.14209-2.08106,18.05908-2.543,26.32861.1748,1.57813.51855,9.61231,3.40625,12.75684,9.33691a11.83877,11.83877,0,0,1,.41113,10.169C133.16016,163.60254,115.24023,171.19434,104.9502,174.72852Z"/><path d="M127.22559,92.04785l-9.123-4.0957c10.61621-23.645,15.47363-38.688,8.88379-45.61084-3.71778-3.90723-11.835-4.55469-21.71289-1.73779-8.80811,2.5122-12.5376,10.08886-14.11621,15.96875-.62256,3.895-1.19385,8.12695-1.20215,8.18554L80,64.07227a42.95432,42.95432,0,0,1,1.37207-9.63233c.23438-1.44336.47559-2.833.70117-3.96826,1.396-7.02441,2.50293-14.10156,3.29-21.03564L95.2998,30.564q-.21751,1.91529-.46582,3.84229a29.15574,29.15574,0,0,1,7.69727-3.41895c13.72168-3.91552,25.27637-2.28857,31.69922,4.46C145.81738,47.62061,138.28125,67.42383,127.22559,92.04785Z"/><path d="M75,98A14,14,0,1,1,89,84,14.01572,14.01572,0,0,1,75,98Zm0-22a8,8,0,1,0,8,8A8.00917,8.00917,0,0,0,75,76Z"/></svg>