<svg xmlns="http://www.w3.org/2000/svg" viewBox="0 0 200 200" id="i!g" data-name="i!g"><title>i!g</title><path d="M119.4375,93.95215c-10.543-8.16992-18.12305-17.17285-22.53027-26.7583A46.027,46.027,0,0,1,96.897,27.93408l9.106,4.13184a35.83,35.83,0,0,0-.00879,30.95312c3.72656,8.106,10.31152,15.855,19.56836,23.02881Z"/><rect x="85.5" y="14" width="47" height="6"/><path d="M139.23633,171.84961a44.6835,44.6835,0,0,1-14.88672-6.69238,34.96575,34.96575,0,0,1-10.02148-10.58594l8.57617-5.14258a25.0312,25.0312,0,0,0,7.19531,7.54688,35.19669,35.19669,0,0,0,11.57422,5.1748Z"/><path d="m 111.39258,105.17383 c -16.085551,1.28828 -28.761721,10.80664 -28.761721,10.80664 l 5.830079,8.125 c 0,0 19.685492,-13.37054 36.455082,-7.39844 8.42889,3.00176 11.08477,7.85368 11.46093,13.98047 0.37617,6.12679 -2.46568,13.66222 -7.16797,19.2832 C 113.445,168.81459 90.290782,169.41479 80.25,164.94141 l -4.068359,9.13476 c 15.092064,6.72384 42.010309,4.64848 60.697269,-17.68945 6.15838,-7.36157 10.06026,-16.86716 9.48047,-26.31055 -0.5798,-9.44339 -6.57922,-18.69051 -18.0879,-22.78906 -5.77638,-2.05713 -11.51705,-2.54271 -16.8789,-2.11328 z"/></svg>