<svg xmlns="http://www.w3.org/2000/svg" viewBox="0 0 200 200" id="i!p" data-name="i!p"><title>i!p</title><path d="M98.918,174.98242a126.87494,126.87494,0,0,1-14.49317-.84765l1.1504-9.9336c25.82128,2.98828,41.38671-2.76367,43.77636-7.5957.26074-.52734,1.46973-3.26465-.2959-5.56543-4.124-5.374-9.17578-10.39649-18.13867-10.79-.75488.01074-4.77148.08105-5.93359.10156l-.44531.06446-1.08887-7.53321-.94629-2.07324.60742-.27637-.00195-.01367.04687-.00683L107.749,128.415c10.56934-5.85059,14.64453-9.53418,16.1709-11.2959-6.37012-2.35547-26.90722-2.47266-34.82861-1.79687l-.84863-9.96485c1.89355-.16015,11.585-.59765,21.105-.18262,15.55371.68262,22.751,3.08008,24.84179,8.27344,2.23243,5.54688-1.74707,11.335-13.17578,18.7168,7.42969,2.77051,12.33887,8.04883,15.97559,12.78711a15.2375,15.2375,0,0,1,1.32422,16.08984C133.40039,170.97559,116.68848,174.98145,98.918,174.98242Zm26.4375-57.10937v0Z"/><path d="M119.4375,93.95215c-10.543-8.16992-18.12305-17.17285-22.53027-26.7583A46.027,46.027,0,0,1,96.897,27.93408l9.106,4.13184a35.83,35.83,0,0,0-.00879,30.95312c3.72656,8.106,10.31152,15.855,19.56836,23.02881Z"/><rect x="85.5" y="14" width="47" height="6"/></svg>