<svg xmlns="http://www.w3.org/2000/svg" viewBox="0 0 200 200" id="i!s" data-name="i!s"><title>i!s</title><path d="M119.4375,93.95215c-10.543-8.16992-18.12305-17.17285-22.53027-26.7583A46.027,46.027,0,0,1,96.897,27.93408l9.106,4.13184a35.83,35.83,0,0,0-.00879,30.95312c3.72656,8.106,10.31152,15.855,19.56836,23.02881Z"/><rect x="85.5" y="14" width="47" height="6"/><path d="M141.55566,173.625c-2.91308-2.76855-18.17578-12.75586-39.57031-10.99805-13.32422,1.0918-21.57129,7.19629-23.78125,9.041l-6.76758-7.34668.52881-.53711,52.92334-57.18066,7.33985,6.793L95.14209,153.46484a59.05073,59.05073,0,0,1,6.02686-.80468c24.79882-2.02442,42.53613,9.21191,47.27539,13.71484Z"/></svg>