<svg xmlns="http://www.w3.org/2000/svg" viewBox="0 0 200 200" id="il" data-name="il"><title>il</title><path d="M119.4375,93.95215c-10.543-8.16992-18.12305-17.17285-22.53027-26.7583A46.027,46.027,0,0,1,96.897,27.93408l9.106,4.13184a35.83,35.83,0,0,0-.00879,30.95312c3.72656,8.106,10.31152,15.855,19.56836,23.02881Z"/><path d="M104.9502,174.72852l-3.248-9.457c16.02246-5.5039,24.88183-12.23828,26.55371-16.4707.43359-1.09668.18652-1.56152.05371-1.81152-.96582-1.82227-4.77344-3.77442-7.043-4.52051-8.57422-2.81738-20.65674-.98535-27.38574,2.416a6.973,6.973,0,0,0-2.84717,2.19726,1.299,1.299,0,0,0,.14453-.33105L86.5,144.98633l-4.85742-1.18555c.2124-.87109,2.59424-9.29883,20.50586-36.54687l8.35547,5.49218c-5.60743,8.53223-9.606,15.09278-12.44385,20.04786,8.14209-2.08106,18.05908-2.543,26.32861.1748,1.57813.51855,9.61231,3.40625,12.75684,9.33691a11.83877,11.83877,0,0,1,.41113,10.169C133.16016,163.60254,115.24023,171.19434,104.9502,174.72852Z"/></svg>