<svg xmlns="http://www.w3.org/2000/svg" viewBox="0 0 200 200" id="iq" data-name="iq"><title>iq</title><path d="M119.4375,93.95215c-10.543-8.16992-18.12305-17.17285-22.53027-26.7583A46.027,46.027,0,0,1,96.897,27.93408l9.106,4.13184a35.83,35.83,0,0,0-.00879,30.95312c3.72656,8.106,10.31152,15.855,19.56836,23.02881Z"/><path d="M85.86523,174.08105l-5.16015-8.5664c.36767-.2207.8916-.50977,1.54053-.86328,4.94775-2.69532,18.09082-9.85645,18.17236-22.95313.06933-11.22461-13.41895-22.85449-22.55713-27.17871l4.11523-9.1123c4.73487,2.03711,36.4751,16.125,53.02393,34.54882V110h10v60H135v-8.67285c.001-9.58789-12.29-20.9043-26.88867-30.50488a27.43239,27.43239,0,0,1,2.30664,10.93847c-.11817,18.99414-17.63281,28.53614-23.38818,31.67188C86.54,173.7002,86.14307,173.91309,85.86523,174.08105Z"/></svg>