<svg xmlns="http://www.w3.org/2000/svg" viewBox="0 0 200 200"><title>j</title><path d="M110.13379,150l-.26172-.001c-13.82959-.06445-25.04053-5.25683-31.58594-14.63769C70.084,123.60254,67.02979,107.18848,69.207,86.57471,71.0083,69.563,76.209,57.98926,79.14893,52.604l8.77734,4.792c-2.0791,3.8081-7.09619,14.37793-8.7749,30.23046-1.917,18.14991.55127,32.28565,7.33642,42.01319,5.93994,8.51269,16.03858,10.33887,23.51514,10.36035,7.48047-.02148,17.581-1.84668,23.51465-10.35937,6.78613-9.73438,9.2539-23.87012,7.33594-42.01514-1.67676-15.834-6.69532-26.417-8.77539-30.23194l8.77929-4.7871c2.94043,5.39257,8.14063,16.97607,9.94141,33.96679,2.17773,20.60742-.876,37.02051-9.07813,48.78614-6.53906,9.38183-17.751,14.57519-31.58691,14.63964Z"/><path d="M161.96875,125.7832a108.43455,108.43455,0,0,1-27.70605-7.50195,92.09109,92.09109,0,0,1-11.17969-5.6709l5.13281-8.582a81.9749,81.9749,0,0,0,9.96191,5.05078,98.47783,98.47783,0,0,0,25.15235,6.79785Z"/><path d="M23.99238,101c-.25928,0-.51855-.00293-.7793-.00879l.13282-5.998A25.81867,25.81867,0,0,0,34.55732,92.792a28.07891,28.07891,0,0,0,7.48145-5.0664,15.1351,15.1351,0,0,1-2.28223-1.75342c-1.31445-1.22852-4.80566-4.4917-4.70508-9.54785a12.09537,12.09537,0,0,1,8.76172-11.02539c4.03711-1.08448,9.42481-.03077,11.44434,3.61328,1.32422,2.38916,1.36132,5.648.1084,9.42431a30.73317,30.73317,0,0,1-4.25684,8.02442l-.26758,4.0415a19.00229,19.00229,0,0,1-2.72656-.38183,34.87325,34.87325,0,0,1-11.08887,8.14013A31.4444,31.4444,0,0,1,23.99238,101ZM46.93525,70.99707A5.82921,5.82921,0,0,0,41.05049,76.544c-.04786,2.38037,1.80761,4.11376,2.80371,5.04541a9.61569,9.61569,0,0,0,2.26172,1.55615,24.71961,24.71961,0,0,0,3.55566-6.59815c.80078-2.415.70019-3.97314.33789-4.62646C49.77021,71.48926,48.43427,70.99707,46.93525,70.99707Z"/></svg>