<svg xmlns="http://www.w3.org/2000/svg" viewBox="0 0 200 200" id="ja!n" data-name="ja!n"><title>ja!n</title><path d="M80.44141,174.98047l-.88282-9.96094c26.21387-2.32129,38.71778-2.00586,48.38184-1.52637l4.90039.24317c-.083-5.55274-.14551-14.75586.10938-24.6211.16015-6.22168.792-13.93847,1.59277-23.708l.47363-5.80957,9.9668.80468-.47363,5.82032c-.78809,9.61425-1.41016,17.208-1.56348,23.15039-.39941,15.51758-.00391,29.33886,0,29.47656l.1582,5.4082-15.66015-.77636C118.11719,173.0166,106.02148,172.71484,80.44141,174.98047Z"/><rect x="85.5" y="14" width="47" height="6"/><path d="M108.6416,95l-.17969-.00049c-9.96972-.04394-18.0874-3.74121-22.87207-10.42187-5.86523-8.1919-8.05908-19.53565-6.52148-33.7168a61.7351,61.7351,0,0,1,7.01221-23.30469l8.72363,4.8877a52.21381,52.21381,0,0,0-5.79443,19.49609c-1.26416,11.66162.32031,20.68408,4.71044,26.81592,3.67237,5.12793,10.07276,6.23,14.83057,6.24414,6.7002-.01953,11.96485-2.23486,14.832-6.24268,4.39063-6.13671,5.97559-15.15966,4.71094-26.81787a52.27028,52.27028,0,0,0-5.7959-19.49756l8.72656-4.88378a61.83261,61.83261,0,0,1,7.01075,23.30127c1.53808,14.17724-.65528,25.521-6.51953,33.71679-4.78028,6.68164-12.89942,10.3794-22.874,10.42334Z"/><path d="M143.91211,78.84229a77.3032,77.3032,0,0,1-19.335-5.10254,65.194,65.194,0,0,1-7.83789-3.874l5.03613-8.63965a55.07543,55.07543,0,0,0,6.63086,3.27588,67.32618,67.32618,0,0,0,16.834,4.4292Z"/></svg>