<svg xmlns="http://www.w3.org/2000/svg" viewBox="0 0 200 200" id="jitl" data-name="jitl"><title>jitl</title><path d="M93.11328,174.98828c-6.6748,0-13.0918-2.168-16.416-7.832-3.562-6.07617-3.145-15.82617.94726-22.19824a18.32593,18.32593,0,0,1,9.97852-7.45313l.17968-.0625c9.83106-3.3457,21.78321-.626,35.71094,8.084A77.46083,77.46083,0,0,0,137.291,115H75V105h72.94629v5c0,4.56152-3.29395,23.93164-16.209,41.19434a183.10189,183.10189,0,0,1,15.458,13.12207c.51074.47949.8711.82226,1.06739.99218l-6.5254,7.57618c-.25585-.21973-.72851-.66016-1.3916-1.28321a170.40013,170.40013,0,0,0-15.13379-12.79492A69.09243,69.09243,0,0,1,109.1416,171.001,34.75349,34.75349,0,0,1,93.11328,174.98828Zm3.19483-28.8916a16.239,16.239,0,0,0-5.25684.80371l-.19189.06543a8.45157,8.45157,0,0,0-4.8003,3.39551c-2.24219,3.49121-2.23681,9.1748-.73633,11.73535,2.59082,4.415,13.354,3.24414,19.00538.13965a59.25416,59.25416,0,0,0,12.41406-9.11426C107.61816,147.68164,100.9624,146.09668,96.30811,146.09668Z"/><path d="M108.6416,95l-.17969-.00049c-9.96972-.04394-18.0874-3.74121-22.87207-10.42187-5.86523-8.1919-8.05908-19.53565-6.52148-33.7168a61.7351,61.7351,0,0,1,7.01221-23.30469l8.72363,4.8877a52.21381,52.21381,0,0,0-5.79443,19.49609c-1.26416,11.66162.32031,20.68408,4.71044,26.81592,3.67237,5.12793,10.07276,6.23,14.83057,6.24414,6.7002-.01953,11.96485-2.23486,14.832-6.24268,4.39063-6.13671,5.97559-15.15966,4.71094-26.81787a52.27028,52.27028,0,0,0-5.7959-19.49756l8.72656-4.88378a61.83261,61.83261,0,0,1,7.01075,23.30127c1.53808,14.17724-.65528,25.521-6.51953,33.71679-4.78028,6.68164-12.89942,10.3794-22.874,10.42334Z"/><path d="M143.91211,78.84229a77.3032,77.3032,0,0,1-19.335-5.10254,65.194,65.194,0,0,1-7.83789-3.874l5.03613-8.63965a55.07543,55.07543,0,0,0,6.63086,3.27588,67.32618,67.32618,0,0,0,16.834,4.4292Z"/><path d="M68.23584,60.90088a48.10489,48.10489,0,0,1-16.16016-7.60547,38.36221,38.36221,0,0,1-10.6792-11.80469l5.207-2.98144a32.40343,32.40343,0,0,0,9.03125,9.95556,42.05833,42.05833,0,0,0,14.12939,6.63428Z"/></svg>