<svg xmlns="http://www.w3.org/2000/svg" viewBox="0 0 200 200" id="juy" data-name="juy"><title>juy</title><path d="M108.6416,95l-.17969-.00049c-9.96972-.04394-18.0874-3.74121-22.87207-10.42187-5.86523-8.1919-8.05908-19.53565-6.52148-33.7168a61.7351,61.7351,0,0,1,7.01221-23.30469l8.72363,4.8877a52.21381,52.21381,0,0,0-5.79443,19.49609c-1.26416,11.66162.32031,20.68408,4.71044,26.81592,3.67237,5.12793,10.07276,6.23,14.83057,6.24414,6.7002-.01953,11.96485-2.23486,14.832-6.24268,4.39063-6.13671,5.97559-15.15966,4.71094-26.81787a52.27028,52.27028,0,0,0-5.7959-19.49756l8.72656-4.88378a61.83261,61.83261,0,0,1,7.01075,23.30127c1.53808,14.17724-.65528,25.521-6.51953,33.71679-4.78028,6.68164-12.89942,10.3794-22.874,10.42334Z"/><path d="M143.91211,78.84229a77.3032,77.3032,0,0,1-19.335-5.10254,65.194,65.194,0,0,1-7.83789-3.874l5.03613-8.63965a55.07543,55.07543,0,0,0,6.63086,3.27588,67.32618,67.32618,0,0,0,16.834,4.4292Z"/><path d="M43.54717,64c-.18946,0-.37891-.002-.56934-.00635l.08887-3.999a18.89639,18.89639,0,0,0,8.30859-1.63135,20.943,20.943,0,0,0,5.75244-3.91943,10.9594,10.9594,0,0,1-1.88525-1.41016c-.94629-.88428-3.45947-3.23389-3.38721-6.852a8.66358,8.66358,0,0,1,6.27637-7.896c2.88721-.77587,6.73193-.0332,8.166,2.55372.94335,1.70166.96582,4.03613.06542,6.75048a22.09,22.09,0,0,1-2.90576,5.56885l-.2124,3.14356a13.7993,13.7993,0,0,1-2.07715-.3003,25.40012,25.40012,0,0,1-8.147,6.00684A22.85223,22.85223,0,0,1,43.54717,64Zm16.835-22.00391a4.48166,4.48166,0,0,0-4.52783,4.26563c-.03663,1.834,1.41992,3.1958,2.11962,3.8501a7.35317,7.35317,0,0,0,1.87452,1.25586,18.68512,18.68512,0,0,0,2.71826-5.03711c.60742-1.832.51855-3.03614.23291-3.55176A3.19544,3.19544,0,0,0,60.38213,41.99609Z"/><path d="M110.09277,175h-.17968c-9.97657-.04395-18.10108-3.74023-22.88868-10.41992-5.87207-8.19336-8.06836-19.53809-6.5288-33.71973a61.703,61.703,0,0,1,7.01953-23.30664l8.72168,4.89258A52.15739,52.15739,0,0,0,90.437,131.94141c-1.26562,11.65918.32031,20.68066,4.71485,26.81347C98.8291,163.88379,105.2373,164.98633,110.002,165c6.708-.01953,11.9795-2.23535,14.85059-6.24414,4.39551-6.1377,5.98242-15.15918,4.71582-26.81543a52.25319,52.25319,0,0,0-5.80078-19.49707l8.72461-4.88672a61.80615,61.80615,0,0,1,7.01758,23.30274c1.54,14.17675-.65528,25.52148-6.52637,33.71875-4.78418,6.68066-12.90918,10.37792-22.89063,10.42187Z"/></svg>