<svg data-name="Hekalqilotontli 2b" xmlns="http://www.w3.org/2000/svg" viewBox="0 0 200 200"><title>k</title><polygon points="33.423 85 27.423 85 27.423 52 60.423 52 60.423 58 33.423 58 33.423 85"/><path d="M100.1582,150c-13.94091,0-26.21191-4.43848-30.79931-11.21875l8.28222-5.60352c1.96192,2.9004,10.84668,7.06446,23.64893,6.81055,17.46582-.35254,36.7373-12.19043,39.77539-34.13379,1.98145-14.30761-2.94629-30-12.26172-39.04883-7.57129-7.35351-18.91992-7.4414-27.10351-6.22216-5.25342.7832-14.28711,6.19873-17.0376,8.03418l-5.55078-8.31836c1.27588-.85108,12.70654-8.353,21.11328-9.60645,14.938-2.22656,27.231.86377,35.54541,8.93994,11.668,11.3335,17.63476,30.01514,15.20117,47.59278-3.80762,27.49414-27.77344,42.32324-49.47949,42.76074C101.04688,149.99512,100.60107,150,100.1582,150Z"/><path d="M85.94971,93.50732a47.02288,47.02288,0,0,1-17.002-9.584A45.72672,45.72672,0,0,1,57.86182,69.25879l5.41308-2.58691a39.78366,39.78366,0,0,0,9.64063,12.751,41.05946,41.05946,0,0,0,14.84863,8.36572Z"/><path d="M66.44824,104.84863a47.00955,47.00955,0,0,1-17.00244-9.584A45.727,45.727,0,0,1,38.35986,80.6001L43.773,78.01318a39.78356,39.78356,0,0,0,9.64062,12.751,41.04888,41.04888,0,0,0,14.84815,8.36523Z"/></svg>