<svg xmlns="http://www.w3.org/2000/svg" viewBox="0 0 200 200" id="ka!k" data-name="ka!k"><title>ka!k</title><path d="M 111.06055 24.042969 C 94.974996 25.331251 82.300781 34.849609 82.300781 34.849609 L 88.128906 42.974609 C 88.128906 42.974609 107.81635 29.604062 124.58594 35.576172 C 133.01483 38.577928 135.67071 43.429847 136.04688 49.556641 C 136.42304 55.683434 133.58119 63.218855 128.87891 68.839844 C 113.11492 87.683735 89.960703 88.28393 79.919922 83.810547 L 75.849609 92.945312 C 90.941674 99.66915 117.86188 97.59379 136.54883 75.255859 C 142.70721 67.894287 146.60714 58.386751 146.02734 48.943359 C 145.44755 39.499967 139.44813 30.252848 127.93945 26.154297 C 122.16307 24.097167 116.4224 23.613541 111.06055 24.042969 z "/><rect x="90.5" y="14" width="43" height="6"/><path d="M 111.39258 105.17383 C 95.307029 106.46211 82.630859 115.98047 82.630859 115.98047 L 88.460938 124.10547 C 88.460938 124.10547 108.14643 110.73493 124.91602 116.70703 C 133.34491 119.70879 136.00079 124.56071 136.37695 130.6875 C 136.75312 136.81429 133.91127 144.34972 129.20898 149.9707 C 113.445 168.81459 90.290782 169.41479 80.25 164.94141 L 76.181641 174.07617 C 91.273705 180.80001 118.19195 178.72465 136.87891 156.38672 C 143.03729 149.02515 146.93917 139.51956 146.35938 130.07617 C 145.77958 120.63278 139.78016 111.38566 128.27148 107.28711 C 122.4951 105.22998 116.75443 104.7444 111.39258 105.17383 z "/></svg>