<svg xmlns="http://www.w3.org/2000/svg" viewBox="0 0 200 200" id="ka!l" data-name="ka!l"><title>ka!l</title><path d="M104.9502,174.72852l-3.248-9.457c16.02246-5.5039,24.88183-12.23828,26.55371-16.4707.43359-1.09668.18652-1.56152.05371-1.81152-.96582-1.82227-4.77344-3.77442-7.043-4.52051-8.57422-2.81738-20.65674-.98535-27.38574,2.416a6.973,6.973,0,0,0-2.84717,2.19726,1.299,1.299,0,0,0,.14453-.33105L86.5,144.98633l-4.85742-1.18555c.2124-.87109,2.59424-9.29883,20.50586-36.54687l8.35547,5.49218c-5.60743,8.53223-9.606,15.09278-12.44385,20.04786,8.14209-2.08106,18.05908-2.543,26.32861.1748,1.57813.51855,9.61231,3.40625,12.75684,9.33691a11.83877,11.83877,0,0,1,.41113,10.169C133.16016,163.60254,115.24023,171.19434,104.9502,174.72852Z"/><rect x="90.5" y="14" width="43" height="6"/><path d="M101.93848,95c-11.56885,0-21.8418-3.0918-25.77784-7.811l7.67872-6.40527c1.25732,1.50586,8.31005,4.40088,19.00341,4.2085,14.03614-.23,29.47852-7.67969,31.833-21.47315a26.01111,26.01111,0,0,0-9.45117-24.11181c-4.74512-3.73731-12.58008-5.166-22.05176-4.01807-4.29053.519-11.65722,4.1001-13.89941,5.314L84.51367,31.9082c1.05567-.57129,10.51514-5.60693,17.458-6.44677,8.585-1.0376,20.66406-.8252,29.44043,6.09033a35.78789,35.78789,0,0,1,13.12109,33.6499c-3.27148,19.16357-23.36718,29.4917-41.52636,29.78955C102.65039,94.99707,102.293,95,101.93848,95Z"/></svg>