<svg xmlns="http://www.w3.org/2000/svg" viewBox="0 0 200 200" id="ka!v" data-name="ka!v"><title>ka!v</title><path d="M 111.06055 24.042969 C 94.974996 25.331251 82.300781 34.849609 82.300781 34.849609 L 88.128906 42.974609 C 88.128906 42.974609 107.81635 29.604062 124.58594 35.576172 C 133.01483 38.577928 135.67071 43.429847 136.04688 49.556641 C 136.42304 55.683434 133.58119 63.218855 128.87891 68.839844 C 113.11492 87.683735 89.960703 88.28393 79.919922 83.810547 L 75.849609 92.945312 C 90.941674 99.66915 117.86188 97.59379 136.54883 75.255859 C 142.70721 67.894287 146.60714 58.386751 146.02734 48.943359 C 145.44755 39.499967 139.44813 30.252848 127.93945 26.154297 C 122.16307 24.097167 116.4224 23.613541 111.06055 24.042969 z "/><rect x="90.5" y="14" width="43" height="6"/><path d="M76.06787,174.88477l-2.13574-9.76954c11.78418-2.57617,28.98877-8.56152,44.02881-22.44043C128.35645,133.084,135.14063,122.792,138.29,115H75V105h75.98535l-1.06543,5.88965c-1.59179,8.80664-9.1416,24.33887-25.17773,39.13476C108.05469,165.42383,89.062,172.043,76.06787,174.88477Z"/><path d="M134.81055,163.832c-5.81348-.5957-16.94825-2.79687-26.21582-10.84277-6.94922-6.03711-14.00977-21.707-14.71045-23.60156l9.37842-3.47071c1.209,3.2666,7.52832,15.73242,11.88964,19.52246,7.18653,6.23926,16.04,7.96973,20.67774,8.44532Z"/></svg>