<svg xmlns="http://www.w3.org/2000/svg" viewBox="0 0 200 200" id="kag" data-name="kag"><title>kag</title><path d="M 111.06055 24.042969 C 94.974996 25.331251 82.300781 34.849609 82.300781 34.849609 L 88.128906 42.974609 C 88.128906 42.974609 107.81635 29.604062 124.58594 35.576172 C 133.01483 38.577928 135.67071 43.429847 136.04688 49.556641 C 136.42304 55.683434 133.58119 63.218855 128.87891 68.839844 C 113.11492 87.683735 89.960703 88.28393 79.919922 83.810547 L 75.849609 92.945312 C 90.941674 99.66915 117.86188 97.59379 136.54883 75.255859 C 142.70721 67.894287 146.60714 58.386751 146.02734 48.943359 C 145.44755 39.499967 139.44813 30.252848 127.93945 26.154297 C 122.16307 24.097167 116.4224 23.613541 111.06055 24.042969 z "/><path d="M139.23633,171.84961a44.6835,44.6835,0,0,1-14.88672-6.69238,34.96575,34.96575,0,0,1-10.02148-10.58594l8.57617-5.14258a25.0312,25.0312,0,0,0,7.19531,7.54688,35.19669,35.19669,0,0,0,11.57422,5.1748Z"/><path d="m 111.39258,105.17383 c -16.085551,1.28828 -28.761721,10.80664 -28.761721,10.80664 l 5.830079,8.125 c 0,0 19.685492,-13.37054 36.455082,-7.39844 8.42889,3.00176 11.08477,7.85368 11.46093,13.98047 0.37617,6.12679 -2.46568,13.66222 -7.16797,19.2832 C 113.445,168.81459 90.290782,169.41479 80.25,164.94141 l -4.068359,9.13476 c 15.092064,6.72384 42.010309,4.64848 60.697269,-17.68945 6.15838,-7.36157 10.06026,-16.86716 9.48047,-26.31055 -0.5798,-9.44339 -6.57922,-18.69051 -18.0879,-22.78906 -5.77638,-2.05713 -11.51705,-2.54271 -16.8789,-2.11328 z"/></svg>