<svg id="Kaxtli_3ha" data-name="Kaxtli 3ha" xmlns="http://www.w3.org/2000/svg" viewBox="0 0 200 200"><title>00181-kaxtli3ha</title><path d="M101.13477,164.99707c-.28565,0-.59717-.00684-.94776-.01367-.478-.01074-1.14306-.02539-2.08008-.041-4.42431-.07422-8.80371-.07422-13.019,0l-.17578-9.998c4.33008-.0752,8.82568-.0752,13.36182,0,.29.00488.55468.00879.79589.01367.52491-3.36328-.36572-11.37793-.981-16.9209C96.522,123.93359,94.76611,108.126,101.48926,100c-6.72315-8.12646-4.96729-23.93311-3.40039-38.0376.61523-5.542,1.50586-13.55713.98144-16.91992-.2417.0044-.50635.00928-.79638.01416-4.52735.07568-9.02295.07617-13.36084-.00049l.17382-9.998c4.22559.07324,8.60547.07373,13.01954-.00049.92871-.01563,1.59082-.02979,2.06787-.04a7.08264,7.08264,0,0,1,3.53271.47119c7.03711,3.12353,5.89746,13.38086,4.32031,27.57764C106.80859,74.041,104.96582,90.626,109.876,94.27881a4.86172,4.86172,0,0,0,2.75293.73584c.45019-.01074.86718-.01026,1.24707-.00928.32422.00049.624.00342.88476-.00928L120,94.74561v10.28955l-5.04492-.02539c-.22266-.00586-.47363.00195-.73731.00586-.44726.00781-.97265.01464-1.55078.00195a4.993,4.993,0,0,0-2.791.70312c-4.91016,3.65332-3.06739,20.23828-1.84864,31.21289,1.57715,14.19629,2.7168,24.45411-4.32324,27.57911A5.60877,5.60877,0,0,1,101.13477,164.99707Z"/></svg>