<svg id="Kaxtli_3hb" data-name="Kaxtli 3hb" xmlns="http://www.w3.org/2000/svg" viewBox="0 0 200 200"><title>00182-kaxtli3hb</title><path d="M98.8667,164.99707a5.62984,5.62984,0,0,1-2.5669-.48242c-7.04345-3.12695-5.90429-13.38379-4.32714-27.58008,1.21875-10.97461,3.061-27.56055-1.84961-31.21387a4.98689,4.98689,0,0,0-2.78955-.70312c-.58106.01269-1.103.00586-1.55127-.00195-.26221-.00391-.50635-.01075-.73731-.00586L80,105.05469v-10.29l5.23877.23144c.26172.01221.55859.00879.88525.00928.37647-.001.79639-.001,1.24707.00928a4.85827,4.85827,0,0,0,2.752-.73535c4.91064-3.65381,3.06836-20.23926,1.84912-31.21436C90.39551,48.86914,89.25635,38.6123,96.2959,35.4873a7.09963,7.09963,0,0,1,3.53027-.46972c.477.01025,1.13916.02441,2.06836.04,4.41211.07373,8.792.07324,13.01856.00049l.17382,9.998c-4.33593.07569-8.83105.0752-13.35937.00049-.291-.00488-.55566-.00976-.79785-.01416-.52393,3.36279.36621,11.377.98144,16.91846,1.56739,14.105,3.32325,29.9126-3.40039,38.03906,6.72364,8.12695,4.96778,23.93359,3.40039,38.03906-.61523,5.541-1.50537,13.55567-.98144,16.91895.24219-.00488.50683-.00879.79785-.01367,4.53711-.0752,9.0332-.0752,13.36035,0l-.17578,9.998c-4.21484-.07422-8.59473-.07422-13.01758,0-.938.01563-1.60351.03028-2.08105.041C99.46289,164.99023,99.15186,164.99707,98.8667,164.99707Z"/></svg>