<svg id="Kaxtli_3vb" data-name="Kaxtli 3vb" xmlns="http://www.w3.org/2000/svg" viewBox="0 0 200 200"><title>00184-kaxtli3vb</title><path d="M105.05469,120H94.76514l.23095-5.23926c.01221-.26172.00977-.55957.00928-.88476-.00049-.37793-.001-.7959.00928-1.24707a4.85786,4.85786,0,0,0-.73584-2.75293c-3.65283-4.91016-20.23828-3.06836-31.2124-1.84864-14.19629,1.57715-24.45411,2.7168-27.57911-4.32421a7.08466,7.08466,0,0,1-.46972-3.52881c.01025-.477.02441-1.13916.04-2.06836.07373-4.41407.07373-8.79444.00049-13.019l9.998-.17382c.07569,4.3374.07569,8.83252.00049,13.36035-.00488.29-.00976.55469-.01416.79638,3.35986.52442,11.377-.36523,16.91992-.981C76.06592,96.522,91.874,94.76563,100,101.48926c8.126-6.72315,23.93262-4.96729,38.03711-3.40039,5.543.61523,13.55762,1.50781,16.9209.981-.00488-.24169-.00879-.50634-.01367-.79687-.07618-4.53662-.07618-9.03223,0-13.36084l9.998.17578c-.07422,4.21484-.07422,8.59473,0,13.01807.01563.938.03028,1.603.041,2.08105a7.0627,7.0627,0,0,1-.47168,3.52c-3.125,7.03809-13.38281,5.89942-27.57813,4.32031-10.97461-1.21972-27.56054-3.06054-31.21289,1.84864a4.993,4.993,0,0,0-.70312,2.791c.01269.58008.00488,1.10352-.00195,1.55078-.00391.2627-.00782.50977-.00586.73731Z"/></svg>