<svg id="Kaxtli_3va" data-name="Kaxtli 3va" xmlns="http://www.w3.org/2000/svg" viewBox="0 0 200 200"><title>00183-kaxtli3va</title><path d="M154.94434,115.08789c-.07618-4.3291-.07618-8.82422,0-13.36133.00488-.29.00879-.55468.01367-.79687-3.36426-.52588-11.37793.36621-16.91895.98144C123.93359,103.47754,108.125,105.23438,100,98.51074c-8.12695,6.72266-23.93506,4.96582-38.03906,3.40039-5.54151-.61523-13.55762-1.50634-16.91846-.98144.0044.24219.00928.50683.01416.79687.0752,4.52832.0752,9.02246-.00049,13.36035l-9.998-.17382c.07324-4.22461.07324-8.6045-.00049-13.01954-.01563-.92822-.02979-1.59033-.04-2.06738a7.11157,7.11157,0,0,1,.46777-3.52637c3.12793-7.04345,13.38477-5.90478,27.57959-4.32763,10.97656,1.22021,27.56152,3.06152,31.21387-1.84863a4.85789,4.85789,0,0,0,.73584-2.75293c-.01026-.45069-.00977-.86915-.00928-1.24659.00049-.32519.00293-.623-.00928-.88525L94.74512,80h10.29l-.02539,5.04492c-.002.22754.00195.47461.00586.73731.00683.44726.01464.9707.00195,1.55078a4.99028,4.99028,0,0,0,.70312,2.79053c3.65235,4.91064,20.24024,3.06738,31.21387,1.84912,14.19531-1.57715,24.45215-2.7168,27.57813,4.32275a7.08562,7.08562,0,0,1,.4707,3.51807c-.01074.47754-.02539,1.14306-.041,2.08007-.07422,4.42383-.07422,8.80372,0,13.01856Z"/></svg>