<svg xmlns="http://www.w3.org/2000/svg" viewBox="0 0 200 200" id="ke!" data-name="ke!"><title>ke!</title><path d="M 120.39844 51.056641 C 99.07097 50.757649 81.302734 65.992188 81.302734 65.992188 L 87.671875 73.703125 C 87.671875 73.703125 111.33469 55.001836 131.76367 63.376953 C 142.02627 67.584226 145.87152 75.077558 146.36719 84.371094 C 146.86286 93.664629 143.20451 104.5367 137.34375 112.60156 C 118.00218 139.21705 90.354937 139.95576 77.988281 133.61328 L 73.423828 142.51172 C 91.165356 151.6108 123.50424 148.65694 145.43359 118.48047 C 152.58348 108.64167 157.00306 96.016487 156.35352 83.837891 C 155.70397 71.659295 149.18044 59.707482 135.55859 54.123047 C 130.43237 52.021486 125.32016 51.125639 120.39844 51.056641 z " id="path914"/><path d="M85.94971,93.50732a47.02288,47.02288,0,0,1-17.002-9.584A45.72672,45.72672,0,0,1,57.86182,69.25879l5.41308-2.58691a39.78366,39.78366,0,0,0,9.64063,12.751,41.05946,41.05946,0,0,0,14.84863,8.36572Z"/><path d="M66.44824,104.84863a47.00955,47.00955,0,0,1-17.00244-9.584A45.727,45.727,0,0,1,38.35986,80.6001L43.773,78.01318a39.78356,39.78356,0,0,0,9.64062,12.751,41.04888,41.04888,0,0,0,14.84815,8.36523Z"/><rect x="83.34277" y="37" width="60" height="6"/></svg>