<svg xmlns="http://www.w3.org/2000/svg" viewBox="0 0 200 200" id="ke!q" data-name="ke!q"><title>ke!q</title><path d="M 111.06055 24.042969 C 94.974996 25.331251 82.300781 34.849609 82.300781 34.849609 L 88.128906 42.974609 C 88.128906 42.974609 107.81635 29.604062 124.58594 35.576172 C 133.01483 38.577928 135.67071 43.429847 136.04688 49.556641 C 136.42304 55.683434 133.58119 63.218855 128.87891 68.839844 C 113.11492 87.683735 89.960703 88.28393 79.919922 83.810547 L 75.849609 92.945312 C 90.941674 99.66915 117.86188 97.59379 136.54883 75.255859 C 142.70721 67.894287 146.60714 58.386751 146.02734 48.943359 C 145.44755 39.499967 139.44813 30.252848 127.93945 26.154297 C 122.16307 24.097167 116.4224 23.613541 111.06055 24.042969 z "/><path d="M95.22656,56.23193A35.70909,35.70909,0,0,1,83.0835,50.46729,29.078,29.078,0,0,1,75.02,41.48242l5.2168-2.96484A23.11436,23.11436,0,0,0,86.65723,45.648a29.75223,29.75223,0,0,0,10.11621,4.78711Z"/><path d="M81.59863,62.89893a35.717,35.717,0,0,1-12.144-5.76465,29.0655,29.0655,0,0,1-8.063-8.98584l5.2168-2.96387a23.10689,23.10689,0,0,0,6.42041,7.13037,29.71958,29.71958,0,0,0,10.11572,4.78613Z"/><rect x="90.5" y="14" width="43" height="6"/><path d="M85.86523,174.08105l-5.16015-8.5664c.36767-.2207.8916-.50977,1.54053-.86328,4.94775-2.69532,18.09082-9.85645,18.17236-22.95313.06933-11.22461-13.41895-22.85449-22.55713-27.17871l4.11523-9.1123c4.73487,2.03711,36.4751,16.125,53.02393,34.54882V110h10v60H135v-8.67285c.001-9.58789-12.29-20.9043-26.88867-30.50488a27.43239,27.43239,0,0,1,2.30664,10.93847c-.11817,18.99414-17.63281,28.53614-23.38818,31.67188C86.54,173.7002,86.14307,173.91309,85.86523,174.08105Z"/></svg>