<svg xmlns="http://www.w3.org/2000/svg" viewBox="0 0 200 200" id="key" data-name="key"><title>key</title><path d="M110.09277,175h-.17968c-9.97657-.04395-18.10108-3.74023-22.88868-10.41992-5.87207-8.19336-8.06836-19.53809-6.5288-33.71973a61.703,61.703,0,0,1,7.01953-23.30664l8.72168,4.89258A52.15739,52.15739,0,0,0,90.437,131.94141c-1.26562,11.65918.32031,20.68066,4.71485,26.81347C98.8291,163.88379,105.2373,164.98633,110.002,165c6.708-.01953,11.9795-2.23535,14.85059-6.24414,4.39551-6.1377,5.98242-15.15918,4.71582-26.81543a52.25319,52.25319,0,0,0-5.80078-19.49707l8.72461-4.88672a61.80615,61.80615,0,0,1,7.01758,23.30274c1.54,14.17675-.65528,25.52148-6.52637,33.71875-4.78418,6.68066-12.90918,10.37792-22.89063,10.42187Z"/><path d="M101.93848,95c-11.56885,0-21.8418-3.0918-25.77784-7.811l7.67872-6.40527c1.25732,1.50586,8.31005,4.40088,19.00341,4.2085,14.03614-.23,29.47852-7.67969,31.833-21.47315a26.01111,26.01111,0,0,0-9.45117-24.11181c-4.74512-3.73731-12.58008-5.166-22.05176-4.01807-4.29053.519-11.65722,4.1001-13.89941,5.314L84.51367,31.9082c1.05567-.57129,10.51514-5.60693,17.458-6.44677,8.585-1.0376,20.66406-.8252,29.44043,6.09033a35.78789,35.78789,0,0,1,13.12109,33.6499c-3.27148,19.16357-23.36718,29.4917-41.52636,29.78955C102.65039,94.99707,102.293,95,101.93848,95Z"/><path d="M95.22656,56.23193A35.70909,35.70909,0,0,1,83.0835,50.46729,29.078,29.078,0,0,1,75.02,41.48242l5.2168-2.96484A23.11436,23.11436,0,0,0,86.65723,45.648a29.75223,29.75223,0,0,0,10.11621,4.78711Z"/><path d="M81.59863,62.89893a35.717,35.717,0,0,1-12.144-5.76465,29.0655,29.0655,0,0,1-8.063-8.98584l5.2168-2.96387a23.10689,23.10689,0,0,0,6.42041,7.13037,29.71958,29.71958,0,0,0,10.11572,4.78613Z"/></svg>