<svg data-name="Hekalqilotontli 2b" xmlns="http://www.w3.org/2000/svg" viewBox="0 0 200 200"><title>kh</title><polygon points="33.423 85 27.423 85 27.423 52 60.423 52 60.423 58 33.423 58 33.423 85"/><path d="M125.6875,146.54688l-9.50977-3.09375c11.999-36.88868,17.36329-60.54053,9.27247-72.27393-5.835-8.46143-18.083-4.79932-23.07618-2.8335-10.20214,4.01612-14.41992,16.95606-16.15966,26.585-.65235,5.70557-1.2295,11.60547-1.2378,11.69141L75,106.12305a80.97919,80.97919,0,0,1,1.41357-13.49756c.2627-2.24512.53418-4.41651.78614-6.16846,1.5332-10.647,2.748-21.36816,3.61084-31.8667l9.96679.81934q-.37426,4.55054-.834,9.14746A28.11279,28.11279,0,0,1,98.71094,59.041c15.02929-5.91553,28.10254-3.50147,34.97168,6.46142C144.23242,80.80176,139.26758,104.79883,125.6875,146.54688Z"/><path d="M144.31445,125.75977a76.81909,76.81909,0,0,1-22.917-7.65137,71.6919,71.6919,0,0,1-9.21582-5.76465l5.93555-8.04883a61.44255,61.44255,0,0,0,7.92578,4.958,66.83972,66.83972,0,0,0,19.94141,6.64746Z"/><path d="M88.1123,138.36523a48.17729,48.17729,0,0,1-17.17382-9.498,45.54447,45.54447,0,0,1-11.207-14.55469l5.39453-2.625a39.58165,39.58165,0,0,0,9.7417,12.64453,42.13624,42.13624,0,0,0,15.02,8.30274Z"/></svg>