<svg xmlns="http://www.w3.org/2000/svg" viewBox="0 0 200 200"><title>kh</title><path d="M125.6875,146.54688l-9.50977-3.09375c11.999-36.88868,17.36329-60.54053,9.27247-72.27393-5.835-8.46143-18.083-4.79932-23.07618-2.8335-10.20214,4.01612-14.41992,16.95606-16.15966,26.585-.65235,5.70557-1.2295,11.60547-1.2378,11.69141L75,106.12305a80.97919,80.97919,0,0,1,1.41357-13.49756c.2627-2.24512.53418-4.41651.78614-6.16846,1.5332-10.647,2.748-21.36816,3.61084-31.8667l9.96679.81934q-.37426,4.55054-.834,9.14746A28.11279,28.11279,0,0,1,98.71094,59.041c15.02929-5.91553,28.10254-3.50147,34.97168,6.46142C144.23242,80.80176,139.26758,104.79883,125.6875,146.54688Z"/><path d="M144.31445,125.75977a76.81909,76.81909,0,0,1-22.917-7.65137,71.6919,71.6919,0,0,1-9.21582-5.76465l5.93555-8.04883a61.44255,61.44255,0,0,0,7.92578,4.958,66.83972,66.83972,0,0,0,19.94141,6.64746Z"/><path d="M58.99238,146.00325c-.25928,0-.51855-.00292-.7793-.00878l.13282-5.99805a25.81882,25.81882,0,0,0,11.21142-2.20117,28.07894,28.07894,0,0,0,7.48145-5.06641,15.13445,15.13445,0,0,1-2.28223-1.75342c-1.31445-1.22851-4.80566-4.4917-4.70508-9.54785a12.09538,12.09538,0,0,1,8.76172-11.02539c4.03711-1.08447,9.42481-.03076,11.44434,3.61328,1.32422,2.38916,1.36132,5.64795.1084,9.42432a30.73312,30.73312,0,0,1-4.25684,8.02441l-.26758,4.04151a19.00372,19.00372,0,0,1-2.72656-.38184A34.87327,34.87327,0,0,1,72.02607,143.264,31.44455,31.44455,0,0,1,58.99238,146.00325Zm22.94287-30.00292a5.82917,5.82917,0,0,0-5.88476,5.54687c-.04786,2.38037,1.80761,4.11377,2.80371,5.04541a9.61509,9.61509,0,0,0,2.26172,1.55615,24.71971,24.71971,0,0,0,3.55566-6.59814c.80078-2.415.70019-3.97315.33789-4.62647C84.77021,116.49251,83.43427,116.00033,81.93525,116.00033Z"/></svg>