<svg xmlns="http://www.w3.org/2000/svg" viewBox="0 0 200 200" id="khe&apos;" data-name="khe&apos;"><title>khe'</title><polygon points="33.423 85 27.423 85 27.423 52 60.423 52 60.423 58 33.423 58 33.423 85"/><path d="M125.6875,146.54688l-9.50977-3.09375c11.999-36.88868,17.36329-60.54053,9.27247-72.27393-5.835-8.46143-18.083-4.79932-23.07618-2.8335-10.20214,4.01612-14.41992,16.95606-16.15966,26.585-.65235,5.70557-1.2295,11.60547-1.2378,11.69141L75,106.12305a80.97919,80.97919,0,0,1,1.41357-13.49756c.2627-2.24512.53418-4.41651.78614-6.16846,1.5332-10.647,2.748-21.36816,3.61084-31.8667l9.96679.81934q-.37426,4.55054-.834,9.14746A28.11279,28.11279,0,0,1,98.71094,59.041c15.02929-5.91553,28.10254-3.50147,34.97168,6.46142C144.23242,80.80176,139.26758,104.79883,125.6875,146.54688Z"/><path d="M144.31445,125.75977a76.81909,76.81909,0,0,1-22.917-7.65137,71.6919,71.6919,0,0,1-9.21582-5.76465l5.93555-8.04883a61.44255,61.44255,0,0,0,7.92578,4.958,66.83972,66.83972,0,0,0,19.94141,6.64746Z"/><path d="M97.94971,138.50781a47.03145,47.03145,0,0,1-17.002-9.585,45.71421,45.71421,0,0,1-11.08642-14.665l5.41406-2.58593a39.74333,39.74333,0,0,0,9.64014,12.75,41.06994,41.06994,0,0,0,14.84863,8.36718Z"/><path d="M78.44824,149.84863a47.01659,47.01659,0,0,1-17.00244-9.584,45.7232,45.7232,0,0,1-11.08594-14.66406L55.773,123.0127a39.75886,39.75886,0,0,0,9.64062,12.751,41.03672,41.03672,0,0,0,14.84815,8.36621Z"/></svg>