<svg xmlns="http://www.w3.org/2000/svg" viewBox="0 0 200 200" id="khiz&apos;" data-name="khiz&apos;"><title>khiz'</title><path d="M124.833,92.04932l-9.1211-4.09864c10.624-23.64355,15.48536-38.686,8.89161-45.60791-3.72071-3.90576-11.84571-4.55713-21.74024-1.73877C94.04541,43.1167,90.3125,50.69385,88.73291,56.57373c-.62305,3.89453-1.19482,8.126-1.20312,8.18506l-9.95508-.68652a42.92828,42.92828,0,0,1,1.373-9.63331c.23487-1.44287.47608-2.83251.70215-3.96777,1.39844-7.03369,2.50635-14.11084,3.29248-21.03515L92.87891,30.564q-.21753,1.91676-.4668,3.84668a29.19711,29.19711,0,0,1,7.71094-3.42382c13.72754-3.91309,25.29394-2.28858,31.7207,4.45849C143.44141,47.62012,135.89844,67.42432,124.833,92.04932Z"/><path d="M141.96484,78.84961a89.70568,89.70568,0,0,1-20.90039-5.05469,73.22954,73.22954,0,0,1-8.47461-3.83887l4.71094-8.82031a63.3052,63.3052,0,0,0,7.31445,3.31055,79.708,79.708,0,0,0,18.56836,4.47754Z"/><path d="M88.23584,93.90088a48.10489,48.10489,0,0,1-16.16016-7.60547,38.36221,38.36221,0,0,1-10.6792-11.80469l5.207-2.98144a32.40343,32.40343,0,0,0,9.03125,9.95556,42.05833,42.05833,0,0,0,14.12939,6.63428Z"/><path d="M141.56152,173.44629c-2.915-2.76074-18.18164-12.71484-39.57714-10.96484-13.32667,1.08789-21.5752,7.1748-23.78614,9.01464l-6.75586-7.35742.52881-.53515,52.92334-57.00489,7.32813,6.80274L95.1709,153.31152a59.446,59.446,0,0,1,5.999-.79687c24.80371-2.02735,42.53125,9.18262,47.26856,13.67187Z"/><path d="M122.45605,170.26855l-9.98632-.5371a43.21035,43.21035,0,0,1,3.81347-15.53711,48.31344,48.31344,0,0,1,11.94239-16.08692l6.67382,7.44727a38.38984,38.38984,0,0,0-9.50488,12.76074A33.22622,33.22622,0,0,0,122.45605,170.26855Z"/></svg>