<svg xmlns="http://www.w3.org/2000/svg" viewBox="0 0 200 200" id="khu!x" data-name="khu!x"><title>khu!x</title><path d="M110.4375,175.01758a31.04036,31.04036,0,0,1-18.70215-6.249,25.28544,25.28544,0,0,1-5.646-5.81347c-6.44092-9.25781-6.45069-22.54785-3.603-31.61133,2.22363-7.07812,6.18408-11.98828,11.15185-13.8252,6.96192-2.56835,15.98194.93848,20.98389,8.15723,5.71094,8.23633,3.09375,17.65723,2.1084,21.2041a38.026,38.026,0,0,1-11.10742,17.541,19.05694,19.05694,0,0,0,13.06836-1.35156c5.31543-2.87305,11.457-10.9043,10.52734-32.85547a54.88459,54.88459,0,0,0-4.01953-18.33692l9.26855-3.7539a64.80881,64.80881,0,0,1,4.74121,21.665c.92286,21.77148-4.38085,35.92773-15.76367,42.07812A27.38885,27.38885,0,0,1,110.4375,175.01758ZM98.50439,126.67285a4.06063,4.06063,0,0,0-1.40136.22559c-1.91016.707-3.85645,3.55859-5.07666,7.44336-2.11182,6.72168-2.00977,16.748,2.272,22.90234a14.77792,14.77792,0,0,0,1.76709,2.0918c3.06934-2.21192,8.915-7.49805,11.02051-15.09864.71191-2.56152,2.35644-8.48242-.68262-12.86523C104.28418,128.31445,100.92676,126.67285,98.50439,126.67285Z"/><rect x="90.5" y="14" width="43" height="6"/><path d="M124.833,92.04932l-9.1211-4.09864c10.624-23.64355,15.48536-38.686,8.89161-45.60791-3.72071-3.90576-11.84571-4.55713-21.74024-1.73877C94.04541,43.1167,90.3125,50.69385,88.73291,56.57373c-.62305,3.89453-1.19482,8.126-1.20312,8.18506l-9.95508-.68652a42.92828,42.92828,0,0,1,1.373-9.63331c.23487-1.44287.47608-2.83251.70215-3.96777,1.39844-7.03369,2.50635-14.11084,3.29248-21.03515L92.87891,30.564q-.21753,1.91676-.4668,3.84668a29.19711,29.19711,0,0,1,7.71094-3.42382c13.72754-3.91309,25.29394-2.28858,31.7207,4.45849C143.44141,47.62012,135.89844,67.42432,124.833,92.04932Z"/><path d="M141.96484,78.84961a89.70568,89.70568,0,0,1-20.90039-5.05469,73.22954,73.22954,0,0,1-8.47461-3.83887l4.71094-8.82031a63.3052,63.3052,0,0,0,7.31445,3.31055,79.708,79.708,0,0,0,18.56836,4.47754Z"/><path d="M63.54717,97.00323c-.18946,0-.37891-.002-.56934-.00635l.08887-3.999a18.89653,18.89653,0,0,0,8.30859-1.63135,20.94321,20.94321,0,0,0,5.75244-3.91944,10.9588,10.9588,0,0,1-1.88525-1.41015c-.94629-.88428-3.45947-3.23389-3.38721-6.852a8.66356,8.66356,0,0,1,6.27637-7.896c2.88721-.77588,6.73193-.0332,8.166,2.55371.94335,1.70166.96582,4.03614.06542,6.75049a22.09014,22.09014,0,0,1-2.90576,5.56885l-.2124,3.14355a13.79928,13.79928,0,0,1-2.07715-.30029,25.40042,25.40042,0,0,1-8.147,6.00684A22.85223,22.85223,0,0,1,63.54717,97.00323Zm16.835-22.00391A4.48162,4.48162,0,0,0,75.8543,79.265c-.03663,1.834,1.41992,3.1958,2.11962,3.85009a7.35291,7.35291,0,0,0,1.87452,1.25586,18.68512,18.68512,0,0,0,2.71826-5.03711c.60742-1.832.51855-3.03613.23291-3.55175A3.1954,3.1954,0,0,0,80.38213,74.99932Z"/></svg>