<svg xmlns="http://www.w3.org/2000/svg" viewBox="0 0 200 200" id="khuh" data-name="khuh"><title>khuh</title><path d="M124.833,92.04932l-9.1211-4.09864c10.624-23.64355,15.48536-38.686,8.89161-45.60791-3.72071-3.90576-11.84571-4.55713-21.74024-1.73877C94.04541,43.1167,90.3125,50.69385,88.73291,56.57373c-.62305,3.89453-1.19482,8.126-1.20312,8.18506l-9.95508-.68652a42.92828,42.92828,0,0,1,1.373-9.63331c.23487-1.44287.47608-2.83251.70215-3.96777,1.39844-7.03369,2.50635-14.11084,3.29248-21.03515L92.87891,30.564q-.21753,1.91676-.4668,3.84668a29.19711,29.19711,0,0,1,7.71094-3.42382c13.72754-3.91309,25.29394-2.28858,31.7207,4.45849C143.44141,47.62012,135.89844,67.42432,124.833,92.04932Z"/><path d="M141.96484,78.84961a89.70568,89.70568,0,0,1-20.90039-5.05469,73.22954,73.22954,0,0,1-8.47461-3.83887l4.71094-8.82031a63.3052,63.3052,0,0,0,7.31445,3.31055,79.708,79.708,0,0,0,18.56836,4.47754Z"/><path d="M63.54717,97.00323c-.18946,0-.37891-.002-.56934-.00635l.08887-3.999a18.89653,18.89653,0,0,0,8.30859-1.63135,20.94321,20.94321,0,0,0,5.75244-3.91944,10.9588,10.9588,0,0,1-1.88525-1.41015c-.94629-.88428-3.45947-3.23389-3.38721-6.852a8.66356,8.66356,0,0,1,6.27637-7.896c2.88721-.77588,6.73193-.0332,8.166,2.55371.94335,1.70166.96582,4.03614.06542,6.75049a22.09014,22.09014,0,0,1-2.90576,5.56885l-.2124,3.14355a13.79928,13.79928,0,0,1-2.07715-.30029,25.40042,25.40042,0,0,1-8.147,6.00684A22.85223,22.85223,0,0,1,63.54717,97.00323Zm16.835-22.00391A4.48162,4.48162,0,0,0,75.8543,79.265c-.03663,1.834,1.41992,3.1958,2.11962,3.85009a7.35291,7.35291,0,0,0,1.87452,1.25586,18.68512,18.68512,0,0,0,2.71826-5.03711c.60742-1.832.51855-3.03613.23291-3.55175A3.1954,3.1954,0,0,0,80.38213,74.99932Z"/><path d="M127.22559,172.04785l-9.123-4.0957c10.61621-23.64453,15.47363-38.68848,8.88379-45.61133-3.7168-3.90625-11.834-4.55566-21.71289-1.73633-8.73194,2.49024-12.47217,9.86524-14.07422,15.70508-.63867,3.96484-1.23584,8.38867-1.24414,8.44824L80,144.07227a42.994,42.994,0,0,1,1.37158-9.63184c.23487-1.44336.47608-2.833.70166-3.96875,1.39649-7.02637,2.50342-14.10352,3.29-21.03516l9.93652,1.127q-.21751,1.916-.46582,3.84375a29.15692,29.15692,0,0,1,7.69727-3.41993c13.72461-3.91308,25.27637-2.2871,31.69922,4.459C145.81738,127.62109,138.28125,147.42383,127.22559,172.04785Z"/></svg>