<svg data-name="Qaqawqiloli itik" xmlns="http://www.w3.org/2000/svg" viewBox="0 0 200 200"><title>k</title><path d="M85.86523,174.08105l-5.16015-8.5664c.36767-.2207.8916-.50977,1.54053-.86328,4.94775-2.69532,18.09082-9.85645,18.17236-22.95313.06933-11.22461-13.41895-22.85449-22.55713-27.17871l4.11523-9.1123c4.73487,2.03711,36.4751,16.125,53.02393,34.54882V110h10v60H135v-8.67285c.001-9.58789-12.29-20.9043-26.88867-30.50488a27.43239,27.43239,0,0,1,2.30664,10.93847c-.11817,18.99414-17.63281,28.53614-23.38818,31.67188C86.54,173.7002,86.14307,173.91309,85.86523,174.08105Z"/><rect x="90.5" y="14" width="43" height="6"/><path d="M101.93848,95c-11.56885,0-21.8418-3.0918-25.77784-7.811l7.67872-6.40527c1.25732,1.50586,8.31005,4.40088,19.00341,4.2085,14.03614-.23,29.47852-7.67969,31.833-21.47315a26.01111,26.01111,0,0,0-9.45117-24.11181c-4.74512-3.73731-12.58008-5.166-22.05176-4.01807-4.29053.519-11.65722,4.1001-13.89941,5.314L84.51367,31.9082c1.05567-.57129,10.51514-5.60693,17.458-6.44677,8.585-1.0376,20.66406-.8252,29.44043,6.09033a35.78789,35.78789,0,0,1,13.12109,33.6499c-3.27148,19.16357-23.36718,29.4917-41.52636,29.78955C102.65039,94.99707,102.293,95,101.93848,95Z"/><path d="M88.23584,60.90088a48.10489,48.10489,0,0,1-16.16016-7.60547,38.36221,38.36221,0,0,1-10.6792-11.80469l5.207-2.98144a32.40343,32.40343,0,0,0,9.03125,9.95556,42.05833,42.05833,0,0,0,14.12939,6.63428Z"/></svg>