<svg xmlns="http://www.w3.org/2000/svg" viewBox="0 0 200 200" id="ki!y" data-name="ki!y"><title>ki!y</title><path d="M 111.06055 24.042969 C 94.974996 25.331251 82.300781 34.849609 82.300781 34.849609 L 88.128906 42.974609 C 88.128906 42.974609 107.81635 29.604062 124.58594 35.576172 C 133.01483 38.577928 135.67071 43.429847 136.04688 49.556641 C 136.42304 55.683434 133.58119 63.218855 128.87891 68.839844 C 113.11492 87.683735 89.960703 88.28393 79.919922 83.810547 L 75.849609 92.945312 C 90.941674 99.66915 117.86188 97.59379 136.54883 75.255859 C 142.70721 67.894287 146.60714 58.386751 146.02734 48.943359 C 145.44755 39.499967 139.44813 30.252848 127.93945 26.154297 C 122.16307 24.097167 116.4224 23.613541 111.06055 24.042969 z "/><path d="M88.23584,60.90088a48.10489,48.10489,0,0,1-16.16016-7.60547,38.36221,38.36221,0,0,1-10.6792-11.80469l5.207-2.98144a32.40343,32.40343,0,0,0,9.03125,9.95556,42.05833,42.05833,0,0,0,14.12939,6.63428Z"/><rect x="90.5" y="14" width="43" height="6"/><path d="M110.09277,175h-.17968c-9.97657-.04395-18.10108-3.74023-22.88868-10.41992-5.87207-8.19336-8.06836-19.53809-6.5288-33.71973a61.703,61.703,0,0,1,7.01953-23.30664l8.72168,4.89258A52.15739,52.15739,0,0,0,90.437,131.94141c-1.26562,11.65918.32031,20.68066,4.71485,26.81347C98.8291,163.88379,105.2373,164.98633,110.002,165c6.708-.01953,11.9795-2.23535,14.85059-6.24414,4.39551-6.1377,5.98242-15.15918,4.71582-26.81543a52.25319,52.25319,0,0,0-5.80078-19.49707l8.72461-4.88672a61.80615,61.80615,0,0,1,7.01758,23.30274c1.54,14.17675-.65528,25.52148-6.52637,33.71875-4.78418,6.68066-12.90918,10.37792-22.89063,10.42187Z"/></svg>