<svg xmlns="http://www.w3.org/2000/svg" viewBox="0 0 200 200" id="ki" data-name="ki"><title>ki</title><path d="M 120.39844 51.056641 C 99.07097 50.757649 81.302734 65.992188 81.302734 65.992188 L 87.671875 73.703125 C 87.671875 73.703125 111.33469 55.001836 131.76367 63.376953 C 142.02627 67.584226 145.87152 75.077558 146.36719 84.371094 C 146.86286 93.664629 143.20451 104.5367 137.34375 112.60156 C 118.00218 139.21705 90.354937 139.95576 77.988281 133.61328 L 73.423828 142.51172 C 91.165356 151.6108 123.50424 148.65694 145.43359 118.48047 C 152.58348 108.64167 157.00306 96.016487 156.35352 83.837891 C 155.70397 71.659295 149.18044 59.707482 135.55859 54.123047 C 130.43237 52.021486 125.32016 51.125639 120.39844 51.056641 z " id="path914"/><path d="M76.11279,93.36572a48.17194,48.17194,0,0,1-17.17431-9.498A45.55822,45.55822,0,0,1,47.73145,69.313L53.126,66.687a39.6029,39.6029,0,0,0,9.7417,12.646,42.12337,42.12337,0,0,0,15.01953,8.30127Z"/></svg>