<svg xmlns="http://www.w3.org/2000/svg" viewBox="0 0 200 200" id="ko&apos;" data-name="ko&apos;"><title>ko'</title><path d="M 120.39844 51.056641 C 99.07097 50.757649 81.302734 65.992188 81.302734 65.992188 L 87.671875 73.703125 C 87.671875 73.703125 111.33469 55.001836 131.76367 63.376953 C 142.02627 67.584226 145.87152 75.077558 146.36719 84.371094 C 146.86286 93.664629 143.20451 104.5367 137.34375 112.60156 C 118.00218 139.21705 90.354937 139.95576 77.988281 133.61328 L 73.423828 142.51172 C 91.165356 151.6108 123.50424 148.65694 145.43359 118.48047 C 152.58348 108.64167 157.00306 96.016487 156.35352 83.837891 C 155.70397 71.659295 149.18044 59.707482 135.55859 54.123047 C 130.43237 52.021486 125.32016 51.125639 120.39844 51.056641 z " id="path914"/><path d="M62.74561,101a18,18,0,1,1,18-18A18.02031,18.02031,0,0,1,62.74561,101Zm0-30a12,12,0,1,0,12,12A12.01375,12.01375,0,0,0,62.74561,71Z"/><path d="M 25.923828 50.5 L 25.923828 83.5 L 31.923828 83.5 L 31.923828 56.5 L 58.923828 56.5 L 58.923828 50.5 L 25.923828 50.5 z "/></svg>