<svg data-name="Galilqiloli itik" xmlns="http://www.w3.org/2000/svg" viewBox="0 0 200 200"><title>ks</title><path d="M101.98633,175c-11.57031,0-21.84424-3.0918-25.78076-7.81055l7.67871-6.40625c1.25732,1.50684,8.34521,4.375,19.00342,4.21,14.03613-.23046,29.47753-7.68066,31.832-21.47461a26.01024,26.01024,0,0,0-9.45118-24.11132c-4.74414-3.73828-12.57714-5.166-22.05175-4.01758-4.29248.51855-11.48926,4.01172-13.89991,5.31445l-4.75878-8.7959c1.05615-.57129,10.51562-5.60742,17.45849-6.44629,8.583-1.03808,20.66113-.82617,29.44043,6.08985a35.789,35.789,0,0,1,13.12012,33.64941c-3.27149,19.16406-23.36621,29.49219-41.52539,29.79Q102.51709,175,101.98633,175Z"/><path d="M139.23633,171.84961a44.6835,44.6835,0,0,1-14.88672-6.69238,34.96575,34.96575,0,0,1-10.02148-10.58594l8.57617-5.14258a25.0312,25.0312,0,0,0,7.19531,7.54688,35.19669,35.19669,0,0,0,11.57422,5.1748Z"/><rect x="80.5" y="14" width="47" height="6"/><path d="M141.56055,93.4458C138.64648,90.68457,123.38184,80.73,101.98438,82.481c-13.32667,1.08838-21.57569,7.17529-23.78614,9.01465l-6.75586-7.35645.84815-.85889.30322-.22607C104.50293,59.26172,117.85547,43.35352,122.01465,35H75V25h58.55859v5c0,9.75635-11.09472,24.481-31.74511,42.46436,24.46972-1.77784,41.92871,9.272,46.626,13.72265Z"/><path d="M130.23438,90.26709l-9.98633-.53418a43.17663,43.17663,0,0,1,3.81347-15.53809,48.30194,48.30194,0,0,1,11.94239-16.08789l6.67382,7.44825a38.36127,38.36127,0,0,0-9.50488,12.75976A33.20485,33.20485,0,0,0,130.23438,90.26709Z"/><path d="M53.54717,64c-.18946,0-.37891-.002-.56934-.00635l.08887-3.999a18.89639,18.89639,0,0,0,8.30859-1.63135,20.943,20.943,0,0,0,5.75244-3.91943,10.9594,10.9594,0,0,1-1.88525-1.41016c-.94629-.88428-3.45947-3.23389-3.38721-6.852a8.66358,8.66358,0,0,1,6.27637-7.896c2.88721-.77587,6.73193-.0332,8.166,2.55372.94335,1.70166.96582,4.03613.06542,6.75048a22.09,22.09,0,0,1-2.90576,5.56885l-.2124,3.14356a13.7993,13.7993,0,0,1-2.07715-.3003,25.40012,25.40012,0,0,1-8.147,6.00684A22.85223,22.85223,0,0,1,53.54717,64Zm16.835-22.00391a4.48166,4.48166,0,0,0-4.52783,4.26563c-.03663,1.834,1.41992,3.1958,2.11962,3.8501a7.35317,7.35317,0,0,0,1.87452,1.25586,18.68512,18.68512,0,0,0,2.71826-5.03711c.60742-1.832.51855-3.03614.23291-3.55176A3.19544,3.19544,0,0,0,70.38213,41.99609Z"/></svg>