<svg data-name="Hekalqilotontli 5" xmlns="http://www.w3.org/2000/svg" viewBox="0 0 200 200"><title>ks</title><polygon points="29.423 85 23.423 85 23.423 52 56.423 52 56.423 58 29.423 58 29.423 85"/><rect x="71.34277" y="37" width="60" height="6"/><path d="M151.28711,148.34863c-3.83106-4.24707-23.82031-19.55957-51.64014-16.90527a52.83251,52.83251,0,0,0-31.15869,13.88281l-7.30957-6.80664.99512-1.17969.28808-.251C105.31445,99.69727,123.99316,73.45166,128.00879,60H65V50h73.86035v5c0,14.59961-16.30957,38.44629-45.57715,67.23926,1.74121-.31836,3.54541-.57227,5.4126-.751,31.42041-3.00293,54.437,13.97754,60.01709,20.16309Z"/><path d="M134.59082,145.50586l-9.99023-.459a70.58938,70.58938,0,0,1,19.50488-45.6045l7.23633,6.90235a60.58508,60.58508,0,0,0-16.751,39.16113Z"/></svg>