<svg xmlns="http://www.w3.org/2000/svg" viewBox="0 0 200 200" id="ksi!d" data-name="ksi!d"><title>ksi!d</title><path d="M141.56055,93.4458C138.64648,90.68457,123.38184,80.73,101.98438,82.481c-13.32667,1.08838-21.57569,7.17529-23.78614,9.01465l-6.75586-7.35645.84815-.85889.30322-.22607C104.50293,59.26172,117.85547,43.35352,122.01465,35H75V25h58.55859v5c0,9.75635-11.09472,24.481-31.74511,42.46436,24.46972-1.77784,41.92871,9.272,46.626,13.72265Z"/><path d="M130.23438,90.26709l-9.98633-.53418a43.17663,43.17663,0,0,1,3.81347-15.53809,48.30194,48.30194,0,0,1,11.94239-16.08789l6.67382,7.44825a38.36127,38.36127,0,0,0-9.50488,12.75976A33.20485,33.20485,0,0,0,130.23438,90.26709Z"/><path d="M78.23584,60.90088a48.10489,48.10489,0,0,1-16.16016-7.60547,38.36221,38.36221,0,0,1-10.6792-11.80469l5.207-2.98144a32.40343,32.40343,0,0,0,9.03125,9.95556,42.05833,42.05833,0,0,0,14.12939,6.63428Z"/><rect x="80.5" y="14" width="47" height="6"/><path d="M116,173.50586a39.91736,39.91736,0,0,1-.31348-55.90723c.21192-.21679.42481-.42871.64063-.63867-10.20117.85352-23.57715,2.07324-40.82422,3.81738l-1.00586-9.94921c53.61523-5.4209,69.73633-5.8125,70.39648-5.82715l.21485,9.998c-.11621.00293-13.35352.4834-22.27735,9.59571a30.11273,30.11273,0,0,0-8.30957,23.251,30.79639,30.79639,0,0,0,8.60743,18.64844Z"/><path d="M125.05078,145.83594c-7.99609,0-16.02344-.36817-23.93359-1.09864-4.79248-.44238-9.63037-1.02636-14.37842-1.73535l1.47754-9.89062c4.564.68262,9.21338,1.24316,13.81982,1.66894a251.41886,251.41886,0,0,0,28.23047,1.001l.209,9.99805Q127.76708,145.83642,125.05078,145.83594Z"/></svg>