<svg xmlns="http://www.w3.org/2000/svg" viewBox="0 0 200 200" id="ksi!g" data-name="ksi!g"><title>ksi!g</title><path d="M101.98633,175c-11.57031,0-21.84424-3.0918-25.78076-7.81055l7.67871-6.40625c1.25732,1.50684,8.34521,4.375,19.00342,4.21,14.03613-.23046,29.47753-7.68066,31.832-21.47461a26.01024,26.01024,0,0,0-9.45118-24.11132c-4.74414-3.73828-12.57714-5.166-22.05175-4.01758-4.29248.51855-11.48926,4.01172-13.89991,5.31445l-4.75878-8.7959c1.05615-.57129,10.51562-5.60742,17.45849-6.44629,8.583-1.03808,20.66113-.82617,29.44043,6.08985a35.789,35.789,0,0,1,13.12012,33.64941c-3.27149,19.16406-23.36621,29.49219-41.52539,29.79Q102.51709,175,101.98633,175Z"/><path d="M139.23633,171.84961a44.6835,44.6835,0,0,1-14.88672-6.69238,34.96575,34.96575,0,0,1-10.02148-10.58594l8.57617-5.14258a25.0312,25.0312,0,0,0,7.19531,7.54688,35.19669,35.19669,0,0,0,11.57422,5.1748Z"/><rect x="80.5" y="14" width="47" height="6"/><path d="M141.56055,93.4458C138.64648,90.68457,123.38184,80.73,101.98438,82.481c-13.32667,1.08838-21.57569,7.17529-23.78614,9.01465l-6.75586-7.35645.84815-.85889.30322-.22607C104.50293,59.26172,117.85547,43.35352,122.01465,35H75V25h58.55859v5c0,9.75635-11.09472,24.481-31.74511,42.46436,24.46972-1.77784,41.92871,9.272,46.626,13.72265Z"/><path d="M130.23438,90.26709l-9.98633-.53418a43.17663,43.17663,0,0,1,3.81347-15.53809,48.30194,48.30194,0,0,1,11.94239-16.08789l6.67382,7.44825a38.36127,38.36127,0,0,0-9.50488,12.75976A33.20485,33.20485,0,0,0,130.23438,90.26709Z"/><path d="M78.23584,60.90088a48.10489,48.10489,0,0,1-16.16016-7.60547,38.36221,38.36221,0,0,1-10.6792-11.80469l5.207-2.98144a32.40343,32.40343,0,0,0,9.03125,9.95556,42.05833,42.05833,0,0,0,14.12939,6.63428Z"/></svg>