<svg xmlns="http://www.w3.org/2000/svg" viewBox="0 0 200 200" id="ksic" data-name="ksic"><title>ksic</title><path d="M85.00195,174.89844l-2.0039-9.79688a44.21139,44.21139,0,0,0,7.72168-2.31054,18.19289,18.19289,0,0,1-2.59082-3.79c-.709-1.26563-2.7837-4.97364-.86084-11.59961.93506-3.28223,4.43164-9.01758,11.55957-9.55176,7.84814-.60059,14.186,3.81055,15.0708,10.47656a16.02305,16.02305,0,0,1-2.13867,10.04883q.36181-.04834.73535-.10547c5.45019-.81348,10.85254-4.57519,14.45215-10.06348,3.67089-5.59667,4.92968-11.96875,3.4541-17.48144-1.749-6.53613-7.82129-14.17969-17.01856-15.51465-7.29883-1.05664-13.36914,2.20606-15.63916,3.66016L92.3501,110.4502a33.28687,33.28687,0,0,1,22.47021-5.13672c13.75,1.99707,22.585,12.90234,25.24121,22.82519,2.21192,8.26172.4795,17.5752-4.75293,25.55176-5.21386,7.9502-12.99121,13.22363-21.335,14.46973a39.77987,39.77987,0,0,1-12.374.291A50.21526,50.21526,0,0,1,85.00195,174.89844Zm15.1958-27.10059c-.207,0-.41357.00781-.61816.02344a3.21864,3.21864,0,0,0-2.71094,2.37695c-.75342,2.59766-.2539,3.49024-.04052,3.8711.07324.13086.13574.24511.18554.34179a6.93027,6.93027,0,0,0,2.76856,2.97852c2.97656-2.63477,4.50976-5.44043,4.20312-7.748C103.82031,148.39844,102.01172,147.79785,100.19775,147.79785Z"/><path d="M141.56055,93.4458C138.64648,90.68457,123.38184,80.73,101.98438,82.481c-13.32667,1.08838-21.57569,7.17529-23.78614,9.01465l-6.75586-7.35645.84815-.85889.30322-.22607C104.50293,59.26172,117.85547,43.35352,122.01465,35H75V25h58.55859v5c0,9.75635-11.09472,24.481-31.74511,42.46436,24.46972-1.77784,41.92871,9.272,46.626,13.72265Z"/><path d="M130.23438,90.26709l-9.98633-.53418a43.17663,43.17663,0,0,1,3.81347-15.53809,48.30194,48.30194,0,0,1,11.94239-16.08789l6.67382,7.44825a38.36127,38.36127,0,0,0-9.50488,12.75976A33.20485,33.20485,0,0,0,130.23438,90.26709Z"/><path d="M78.23584,60.90088a48.10489,48.10489,0,0,1-16.16016-7.60547,38.36221,38.36221,0,0,1-10.6792-11.80469l5.207-2.98144a32.40343,32.40343,0,0,0,9.03125,9.95556,42.05833,42.05833,0,0,0,14.12939,6.63428Z"/></svg>