<svg xmlns="http://www.w3.org/2000/svg" viewBox="0 0 200 200" id="kso!y" data-name="kso!y"><title>kso!y</title><path d="M110.09277,175h-.17968c-9.97657-.04395-18.10108-3.74023-22.88868-10.41992-5.87207-8.19336-8.06836-19.53809-6.5288-33.71973a61.703,61.703,0,0,1,7.01953-23.30664l8.72168,4.89258A52.15739,52.15739,0,0,0,90.437,131.94141c-1.26562,11.65918.32031,20.68066,4.71485,26.81347C98.8291,163.88379,105.2373,164.98633,110.002,165c6.708-.01953,11.9795-2.23535,14.85059-6.24414,4.39551-6.1377,5.98242-15.15918,4.71582-26.81543a52.25319,52.25319,0,0,0-5.80078-19.49707l8.72461-4.88672a61.80615,61.80615,0,0,1,7.01758,23.30274c1.54,14.17675-.65528,25.52148-6.52637,33.71875-4.78418,6.68066-12.90918,10.37792-22.89063,10.42187Z"/><rect x="80.5" y="14" width="47" height="6"/><path d="M141.56055,93.4458C138.64648,90.68457,123.38184,80.73,101.98438,82.481c-13.32667,1.08838-21.57569,7.17529-23.78614,9.01465l-6.75586-7.35645.84815-.85889.30322-.22607C104.50293,59.26172,117.85547,43.35352,122.01465,35H75V25h58.55859v5c0,9.75635-11.09472,24.481-31.74511,42.46436,24.46972-1.77784,41.92871,9.272,46.626,13.72265Z"/><path d="M130.23438,90.26709l-9.98633-.53418a43.17663,43.17663,0,0,1,3.81347-15.53809,48.30194,48.30194,0,0,1,11.94239-16.08789l6.67382,7.44825a38.36127,38.36127,0,0,0-9.50488,12.75976A33.20485,33.20485,0,0,0,130.23438,90.26709Z"/><path d="M65,65A14,14,0,1,1,79,51,14.01572,14.01572,0,0,1,65,65Zm0-22a8,8,0,1,0,8,8A8.00917,8.00917,0,0,0,65,43Z"/></svg>