<svg xmlns="http://www.w3.org/2000/svg" viewBox="0 0 200 200" id="ku!&apos;" data-name="ku!&apos;"><title>ku!'</title><path d="M 120.39844 51.056641 C 99.07097 50.757649 81.302734 65.992188 81.302734 65.992188 L 87.671875 73.703125 C 87.671875 73.703125 111.33469 55.001836 131.76367 63.376953 C 142.02627 67.584226 145.87152 75.077558 146.36719 84.371094 C 146.86286 93.664629 143.20451 104.5367 137.34375 112.60156 C 118.00218 139.21705 90.354937 139.95576 77.988281 133.61328 L 73.423828 142.51172 C 91.165356 151.6108 123.50424 148.65694 145.43359 118.48047 C 152.58348 108.64167 157.00306 96.016487 156.35352 83.837891 C 155.70397 71.659295 149.18044 59.707482 135.55859 54.123047 C 130.43237 52.021486 125.32016 51.125639 120.39844 51.056641 z " id="path914"/><path d="M46.99238,101c-.25928,0-.51855-.00293-.7793-.00879l.13282-5.998A25.81867,25.81867,0,0,0,57.55732,92.792a28.07891,28.07891,0,0,0,7.48145-5.0664,15.1351,15.1351,0,0,1-2.28223-1.75342c-1.31445-1.22852-4.80566-4.4917-4.70508-9.54785a12.09537,12.09537,0,0,1,8.76172-11.02539c4.03711-1.08448,9.42481-.03077,11.44434,3.61328,1.32422,2.38916,1.36132,5.648.1084,9.42431a30.73317,30.73317,0,0,1-4.25684,8.02442l-.26758,4.0415a19.00229,19.00229,0,0,1-2.72656-.38183,34.87325,34.87325,0,0,1-11.08887,8.14013A31.4444,31.4444,0,0,1,46.99238,101ZM69.93525,70.99707A5.82921,5.82921,0,0,0,64.05049,76.544c-.04786,2.38037,1.80761,4.11376,2.80371,5.04541a9.61569,9.61569,0,0,0,2.26172,1.55615,24.71961,24.71961,0,0,0,3.55566-6.59815c.80078-2.415.70019-3.97314.33789-4.62646C72.77021,71.48926,71.43427,70.99707,69.93525,70.99707Z"/><rect x="83.34277" y="37" width="60" height="6"/><path d="M 25.923828 50.5 L 25.923828 83.5 L 31.923828 83.5 L 31.923828 56.5 L 58.923828 56.5 L 58.923828 50.5 L 25.923828 50.5 z "/></svg>