<svg xmlns="http://www.w3.org/2000/svg" viewBox="0 0 200 200" id="kukh" data-name="kukh"><title>kukh</title><path d="M 111.06055 24.042969 C 94.974996 25.331251 82.300781 34.849609 82.300781 34.849609 L 88.128906 42.974609 C 88.128906 42.974609 107.81635 29.604062 124.58594 35.576172 C 133.01483 38.577928 135.67071 43.429847 136.04688 49.556641 C 136.42304 55.683434 133.58119 63.218855 128.87891 68.839844 C 113.11492 87.683735 89.960703 88.28393 79.919922 83.810547 L 75.849609 92.945312 C 90.941674 99.66915 117.86188 97.59379 136.54883 75.255859 C 142.70721 67.894287 146.60714 58.386751 146.02734 48.943359 C 145.44755 39.499967 139.44813 30.252848 127.93945 26.154297 C 122.16307 24.097167 116.4224 23.613541 111.06055 24.042969 z "/><path d="M63.54717,64c-.18946,0-.37891-.002-.56934-.00635l.08887-3.999a18.89639,18.89639,0,0,0,8.30859-1.63135,20.943,20.943,0,0,0,5.75244-3.91943,10.9594,10.9594,0,0,1-1.88525-1.41016c-.94629-.88428-3.45947-3.23389-3.38721-6.852a8.66358,8.66358,0,0,1,6.27637-7.896c2.88721-.77587,6.73193-.0332,8.166,2.55372.94335,1.70166.96582,4.03613.06542,6.75048a22.09,22.09,0,0,1-2.90576,5.56885l-.2124,3.14356a13.7993,13.7993,0,0,1-2.07715-.3003,25.40012,25.40012,0,0,1-8.147,6.00684A22.85223,22.85223,0,0,1,63.54717,64Zm16.835-22.00391a4.48166,4.48166,0,0,0-4.52783,4.26563c-.03663,1.834,1.41992,3.1958,2.11962,3.8501a7.35317,7.35317,0,0,0,1.87452,1.25586,18.68512,18.68512,0,0,0,2.71826-5.03711c.60742-1.832.51855-3.03614.23291-3.55176A3.19544,3.19544,0,0,0,80.38213,41.99609Z"/><path d="M124.833,172.0498l-9.1211-4.0996c10.624-23.64258,15.48536-38.68555,8.89161-45.6084-3.72071-3.90528-11.84571-4.55664-21.74024-1.73731-8.81787,2.5127-12.55078,10.08985-14.13086,15.96973-.623,3.89551-1.19433,8.125-1.20263,8.18457l-9.95508-.68652a42.93215,42.93215,0,0,1,1.373-9.63282c.23487-1.44336.47608-2.833.70215-3.96875,1.39893-7.03515,2.50684-14.1123,3.29248-21.03418l9.93653,1.127q-.21753,1.91748-.4668,3.84765a29.16583,29.16583,0,0,1,7.71094-3.42383c13.73144-3.91406,25.293-2.28906,31.7207,4.457C143.44141,127.62109,135.89844,147.4248,124.833,172.0498Z"/><path d="M141.96582,158.84961a89.67367,89.67367,0,0,1-20.90234-5.05566,73.17372,73.17372,0,0,1-8.47461-3.8379l4.71289-8.82031a62.98587,62.98587,0,0,0,7.3125,3.30957,79.64571,79.64571,0,0,0,18.56836,4.47852Z"/></svg>