<svg xmlns="http://www.w3.org/2000/svg" viewBox="0 0 200 200" id="kul" data-name="kul"><title>kul</title><path d="M104.9502,174.72852l-3.248-9.457c16.02246-5.5039,24.88183-12.23828,26.55371-16.4707.43359-1.09668.18652-1.56152.05371-1.81152-.96582-1.82227-4.77344-3.77442-7.043-4.52051-8.57422-2.81738-20.65674-.98535-27.38574,2.416a6.973,6.973,0,0,0-2.84717,2.19726,1.299,1.299,0,0,0,.14453-.33105L86.5,144.98633l-4.85742-1.18555c.2124-.87109,2.59424-9.29883,20.50586-36.54687l8.35547,5.49218c-5.60743,8.53223-9.606,15.09278-12.44385,20.04786,8.14209-2.08106,18.05908-2.543,26.32861.1748,1.57813.51855,9.61231,3.40625,12.75684,9.33691a11.83877,11.83877,0,0,1,.41113,10.169C133.16016,163.60254,115.24023,171.19434,104.9502,174.72852Z"/><path d="M101.93848,95c-11.56885,0-21.8418-3.0918-25.77784-7.811l7.67872-6.40527c1.25732,1.50586,8.31005,4.40088,19.00341,4.2085,14.03614-.23,29.47852-7.67969,31.833-21.47315a26.01111,26.01111,0,0,0-9.45117-24.11181c-4.74512-3.73731-12.58008-5.166-22.05176-4.01807-4.29053.519-11.65722,4.1001-13.89941,5.314L84.51367,31.9082c1.05567-.57129,10.51514-5.60693,17.458-6.44677,8.585-1.0376,20.66406-.8252,29.44043,6.09033a35.78789,35.78789,0,0,1,13.12109,33.6499c-3.27148,19.16357-23.36718,29.4917-41.52636,29.78955C102.65039,94.99707,102.293,95,101.93848,95Z"/><path d="M63.54717,64c-.18946,0-.37891-.002-.56934-.00635l.08887-3.999a18.89639,18.89639,0,0,0,8.30859-1.63135,20.943,20.943,0,0,0,5.75244-3.91943,10.9594,10.9594,0,0,1-1.88525-1.41016c-.94629-.88428-3.45947-3.23389-3.38721-6.852a8.66358,8.66358,0,0,1,6.27637-7.896c2.88721-.77587,6.73193-.0332,8.166,2.55372.94335,1.70166.96582,4.03613.06542,6.75048a22.09,22.09,0,0,1-2.90576,5.56885l-.2124,3.14356a13.7993,13.7993,0,0,1-2.07715-.3003,25.40012,25.40012,0,0,1-8.147,6.00684A22.85223,22.85223,0,0,1,63.54717,64Zm16.835-22.00391a4.48166,4.48166,0,0,0-4.52783,4.26563c-.03663,1.834,1.41992,3.1958,2.11962,3.8501a7.35317,7.35317,0,0,0,1.87452,1.25586,18.68512,18.68512,0,0,0,2.71826-5.03711c.60742-1.832.51855-3.03614.23291-3.55176A3.19544,3.19544,0,0,0,80.38213,41.99609Z"/></svg>