<svg xmlns="http://www.w3.org/2000/svg" viewBox="0 0 200 200"><title>k</title><path d="M100.1582,150c-13.94091,0-26.21191-4.43848-30.79931-11.21875l8.28222-5.60352c1.96192,2.9004,10.84668,7.06446,23.64893,6.81055,17.46582-.35254,36.7373-12.19043,39.77539-34.13379,1.98145-14.30761-2.94629-30-12.26172-39.04883-7.57129-7.35351-18.91992-7.4414-27.10351-6.22216-5.25342.7832-14.28711,6.19873-17.0376,8.03418l-5.55078-8.31836c1.27588-.85108,12.70654-8.353,21.11328-9.60645,14.938-2.22656,27.231.86377,35.54541,8.93994,11.668,11.3335,17.63476,30.01514,15.20117,47.59278-3.80762,27.49414-27.77344,42.32324-49.47949,42.76074C101.04688,149.99512,100.60107,150,100.1582,150Z"/><polygon points="56.423 54 50.423 54 50.423 87 83.423 87 83.423 81 56.423 81 56.423 54"/></svg>