<svg data-name="Senzonqiloli itik" xmlns="http://www.w3.org/2000/svg" viewBox="0 0 200 200"><title>l</title><path d="M141.55566,173.625c-2.91308-2.76855-18.17578-12.75586-39.57031-10.99805-13.32422,1.0918-21.57129,7.19629-23.78125,9.041l-6.76758-7.34668.52881-.53711,52.92334-57.18066,7.33985,6.793L95.14209,153.46484a59.05073,59.05073,0,0,1,6.02686-.80468c24.79882-2.02442,42.53613,9.21191,47.27539,13.71484Z"/><rect x="100.5" y="14" width="35" height="6"/><path d="M104.9502,94.729l-3.248-9.458c16.02246-5.50342,24.88183-12.2378,26.55371-16.47071.43262-1.09521.18652-1.56054.05371-1.81054-.96387-1.81934-4.77539-3.77393-7.04687-4.52246-8.57129-2.8169-20.65332-.9834-27.38184,2.41748A6.973,6.973,0,0,0,91.03369,67.082a1.30732,1.30732,0,0,0,.14453-.33105L86.5,64.98584l-4.85742-1.18555c.21289-.87109,2.59424-9.29785,20.50488-36.54687l8.35645,5.49316c-5.6211,8.55274-9.61914,15.106-12.45313,20.04932,8.14356-2.08008,18.06445-2.5459,26.33692.17236,1.583.521,9.61816,3.41553,12.75781,9.33789a11.8376,11.8376,0,0,1,.41113,10.16846C133.16016,83.603,115.24121,91.19434,104.9502,94.729Z"/><path d="M95.22656,89.23193A35.70909,35.70909,0,0,1,83.0835,83.46729,29.078,29.078,0,0,1,75.02,74.48242l5.2168-2.96484A23.11436,23.11436,0,0,0,86.65723,78.648a29.75223,29.75223,0,0,0,10.11621,4.78711Z"/><path d="M81.59863,95.89893a35.717,35.717,0,0,1-12.144-5.76465,29.0655,29.0655,0,0,1-8.063-8.98584l5.2168-2.96387a23.10689,23.10689,0,0,0,6.42041,7.13037,29.71958,29.71958,0,0,0,10.11572,4.78613Z"/></svg>