<svg data-name="Weyakqiloli 6" xmlns="http://www.w3.org/2000/svg" viewBox="0 0 200 200"><title>l</title><rect x="89.34277" y="37" width="60" height="6"/><path d="M105.61621,149.44434l-4.58008-8.88868c21.02149-10.831,29.58887-24.52929,26.97754-31.918-1.66308-4.70508-7.33984-7.54688-7.39648-7.5752C112.543,97.083,101.07324,99.74609,94.646,104.61816a9.30847,9.30847,0,0,0-3.32862,4.19629l.03174-.11621-9.78418-2.02246c.08057-.49609,2.18115-12.605,20.18115-53.68262l9.16016,4.01368c-6.93164,15.8164-11.43457,27.19287-14.34277,35.15039,8.63476-3.5669,19.46289-4.50635,28.47461-.06446.958.47217,9.45019,4.856,12.40332,13.21289C142.40234,119.34277,129.6123,137.08105,105.61621,149.44434Z"/></svg>