<svg xmlns="http://www.w3.org/2000/svg" viewBox="0 0 200 200" id="le" data-name="le"><title>le</title><path d="M105.61621,149.44434l-4.58008-8.88868c21.02149-10.831,29.58887-24.52929,26.97754-31.918-1.66308-4.70508-7.33984-7.54688-7.39648-7.5752C112.543,97.083,101.07324,99.74609,94.646,104.61816a9.30847,9.30847,0,0,0-3.32862,4.19629l.03174-.11621-9.78418-2.02246c.08057-.49609,2.18115-12.605,20.18115-53.68262l9.16016,4.01368c-6.93164,15.8164-11.43457,27.19287-14.34277,35.15039,8.63476-3.5669,19.46289-4.50635,28.47461-.06446.958.47217,9.45019,4.856,12.40332,13.21289C142.40234,119.34277,129.6123,137.08105,105.61621,149.44434Z"/><path d="M97.94971,138.50781a47.03145,47.03145,0,0,1-17.002-9.585,45.71421,45.71421,0,0,1-11.08642-14.665l5.41406-2.58593a39.74333,39.74333,0,0,0,9.64014,12.75,41.06994,41.06994,0,0,0,14.84863,8.36718Z"/><path d="M78.44824,149.84863a47.01659,47.01659,0,0,1-17.00244-9.584,45.7232,45.7232,0,0,1-11.08594-14.66406L55.773,123.0127a39.75886,39.75886,0,0,0,9.64062,12.751,41.03672,41.03672,0,0,0,14.84815,8.36621Z"/></svg>