<svg xmlns="http://www.w3.org/2000/svg" viewBox="0 0 200 200" id="li&apos;" data-name="li&apos;"><title>li'</title><polygon points="59.423 85 53.423 85 53.423 52 86.423 52 86.423 58 59.423 58 59.423 85"/><path d="M105.61621,149.44434l-4.58008-8.88868c21.02149-10.831,29.58887-24.52929,26.97754-31.918-1.66308-4.70508-7.33984-7.54688-7.39648-7.5752C112.543,97.083,101.07324,99.74609,94.646,104.61816a9.30847,9.30847,0,0,0-3.32862,4.19629l.03174-.11621-9.78418-2.02246c.08057-.49609,2.18115-12.605,20.18115-53.68262l9.16016,4.01368c-6.93164,15.8164-11.43457,27.19287-14.34277,35.15039,8.63476-3.5669,19.46289-4.50635,28.47461-.06446.958.47217,9.45019,4.856,12.40332,13.21289C142.40234,119.34277,129.6123,137.08105,105.61621,149.44434Z"/><path d="M88.1123,138.36523a48.17729,48.17729,0,0,1-17.17382-9.498,45.54447,45.54447,0,0,1-11.207-14.55469l5.39453-2.625a39.58165,39.58165,0,0,0,9.7417,12.64453,42.13624,42.13624,0,0,0,15.02,8.30274Z"/></svg>