<svg xmlns="http://www.w3.org/2000/svg" viewBox="0 0 200 200" id="ma!ny" data-name="ma!ny"><title>ma!ny</title><path d="M135.87793,95c-6.41406,0-10.35156-4.62158-12.03906-6.60254-3.01953-3.53223-4.50879-8.90234-5.12989-11.8042-2-.09082-3.95312-.1582-5.917-.16211-3.89844.00049-7.83789.12549-11.60644.39551-2.61573.1875-5.24854.31641-8.03565.45264-1.876.09179-3.77832.18506-5.69336.29834l-2.03759.11914c-3.32227.19287-6.75782.39258-10.00489.6626l-.82812-9.96583c3.37109-.28027,6.86963-.48339,10.25293-.68017l2.02636-.11817c1.94922-.11572,3.88623-.21044,5.7959-.30371,2.729-.13379,5.30664-.25976,7.80908-.43945,4.01221-.2876,8.20069-.42236,12.34229-.4209,1.62012.00342,3.23828.04688,4.84082.10889-.17969-3.39746-.21875-6.81543-.13086-10.59912.23535-10.0752,3.03223-26.12647,3.15137-26.80469l9.84961,1.727c-.02735.15918-2.78614,15.99072-3.00293,25.31055-.09278,3.95117-.042,7.38428.1748,10.85547a68.83086,68.83086,0,0,1,10.583,1.42724c2.10449.46485,7.71484,1.70508,10.41113,6.77051,3.16211,5.94531-.3291,12.10986-.7373,12.793a14.19057,14.19057,0,0,1-11.94824,6.97949C135.96191,94.99951,135.91992,95,135.87793,95Zm-6.69434-17.82666a14.39212,14.39212,0,0,0,2.26172,4.73291C132.83691,83.53955,134.21973,85,135.88574,85l.02735-.00049a4.31632,4.31632,0,0,0,3.44921-2.10058c.35059-.62061.89844-2.22315.499-2.97461-.24121-.45264-1.08789-1.11719-3.749-1.70508A54.81427,54.81427,0,0,0,129.18359,77.17334Z"/><rect x="72" y="14" width="60" height="6"/><path d="M81.05322,174.98145l-.85156-9.9629c27.15967-2.32226,40.11377-2.00585,50.12354-1.52539l5.28613.25293c-.08692-5.55468-.15137-14.76464.11328-24.63574.167-6.23242.82324-13.96094,1.65332-23.74512l.48926-5.78222,9.96484.834-.48926,5.79395c-.81738,9.623-1.46289,17.22461-1.62207,23.167-.415,15.5127-.00488,29.32812,0,29.46582l.16407,5.40527-16.03809-.76757C120.16113,173.01855,107.60059,172.71484,81.05322,174.98145Z"/><path d="M154.43652,161.51855a96.24223,96.24223,0,0,1-21.68359-5.03417,77.77882,77.77882,0,0,1-8.79-3.82129l4.56055-8.90039a67.61045,67.61045,0,0,0,7.65527,3.32714,86.2326,86.2326,0,0,0,19.42774,4.49707Z"/></svg>