<svg id="Mawkazalistli" xmlns="http://www.w3.org/2000/svg" viewBox="0 0 200 200"><title>00171-mawkazalistli</title><path d="M59.03955,137.918,50.91846,132.082A187.31466,187.31466,0,0,1,79.74268,100.2832l.3247-.28369c-.10742-.09375-.21582-.188-.32373-.28222a186.185,186.185,0,0,1-28.82812-31.8042l8.127-5.82618A176.20911,176.20911,0,0,0,86.31787,92.18213q.71412.62256,1.40576,1.2251c10.856-9.08887,20.01075-15.03223,31.57617-14.41846,19.0459,1.0249,29.3584,7.65039,30.6504,19.69238a12.37185,12.37185,0,0,1-.001,2.64112c-.60449,5.63867-4.8125,18.85253-30.75586,19.69336-11.709.38476-20.78223-5.49805-31.4668-14.42676q-.69213.60351-1.40771,1.22754A177.28465,177.28465,0,0,0,59.03955,137.918ZM95.458,99.99512c9.29883,7.63476,15.56738,11.27051,23.41113,11.02636,12.74414-.41308,20.44824-4.33886,21.1377-10.769a2.32712,2.32712,0,0,0,.001-.50146c-.25781-2.39893-1.04-9.68946-21.24511-10.77686C111.17871,88.56445,104.88281,92.23535,95.458,99.99512Z"/></svg>