<svg xmlns="http://www.w3.org/2000/svg" viewBox="0 0 200 200" id="mo!&apos;" data-name="mo!&apos;"><title>mo!'</title><path d="M143.26661,150c-7.8125,0-12.4043-6.28613-14.61817-9.31836-4.1914-5.72168-5.90722-15.0918-6.38379-18.2334-2.89257-.16113-5.82128-.29492-8.67382-.30176-5.07178.00684-10.105.18848-14.9668.59473-3.36182.28125-6.749.47461-10.335.67969-2.4082.13769-4.85059.27734-7.30957.44726l-2.62305.17872c-4.27392.29-8.69336.58886-12.87451.99414l-.96387-9.95313c4.32471-.41894,8.81739-.72363,13.16211-1.01855l2.61084-.17774c2.49854-.17187,4.98-.31445,7.42774-.4541,3.51806-.20117,6.8413-.39062,10.07177-.66113,5.146-.43067,10.4751-.63477,15.82471-.62989,2.61133.00684,5.21973.10743,7.793.24122-.34863-5.94043-.44043-11.793-.30859-18.40088.29785-14.875,3.86035-38.72217,4.01171-39.73L135,55.74316c-.03614.24024-3.61719,24.21875-3.90235,38.44385-.13672,6.85987-.03222,12.69776.36133,18.769a77.97157,77.97157,0,0,1,14.75879,2.21094c2.54492.65528,9.335,2.40332,12.39941,9.12207,3.3711,7.39258-.4375,15.28516-.88379,16.16114-2.92773,5.74414-8.543,9.49023-14.30566,9.54882C143.374,149.999,143.32032,150,143.26661,150Zm-10.74414-26.94238c.7041,3.585,2.09179,8.8457,4.19726,11.7207,1.94141,2.66016,4.03125,5.25391,6.60254,5.2207,2.05567-.0205,4.26465-1.66308,5.5-4.08691.59082-1.1875,1.88184-4.874.69727-7.47363-.95508-2.0918-3.47168-2.98926-5.80664-3.59082A65.28459,65.28459,0,0,0,132.52247,123.05762Z"/><path d="M144.2666,150c-7.8125,0-12.4043-6.28613-14.61816-9.31836-4.19141-5.72168-5.90723-15.0918-6.38379-18.2334-2.89258-.16113-5.82129-.29492-8.67383-.30176-5.06348.01172-10.10547.18848-14.9668.59473-3.36132.28125-6.74853.47461-10.335.67969-2.40869.13769-4.85058.27734-7.30957.44726l-2.623.17872c-4.27393.29-8.69336.58886-12.87452.99414l-.96386-9.95313c4.3247-.41894,8.81738-.72363,13.16211-1.01855l2.61084-.17774c2.498-.17187,4.98-.31445,7.42773-.4541,3.51807-.20117,6.84131-.39062,10.07178-.66113,5.146-.43067,10.45947-.63867,15.8247-.62989,2.61133.00684,5.21973.10743,7.793.24122-.34863-5.94043-.44043-11.793-.30859-18.40088.29785-14.875,3.86035-38.72217,4.01172-39.73L136,55.74316c-.03613.24024-3.61719,24.21875-3.90234,38.44385-.13672,6.85987-.03223,12.69776.36132,18.769a77.97144,77.97144,0,0,1,14.75879,2.21094c2.54493.65528,9.335,2.40332,12.39942,9.12207,3.37109,7.39258-.4375,15.28516-.88379,16.16114-2.92774,5.74414-8.543,9.49023-14.30567,9.54882C144.374,149.999,144.32031,150,144.2666,150Zm-10.74414-26.94238c.7041,3.585,2.0918,8.8457,4.19629,11.7207,1.94238,2.66016,4.043,5.25391,6.60352,5.2207,2.05566-.0205,4.26464-1.66308,5.5-4.08691.59082-1.1875,1.88183-4.874.69726-7.47363-.95508-2.0918-3.47168-2.98926-5.80664-3.59082A65.28442,65.28442,0,0,0,133.52246,123.05762Z"/><path d="M92.74561,101a18,18,0,1,1,18.00048-18A18.02031,18.02031,0,0,1,92.74561,101Zm0-30a12,12,0,1,0,12.00048,12A12.01375,12.01375,0,0,0,92.74561,71Z"/><rect x="58.34277" y="37" width="80" height="6"/><polygon points="63.423 85 57.423 85 57.423 52 90.423 52 90.423 58 63.423 58 63.423 85"/></svg>