<svg xmlns="http://www.w3.org/2000/svg" viewBox="0 0 200 200" id="muy" data-name="muy"><title>muy</title><path d="M110.09277,175h-.17968c-9.97657-.04395-18.10108-3.74023-22.88868-10.41992-5.87207-8.19336-8.06836-19.53809-6.5288-33.71973a61.703,61.703,0,0,1,7.01953-23.30664l8.72168,4.89258A52.15739,52.15739,0,0,0,90.437,131.94141c-1.26562,11.65918.32031,20.68066,4.71485,26.81347C98.8291,163.88379,105.2373,164.98633,110.002,165c6.708-.01953,11.9795-2.23535,14.85059-6.24414,4.39551-6.1377,5.98242-15.15918,4.71582-26.81543a52.25319,52.25319,0,0,0-5.80078-19.49707l8.72461-4.88672a61.80615,61.80615,0,0,1,7.01758,23.30274c1.54,14.17675-.65528,25.52148-6.52637,33.71875-4.78418,6.68066-12.90918,10.37792-22.89063,10.42187Z"/><path d="M135.87793,95c-6.41406,0-10.35156-4.62158-12.03906-6.60254-3.01953-3.53223-4.50879-8.90234-5.12989-11.8042-2-.09082-3.95312-.1582-5.917-.16211-3.89844.00049-7.83789.12549-11.60644.39551-2.61573.1875-5.24854.31641-8.03565.45264-1.876.09179-3.77832.18506-5.69336.29834l-2.03759.11914c-3.32227.19287-6.75782.39258-10.00489.6626l-.82812-9.96583c3.37109-.28027,6.86963-.48339,10.25293-.68017l2.02636-.11817c1.94922-.11572,3.88623-.21044,5.7959-.30371,2.729-.13379,5.30664-.25976,7.80908-.43945,4.01221-.2876,8.20069-.42236,12.34229-.4209,1.62012.00342,3.23828.04688,4.84082.10889-.17969-3.39746-.21875-6.81543-.13086-10.59912.23535-10.0752,3.03223-26.12647,3.15137-26.80469l9.84961,1.727c-.02735.15918-2.78614,15.99072-3.00293,25.31055-.09278,3.95117-.042,7.38428.1748,10.85547a68.83086,68.83086,0,0,1,10.583,1.42724c2.10449.46485,7.71484,1.70508,10.41113,6.77051,3.16211,5.94531-.3291,12.10986-.7373,12.793a14.19057,14.19057,0,0,1-11.94824,6.97949C135.96191,94.99951,135.91992,95,135.87793,95Zm-6.69434-17.82666a14.39212,14.39212,0,0,0,2.26172,4.73291C132.83691,83.53955,134.21973,85,135.88574,85l.02735-.00049a4.31632,4.31632,0,0,0,3.44921-2.10058c.35059-.62061.89844-2.22315.499-2.97461-.24121-.45264-1.08789-1.11719-3.749-1.70508A54.81427,54.81427,0,0,0,129.18359,77.17334Z"/><path d="M78.54717,64c-.18946,0-.37891-.002-.56934-.00635l.08887-3.999a18.89639,18.89639,0,0,0,8.30859-1.63135,20.943,20.943,0,0,0,5.75244-3.91943,10.9594,10.9594,0,0,1-1.88525-1.41016c-.94629-.88428-3.45947-3.23389-3.38721-6.852a8.66358,8.66358,0,0,1,6.27637-7.896c2.88721-.77587,6.73193-.0332,8.166,2.55372.94335,1.70166.96582,4.03613.06542,6.75048a22.09,22.09,0,0,1-2.90576,5.56885l-.2124,3.14356a13.7993,13.7993,0,0,1-2.07715-.3003,25.40012,25.40012,0,0,1-8.147,6.00684A22.85223,22.85223,0,0,1,78.54717,64Zm16.835-22.00391a4.48166,4.48166,0,0,0-4.52783,4.26563c-.03663,1.834,1.41992,3.1958,2.11962,3.8501a7.35317,7.35317,0,0,0,1.87452,1.25586,18.68512,18.68512,0,0,0,2.71826-5.03711c.60742-1.832.51855-3.03614.23291-3.55176A3.19544,3.19544,0,0,0,95.38213,41.99609Z"/></svg>