<svg data-name="Neliwqiloli itik" xmlns="http://www.w3.org/2000/svg" viewBox="0 0 200 200"><title>n</title><path d="M80.44141,174.98047l-.88282-9.96094c26.21387-2.32129,38.71778-2.00586,48.38184-1.52637l4.90039.24317c-.083-5.55274-.14551-14.75586.10938-24.6211.16015-6.22168.792-13.93847,1.59277-23.708l.47363-5.80957,9.9668.80468-.47363,5.82032c-.78809,9.61425-1.41016,17.208-1.56348,23.15039-.39941,15.51758-.00391,29.33886,0,29.47656l.1582,5.4082-15.66015-.77636C118.11719,173.0166,106.02148,172.71484,80.44141,174.98047Z"/><rect x="76" y="14" width="70" height="6"/><path d="M80.44141,94.98047l-.88282-9.96094c26.207-2.32178,38.71485-2.00439,48.38086-1.52588l4.90137.24317c-.083-5.55323-.14551-14.75733.10938-24.62207.16015-6.22217.792-13.93946,1.59277-23.71l.47363-5.80713,9.9668.80468-.47363,5.81885c-.78809,9.61475-1.41016,17.209-1.56348,23.15137-.39941,15.51758-.00391,29.33935,0,29.47705l.1582,5.40869L127.44434,93.481C118.1123,93.019,106.0127,92.71631,80.44141,94.98047Z"/></svg>