<svg data-name="Runalqiloli itik" xmlns="http://www.w3.org/2000/svg" viewBox="0 0 200 200"><title>n</title><path d="M150.19336,161.53223a151.06188,151.06188,0,0,1-27.33691-4.93457,113.84292,113.84292,0,0,1-11.0586-3.74024l3.70313-9.28906a103.80863,103.80863,0,0,0,10.084,3.4082,140.9999,140.9999,0,0,0,25.52051,4.59668Z"/><path d="M104.9502,174.72852l-3.248-9.457c16.02246-5.5039,24.88183-12.23828,26.55371-16.4707.43359-1.09668.18652-1.56152.05371-1.81152-.96582-1.82227-4.77344-3.77442-7.043-4.52051-8.57422-2.81738-20.65674-.98535-27.38574,2.416a6.973,6.973,0,0,0-2.84717,2.19726,1.299,1.299,0,0,0,.14453-.33105L86.5,144.98633l-4.85742-1.18555c.2124-.87109,2.59424-9.29883,20.50586-36.54687l8.35547,5.49218c-5.60743,8.53223-9.606,15.09278-12.44385,20.04786,8.14209-2.08106,18.05908-2.543,26.32861.1748,1.57813.51855,9.61231,3.40625,12.75684,9.33691a11.83877,11.83877,0,0,1,.41113,10.169C133.16016,163.60254,115.24023,171.19434,104.9502,174.72852Z"/><rect x="76" y="14" width="70" height="6"/><path d="M80.44141,94.98047l-.88282-9.96094c26.207-2.32178,38.71485-2.00439,48.38086-1.52588l4.90137.24317c-.083-5.55323-.14551-14.75733.10938-24.62207.16015-6.22217.792-13.93946,1.59277-23.71l.47363-5.80713,9.9668.80468-.47363,5.81885c-.78809,9.61475-1.41016,17.209-1.56348,23.15137-.39941,15.51758-.00391,29.33935,0,29.47705l.1582,5.40869L127.44434,93.481C118.1123,93.019,106.0127,92.71631,80.44141,94.98047Z"/><path d="M110.22656,56.23193A35.70473,35.70473,0,0,1,98.0835,50.46729,29.078,29.078,0,0,1,90.02,41.48242l5.2168-2.96484a23.11436,23.11436,0,0,0,6.42041,7.13037,29.7435,29.7435,0,0,0,10.11621,4.78711Z"/><path d="M96.59863,62.89893a35.717,35.717,0,0,1-12.144-5.76465,29.0655,29.0655,0,0,1-8.063-8.98584l5.2168-2.96387a23.10689,23.10689,0,0,0,6.42041,7.13037,29.71958,29.71958,0,0,0,10.11572,4.78613Z"/></svg>