<svg xmlns="http://www.w3.org/2000/svg" viewBox="0 0 200 200" id="nez&apos;" data-name="nez&apos;"><title>nez'</title><path d="M80.44141,94.98047l-.88282-9.96094c26.207-2.32178,38.71485-2.00439,48.38086-1.52588l4.90137.24317c-.083-5.55323-.14551-14.75733.10938-24.62207.16015-6.22217.792-13.93946,1.59277-23.71l.47363-5.80713,9.9668.80468-.47363,5.81885c-.78809,9.61475-1.41016,17.209-1.56348,23.15137-.39941,15.51758-.00391,29.33935,0,29.47705l.1582,5.40869L127.44434,93.481C118.1123,93.019,106.0127,92.71631,80.44141,94.98047Z"/><path d="M110.22656,56.23193A35.70473,35.70473,0,0,1,98.0835,50.46729,29.078,29.078,0,0,1,90.02,41.48242l5.2168-2.96484a23.11436,23.11436,0,0,0,6.42041,7.13037,29.7435,29.7435,0,0,0,10.11621,4.78711Z"/><path d="M96.59863,62.89893a35.717,35.717,0,0,1-12.144-5.76465,29.0655,29.0655,0,0,1-8.063-8.98584l5.2168-2.96387a23.10689,23.10689,0,0,0,6.42041,7.13037,29.71958,29.71958,0,0,0,10.11572,4.78613Z"/><path d="M141.56152,173.44629c-2.915-2.76074-18.18164-12.71484-39.57714-10.96484-13.32667,1.08789-21.5752,7.1748-23.78614,9.01464l-6.75586-7.35742.52881-.53515,52.92334-57.00489,7.32813,6.80274L95.1709,153.31152a59.446,59.446,0,0,1,5.999-.79687c24.80371-2.02735,42.53125,9.18262,47.26856,13.67187Z"/><path d="M122.45605,170.26855l-9.98632-.5371a43.21035,43.21035,0,0,1,3.81347-15.53711,48.31344,48.31344,0,0,1,11.94239-16.08692l6.67382,7.44727a38.38984,38.38984,0,0,0-9.50488,12.76074A33.22622,33.22622,0,0,0,122.45605,170.26855Z"/></svg>