<svg xmlns="http://www.w3.org/2000/svg" viewBox="0 0 200 200" id="nid" data-name="nid"><title>nid</title><path d="M116,173.50586a39.91736,39.91736,0,0,1-.31348-55.90723c.21192-.21679.42481-.42871.64063-.63867-10.20117.85352-23.57715,2.07324-40.82422,3.81738l-1.00586-9.94921c53.61523-5.4209,69.73633-5.8125,70.39648-5.82715l.21485,9.998c-.11621.00293-13.35352.4834-22.27735,9.59571a30.11273,30.11273,0,0,0-8.30957,23.251,30.79639,30.79639,0,0,0,8.60743,18.64844Z"/><path d="M125.05078,145.83594c-7.99609,0-16.02344-.36817-23.93359-1.09864-4.79248-.44238-9.63037-1.02636-14.37842-1.73535l1.47754-9.89062c4.564.68262,9.21338,1.24316,13.81982,1.66894a251.41886,251.41886,0,0,0,28.23047,1.001l.209,9.99805Q127.76708,145.83642,125.05078,145.83594Z"/><path d="M80.44141,94.98047l-.88282-9.96094c26.207-2.32178,38.71485-2.00439,48.38086-1.52588l4.90137.24317c-.083-5.55323-.14551-14.75733.10938-24.62207.16015-6.22217.792-13.93946,1.59277-23.71l.47363-5.80713,9.9668.80468-.47363,5.81885c-.78809,9.61475-1.41016,17.209-1.56348,23.15137-.39941,15.51758-.00391,29.33935,0,29.47705l.1582,5.40869L127.44434,93.481C118.1123,93.019,106.0127,92.71631,80.44141,94.98047Z"/><path d="M103.23633,60.90088a48.1029,48.1029,0,0,1-16.16065-7.60547,38.36221,38.36221,0,0,1-10.6792-11.80469l5.207-2.98144a32.40343,32.40343,0,0,0,9.03125,9.95556,42.0603,42.0603,0,0,0,14.1289,6.63428Z"/></svg>