<svg id="Nimanilistli" xmlns="http://www.w3.org/2000/svg" viewBox="0 0 200 200"><title>00169-nimanilistli</title><path d="M145.71094,147.57031C103.10645,76.4668,89.30859,62.877,85.20361,60.42334c-8.18066,8.14014-23.10937,24.02686-31.5498,33.062l-7.30762-6.82617c8.936-9.56592,25.11231-26.77588,33.05225-34.55811A7.021,7.021,0,0,1,81.07129,50.855c6.1499-3.28613,12.82959,3.57959,15.68164,6.51025,4.39844,4.52,9.75,11.23877,16.35937,20.53956,10.6377,14.96972,24.49122,36.67919,41.17676,64.5249Z"/><path d="M96.95467,138.417c-1.1843-7.32245-1.95763-21.76443,6.17479-36.2162,5.64884-10.029,24.37863-24.6815,27.96659-27.065l5.53372,8.32962c-4.41865,2.93565-20.689,16.36734-24.78721,23.641a46.13918,46.13918,0,0,0-5.01607,29.71329Z"/></svg>