<svg xmlns="http://www.w3.org/2000/svg" viewBox="0 0 200 200" id="no!&apos;" data-name="no!&apos;"><title>no!'</title><polygon points="63.423 85 57.423 85 57.423 52 90.423 52 90.423 58 63.423 58 63.423 85"/><rect x="68.34277" y="37" width="90" height="6"/><path d="M70.49609,149.97559l-.99218-9.95118c34.88379-3.47558,51.51464-3.00293,64.36425-2.28515l8.292.46289c-.125-7.78125-.27051-22.998.10547-39.45069.21289-9.26074,1.05468-20.8208,2.12011-35.45556l.627-8.6543,9.9746.7168-.62792,8.66357c-1.05567,14.49658-1.88868,25.94678-2.09571,34.9585-.53515,23.34668-.00586,44.17578-.001,44.38379l.1416,5.42383-19.09278-1.06446C120.834,147.02734,104.66406,146.56934,70.49609,149.97559Z"/><path d="M92.74561,101a18,18,0,1,1,18.00048-18A18.02031,18.02031,0,0,1,92.74561,101Zm0-30a12,12,0,1,0,12.00048,12A12.01375,12.01375,0,0,0,92.74561,71Z"/></svg>