<svg data-name="Coalqiloli itik" xmlns="http://www.w3.org/2000/svg" viewBox="0 0 200 200"><title>n</title><path d="M101.94141,175c-11.57032,0-21.84424-3.0918-25.78077-7.81055l7.67872-6.40625c1.25683,1.50684,8.33984,4.375,19.00341,4.21,14.03614-.23046,29.47852-7.68066,31.833-21.47461a26.01026,26.01026,0,0,0-9.45117-24.11132c-4.74512-3.73828-12.57617-5.166-22.05176-4.01758-4.291.51855-11.65722,4.09961-13.89941,5.31348l-4.75977-8.79493c1.05567-.57129,10.51563-5.60742,17.459-6.44629,8.58593-1.03808,20.66113-.82519,29.43945,6.08985a35.78747,35.78747,0,0,1,13.12109,33.64941c-3.27148,19.16406-23.36718,29.49219-41.52636,29.79Q102.47217,175,101.94141,175Z"/><rect x="76" y="14" width="70" height="6"/><path d="M80.44141,94.98047l-.88282-9.96094c26.207-2.32178,38.71485-2.00439,48.38086-1.52588l4.90137.24317c-.083-5.55323-.14551-14.75733.10938-24.62207.16015-6.22217.792-13.93946,1.59277-23.71l.47363-5.80713,9.9668.80468-.47363,5.81885c-.78809,9.61475-1.41016,17.209-1.56348,23.15137-.39941,15.51758-.00391,29.33935,0,29.47705l.1582,5.40869L127.44434,93.481C118.1123,93.019,106.0127,92.71631,80.44141,94.98047Z"/><path d="M90,65a14,14,0,1,1,14-14A14.01572,14.01572,0,0,1,90,65Zm0-22a8,8,0,1,0,8,8A8.00917,8.00917,0,0,0,90,43Z"/></svg>