<svg xmlns="http://www.w3.org/2000/svg" viewBox="0 0 200 200" id="nu!&apos;" data-name="nu!&apos;"><title>nu!'</title><path d="M70.49609,149.97559l-.99218-9.95118c34.88379-3.47558,51.51464-3.00293,64.36425-2.28515l8.292.46289c-.125-7.78125-.27051-22.998.10547-39.45069.21289-9.26074,1.05468-20.8208,2.12011-35.45556l.627-8.6543,9.9746.7168-.62792,8.66357c-1.05567,14.49658-1.88868,25.94678-2.09571,34.9585-.53515,23.34668-.00586,44.17578-.001,44.38379l.1416,5.42383-19.09278-1.06446C120.834,147.02734,104.66406,146.56934,70.49609,149.97559Z"/><path d="M76.99238,101c-.25928,0-.51855-.00293-.7793-.00879l.13282-5.998A25.81867,25.81867,0,0,0,87.55732,92.792a28.07891,28.07891,0,0,0,7.48145-5.0664,15.1351,15.1351,0,0,1-2.28223-1.75342c-1.31445-1.22852-4.80566-4.4917-4.70508-9.54785a12.09537,12.09537,0,0,1,8.76172-11.02539c4.03711-1.08448,9.42481-.03077,11.44434,3.61328,1.32422,2.38916,1.36132,5.648.1084,9.42431a30.73317,30.73317,0,0,1-4.25684,8.02442l-.26758,4.0415a19.00229,19.00229,0,0,1-2.72656-.38183,34.87325,34.87325,0,0,1-11.08887,8.14013A31.4444,31.4444,0,0,1,76.99238,101ZM99.93525,70.99707A5.82921,5.82921,0,0,0,94.05049,76.544c-.04786,2.38037,1.80761,4.11376,2.80371,5.04541a9.61569,9.61569,0,0,0,2.26172,1.55615,24.71961,24.71961,0,0,0,3.55566-6.59815c.80078-2.415.70019-3.97314.33789-4.62646C102.77021,71.48926,101.43427,70.99707,99.93525,70.99707Z"/><rect x="68.34277" y="37" width="90" height="6"/><polygon points="63.423 85 57.423 85 57.423 52 90.423 52 90.423 58 63.423 58 63.423 85"/></svg>