<svg data-name="Coalqiloli itik" xmlns="http://www.w3.org/2000/svg" viewBox="0 0 200 200"><title>ny</title><path d="M101.94141,175c-11.57032,0-21.84424-3.0918-25.78077-7.81055l7.67872-6.40625c1.25683,1.50684,8.33984,4.375,19.00341,4.21,14.03614-.23046,29.47852-7.68066,31.833-21.47461a26.01026,26.01026,0,0,0-9.45117-24.11132c-4.74512-3.73828-12.57617-5.166-22.05176-4.01758-4.291.51855-11.65722,4.09961-13.89941,5.31348l-4.75977-8.79493c1.05567-.57129,10.51563-5.60742,17.459-6.44629,8.58593-1.03808,20.66113-.82519,29.43945,6.08985a35.78747,35.78747,0,0,1,13.12109,33.64941c-3.27148,19.16406-23.36718,29.49219-41.52636,29.79Q102.47217,175,101.94141,175Z"/><path d="M81.05322,94.98193l-.85156-9.96386c27.15381-2.31934,40.11279-2.00293,50.12256-1.52491l5.28711.25293c-.08692-5.55468-.15137-14.76513.11328-24.63623.167-6.23291.82324-13.96191,1.6543-23.74707l.48828-5.78027,9.96484.835-.48926,5.7915c-.81738,9.624-1.46289,17.2251-1.62207,23.16846-.415,15.5127-.00488,29.32861,0,29.46631l.16407,5.40479-16.03809-.76709C120.15723,93.01855,107.59277,92.71436,81.05322,94.98193Z"/><path d="M154.43652,81.519a96.23047,96.23047,0,0,1-21.68359-5.03466,77.52458,77.52458,0,0,1-8.791-3.82227l4.5625-8.89844a67.43133,67.43133,0,0,0,7.6543,3.32569,86.20674,86.20674,0,0,0,19.42774,4.498Z"/><path d="M110.22656,56.23193A35.70473,35.70473,0,0,1,98.0835,50.46729,29.078,29.078,0,0,1,90.02,41.48242l5.2168-2.96484a23.11436,23.11436,0,0,0,6.42041,7.13037,29.7435,29.7435,0,0,0,10.11621,4.78711Z"/><path d="M96.59863,62.89893a35.717,35.717,0,0,1-12.144-5.76465,29.0655,29.0655,0,0,1-8.063-8.98584l5.2168-2.96387a23.10689,23.10689,0,0,0,6.42041,7.13037,29.71958,29.71958,0,0,0,10.11572,4.78613Z"/></svg>