<svg data-name="Nyonilqiloli itik" xmlns="http://www.w3.org/2000/svg" viewBox="0 0 200 200"><title>ny</title><path d="M81.05322,174.98145l-.85156-9.9629c27.15967-2.32226,40.11377-2.00585,50.12354-1.52539l5.28613.25293c-.08692-5.55468-.15137-14.76464.11328-24.63574.167-6.23242.82324-13.96094,1.65332-23.74512l.48926-5.78222,9.96484.834-.48926,5.79395c-.81738,9.623-1.46289,17.22461-1.62207,23.167-.415,15.5127-.00488,29.32812,0,29.46582l.16407,5.40527-16.03809-.76757C120.16113,173.01855,107.60059,172.71484,81.05322,174.98145Z"/><path d="M154.43652,161.51855a96.24223,96.24223,0,0,1-21.68359-5.03417,77.77882,77.77882,0,0,1-8.79-3.82129l4.56055-8.90039a67.61045,67.61045,0,0,0,7.65527,3.32714,86.2326,86.2326,0,0,0,19.42774,4.49707Z"/><path d="M81.05322,94.98193l-.85156-9.96386c27.15381-2.31934,40.11279-2.00293,50.12256-1.52491l5.28711.25293c-.08692-5.55468-.15137-14.76513.11328-24.63623.167-6.23291.82324-13.96191,1.6543-23.74707l.48828-5.78027,9.96484.835-.48926,5.7915c-.81738,9.624-1.46289,17.2251-1.62207,23.16846-.415,15.5127-.00488,29.32861,0,29.46631l.16407,5.40479-16.03809-.76709C120.15723,93.01855,107.59277,92.71436,81.05322,94.98193Z"/><path d="M154.43652,81.519a96.23047,96.23047,0,0,1-21.68359-5.03466,77.52458,77.52458,0,0,1-8.791-3.82227l4.5625-8.89844a67.43133,67.43133,0,0,0,7.6543,3.32569,86.20674,86.20674,0,0,0,19.42774,4.498Z"/></svg>