<svg xmlns="http://www.w3.org/2000/svg" viewBox="0 0 200 200" id="nyi!" data-name="nyi!"><title>nyi!</title><rect x="68.34277" y="37" width="90" height="6"/><path d="M70.49609,149.97559l-.99218-9.95118c34.88379-3.47558,51.51464-3.00293,64.36425-2.28515l8.292.46289c-.125-7.78125-.27051-22.998.10547-39.45069.21289-9.26074,1.05468-20.8208,2.12011-35.45556l.627-8.6543,9.9746.7168-.62792,8.66357c-1.05567,14.49658-1.88868,25.94678-2.09571,34.9585-.53515,23.34668-.00586,44.17578-.001,44.38379l.1416,5.42383-19.09278-1.06446C120.834,147.02734,104.66406,146.56934,70.49609,149.97559Z"/><path d="M164.96875,129.7832a108.43455,108.43455,0,0,1-27.70605-7.50195,92.09109,92.09109,0,0,1-11.17969-5.6709l5.13281-8.582a81.9749,81.9749,0,0,0,9.96191,5.05078,98.47783,98.47783,0,0,0,25.15235,6.79785Z"/><path d="M106.1123,93.36572a48.174,48.174,0,0,1-17.17382-9.498A45.55822,45.55822,0,0,1,77.73145,69.313L83.126,66.687a39.6029,39.6029,0,0,0,9.7417,12.646,42.11716,42.11716,0,0,0,15.02,8.30127Z"/></svg>