<svg xmlns="http://www.w3.org/2000/svg" viewBox="0 0 200 200" id="nyod" data-name="nyod"><title>nyod</title><path d="M81.05322,94.98193l-.85156-9.96386c27.15381-2.31934,40.11279-2.00293,50.12256-1.52491l5.28711.25293c-.08692-5.55468-.15137-14.76513.11328-24.63623.167-6.23291.82324-13.96191,1.6543-23.74707l.48828-5.78027,9.96484.835-.48926,5.7915c-.81738,9.624-1.46289,17.2251-1.62207,23.16846-.415,15.5127-.00488,29.32861,0,29.46631l.16407,5.40479-16.03809-.76709C120.15723,93.01855,107.59277,92.71436,81.05322,94.98193Z"/><path d="M154.43652,81.519a96.23047,96.23047,0,0,1-21.68359-5.03466,77.52458,77.52458,0,0,1-8.791-3.82227l4.5625-8.89844a67.43133,67.43133,0,0,0,7.6543,3.32569,86.20674,86.20674,0,0,0,19.42774,4.498Z"/><path d="M90,65a14,14,0,1,1,14-14A14.01572,14.01572,0,0,1,90,65Zm0-22a8,8,0,1,0,8,8A8.00917,8.00917,0,0,0,90,43Z"/><path d="M116,173.50586a39.91736,39.91736,0,0,1-.31348-55.90723c.21192-.21679.42481-.42871.64063-.63867-10.20117.85352-23.57715,2.07324-40.82422,3.81738l-1.00586-9.94921c53.61523-5.4209,69.73633-5.8125,70.39648-5.82715l.21485,9.998c-.11621.00293-13.35352.4834-22.27735,9.59571a30.11273,30.11273,0,0,0-8.30957,23.251,30.79639,30.79639,0,0,0,8.60743,18.64844Z"/><path d="M125.05078,145.83594c-7.99609,0-16.02344-.36817-23.93359-1.09864-4.79248-.44238-9.63037-1.02636-14.37842-1.73535l1.47754-9.89062c4.564.68262,9.21338,1.24316,13.81982,1.66894a251.41886,251.41886,0,0,0,28.23047,1.001l.209,9.99805Q127.76708,145.83642,125.05078,145.83594Z"/></svg>