<svg xmlns="http://www.w3.org/2000/svg" viewBox="0 0 200 200" id="nyos" data-name="nyos"><title>nyos</title><path d="M141.55566,173.625c-2.91308-2.76855-18.17578-12.75586-39.57031-10.99805-13.32422,1.0918-21.57129,7.19629-23.78125,9.041l-6.76758-7.34668.52881-.53711,52.92334-57.18066,7.33985,6.793L95.14209,153.46484a59.05073,59.05073,0,0,1,6.02686-.80468c24.79882-2.02442,42.53613,9.21191,47.27539,13.71484Z"/><path d="M81.05322,94.98193l-.85156-9.96386c27.15381-2.31934,40.11279-2.00293,50.12256-1.52491l5.28711.25293c-.08692-5.55468-.15137-14.76513.11328-24.63623.167-6.23291.82324-13.96191,1.6543-23.74707l.48828-5.78027,9.96484.835-.48926,5.7915c-.81738,9.624-1.46289,17.2251-1.62207,23.16846-.415,15.5127-.00488,29.32861,0,29.46631l.16407,5.40479-16.03809-.76709C120.15723,93.01855,107.59277,92.71436,81.05322,94.98193Z"/><path d="M154.43652,81.519a96.23047,96.23047,0,0,1-21.68359-5.03466,77.52458,77.52458,0,0,1-8.791-3.82227l4.5625-8.89844a67.43133,67.43133,0,0,0,7.6543,3.32569,86.20674,86.20674,0,0,0,19.42774,4.498Z"/><path d="M90,65a14,14,0,1,1,14-14A14.01572,14.01572,0,0,1,90,65Zm0-22a8,8,0,1,0,8,8A8.00917,8.00917,0,0,0,90,43Z"/></svg>