<svg data-name="Xocilqiloli itik" xmlns="http://www.w3.org/2000/svg" viewBox="0 0 200 200"><title>ny</title><path d="M110.4375,175.01758a31.04036,31.04036,0,0,1-18.70215-6.249,25.28544,25.28544,0,0,1-5.646-5.81347c-6.44092-9.25781-6.45069-22.54785-3.603-31.61133,2.22363-7.07812,6.18408-11.98828,11.15185-13.8252,6.96192-2.56835,15.98194.93848,20.98389,8.15723,5.71094,8.23633,3.09375,17.65723,2.1084,21.2041a38.026,38.026,0,0,1-11.10742,17.541,19.05694,19.05694,0,0,0,13.06836-1.35156c5.31543-2.87305,11.457-10.9043,10.52734-32.85547a54.88459,54.88459,0,0,0-4.01953-18.33692l9.26855-3.7539a64.80881,64.80881,0,0,1,4.74121,21.665c.92286,21.77148-4.38085,35.92773-15.76367,42.07812A27.38885,27.38885,0,0,1,110.4375,175.01758ZM98.50439,126.67285a4.06063,4.06063,0,0,0-1.40136.22559c-1.91016.707-3.85645,3.55859-5.07666,7.44336-2.11182,6.72168-2.00977,16.748,2.272,22.90234a14.77792,14.77792,0,0,0,1.76709,2.0918c3.06934-2.21192,8.915-7.49805,11.02051-15.09864.71191-2.56152,2.35644-8.48242-.68262-12.86523C104.28418,128.31445,100.92676,126.67285,98.50439,126.67285Z"/><path d="M81.05322,94.98193l-.85156-9.96386c27.15381-2.31934,40.11279-2.00293,50.12256-1.52491l5.28711.25293c-.08692-5.55468-.15137-14.76513.11328-24.63623.167-6.23291.82324-13.96191,1.6543-23.74707l.48828-5.78027,9.96484.835-.48926,5.7915c-.81738,9.624-1.46289,17.2251-1.62207,23.16846-.415,15.5127-.00488,29.32861,0,29.46631l.16407,5.40479-16.03809-.76709C120.15723,93.01855,107.59277,92.71436,81.05322,94.98193Z"/><path d="M154.43652,81.519a96.23047,96.23047,0,0,1-21.68359-5.03466,77.52458,77.52458,0,0,1-8.791-3.82227l4.5625-8.89844a67.43133,67.43133,0,0,0,7.6543,3.32569,86.20674,86.20674,0,0,0,19.42774,4.498Z"/><path d="M90,65a14,14,0,1,1,14-14A14.01572,14.01572,0,0,1,90,65Zm0-22a8,8,0,1,0,8,8A8.00917,8.00917,0,0,0,90,43Z"/></svg>