<svg data-name="Zawilqiloli itik" xmlns="http://www.w3.org/2000/svg" viewBox="0 0 200 200"><title>ny</title><path d="M141.56152,173.44629c-2.915-2.76074-18.18164-12.71484-39.57714-10.96484-13.32667,1.08789-21.5752,7.1748-23.78614,9.01464l-6.75586-7.35742.52881-.53515,52.92334-57.00489,7.32813,6.80274L95.1709,153.31152a59.446,59.446,0,0,1,5.999-.79687c24.80371-2.02735,42.53125,9.18262,47.26856,13.67187Z"/><path d="M122.45605,170.26855l-9.98632-.5371a43.21035,43.21035,0,0,1,3.81347-15.53711,48.31344,48.31344,0,0,1,11.94239-16.08692l6.67382,7.44727a38.38984,38.38984,0,0,0-9.50488,12.76074A33.22622,33.22622,0,0,0,122.45605,170.26855Z"/><path d="M81.05322,94.98193l-.85156-9.96386c27.15381-2.31934,40.11279-2.00293,50.12256-1.52491l5.28711.25293c-.08692-5.55468-.15137-14.76513.11328-24.63623.167-6.23291.82324-13.96191,1.6543-23.74707l.48828-5.78027,9.96484.835-.48926,5.7915c-.81738,9.624-1.46289,17.2251-1.62207,23.16846-.415,15.5127-.00488,29.32861,0,29.46631l.16407,5.40479-16.03809-.76709C120.15723,93.01855,107.59277,92.71436,81.05322,94.98193Z"/><path d="M154.43652,81.519a96.23047,96.23047,0,0,1-21.68359-5.03466,77.52458,77.52458,0,0,1-8.791-3.82227l4.5625-8.89844a67.43133,67.43133,0,0,0,7.6543,3.32569,86.20674,86.20674,0,0,0,19.42774,4.498Z"/><path d="M78.54717,64c-.18946,0-.37891-.002-.56934-.00635l.08887-3.999a18.89639,18.89639,0,0,0,8.30859-1.63135,20.943,20.943,0,0,0,5.75244-3.91943,10.9594,10.9594,0,0,1-1.88525-1.41016c-.94629-.88428-3.45947-3.23389-3.38721-6.852a8.66358,8.66358,0,0,1,6.27637-7.896c2.88721-.77587,6.73193-.0332,8.166,2.55372.94335,1.70166.96582,4.03613.06542,6.75048a22.09,22.09,0,0,1-2.90576,5.56885l-.2124,3.14356a13.7993,13.7993,0,0,1-2.07715-.3003,25.40012,25.40012,0,0,1-8.147,6.00684A22.85223,22.85223,0,0,1,78.54717,64Zm16.835-22.00391a4.48166,4.48166,0,0,0-4.52783,4.26563c-.03663,1.834,1.41992,3.1958,2.11962,3.8501a7.35317,7.35317,0,0,0,1.87452,1.25586,18.68512,18.68512,0,0,0,2.71826-5.03711c.60742-1.832.51855-3.03614.23291-3.55176A3.19544,3.19544,0,0,0,95.38213,41.99609Z"/></svg>