<svg xmlns="http://www.w3.org/2000/svg" viewBox="0 0 200 200" id="o!y" data-name="o!y"><title>o!y</title><path d="M110.09277,175h-.17968c-9.97657-.04395-18.10108-3.74023-22.88868-10.41992-5.87207-8.19336-8.06836-19.53809-6.5288-33.71973a61.703,61.703,0,0,1,7.01953-23.30664l8.72168,4.89258A52.15739,52.15739,0,0,0,90.437,131.94141c-1.26562,11.65918.32031,20.68066,4.71485,26.81347C98.8291,163.88379,105.2373,164.98633,110.002,165c6.708-.01953,11.9795-2.23535,14.85059-6.24414,4.39551-6.1377,5.98242-15.15918,4.71582-26.81543a52.25319,52.25319,0,0,0-5.80078-19.49707l8.72461-4.88672a61.80615,61.80615,0,0,1,7.01758,23.30274c1.54,14.17675-.65528,25.52148-6.52637,33.71875-4.78418,6.68066-12.90918,10.37792-22.89063,10.42187Z"/><path d="M109.999,95a35,35,0,1,1,35-35A35.03953,35.03953,0,0,1,109.999,95Zm0-60a25,25,0,1,0,25,25A25.02807,25.02807,0,0,0,109.999,35Z"/><rect x="85.5" y="14" width="47" height="6"/></svg>