<svg xmlns="http://www.w3.org/2000/svg" viewBox="0 0 200 200" id="o&apos;" data-name="o&apos;"><title>o'</title><path d="M109.999,150c-22.88281,0-41.49951-22.42969-41.49951-50S87.11621,50,109.999,50s41.5,22.42969,41.5,50S132.88184,150,109.999,150Zm0-90c-17.36865,0-31.49951,17.94385-31.49951,40,0,22.05566,14.13086,40,31.49951,40,17.36914,0,31.5-17.94434,31.5-40C141.499,77.94385,127.36816,60,109.999,60Z"/><polygon points="49.423 85 43.423 85 43.423 52 76.423 52 76.423 58 49.423 58 49.423 85"/></svg>