<svg data-name="Otonqiloli akopa" xmlns="http://www.w3.org/2000/svg" viewBox="0 0 200 200"><title>o</title><path d="M109.999,95a35,35,0,1,1,35-35A35.03953,35.03953,0,0,1,109.999,95Zm0-60a25,25,0,1,0,25,25A25.02807,25.02807,0,0,0,109.999,35Z"/><path d="M141.55566,173.625c-2.91308-2.76855-18.17578-12.75586-39.57031-10.99805-13.32422,1.0918-21.57129,7.19629-23.78125,9.041l-6.76758-7.34668.52881-.53711,52.92334-57.18066,7.33985,6.793L95.14209,153.46484a59.05073,59.05073,0,0,1,6.02686-.80468c24.79882-2.02442,42.53613,9.21191,47.27539,13.71484Z"/></svg>