<svg data-name="Otonqiloli akopa" xmlns="http://www.w3.org/2000/svg" viewBox="0 0 200 200"><title>o</title><path d="M109.999,95a35,35,0,1,1,35-35A35.03953,35.03953,0,0,1,109.999,95Zm0-60a25,25,0,1,0,25,25A25.02807,25.02807,0,0,0,109.999,35Z"/><path d="M141.56152,173.44629c-2.915-2.76074-18.18164-12.71484-39.57714-10.96484-13.32667,1.08789-21.5752,7.1748-23.78614,9.01464l-6.75586-7.35742.84815-.8584.30322-.22656c31.90918-23.791,45.26172-39.70019,49.4209-48.05371H75V105h58.55859v5c0,9.75684-11.09472,24.48145-31.74609,42.46484,24.46973-1.78125,41.92969,9.27149,46.626,13.72168Z"/><path d="M130.23438,170.2666l-9.98633-.5332a43.17421,43.17421,0,0,1,3.81347-15.53906,48.30323,48.30323,0,0,1,11.94239-16.08692l6.67382,7.44727a38.36619,38.36619,0,0,0-9.50488,12.75976A33.2049,33.2049,0,0,0,130.23438,170.2666Z"/></svg>