<svg data-name="Otonqiloli akopa" xmlns="http://www.w3.org/2000/svg" viewBox="0 0 200 200"><title>o</title><path d="M109.999,95a35,35,0,1,1,35-35A35.03953,35.03953,0,0,1,109.999,95Zm0-60a25,25,0,1,0,25,25A25.02807,25.02807,0,0,0,109.999,35Z"/><path d="M141.55566,173.625c-2.91308-2.76855-18.17578-12.75586-39.57031-10.99805-13.32422,1.0918-21.57129,7.19629-23.78125,9.041l-6.76758-7.34668.84815-.86133.30322-.22656C104.52246,139.34961,117.874,123.37891,122.02344,115H75V105h58.55859v5c0,9.78613-11.10742,24.56348-31.77832,42.6123,24.48731-1.80371,41.96289,9.2959,46.66407,13.7627Z"/></svg>