<svg data-name="Weyakqiloli 3" xmlns="http://www.w3.org/2000/svg" viewBox="0 0 200 200"><title>p</title><rect x="83.34277" y="37" width="60" height="6"/><path d="M96.86426,150.00781a123.04365,123.04365,0,0,1-17.58057-1.30664l1.43262-9.89648c28.60986,4.13574,49.53271-3.05957,53.23389-12.41114.43457-1.09863,2.45019-6.83984-.584-11.7832-5.12012-8.33984-11.36328-16.13379-22.27051-16.73535-.915.01611-5.68164.12109-7.09472.15234l-.51953.09424-1.36231-7.49707-1.10059-1.93017.67969-.38819-.0039-.02344.0664-.0122,5.57422-3.18018c17.48731-12.09912,21.332-18.918,21.35547-20.5459-.45313-.50341-3.89648-3.54589-21.1875-4.356a199.12709,199.12709,0,0,0-22.57324.293l-1.05762-9.94434a205.5429,205.5429,0,0,1,25.35645-.27393c17.87695.981,26.81836,4.42823,28.99218,11.17823,1.501,4.66064.915,12.48339-19.34375,27.666,11.22364,3.27295,18.11524,12.2959,23.01075,20.27051,5.38574,8.77148,2.40429,18.05664,1.3623,20.69336C138.292,142.60059,120.21289,150.00684,96.86426,150.00781Z"/><path d="M46.99238,101c-.25928,0-.51855-.00293-.7793-.00879l.13282-5.998A25.81867,25.81867,0,0,0,57.55732,92.792a28.07891,28.07891,0,0,0,7.48145-5.0664,15.1351,15.1351,0,0,1-2.28223-1.75342c-1.31445-1.22852-4.80566-4.4917-4.70508-9.54785a12.09537,12.09537,0,0,1,8.76172-11.02539c4.03711-1.08448,9.42481-.03077,11.44434,3.61328,1.32422,2.38916,1.36132,5.648.1084,9.42431a30.73317,30.73317,0,0,1-4.25684,8.02442l-.26758,4.0415a19.00229,19.00229,0,0,1-2.72656-.38183,34.87325,34.87325,0,0,1-11.08887,8.14013A31.4444,31.4444,0,0,1,46.99238,101ZM69.93525,70.99707A5.82921,5.82921,0,0,0,64.05049,76.544c-.04786,2.38037,1.80761,4.11376,2.80371,5.04541a9.61569,9.61569,0,0,0,2.26172,1.55615,24.71961,24.71961,0,0,0,3.55566-6.59815c.80078-2.415.70019-3.97314.33789-4.62646C72.77021,71.48926,71.43427,70.99707,69.93525,70.99707Z"/></svg>