<svg xmlns="http://www.w3.org/2000/svg" viewBox="0 0 200 200" id="pe" data-name="pe"><title>pe</title><path d="M96.86426,150.00781a123.04365,123.04365,0,0,1-17.58057-1.30664l1.43262-9.89648c28.60986,4.13574,49.53271-3.05957,53.23389-12.41114.43457-1.09863,2.45019-6.83984-.584-11.7832-5.12012-8.33984-11.36328-16.13379-22.27051-16.73535-.915.01611-5.68164.12109-7.09472.15234l-.51953.09424-1.36231-7.49707-1.10059-1.93017.67969-.38819-.0039-.02344.0664-.0122,5.57422-3.18018c17.48731-12.09912,21.332-18.918,21.35547-20.5459-.45313-.50341-3.89648-3.54589-21.1875-4.356a199.12709,199.12709,0,0,0-22.57324.293l-1.05762-9.94434a205.5429,205.5429,0,0,1,25.35645-.27393c17.87695.981,26.81836,4.42823,28.99218,11.17823,1.501,4.66064.915,12.48339-19.34375,27.666,11.22364,3.27295,18.11524,12.2959,23.01075,20.27051,5.38574,8.77148,2.40429,18.05664,1.3623,20.69336C138.292,142.60059,120.21289,150.00684,96.86426,150.00781Z"/><path d="M85.94971,93.50732a47.02288,47.02288,0,0,1-17.002-9.584A45.72672,45.72672,0,0,1,57.86182,69.25879l5.41308-2.58691a39.78366,39.78366,0,0,0,9.64063,12.751,41.05946,41.05946,0,0,0,14.84863,8.36572Z"/><path d="M66.44824,104.84863a47.00955,47.00955,0,0,1-17.00244-9.584A45.727,45.727,0,0,1,38.35986,80.6001L43.773,78.01318a39.78356,39.78356,0,0,0,9.64062,12.751,41.04888,41.04888,0,0,0,14.84815,8.36523Z"/></svg>