<svg xmlns="http://www.w3.org/2000/svg" viewBox="0 0 200 200" id="piz&apos;" data-name="piz&apos;"><title>piz'</title><path d="M98.916,94.98242a126.83192,126.83192,0,0,1-14.49122-.84717l1.1504-9.93359c25.82128,2.99219,41.38671-2.76514,43.77636-7.5957.26074-.52735,1.46875-3.26612-.2959-5.56592-4.124-5.374-9.17578-10.39746-18.14062-10.79-.75.01025-4.76172.081-5.92871.10156l-.44141.06446-1.10058-7.5459-.94043-2.06055.59961-.27393-.002-.01513.05078-.00733L107.749,48.415c10.56836-5.8501,14.64356-9.53369,16.1709-11.29541-6.37109-2.35352-26.90722-2.47119-34.8291-1.79834l-.84766-9.96387c1.896-.16064,11.59375-.59717,21.1045-.18213,15.55371.68262,22.751,3.07959,24.84179,8.27295,2.23243,5.54688-1.74609,11.335-13.17578,18.71729,7.43164,2.77,12.33985,8.04834,15.97559,12.78662a15.23928,15.23928,0,0,1,1.32519,16.08838C133.40039,90.97607,116.6875,94.98193,98.916,94.98242Zm26.43945-57.10888Z"/><path d="M88.23584,60.90088a48.10489,48.10489,0,0,1-16.16016-7.60547,38.36221,38.36221,0,0,1-10.6792-11.80469l5.207-2.98144a32.40343,32.40343,0,0,0,9.03125,9.95556,42.05833,42.05833,0,0,0,14.12939,6.63428Z"/><path d="M141.56152,173.44629c-2.915-2.76074-18.18164-12.71484-39.57714-10.96484-13.32667,1.08789-21.5752,7.1748-23.78614,9.01464l-6.75586-7.35742.52881-.53515,52.92334-57.00489,7.32813,6.80274L95.1709,153.31152a59.446,59.446,0,0,1,5.999-.79687c24.80371-2.02735,42.53125,9.18262,47.26856,13.67187Z"/><path d="M122.45605,170.26855l-9.98632-.5371a43.21035,43.21035,0,0,1,3.81347-15.53711,48.31344,48.31344,0,0,1,11.94239-16.08692l6.67382,7.44727a38.38984,38.38984,0,0,0-9.50488,12.76074A33.22622,33.22622,0,0,0,122.45605,170.26855Z"/></svg>