<svg xmlns="http://www.w3.org/2000/svg" viewBox="0 0 200 200" id="po!g" data-name="po!g"><title>po!g</title><path d="M101.98633,175c-11.57031,0-21.84424-3.0918-25.78076-7.81055l7.67871-6.40625c1.25732,1.50684,8.34521,4.375,19.00342,4.21,14.03613-.23046,29.47753-7.68066,31.832-21.47461a26.01024,26.01024,0,0,0-9.45118-24.11132c-4.74414-3.73828-12.57714-5.166-22.05175-4.01758-4.29248.51855-11.48926,4.01172-13.89991,5.31445l-4.75878-8.7959c1.05615-.57129,10.51562-5.60742,17.45849-6.44629,8.583-1.03808,20.66113-.82617,29.44043,6.08985a35.789,35.789,0,0,1,13.12012,33.64941c-3.27149,19.16406-23.36621,29.49219-41.52539,29.79Q102.51709,175,101.98633,175Z"/><path d="M139.23633,171.84961a44.6835,44.6835,0,0,1-14.88672-6.69238,34.96575,34.96575,0,0,1-10.02148-10.58594l8.57617-5.14258a25.0312,25.0312,0,0,0,7.19531,7.54688,35.19669,35.19669,0,0,0,11.57422,5.1748Z"/><rect x="90.5" y="14" width="43" height="6"/><path d="M98.916,94.98242a126.83192,126.83192,0,0,1-14.49122-.84717l1.1504-9.93359c25.82128,2.99219,41.38671-2.76514,43.77636-7.5957.26074-.52735,1.46875-3.26612-.2959-5.56592-4.124-5.374-9.17578-10.39746-18.14062-10.79-.75.01025-4.76172.081-5.92871.10156l-.44141.06446-1.10058-7.5459-.94043-2.06055.59961-.27393-.002-.01513.05078-.00733L107.749,48.415c10.56836-5.8501,14.64356-9.53369,16.1709-11.29541-6.37109-2.35352-26.90722-2.47119-34.8291-1.79834l-.84766-9.96387c1.896-.16064,11.59375-.59717,21.1045-.18213,15.55371.68262,22.751,3.07959,24.84179,8.27295,2.23243,5.54688-1.74609,11.335-13.17578,18.71729,7.43164,2.77,12.33985,8.04834,15.97559,12.78662a15.23928,15.23928,0,0,1,1.32519,16.08838C133.40039,90.97607,116.6875,94.98193,98.916,94.98242Zm26.43945-57.10888Z"/><path d="M75,65A14,14,0,1,1,89,51,14.01572,14.01572,0,0,1,75,65Zm0-22a8,8,0,1,0,8,8A8.00917,8.00917,0,0,0,75,43Z"/></svg>