<svg data-name="Tekolqiloli itik" xmlns="http://www.w3.org/2000/svg" viewBox="0 0 200 200"><title>p</title><path d="M116,173.50586a39.91736,39.91736,0,0,1-.31348-55.90723c.21192-.21679.42481-.42871.64063-.63867-10.20117.85352-23.57715,2.07324-40.82422,3.81738l-1.00586-9.94921c53.61523-5.4209,69.73633-5.8125,70.39648-5.82715l.21485,9.998c-.11621.00293-13.35352.4834-22.27735,9.59571a30.11273,30.11273,0,0,0-8.30957,23.251,30.79639,30.79639,0,0,0,8.60743,18.64844Z"/><rect x="90.5" y="14" width="43" height="6"/><path d="M98.916,94.98242a126.83192,126.83192,0,0,1-14.49122-.84717l1.1504-9.93359c25.82128,2.99219,41.38671-2.76514,43.77636-7.5957.26074-.52735,1.46875-3.26612-.2959-5.56592-4.124-5.374-9.17578-10.39746-18.14062-10.79-.75.01025-4.76172.081-5.92871.10156l-.44141.06446-1.10058-7.5459-.94043-2.06055.59961-.27393-.002-.01513.05078-.00733L107.749,48.415c10.56836-5.8501,14.64356-9.53369,16.1709-11.29541-6.37109-2.35352-26.90722-2.47119-34.8291-1.79834l-.84766-9.96387c1.896-.16064,11.59375-.59717,21.1045-.18213,15.55371.68262,22.751,3.07959,24.84179,8.27295,2.23243,5.54688-1.74609,11.335-13.17578,18.71729,7.43164,2.77,12.33985,8.04834,15.97559,12.78662a15.23928,15.23928,0,0,1,1.32519,16.08838C133.40039,90.97607,116.6875,94.98193,98.916,94.98242Zm26.43945-57.10888Z"/><path d="M63.54717,64c-.18946,0-.37891-.002-.56934-.00635l.08887-3.999a18.89639,18.89639,0,0,0,8.30859-1.63135,20.943,20.943,0,0,0,5.75244-3.91943,10.9594,10.9594,0,0,1-1.88525-1.41016c-.94629-.88428-3.45947-3.23389-3.38721-6.852a8.66358,8.66358,0,0,1,6.27637-7.896c2.88721-.77587,6.73193-.0332,8.166,2.55372.94335,1.70166.96582,4.03613.06542,6.75048a22.09,22.09,0,0,1-2.90576,5.56885l-.2124,3.14356a13.7993,13.7993,0,0,1-2.07715-.3003,25.40012,25.40012,0,0,1-8.147,6.00684A22.85223,22.85223,0,0,1,63.54717,64Zm16.835-22.00391a4.48166,4.48166,0,0,0-4.52783,4.26563c-.03663,1.834,1.41992,3.1958,2.11962,3.8501a7.35317,7.35317,0,0,0,1.87452,1.25586,18.68512,18.68512,0,0,0,2.71826-5.03711c.60742-1.832.51855-3.03614.23291-3.55176A3.19544,3.19544,0,0,0,80.38213,41.99609Z"/></svg>