<svg xmlns="http://www.w3.org/2000/svg" viewBox="0 0 200 200" id="qa!y" data-name="qa!y"><title>qa!y</title><path d="M110.09277,175h-.17968c-9.97657-.04395-18.10108-3.74023-22.88868-10.41992-5.87207-8.19336-8.06836-19.53809-6.5288-33.71973a61.703,61.703,0,0,1,7.01953-23.30664l8.72168,4.89258A52.15739,52.15739,0,0,0,90.437,131.94141c-1.26562,11.65918.32031,20.68066,4.71485,26.81347C98.8291,163.88379,105.2373,164.98633,110.002,165c6.708-.01953,11.9795-2.23535,14.85059-6.24414,4.39551-6.1377,5.98242-15.15918,4.71582-26.81543a52.25319,52.25319,0,0,0-5.80078-19.49707l8.72461-4.88672a61.80615,61.80615,0,0,1,7.01758,23.30274c1.54,14.17675-.65528,25.52148-6.52637,33.71875-4.78418,6.68066-12.90918,10.37792-22.89063,10.42187Z"/><rect x="90.5" y="14" width="43" height="6"/><path d="M85.86523,94.08008l-5.16015-8.56543c.36767-.22168.8916-.50977,1.541-.86377,4.94776-2.69531,18.09034-9.856,18.17188-22.95215.06933-11.22461-13.41895-22.854-22.55713-27.1792l4.11523-9.11279C86.71094,27.44385,118.45117,41.53223,135,59.95654V30h10V90H135V81.32764c.001-9.60254-12.29395-20.92188-26.89551-30.52051A27.42563,27.42563,0,0,1,110.418,61.76074c-.11817,18.99414-17.63233,28.53614-23.3877,31.67139C86.54053,93.69922,86.14307,93.91309,85.86523,94.08008Z"/></svg>