<svg data-name="Hekalqilotontli 5" xmlns="http://www.w3.org/2000/svg" viewBox="0 0 200 200"><title>q</title><polygon points="29.423 85 23.423 85 23.423 52 56.423 52 56.423 58 29.423 58 29.423 85"/><path d="M80.47852,148.71l-5.96289-8.02734c.439-.32617,1.06445-.75,1.83984-1.27051,6.27978-4.21875,22.96191-15.42383,23.06933-36.84277.10157-20.07813-19.12011-37.80957-28.44482-43.251L75.84277,50.583c2.37061,1.25683,45.64453,24.4834,65.65723,53.66113V55h10v90h-10V131.99121c.00195-17.50293-18.58594-36.59424-37.60352-51.24316a48.27146,48.27146,0,0,1,5.52832,21.87207C109.29,129.33594,88.69824,143.168,81.93164,147.71289,81.32031,148.12305,80.82471,148.45313,80.47852,148.71Z"/></svg>