<svg xmlns="http://www.w3.org/2000/svg" viewBox="0 0 200 200" id="qe!" data-name="qe!"><title>qe!</title><rect x="83.34277" y="37" width="60" height="6"/><path d="M80.47852,148.71l-5.96289-8.02734c.439-.32617,1.06445-.75,1.83984-1.27051,6.27978-4.21875,22.96191-15.42383,23.06933-36.84277.10157-20.07813-19.12011-37.80957-28.44482-43.251L75.84277,50.583c2.37061,1.25683,45.64453,24.4834,65.65723,53.66113V55h10v90h-10V131.99121c.00195-17.50293-18.58594-36.59424-37.60352-51.24316a48.27146,48.27146,0,0,1,5.52832,21.87207C109.29,129.33594,88.69824,143.168,81.93164,147.71289,81.32031,148.12305,80.82471,148.45313,80.47852,148.71Z"/><path d="M85.94971,93.50732a47.02288,47.02288,0,0,1-17.002-9.584A45.72672,45.72672,0,0,1,57.86182,69.25879l5.41308-2.58691a39.78366,39.78366,0,0,0,9.64063,12.751,41.05946,41.05946,0,0,0,14.84863,8.36572Z"/><path d="M66.44824,104.84863a47.00955,47.00955,0,0,1-17.00244-9.584A45.727,45.727,0,0,1,38.35986,80.6001L43.773,78.01318a39.78356,39.78356,0,0,0,9.64062,12.751,41.04888,41.04888,0,0,0,14.84815,8.36523Z"/></svg>