<svg xmlns="http://www.w3.org/2000/svg" viewBox="0 0 200 200" id="qe!ks" data-name="qe!ks"><title>qe!ks</title><path d="M141.56152,173.44629c-2.915-2.76074-18.18164-12.71484-39.57714-10.96484-13.32667,1.08789-21.5752,7.1748-23.78614,9.01464l-6.75586-7.35742.84815-.8584.30322-.22656c31.90918-23.791,45.26172-39.70019,49.4209-48.05371H75V105h58.55859v5c0,9.75684-11.09472,24.48145-31.74609,42.46484,24.46973-1.78125,41.92969,9.27149,46.626,13.72168Z"/><path d="M130.23438,170.2666l-9.98633-.5332a43.17421,43.17421,0,0,1,3.81347-15.53906,48.30323,48.30323,0,0,1,11.94239-16.08692l6.67382,7.44727a38.36619,38.36619,0,0,0-9.50488,12.75976A33.2049,33.2049,0,0,0,130.23438,170.2666Z"/><rect x="90.5" y="14" width="43" height="6"/><path d="M85.86523,94.08008l-5.16015-8.56543c.36767-.22168.8916-.50977,1.541-.86377,4.94776-2.69531,18.09034-9.856,18.17188-22.95215.06933-11.22461-13.41895-22.854-22.55713-27.1792l4.11523-9.11279C86.71094,27.44385,118.45117,41.53223,135,59.95654V30h10V90H135V81.32764c.001-9.60254-12.29395-20.92188-26.89551-30.52051A27.42563,27.42563,0,0,1,110.418,61.76074c-.11817,18.99414-17.63233,28.53614-23.3877,31.67139C86.54053,93.69922,86.14307,93.91309,85.86523,94.08008Z"/><path d="M85.22656,56.23193A35.70909,35.70909,0,0,1,73.0835,50.46729,29.078,29.078,0,0,1,65.02,41.48242l5.2168-2.96484A23.11436,23.11436,0,0,0,76.65723,45.648a29.75223,29.75223,0,0,0,10.11621,4.78711Z"/><path d="M71.59863,62.89893a35.717,35.717,0,0,1-12.144-5.76465,29.0655,29.0655,0,0,1-8.063-8.98584l5.2168-2.96387a23.10689,23.10689,0,0,0,6.42041,7.13037,29.71958,29.71958,0,0,0,10.11572,4.78613Z"/></svg>