<svg data-name="Limonqiloli itik" xmlns="http://www.w3.org/2000/svg" viewBox="0 0 200 200"><title>q</title><path d="M104.9502,174.72852l-3.248-9.457c16.02246-5.5039,24.88183-12.23828,26.55371-16.4707.43359-1.09668.18652-1.56152.05371-1.81152-.96582-1.82227-4.77344-3.77442-7.043-4.52051-8.57422-2.81738-20.65674-.98535-27.38574,2.416a6.973,6.973,0,0,0-2.84717,2.19726,1.299,1.299,0,0,0,.14453-.33105L86.5,144.98633l-4.85742-1.18555c.2124-.87109,2.59424-9.29883,20.50586-36.54687l8.35547,5.49218c-5.60743,8.53223-9.606,15.09278-12.44385,20.04786,8.14209-2.08106,18.05908-2.543,26.32861.1748,1.57813.51855,9.61231,3.40625,12.75684,9.33691a11.83877,11.83877,0,0,1,.41113,10.169C133.16016,163.60254,115.24023,171.19434,104.9502,174.72852Z"/><rect x="90.5" y="14" width="43" height="6"/><path d="M85.86523,94.08008l-5.16015-8.56543c.36767-.22168.8916-.50977,1.541-.86377,4.94776-2.69531,18.09034-9.856,18.17188-22.95215.06933-11.22461-13.41895-22.854-22.55713-27.1792l4.11523-9.11279C86.71094,27.44385,118.45117,41.53223,135,59.95654V30h10V90H135V81.32764c.001-9.60254-12.29395-20.92188-26.89551-30.52051A27.42563,27.42563,0,0,1,110.418,61.76074c-.11817,18.99414-17.63233,28.53614-23.3877,31.67139C86.54053,93.69922,86.14307,93.91309,85.86523,94.08008Z"/><path d="M85.22656,56.23193A35.70909,35.70909,0,0,1,73.0835,50.46729,29.078,29.078,0,0,1,65.02,41.48242l5.2168-2.96484A23.11436,23.11436,0,0,0,76.65723,45.648a29.75223,29.75223,0,0,0,10.11621,4.78711Z"/><path d="M71.59863,62.89893a35.717,35.717,0,0,1-12.144-5.76465,29.0655,29.0655,0,0,1-8.063-8.98584l5.2168-2.96387a23.10689,23.10689,0,0,0,6.42041,7.13037,29.71958,29.71958,0,0,0,10.11572,4.78613Z"/></svg>