<svg xmlns="http://www.w3.org/2000/svg" viewBox="0 0 200 200" id="qif" data-name="qif"><title>qif</title><path d="M85.86523,94.08008l-5.16015-8.56543c.36767-.22168.8916-.50977,1.541-.86377,4.94776-2.69531,18.09034-9.856,18.17188-22.95215.06933-11.22461-13.41895-22.854-22.55713-27.1792l4.11523-9.11279C86.71094,27.44385,118.45117,41.53223,135,59.95654V30h10V90H135V81.32764c.001-9.60254-12.29395-20.92188-26.89551-30.52051A27.42563,27.42563,0,0,1,110.418,61.76074c-.11817,18.99414-17.63233,28.53614-23.3877,31.67139C86.54053,93.69922,86.14307,93.91309,85.86523,94.08008Z"/><path d="M78.23584,60.90088a48.10489,48.10489,0,0,1-16.16016-7.60547,38.36221,38.36221,0,0,1-10.6792-11.80469l5.207-2.98144a32.40343,32.40343,0,0,0,9.03125,9.95556,42.05833,42.05833,0,0,0,14.12939,6.63428Z"/><path d="M137.166,171.81934a40.08273,40.08273,0,0,1-13.73926-6.79883,33.9744,33.9744,0,0,1-9.14649-10.62891l8.78125-4.7832a24.03929,24.03929,0,0,0,6.48633,7.5039,29.98168,29.98168,0,0,0,10.28613,5.06836Z"/><path d="M98.918,174.98242a126.87494,126.87494,0,0,1-14.49317-.84765l1.1504-9.9336c25.82128,2.98828,41.38671-2.76367,43.77636-7.5957.26074-.52734,1.46973-3.26465-.2959-5.56543-4.124-5.374-9.17578-10.39649-18.13867-10.79-.75488.01074-4.77148.08105-5.93359.10156l-.44531.06446-1.08887-7.53321-.94629-2.07324.60742-.27637-.00195-.01367.04687-.00683L107.749,128.415c10.56934-5.85059,14.64453-9.53418,16.1709-11.2959-6.37012-2.35547-26.90722-2.47266-34.82861-1.79687l-.84863-9.96485c1.89355-.16015,11.585-.59765,21.105-.18262,15.55371.68262,22.751,3.08008,24.84179,8.27344,2.23243,5.54688-1.74707,11.335-13.17578,18.7168,7.42969,2.77051,12.33887,8.04883,15.97559,12.78711a15.2375,15.2375,0,0,1,1.32422,16.08984C133.40039,170.97559,116.68848,174.98145,98.918,174.98242Zm26.4375-57.10937v0Z"/></svg>