<svg xmlns="http://www.w3.org/2000/svg" viewBox="0 0 200 200" id="qu!g" data-name="qu!g"><title>qu!g</title><path d="M85.86523,94.08008l-5.16015-8.56543c.36767-.22168.8916-.50977,1.541-.86377,4.94776-2.69531,18.09034-9.856,18.17188-22.95215.06933-11.22461-13.41895-22.854-22.55713-27.1792l4.11523-9.11279C86.71094,27.44385,118.45117,41.53223,135,59.95654V30h10V90H135V81.32764c.001-9.60254-12.29395-20.92188-26.89551-30.52051A27.42563,27.42563,0,0,1,110.418,61.76074c-.11817,18.99414-17.63233,28.53614-23.3877,31.67139C86.54053,93.69922,86.14307,93.91309,85.86523,94.08008Z"/><path d="M53.54717,64c-.18946,0-.37891-.002-.56934-.00635l.08887-3.999a18.89639,18.89639,0,0,0,8.30859-1.63135,20.943,20.943,0,0,0,5.75244-3.91943,10.9594,10.9594,0,0,1-1.88525-1.41016c-.94629-.88428-3.45947-3.23389-3.38721-6.852a8.66358,8.66358,0,0,1,6.27637-7.896c2.88721-.77587,6.73193-.0332,8.166,2.55372.94335,1.70166.96582,4.03613.06542,6.75048a22.09,22.09,0,0,1-2.90576,5.56885l-.2124,3.14356a13.7993,13.7993,0,0,1-2.07715-.3003,25.40012,25.40012,0,0,1-8.147,6.00684A22.85223,22.85223,0,0,1,53.54717,64Zm16.835-22.00391a4.48166,4.48166,0,0,0-4.52783,4.26563c-.03663,1.834,1.41992,3.1958,2.11962,3.8501a7.35317,7.35317,0,0,0,1.87452,1.25586,18.68512,18.68512,0,0,0,2.71826-5.03711c.60742-1.832.51855-3.03614.23291-3.55176A3.19544,3.19544,0,0,0,70.38213,41.99609Z"/><rect x="90.5" y="14" width="43" height="6"/><path d="M139.23633,171.84961a44.6835,44.6835,0,0,1-14.88672-6.69238,34.96575,34.96575,0,0,1-10.02148-10.58594l8.57617-5.14258a25.0312,25.0312,0,0,0,7.19531,7.54688,35.19669,35.19669,0,0,0,11.57422,5.1748Z"/><path d="m 111.39258,105.17383 c -16.085551,1.28828 -28.761721,10.80664 -28.761721,10.80664 l 5.830079,8.125 c 0,0 19.685492,-13.37054 36.455082,-7.39844 8.42889,3.00176 11.08477,7.85368 11.46093,13.98047 0.37617,6.12679 -2.46568,13.66222 -7.16797,19.2832 C 113.445,168.81459 90.290782,169.41479 80.25,164.94141 l -4.068359,9.13476 c 15.092064,6.72384 42.010309,4.64848 60.697269,-17.68945 6.15838,-7.36157 10.06026,-16.86716 9.48047,-26.31055 -0.5798,-9.44339 -6.57922,-18.69051 -18.0879,-22.78906 -5.77638,-2.05713 -11.51705,-2.54271 -16.8789,-2.11328 z"/></svg>