<svg xmlns="http://www.w3.org/2000/svg" viewBox="0 0 200 200" id="qu&apos;" data-name="qu&apos;"><title>qu'</title><path d="M80.47852,148.71l-5.96289-8.02734c.439-.32617,1.06445-.75,1.83984-1.27051,6.27978-4.21875,22.96191-15.42383,23.06933-36.84277.10157-20.07813-19.12011-37.80957-28.44482-43.251L75.84277,50.583c2.37061,1.25683,45.64453,24.4834,65.65723,53.66113V55h10v90h-10V131.99121c.00195-17.50293-18.58594-36.59424-37.60352-51.24316a48.27146,48.27146,0,0,1,5.52832,21.87207C109.29,129.33594,88.69824,143.168,81.93164,147.71289,81.32031,148.12305,80.82471,148.45313,80.47852,148.71Z"/><path d="M46.99238,101c-.25928,0-.51855-.00293-.7793-.00879l.13282-5.998A25.81867,25.81867,0,0,0,57.55732,92.792a28.07891,28.07891,0,0,0,7.48145-5.0664,15.1351,15.1351,0,0,1-2.28223-1.75342c-1.31445-1.22852-4.80566-4.4917-4.70508-9.54785a12.09537,12.09537,0,0,1,8.76172-11.02539c4.03711-1.08448,9.42481-.03077,11.44434,3.61328,1.32422,2.38916,1.36132,5.648.1084,9.42431a30.73317,30.73317,0,0,1-4.25684,8.02442l-.26758,4.0415a19.00229,19.00229,0,0,1-2.72656-.38183,34.87325,34.87325,0,0,1-11.08887,8.14013A31.4444,31.4444,0,0,1,46.99238,101ZM69.93525,70.99707A5.82921,5.82921,0,0,0,64.05049,76.544c-.04786,2.38037,1.80761,4.11376,2.80371,5.04541a9.61569,9.61569,0,0,0,2.26172,1.55615,24.71961,24.71961,0,0,0,3.55566-6.59815c.80078-2.415.70019-3.97314.33789-4.62646C72.77021,71.48926,71.43427,70.99707,69.93525,70.99707Z"/><path d="M26.42348,85V55h30" style="fill:none;stroke-miterlimit:10;stroke-width:6px"/></svg>