<svg xmlns="http://www.w3.org/2000/svg" viewBox="0 0 200 200" id="ra!c" data-name="ra!c"><title>ra!c</title><path d="M85.00195,174.89844l-2.0039-9.79688a44.21139,44.21139,0,0,0,7.72168-2.31054,18.19289,18.19289,0,0,1-2.59082-3.79c-.709-1.26563-2.7837-4.97364-.86084-11.59961.93506-3.28223,4.43164-9.01758,11.55957-9.55176,7.84814-.60059,14.186,3.81055,15.0708,10.47656a16.02305,16.02305,0,0,1-2.13867,10.04883q.36181-.04834.73535-.10547c5.45019-.81348,10.85254-4.57519,14.45215-10.06348,3.67089-5.59667,4.92968-11.96875,3.4541-17.48144-1.749-6.53613-7.82129-14.17969-17.01856-15.51465-7.29883-1.05664-13.36914,2.20606-15.63916,3.66016L92.3501,110.4502a33.28687,33.28687,0,0,1,22.47021-5.13672c13.75,1.99707,22.585,12.90234,25.24121,22.82519,2.21192,8.26172.4795,17.5752-4.75293,25.55176-5.21386,7.9502-12.99121,13.22363-21.335,14.46973a39.77987,39.77987,0,0,1-12.374.291A50.21526,50.21526,0,0,1,85.00195,174.89844Zm15.1958-27.10059c-.207,0-.41357.00781-.61816.02344a3.21864,3.21864,0,0,0-2.71094,2.37695c-.75342,2.59766-.2539,3.49024-.04052,3.8711.07324.13086.13574.24511.18554.34179a6.93027,6.93027,0,0,0,2.76856,2.97852c2.97656-2.63477,4.50976-5.44043,4.20312-7.748C103.82031,148.39844,102.01172,147.79785,100.19775,147.79785Z"/><rect x="90.5" y="14" width="43" height="6"/><path d="M150.19336,81.53223a150.98773,150.98773,0,0,1-27.33691-4.93506,113.71429,113.71429,0,0,1-11.05957-3.74024l3.70507-9.28808a103.60086,103.60086,0,0,0,10.083,3.40771,141.04175,141.04175,0,0,0,25.52051,4.59766Z"/><path d="M104.9502,94.729l-3.248-9.458c16.02246-5.50342,24.88183-12.2378,26.55371-16.47071.43262-1.09521.18652-1.56054.05371-1.81054-.96387-1.81934-4.77539-3.77393-7.04687-4.52246-8.57129-2.8169-20.65332-.9834-27.38184,2.41748A6.973,6.973,0,0,0,91.03369,67.082a1.30732,1.30732,0,0,0,.14453-.33105L86.5,64.98584l-4.85742-1.18555c.21289-.87109,2.59424-9.29785,20.50488-36.54687l8.35645,5.49316c-5.6211,8.55274-9.61914,15.106-12.45313,20.04932,8.14356-2.08008,18.06445-2.5459,26.33692.17236,1.583.521,9.61816,3.41553,12.75781,9.33789a11.8376,11.8376,0,0,1,.41113,10.16846C133.16016,83.603,115.24121,91.19434,104.9502,94.729Z"/></svg>