<svg data-name="Zawilqiloli itik" xmlns="http://www.w3.org/2000/svg" viewBox="0 0 200 200"><title>r</title><path d="M141.56152,173.44629c-2.915-2.76074-18.18164-12.71484-39.57714-10.96484-13.32667,1.08789-21.5752,7.1748-23.78614,9.01464l-6.75586-7.35742.52881-.53515,52.92334-57.00489,7.32813,6.80274L95.1709,153.31152a59.446,59.446,0,0,1,5.999-.79687c24.80371-2.02735,42.53125,9.18262,47.26856,13.67187Z"/><path d="M122.45605,170.26855l-9.98632-.5371a43.21035,43.21035,0,0,1,3.81347-15.53711,48.31344,48.31344,0,0,1,11.94239-16.08692l6.67382,7.44727a38.38984,38.38984,0,0,0-9.50488,12.76074A33.22622,33.22622,0,0,0,122.45605,170.26855Z"/><path d="M150.19336,81.53223a150.98773,150.98773,0,0,1-27.33691-4.93506,113.71429,113.71429,0,0,1-11.05957-3.74024l3.70507-9.28808a103.60086,103.60086,0,0,0,10.083,3.40771,141.04175,141.04175,0,0,0,25.52051,4.59766Z"/><path d="M104.9502,94.729l-3.248-9.458c16.02246-5.50342,24.88183-12.2378,26.55371-16.47071.43262-1.09521.18652-1.56054.05371-1.81054-.96387-1.81934-4.77539-3.77393-7.04687-4.52246-8.57129-2.8169-20.65332-.9834-27.38184,2.41748A6.973,6.973,0,0,0,91.03369,67.082a1.30732,1.30732,0,0,0,.14453-.33105L86.5,64.98584l-4.85742-1.18555c.21289-.87109,2.59424-9.29785,20.50488-36.54687l8.35645,5.49316c-5.6211,8.55274-9.61914,15.106-12.45313,20.04932,8.14356-2.08008,18.06445-2.5459,26.33692.17236,1.583.521,9.61816,3.41553,12.75781,9.33789a11.8376,11.8376,0,0,1,.41113,10.16846C133.16016,83.603,115.24121,91.19434,104.9502,94.729Z"/></svg>