<svg xmlns="http://www.w3.org/2000/svg" viewBox="0 0 200 200" id="ru&apos;" data-name="ru&apos;"><title>ru'</title><path d="M149.96875,129.7832a108.43455,108.43455,0,0,1-27.70605-7.50195,92.09109,92.09109,0,0,1-11.17969-5.6709l5.13281-8.582a81.9749,81.9749,0,0,0,9.96191,5.05078,98.47783,98.47783,0,0,0,25.15235,6.79785Z"/><path d="M105.61621,149.44434l-4.58008-8.88868c21.02149-10.831,29.58887-24.52929,26.97754-31.918-1.66308-4.70508-7.33984-7.54688-7.39648-7.5752C112.543,97.083,101.07324,99.74609,94.646,104.61816a9.30847,9.30847,0,0,0-3.32862,4.19629l.03174-.11621-9.78418-2.02246c.08057-.49609,2.18115-12.605,20.18115-53.68262l9.16016,4.01368c-6.93164,15.8164-11.43457,27.19287-14.34277,35.15039,8.63476-3.5669,19.46289-4.50635,28.47461-.06446.958.47217,9.45019,4.856,12.40332,13.21289C142.40234,119.34277,129.6123,137.08105,105.61621,149.44434Z"/><path d="M58.99238,146.00325c-.25928,0-.51855-.00292-.7793-.00878l.13282-5.99805a25.81882,25.81882,0,0,0,11.21142-2.20117,28.07894,28.07894,0,0,0,7.48145-5.06641,15.13445,15.13445,0,0,1-2.28223-1.75342c-1.31445-1.22851-4.80566-4.4917-4.70508-9.54785a12.09538,12.09538,0,0,1,8.76172-11.02539c4.03711-1.08447,9.42481-.03076,11.44434,3.61328,1.32422,2.38916,1.36132,5.64795.1084,9.42432a30.73312,30.73312,0,0,1-4.25684,8.02441l-.26758,4.04151a19.00372,19.00372,0,0,1-2.72656-.38184A34.87327,34.87327,0,0,1,72.02607,143.264,31.44455,31.44455,0,0,1,58.99238,146.00325Zm22.94287-30.00292a5.82917,5.82917,0,0,0-5.88476,5.54687c-.04786,2.38037,1.80761,4.11377,2.80371,5.04541a9.61509,9.61509,0,0,0,2.26172,1.55615,24.71971,24.71971,0,0,0,3.55566-6.59814c.80078-2.415.70019-3.97315.33789-4.62647C84.77021,116.49251,83.43427,116.00033,81.93525,116.00033Z"/><polygon points="59.423 85 53.423 85 53.423 52 86.423 52 86.423 58 59.423 58 59.423 85"/></svg>