<svg data-name="Weyilqiloli itik" xmlns="http://www.w3.org/2000/svg" viewBox="0 0 200 200"><title>r</title><path d="M76.06787,174.88477l-2.13574-9.76954c11.78418-2.57617,28.98877-8.56152,44.02881-22.44043C128.35645,133.084,135.14063,122.792,138.29,115H75V105h75.98535l-1.06543,5.88965c-1.59179,8.80664-9.1416,24.33887-25.17773,39.13476C108.05469,165.42383,89.062,172.043,76.06787,174.88477Z"/><path d="M150.19336,81.53223a150.98773,150.98773,0,0,1-27.33691-4.93506,113.71429,113.71429,0,0,1-11.05957-3.74024l3.70507-9.28808a103.60086,103.60086,0,0,0,10.083,3.40771,141.04175,141.04175,0,0,0,25.52051,4.59766Z"/><path d="M104.9502,94.729l-3.248-9.458c16.02246-5.50342,24.88183-12.2378,26.55371-16.47071.43262-1.09521.18652-1.56054.05371-1.81054-.96387-1.81934-4.77539-3.77393-7.04687-4.52246-8.57129-2.8169-20.65332-.9834-27.38184,2.41748A6.973,6.973,0,0,0,91.03369,67.082a1.30732,1.30732,0,0,0,.14453-.33105L86.5,64.98584l-4.85742-1.18555c.21289-.87109,2.59424-9.29785,20.50488-36.54687l8.35645,5.49316c-5.6211,8.55274-9.61914,15.106-12.45313,20.04932,8.14356-2.08008,18.06445-2.5459,26.33692.17236,1.583.521,9.61816,3.41553,12.75781,9.33789a11.8376,11.8376,0,0,1,.41113,10.16846C133.16016,83.603,115.24121,91.19434,104.9502,94.729Z"/><path d="M63.54717,97.00323c-.18946,0-.37891-.002-.56934-.00635l.08887-3.999a18.89653,18.89653,0,0,0,8.30859-1.63135,20.94321,20.94321,0,0,0,5.75244-3.91944,10.9588,10.9588,0,0,1-1.88525-1.41015c-.94629-.88428-3.45947-3.23389-3.38721-6.852a8.66356,8.66356,0,0,1,6.27637-7.896c2.88721-.77588,6.73193-.0332,8.166,2.55371.94335,1.70166.96582,4.03614.06542,6.75049a22.09014,22.09014,0,0,1-2.90576,5.56885l-.2124,3.14355a13.79928,13.79928,0,0,1-2.07715-.30029,25.40042,25.40042,0,0,1-8.147,6.00684A22.85223,22.85223,0,0,1,63.54717,97.00323Zm16.835-22.00391A4.48162,4.48162,0,0,0,75.8543,79.265c-.03663,1.834,1.41992,3.1958,2.11962,3.85009a7.35291,7.35291,0,0,0,1.87452,1.25586,18.68512,18.68512,0,0,0,2.71826-5.03711c.60742-1.832.51855-3.03613.23291-3.55175A3.1954,3.1954,0,0,0,80.38213,74.99932Z"/></svg>