<svg id="Sasanili_1b" data-name="Sasanili 1b" xmlns="http://www.w3.org/2000/svg" viewBox="0 0 200 200"><title>00186-sasanili1b</title><path d="M64.91748,149.32227c-11.59082,0-15.79-2.8125-17.44092-7.002-3.04834-7.7334,3.95606-18.333,48.04785-44.92334l5.16407,8.563c-35.52491,21.42383-42.269,29.89453-43.52735,32.52832,2.25879.83692,10.61035,2.27735,39.02442-2.91894l1.79883,9.83593C82.999,148.14648,72.4126,149.32227,64.91748,149.32227Z"/><path d="M114.918,137.32227c-11.5918,0-15.79-2.81153-17.44141-7.001-3.04834-7.73438,3.95606-18.334,48.04785-44.92432l5.16407,8.56348c-35.52246,21.42236-42.26856,29.89307-43.52735,32.52783,2.25782.83692,10.61035,2.27637,39.02442-2.91894l1.79883,9.83593C133,136.14551,122.41211,137.32227,114.918,137.32227Z"/></svg>