<svg id="Sasanili_1a" data-name="Sasanili 1a" xmlns="http://www.w3.org/2000/svg" viewBox="0 0 200 200"><title>00185-sasanili1a</title><path d="M104.47559,89.603l-5.16407-8.56348c35.51953-21.4209,42.26758-29.89209,43.52735-32.52734-2.25879-.83789-10.61035-2.27686-39.02442,2.91894l-1.79882-9.83691c38.1621-6.979,47.78906-3.81348,50.50781,3.08447C155.57129,52.41357,148.56641,63.01318,104.47559,89.603Z"/><path d="M54.47559,101.60254l-5.16407-8.563c35.522-21.42187,42.26807-29.89307,43.52735-32.52734-2.25879-.83838-10.61328-2.27588-39.02442,2.91894l-1.79882-9.83691c38.1582-6.97754,47.78857-3.814,50.50781,3.085C105.57227,64.41309,98.56787,75.0127,54.47559,101.60254Z"/></svg>