<svg xmlns="http://www.w3.org/2000/svg" viewBox="0 0 200 200" id="si!z" data-name="si!z"><title>si!z</title><path d="M141.55566,173.625c-2.91308-2.76855-18.17578-12.75586-39.57031-10.99805-13.32422,1.0918-21.57129,7.19629-23.78125,9.041l-6.76758-7.34668.84815-.86133.30322-.22656C104.52246,139.34961,117.874,123.37891,122.02344,115H75V105h58.55859v5c0,9.78613-11.10742,24.56348-31.77832,42.6123,24.48731-1.80371,41.96289,9.2959,46.66407,13.7627Z"/><rect x="72" y="14" width="60" height="6"/><path d="M141.55566,93.62451c-2.91308-2.769-18.16211-12.75146-39.57031-10.99756-13.32373,1.0918-21.5708,7.19629-23.78125,9.041l-6.76758-7.3457.52881-.53711L124.88867,26.604l7.33985,6.792L95.14258,73.46484a59.17825,59.17825,0,0,1,6.02637-.80468c24.79785-2.02686,42.53613,9.21191,47.27539,13.71533Z"/><path d="M78.23584,60.90088a48.10489,48.10489,0,0,1-16.16016-7.60547,38.36221,38.36221,0,0,1-10.6792-11.80469l5.207-2.98144a32.40343,32.40343,0,0,0,9.03125,9.95556,42.05833,42.05833,0,0,0,14.12939,6.63428Z"/></svg>