<svg xmlns="http://www.w3.org/2000/svg" viewBox="0 0 200 200" id="siq" data-name="siq"><title>siq</title><path d="M85.86523,174.08105l-5.16015-8.5664c.36767-.2207.8916-.50977,1.54053-.86328,4.94775-2.69532,18.09082-9.85645,18.17236-22.95313.06933-11.22461-13.41895-22.85449-22.55713-27.17871l4.11523-9.1123c4.73487,2.03711,36.4751,16.125,53.02393,34.54882V110h10v60H135v-8.67285c.001-9.58789-12.29-20.9043-26.88867-30.50488a27.43239,27.43239,0,0,1,2.30664,10.93847c-.11817,18.99414-17.63281,28.53614-23.38818,31.67188C86.54,173.7002,86.14307,173.91309,85.86523,174.08105Z"/><path d="M141.55566,93.62451c-2.91308-2.769-18.16211-12.75146-39.57031-10.99756-13.32373,1.0918-21.5708,7.19629-23.78125,9.041l-6.76758-7.3457.52881-.53711L124.88867,26.604l7.33985,6.792L95.14258,73.46484a59.17825,59.17825,0,0,1,6.02637-.80468c24.79785-2.02686,42.53613,9.21191,47.27539,13.71533Z"/><path d="M78.23584,60.90088a48.10489,48.10489,0,0,1-16.16016-7.60547,38.36221,38.36221,0,0,1-10.6792-11.80469l5.207-2.98144a32.40343,32.40343,0,0,0,9.03125,9.95556,42.05833,42.05833,0,0,0,14.12939,6.63428Z"/></svg>