<svg xmlns="http://www.w3.org/2000/svg" viewBox="0 0 200 200" id="so&apos;" data-name="so&apos;"><title>so'</title><path d="M151.28711,148.34863c-3.83106-4.24707-23.82031-19.55957-51.64014-16.90527a52.83251,52.83251,0,0,0-31.15869,13.88281l-7.30957-6.80664.7002-.83008,68.06445-85.79687,7.834,6.21484-52.45947,66.127a63.60224,63.60224,0,0,1,13.37793-2.7461c31.42041-3.00293,54.437,13.97754,60.01709,20.16309Z"/><path d="M62.74561,101a18,18,0,1,1,18-18A18.02031,18.02031,0,0,1,62.74561,101Zm0-30a12,12,0,1,0,12,12A12.01375,12.01375,0,0,0,62.74561,71Z"/><path d="M 25.923828 50.5 L 25.923828 83.5 L 31.923828 83.5 L 31.923828 56.5 L 58.923828 56.5 L 58.923828 50.5 L 25.923828 50.5 z "/></svg>