<svg xmlns="http://www.w3.org/2000/svg" viewBox="0 0 200 200" id="son" data-name="son"><title>son</title><path d="M141.55566,93.62451c-2.91308-2.769-18.16211-12.75146-39.57031-10.99756-13.32373,1.0918-21.5708,7.19629-23.78125,9.041l-6.76758-7.3457.52881-.53711L124.88867,26.604l7.33985,6.792L95.14258,73.46484a59.17825,59.17825,0,0,1,6.02637-.80468c24.79785-2.02686,42.53613,9.21191,47.27539,13.71533Z"/><path d="M65,65A14,14,0,1,1,79,51,14.01572,14.01572,0,0,1,65,65Zm0-22a8,8,0,1,0,8,8A8.00917,8.00917,0,0,0,65,43Z"/><path d="M80.44141,174.98047l-.88282-9.96094c26.21387-2.32129,38.71778-2.00586,48.38184-1.52637l4.90039.24317c-.083-5.55274-.14551-14.75586.10938-24.6211.16015-6.22168.792-13.93847,1.59277-23.708l.47363-5.80957,9.9668.80468-.47363,5.82032c-.78809,9.61425-1.41016,17.208-1.56348,23.15039-.39941,15.51758-.00391,29.33886,0,29.47656l.1582,5.4082-15.66015-.77636C118.11719,173.0166,106.02148,172.71484,80.44141,174.98047Z"/></svg>