<svg xmlns="http://www.w3.org/2000/svg" viewBox="0 0 200 200" id="sony" data-name="sony"><title>sony</title><path d="M141.55566,93.62451c-2.91308-2.769-18.16211-12.75146-39.57031-10.99756-13.32373,1.0918-21.5708,7.19629-23.78125,9.041l-6.76758-7.3457.52881-.53711L124.88867,26.604l7.33985,6.792L95.14258,73.46484a59.17825,59.17825,0,0,1,6.02637-.80468c24.79785-2.02686,42.53613,9.21191,47.27539,13.71533Z"/><path d="M65,65A14,14,0,1,1,79,51,14.01572,14.01572,0,0,1,65,65Zm0-22a8,8,0,1,0,8,8A8.00917,8.00917,0,0,0,65,43Z"/><path d="M81.05322,174.98145l-.85156-9.9629c27.15967-2.32226,40.11377-2.00585,50.12354-1.52539l5.28613.25293c-.08692-5.55468-.15137-14.76464.11328-24.63574.167-6.23242.82324-13.96094,1.65332-23.74512l.48926-5.78222,9.96484.834-.48926,5.79395c-.81738,9.623-1.46289,17.22461-1.62207,23.167-.415,15.5127-.00488,29.32812,0,29.46582l.16407,5.40527-16.03809-.76757C120.16113,173.01855,107.60059,172.71484,81.05322,174.98145Z"/><path d="M154.43652,161.51855a96.24223,96.24223,0,0,1-21.68359-5.03417,77.77882,77.77882,0,0,1-8.79-3.82129l4.56055-8.90039a67.61045,67.61045,0,0,0,7.65527,3.32714,86.2326,86.2326,0,0,0,19.42774,4.49707Z"/></svg>