<svg data-name="Weyakqiloli 3" xmlns="http://www.w3.org/2000/svg" viewBox="0 0 200 200"><title>t</title><rect x="83.34277" y="37" width="60" height="6"/><path d="M118.47363,148.22266A61.89448,61.89448,0,0,1,104.419,112.7334c-1.13868-16.19629,3.96679-32.7583,13.65527-44.30225a50.35058,50.35058,0,0,1,6.03808-6.06543c-13.73437,1.28711-32.77587,3.2666-58.52636,6.30371l-1.17188-9.93115c68.43555-8.07226,89.32617-8.707,90.44141-8.73633a.1.1,0,0,1,.02051-.00049l.25,9.99708c-.15625.00488-17.53028.72851-29.3916,14.86132-8.06153,9.605-12.30079,23.50147-11.34083,37.17237a52.56362,52.56362,0,0,0,11.72657,29.74511Z"/><path d="M81.11279,103.36621a48.18056,48.18056,0,0,1-17.17431-9.49853A45.55822,45.55822,0,0,1,52.73145,79.313L58.126,76.687a39.6029,39.6029,0,0,0,9.7417,12.646,42.12337,42.12337,0,0,0,15.01953,8.30127Z"/></svg>