<svg data-name="Weyakqiloli 3" xmlns="http://www.w3.org/2000/svg" viewBox="0 0 200 200"><title>t</title><rect x="83.34277" y="37" width="60" height="6"/><path d="M118.47363,148.22266A61.89448,61.89448,0,0,1,104.419,112.7334c-1.13868-16.19629,3.96679-32.7583,13.65527-44.30225a50.35058,50.35058,0,0,1,6.03808-6.06543c-13.73437,1.28711-32.77587,3.2666-58.52636,6.30371l-1.17188-9.93115c68.43555-8.07226,89.32617-8.707,90.44141-8.73633a.1.1,0,0,1,.02051-.00049l.25,9.99708c-.15625.00488-17.53028.72851-29.3916,14.86132-8.06153,9.605-12.30079,23.50147-11.34083,37.17237a52.56362,52.56362,0,0,0,11.72657,29.74511Z"/><path d="M51.99238,111c-.25928,0-.51855-.00293-.7793-.00879l.13282-5.998A25.81882,25.81882,0,0,0,62.55732,102.792a28.07894,28.07894,0,0,0,7.48145-5.06641,15.13379,15.13379,0,0,1-2.28223-1.75342c-1.31445-1.22851-4.80566-4.49169-4.70508-9.54785a12.09538,12.09538,0,0,1,8.76172-11.02539c4.03711-1.08447,9.42481-.03076,11.44434,3.61328,1.32422,2.38916,1.36132,5.648.1084,9.42432a30.733,30.733,0,0,1-4.25684,8.02441l-.26758,4.04151a19.00372,19.00372,0,0,1-2.72656-.38184,34.87312,34.87312,0,0,1-11.08887,8.14014A31.4444,31.4444,0,0,1,51.99238,111ZM74.93525,80.99708A5.82917,5.82917,0,0,0,69.05049,86.544c-.04786,2.38037,1.80761,4.11377,2.80371,5.04541a9.61509,9.61509,0,0,0,2.26172,1.55615,24.71971,24.71971,0,0,0,3.55566-6.59814c.80078-2.415.70019-3.97314.33789-4.62647C77.77021,81.48926,76.43427,80.99708,74.93525,80.99708Z"/></svg>