<svg xmlns="http://www.w3.org/2000/svg" viewBox="0 0 200 200" id="te!k" data-name="te!k"><title>te!k</title><path d="M101.94141,175c-11.57032,0-21.84424-3.0918-25.78077-7.81055l7.67872-6.40625c1.25683,1.50684,8.33984,4.375,19.00341,4.21,14.03614-.23046,29.47852-7.68066,31.833-21.47461a26.01026,26.01026,0,0,0-9.45117-24.11132c-4.74512-3.73828-12.57617-5.166-22.05176-4.01758-4.291.51855-11.65722,4.09961-13.89941,5.31348l-4.75977-8.79493c1.05567-.57129,10.51563-5.60742,17.459-6.44629,8.58593-1.03808,20.66113-.82519,29.43945,6.08985a35.78747,35.78747,0,0,1,13.12109,33.64941c-3.27148,19.16406-23.36718,29.49219-41.52636,29.79Q102.47217,175,101.94141,175Z"/><rect x="90.5" y="14" width="43" height="6"/><path d="M116,93.50586a39.9167,39.9167,0,0,1-.31348-55.90674q.31788-.3252.64063-.63916C106.126,37.813,92.75,39.03369,75.50293,40.77734l-1.00586-9.94921c53.61523-5.42042,69.73633-5.813,70.39648-5.82715l.21387,9.998c-.11523.00342-13.35254.48291-22.27637,9.59619a30.10725,30.10725,0,0,0-8.30957,23.251,30.79466,30.79466,0,0,0,8.60743,18.64795Z"/><path d="M96.22656,66.23193A35.70909,35.70909,0,0,1,84.0835,60.46729,29.078,29.078,0,0,1,76.02,51.48242l5.2168-2.96484A23.11436,23.11436,0,0,0,87.65723,55.648a29.75223,29.75223,0,0,0,10.11621,4.78711Z"/><path d="M82.59863,72.89893a35.717,35.717,0,0,1-12.144-5.76465,29.0655,29.0655,0,0,1-8.063-8.98584l5.2168-2.96387a23.10689,23.10689,0,0,0,6.42041,7.13037,29.71958,29.71958,0,0,0,10.11572,4.78613Z"/></svg>