<svg data-name="Xocilqiloli itik" xmlns="http://www.w3.org/2000/svg" viewBox="0 0 200 200"><title>t</title><path d="M110.4375,175.01758a31.04036,31.04036,0,0,1-18.70215-6.249,25.28544,25.28544,0,0,1-5.646-5.81347c-6.44092-9.25781-6.45069-22.54785-3.603-31.61133,2.22363-7.07812,6.18408-11.98828,11.15185-13.8252,6.96192-2.56835,15.98194.93848,20.98389,8.15723,5.71094,8.23633,3.09375,17.65723,2.1084,21.2041a38.026,38.026,0,0,1-11.10742,17.541,19.05694,19.05694,0,0,0,13.06836-1.35156c5.31543-2.87305,11.457-10.9043,10.52734-32.85547a54.88459,54.88459,0,0,0-4.01953-18.33692l9.26855-3.7539a64.80881,64.80881,0,0,1,4.74121,21.665c.92286,21.77148-4.38085,35.92773-15.76367,42.07812A27.38885,27.38885,0,0,1,110.4375,175.01758ZM98.50439,126.67285a4.06063,4.06063,0,0,0-1.40136.22559c-1.91016.707-3.85645,3.55859-5.07666,7.44336-2.11182,6.72168-2.00977,16.748,2.272,22.90234a14.77792,14.77792,0,0,0,1.76709,2.0918c3.06934-2.21192,8.915-7.49805,11.02051-15.09864.71191-2.56152,2.35644-8.48242-.68262-12.86523C104.28418,128.31445,100.92676,126.67285,98.50439,126.67285Z"/><rect x="90.5" y="14" width="43" height="6"/><path d="M116,93.50586a39.9167,39.9167,0,0,1-.31348-55.90674q.31788-.3252.64063-.63916C106.126,37.813,92.75,39.03369,75.50293,40.77734l-1.00586-9.94921c53.61523-5.42042,69.73633-5.813,70.39648-5.82715l.21387,9.998c-.11523.00342-13.35254.48291-22.27637,9.59619a30.10725,30.10725,0,0,0-8.30957,23.251,30.79466,30.79466,0,0,0,8.60743,18.64795Z"/><path d="M96.22656,66.23193A35.70909,35.70909,0,0,1,84.0835,60.46729,29.078,29.078,0,0,1,76.02,51.48242l5.2168-2.96484A23.11436,23.11436,0,0,0,87.65723,55.648a29.75223,29.75223,0,0,0,10.11621,4.78711Z"/><path d="M82.59863,72.89893a35.717,35.717,0,0,1-12.144-5.76465,29.0655,29.0655,0,0,1-8.063-8.98584l5.2168-2.96387a23.10689,23.10689,0,0,0,6.42041,7.13037,29.71958,29.71958,0,0,0,10.11572,4.78613Z"/></svg>