<svg id="Tetlanilistli" xmlns="http://www.w3.org/2000/svg" viewBox="0 0 200 200"><title>00172-mawkazalistli</title><path d="M67.91357,149.085,62.08643,140.958a176.18539,176.18539,0,0,0,30.0957-27.27637q.62256-.71339,1.2251-1.40527C84.31738,101.41992,78.36572,92.26709,78.98877,80.7002c1.0249-19.0459,7.6499-29.3584,19.69189-30.65088a12.33071,12.33071,0,0,1,2.63672,0c5.64356.606,18.85742,4.81494,19.69825,30.75781.37988,11.70654-5.49708,20.78174-14.42676,31.46631q.60351.69141,1.22754,1.40722A177.31047,177.31047,0,0,0,137.918,140.96094L132.082,149.082a187.345,187.345,0,0,1-31.79883-28.82519q-.14208-.1626-.28369-.32422l-.28222.32324A186.21229,186.21229,0,0,1,67.91357,149.085Zm32.08692-89.106a2.35648,2.35648,0,0,0-.2544.01368c-2.394.25683-9.68457,1.03955-10.772,21.24511-.4082,7.584,3.26172,13.88086,11.021,23.3042,7.63476-9.29785,11.27929-15.59961,11.02636-23.41064-.41308-12.74414-4.33886-20.44873-10.76953-21.13867A2.28964,2.28964,0,0,0,100.00049,59.979Z"/></svg>