<svg xmlns="http://www.w3.org/2000/svg" viewBox="0 0 200 200" id="ti!j" data-name="ti!j"><title>ti!j</title><path d="M108.6416,175h-.17969c-9.96923-.04395-18.0874-3.74121-22.87207-10.42187-5.86523-8.19239-8.05908-19.53614-6.52148-33.7168a61.73539,61.73539,0,0,1,7.01221-23.30567l8.72363,4.88868a52.20365,52.20365,0,0,0-5.79443,19.49609c-1.26465,11.66113.32031,20.68359,4.71044,26.81641,3.67237,5.12695,10.07276,6.22949,14.83057,6.24316,6.7002-.01953,11.96485-2.23437,14.832-6.24219,4.39063-6.13672,5.97559-15.16015,4.71094-26.81836a52.28058,52.28058,0,0,0-5.7959-19.498l8.72656-4.88282a61.83285,61.83285,0,0,1,7.01075,23.30176c1.53808,14.17578-.65528,25.51953-6.51953,33.71582-4.78028,6.68164-12.89942,10.37988-22.874,10.42383Z"/><path d="M143.91309,158.84277a77.29921,77.29921,0,0,1-19.33692-5.10351,65.03717,65.03717,0,0,1-7.83691-3.874l5.03711-8.63867a54.89927,54.89927,0,0,0,6.6289,3.27442,67.21368,67.21368,0,0,0,16.834,4.42968Z"/><rect x="90.5" y="14" width="43" height="6"/><path d="M116,93.50586a39.9167,39.9167,0,0,1-.31348-55.90674q.31788-.3252.64063-.63916C106.126,37.813,92.75,39.03369,75.50293,40.77734l-1.00586-9.94921c53.61523-5.42042,69.73633-5.813,70.39648-5.82715l.21387,9.998c-.11523.00342-13.35254.48291-22.27637,9.59619a30.10725,30.10725,0,0,0-8.30957,23.251,30.79466,30.79466,0,0,0,8.60743,18.64795Z"/><path d="M89.23584,70.90088a48.10489,48.10489,0,0,1-16.16016-7.60547,38.36221,38.36221,0,0,1-10.6792-11.80469l5.207-2.98144a32.40343,32.40343,0,0,0,9.03125,9.95556,42.05833,42.05833,0,0,0,14.12939,6.63428Z"/></svg>