<svg data-name="Pokalqiloli itik" xmlns="http://www.w3.org/2000/svg" viewBox="0 0 200 200"><title>t</title><path d="M98.918,174.98242a126.87494,126.87494,0,0,1-14.49317-.84765l1.1504-9.9336c25.82128,2.98828,41.38671-2.76367,43.77636-7.5957.26074-.52734,1.46973-3.26465-.2959-5.56543-4.124-5.374-9.17578-10.39649-18.13867-10.79-.75488.01074-4.77148.08105-5.93359.10156l-.44531.06446-1.08887-7.53321-.94629-2.07324.60742-.27637-.00195-.01367.04687-.00683L107.749,128.415c10.56934-5.85059,14.64453-9.53418,16.1709-11.2959-6.37012-2.35547-26.90722-2.47266-34.82861-1.79687l-.84863-9.96485c1.89355-.16015,11.585-.59765,21.105-.18262,15.55371.68262,22.751,3.08008,24.84179,8.27344,2.23243,5.54688-1.74707,11.335-13.17578,18.7168,7.42969,2.77051,12.33887,8.04883,15.97559,12.78711a15.2375,15.2375,0,0,1,1.32422,16.08984C133.40039,170.97559,116.68848,174.98145,98.918,174.98242Zm26.4375-57.10937v0Z"/><rect x="90.5" y="14" width="43" height="6"/><path d="M116,93.50586a39.9167,39.9167,0,0,1-.31348-55.90674q.31788-.3252.64063-.63916C106.126,37.813,92.75,39.03369,75.50293,40.77734l-1.00586-9.94921c53.61523-5.42042,69.73633-5.813,70.39648-5.82715l.21387,9.998c-.11523.00342-13.35254.48291-22.27637,9.59619a30.10725,30.10725,0,0,0-8.30957,23.251,30.79466,30.79466,0,0,0,8.60743,18.64795Z"/><path d="M89.23584,70.90088a48.10489,48.10489,0,0,1-16.16016-7.60547,38.36221,38.36221,0,0,1-10.6792-11.80469l5.207-2.98144a32.40343,32.40343,0,0,0,9.03125,9.95556,42.05833,42.05833,0,0,0,14.12939,6.63428Z"/></svg>