<svg xmlns="http://www.w3.org/2000/svg" viewBox="0 0 200 200" id="tiv" data-name="tiv"><title>tiv</title><path d="M116,93.50586a39.9167,39.9167,0,0,1-.31348-55.90674q.31788-.3252.64063-.63916C106.126,37.813,92.75,39.03369,75.50293,40.77734l-1.00586-9.94921c53.61523-5.42042,69.73633-5.813,70.39648-5.82715l.21387,9.998c-.11523.00342-13.35254.48291-22.27637,9.59619a30.10725,30.10725,0,0,0-8.30957,23.251,30.79466,30.79466,0,0,0,8.60743,18.64795Z"/><path d="M89.23584,70.90088a48.10489,48.10489,0,0,1-16.16016-7.60547,38.36221,38.36221,0,0,1-10.6792-11.80469l5.207-2.98144a32.40343,32.40343,0,0,0,9.03125,9.95556,42.05833,42.05833,0,0,0,14.12939,6.63428Z"/><path d="M76.06787,174.88477l-2.13574-9.76954c11.78418-2.57617,28.98877-8.56152,44.02881-22.44043C128.35645,133.084,135.14063,122.792,138.29,115H75V105h75.98535l-1.06543,5.88965c-1.59179,8.80664-9.1416,24.33887-25.17773,39.13476C108.05469,165.42383,89.062,172.043,76.06787,174.88477Z"/><path d="M134.81055,163.832c-5.81348-.5957-16.94825-2.79687-26.21582-10.84277-6.94922-6.03711-14.00977-21.707-14.71045-23.60156l9.37842-3.47071c1.209,3.2666,7.52832,15.73242,11.88964,19.52246,7.18653,6.23926,16.04,7.96973,20.67774,8.44532Z"/></svg>