<svg xmlns="http://www.w3.org/2000/svg" viewBox="0 0 200 200" id="tla!q" data-name="tla!q"><title>tla!q</title><path d="M85.86523,174.08105l-5.16015-8.5664c.36767-.2207.8916-.50977,1.54053-.86328,4.94775-2.69532,18.09082-9.85645,18.17236-22.95313.06933-11.22461-13.41895-22.85449-22.55713-27.17871l4.11523-9.1123c4.73487,2.03711,36.4751,16.125,53.02393,34.54882V110h10v60H135v-8.67285c.001-9.58789-12.29-20.9043-26.88867-30.50488a27.43239,27.43239,0,0,1,2.30664,10.93847c-.11817,18.99414-17.63281,28.53614-23.38818,31.67188C86.54,173.7002,86.14307,173.91309,85.86523,174.08105Z"/><rect x="82" y="14" width="60" height="6"/><path d="M93.11328,94.98828c-6.6748,0-13.09131-2.16748-16.416-7.83154-3.562-6.07715-3.145-15.82666.94726-22.19824a18.32157,18.32157,0,0,1,9.98389-7.45557l.17724-.06055c9.82813-3.34668,21.78223-.626,35.708,8.084A77.44071,77.44071,0,0,0,137.291,35H75V25h72.94629v5c0,4.56152-3.293,23.93164-16.209,41.19434a183.136,183.136,0,0,1,15.46,13.123c.50976.479.86914.82178,1.0664.99121l-6.52734,7.57618c-.25488-.21973-.72754-.65967-1.38867-1.28174a170.45293,170.45293,0,0,0-15.13575-12.79688A69.09394,69.09394,0,0,1,109.1416,91.001,34.76714,34.76714,0,0,1,93.11328,94.98828Zm3.19531-28.8916a16.22751,16.22751,0,0,0-5.25732.8042l-.19092.06543a8.44223,8.44223,0,0,0-4.80078,3.395c-2.24268,3.4917-2.2373,9.17529-.73682,11.73584,2.59082,4.41406,13.354,3.24267,19.00538.13867a59.2196,59.2196,0,0,0,12.41406-9.11426C107.61816,67.68164,100.96338,66.09668,96.30859,66.09668Z"/></svg>