<svg data-name="Galilqiloli itik" xmlns="http://www.w3.org/2000/svg" viewBox="0 0 200 200"><title>tl</title><path d="M101.98633,175c-11.57031,0-21.84424-3.0918-25.78076-7.81055l7.67871-6.40625c1.25732,1.50684,8.34521,4.375,19.00342,4.21,14.03613-.23046,29.47753-7.68066,31.832-21.47461a26.01024,26.01024,0,0,0-9.45118-24.11132c-4.74414-3.73828-12.57714-5.166-22.05175-4.01758-4.29248.51855-11.48926,4.01172-13.89991,5.31445l-4.75878-8.7959c1.05615-.57129,10.51562-5.60742,17.45849-6.44629,8.583-1.03808,20.66113-.82617,29.44043,6.08985a35.789,35.789,0,0,1,13.12012,33.64941c-3.27149,19.16406-23.36621,29.49219-41.52539,29.79Q102.51709,175,101.98633,175Z"/><path d="M139.23633,171.84961a44.6835,44.6835,0,0,1-14.88672-6.69238,34.96575,34.96575,0,0,1-10.02148-10.58594l8.57617-5.14258a25.0312,25.0312,0,0,0,7.19531,7.54688,35.19669,35.19669,0,0,0,11.57422,5.1748Z"/><path d="M93.11328,94.98828c-6.6748,0-13.09131-2.16748-16.416-7.83154-3.562-6.07715-3.145-15.82666.94726-22.19824a18.32157,18.32157,0,0,1,9.98389-7.45557l.17724-.06055c9.82813-3.34668,21.78223-.626,35.708,8.084A77.44071,77.44071,0,0,0,137.291,35H75V25h72.94629v5c0,4.56152-3.293,23.93164-16.209,41.19434a183.136,183.136,0,0,1,15.46,13.123c.50976.479.86914.82178,1.0664.99121l-6.52734,7.57618c-.25488-.21973-.72754-.65967-1.38867-1.28174a170.45293,170.45293,0,0,0-15.13575-12.79688A69.09394,69.09394,0,0,1,109.1416,91.001,34.76714,34.76714,0,0,1,93.11328,94.98828Zm3.19531-28.8916a16.22751,16.22751,0,0,0-5.25732.8042l-.19092.06543a8.44223,8.44223,0,0,0-4.80078,3.395c-2.24268,3.4917-2.2373,9.17529-.73682,11.73584,2.59082,4.41406,13.354,3.24267,19.00538.13867a59.2196,59.2196,0,0,0,12.41406-9.11426C107.61816,67.68164,100.96338,66.09668,96.30859,66.09668Z"/></svg>