<svg xmlns="http://www.w3.org/2000/svg" viewBox="0 0 200 200" id="tlah" data-name="tlah"><title>tlah</title><path d="M93.11328,94.98828c-6.6748,0-13.09131-2.16748-16.416-7.83154-3.562-6.07715-3.145-15.82666.94726-22.19824a18.32157,18.32157,0,0,1,9.98389-7.45557l.17724-.06055c9.82813-3.34668,21.78223-.626,35.708,8.084A77.44071,77.44071,0,0,0,137.291,35H75V25h72.94629v5c0,4.56152-3.293,23.93164-16.209,41.19434a183.136,183.136,0,0,1,15.46,13.123c.50976.479.86914.82178,1.0664.99121l-6.52734,7.57618c-.25488-.21973-.72754-.65967-1.38867-1.28174a170.45293,170.45293,0,0,0-15.13575-12.79688A69.09394,69.09394,0,0,1,109.1416,91.001,34.76714,34.76714,0,0,1,93.11328,94.98828Zm3.19531-28.8916a16.22751,16.22751,0,0,0-5.25732.8042l-.19092.06543a8.44223,8.44223,0,0,0-4.80078,3.395c-2.24268,3.4917-2.2373,9.17529-.73682,11.73584,2.59082,4.41406,13.354,3.24267,19.00538.13867a59.2196,59.2196,0,0,0,12.41406-9.11426C107.61816,67.68164,100.96338,66.09668,96.30859,66.09668Z"/><path d="M127.22559,172.04785l-9.123-4.0957c10.61621-23.64453,15.47363-38.68848,8.88379-45.61133-3.7168-3.90625-11.834-4.55566-21.71289-1.73633-8.73194,2.49024-12.47217,9.86524-14.07422,15.70508-.63867,3.96484-1.23584,8.38867-1.24414,8.44824L80,144.07227a42.994,42.994,0,0,1,1.37158-9.63184c.23487-1.44336.47608-2.833.70166-3.96875,1.39649-7.02637,2.50342-14.10352,3.29-21.03516l9.93652,1.127q-.21751,1.916-.46582,3.84375a29.15692,29.15692,0,0,1,7.69727-3.41993c13.72461-3.91308,25.27637-2.2871,31.69922,4.459C145.81738,127.62109,138.28125,147.42383,127.22559,172.04785Z"/></svg>