<svg data-name="Neliwqiloli itik" xmlns="http://www.w3.org/2000/svg" viewBox="0 0 200 200"><title>tl</title><path d="M80.44141,174.98047l-.88282-9.96094c26.21387-2.32129,38.71778-2.00586,48.38184-1.52637l4.90039.24317c-.083-5.55274-.14551-14.75586.10938-24.6211.16015-6.22168.792-13.93847,1.59277-23.708l.47363-5.80957,9.9668.80468-.47363,5.82032c-.78809,9.61425-1.41016,17.208-1.56348,23.15039-.39941,15.51758-.00391,29.33886,0,29.47656l.1582,5.4082-15.66015-.77636C118.11719,173.0166,106.02148,172.71484,80.44141,174.98047Z"/><rect x="82" y="14" width="60" height="6"/><path d="M93.11328,94.98828c-6.6748,0-13.09131-2.16748-16.416-7.83154-3.562-6.07715-3.145-15.82666.94726-22.19824a18.32157,18.32157,0,0,1,9.98389-7.45557l.17724-.06055c9.82813-3.34668,21.78223-.626,35.708,8.084A77.44071,77.44071,0,0,0,137.291,35H75V25h72.94629v5c0,4.56152-3.293,23.93164-16.209,41.19434a183.136,183.136,0,0,1,15.46,13.123c.50976.479.86914.82178,1.0664.99121l-6.52734,7.57618c-.25488-.21973-.72754-.65967-1.38867-1.28174a170.45293,170.45293,0,0,0-15.13575-12.79688A69.09394,69.09394,0,0,1,109.1416,91.001,34.76714,34.76714,0,0,1,93.11328,94.98828Zm3.19531-28.8916a16.22751,16.22751,0,0,0-5.25732.8042l-.19092.06543a8.44223,8.44223,0,0,0-4.80078,3.395c-2.24268,3.4917-2.2373,9.17529-.73682,11.73584,2.59082,4.41406,13.354,3.24267,19.00538.13867a59.2196,59.2196,0,0,0,12.41406-9.11426C107.61816,67.68164,100.96338,66.09668,96.30859,66.09668Z"/><path d="M78.23584,60.90088a48.10489,48.10489,0,0,1-16.16016-7.60547,38.36221,38.36221,0,0,1-10.6792-11.80469l5.207-2.98144a32.40343,32.40343,0,0,0,9.03125,9.95556,42.05833,42.05833,0,0,0,14.12939,6.63428Z"/></svg>