<svg xmlns="http://www.w3.org/2000/svg" viewBox="0 0 200 200" id="tlo!c" data-name="tlo!c"><title>tlo!c</title><path d="M93.11328,94.98828c-6.6748,0-13.09131-2.16748-16.416-7.83154-3.562-6.07715-3.145-15.82666.94726-22.19824a18.32157,18.32157,0,0,1,9.98389-7.45557l.17724-.06055c9.82813-3.34668,21.78223-.626,35.708,8.084A77.44071,77.44071,0,0,0,137.291,35H75V25h72.94629v5c0,4.56152-3.293,23.93164-16.209,41.19434a183.136,183.136,0,0,1,15.46,13.123c.50976.479.86914.82178,1.0664.99121l-6.52734,7.57618c-.25488-.21973-.72754-.65967-1.38867-1.28174a170.45293,170.45293,0,0,0-15.13575-12.79688A69.09394,69.09394,0,0,1,109.1416,91.001,34.76714,34.76714,0,0,1,93.11328,94.98828Zm3.19531-28.8916a16.22751,16.22751,0,0,0-5.25732.8042l-.19092.06543a8.44223,8.44223,0,0,0-4.80078,3.395c-2.24268,3.4917-2.2373,9.17529-.73682,11.73584,2.59082,4.41406,13.354,3.24267,19.00538.13867a59.2196,59.2196,0,0,0,12.41406-9.11426C107.61816,67.68164,100.96338,66.09668,96.30859,66.09668Z"/><path d="M65,65A14,14,0,1,1,79,51,14.01572,14.01572,0,0,1,65,65Zm0-22a8,8,0,1,0,8,8A8.00917,8.00917,0,0,0,65,43Z"/><rect x="82" y="14" width="60" height="6"/><path d="M85.00195,174.89844l-2.0039-9.79688a44.21139,44.21139,0,0,0,7.72168-2.31054,18.19289,18.19289,0,0,1-2.59082-3.79c-.709-1.26563-2.7837-4.97364-.86084-11.59961.93506-3.28223,4.43164-9.01758,11.55957-9.55176,7.84814-.60059,14.186,3.81055,15.0708,10.47656a16.02305,16.02305,0,0,1-2.13867,10.04883q.36181-.04834.73535-.10547c5.45019-.81348,10.85254-4.57519,14.45215-10.06348,3.67089-5.59667,4.92968-11.96875,3.4541-17.48144-1.749-6.53613-7.82129-14.17969-17.01856-15.51465-7.29883-1.05664-13.36914,2.20606-15.63916,3.66016L92.3501,110.4502a33.28687,33.28687,0,0,1,22.47021-5.13672c13.75,1.99707,22.585,12.90234,25.24121,22.82519,2.21192,8.26172.4795,17.5752-4.75293,25.55176-5.21386,7.9502-12.99121,13.22363-21.335,14.46973a39.77987,39.77987,0,0,1-12.374.291A50.21526,50.21526,0,0,1,85.00195,174.89844Zm15.1958-27.10059c-.207,0-.41357.00781-.61816.02344a3.21864,3.21864,0,0,0-2.71094,2.37695c-.75342,2.59766-.2539,3.49024-.04052,3.8711.07324.13086.13574.24511.18554.34179a6.93027,6.93027,0,0,0,2.76856,2.97852c2.97656-2.63477,4.50976-5.44043,4.20312-7.748C103.82031,148.39844,102.01172,147.79785,100.19775,147.79785Z"/></svg>