<svg xmlns="http://www.w3.org/2000/svg" viewBox="0 0 200 200" id="tlo!" data-name="tlo!"><title>tlo!</title><path d="M88.11768,150a28.17373,28.17373,0,0,1-7.43311-.94727,19.05158,19.05158,0,0,1-12.42432-9.86718c-4.12255-8.2041-3.60839-21.42774,1.16846-30.10645A22.49514,22.49514,0,0,1,81.46289,98.70752l.23145-.09277c12.58056-4.99561,27.95312-.78955,45.91015,12.49951C140.40137,91.94434,145.50488,70.333,146.919,60H65V50h92.35938v5c0,6.84473-4.39551,36.59131-21.89258,62.374a240.183,240.183,0,0,1,21.65039,21.19922c.68164.74805,1.16406,1.28125,1.42773,1.5459l-7.08984,7.05274c-.31738-.31934-.9043-.959-1.72754-1.86133a229.88938,229.88938,0,0,0-20.27344-19.90723A90.72684,90.72684,0,0,1,108.5,144.1377,39.983,39.983,0,0,1,88.11768,150Zm4.24267-43.34277a18.67443,18.67443,0,0,0-6.94873,1.24121l-.24658.09863a12.53,12.53,0,0,0-6.9751,5.90332c-3.13135,5.68848-3.60547,15.59863-.9956,20.793a9.08017,9.08017,0,0,0,6.13232,4.71484c6.37988,1.74707,14.95166-.59668,19.77881-3.69043a80.56549,80.56549,0,0,0,18.51758-16.55859C108.40527,109.418,98.89307,106.65723,92.36035,106.65723Z"/><path d="M62.74561,101a18,18,0,1,1,18-18A18.02031,18.02031,0,0,1,62.74561,101Zm0-30a12,12,0,1,0,12,12A12.01375,12.01375,0,0,0,62.74561,71Z"/><rect x="70.34277" y="37" width="80" height="6"/></svg>