<svg xmlns="http://www.w3.org/2000/svg" viewBox="0 0 200 200" id="tlu!" data-name="tlu!"><title>tlu!</title><path d="M88.11768,150a28.17373,28.17373,0,0,1-7.43311-.94727,19.05158,19.05158,0,0,1-12.42432-9.86718c-4.12255-8.2041-3.60839-21.42774,1.16846-30.10645A22.49514,22.49514,0,0,1,81.46289,98.70752l.23145-.09277c12.58056-4.99561,27.95312-.78955,45.91015,12.49951C140.40137,91.94434,145.50488,70.333,146.919,60H65V50h92.35938v5c0,6.84473-4.39551,36.59131-21.89258,62.374a240.183,240.183,0,0,1,21.65039,21.19922c.68164.74805,1.16406,1.28125,1.42773,1.5459l-7.08984,7.05274c-.31738-.31934-.9043-.959-1.72754-1.86133a229.88938,229.88938,0,0,0-20.27344-19.90723A90.72684,90.72684,0,0,1,108.5,144.1377,39.983,39.983,0,0,1,88.11768,150Zm4.24267-43.34277a18.67443,18.67443,0,0,0-6.94873,1.24121l-.24658.09863a12.53,12.53,0,0,0-6.9751,5.90332c-3.13135,5.68848-3.60547,15.59863-.9956,20.793a9.08017,9.08017,0,0,0,6.13232,4.71484c6.37988,1.74707,14.95166-.59668,19.77881-3.69043a80.56549,80.56549,0,0,0,18.51758-16.55859C108.40527,109.418,98.89307,106.65723,92.36035,106.65723Z"/><path d="M46.99238,101c-.25928,0-.51855-.00293-.7793-.00879l.13282-5.998A25.81867,25.81867,0,0,0,57.55732,92.792a28.07891,28.07891,0,0,0,7.48145-5.0664,15.1351,15.1351,0,0,1-2.28223-1.75342c-1.31445-1.22852-4.80566-4.4917-4.70508-9.54785a12.09537,12.09537,0,0,1,8.76172-11.02539c4.03711-1.08448,9.42481-.03077,11.44434,3.61328,1.32422,2.38916,1.36132,5.648.1084,9.42431a30.73317,30.73317,0,0,1-4.25684,8.02442l-.26758,4.0415a19.00229,19.00229,0,0,1-2.72656-.38183,34.87325,34.87325,0,0,1-11.08887,8.14013A31.4444,31.4444,0,0,1,46.99238,101ZM69.93525,70.99707A5.82921,5.82921,0,0,0,64.05049,76.544c-.04786,2.38037,1.80761,4.11376,2.80371,5.04541a9.61569,9.61569,0,0,0,2.26172,1.55615,24.71961,24.71961,0,0,0,3.55566-6.59815c.80078-2.415.70019-3.97314.33789-4.62646C72.77021,71.48926,71.43427,70.99707,69.93525,70.99707Z"/><rect x="70.34277" y="37" width="80" height="6"/></svg>