<svg xmlns="http://www.w3.org/2000/svg" viewBox="0 0 200 200" id="tu!m" data-name="tu!m"><title>tu!m</title><path d="M116,93.50586a39.9167,39.9167,0,0,1-.31348-55.90674q.31788-.3252.64063-.63916C106.126,37.813,92.75,39.03369,75.50293,40.77734l-1.00586-9.94921c53.61523-5.42042,69.73633-5.813,70.39648-5.82715l.21387,9.998c-.11523.00342-13.35254.48291-22.27637,9.59619a30.10725,30.10725,0,0,0-8.30957,23.251,30.79466,30.79466,0,0,0,8.60743,18.64795Z"/><path d="M64.54717,74.00323c-.18946,0-.37891-.002-.56934-.00635l.08887-3.999a18.89653,18.89653,0,0,0,8.30859-1.63135,20.94321,20.94321,0,0,0,5.75244-3.91944,10.9588,10.9588,0,0,1-1.88525-1.41015c-.94629-.88428-3.45947-3.23389-3.38721-6.85205a8.66356,8.66356,0,0,1,6.27637-7.896c2.88721-.77588,6.73193-.0332,8.166,2.55371.94335,1.70166.96582,4.03614.06542,6.75049a22.09014,22.09014,0,0,1-2.90576,5.56885l-.2124,3.14355a13.79928,13.79928,0,0,1-2.07715-.30029,25.40042,25.40042,0,0,1-8.147,6.00684A22.85223,22.85223,0,0,1,64.54717,74.00323Zm16.835-22.00391A4.48162,4.48162,0,0,0,76.8543,56.265c-.03663,1.834,1.41992,3.1958,2.11962,3.85009a7.35291,7.35291,0,0,0,1.87452,1.25586,18.68512,18.68512,0,0,0,2.71826-5.03711c.60742-1.832.51855-3.03613.23291-3.55175A3.1954,3.1954,0,0,0,81.38213,51.99932Z"/><rect x="90.5" y="14" width="43" height="6"/><path d="M135.88184,175c-6.417.001-10.35547-4.62207-12.043-6.60254-3.01953-3.53223-4.50879-8.90234-5.12989-11.80371-2-.0918-3.95214-.1582-5.916-.16211-3.92774.002-7.833.124-11.60645.39551-2.624.1875-5.26416.31738-8.05908.45312-1.86914.0918-3.76416.18457-5.67236.29688l-2.11963.124c-3.29492.19238-6.70215.39063-9.92236.65821l-.82618-9.9668c3.34229-.27637,6.812-.47852,10.167-.67383l2.11035-.124c1.94336-.11426,3.87256-.209,5.7749-.30176,2.73682-.13379,5.32178-.26074,7.83154-.44043,4.01856-.28809,8.18067-.41016,12.34278-.4209,1.62011.00293,3.2373.0459,4.83984.1084-.17969-3.39746-.21875-6.81543-.13086-10.59863.23535-10.0752,3.03223-26.127,3.15137-26.80469l9.84961,1.72656c-.02735.15918-2.78614,15.99121-3.00293,25.31055-.09278,3.95117-.042,7.38476.1748,10.85547a69.00526,69.00526,0,0,1,10.583,1.42675c2.10449.46583,7.71582,1.70508,10.41113,6.77149,3.15821,5.93652-.32715,12.10547-.73535,12.78906A14.19563,14.19563,0,0,1,136.00488,175Zm-6.69825-17.82617a14.38822,14.38822,0,0,0,2.26172,4.73144c1.39942,1.64258,2.76758,3.124,4.46875,3.09473a4.3173,4.3173,0,0,0,3.44824-2.10059c.34961-.62011.89844-2.22363.499-2.97461-.24121-.45312-1.08789-1.11718-3.749-1.70605A54.76087,54.76087,0,0,0,129.18359,157.17383Z"/></svg>