<svg xmlns="http://www.w3.org/2000/svg" viewBox="0 0 200 200" id="u!&apos;" data-name="u!&apos;"><title>u!'</title><polygon points="63.423 85 57.423 85 57.423 52 90.423 52 90.423 58 63.423 58 63.423 85"/><path d="M67.13574,150c-.74756,0-1.49463-.00781-2.24658-.02441l.22168-9.99805A80.78045,80.78045,0,0,0,100.48,133.02148a90.17943,90.17943,0,0,0,27.50049-19.71386,43.19994,43.19994,0,0,1-10.81738-7.3125c-3.58594-3.35352-13.11329-12.26074-12.84668-25.64307.26269-13.19775,10.28906-25.79,23.32226-29.2915,10.40332-2.79688,24.75391-.18018,29.7959,8.916,3.416,6.1626,3.42676,14.83252.03027,25.07227a88.40373,88.40373,0,0,1-12.28027,23.12109c1.1377.16895,2.2832.291,3.42773.36719l-.6621,9.97852a52.87254,52.87254,0,0,1-9.07129-1.40333c-.21289-.05175-.45411-.11132-.72168-.17773a101.36678,101.36678,0,0,1-33.56348,25.20215A90.361,90.361,0,0,1,67.13574,150Zm68.875-90.00684a22.46293,22.46293,0,0,0-5.77832.72461c-8.751,2.35157-15.74316,11.063-15.918,19.8335-.17773,8.92383,6.4795,15.14795,9.67871,18.13916a34.28658,34.28658,0,0,0,10.84278,6.71875A81.41479,81.41479,0,0,0,147.97266,81.8999c2.42285-7.30176,2.68359-13.52588.71582-17.07519C147.05273,61.87451,141.61133,59.99316,136.01074,59.99316Z"/><rect x="70.34277" y="37" width="80" height="6"/></svg>