<svg xmlns="http://www.w3.org/2000/svg" viewBox="0 0 200 200" id="u!j" data-name="u!j"><title>u!j</title><path d="M108.6416,175h-.17969c-9.96923-.04395-18.0874-3.74121-22.87207-10.42187-5.86523-8.19239-8.05908-19.53614-6.52148-33.7168a61.73539,61.73539,0,0,1,7.01221-23.30567l8.72363,4.88868a52.20365,52.20365,0,0,0-5.79443,19.49609c-1.26465,11.66113.32031,20.68359,4.71044,26.81641,3.67237,5.12695,10.07276,6.22949,14.83057,6.24316,6.7002-.01953,11.96485-2.23437,14.832-6.24219,4.39063-6.13672,5.97559-15.16015,4.71094-26.81836a52.28058,52.28058,0,0,0-5.7959-19.498l8.72656-4.88282a61.83285,61.83285,0,0,1,7.01075,23.30176c1.53808,14.17578-.65528,25.51953-6.51953,33.71582-4.78028,6.68164-12.89942,10.37988-22.874,10.42383Z"/><path d="M143.91309,158.84277a77.29921,77.29921,0,0,1-19.33692-5.10351,65.03717,65.03717,0,0,1-7.83691-3.874l5.03711-8.63867a54.89927,54.89927,0,0,0,6.6289,3.27442,67.21368,67.21368,0,0,0,16.834,4.42968Z"/><path d="M81.4248,95q-.76538.00073-1.53564-.01709l.22168-9.99707a52.46285,52.46285,0,0,0,22.85693-4.49023,57.7767,57.7767,0,0,0,16.249-11.19336,29.654,29.654,0,0,1-5.5791-4.08838c-2.53907-2.373-9.28516-8.67871-9.09278-18.34522.18848-9.5122,7.40235-18.585,16.78125-21.10449,7.53711-2.02539,18.00293-.02393,21.75488,6.74561,2.50977,4.52636,2.55958,10.76757.14356,18.04785a59.14623,59.14623,0,0,1-7.43652,14.45605l-.60059,8.99268a36.97981,36.97981,0,0,1-5.85449-.86572,68.91185,68.91185,0,0,1-22.252,16.46923A61.87559,61.87559,0,0,1,81.4248,95Zm45.917-60.01367a13.2571,13.2571,0,0,0-3.42188.43506c-5.15625,1.38574-9.27539,6.501-9.377,11.6455-.10352,5.208,3.96777,9.01368,5.92383,10.84229a20.62752,20.62752,0,0,0,5.5625,3.66064,51.61486,51.61486,0,0,0,7.7041-14.16113c1.44726-4.3623,1.67187-8.11963.60156-10.05078C133.66016,36.14063,130.67969,34.98633,127.3418,34.98633Z"/><rect x="82" y="14" width="60" height="6"/></svg>