<svg xmlns="http://www.w3.org/2000/svg" viewBox="0 0 200 200" id="u!m" data-name="u!m"><title>u!m</title><path d="M135.88184,175c-6.417.001-10.35547-4.62207-12.043-6.60254-3.01953-3.53223-4.50879-8.90234-5.12989-11.80371-2-.0918-3.95214-.1582-5.916-.16211-3.92774.002-7.833.124-11.60645.39551-2.624.1875-5.26416.31738-8.05908.45312-1.86914.0918-3.76416.18457-5.67236.29688l-2.11963.124c-3.29492.19238-6.70215.39063-9.92236.65821l-.82618-9.9668c3.34229-.27637,6.812-.47852,10.167-.67383l2.11035-.124c1.94336-.11426,3.87256-.209,5.7749-.30176,2.73682-.13379,5.32178-.26074,7.83154-.44043,4.01856-.28809,8.18067-.41016,12.34278-.4209,1.62011.00293,3.2373.0459,4.83984.1084-.17969-3.39746-.21875-6.81543-.13086-10.59863.23535-10.0752,3.03223-26.127,3.15137-26.80469l9.84961,1.72656c-.02735.15918-2.78614,15.99121-3.00293,25.31055-.09278,3.95117-.042,7.38476.1748,10.85547a69.00526,69.00526,0,0,1,10.583,1.42675c2.10449.46583,7.71582,1.70508,10.41113,6.77149,3.15821,5.93652-.32715,12.10547-.73535,12.78906A14.19563,14.19563,0,0,1,136.00488,175Zm-6.69825-17.82617a14.38822,14.38822,0,0,0,2.26172,4.73144c1.39942,1.64258,2.76758,3.124,4.46875,3.09473a4.3173,4.3173,0,0,0,3.44824-2.10059c.34961-.62011.89844-2.22363.499-2.97461-.24121-.45312-1.08789-1.11718-3.749-1.70605A54.76087,54.76087,0,0,0,129.18359,157.17383Z"/><path d="M81.4248,95q-.76538.00073-1.53564-.01709l.22168-9.99707a52.46285,52.46285,0,0,0,22.85693-4.49023,57.7767,57.7767,0,0,0,16.249-11.19336,29.654,29.654,0,0,1-5.5791-4.08838c-2.53907-2.373-9.28516-8.67871-9.09278-18.34522.18848-9.5122,7.40235-18.585,16.78125-21.10449,7.53711-2.02539,18.00293-.02393,21.75488,6.74561,2.50977,4.52636,2.55958,10.76757.14356,18.04785a59.14623,59.14623,0,0,1-7.43652,14.45605l-.60059,8.99268a36.97981,36.97981,0,0,1-5.85449-.86572,68.91185,68.91185,0,0,1-22.252,16.46923A61.87559,61.87559,0,0,1,81.4248,95Zm45.917-60.01367a13.2571,13.2571,0,0,0-3.42188.43506c-5.15625,1.38574-9.27539,6.501-9.377,11.6455-.10352,5.208,3.96777,9.01368,5.92383,10.84229a20.62752,20.62752,0,0,0,5.5625,3.66064,51.61486,51.61486,0,0,0,7.7041-14.16113c1.44726-4.3623,1.67187-8.11963.60156-10.05078C133.66016,36.14063,130.67969,34.98633,127.3418,34.98633Z"/><rect x="82" y="14" width="60" height="6"/></svg>