<svg data-name="Tlachalqiloli itik" xmlns="http://www.w3.org/2000/svg" viewBox="0 0 200 200"><title>u</title><path d="M93.11328,174.98828c-6.6748,0-13.0918-2.168-16.416-7.832-3.562-6.07617-3.145-15.82617.94726-22.19824a18.32593,18.32593,0,0,1,9.97852-7.45313l.17968-.0625c9.83106-3.3457,21.78321-.626,35.71094,8.084A77.46083,77.46083,0,0,0,137.291,115H75V105h72.94629v5c0,4.56152-3.29395,23.93164-16.209,41.19434a183.10189,183.10189,0,0,1,15.458,13.12207c.51074.47949.8711.82226,1.06739.99218l-6.5254,7.57618c-.25585-.21973-.72851-.66016-1.3916-1.28321a170.40013,170.40013,0,0,0-15.13379-12.79492A69.09243,69.09243,0,0,1,109.1416,171.001,34.75349,34.75349,0,0,1,93.11328,174.98828Zm3.19483-28.8916a16.239,16.239,0,0,0-5.25684.80371l-.19189.06543a8.45157,8.45157,0,0,0-4.8003,3.39551c-2.24219,3.49121-2.23681,9.1748-.73633,11.73535,2.59082,4.415,13.354,3.24414,19.00538.13965a59.25416,59.25416,0,0,0,12.41406-9.11426C107.61816,147.68164,100.9624,146.09668,96.30811,146.09668Z"/><path d="M81.4248,95q-.76538.00073-1.53564-.01709l.22168-9.99707a52.46285,52.46285,0,0,0,22.85693-4.49023,57.7767,57.7767,0,0,0,16.249-11.19336,29.654,29.654,0,0,1-5.5791-4.08838c-2.53907-2.373-9.28516-8.67871-9.09278-18.34522.18848-9.5122,7.40235-18.585,16.78125-21.10449,7.53711-2.02539,18.00293-.02393,21.75488,6.74561,2.50977,4.52636,2.55958,10.76757.14356,18.04785a59.14623,59.14623,0,0,1-7.43652,14.45605l-.60059,8.99268a36.97981,36.97981,0,0,1-5.85449-.86572,68.91185,68.91185,0,0,1-22.252,16.46923A61.87559,61.87559,0,0,1,81.4248,95Zm45.917-60.01367a13.2571,13.2571,0,0,0-3.42188.43506c-5.15625,1.38574-9.27539,6.501-9.377,11.6455-.10352,5.208,3.96777,9.01368,5.92383,10.84229a20.62752,20.62752,0,0,0,5.5625,3.66064,51.61486,51.61486,0,0,0,7.7041-14.16113c1.44726-4.3623,1.67187-8.11963.60156-10.05078C133.66016,36.14063,130.67969,34.98633,127.3418,34.98633Z"/><rect x="82" y="14" width="60" height="6"/></svg>