<svg data-name="Ufalqiloli akopa" xmlns="http://www.w3.org/2000/svg" viewBox="0 0 200 200"><title>u</title><path d="M81.4248,95q-.76538.00073-1.53564-.01709l.22168-9.99707a52.46285,52.46285,0,0,0,22.85693-4.49023,57.7767,57.7767,0,0,0,16.249-11.19336,29.654,29.654,0,0,1-5.5791-4.08838c-2.53907-2.373-9.28516-8.67871-9.09278-18.34522.18848-9.5122,7.40235-18.585,16.78125-21.10449,7.53711-2.02539,18.00293-.02393,21.75488,6.74561,2.50977,4.52636,2.55958,10.76757.14356,18.04785a59.14623,59.14623,0,0,1-7.43652,14.45605l-.60059,8.99268a36.97981,36.97981,0,0,1-5.85449-.86572,68.91185,68.91185,0,0,1-22.252,16.46923A61.87559,61.87559,0,0,1,81.4248,95Zm45.917-60.01367a13.2571,13.2571,0,0,0-3.42188.43506c-5.15625,1.38574-9.27539,6.501-9.377,11.6455-.10352,5.208,3.96777,9.01368,5.92383,10.84229a20.62752,20.62752,0,0,0,5.5625,3.66064,51.61486,51.61486,0,0,0,7.7041-14.16113c1.44726-4.3623,1.67187-8.11963.60156-10.05078C133.66016,36.14063,130.67969,34.98633,127.3418,34.98633Z"/><path d="M124.833,172.0498l-9.1211-4.0996c10.624-23.64258,15.48536-38.68555,8.89161-45.6084-3.72071-3.90528-11.84571-4.55664-21.74024-1.73731-8.81787,2.5127-12.55078,10.08985-14.13086,15.96973-.623,3.89551-1.19433,8.125-1.20263,8.18457l-9.95508-.68652a42.93215,42.93215,0,0,1,1.373-9.63282c.23487-1.44336.47608-2.833.70215-3.96875,1.39893-7.03515,2.50684-14.1123,3.29248-21.03418l9.93653,1.127q-.21753,1.91748-.4668,3.84765a29.16583,29.16583,0,0,1,7.71094-3.42383c13.73144-3.91406,25.293-2.28906,31.7207,4.457C143.44141,127.62109,135.89844,147.4248,124.833,172.0498Z"/><path d="M141.96582,158.84961a89.67367,89.67367,0,0,1-20.90234-5.05566,73.17372,73.17372,0,0,1-8.47461-3.8379l4.71289-8.82031a62.98587,62.98587,0,0,0,7.3125,3.30957,79.64571,79.64571,0,0,0,18.56836,4.47852Z"/></svg>