<svg data-name="Ufalqiloli akopa" xmlns="http://www.w3.org/2000/svg" viewBox="0 0 200 200"><title>u</title><path d="M81.4248,95q-.76538.00073-1.53564-.01709l.22168-9.99707a52.46285,52.46285,0,0,0,22.85693-4.49023,57.7767,57.7767,0,0,0,16.249-11.19336,29.654,29.654,0,0,1-5.5791-4.08838c-2.53907-2.373-9.28516-8.67871-9.09278-18.34522.18848-9.5122,7.40235-18.585,16.78125-21.10449,7.53711-2.02539,18.00293-.02393,21.75488,6.74561,2.50977,4.52636,2.55958,10.76757.14356,18.04785a59.14623,59.14623,0,0,1-7.43652,14.45605l-.60059,8.99268a36.97981,36.97981,0,0,1-5.85449-.86572,68.91185,68.91185,0,0,1-22.252,16.46923A61.87559,61.87559,0,0,1,81.4248,95Zm45.917-60.01367a13.2571,13.2571,0,0,0-3.42188.43506c-5.15625,1.38574-9.27539,6.501-9.377,11.6455-.10352,5.208,3.96777,9.01368,5.92383,10.84229a20.62752,20.62752,0,0,0,5.5625,3.66064,51.61486,51.61486,0,0,0,7.7041-14.16113c1.44726-4.3623,1.67187-8.11963.60156-10.05078C133.66016,36.14063,130.67969,34.98633,127.3418,34.98633Z"/><path d="M85.86523,174.08105l-5.16015-8.5664c.36767-.2207.8916-.50977,1.54053-.86328,4.94775-2.69532,18.09082-9.85645,18.17236-22.95313.06933-11.22461-13.41895-22.85449-22.55713-27.17871l4.11523-9.1123c4.73487,2.03711,36.4751,16.125,53.02393,34.54882V110h10v60H135v-8.67285c.001-9.58789-12.29-20.9043-26.88867-30.50488a27.43239,27.43239,0,0,1,2.30664,10.93847c-.11817,18.99414-17.63281,28.53614-23.38818,31.67188C86.54,173.7002,86.14307,173.91309,85.86523,174.08105Z"/></svg>