<svg xmlns="http://www.w3.org/2000/svg" viewBox="0 0 200 200" id="ve&apos;" data-name="ve&apos;"><title>ve'</title><path d="M66.23584,149.84473l-2.47168-9.68946a117.59858,117.59858,0,0,0,57.16846-34.03418C135.91113,89.99707,145.208,72.419,148.75977,60H65V50h95.834l-.89257,5.76563c-1.97852,12.76513-11.46289,35.395-31.68262,57.1621A127.58609,127.58609,0,0,1,66.23584,149.84473Z"/><path d="M141.96191,133.252c-7.36523-.87988-21.46093-4.11718-33.11132-15.918-8.0835-8.19433-17.00586-30.2373-18.30811-34.34326l9.53223-3.02343c1.604,5.05664,10.03076,24.39892,15.89306,30.34326a46.1392,46.1392,0,0,0,27.17969,13.01172Z"/><path d="M85.94971,93.50732a47.02288,47.02288,0,0,1-17.002-9.584A45.72672,45.72672,0,0,1,57.86182,69.25879l5.41308-2.58691a39.78366,39.78366,0,0,0,9.64063,12.751,41.05946,41.05946,0,0,0,14.84863,8.36572Z"/><path d="M66.44824,104.84863a47.00955,47.00955,0,0,1-17.00244-9.584A45.727,45.727,0,0,1,38.35986,80.6001L43.773,78.01318a39.78356,39.78356,0,0,0,9.64062,12.751,41.04888,41.04888,0,0,0,14.84815,8.36523Z"/><polygon points="29.423 85 23.423 85 23.423 52 56.423 52 56.423 58 29.423 58 29.423 85"/></svg>