<svg xmlns="http://www.w3.org/2000/svg" viewBox="0 0 200 200" id="vo!y" data-name="vo!y"><title>vo!y</title><path d="M110.09277,175h-.17968c-9.97657-.04395-18.10108-3.74023-22.88868-10.41992-5.87207-8.19336-8.06836-19.53809-6.5288-33.71973a61.703,61.703,0,0,1,7.01953-23.30664l8.72168,4.89258A52.15739,52.15739,0,0,0,90.437,131.94141c-1.26562,11.65918.32031,20.68066,4.71485,26.81347C98.8291,163.88379,105.2373,164.98633,110.002,165c6.708-.01953,11.9795-2.23535,14.85059-6.24414,4.39551-6.1377,5.98242-15.15918,4.71582-26.81543a52.25319,52.25319,0,0,0-5.80078-19.49707l8.72461-4.88672a61.80615,61.80615,0,0,1,7.01758,23.30274c1.54,14.17675-.65528,25.52148-6.52637,33.71875-4.78418,6.68066-12.90918,10.37792-22.89063,10.42187Z"/><rect x="76" y="14" width="70" height="6"/><path d="M76.06787,94.88477l-2.13574-9.76954c11.78418-2.57666,28.98877-8.56152,44.02881-22.43994C128.35547,53.08447,135.14063,42.792,138.29,35H75V25h75.98535l-1.06543,5.88965c-1.59179,8.80566-9.1416,24.33887-25.17773,39.13476C108.05469,85.42383,89.062,92.04346,76.06787,94.88477Z"/><path d="M134.81055,83.83252c-5.81153-.5957-16.94629-2.7959-26.21582-10.84326-6.94825-6.0376-14.00977-21.707-14.71045-23.60108l9.37842-3.4707c1.209,3.26611,7.52832,15.73242,11.88964,19.522,7.18848,6.24121,16.041,7.97022,20.67774,8.44483Z"/><path d="M65,65A14,14,0,1,1,79,51,14.01572,14.01572,0,0,1,65,65Zm0-22a8,8,0,1,0,8,8A8.00917,8.00917,0,0,0,65,43Z"/></svg>