<svg data-name="Galilqiloli itik" xmlns="http://www.w3.org/2000/svg" viewBox="0 0 200 200"><title>v</title><path d="M101.98633,175c-11.57031,0-21.84424-3.0918-25.78076-7.81055l7.67871-6.40625c1.25732,1.50684,8.34521,4.375,19.00342,4.21,14.03613-.23046,29.47753-7.68066,31.832-21.47461a26.01024,26.01024,0,0,0-9.45118-24.11132c-4.74414-3.73828-12.57714-5.166-22.05175-4.01758-4.29248.51855-11.48926,4.01172-13.89991,5.31445l-4.75878-8.7959c1.05615-.57129,10.51562-5.60742,17.45849-6.44629,8.583-1.03808,20.66113-.82617,29.44043,6.08985a35.789,35.789,0,0,1,13.12012,33.64941c-3.27149,19.16406-23.36621,29.49219-41.52539,29.79Q102.51709,175,101.98633,175Z"/><path d="M139.23633,171.84961a44.6835,44.6835,0,0,1-14.88672-6.69238,34.96575,34.96575,0,0,1-10.02148-10.58594l8.57617-5.14258a25.0312,25.0312,0,0,0,7.19531,7.54688,35.19669,35.19669,0,0,0,11.57422,5.1748Z"/><path d="M76.06787,94.88477l-2.13574-9.76954c11.78418-2.57666,28.98877-8.56152,44.02881-22.43994C128.35547,53.08447,135.14063,42.792,138.29,35H75V25h75.98535l-1.06543,5.88965c-1.59179,8.80566-9.1416,24.33887-25.17773,39.13476C108.05469,85.42383,89.062,92.04346,76.06787,94.88477Z"/><path d="M134.81055,83.83252c-5.81153-.5957-16.94629-2.7959-26.21582-10.84326-6.94825-6.0376-14.00977-21.707-14.71045-23.60108l9.37842-3.4707c1.209,3.26611,7.52832,15.73242,11.88964,19.522,7.18848,6.24121,16.041,7.97022,20.67774,8.44483Z"/><path d="M65,65A14,14,0,1,1,79,51,14.01572,14.01572,0,0,1,65,65Zm0-22a8,8,0,1,0,8,8A8.00917,8.00917,0,0,0,65,43Z"/></svg>