<svg xmlns="http://www.w3.org/2000/svg" viewBox="0 0 200 200" id="vu&apos;" data-name="vu&apos;"><title>vu'</title><path d="M66.23584,149.84473l-2.47168-9.68946a117.59858,117.59858,0,0,0,57.16846-34.03418C135.91113,89.99707,145.208,72.419,148.75977,60H65V50h95.834l-.89257,5.76563c-1.97852,12.76513-11.46289,35.395-31.68262,57.1621A127.58609,127.58609,0,0,1,66.23584,149.84473Z"/><path d="M141.96191,133.252c-7.36523-.87988-21.46093-4.11718-33.11132-15.918-8.0835-8.19433-17.00586-30.2373-18.30811-34.34326l9.53223-3.02343c1.604,5.05664,10.03076,24.39892,15.89306,30.34326a46.1392,46.1392,0,0,0,27.17969,13.01172Z"/><path d="M46.99238,101c-.25928,0-.51855-.00293-.7793-.00879l.13282-5.998A25.81867,25.81867,0,0,0,57.55732,92.792a28.07891,28.07891,0,0,0,7.48145-5.0664,15.1351,15.1351,0,0,1-2.28223-1.75342c-1.31445-1.22852-4.80566-4.4917-4.70508-9.54785a12.09537,12.09537,0,0,1,8.76172-11.02539c4.03711-1.08448,9.42481-.03077,11.44434,3.61328,1.32422,2.38916,1.36132,5.648.1084,9.42431a30.73317,30.73317,0,0,1-4.25684,8.02442l-.26758,4.0415a19.00229,19.00229,0,0,1-2.72656-.38183,34.87325,34.87325,0,0,1-11.08887,8.14013A31.4444,31.4444,0,0,1,46.99238,101ZM69.93525,70.99707A5.82921,5.82921,0,0,0,64.05049,76.544c-.04786,2.38037,1.80761,4.11376,2.80371,5.04541a9.61569,9.61569,0,0,0,2.26172,1.55615,24.71961,24.71961,0,0,0,3.55566-6.59815c.80078-2.415.70019-3.97314.33789-4.62646C72.77021,71.48926,71.43427,70.99707,69.93525,70.99707Z"/><polygon points="29.423 85 23.423 85 23.423 52 56.423 52 56.423 58 29.423 58 29.423 85"/></svg>