<svg data-name="Zawilqiloli itik" xmlns="http://www.w3.org/2000/svg" viewBox="0 0 200 200"><title>w</title><path d="M141.56152,173.44629c-2.915-2.76074-18.18164-12.71484-39.57714-10.96484-13.32667,1.08789-21.5752,7.1748-23.78614,9.01464l-6.75586-7.35742.52881-.53515,52.92334-57.00489,7.32813,6.80274L95.1709,153.31152a59.446,59.446,0,0,1,5.999-.79687c24.80371-2.02735,42.53125,9.18262,47.26856,13.67187Z"/><path d="M122.45605,170.26855l-9.98632-.5371a43.21035,43.21035,0,0,1,3.81347-15.53711,48.31344,48.31344,0,0,1,11.94239-16.08692l6.67382,7.44727a38.38984,38.38984,0,0,0-9.50488,12.76074A33.22622,33.22622,0,0,0,122.45605,170.26855Z"/><path d="M76.06787,94.88477l-2.13574-9.76954c11.78418-2.57666,28.98877-8.56152,44.02881-22.43994C128.35547,53.08447,135.14063,42.792,138.29,35H75V25h75.98535l-1.06543,5.88965c-1.59179,8.80566-9.1416,24.33887-25.17773,39.13476C108.05469,85.42383,89.062,92.04346,76.06787,94.88477Z"/><path d="M78.23584,60.90088a48.10489,48.10489,0,0,1-16.16016-7.60547,38.36221,38.36221,0,0,1-10.6792-11.80469l5.207-2.98144a32.40343,32.40343,0,0,0,9.03125,9.95556,42.05833,42.05833,0,0,0,14.12939,6.63428Z"/></svg>