<svg xmlns="http://www.w3.org/2000/svg" viewBox="0 0 200 200" id="wi!w" data-name="wi!w"><title>wi!w</title><path d="M76.06787,174.88477l-2.13574-9.76954c11.78418-2.57617,28.98877-8.56152,44.02881-22.44043C128.35645,133.084,135.14063,122.792,138.29,115H75V105h75.98535l-1.06543,5.88965c-1.59179,8.80664-9.1416,24.33887-25.17773,39.13476C108.05469,165.42383,89.062,172.043,76.06787,174.88477Z"/><rect x="76" y="14" width="70" height="6"/><path d="M76.06787,94.88477l-2.13574-9.76954c11.78418-2.57666,28.98877-8.56152,44.02881-22.43994C128.35547,53.08447,135.14063,42.792,138.29,35H75V25h75.98535l-1.06543,5.88965c-1.59179,8.80566-9.1416,24.33887-25.17773,39.13476C108.05469,85.42383,89.062,92.04346,76.06787,94.88477Z"/><path d="M78.23584,60.90088a48.10489,48.10489,0,0,1-16.16016-7.60547,38.36221,38.36221,0,0,1-10.6792-11.80469l5.207-2.98144a32.40343,32.40343,0,0,0,9.03125,9.95556,42.05833,42.05833,0,0,0,14.12939,6.63428Z"/></svg>