<svg xmlns="http://www.w3.org/2000/svg" viewBox="0 0 200 200" id="wi&apos;" data-name="wi&apos;"><title>wi'</title><path d="M66.23584,149.84473l-2.47168-9.68946a117.59858,117.59858,0,0,0,57.16846-34.03418C135.91113,89.99707,145.208,72.419,148.75977,60H65V50h95.834l-.89257,5.76563c-1.97852,12.76513-11.46289,35.395-31.68262,57.1621A127.58609,127.58609,0,0,1,66.23584,149.84473Z"/><path d="M76.11279,93.36572a48.17194,48.17194,0,0,1-17.17431-9.498A45.55822,45.55822,0,0,1,47.73145,69.313L53.126,66.687a39.6029,39.6029,0,0,0,9.7417,12.646,42.12337,42.12337,0,0,0,15.01953,8.30127Z"/><polygon points="29.423 85 23.423 85 23.423 52 56.423 52 56.423 58 29.423 58 29.423 85"/></svg>