<svg xmlns="http://www.w3.org/2000/svg" viewBox="0 0 200 200" id="wiks" data-name="wiks"><title>wiks</title><path d="M76.06787,94.88477l-2.13574-9.76954c11.78418-2.57666,28.98877-8.56152,44.02881-22.43994C128.35547,53.08447,135.14063,42.792,138.29,35H75V25h75.98535l-1.06543,5.88965c-1.59179,8.80566-9.1416,24.33887-25.17773,39.13476C108.05469,85.42383,89.062,92.04346,76.06787,94.88477Z"/><path d="M78.23584,60.90088a48.10489,48.10489,0,0,1-16.16016-7.60547,38.36221,38.36221,0,0,1-10.6792-11.80469l5.207-2.98144a32.40343,32.40343,0,0,0,9.03125,9.95556,42.05833,42.05833,0,0,0,14.12939,6.63428Z"/><path d="M141.56152,173.44629c-2.915-2.76074-18.18164-12.71484-39.57714-10.96484-13.32667,1.08789-21.5752,7.1748-23.78614,9.01464l-6.75586-7.35742.84815-.8584.30322-.22656c31.90918-23.791,45.26172-39.70019,49.4209-48.05371H75V105h58.55859v5c0,9.75684-11.09472,24.48145-31.74609,42.46484,24.46973-1.78125,41.92969,9.27149,46.626,13.72168Z"/><path d="M130.23438,170.2666l-9.98633-.5332a43.17421,43.17421,0,0,1,3.81347-15.53906,48.30323,48.30323,0,0,1,11.94239-16.08692l6.67382,7.44727a38.36619,38.36619,0,0,0-9.50488,12.75976A33.2049,33.2049,0,0,0,130.23438,170.2666Z"/></svg>