<svg data-name="Dunilqiloli itik" xmlns="http://www.w3.org/2000/svg" viewBox="0 0 200 200"><title>w</title><path d="M116,173.50586a39.91736,39.91736,0,0,1-.31348-55.90723c.21192-.21679.42481-.42871.64063-.63867-10.20117.85352-23.57715,2.07324-40.82422,3.81738l-1.00586-9.94921c53.61523-5.4209,69.73633-5.8125,70.39648-5.82715l.21485,9.998c-.11621.00293-13.35352.4834-22.27735,9.59571a30.11273,30.11273,0,0,0-8.30957,23.251,30.79639,30.79639,0,0,0,8.60743,18.64844Z"/><path d="M125.05078,145.83594c-7.99609,0-16.02344-.36817-23.93359-1.09864-4.79248-.44238-9.63037-1.02636-14.37842-1.73535l1.47754-9.89062c4.564.68262,9.21338,1.24316,13.81982,1.66894a251.41886,251.41886,0,0,0,28.23047,1.001l.209,9.99805Q127.76708,145.83642,125.05078,145.83594Z"/><rect x="76" y="14" width="70" height="6"/><path d="M76.06787,94.88477l-2.13574-9.76954c11.78418-2.57666,28.98877-8.56152,44.02881-22.43994C128.35547,53.08447,135.14063,42.792,138.29,35H75V25h75.98535l-1.06543,5.88965c-1.59179,8.80566-9.1416,24.33887-25.17773,39.13476C108.05469,85.42383,89.062,92.04346,76.06787,94.88477Z"/><path d="M65,65A14,14,0,1,1,79,51,14.01572,14.01572,0,0,1,65,65Zm0-22a8,8,0,1,0,8,8A8.00917,8.00917,0,0,0,65,43Z"/></svg>