<svg xmlns="http://www.w3.org/2000/svg" viewBox="0 0 200 200" id="wok" data-name="wok"><title>wok</title><path d="M76.06787,94.88477l-2.13574-9.76954c11.78418-2.57666,28.98877-8.56152,44.02881-22.43994C128.35547,53.08447,135.14063,42.792,138.29,35H75V25h75.98535l-1.06543,5.88965c-1.59179,8.80566-9.1416,24.33887-25.17773,39.13476C108.05469,85.42383,89.062,92.04346,76.06787,94.88477Z"/><path d="M65,65A14,14,0,1,1,79,51,14.01572,14.01572,0,0,1,65,65Zm0-22a8,8,0,1,0,8,8A8.00917,8.00917,0,0,0,65,43Z"/><path d="M 111.39258 105.17383 C 95.307029 106.46211 82.630859 115.98047 82.630859 115.98047 L 88.460938 124.10547 C 88.460938 124.10547 108.14643 110.73493 124.91602 116.70703 C 133.34491 119.70879 136.00079 124.56071 136.37695 130.6875 C 136.75312 136.81429 133.91127 144.34972 129.20898 149.9707 C 113.445 168.81459 90.290782 169.41479 80.25 164.94141 L 76.181641 174.07617 C 91.273705 180.80001 118.19195 178.72465 136.87891 156.38672 C 143.03729 149.02515 146.93917 139.51956 146.35938 130.07617 C 145.77958 120.63278 139.78016 111.38566 128.27148 107.28711 C 122.4951 105.22998 116.75443 104.7444 111.39258 105.17383 z "/></svg>