<svg data-name="Weyakqiloli 5" xmlns="http://www.w3.org/2000/svg" viewBox="0 0 200 200"><title>x</title><rect x="79.34277" y="37" width="60" height="6"/><path d="M110.64258,150.03809A44.02868,44.02868,0,0,1,84.12207,141.168a35.52247,35.52247,0,0,1-7.93555-8.16309c-9.17822-13.19336-9.16064-32.22851-5.07177-45.2417,3.09912-9.86279,8.50048-16.66015,15.20947-19.14062,9.40527-3.4707,21.67969,1.394,28.55469,11.31543,7.90039,11.39355,4.19922,24.70752,2.80566,29.72021-3.69043,13.32227-12.89062,22.87012-19.42773,28.042,8.60058,3.30566,18.5039,3.13769,25.96972-.89747,8.60157-4.64843,18.54981-17.37207,17.09961-51.58984a84.79854,84.79854,0,0,0-6.21-28.33643l9.26953-3.75292a94.78828,94.78828,0,0,1,6.93067,31.66406c1.34082,31.61865-6.17383,52.07861-22.33594,60.812A38.60091,38.60091,0,0,1,110.64258,150.03809ZM92.74512,77.50928a8.51391,8.51391,0,0,0-2.95606.49414c-3.63037,1.34179-7.0459,6.11181-9.13427,12.75781C76.68408,103.39746,78.22217,118.4209,84.395,127.294a24.87359,24.87359,0,0,0,4.46826,4.873c4.19531-2.66992,15.43067-11.62793,19.17481-25.14258,1.16113-4.17578,3.85058-13.85009-1.37793-21.38964C103.26758,80.73877,97.47705,77.50928,92.74512,77.50928Z"/><path d="M53.11279,93.36572a48.17194,48.17194,0,0,1-17.17431-9.498A45.55822,45.55822,0,0,1,24.73145,69.313L30.126,66.687a39.6029,39.6029,0,0,0,9.7417,12.646,42.12337,42.12337,0,0,0,15.01953,8.30127Z"/></svg>