<svg xmlns="http://www.w3.org/2000/svg" viewBox="0 0 200 200" id="xeg" data-name="xeg"><title>xeg</title><path d="M110.4375,95.01758a31.046,31.046,0,0,1-18.70264-6.249,25.62615,25.62615,0,0,1-5.645-5.813c-6.44189-9.25928-6.45117-22.54932-3.60351-31.6128C84.71045,44.26416,88.6709,39.355,93.63867,37.51855c6.96045-2.56933,15.98145.938,20.9834,8.15723,5.71094,8.23535,3.09375,17.65723,2.1084,21.20459A38.0398,38.0398,0,0,1,105.62305,84.4209a19.04172,19.04172,0,0,0,13.06836-1.35205c5.31543-2.87256,11.457-10.9043,10.52734-32.85449A54.86072,54.86072,0,0,0,125.19922,31.877l9.26855-3.7539a64.80881,64.80881,0,0,1,4.74121,21.665c.92286,21.77148-4.38183,35.92773-15.76367,42.07861A27.39124,27.39124,0,0,1,110.4375,95.01758ZM98.50488,46.67285a4.05083,4.05083,0,0,0-1.40136.22656c-1.91065.70606-3.85645,3.55762-5.07666,7.44092-2.11231,6.72266-2.01075,16.749,2.27148,22.90381a14.79147,14.79147,0,0,0,1.7666,2.0918c3.06934-2.21192,8.91553-7.49707,11.021-15.09815.71191-2.5625,2.35644-8.4834-.68164-12.86523C104.28418,48.31445,100.92725,46.67285,98.50488,46.67285Z"/><path d="M75.22656,56.23193A35.70909,35.70909,0,0,1,63.0835,50.46729,29.078,29.078,0,0,1,55.02,41.48242l5.2168-2.96484A23.11436,23.11436,0,0,0,66.65723,45.648a29.75223,29.75223,0,0,0,10.11621,4.78711Z"/><path d="M61.59863,62.89893a35.717,35.717,0,0,1-12.144-5.76465,29.0655,29.0655,0,0,1-8.063-8.98584l5.2168-2.96387a23.10689,23.10689,0,0,0,6.42041,7.13037,29.71958,29.71958,0,0,0,10.11572,4.78613Z"/><path d="M139.23633,171.84961a44.6835,44.6835,0,0,1-14.88672-6.69238,34.96575,34.96575,0,0,1-10.02148-10.58594l8.57617-5.14258a25.0312,25.0312,0,0,0,7.19531,7.54688,35.19669,35.19669,0,0,0,11.57422,5.1748Z"/><path d="m 111.39258,105.17383 c -16.085551,1.28828 -28.761721,10.80664 -28.761721,10.80664 l 5.830079,8.125 c 0,0 19.685492,-13.37054 36.455082,-7.39844 8.42889,3.00176 11.08477,7.85368 11.46093,13.98047 0.37617,6.12679 -2.46568,13.66222 -7.16797,19.2832 C 113.445,168.81459 90.290782,169.41479 80.25,164.94141 l -4.068359,9.13476 c 15.092064,6.72384 42.010309,4.64848 60.697269,-17.68945 6.15838,-7.36157 10.06026,-16.86716 9.48047,-26.31055 -0.5798,-9.44339 -6.57922,-18.69051 -18.0879,-22.78906 -5.77638,-2.05713 -11.51705,-2.54271 -16.8789,-2.11328 z"/></svg>