<svg xmlns="http://www.w3.org/2000/svg" viewBox="0 0 200 200" id="xiks" data-name="xiks"><title>xiks</title><path d="M141.56152,173.44629c-2.915-2.76074-18.18164-12.71484-39.57714-10.96484-13.32667,1.08789-21.5752,7.1748-23.78614,9.01464l-6.75586-7.35742.84815-.8584.30322-.22656c31.90918-23.791,45.26172-39.70019,49.4209-48.05371H75V105h58.55859v5c0,9.75684-11.09472,24.48145-31.74609,42.46484,24.46973-1.78125,41.92969,9.27149,46.626,13.72168Z"/><path d="M130.23438,170.2666l-9.98633-.5332a43.17421,43.17421,0,0,1,3.81347-15.53906,48.30323,48.30323,0,0,1,11.94239-16.08692l6.67382,7.44727a38.36619,38.36619,0,0,0-9.50488,12.75976A33.2049,33.2049,0,0,0,130.23438,170.2666Z"/><path d="M110.4375,95.01758a31.046,31.046,0,0,1-18.70264-6.249,25.62615,25.62615,0,0,1-5.645-5.813c-6.44189-9.25928-6.45117-22.54932-3.60351-31.6128C84.71045,44.26416,88.6709,39.355,93.63867,37.51855c6.96045-2.56933,15.98145.938,20.9834,8.15723,5.71094,8.23535,3.09375,17.65723,2.1084,21.20459A38.0398,38.0398,0,0,1,105.62305,84.4209a19.04172,19.04172,0,0,0,13.06836-1.35205c5.31543-2.87256,11.457-10.9043,10.52734-32.85449A54.86072,54.86072,0,0,0,125.19922,31.877l9.26855-3.7539a64.80881,64.80881,0,0,1,4.74121,21.665c.92286,21.77148-4.38183,35.92773-15.76367,42.07861A27.39124,27.39124,0,0,1,110.4375,95.01758ZM98.50488,46.67285a4.05083,4.05083,0,0,0-1.40136.22656c-1.91065.70606-3.85645,3.55762-5.07666,7.44092-2.11231,6.72266-2.01075,16.749,2.27148,22.90381a14.79147,14.79147,0,0,0,1.7666,2.0918c3.06934-2.21192,8.91553-7.49707,11.021-15.09815.71191-2.5625,2.35644-8.4834-.68164-12.86523C104.28418,48.31445,100.92725,46.67285,98.50488,46.67285Z"/><path d="M68.23584,60.90088a48.10489,48.10489,0,0,1-16.16016-7.60547,38.36221,38.36221,0,0,1-10.6792-11.80469l5.207-2.98144a32.40343,32.40343,0,0,0,9.03125,9.95556,42.05833,42.05833,0,0,0,14.12939,6.63428Z"/></svg>