<svg data-name="Verolqiloli itik" xmlns="http://www.w3.org/2000/svg" viewBox="0 0 200 200"><title>x</title><path d="M76.06787,174.88477l-2.13574-9.76954c11.78418-2.57617,28.98877-8.56152,44.02881-22.44043C128.35645,133.084,135.14063,122.792,138.29,115H75V105h75.98535l-1.06543,5.88965c-1.59179,8.80664-9.1416,24.33887-25.17773,39.13476C108.05469,165.42383,89.062,172.043,76.06787,174.88477Z"/><path d="M134.81055,163.832c-5.81348-.5957-16.94825-2.79687-26.21582-10.84277-6.94922-6.03711-14.00977-21.707-14.71045-23.60156l9.37842-3.47071c1.209,3.2666,7.52832,15.73242,11.88964,19.52246,7.18653,6.23926,16.04,7.96973,20.67774,8.44532Z"/><path d="M110.4375,95.01758a31.046,31.046,0,0,1-18.70264-6.249,25.62615,25.62615,0,0,1-5.645-5.813c-6.44189-9.25928-6.45117-22.54932-3.60351-31.6128C84.71045,44.26416,88.6709,39.355,93.63867,37.51855c6.96045-2.56933,15.98145.938,20.9834,8.15723,5.71094,8.23535,3.09375,17.65723,2.1084,21.20459A38.0398,38.0398,0,0,1,105.62305,84.4209a19.04172,19.04172,0,0,0,13.06836-1.35205c5.31543-2.87256,11.457-10.9043,10.52734-32.85449A54.86072,54.86072,0,0,0,125.19922,31.877l9.26855-3.7539a64.80881,64.80881,0,0,1,4.74121,21.665c.92286,21.77148-4.38183,35.92773-15.76367,42.07861A27.39124,27.39124,0,0,1,110.4375,95.01758ZM98.50488,46.67285a4.05083,4.05083,0,0,0-1.40136.22656c-1.91065.70606-3.85645,3.55762-5.07666,7.44092-2.11231,6.72266-2.01075,16.749,2.27148,22.90381a14.79147,14.79147,0,0,0,1.7666,2.0918c3.06934-2.21192,8.91553-7.49707,11.021-15.09815.71191-2.5625,2.35644-8.4834-.68164-12.86523C104.28418,48.31445,100.92725,46.67285,98.50488,46.67285Z"/><path d="M68.23584,60.90088a48.10489,48.10489,0,0,1-16.16016-7.60547,38.36221,38.36221,0,0,1-10.6792-11.80469l5.207-2.98144a32.40343,32.40343,0,0,0,9.03125,9.95556,42.05833,42.05833,0,0,0,14.12939,6.63428Z"/></svg>