<svg xmlns="http://www.w3.org/2000/svg" viewBox="0 0 200 200" id="xu!n" data-name="xu!n"><title>xu!n</title><path d="M80.44141,174.98047l-.88282-9.96094c26.21387-2.32129,38.71778-2.00586,48.38184-1.52637l4.90039.24317c-.083-5.55274-.14551-14.75586.10938-24.6211.16015-6.22168.792-13.93847,1.59277-23.708l.47363-5.80957,9.9668.80468-.47363,5.82032c-.78809,9.61425-1.41016,17.208-1.56348,23.15039-.39941,15.51758-.00391,29.33886,0,29.47656l.1582,5.4082-15.66015-.77636C118.11719,173.0166,106.02148,172.71484,80.44141,174.98047Z"/><rect x="85.5" y="14" width="47" height="6"/><path d="M110.4375,95.01758a31.046,31.046,0,0,1-18.70264-6.249,25.62615,25.62615,0,0,1-5.645-5.813c-6.44189-9.25928-6.45117-22.54932-3.60351-31.6128C84.71045,44.26416,88.6709,39.355,93.63867,37.51855c6.96045-2.56933,15.98145.938,20.9834,8.15723,5.71094,8.23535,3.09375,17.65723,2.1084,21.20459A38.0398,38.0398,0,0,1,105.62305,84.4209a19.04172,19.04172,0,0,0,13.06836-1.35205c5.31543-2.87256,11.457-10.9043,10.52734-32.85449A54.86072,54.86072,0,0,0,125.19922,31.877l9.26855-3.7539a64.80881,64.80881,0,0,1,4.74121,21.665c.92286,21.77148-4.38183,35.92773-15.76367,42.07861A27.39124,27.39124,0,0,1,110.4375,95.01758ZM98.50488,46.67285a4.05083,4.05083,0,0,0-1.40136.22656c-1.91065.70606-3.85645,3.55762-5.07666,7.44092-2.11231,6.72266-2.01075,16.749,2.27148,22.90381a14.79147,14.79147,0,0,0,1.7666,2.0918c3.06934-2.21192,8.91553-7.49707,11.021-15.09815.71191-2.5625,2.35644-8.4834-.68164-12.86523C104.28418,48.31445,100.92725,46.67285,98.50488,46.67285Z"/><path d="M43.54717,64c-.18946,0-.37891-.002-.56934-.00635l.08887-3.999a18.89639,18.89639,0,0,0,8.30859-1.63135,20.943,20.943,0,0,0,5.75244-3.91943,10.9594,10.9594,0,0,1-1.88525-1.41016c-.94629-.88428-3.45947-3.23389-3.38721-6.852a8.66358,8.66358,0,0,1,6.27637-7.896c2.88721-.77587,6.73193-.0332,8.166,2.55372.94335,1.70166.96582,4.03613.06542,6.75048a22.09,22.09,0,0,1-2.90576,5.56885l-.2124,3.14356a13.7993,13.7993,0,0,1-2.07715-.3003,25.40012,25.40012,0,0,1-8.147,6.00684A22.85223,22.85223,0,0,1,43.54717,64Zm16.835-22.00391a4.48166,4.48166,0,0,0-4.52783,4.26563c-.03663,1.834,1.41992,3.1958,2.11962,3.8501a7.35317,7.35317,0,0,0,1.87452,1.25586,18.68512,18.68512,0,0,0,2.71826-5.03711c.60742-1.832.51855-3.03614.23291-3.55176A3.19544,3.19544,0,0,0,60.38213,41.99609Z"/></svg>