<svg xmlns="http://www.w3.org/2000/svg" viewBox="0 0 200 200" id="xu" data-name="xu"><title>xu</title><path d="M110.64258,150.03809A44.02868,44.02868,0,0,1,84.12207,141.168a35.52247,35.52247,0,0,1-7.93555-8.16309c-9.17822-13.19336-9.16064-32.22851-5.07177-45.2417,3.09912-9.86279,8.50048-16.66015,15.20947-19.14062,9.40527-3.4707,21.67969,1.394,28.55469,11.31543,7.90039,11.39355,4.19922,24.70752,2.80566,29.72021-3.69043,13.32227-12.89062,22.87012-19.42773,28.042,8.60058,3.30566,18.5039,3.13769,25.96972-.89747,8.60157-4.64843,18.54981-17.37207,17.09961-51.58984a84.79854,84.79854,0,0,0-6.21-28.33643l9.26953-3.75292a94.78828,94.78828,0,0,1,6.93067,31.66406c1.34082,31.61865-6.17383,52.07861-22.33594,60.812A38.60091,38.60091,0,0,1,110.64258,150.03809ZM92.74512,77.50928a8.51391,8.51391,0,0,0-2.95606.49414c-3.63037,1.34179-7.0459,6.11181-9.13427,12.75781C76.68408,103.39746,78.22217,118.4209,84.395,127.294a24.87359,24.87359,0,0,0,4.46826,4.873c4.19531-2.66992,15.43067-11.62793,19.17481-25.14258,1.16113-4.17578,3.85058-13.85009-1.37793-21.38964C103.26758,80.73877,97.47705,77.50928,92.74512,77.50928Z"/><path d="M23.99238,101c-.25928,0-.51855-.00293-.7793-.00879l.13282-5.998A25.81867,25.81867,0,0,0,34.55732,92.792a28.07891,28.07891,0,0,0,7.48145-5.0664,15.1351,15.1351,0,0,1-2.28223-1.75342c-1.31445-1.22852-4.80566-4.4917-4.70508-9.54785a12.09537,12.09537,0,0,1,8.76172-11.02539c4.03711-1.08448,9.42481-.03077,11.44434,3.61328,1.32422,2.38916,1.36132,5.648.1084,9.42431a30.73317,30.73317,0,0,1-4.25684,8.02442l-.26758,4.0415a19.00229,19.00229,0,0,1-2.72656-.38183,34.87325,34.87325,0,0,1-11.08887,8.14013A31.4444,31.4444,0,0,1,23.99238,101ZM46.93525,70.99707A5.82921,5.82921,0,0,0,41.05049,76.544c-.04786,2.38037,1.80761,4.11376,2.80371,5.04541a9.61569,9.61569,0,0,0,2.26172,1.55615,24.71961,24.71961,0,0,0,3.55566-6.59815c.80078-2.415.70019-3.97314.33789-4.62646C49.77021,71.48926,48.43427,70.99707,46.93525,70.99707Z"/></svg>