<svg data-name="Yololqiloli itik" xmlns="http://www.w3.org/2000/svg" viewBox="0 0 200 200"><title>y</title><path d="M110.09277,175h-.17968c-9.97657-.04395-18.10108-3.74023-22.88868-10.41992-5.87207-8.19336-8.06836-19.53809-6.5288-33.71973a61.703,61.703,0,0,1,7.01953-23.30664l8.72168,4.89258A52.15739,52.15739,0,0,0,90.437,131.94141c-1.26562,11.65918.32031,20.68066,4.71485,26.81347C98.8291,163.88379,105.2373,164.98633,110.002,165c6.708-.01953,11.9795-2.23535,14.85059-6.24414,4.39551-6.1377,5.98242-15.15918,4.71582-26.81543a52.25319,52.25319,0,0,0-5.80078-19.49707l8.72461-4.88672a61.80615,61.80615,0,0,1,7.01758,23.30274c1.54,14.17675-.65528,25.52148-6.52637,33.71875-4.78418,6.68066-12.90918,10.37792-22.89063,10.42187Z"/><rect x="85.5" y="14" width="47" height="6"/><path d="M110.09277,95l-.17968-.00049c-9.97657-.04394-18.10108-3.74023-22.88916-10.41992-5.87159-8.19336-8.06788-19.53809-6.52832-33.71924A61.69969,61.69969,0,0,1,87.51514,27.5542l8.72168,4.8916A52.164,52.164,0,0,0,90.437,51.94043c-1.26562,11.65967.3208,20.68164,4.71485,26.81348C98.8291,83.88379,105.23828,84.98633,110.002,85c6.708-.01953,11.9795-2.23535,14.85059-6.24463,4.39551-6.13672,5.98242-15.15869,4.71582-26.81543a52.24958,52.24958,0,0,0-5.80078-19.49658l8.72461-4.88672a61.79963,61.79963,0,0,1,7.01758,23.30225c1.54,14.17773-.65625,25.522-6.52735,33.71924-4.7832,6.68017-12.9082,10.37744-22.88965,10.42138Z"/><path d="M75.22656,56.23193A35.70909,35.70909,0,0,1,63.0835,50.46729,29.078,29.078,0,0,1,55.02,41.48242l5.2168-2.96484A23.11436,23.11436,0,0,0,66.65723,45.648a29.75223,29.75223,0,0,0,10.11621,4.78711Z"/><path d="M61.59863,62.89893a35.717,35.717,0,0,1-12.144-5.76465,29.0655,29.0655,0,0,1-8.063-8.98584l5.2168-2.96387a23.10689,23.10689,0,0,0,6.42041,7.13037,29.71958,29.71958,0,0,0,10.11572,4.78613Z"/></svg>