<svg xmlns="http://www.w3.org/2000/svg" viewBox="0 0 200 200"><title>y</title><path d="M110.13379,150l-.26172-.001c-13.82959-.06445-25.04053-5.25683-31.58594-14.63769C70.084,123.60254,67.02979,107.18848,69.207,86.57471,71.0083,69.563,76.209,57.98926,79.14893,52.604l8.77734,4.792c-2.0791,3.8081-7.09619,14.37793-8.7749,30.23046-1.917,18.14991.55127,32.28565,7.33642,42.01319,5.93994,8.51269,16.03858,10.33887,23.51514,10.36035,7.48047-.02148,17.581-1.84668,23.51465-10.35937,6.78613-9.73438,9.2539-23.87012,7.33594-42.01514-1.67676-15.834-6.69532-26.417-8.77539-30.23194l8.77929-4.7871c2.94043,5.39257,8.14063,16.97607,9.94141,33.96679,2.17773,20.60742-.876,37.02051-9.07813,48.78614-6.53906,9.38183-17.751,14.57519-31.58691,14.63964Z"/><path d="M60.94971,93.50732a47.035,47.035,0,0,1-17.00244-9.58349,45.74475,45.74475,0,0,1-11.08545-14.665l5.41308-2.58691a39.7822,39.7822,0,0,0,9.64014,12.751,41.06558,41.06558,0,0,0,14.84912,8.36572Z"/><path d="M41.44824,104.84863a47.00955,47.00955,0,0,1-17.00244-9.584A45.727,45.727,0,0,1,13.35986,80.6001L18.773,78.01318a39.78356,39.78356,0,0,0,9.64062,12.751,41.04888,41.04888,0,0,0,14.84815,8.36523Z"/></svg>