<svg xmlns="http://www.w3.org/2000/svg" viewBox="0 0 200 200" id="yi!p" data-name="yi!p"><title>yi!p</title><path d="M110.09277,95l-.17968-.00049c-9.97657-.04394-18.10108-3.74023-22.88916-10.41992-5.87159-8.19336-8.06788-19.53809-6.52832-33.71924A61.69969,61.69969,0,0,1,87.51514,27.5542l8.72168,4.8916A52.164,52.164,0,0,0,90.437,51.94043c-1.26562,11.65967.3208,20.68164,4.71485,26.81348C98.8291,83.88379,105.23828,84.98633,110.002,85c6.708-.01953,11.9795-2.23535,14.85059-6.24463,4.39551-6.13672,5.98242-15.15869,4.71582-26.81543a52.24958,52.24958,0,0,0-5.80078-19.49658l8.72461-4.88672a61.79963,61.79963,0,0,1,7.01758,23.30225c1.54,14.17773-.65625,25.522-6.52735,33.71924-4.7832,6.68017-12.9082,10.37744-22.88965,10.42138Z"/><path d="M68.23584,60.90088a48.10489,48.10489,0,0,1-16.16016-7.60547,38.36221,38.36221,0,0,1-10.6792-11.80469l5.207-2.98144a32.40343,32.40343,0,0,0,9.03125,9.95556,42.05833,42.05833,0,0,0,14.12939,6.63428Z"/><rect x="85.5" y="14" width="47" height="6"/><path d="M98.918,174.98242a126.87494,126.87494,0,0,1-14.49317-.84765l1.1504-9.9336c25.82128,2.98828,41.38671-2.76367,43.77636-7.5957.26074-.52734,1.46973-3.26465-.2959-5.56543-4.124-5.374-9.17578-10.39649-18.13867-10.79-.75488.01074-4.77148.08105-5.93359.10156l-.44531.06446-1.08887-7.53321-.94629-2.07324.60742-.27637-.00195-.01367.04687-.00683L107.749,128.415c10.56934-5.85059,14.64453-9.53418,16.1709-11.2959-6.37012-2.35547-26.90722-2.47266-34.82861-1.79687l-.84863-9.96485c1.89355-.16015,11.585-.59765,21.105-.18262,15.55371.68262,22.751,3.08008,24.84179,8.27344,2.23243,5.54688-1.74707,11.335-13.17578,18.7168,7.42969,2.77051,12.33887,8.04883,15.97559,12.78711a15.2375,15.2375,0,0,1,1.32422,16.08984C133.40039,170.97559,116.68848,174.98145,98.918,174.98242Zm26.4375-57.10937v0Z"/></svg>