<svg xmlns="http://www.w3.org/2000/svg" viewBox="0 0 200 200" id="yo!kh" data-name="yo!kh"><title>yo!kh</title><path d="M124.833,172.0498l-9.1211-4.0996c10.624-23.64258,15.48536-38.68555,8.89161-45.6084-3.72071-3.90528-11.84571-4.55664-21.74024-1.73731-8.81787,2.5127-12.55078,10.08985-14.13086,15.96973-.623,3.89551-1.19433,8.125-1.20263,8.18457l-9.95508-.68652a42.93215,42.93215,0,0,1,1.373-9.63282c.23487-1.44336.47608-2.833.70215-3.96875,1.39893-7.03515,2.50684-14.1123,3.29248-21.03418l9.93653,1.127q-.21753,1.91748-.4668,3.84765a29.16583,29.16583,0,0,1,7.71094-3.42383c13.73144-3.91406,25.293-2.28906,31.7207,4.457C143.44141,127.62109,135.89844,147.4248,124.833,172.0498Z"/><path d="M141.96582,158.84961a89.67367,89.67367,0,0,1-20.90234-5.05566,73.17372,73.17372,0,0,1-8.47461-3.8379l4.71289-8.82031a62.98587,62.98587,0,0,0,7.3125,3.30957,79.64571,79.64571,0,0,0,18.56836,4.47852Z"/><rect x="85.5" y="14" width="47" height="6"/><path d="M110.09277,95l-.17968-.00049c-9.97657-.04394-18.10108-3.74023-22.88916-10.41992-5.87159-8.19336-8.06788-19.53809-6.52832-33.71924A61.69969,61.69969,0,0,1,87.51514,27.5542l8.72168,4.8916A52.164,52.164,0,0,0,90.437,51.94043c-1.26562,11.65967.3208,20.68164,4.71485,26.81348C98.8291,83.88379,105.23828,84.98633,110.002,85c6.708-.01953,11.9795-2.23535,14.85059-6.24463,4.39551-6.13672,5.98242-15.15869,4.71582-26.81543a52.24958,52.24958,0,0,0-5.80078-19.49658l8.72461-4.88672a61.79963,61.79963,0,0,1,7.01758,23.30225c1.54,14.17773-.65625,25.522-6.52735,33.71924-4.7832,6.68017-12.9082,10.37744-22.88965,10.42138Z"/><path d="M55,65A14,14,0,1,1,69,51,14.01572,14.01572,0,0,1,55,65Zm0-22a8,8,0,1,0,8,8A8.00917,8.00917,0,0,0,55,43Z"/></svg>