<svg xmlns="http://www.w3.org/2000/svg" viewBox="0 0 200 200" id="yo&apos;" data-name="yo&apos;"><title>yo'</title><path d="M110.13379,150l-.26172-.001c-13.82959-.06445-25.04053-5.25683-31.58594-14.63769C70.084,123.60254,67.02979,107.18848,69.207,86.57471,71.0083,69.563,76.209,57.98926,79.14893,52.604l8.77734,4.792c-2.0791,3.8081-7.09619,14.37793-8.7749,30.23046-1.917,18.14991.55127,32.28565,7.33642,42.01319,5.93994,8.51269,16.03858,10.33887,23.51514,10.36035,7.48047-.02148,17.581-1.84668,23.51465-10.35937,6.78613-9.73438,9.2539-23.87012,7.33594-42.01514-1.67676-15.834-6.69532-26.417-8.77539-30.23194l8.77929-4.7871c2.94043,5.39257,8.14063,16.97607,9.94141,33.96679,2.17773,20.60742-.876,37.02051-9.07813,48.78614-6.53906,9.38183-17.751,14.57519-31.58691,14.63964Z"/><path d="M39.74561,101a18,18,0,1,1,18-18A18.02031,18.02031,0,0,1,39.74561,101Zm0-30a12,12,0,1,0,12,12A12.01375,12.01375,0,0,0,39.74561,71Z"/><polygon points="57.423 85 51.423 85 51.423 52 84.423 52 84.423 58 57.423 58 57.423 85"/></svg>