<svg xmlns="http://www.w3.org/2000/svg" viewBox="0 0 200 200" id="yu!y" data-name="yu!y"><title>yu!y</title><path d="M110.09277,95l-.17968-.00049c-9.97657-.04394-18.10108-3.74023-22.88916-10.41992-5.87159-8.19336-8.06788-19.53809-6.52832-33.71924A61.69969,61.69969,0,0,1,87.51514,27.5542l8.72168,4.8916A52.164,52.164,0,0,0,90.437,51.94043c-1.26562,11.65967.3208,20.68164,4.71485,26.81348C98.8291,83.88379,105.23828,84.98633,110.002,85c6.708-.01953,11.9795-2.23535,14.85059-6.24463,4.39551-6.13672,5.98242-15.15869,4.71582-26.81543a52.24958,52.24958,0,0,0-5.80078-19.49658l8.72461-4.88672a61.79963,61.79963,0,0,1,7.01758,23.30225c1.54,14.17773-.65625,25.522-6.52735,33.71924-4.7832,6.68017-12.9082,10.37744-22.88965,10.42138Z"/><path d="M43.54717,64c-.18946,0-.37891-.002-.56934-.00635l.08887-3.999a18.89639,18.89639,0,0,0,8.30859-1.63135,20.943,20.943,0,0,0,5.75244-3.91943,10.9594,10.9594,0,0,1-1.88525-1.41016c-.94629-.88428-3.45947-3.23389-3.38721-6.852a8.66358,8.66358,0,0,1,6.27637-7.896c2.88721-.77587,6.73193-.0332,8.166,2.55372.94335,1.70166.96582,4.03613.06542,6.75048a22.09,22.09,0,0,1-2.90576,5.56885l-.2124,3.14356a13.7993,13.7993,0,0,1-2.07715-.3003,25.40012,25.40012,0,0,1-8.147,6.00684A22.85223,22.85223,0,0,1,43.54717,64Zm16.835-22.00391a4.48166,4.48166,0,0,0-4.52783,4.26563c-.03663,1.834,1.41992,3.1958,2.11962,3.8501a7.35317,7.35317,0,0,0,1.87452,1.25586,18.68512,18.68512,0,0,0,2.71826-5.03711c.60742-1.832.51855-3.03614.23291-3.55176A3.19544,3.19544,0,0,0,60.38213,41.99609Z"/><rect x="85.5" y="14" width="47" height="6"/><path d="M110.09277,175h-.17968c-9.97657-.04395-18.10108-3.74023-22.88868-10.41992-5.87207-8.19336-8.06836-19.53809-6.5288-33.71973a61.703,61.703,0,0,1,7.01953-23.30664l8.72168,4.89258A52.15739,52.15739,0,0,0,90.437,131.94141c-1.26562,11.65918.32031,20.68066,4.71485,26.81347C98.8291,163.88379,105.2373,164.98633,110.002,165c6.708-.01953,11.9795-2.23535,14.85059-6.24414,4.39551-6.1377,5.98242-15.15918,4.71582-26.81543a52.25319,52.25319,0,0,0-5.80078-19.49707l8.72461-4.88672a61.80615,61.80615,0,0,1,7.01758,23.30274c1.54,14.17675-.65528,25.52148-6.52637,33.71875-4.78418,6.68066-12.90918,10.37792-22.89063,10.42187Z"/></svg>