<svg id="Zawilqiloli_akopa" data-name="Zawilqiloli akopa" xmlns="http://www.w3.org/2000/svg" viewBox="0 0 200 200"><title>00141-z&amp;apos;_</title><path d="M141.56055,93.4458C138.64648,90.68457,123.38184,80.73,101.98438,82.481c-13.32667,1.08838-21.57569,7.17529-23.78614,9.01465l-6.75586-7.35645.52881-.53564,52.92334-57.00538,7.32813,6.80372L95.17139,73.31152a59.29582,59.29582,0,0,1,5.99853-.79736c24.80664-2.02441,42.53125,9.18311,47.26953,13.67285Z"/><path d="M122.45605,90.26855l-9.98632-.5371a43.21537,43.21537,0,0,1,3.81347-15.53663,48.31215,48.31215,0,0,1,11.94239-16.08789l6.67382,7.44825a38.37824,38.37824,0,0,0-9.50488,12.76025A33.23361,33.23361,0,0,0,122.45605,90.26855Z"/></svg>