<svg data-name="Hekalqilotontli 5" xmlns="http://www.w3.org/2000/svg" viewBox="0 0 200 200"><title>z'</title><polygon points="29.423 85 23.423 85 23.423 52 56.423 52 56.423 58 29.423 58 29.423 85"/><path d="M151.28711,148.34863c-3.83106-4.24707-23.82031-19.55957-51.64014-16.90527a52.83251,52.83251,0,0,0-31.15869,13.88281l-7.30957-6.80664.7002-.83008,68.06445-85.79687,7.834,6.21484-52.45947,66.127a63.60224,63.60224,0,0,1,13.37793-2.7461c31.42041-3.00293,54.437,13.97754,60.01709,20.16309Z"/><path d="M124.59082,145.50586l-9.99023-.459a70.58938,70.58938,0,0,1,19.50488-45.6045l7.23633,6.90235a60.58508,60.58508,0,0,0-16.751,39.16113Z"/><path d="M85.94971,93.50732a47.02288,47.02288,0,0,1-17.002-9.584A45.72672,45.72672,0,0,1,57.86182,69.25879l5.41308-2.58691a39.78366,39.78366,0,0,0,9.64063,12.751,41.05946,41.05946,0,0,0,14.84863,8.36572Z"/><path d="M66.44824,104.84863a47.00955,47.00955,0,0,1-17.00244-9.584A45.727,45.727,0,0,1,38.35986,80.6001L43.773,78.01318a39.78356,39.78356,0,0,0,9.64062,12.751,41.04888,41.04888,0,0,0,14.84815,8.36523Z"/></svg>