<svg xmlns="http://www.w3.org/2000/svg" viewBox="0 0 200 200" id="z&apos;ep" data-name="z&apos;ep"><title>z'ep</title><path d="M141.56055,93.4458C138.64648,90.68457,123.38184,80.73,101.98438,82.481c-13.32667,1.08838-21.57569,7.17529-23.78614,9.01465l-6.75586-7.35645.52881-.53564,52.92334-57.00538,7.32813,6.80372L95.17139,73.31152a59.29582,59.29582,0,0,1,5.99853-.79736c24.80664-2.02441,42.53125,9.18311,47.26953,13.67285Z"/><path d="M122.45605,90.26855l-9.98632-.5371a43.21537,43.21537,0,0,1,3.81347-15.53663,48.31215,48.31215,0,0,1,11.94239-16.08789l6.67382,7.44825a38.37824,38.37824,0,0,0-9.50488,12.76025A33.23361,33.23361,0,0,0,122.45605,90.26855Z"/><path d="M85.22656,56.23193A35.70909,35.70909,0,0,1,73.0835,50.46729,29.078,29.078,0,0,1,65.02,41.48242l5.2168-2.96484A23.11436,23.11436,0,0,0,76.65723,45.648a29.75223,29.75223,0,0,0,10.11621,4.78711Z"/><path d="M71.59863,62.89893a35.717,35.717,0,0,1-12.144-5.76465,29.0655,29.0655,0,0,1-8.063-8.98584l5.2168-2.96387a23.10689,23.10689,0,0,0,6.42041,7.13037,29.71958,29.71958,0,0,0,10.11572,4.78613Z"/><path d="M98.918,174.98242a126.87494,126.87494,0,0,1-14.49317-.84765l1.1504-9.9336c25.82128,2.98828,41.38671-2.76367,43.77636-7.5957.26074-.52734,1.46973-3.26465-.2959-5.56543-4.124-5.374-9.17578-10.39649-18.13867-10.79-.75488.01074-4.77148.08105-5.93359.10156l-.44531.06446-1.08887-7.53321-.94629-2.07324.60742-.27637-.00195-.01367.04687-.00683L107.749,128.415c10.56934-5.85059,14.64453-9.53418,16.1709-11.2959-6.37012-2.35547-26.90722-2.47266-34.82861-1.79687l-.84863-9.96485c1.89355-.16015,11.585-.59765,21.105-.18262,15.55371.68262,22.751,3.08008,24.84179,8.27344,2.23243,5.54688-1.74707,11.335-13.17578,18.7168,7.42969,2.77051,12.33887,8.04883,15.97559,12.78711a15.2375,15.2375,0,0,1,1.32422,16.08984C133.40039,170.97559,116.68848,174.98145,98.918,174.98242Zm26.4375-57.10937v0Z"/></svg>