<svg xmlns="http://www.w3.org/2000/svg" viewBox="0 0 200 200" id="z&apos;i&apos;" data-name="z&apos;i&apos;"><title>z'i'</title><path d="M151.28711,148.34863c-3.83106-4.24707-23.82031-19.55957-51.64014-16.90527a52.83251,52.83251,0,0,0-31.15869,13.88281l-7.30957-6.80664.7002-.83008,68.06445-85.79687,7.834,6.21484-52.45947,66.127a63.60224,63.60224,0,0,1,13.37793-2.7461c31.42041-3.00293,54.437,13.97754,60.01709,20.16309Z"/><path d="M124.59082,145.50586l-9.99023-.459a70.58938,70.58938,0,0,1,19.50488-45.6045l7.23633,6.90235a60.58508,60.58508,0,0,0-16.751,39.16113Z"/><path d="M76.11279,93.36572a48.17194,48.17194,0,0,1-17.17431-9.498A45.55822,45.55822,0,0,1,47.73145,69.313L53.126,66.687a39.6029,39.6029,0,0,0,9.7417,12.646,42.12337,42.12337,0,0,0,15.01953,8.30127Z"/><path d="M26.42348,85V55h30" style="fill:none;stroke-miterlimit:10;stroke-width:6px"/></svg>