<svg xmlns="http://www.w3.org/2000/svg" viewBox="0 0 200 200" id="z&apos;o!j" data-name="z&apos;o!j"><title>z'o!j</title><path d="M108.6416,175h-.17969c-9.96923-.04395-18.0874-3.74121-22.87207-10.42187-5.86523-8.19239-8.05908-19.53614-6.52148-33.7168a61.73539,61.73539,0,0,1,7.01221-23.30567l8.72363,4.88868a52.20365,52.20365,0,0,0-5.79443,19.49609c-1.26465,11.66113.32031,20.68359,4.71044,26.81641,3.67237,5.12695,10.07276,6.22949,14.83057,6.24316,6.7002-.01953,11.96485-2.23437,14.832-6.24219,4.39063-6.13672,5.97559-15.16015,4.71094-26.81836a52.28058,52.28058,0,0,0-5.7959-19.498l8.72656-4.88282a61.83285,61.83285,0,0,1,7.01075,23.30176c1.53808,14.17578-.65528,25.51953-6.51953,33.71582-4.78028,6.68164-12.89942,10.37988-22.874,10.42383Z"/><path d="M143.91309,158.84277a77.29921,77.29921,0,0,1-19.33692-5.10351,65.03717,65.03717,0,0,1-7.83691-3.874l5.03711-8.63867a54.89927,54.89927,0,0,0,6.6289,3.27442,67.21368,67.21368,0,0,0,16.834,4.42968Z"/><rect x="80.5" y="14" width="47" height="6"/><path d="M141.56055,93.4458C138.64648,90.68457,123.38184,80.73,101.98438,82.481c-13.32667,1.08838-21.57569,7.17529-23.78614,9.01465l-6.75586-7.35645.52881-.53564,52.92334-57.00538,7.32813,6.80372L95.17139,73.31152a59.29582,59.29582,0,0,1,5.99853-.79736c24.80664-2.02441,42.53125,9.18311,47.26953,13.67285Z"/><path d="M122.45605,90.26855l-9.98632-.5371a43.21537,43.21537,0,0,1,3.81347-15.53663,48.31215,48.31215,0,0,1,11.94239-16.08789l6.67382,7.44825a38.37824,38.37824,0,0,0-9.50488,12.76025A33.23361,33.23361,0,0,0,122.45605,90.26855Z"/><path d="M65,65A14,14,0,1,1,79,51,14.01572,14.01572,0,0,1,65,65Zm0-22a8,8,0,1,0,8,8A8.00917,8.00917,0,0,0,65,43Z"/></svg>