<svg xmlns="http://www.w3.org/2000/svg" viewBox="0 0 200 200" id="z&apos;ow" data-name="z&apos;ow"><title>z'ow</title><path d="M76.06787,174.88477l-2.13574-9.76954c11.78418-2.57617,28.98877-8.56152,44.02881-22.44043C128.35645,133.084,135.14063,122.792,138.29,115H75V105h75.98535l-1.06543,5.88965c-1.59179,8.80664-9.1416,24.33887-25.17773,39.13476C108.05469,165.42383,89.062,172.043,76.06787,174.88477Z"/><path d="M141.56055,93.4458C138.64648,90.68457,123.38184,80.73,101.98438,82.481c-13.32667,1.08838-21.57569,7.17529-23.78614,9.01465l-6.75586-7.35645.52881-.53564,52.92334-57.00538,7.32813,6.80372L95.17139,73.31152a59.29582,59.29582,0,0,1,5.99853-.79736c24.80664-2.02441,42.53125,9.18311,47.26953,13.67285Z"/><path d="M122.45605,90.26855l-9.98632-.5371a43.21537,43.21537,0,0,1,3.81347-15.53663,48.31215,48.31215,0,0,1,11.94239-16.08789l6.67382,7.44825a38.37824,38.37824,0,0,0-9.50488,12.76025A33.23361,33.23361,0,0,0,122.45605,90.26855Z"/><path d="M65,65A14,14,0,1,1,79,51,14.01572,14.01572,0,0,1,65,65Zm0-22a8,8,0,1,0,8,8A8.00917,8.00917,0,0,0,65,43Z"/></svg>