<svg xmlns="http://www.w3.org/2000/svg" viewBox="0 0 200 200" id="za!n" data-name="za!n"><title>za!n</title><path d="M80.44141,174.98047l-.88282-9.96094c26.21387-2.32129,38.71778-2.00586,48.38184-1.52637l4.90039.24317c-.083-5.55274-.14551-14.75586.10938-24.6211.16015-6.22168.792-13.93847,1.59277-23.708l.47363-5.80957,9.9668.80468-.47363,5.82032c-.78809,9.61425-1.41016,17.208-1.56348,23.15039-.39941,15.51758-.00391,29.33886,0,29.47656l.1582,5.4082-15.66015-.77636C118.11719,173.0166,106.02148,172.71484,80.44141,174.98047Z"/><rect x="80.5" y="14" width="47" height="6"/><path d="M141.55566,93.62451c-2.91308-2.769-18.16211-12.75146-39.57031-10.99756-13.32373,1.0918-21.5708,7.19629-23.78125,9.041l-6.76758-7.3457.84815-.86182.30322-.22656C104.52246,59.34961,117.874,43.37891,122.02344,35H75V25h58.55859v5c0,9.78613-11.10742,24.56348-31.77832,42.61279,24.48828-1.80273,41.96387,9.29639,46.66407,13.7627Z"/></svg>