<svg xmlns="http://www.w3.org/2000/svg" viewBox="0 0 200 200" id="za!s" data-name="za!s"><title>za!s</title><path d="M141.55566,93.62451c-2.91308-2.769-18.16211-12.75146-39.57031-10.99756-13.32373,1.0918-21.5708,7.19629-23.78125,9.041l-6.76758-7.3457.84815-.86182.30322-.22656C104.52246,59.34961,117.874,43.37891,122.02344,35H75V25h58.55859v5c0,9.78613-11.10742,24.56348-31.77832,42.61279,24.48828-1.80273,41.96387,9.29639,46.66407,13.7627Z"/><rect x="80.5" y="14" width="47" height="6"/><path d="M141.55566,173.625c-2.91308-2.76855-18.17578-12.75586-39.57031-10.99805-13.32422,1.0918-21.57129,7.19629-23.78125,9.041l-6.76758-7.34668.52881-.53711,52.92334-57.18066,7.33985,6.793L95.14209,153.46484a59.05073,59.05073,0,0,1,6.02686-.80468c24.79882-2.02442,42.53613,9.21191,47.27539,13.71484Z"/></svg>