<svg xmlns="http://www.w3.org/2000/svg" viewBox="0 0 200 200" id="ze!" data-name="ze!"><title>ze!</title><path d="M151.28711,148.34863c-3.83106-4.24707-23.82031-19.55957-51.64014-16.90527a52.83251,52.83251,0,0,0-31.15869,13.88281l-7.30957-6.80664.99512-1.17969.28808-.251C105.31445,99.69727,123.99316,73.45166,128.00879,60H65V50h73.86035v5c0,14.59961-16.30957,38.44629-45.57715,67.23926,1.74121-.31836,3.54541-.57227,5.4126-.751,31.42041-3.00293,54.437,13.97754,60.01709,20.16309Z"/><path d="M85.94971,93.50732a47.02288,47.02288,0,0,1-17.002-9.584A45.72672,45.72672,0,0,1,57.86182,69.25879l5.41308-2.58691a39.78366,39.78366,0,0,0,9.64063,12.751,41.05946,41.05946,0,0,0,14.84863,8.36572Z"/><path d="M66.44824,104.84863a47.00955,47.00955,0,0,1-17.00244-9.584A45.727,45.727,0,0,1,38.35986,80.6001L43.773,78.01318a39.78356,39.78356,0,0,0,9.64062,12.751,41.04888,41.04888,0,0,0,14.84815,8.36523Z"/><rect x="71.34277" y="37" width="60" height="6"/></svg>