<svg data-name="Jokilqiloli itik" xmlns="http://www.w3.org/2000/svg" viewBox="0 0 200 200"><title>z</title><path d="M108.6416,175h-.17969c-9.96923-.04395-18.0874-3.74121-22.87207-10.42187-5.86523-8.19239-8.05908-19.53614-6.52148-33.7168a61.73539,61.73539,0,0,1,7.01221-23.30567l8.72363,4.88868a52.20365,52.20365,0,0,0-5.79443,19.49609c-1.26465,11.66113.32031,20.68359,4.71044,26.81641,3.67237,5.12695,10.07276,6.22949,14.83057,6.24316,6.7002-.01953,11.96485-2.23437,14.832-6.24219,4.39063-6.13672,5.97559-15.16015,4.71094-26.81836a52.28058,52.28058,0,0,0-5.7959-19.498l8.72656-4.88282a61.83285,61.83285,0,0,1,7.01075,23.30176c1.53808,14.17578-.65528,25.51953-6.51953,33.71582-4.78028,6.68164-12.89942,10.37988-22.874,10.42383Z"/><path d="M143.91309,158.84277a77.29921,77.29921,0,0,1-19.33692-5.10351,65.03717,65.03717,0,0,1-7.83691-3.874l5.03711-8.63867a54.89927,54.89927,0,0,0,6.6289,3.27442,67.21368,67.21368,0,0,0,16.834,4.42968Z"/><rect x="80.5" y="14" width="47" height="6"/><path d="M141.55566,93.62451c-2.91308-2.769-18.16211-12.75146-39.57031-10.99756-13.32373,1.0918-21.5708,7.19629-23.78125,9.041l-6.76758-7.3457.84815-.86182.30322-.22656C104.52246,59.34961,117.874,43.37891,122.02344,35H75V25h58.55859v5c0,9.78613-11.10742,24.56348-31.77832,42.61279,24.48828-1.80273,41.96387,9.29639,46.66407,13.7627Z"/><path d="M85.22656,56.23193A35.70909,35.70909,0,0,1,73.0835,50.46729,29.078,29.078,0,0,1,65.02,41.48242l5.2168-2.96484A23.11436,23.11436,0,0,0,76.65723,45.648a29.75223,29.75223,0,0,0,10.11621,4.78711Z"/><path d="M71.59863,62.89893a35.717,35.717,0,0,1-12.144-5.76465,29.0655,29.0655,0,0,1-8.063-8.98584l5.2168-2.96387a23.10689,23.10689,0,0,0,6.42041,7.13037,29.71958,29.71958,0,0,0,10.11572,4.78613Z"/></svg>