<svg id="Zikoalistli_2" data-name="Zikoalistli 2" xmlns="http://www.w3.org/2000/svg" viewBox="0 0 200 200"><title>00167-zikoalistli2</title><path d="M83.751,149.99805a6.3648,6.3648,0,0,1-3.75635-1.23633c-2.54639-1.85742-3.83008-5.45313-4.041-11.31641-.89453-24.89941-1.59375-54.1997.0044-82.7251l9.98437.55958c-1.57519,28.12109-.88183,57.13427.0044,81.80615.02539.70117.06787,1.29883.11914,1.80469,9.49512-4.01172,33.79931-16.6504,50.26513-34.43946l7.3379,6.793c-20.47657,22.123-51.99512,36.76953-58.20118,38.5166A6.34434,6.34434,0,0,1,83.751,149.99805Z"/><path d="M136.34029,144.73935c-6.88653-2.75619-19.664-9.53147-27.86313-23.94552-5.68717-10.00731-8.60029-33.60847-8.79545-37.91156l9.99-.45326c.24058,5.29949,3.374,26.16372,7.498,33.42279a46.13921,46.13921,0,0,0,22.88581,19.60306Z"/></svg>