<svg data-name="Pokalqiloli itik" xmlns="http://www.w3.org/2000/svg" viewBox="0 0 200 200"><title>z</title><path d="M98.918,174.98242a126.87494,126.87494,0,0,1-14.49317-.84765l1.1504-9.9336c25.82128,2.98828,41.38671-2.76367,43.77636-7.5957.26074-.52734,1.46973-3.26465-.2959-5.56543-4.124-5.374-9.17578-10.39649-18.13867-10.79-.75488.01074-4.77148.08105-5.93359.10156l-.44531.06446-1.08887-7.53321-.94629-2.07324.60742-.27637-.00195-.01367.04687-.00683L107.749,128.415c10.56934-5.85059,14.64453-9.53418,16.1709-11.2959-6.37012-2.35547-26.90722-2.47266-34.82861-1.79687l-.84863-9.96485c1.89355-.16015,11.585-.59765,21.105-.18262,15.55371.68262,22.751,3.08008,24.84179,8.27344,2.23243,5.54688-1.74707,11.335-13.17578,18.7168,7.42969,2.77051,12.33887,8.04883,15.97559,12.78711a15.2375,15.2375,0,0,1,1.32422,16.08984C133.40039,170.97559,116.68848,174.98145,98.918,174.98242Zm26.4375-57.10937v0Z"/><rect x="80.5" y="14" width="47" height="6"/><path d="M141.55566,93.62451c-2.91308-2.769-18.16211-12.75146-39.57031-10.99756-13.32373,1.0918-21.5708,7.19629-23.78125,9.041l-6.76758-7.3457.84815-.86182.30322-.22656C104.52246,59.34961,117.874,43.37891,122.02344,35H75V25h58.55859v5c0,9.78613-11.10742,24.56348-31.77832,42.61279,24.48828-1.80273,41.96387,9.29639,46.66407,13.7627Z"/><path d="M65,65A14,14,0,1,1,79,51,14.01572,14.01572,0,0,1,65,65Zm0-22a8,8,0,1,0,8,8A8.00917,8.00917,0,0,0,65,43Z"/></svg>