<svg data-name="Chakalqiloli itik" xmlns="http://www.w3.org/2000/svg" viewBox="0 0 200 200"><title>z</title><path d="M85.00195,174.89844l-2.0039-9.79688a44.21139,44.21139,0,0,0,7.72168-2.31054,18.19289,18.19289,0,0,1-2.59082-3.79c-.709-1.26563-2.7837-4.97364-.86084-11.59961.93506-3.28223,4.43164-9.01758,11.55957-9.55176,7.84814-.60059,14.186,3.81055,15.0708,10.47656a16.02305,16.02305,0,0,1-2.13867,10.04883q.36181-.04834.73535-.10547c5.45019-.81348,10.85254-4.57519,14.45215-10.06348,3.67089-5.59667,4.92968-11.96875,3.4541-17.48144-1.749-6.53613-7.82129-14.17969-17.01856-15.51465-7.29883-1.05664-13.36914,2.20606-15.63916,3.66016L92.3501,110.4502a33.28687,33.28687,0,0,1,22.47021-5.13672c13.75,1.99707,22.585,12.90234,25.24121,22.82519,2.21192,8.26172.4795,17.5752-4.75293,25.55176-5.21386,7.9502-12.99121,13.22363-21.335,14.46973a39.77987,39.77987,0,0,1-12.374.291A50.21526,50.21526,0,0,1,85.00195,174.89844Zm15.1958-27.10059c-.207,0-.41357.00781-.61816.02344a3.21864,3.21864,0,0,0-2.71094,2.37695c-.75342,2.59766-.2539,3.49024-.04052,3.8711.07324.13086.13574.24511.18554.34179a6.93027,6.93027,0,0,0,2.76856,2.97852c2.97656-2.63477,4.50976-5.44043,4.20312-7.748C103.82031,148.39844,102.01172,147.79785,100.19775,147.79785Z"/><rect x="80.5" y="14" width="47" height="6"/><path d="M141.55566,93.62451c-2.91308-2.769-18.16211-12.75146-39.57031-10.99756-13.32373,1.0918-21.5708,7.19629-23.78125,9.041l-6.76758-7.3457.84815-.86182.30322-.22656C104.52246,59.34961,117.874,43.37891,122.02344,35H75V25h58.55859v5c0,9.78613-11.10742,24.56348-31.77832,42.61279,24.48828-1.80273,41.96387,9.29639,46.66407,13.7627Z"/><path d="M53.54717,64c-.18946,0-.37891-.002-.56934-.00635l.08887-3.999a18.89639,18.89639,0,0,0,8.30859-1.63135,20.943,20.943,0,0,0,5.75244-3.91943,10.9594,10.9594,0,0,1-1.88525-1.41016c-.94629-.88428-3.45947-3.23389-3.38721-6.852a8.66358,8.66358,0,0,1,6.27637-7.896c2.88721-.77587,6.73193-.0332,8.166,2.55372.94335,1.70166.96582,4.03613.06542,6.75048a22.09,22.09,0,0,1-2.90576,5.56885l-.2124,3.14356a13.7993,13.7993,0,0,1-2.07715-.3003,25.40012,25.40012,0,0,1-8.147,6.00684A22.85223,22.85223,0,0,1,53.54717,64Zm16.835-22.00391a4.48166,4.48166,0,0,0-4.52783,4.26563c-.03663,1.834,1.41992,3.1958,2.11962,3.8501a7.35317,7.35317,0,0,0,1.87452,1.25586,18.68512,18.68512,0,0,0,2.71826-5.03711c.60742-1.832.51855-3.03614.23291-3.55176A3.19544,3.19544,0,0,0,70.38213,41.99609Z"/></svg>