<svg data-name="Hekalqilotontli 5" xmlns="http://www.w3.org/2000/svg" viewBox="0 0 200 200"><title>z</title><polygon points="29.423 85 23.423 85 23.423 52 56.423 52 56.423 58 29.423 58 29.423 85"/><path d="M151.28711,148.34863c-3.83106-4.24707-23.82031-19.55957-51.64014-16.90527a52.83251,52.83251,0,0,0-31.15869,13.88281l-7.30957-6.80664.99512-1.17969.28808-.251C105.31445,99.69727,123.99316,73.45166,128.00879,60H65V50h73.86035v5c0,14.59961-16.30957,38.44629-45.57715,67.23926,1.74121-.31836,3.54541-.57227,5.4126-.751,31.42041-3.00293,54.437,13.97754,60.01709,20.16309Z"/><path d="M46.99238,101c-.25928,0-.51855-.00293-.7793-.00879l.13282-5.998A25.81867,25.81867,0,0,0,57.55732,92.792a28.07891,28.07891,0,0,0,7.48145-5.0664,15.1351,15.1351,0,0,1-2.28223-1.75342c-1.31445-1.22852-4.80566-4.4917-4.70508-9.54785a12.09537,12.09537,0,0,1,8.76172-11.02539c4.03711-1.08448,9.42481-.03077,11.44434,3.61328,1.32422,2.38916,1.36132,5.648.1084,9.42431a30.73317,30.73317,0,0,1-4.25684,8.02442l-.26758,4.0415a19.00229,19.00229,0,0,1-2.72656-.38183,34.87325,34.87325,0,0,1-11.08887,8.14013A31.4444,31.4444,0,0,1,46.99238,101ZM69.93525,70.99707A5.82921,5.82921,0,0,0,64.05049,76.544c-.04786,2.38037,1.80761,4.11376,2.80371,5.04541a9.61569,9.61569,0,0,0,2.26172,1.55615,24.71961,24.71961,0,0,0,3.55566-6.59815c.80078-2.415.70019-3.97314.33789-4.62646C72.77021,71.48926,71.43427,70.99707,69.93525,70.99707Z"/></svg>